<svg xmlns="http://www.w3.org/2000/svg" width="79.328" height="133.82" viewBox="0 0 79.328 133.82"><defs><style>.a{fill:#fff;}.b{fill:#a4f4fc;}.c{fill:#246789;}</style></defs><g transform="translate(-354.889 -230.508) rotate(19)"><rect class="a" width="32.899" height="12.683" rx="2.442" transform="translate(457.938 117.95)"/><path class="a" d="M482.736,191.475H465.412a16.309,16.309,0,0,1-16.219-18.016l2.2-20.907a16.344,16.344,0,0,0,0-3.419l-2.2-20.808A16.308,16.308,0,0,1,465.416,110.3h17.32a16.309,16.309,0,0,1,16.22,18.018l-2.2,20.857a16.327,16.327,0,0,0,0,3.419l2.2,20.859A16.309,16.309,0,0,1,482.736,191.475Z" transform="translate(0.314 20.974)"/><path class="a" d="M477.747,108.824h0a4.538,4.538,0,0,1-4.538-4.537V103.1a18.132,18.132,0,0,1,1.739-7.807,6.728,6.728,0,1,0-12.822-2.838,6.563,6.563,0,0,0,.55,2.639A20.061,20.061,0,0,1,464.5,103.1v1.187a4.538,4.538,0,0,1-4.538,4.537h0a4.579,4.579,0,0,0-4.634,3.951,4.408,4.408,0,0,0,4.384,4.861H478a4.408,4.408,0,0,0,4.384-4.861A4.579,4.579,0,0,0,477.747,108.824Z" transform="translate(5.531 0.315)"/><path class="b" d="M471.146,103.062h-12.92a4.5,4.5,0,0,0-4.494,4.494v3.694a4.5,4.5,0,0,0,4.494,4.494h12.92Z" transform="translate(4.205 14.888)"/><g transform="translate(467.23 148.718)"><path class="c" d="M472.407,121.16H459.471a.69.69,0,0,1,0-1.38h12.936a.69.69,0,0,1,0,1.38Z" transform="translate(-458.781 -119.78)"/><g transform="translate(0 6.745)"><path class="c" d="M468.535,124.825h-9.064a.69.69,0,0,1,0-1.38h9.064a.69.69,0,1,1,0,1.38Z" transform="translate(-458.781 -123.445)"/></g><g transform="translate(0 13.488)"><path class="c" d="M472.407,128.489H459.471a.69.69,0,0,1,0-1.38h12.936a.69.69,0,0,1,0,1.38Z" transform="translate(-458.781 -127.109)"/></g><g transform="translate(0 20.233)"><path class="c" d="M468.535,132.154h-9.064a.69.69,0,0,1,0-1.38h9.064a.69.69,0,1,1,0,1.38Z" transform="translate(-458.781 -130.774)"/></g><g transform="translate(0 26.979)"><path class="c" d="M472.407,135.819H459.471a.69.69,0,0,1,0-1.38h12.936a.69.69,0,0,1,0,1.38Z" transform="translate(-458.781 -134.439)"/></g><g transform="translate(0 33.722)"><path class="c" d="M468.535,139.483h-9.064a.69.69,0,0,1,0-1.38h9.064a.69.69,0,1,1,0,1.38Z" transform="translate(-458.781 -138.103)"/></g><g transform="translate(0 40.467)"><path class="c" d="M472.407,143.148H459.471a.69.69,0,0,1,0-1.38h12.936a.69.69,0,0,1,0,1.38Z" transform="translate(-458.781 -141.768)"/></g></g><g transform="translate(463.996 117.424)"><path class="c" d="M457.714,117.321a.69.69,0,0,1-.69-.69V103.466a.69.69,0,1,1,1.38,0v13.164A.69.69,0,0,1,457.714,117.321Z" transform="translate(-457.024 -102.776)"/><g transform="translate(6.467)"><path class="c" d="M461.228,117.321a.69.69,0,0,1-.69-.69V103.466a.69.69,0,1,1,1.38,0v13.164A.69.69,0,0,1,461.228,117.321Z" transform="translate(-460.538 -102.776)"/></g><g transform="translate(12.936)"><path class="c" d="M464.743,117.321a.69.69,0,0,1-.69-.69V103.466a.69.69,0,1,1,1.38,0v13.164A.69.69,0,0,1,464.743,117.321Z" transform="translate(-464.053 -102.776)"/></g><g transform="translate(19.403)"><path class="c" d="M468.257,117.321a.69.69,0,0,1-.69-.69V103.466a.69.69,0,1,1,1.38,0v13.164A.69.69,0,0,1,468.257,117.321Z" transform="translate(-467.567 -102.776)"/></g></g><path class="b" d="M470.216,183.685c-4.34-2.514-9.174-5.078-11.125-9.7-2.4-5.681.491-12.077.867-18.233.5-8.116-3.464-15.9-3.723-24.03a26.766,26.766,0,0,1,3.373-13.689c1.7-3.081,4.864-5.247,7.152-7.732h-1.344A16.307,16.307,0,0,0,449.2,128.323l2.2,20.81a16.344,16.344,0,0,1,0,3.419l-2.2,20.905a16.309,16.309,0,0,0,16.219,18.018H480.1A36.073,36.073,0,0,0,470.216,183.685Z" transform="translate(0.314 20.974)"/><g transform="translate(457.249 117.26)"><path class="c" d="M482.672,116.75H458.322a4.97,4.97,0,0,1-4.964-4.964v-4.135a4.97,4.97,0,0,1,4.964-4.964h24.351a4.97,4.97,0,0,1,4.965,4.964v4.135A4.97,4.97,0,0,1,482.672,116.75Zm-24.351-12.682a3.588,3.588,0,0,0-3.583,3.583v4.135a3.588,3.588,0,0,0,3.583,3.583h24.351a3.588,3.588,0,0,0,3.585-3.583v-4.135a3.588,3.588,0,0,0-3.585-3.583Z" transform="translate(-453.358 -102.687)"/></g><path class="b" d="M464.166,111.649c.848-.7,2.039-.974,2.7-1.85a3.961,3.961,0,0,0,.631-2.109c.534-6.714-2.934-14.1.572-19.853a8.9,8.9,0,0,1,1.958-2,6.715,6.715,0,0,0-7.9,6.6,6.563,6.563,0,0,0,.55,2.639,20.061,20.061,0,0,1,1.829,8.009v1.187a4.538,4.538,0,0,1-4.538,4.537h0a4.579,4.579,0,0,0-4.634,3.951,4.408,4.408,0,0,0,4.384,4.861H463.1C462.668,115.324,462.479,113.035,464.166,111.649Z" transform="translate(5.531 0.331)"/><g transform="translate(448.73 130.588)"><path class="c" d="M449.951,133.5a.69.69,0,0,1-.687-.617l-.442-4.172a17,17,0,0,1,16.906-18.783h17.32a17.065,17.065,0,0,1,15.989,11.208.69.69,0,0,1-1.3.471,15.677,15.677,0,0,0-14.692-10.3h-17.32A15.616,15.616,0,0,0,450.2,128.567l.44,4.172a.691.691,0,0,1-.615.758A.484.484,0,0,1,449.951,133.5Z" transform="translate(-448.729 -109.929)"/></g><g transform="translate(448.728 153.487)"><path class="c" d="M483.05,182.024H465.726a17,17,0,0,1-16.9-18.78l2.2-20.905a15.7,15.7,0,0,0,0-3.274l-.379-3.594a.69.69,0,0,1,.615-.758.681.681,0,0,1,.758.613l.379,3.594a16.975,16.975,0,0,1,0,3.565l-2.2,20.905a15.615,15.615,0,0,0,15.531,17.254H483.05a15.618,15.618,0,0,0,15.533-17.256l-2.2-20.857a17.217,17.217,0,0,1,0-3.565l1.684-15.975a.678.678,0,0,1,.758-.613.691.691,0,0,1,.615.76l-1.684,15.973a15.96,15.96,0,0,0,0,3.276l2.2,20.856a17,17,0,0,1-16.906,18.781Z" transform="translate(-448.728 -122.371)"/></g><g transform="translate(460.152 85.347)"><path class="c" d="M478.312,118.64H460.029a5.1,5.1,0,0,1-5.068-5.621,5.279,5.279,0,0,1,5.321-4.572,3.852,3.852,0,0,0,3.848-3.846v-1.187a19.4,19.4,0,0,0-1.772-7.733,7.255,7.255,0,0,1-.607-2.915,7.385,7.385,0,0,1,2.792-5.8,7.469,7.469,0,0,1,6.357-1.426,7.344,7.344,0,0,1,5.475,5.422.689.689,0,1,1-1.34.32,6.045,6.045,0,0,0-11.9,1.483,5.891,5.891,0,0,0,.491,2.363,20.753,20.753,0,0,1,1.888,8.286V104.6a5.235,5.235,0,0,1-5.229,5.227,3.885,3.885,0,0,0-3.946,3.329,3.712,3.712,0,0,0,3.694,4.1h18.283a3.732,3.732,0,0,0,2.757-1.224,3.69,3.69,0,0,0,.94-2.877,3.892,3.892,0,0,0-3.95-3.331,5.235,5.235,0,0,1-5.227-5.227v-1.191a.69.69,0,0,1,1.38,0V104.6a3.852,3.852,0,0,0,3.846,3.846,5.283,5.283,0,0,1,5.322,4.573,5.1,5.1,0,0,1-5.07,5.619Z" transform="translate(-454.935 -85.347)"/></g></g></svg>