<svg xmlns="http://www.w3.org/2000/svg" width="122.201" height="99.214" viewBox="0 0 122.201 99.214"><defs><style>.a{fill:#a4f4fc;}.b,.d{fill:#fff;}.c{fill:#246789;}.d{stroke:#246789;stroke-linecap:round;stroke-linejoin:round;stroke-width:0.75px;}.e{fill:#f2c894;}</style></defs><g transform="translate(-518.396 -4.057) rotate(-50)"><path class="a" d="M296.435,468.384a14.083,14.083,0,0,0,.516,1.959c.039.114.091.225.133.339a15.778,15.778,0,0,0,.722,1.624c.083.166.164.335.256.5a17.662,17.662,0,0,0,1.079,1.711c.135.191.283.376.428.566.316.414.655.819,1.013,1.221.171.191.331.385.509.572.457.478.954.944,1.468,1.4.27.239.551.474.834.707.347.285.707.559,1.075.834q.758.565,1.574,1.1c.333.218.665.437,1.013.647.416.254.84.5,1.277.745.3.164.605.32.909.48q1.167.608,2.412,1.162c.291.131.584.258.884.385.53.222,1.067.443,1.618.649a79.747,79.747,0,0,0,24.9-11.676c1.262-.865,2.664-2.358,1.911-3.691a49.038,49.038,0,0,1-7.948-.4,2.7,2.7,0,0,1-1.6-4.427,6.916,6.916,0,0,0,1.356-2.163c1.038-2.68.667-5.669.339-8.524-.422-3.656-.726-7.326-.965-11a65.333,65.333,0,0,0-8.193.907h0c-.354.064-.692.146-1.042.214-.765.15-1.528.306-2.271.482-.46.108-.907.231-1.356.349-.62.162-1.235.333-1.836.514-.451.135-.9.277-1.337.42-.593.2-1.173.4-1.745.616-.405.152-.815.3-1.21.458-.678.272-1.333.563-1.982.859-.256.116-.524.225-.774.345q-1.288.621-2.477,1.306c-.3.171-.576.351-.863.526-.514.312-1.019.63-1.5.959-.3.2-.586.412-.873.622q-.671.493-1.3,1.009c-.258.21-.516.422-.759.638-.447.393-.863.8-1.268,1.21-.173.175-.36.347-.526.526a20.861,20.861,0,0,0-1.5,1.811c-.108.146-.193.3-.3.447-.337.487-.655.979-.934,1.483-.129.227-.237.46-.351.69-.22.443-.42.888-.595,1.341-.1.245-.185.493-.266.74a13.938,13.938,0,0,0-.378,1.439c-.048.222-.106.443-.143.67a12.205,12.205,0,0,0-.006,4.223C296.381,468.068,296.406,468.226,296.435,468.384Z" transform="translate(0.405 17.296)"/><path class="b" d="M324.422,463.065A17.976,17.976,0,1,0,342.4,481.04,17.975,17.975,0,0,0,324.422,463.065Zm0,29.4a11.426,11.426,0,1,1,11.425-11.427A11.426,11.426,0,0,1,324.422,492.467Z" transform="translate(11.491 38.841)"/><g transform="translate(317.158 501.126)"><path class="c" d="M324.826,500.2a18.755,18.755,0,1,1,18.757-18.755A18.774,18.774,0,0,1,324.826,500.2Zm0-35.95a17.2,17.2,0,1,0,17.2,17.2A17.213,17.213,0,0,0,324.826,464.25Zm-5.294,28.1a.789.789,0,0,1-.362-.089,12.207,12.207,0,1,1,14.286-2.188.781.781,0,0,1-1.1-1.1,10.643,10.643,0,1,0-12.458,1.911.78.78,0,0,1-.362,1.47Z" transform="translate(-306.071 -462.69)"/></g><rect class="d" width="13.647" height="13.646" transform="translate(329.089 500.01)"/><g transform="translate(328.311 499.23)"><path class="c" d="M325.859,476.985H312.214a.78.78,0,0,1-.78-.78V462.558a.78.78,0,0,1,.78-.78h13.646a.78.78,0,0,1,.78.78v13.648A.78.78,0,0,1,325.859,476.985Zm-12.866-1.56H325.08V463.338H312.994Z" transform="translate(-311.434 -461.778)"/></g><ellipse class="b" cx="39.332" cy="22.826" rx="39.332" ry="22.826" transform="translate(296.581 460.304)"/><path class="b" d="M313,469.747v2.886a10.894,10.894,0,0,1-1.7,5.858,3.46,3.46,0,0,0,.6,4.325l.015.014a16.9,16.9,0,0,0,23.367-.014h0a3.456,3.456,0,0,0,.6-4.321,10.91,10.91,0,0,1-1.7-5.862v-5.265a38.855,38.855,0,0,1,4.232-16.634,16.33,16.33,0,0,0-11-22.845,16.4,16.4,0,0,0-20.2,15.945,15.977,15.977,0,0,0,1.358,6.465A48.351,48.351,0,0,1,313,469.747Z" transform="translate(12.32 0.401)"/><path class="e" d="M340.961,486.512a49.034,49.034,0,0,1-7.948-.4,2.7,2.7,0,0,1-1.6-4.427,6.915,6.915,0,0,0,1.356-2.163c1.038-2.68.667-5.669.339-8.524a221.859,221.859,0,0,1-1.449-27.609c.033-3.546.2-7.262,1.986-10.325,1.522-2.61,3.776-3.67,5.983-5.086-.1-.025-.193-.067-.293-.089a16.4,16.4,0,0,0-20.2,15.945,15.977,15.977,0,0,0,1.358,6.465,54.392,54.392,0,0,1,3.462,10.607c-16.081,2.868-27.774,11.549-27.774,21.82,0,8.035,7.168,15.085,17.979,19.152a79.746,79.746,0,0,0,24.9-11.676C340.312,489.338,341.714,487.844,340.961,486.512Z" transform="translate(0.405 0.401)"/><g transform="translate(295.8 459.524)"><path class="c" d="M335.913,489.895c-22.12,0-40.113-10.591-40.113-23.606,0-10.913,12.541-20.342,30.5-22.924a67.711,67.711,0,0,1,9.616-.68c13.269,0,25.65,3.831,33.122,10.252a.779.779,0,0,1-1.015,1.183c-7.2-6.184-19.2-9.876-32.107-9.876a66.081,66.081,0,0,0-9.393.663c-17.168,2.47-29.161,11.263-29.161,21.381,0,12.157,17.3,22.047,38.554,22.047,16.114,0,30.672-5.837,36.227-14.525a.781.781,0,1,1,1.316.842C367.623,483.768,352.537,489.895,335.913,489.895Z" transform="translate(-295.8 -442.684)"/></g><g transform="translate(318.753 427.084)"><path class="c" d="M330.981,487.187a.779.779,0,0,1-.322-1.489,16.088,16.088,0,0,0,4.492-3.042,2.678,2.678,0,0,0,.48-3.344,11.714,11.714,0,0,1-1.824-6.278v-5.265c0-5.328,1.41-10.878,4.307-16.969a15.549,15.549,0,0,0-10.464-21.749,15.744,15.744,0,0,0-13.384,2.992,15.524,15.524,0,0,0-5.868,12.192,15.2,15.2,0,0,0,1.291,6.153,49.076,49.076,0,0,1,4.5,19.759v2.886a11.69,11.69,0,0,1-1.822,6.276,2.675,2.675,0,0,0,.482,3.342l-1.11,1.094a4.217,4.217,0,0,1-.688-5.269,10.154,10.154,0,0,0,1.578-5.442v-2.886a47.58,47.58,0,0,0-4.365-19.131,16.75,16.75,0,0,1-1.424-6.781,17.081,17.081,0,0,1,6.455-13.411,17.3,17.3,0,0,1,14.7-3.3,17.113,17.113,0,0,1,11.529,23.941c-2.8,5.877-4.157,11.208-4.157,16.3v5.265a10.18,10.18,0,0,0,1.58,5.446,4.241,4.241,0,0,1-.715,5.3,17.6,17.6,0,0,1-4.926,3.338A.785.785,0,0,1,330.981,487.187Z" transform="translate(-306.838 -427.084)"/></g><path class="b" d="M313,469.747v2.886a10.894,10.894,0,0,1-1.7,5.858,3.46,3.46,0,0,0,.6,4.325l.015.014a16.9,16.9,0,0,0,23.367-.014h0a3.456,3.456,0,0,0,.6-4.321,10.91,10.91,0,0,1-1.7-5.862v-5.265a38.855,38.855,0,0,1,4.232-16.634,16.33,16.33,0,0,0-11-22.845,16.4,16.4,0,0,0-20.2,15.945,15.977,15.977,0,0,0,1.358,6.465A48.351,48.351,0,0,1,313,469.747Z" transform="translate(12.32 0.401)"/><path class="e" d="M309.613,452.828c.044.112.083.225.125.337q.437,1.148.823,2.31l.056.177c.277.842.528,1.691.761,2.543l0,.012q.365,1.341.651,2.7h0a42.668,42.668,0,0,1,.969,8.84v2.886a10.894,10.894,0,0,1-1.7,5.858,3.46,3.46,0,0,0,.6,4.325l.015.014a16.857,16.857,0,0,0,17.141,3.718.273.273,0,0,0-.015-.037,49.034,49.034,0,0,1-7.948-.4,2.7,2.7,0,0,1-1.6-4.427,6.914,6.914,0,0,0,1.356-2.163c1.038-2.68.667-5.669.339-8.524a221.865,221.865,0,0,1-1.449-27.609c.033-3.546.2-7.262,1.986-10.325,1.522-2.61,3.776-3.67,5.983-5.086-.1-.025-.193-.067-.293-.089a16.4,16.4,0,0,0-20.2,15.945,15.977,15.977,0,0,0,1.358,6.465C308.939,451.135,309.284,451.977,309.613,452.828Z" transform="translate(12.32 0.401)"/><g transform="translate(318.753 427.084)"><path class="c" d="M330.981,487.187a.779.779,0,0,1-.322-1.489,16.088,16.088,0,0,0,4.492-3.042,2.678,2.678,0,0,0,.48-3.344,11.714,11.714,0,0,1-1.824-6.278v-5.265c0-5.328,1.41-10.878,4.307-16.969a15.549,15.549,0,0,0-10.464-21.749,15.744,15.744,0,0,0-13.384,2.992,15.524,15.524,0,0,0-5.868,12.192,15.2,15.2,0,0,0,1.291,6.153,49.076,49.076,0,0,1,4.5,19.759v2.886a11.69,11.69,0,0,1-1.822,6.276,2.675,2.675,0,0,0,.482,3.342l-1.11,1.094a4.217,4.217,0,0,1-.688-5.269,10.154,10.154,0,0,0,1.578-5.442v-2.886a47.58,47.58,0,0,0-4.365-19.131,16.75,16.75,0,0,1-1.424-6.781,17.081,17.081,0,0,1,6.455-13.411,17.3,17.3,0,0,1,14.7-3.3,17.113,17.113,0,0,1,11.529,23.941c-2.8,5.877-4.157,11.208-4.157,16.3v5.265a10.18,10.18,0,0,0,1.58,5.446,4.241,4.241,0,0,1-.715,5.3,17.6,17.6,0,0,1-4.926,3.338A.785.785,0,0,1,330.981,487.187Z" transform="translate(-306.838 -427.084)"/></g></g></svg>