<svg xmlns="http://www.w3.org/2000/svg" width="86.11" height="97.879" viewBox="0 0 86.11 97.879"><defs><style>.a{fill:#a8f6f8;}.b{fill:#fff;}.c{fill:#9db1b0;opacity:0.3;mix-blend-mode:screen;}.c,.d,.e,.g,.h{isolation:isolate;}.d{fill:#dce7e4;}.d,.e,.g{mix-blend-mode:multiply;}.e{fill:#e1eced;}.f{fill:#ff9e9e;}.g{fill:#f5f0d3;}.h{fill:#ffc02d;opacity:0.97;mix-blend-mode:darken;}.i{fill:#e74e50;}.j{fill:#e76460;}.k{fill:#83b9cd;}</style></defs><g transform="translate(-88.301 -856.724) rotate(42)"><path class="a" d="M711.306,662.875c2.848,2.857,7.17,1.982,10.613.863a114,114,0,0,0,14.411-5.945c3.716-1.8,8.587-3.131,9.993-7.558,1.661-5.237-2.267-10.682-4.779-14.865-2.613-4.348-5.5-8.534-8.364-12.717a47.318,47.318,0,0,1-4.8-8.458c-1.261-3.032-1.79-6.244-2.794-9.353-.877-2.708-4.227-6.971-6.906-8.326a5.214,5.214,0,0,0-4.121-.137l-13.081,5.636c-2.848,1.23-4.939,1.851-6.815,4.42-1.851,2.539-3.23,8.974.285,13.821a32.878,32.878,0,0,1,4.085,7.813c2.007,5.456,2.2,9.458,4.13,14.939.721,2.034,2.075,5.9,2.735,7.955C707.2,655.023,708.191,659.745,711.306,662.875Z" transform="translate(-12.554 -41.299)"/><path class="b" d="M742.575,754.42a53.262,53.262,0,0,1-1.68-6.086,5.444,5.444,0,0,1,.976-1.052c1.955-1.582,3.7-1.151,5.9-.337,4.327,1.607,8.97,2.626,13.547,1.427,3.307-.867,8.481-3.391,10.817-6.868,1.372,2.052,2.719,4.123,3.987,6.239,2.2,3.657,5.633,8.417,4.18,12.994-1.227,3.87-5.488,5.036-8.734,6.608a100.179,100.179,0,0,1-12.6,5.2c-3.007.977-6.79,1.743-9.277-.755-2.724-2.736-3.587-6.864-4.727-10.412C744.387,759.58,743.2,756.2,742.575,754.42Z" transform="translate(-49.51 -153.034)"/><path class="c" d="M797.966,662.548a41.591,41.591,0,0,0,4.688-2.165,74.9,74.9,0,0,0,5.4,13.186c2.353,4.5,6.277,8.65,9.123,12.875,1.415,2.1,6.98,13.084,7.017,13.142-.945,1.314-3.282,2.724-5.71,3.77-1.594-3.933-5.78-10.664-6.992-12.956-2.742-5.187-6.576-9.344-8.732-14.784C801.011,671.193,799.528,667.02,797.966,662.548Z" transform="translate(-93.342 -90.731)"/><path class="c" d="M789.606,635.588a36.348,36.348,0,0,0,4.93-2.613c.389,1.167.739,2.347,1.074,3.531a24.629,24.629,0,0,1-4.883,2.456q-.176-.507-.355-1.014C790.108,637.2,789.859,636.4,789.606,635.588Z" transform="translate(-86.921 -69.682)"/><path class="d" d="M716.036,605.515c-3.131,1.6-6.223,2.655-9.309,4.01a83.6,83.6,0,0,1-10.014,3.713,9.535,9.535,0,0,1-3.917.649,12.493,12.493,0,0,1,1.874-7.451c1.876-2.569,3.967-3.19,6.815-4.42l13.081-5.636a5.214,5.214,0,0,1,4.121.137,14.847,14.847,0,0,1,4.365,3.954C721.4,602.967,718.613,604.2,716.036,605.515Z" transform="translate(-12.558 -41.299)"/><path class="d" d="M772.242,649.54c2.862-1.377,7.435-3.9,9.752-5.177a28.19,28.19,0,0,0,5.106-3.4c.192.687.373,1.377.549,2.066C784.317,644.807,775.838,649.195,772.242,649.54Z" transform="translate(-73.585 -75.817)"/><path class="e" d="M705.9,685.125c-.66-2.054-2.014-5.921-2.735-7.955-1.933-5.482-2.123-9.484-4.13-14.939a32.879,32.879,0,0,0-4.085-7.813c-3.515-4.847-2.136-11.282-.285-13.821.023-.034.05-.063.075-.1-.3,2.875-.872,6.356-.307,9.186.73,3.663,3.205,5.7,4.88,8.995,3.194,6.29,4.313,12.8,6.951,20.009,1.876,5.119,2.631,11.465,6.469,15.523a13.836,13.836,0,0,0,9.49,3.585c-.1.033-.2.069-.305.1-3.443,1.12-7.765,1.994-10.613-.863C708.191,693.907,707.2,689.185,705.9,685.125Z" transform="translate(-12.554 -75.461)"/><g transform="translate(676.43 542.246)"><g transform="translate(1.699)"><path class="f" d="M688.22,560.056c1.546-.935,3.072-1.815,4.613-2.625a.13.13,0,0,1-.007-.025c-.9-3.486-4.666-5.05-6.033-8.221-2.367-5.49,5.31-8.534,8.273-6.083,2.875,2.38,2.26,5.786,2.43,8.457a6.687,6.687,0,0,0,1.261,3.207q.793-.289,1.609-.549a49.717,49.717,0,0,1,6.68-1.874c.886-.179,3.739-1.043,3.768.234.029,1.321-3.09,2.313-4.019,2.675a29.53,29.53,0,0,1-4.315,1.577,12.962,12.962,0,0,0-2.27.724,3.025,3.025,0,0,1,.072.826c-.075,1.6-3.768,3.651-5.855,2.5a1.913,1.913,0,0,1-.353-.254,45.051,45.051,0,0,1-4.711,2.046c-1.585.565-4,1.357-5.57,1.906C683.313,562.873,687.009,560.789,688.22,560.056Z" transform="translate(-683.753 -542.246)"/><path class="g" d="M686.035,569.127c-.28.179-.558.356-.818.545.87-1.353,3.21-2.688,4.128-3.244,1.546-.935,3.072-1.815,4.613-2.624a.132.132,0,0,1-.007-.025c-.9-3.486-4.666-5.05-6.033-8.221a4.328,4.328,0,0,1,.832-5.016c-1.673,3.856.811,6.615,3.635,8.868,3.337,2.663,3.42,4.435,1.472,5.509-2.141,1.179-3.809,1.809-5.886,2.936C687.306,568.246,686.7,568.707,686.035,569.127Z" transform="translate(-684.877 -548.618)"/><path class="h" d="M714.167,554.235c.106-.116.131-.355.05-.746-.206-.993-.443-1.983-.687-2.967-.292-1.162-.75-2.664-1.847-3.316a4.046,4.046,0,0,0-2.333-.415c-1.422.167-3.2,1.707-2.1,3.182.85,1.138,1.908.406,3.253,1.052.992.476,1.422,1.853,1.964,2.44C712.887,553.917,713.624,554.833,714.167,554.235Z" transform="translate(-701.537 -545.716)"/></g><g transform="translate(0 9.217)"><path class="i" d="M677.117,599l.2.454c.952,2.209,2.236,3.789,4.7,2.792.038-.013.079-.031.12-.048L708.34,590.9a2.1,2.1,0,0,0,.192-.092c2.321-1.1,1.808-3,.866-5.186l-.194-.454c-.956-2.212-2-3.9-4.467-2.892-.034.011-.063.024-.1.039l-26.228,11.3C675.894,594.718,676.156,596.762,677.117,599Z" transform="translate(-676.43 -581.977)"/><g transform="translate(26.327 0.3)"><path class="j" d="M793.725,592.66l1.776-.765a2.1,2.1,0,0,0,.192-.092,47.908,47.908,0,0,0-3.8-8.533c-.034.011-.063.024-.1.039l-1.881.81A45.608,45.608,0,0,1,793.725,592.66Z" transform="translate(-789.918 -583.27)"/></g><g transform="translate(21.598 2.334)"><path class="j" d="M773.344,601.429l1.967-.848a48.373,48.373,0,0,0-3.8-8.544l-1.982.854A45.679,45.679,0,0,1,773.344,601.429Z" transform="translate(-769.533 -592.036)"/></g><g transform="translate(16.838 4.391)"><path class="j" d="M752.837,610.284l1.96-.845c-1.028-2.758-2.557-6.008-3.816-8.536l-1.969.849C750.276,604.282,751.822,607.56,752.837,610.284Z" transform="translate(-749.012 -600.903)"/></g><g transform="translate(11.361 6.752)"><path class="j" d="M729,620.09l.172.4,1.967-.847-.163-.388c-.986-2.317-2.308-5.427-3.605-8.169l-1.969.848C726.693,614.654,728.019,617.769,729,620.09Z" transform="translate(-725.402 -611.083)"/></g><g transform="translate(6.74 8.744)"><path class="j" d="M709.12,629.131l1.964-.846c-1.336-2.918-2.737-6.081-3.633-8.615l-1.967.848C706.4,623.1,707.788,626.234,709.12,629.131Z" transform="translate(-705.485 -619.67)"/></g><g transform="translate(1.98 10.789)"><path class="j" d="M688.567,637.964c.038-.013.079-.031.12-.048l1.854-.8a45.923,45.923,0,0,1-3.6-8.631l-1.98.854A48.03,48.03,0,0,0,688.567,637.964Z" transform="translate(-684.964 -628.486)"/></g></g></g><g transform="translate(685.22 577.025)"><g transform="translate(0)"><path class="k" d="M714.7,694.3a20.508,20.508,0,0,1,3.088-1.43l-.233-.7a21.185,21.185,0,0,0-3.232,1.5Z" transform="translate(-714.323 -692.169)"/></g><g transform="translate(1.273 2.956)"><path class="k" d="M720.189,707.042a20.253,20.253,0,0,1,3.088-1.43l-.233-.7a21.218,21.218,0,0,0-3.235,1.5Z" transform="translate(-719.809 -704.912)"/></g><g transform="translate(2.55 5.913)"><path class="k" d="M725.691,719.788a21.454,21.454,0,0,1,1.922-.967c.4-.177.8-.342,1.166-.462l-.233-.7a21.085,21.085,0,0,0-3.232,1.5Z" transform="translate(-725.314 -717.659)"/></g><g transform="translate(5.134 11.901)"><path class="k" d="M738.977,744.586c.348-.15.689-.309.983-.468l-.348-.649a20.524,20.524,0,0,1-3.16,1.263l.2.71A22.872,22.872,0,0,0,738.977,744.586Z" transform="translate(-736.452 -743.469)"/></g><g transform="translate(3.861 8.943)"><path class="k" d="M733.489,731.839c.35-.15.69-.309.986-.468l-.35-.65a20.4,20.4,0,0,1-3.158,1.263l.2.71A22.948,22.948,0,0,0,733.489,731.839Z" transform="translate(-730.966 -730.721)"/></g></g></g></svg>