<svg xmlns="http://www.w3.org/2000/svg" width="53.902" height="66.668" viewBox="0 0 53.902 66.668"><defs><style>.a{opacity:0.86;}.b,.c{fill:#fff;}.c{stroke:#246789;stroke-linecap:round;stroke-linejoin:round;stroke-width:0.75px;}.d{fill:#246789;}.e{fill:#a4f4fc;}.f{fill:#ffdda1;}.g{fill:#7ccef2;}</style></defs><g class="a" transform="translate(-164.668 -32.952)"><path class="b" d="M187.231,33.923l-6.753,1.662A20.276,20.276,0,0,0,165.639,60.12l5.834,23.693a20.275,20.275,0,0,0,24.534,14.839l6.753-1.663A20.274,20.274,0,0,0,217.6,72.455l-5.834-23.693A20.274,20.274,0,0,0,187.231,33.923Zm12.252,13.75a9.783,9.783,0,0,1-7.16,11.839l-4.473,1.1a9.782,9.782,0,0,1-11.838-7.16l-.046-.187a9.783,9.783,0,0,1,7.16-11.838l4.473-1.1a9.783,9.783,0,0,1,11.838,7.161Z"/><circle class="c" cx="6.516" cy="6.516" r="6.516" transform="translate(185.081 75.522) rotate(-37.038)"/><path class="c" d="M195.156,79.32l.67-1.311a.42.42,0,0,0-.475-.6l-1.874.461a.421.421,0,0,0-.142.752l1.2.85A.421.421,0,0,0,195.156,79.32Z"/><line class="c" x1="0.29" y1="1.179" transform="translate(194.923 79.707)"/><path class="c" d="M188.2,75.629a3.037,3.037,0,1,1,2.223-3.675"/><path class="c" d="M198.873,73a3.037,3.037,0,1,0-3.674-2.222"/><path class="d" d="M191.007,76.728a1.268,1.268,0,0,1-.3-2.5,1.268,1.268,0,1,1,.3,2.5Zm0-1.787a.528.528,0,0,0-.125.015.518.518,0,1,0,.567.772.514.514,0,0,0,.06-.392h0a.519.519,0,0,0-.5-.394Z"/><path class="d" d="M196.046,75.487a1.27,1.27,0,1,1,.3-.037A1.271,1.271,0,0,1,196.046,75.487Zm0-1.787a.528.528,0,0,0-.125.015.519.519,0,1,0,.567.772.514.514,0,0,0,.06-.392h0a.519.519,0,0,0-.5-.394Z"/><path class="e" d="M207.707,95.033c-3.1-.553-6.647-1.24-10.718-2.1C179.6,89.263,170.02,61.639,166.341,48.167a20.172,20.172,0,0,0-.7,11.953l5.834,23.693a20.275,20.275,0,0,0,24.534,14.839l6.753-1.663A20.2,20.2,0,0,0,207.707,95.033Z"/><path class="d" d="M183.507,41.709a.375.375,0,0,1-.09-.739,2.778,2.778,0,1,0-1.328-5.4.375.375,0,1,1-.179-.728A3.528,3.528,0,0,1,183.6,41.7.347.347,0,0,1,183.507,41.709Z"/><path class="d" d="M183.68,39.183a1.27,1.27,0,1,1,.306-.037A1.28,1.28,0,0,1,183.68,39.183Zm0-1.787a.528.528,0,0,0-.125.015.51.51,0,0,0-.32.235.518.518,0,0,0,.887.537.509.509,0,0,0,.059-.392h0a.517.517,0,0,0-.5-.394Z"/><path class="d" d="M191.146,99.62q-1,0-2-.1a20.535,20.535,0,0,1-6.5-1.741.375.375,0,1,1,.31-.683,19.809,19.809,0,0,0,12.957,1.19l6.753-1.663a19.9,19.9,0,0,0,14.565-24.08L214.683,62.18a.375.375,0,0,1,.729-.18l2.551,10.365A20.653,20.653,0,0,1,202.85,97.354L196.1,99.016A20.687,20.687,0,0,1,191.146,99.62ZM169.171,74.842a.374.374,0,0,1-.364-.285L165.275,60.21a20.652,20.652,0,0,1,15.114-24.989l6.753-1.662a20.432,20.432,0,0,1,9.506-.092A20.651,20.651,0,0,1,212.13,48.672l1.347,5.474a.375.375,0,0,1-.728.18L211.4,48.852a19.885,19.885,0,0,0-24.08-14.565l-6.753,1.663A19.922,19.922,0,0,0,166,60.03l3.533,14.347a.376.376,0,0,1-.275.454A.4.4,0,0,1,169.171,74.842Zm16.341-13.569a10.178,10.178,0,0,1-9.865-7.73l-.046-.187a10.158,10.158,0,0,1,7.435-12.292l4.473-1.1A10.158,10.158,0,0,1,199.8,47.4l.046.187a10.157,10.157,0,0,1-7.434,12.292l-4.473,1.1A10.155,10.155,0,0,1,185.512,61.273Zm4.443-20.859a9.433,9.433,0,0,0-2.267.277l-4.472,1.1a9.407,9.407,0,0,0-6.886,11.384l.046.187a9.42,9.42,0,0,0,11.384,6.886l4.473-1.1a9.409,9.409,0,0,0,6.886-11.385h0l-.046-.186a9.416,9.416,0,0,0-9.118-7.163Z"/><path class="d" d="M191.161,99.617A20.685,20.685,0,0,1,171.108,83.9L165.275,60.21a20.652,20.652,0,0,1,15.114-24.989l6.753-1.662A20.651,20.651,0,0,1,212.13,48.672l5.833,23.693A20.653,20.653,0,0,1,202.85,97.354L196.1,99.016A20.659,20.659,0,0,1,191.161,99.617Zm-3.84-65.33-6.753,1.663A19.922,19.922,0,0,0,166,60.03l5.834,23.693a19.923,19.923,0,0,0,24.08,14.565l6.753-1.663a19.9,19.9,0,0,0,14.565-24.08L211.4,48.852a19.9,19.9,0,0,0-24.08-14.565Zm-.09-.364h0Zm-1.72,27.35a10.178,10.178,0,0,1-9.864-7.73l-.046-.187a10.158,10.158,0,0,1,7.435-12.292l4.473-1.1A10.172,10.172,0,0,1,199.8,47.4l.046.187a10.157,10.157,0,0,1-7.434,12.292l-4.473,1.1A10.157,10.157,0,0,1,185.511,61.273Zm4.426-20.856a9.361,9.361,0,0,0-2.249.274l-4.472,1.1a9.407,9.407,0,0,0-6.886,11.384l.046.187a9.42,9.42,0,0,0,11.384,6.886l4.473-1.1a9.42,9.42,0,0,0,6.886-11.385h0l-.046-.186A9.426,9.426,0,0,0,189.937,40.417Z"/><circle class="f" cx="2.637" cy="2.637" r="2.637" transform="translate(176.625 71.37) rotate(-86.143)"/><circle class="f" cx="2.637" cy="2.637" r="2.637" transform="translate(203.582 87.572) rotate(-82.164)"/><path class="f" d="M211.546,65.9a2.637,2.637,0,1,1-3.19-1.93A2.637,2.637,0,0,1,211.546,65.9Z"/><path class="f" d="M209.887,55.987a1.813,1.813,0,1,1-2.194-1.326A1.814,1.814,0,0,1,209.887,55.987Z"/><path class="f" d="M173,62.9a1.813,1.813,0,1,1-2.194-1.326A1.814,1.814,0,0,1,173,62.9Z"/><path class="f" d="M197.667,37.239a1.813,1.813,0,1,1-2.193-1.327A1.811,1.811,0,0,1,197.667,37.239Z"/><path class="f" d="M196.154,87.337a1.813,1.813,0,1,1-2.193-1.327A1.813,1.813,0,0,1,196.154,87.337Z"/><path class="g" d="M194.051,94.372a1.813,1.813,0,1,1-2.193-1.327A1.813,1.813,0,0,1,194.051,94.372Z"/><path class="f" d="M215.694,77.367A1.812,1.812,0,1,1,213.5,76.04,1.813,1.813,0,0,1,215.694,77.367Z"/><path class="f" d="M194.352,63.614a1.813,1.813,0,1,1-2.193-1.327A1.811,1.811,0,0,1,194.352,63.614Z"/><path class="f" d="M172.66,49.4a1.813,1.813,0,1,1-2.193-1.327A1.813,1.813,0,0,1,172.66,49.4Z"/><path class="f" d="M207.59,45.42a2.636,2.636,0,1,1-3.19-1.93A2.636,2.636,0,0,1,207.59,45.42Z"/><path class="g" d="M183.645,89.331a2.637,2.637,0,1,1-3.19-1.93A2.636,2.636,0,0,1,183.645,89.331Z"/><path class="g" d="M176.716,77.732a2.636,2.636,0,1,1-3.19-1.93A2.636,2.636,0,0,1,176.716,77.732Z"/></g></svg>