<svg xmlns="http://www.w3.org/2000/svg" xmlns:xlink="http://www.w3.org/1999/xlink" width="46.056" height="48.727" viewBox="0 0 46.056 48.727"><defs><style>.a{fill:#ff5a90;}.b{fill:#f0ece6;}.b,.c{mix-blend-mode:multiply;}.b,.c,.e{isolation:isolate;}.c{fill:#e1ddd8;}.d{fill:#b27a90;}.e{fill:#b9bbaf;opacity:0.3;mix-blend-mode:screen;}.f{fill:url(#a);}.g{fill:#e2e2e2;}</style><linearGradient id="a" x1="0.5" x2="0.5" y2="1" gradientUnits="objectBoundingBox"><stop offset="0" stop-color="#ff7b7b"/><stop offset="1" stop-color="#fff"/></linearGradient></defs><g transform="translate(-1158.551 -449.671)"><g transform="translate(1178.045 472.112)"><path class="a" d="M1262.456,567.455c-5.688,5.108-6.544,13.43-1.911,18.587s12.994,5.2,18.684.089,6.542-13.429,1.913-18.586S1268.144,562.348,1262.456,567.455Zm14,15.585c-2.8,2.534-6.552,4.153-10.108,2.69a8.477,8.477,0,0,1-5.157-9.5c.432-2,1.736-5.133,3.288-6.527,4.318-3.878,11.96-3.424,14.732,1.049C1281.953,575.18,1280.024,579.8,1276.453,583.04Z" transform="translate(-1257.561 -563.65)"/><path class="b" d="M1313.089,635.48c-3.112,2.667-7.827,4.848-12.111,4.3a14.142,14.142,0,0,0,13.12-3.337,14.454,14.454,0,0,0,4.883-10.147A18.158,18.158,0,0,1,1313.089,635.48Z" transform="translate(-1292.429 -613.958)"/><path class="c" d="M1263.866,584.172a8.333,8.333,0,0,1-2.678-7.94c.432-2,1.736-5.133,3.288-6.527,4.119-3.7,11.261-3.453,14.318.46a6.808,6.808,0,0,1,3.045-1.76c-.219-.3-.447-.584-.7-.862-4.631-5.157-13-5.2-18.686-.089s-6.544,13.43-1.911,18.587c.25.279.512.54.785.789A11.013,11.013,0,0,1,1263.866,584.172Z" transform="translate(-1257.561 -563.65)"/></g><path class="d" d="M1212.306,483.488c-4.021-3.981-9.767-4.172-13.485-.022a16.054,16.054,0,0,0-2.978,5.682,16.392,16.392,0,0,1-4.984,7.013,15.227,15.227,0,0,1-7.323,3.335,10.207,10.207,0,0,0-6.788,4.6c-1.73,2.969.159,7.915,2.085,10.439,3.684,4.826,10.9,3.8,15.685,1.605C1203.289,512.123,1223.395,494.463,1212.306,483.488ZM1185.3,510.593a2.373,2.373,0,1,1,.178-3.351A2.373,2.373,0,0,1,1185.3,510.593Zm22.222-19.956a2.373,2.373,0,1,1,.18-3.352A2.372,2.372,0,0,1,1207.521,490.637Z" transform="translate(-14.068 -24.701)"/><path class="e" d="M1183.536,575.941a10.208,10.208,0,0,0-6.788,4.6c-1.73,2.969.159,7.915,2.085,10.439a8.181,8.181,0,0,0,2.93,2.4,16.272,16.272,0,0,1-3.139-4.6,9.991,9.991,0,0,1-1.159-5.925,7.216,7.216,0,0,1,3.739-5.495,12.661,12.661,0,0,1,3.879-1.757A14.155,14.155,0,0,1,1183.536,575.941Z" transform="translate(-14.068 -101.145)"/><path class="b" d="M1259.76,485.534a10.709,10.709,0,0,0-4.031-2.559,16.38,16.38,0,0,1,4.437,5.982c1.719,3.865.424,8.106-1.614,11.588a46.918,46.918,0,0,1-8.884,10.522,42.575,42.575,0,0,1-14.513,8.918,20.226,20.226,0,0,0,6.818-1.794C1250.743,514.169,1270.849,496.509,1259.76,485.534Z" transform="translate(-61.522 -26.746)"/><path class="f" d="M1188.12,473.761c-.175-2.369-2.8-3.872-4.439-5.207-5-4.072-4.712-11.372-8.842-15.972-7.152-7.965-17.857,2.234-16.094,8.887,1.711,6.461,7.71,8.018,11.927,10.3,4.48,2.422,5.032,8.041,9,9.645C1182.324,482.485,1188.433,478.018,1188.12,473.761Z"/><path class="b" d="M1191.715,452.583c-3.852-4.292-8.737-3.309-12.15-.45a14.407,14.407,0,0,1,5.178-.692,10.716,10.716,0,0,1,7.929,6.848c.91,2.281.892,4.43,2.014,6.629a10.724,10.724,0,0,0,2.65,3.657c.944.691,2.914,2.082,3.879,2.743,3.106,2.138,2.6,5.731.336,8.533,1.972-1.518,3.611-3.833,3.445-6.091-.174-2.369-2.8-3.872-4.439-5.207C1195.561,464.483,1195.845,457.183,1191.715,452.583Z" transform="translate(-16.876 -0.001)"/><path class="g" d="M1178.688,484.528c-.269.085-.675-.057-1.251-.48-1.46-1.081-2.891-2.208-4.307-3.346-1.671-1.342-3.77-3.213-4.006-5.485a7.218,7.218,0,0,1,1.072-4.1c1.337-2.187,5.172-3.918,6.745-1.024,1.212,2.232-.771,3.408-.729,6.08.031,1.969,1.945,3.7,2.5,5.022C1179.131,482.207,1180.065,484.092,1178.688,484.528Z" transform="translate(-8.473 -15.172)"/></g></svg>