<svg xmlns="http://www.w3.org/2000/svg" width="117.784" height="246.887" viewBox="0 0 117.784 246.887"><defs><style>.a{fill:#fffff6;}.b{fill:#ff8c47;}.c{fill:#ff721d;}.d{fill:#fff;opacity:0.44;}</style></defs><g transform="translate(-24.133 33.4) rotate(-16)"><g transform="translate(0 87.552)"><path class="a" d="M75.158,411.478a1,1,0,0,0,.87-1.023,27.936,27.936,0,0,1,4.143-13.4c5.624-9.522,16.322-16.534,30.936-20.278,29.919-7.664,35.29-49.069,35.829-73.068.385-17.166,4.786-25.182,4.83-25.261a1,1,0,0,0-1.747-.989c-.192.337-4.692,8.467-5.09,26.2-.526,23.431-5.685,63.834-34.32,71.169a62.448,62.448,0,0,0-21.352,9.527,39.036,39.036,0,0,0-10.881,11.788c-4.486,7.66-4.362,14.1-4.355,14.366a1,1,0,0,0,1.031.976C75.088,411.485,75.124,411.482,75.158,411.478Z" transform="translate(-74.02 -276.947)"/></g><g transform="translate(54.178 0)"><path class="b" d="M78.029,189.4c.067.014,28.261,5.9,17.057,40-11.218,34.137-32.938,46.414-32.938,46.414-9.757-7.576-21.741-36.83-16.859-57.779C49.9,198.236,63.236,189.2,78.029,189.4Z" transform="translate(-44.162 -189.396)"/><path class="c" d="M66.788,229.4c11.2-34.1-16.99-39.986-17.057-40a38.355,38.355,0,0,1,8.171,1.017c17.826,4.155,29.038,19.515,23.584,42.914-4.774,20.486-27.443,40.785-39.777,43.947l1.719,4.139a17.321,17.321,0,0,1-7.1-.321,11.886,11.886,0,0,1-5.614-2.9l3.14-2.386S55.57,263.536,66.788,229.4Z" transform="translate(-15.864 -189.396)"/></g><path class="d" d="M90.3,200.088s.278-5.507-10.384-6.025c0,0-13.575,6.576-16.973,19.5,0,0-1.249,6.334,8.248,7.085C71.192,220.646,79.376,204.482,90.3,200.088Z" transform="translate(-1.297 -189.396)"/></g></svg>