<svg xmlns="http://www.w3.org/2000/svg" width="106.046" height="192.806" viewBox="0 0 106.046 192.806"><defs><style>.a{fill:#fffff6;}.b{fill:#ff8c47;}.c{fill:#ff721d;}.d{fill:#fff;opacity:0.44;}</style></defs><g transform="translate(100.431 285.313) rotate(-166)"><g transform="translate(0 0)"><path class="a" d="M.84,0c.371.035.653.262.642.53,0,.031-.072,3.226,3.057,6.95C8.688,12.423,16.58,16.059,27.362,18,49.435,21.974,53.4,43.445,53.795,55.89c.284,8.9,3.531,13.058,3.563,13.1.2.25.075.568-.281.709a.925.925,0,0,1-1.008-.2c-.142-.175-3.462-4.391-3.755-13.588-.388-12.15-4.194-33.1-25.32-36.9a57.114,57.114,0,0,1-15.753-4.94A25.3,25.3,0,0,1,3.214,7.956C-.1,3.984,0,.646,0,.506.012.219.353-.008.762,0Z" transform="translate(33.307 87.033)"/></g><g transform="translate(63.142 151.332)"><path class="b" d="M39.47,100.712c.078-.016,32.937-6.881,19.879-46.618C46.275,14.308,20.961,0,20.961,0,9.59,8.83-4.377,42.924,1.313,67.339,6.69,90.412,22.229,100.948,39.47,100.712Z" transform="translate(0 6.789)"/><path class="c" d="M42.047,60.882c13.058,39.737-19.8,46.6-19.879,46.618a44.7,44.7,0,0,0,9.523-1.185C52.466,101.473,65.533,83.571,59.177,56.3,53.613,32.426,27.194,8.768,12.819,5.083l2-4.824A20.187,20.187,0,0,0,6.543.633,13.853,13.853,0,0,0,0,4.008L3.66,6.789S28.973,21.1,42.047,60.882Z" transform="translate(17.301 0)"/></g><path class="d" d="M31.946,23.959s.324,6.418-12.1,7.022c0,0-15.821-7.664-19.781-22.724,0,0-1.456-7.382,9.613-8.257C9.676,0,19.214,18.838,31.946,23.959Z" transform="translate(71.784 222.416)"/></g></svg>