<svg xmlns="http://www.w3.org/2000/svg" width="73.012" height="132.746" viewBox="0 0 73.012 132.746"><defs><style>.a{fill:#fffff6;}.b{fill:#3cb1fe;}.c{fill:#019aff;}.d{fill:#fff;opacity:0.44;}</style></defs><g transform="translate(72.654 225.252) rotate(-166)"><g transform="translate(33.307 87.034)"><path class="a" d="M.578,0c.256.024.45.18.442.365a7.853,7.853,0,0,0,2.1,4.785c2.857,3.4,8.291,5.9,15.714,7.24,15.2,2.736,17.925,17.519,18.2,26.087.2,6.129,2.431,8.99,2.453,9.019.138.172.051.391-.194.488a.637.637,0,0,1-.694-.135c-.1-.12-2.383-3.023-2.585-9.355-.267-8.365-2.888-22.79-17.433-25.409A39.323,39.323,0,0,1,7.74,9.686,17.416,17.416,0,0,1,2.213,5.478,8.216,8.216,0,0,1,0,.349C.009.151.243-.006.525,0Z" transform="translate(0 0)"/></g><g transform="translate(53.849 131.303)"><path class="b" d="M27.175,69.34c.054-.011,22.677-4.737,13.687-32.1C31.86,9.851,14.432,0,14.432,0,6.6,6.079-3.014,29.553.9,46.363,4.606,62.249,15.3,69.5,27.175,69.34Z" transform="translate(0 4.674)"/><path class="c" d="M28.949,41.917C37.94,69.276,15.316,74,15.263,74.014a30.777,30.777,0,0,0,6.556-.816c14.3-3.334,23.3-15.659,18.924-34.435C36.913,22.325,18.723,6.037,8.826,3.5L10.205.178A13.9,13.9,0,0,0,4.5.436,9.538,9.538,0,0,0,0,2.76L2.52,4.674S19.948,14.525,28.949,41.917Z" transform="translate(11.912 0)"/></g><path class="d" d="M22,16.5s.223,4.419-8.332,4.835c0,0-10.893-5.277-13.619-15.645,0,0-1-5.082,6.618-5.685C6.662,0,13.229,12.97,22,16.5Z" transform="translate(59.799 180.244)"/></g></svg>