<svg xmlns="http://www.w3.org/2000/svg" width="126.171" height="81.177" viewBox="0 0 126.171 81.177">
  <g id="Group_1356" data-name="Group 1356" transform="translate(-862.437 -2215.84)">
    <path id="Path_2812" data-name="Path 2812" d="M1156.608,2277.115c0-6.934-5.14-12.81-12.275-14.923a19.007,19.007,0,0,0-26.247-20.209c-3.165-7.388-11.306-12.647-20.853-12.647a23.191,23.191,0,0,0-18.614,8.8,20.412,20.412,0,0,0-27.542,15.963,20.738,20.738,0,0,0-2.55-.173c-9.991,0-18.09,7.06-18.09,15.77,0,6.423,4.409,11.937,10.726,14.4-.026.38-.058.758-.058,1.144a16.924,16.924,0,0,0,26.255,14.126c3.568,6.592,11.24,11.155,20.131,11.155a23.479,23.479,0,0,0,17.536-7.486,20.406,20.406,0,0,0,35.568-10.255C1149.607,2291.873,1156.608,2285.211,1156.608,2277.115Z" transform="translate(-168 -13.496)" fill="#bde6ff"/>
  </g>
</svg>
