<svg xmlns="http://www.w3.org/2000/svg" width="82.074" height="82.059" viewBox="0 0 82.074 82.059"><defs><style>.a{fill:#fdc0c5;}.b{fill:#edf2fa;}.c{fill:#a8d7ff;}.d{fill:#fff;}</style></defs><g transform="translate(0)"><path class="a" d="M58.72,26.392V14.734a4.69,4.69,0,0,0-4.69-4.69H14.688A4.69,4.69,0,0,0,10,14.734V84.208a4.69,4.69,0,0,0,4.69,4.69H54.031a4.69,4.69,0,0,0,4.69-4.69V26.392Z" transform="translate(-8.396 -8.441)"/><rect class="b" width="48.551" height="56.723" transform="translate(1.774 11.861)"/><path class="c" d="M368.312,196.522a5.621,5.621,0,1,0-5.621-9.736Z" transform="translate(-304.552 -156.219)"/><path class="c" d="M151.694,280.268l-7.972,4.6a7.6,7.6,0,0,1-10.385-2.783h0a7.6,7.6,0,0,1,2.783-10.385l7.972-4.6Z" transform="translate(-111.107 -224.291)"/><path class="a" d="M223.513,349.268,228.9,358.6l-5.666,3.271-5.389-9.334Z" transform="translate(-182.925 -293.288)"/><path class="d" d="M213.376,156.2l-7.6-13.172,18.547-23.685,18.835,32.624Z" transform="translate(-172.787 -100.222)"/><path class="a" d="M307.733,153.056l7.642-1.086L296.54,119.346l-4.76,6.079Z" transform="translate(-245.008 -100.222)"/><path d="M117.582,35.246h11.54a1.6,1.6,0,1,0,0-3.205h-11.54a1.6,1.6,0,0,0,0,3.205Z" transform="translate(-97.388 -26.912)"/><path d="M153.575,453.723a1.6,1.6,0,1,0,1.133.47A1.615,1.615,0,0,0,153.575,453.723Z" transform="translate(-127.611 -380.998)"/><path d="M65.859,40.779a7.223,7.223,0,0,0-7.043-12.2l-5.9-10.211a1.6,1.6,0,0,0-2.65-.187L31.915,41.622l-7.7,4.448a9.205,9.205,0,1,0,9.205,15.944l.917-.53,3.2,5.542H3.205V13.509H48.722v.481a1.6,1.6,0,1,0,3.205,0V6.338A6.3,6.3,0,0,0,45.635.046H6.292A6.3,6.3,0,0,0,0,6.338V75.813a6.3,6.3,0,0,0,6.292,6.292H45.636a6.3,6.3,0,0,0,6.292-6.292V56.034L70.593,53.38a1.6,1.6,0,0,0,1.163-2.388ZM61.99,31.6a4.017,4.017,0,0,1,2.19,6.27l-3.685-6.383A4.012,4.012,0,0,1,61.99,31.6ZM41.436,54.287l-6.522-11.3L46.571,28.1l13.58,23.522Zm-9.622,4.951a6,6,0,0,1-6-10.392l6.584-3.8,6,10.392ZM40,58.212l3.786,6.558L40.9,66.439,37.11,59.881ZM6.292,3.252H45.636a3.09,3.09,0,0,1,3.087,3.087V10.3H3.205V6.338A3.091,3.091,0,0,1,6.292,3.252ZM45.635,78.9H6.292a3.09,3.09,0,0,1-3.087-3.087V70.231H48.723v5.581A3.091,3.091,0,0,1,45.635,78.9Zm3.087-11.873H46.291l.486-.281a1.6,1.6,0,0,0,.587-2.189l-4.2-7.277,5.56-.79Zm14.85-15.885L48.7,25.384l2.629-3.358L67.794,50.54Z" transform="translate(0 -0.046)"/><path d="M453.826,141.941a1.6,1.6,0,0,0-2.189-.587l-7.858,4.537a1.6,1.6,0,1,0,1.6,2.776l7.858-4.537A1.6,1.6,0,0,0,453.826,141.941Z" transform="translate(-371.967 -118.522)"/><path d="M401.617,109.326a1.6,1.6,0,0,0,1.963-1.133l1.146-4.276a1.6,1.6,0,1,0-3.1-.83l-1.146,4.276A1.6,1.6,0,0,0,401.617,109.326Z" transform="translate(-336.24 -85.572)"/><path d="M462.806,226.546l-4.419-1.184a1.6,1.6,0,0,0-.83,3.1l4.419,1.184a1.6,1.6,0,0,0,.83-3.1Z" transform="translate(-383.214 -189.197)"/><path d="M66.992,114.8a1.6,1.6,0,0,0-1.6-1.6H43.274a1.6,1.6,0,0,0,0,3.205H65.389A1.6,1.6,0,0,0,66.992,114.8Z" transform="translate(-34.991 -95.056)"/><path d="M181.24,164.392a1.6,1.6,0,1,0-1.133-.47A1.615,1.615,0,0,0,181.24,164.392Z" transform="translate(-150.841 -135.356)"/><path d="M60.367,162.788a1.6,1.6,0,0,0-1.6-1.6H43.274a1.6,1.6,0,0,0,0,3.205H58.765A1.6,1.6,0,0,0,60.367,162.788Z" transform="translate(-34.991 -135.354)"/><path d="M81.679,212.381H93.83a1.6,1.6,0,0,0,0-3.205H81.679a1.6,1.6,0,0,0,0,3.205Z" transform="translate(-67.24 -175.652)"/><path d="M43.191,209.176a1.6,1.6,0,0,0,0,3.205h.074a1.6,1.6,0,0,0,0-3.205Z" transform="translate(-34.922 -175.652)"/></g></svg>