<svg id="Group_1353" data-name="Group 1353" xmlns="http://www.w3.org/2000/svg" width="77.821" height="74.598" viewBox="0 0 77.821 74.598">
  <path id="Path_2796" data-name="Path 2796" d="M679.4,148.386s16.694,6.525,16.694,21.41c0,14.6-15.6,21.048-33.385,21.048-17.449,0-49.227-3.146-42.177-40.3a1.628,1.628,0,0,1,2.321-1.173c1.321.658,3.185,1.56,5.089,2.478a19.324,19.324,0,0,0,15.931.374l9.038-3.838Z" transform="translate(-618.897 -116.878)" fill="#fff"/>
  <path id="Path_2797" data-name="Path 2797" d="M635.946,130.4a18.714,18.714,0,0,1,21.461,12.483,4.135,4.135,0,0,0,3.183,2.788h0a6.356,6.356,0,0,0,4.579-.907l1.427-.917.318,1.335a5.419,5.419,0,0,1-2.613,5.974l-.485.273,2.274,2.841-6.287,2.017a11.371,11.371,0,0,0-5.419,3.959,18.813,18.813,0,0,1-3.964,3.781A18.705,18.705,0,1,1,635.946,130.4Z" transform="translate(-592.281 -129.411)" fill="#fff"/>
  <path id="Path_2798" data-name="Path 2798" d="M619.522,202.606c3.424-2.171,7.1-4.033,10.233-6.558a32.42,32.42,0,0,0,9.829-13.418,12.012,12.012,0,0,0,1.02-5.074c-.276-4.195-3.919-7.225-6.892-10.2a2.468,2.468,0,0,1-.852-1.379c-.061-.567,3.32-2.077,3.771-2.429,6.4-5,11.4-8.6,11.6-15.4.111-3.769-3.139-9.543-6.4-12.8-4.2-4.2-8.494-3.084-8.573-5.1A18.692,18.692,0,0,1,653.7,142.877a4.14,4.14,0,0,0,3.183,2.789,6.365,6.365,0,0,0,4.579-.909l1.427-.917.318,1.335a5.419,5.419,0,0,1-2.613,5.974l-.485.273,2.274,2.841-6.287,2.017a11.371,11.371,0,0,0-5.419,3.959c-.271.348-.593.653-.889.981,3.2,1.453,15.976,8.077,15.976,21.1,0,14.6-15.6,21.048-33.385,21.048A97.88,97.88,0,0,1,619.522,202.606Z" transform="translate(-588.569 -129.402)" fill="#ffdda1"/>
  <g id="Group_1342" data-name="Group 1342" transform="translate(43.032 0)">
    <path id="Path_2799" data-name="Path 2799" d="M635.688,164.917a.644.644,0,0,0,.365-.116,19.478,19.478,0,0,0,4.1-3.907,10.784,10.784,0,0,1,5.112-3.747l6.287-2.018a.628.628,0,0,0,.412-.417.636.636,0,0,0-.111-.577l-1.813-2.264a6.074,6.074,0,0,0,2.757-6.575l-.316-1.335a.634.634,0,0,0-.958-.384l-1.427.917a5.7,5.7,0,0,1-4.124.816,3.5,3.5,0,0,1-2.7-2.363,19.245,19.245,0,0,0-22.181-12.908.631.631,0,1,0,.237,1.239,18,18,0,0,1,20.744,12.063,4.773,4.773,0,0,0,3.67,3.213,6.988,6.988,0,0,0,5.033-1l.678-.436.111.466a4.8,4.8,0,0,1-2.308,5.279l-.485.273a.63.63,0,0,0-.31.429.637.637,0,0,0,.126.515l1.7,2.126-5.414,1.737a12.03,12.03,0,0,0-5.723,4.171,18.184,18.184,0,0,1-3.833,3.654.631.631,0,0,0,.365,1.146Z" transform="translate(-620.581 -129.668)" fill="#246789"/>
  </g>
  <g id="Group_1343" data-name="Group 1343" transform="translate(28.043 14.943)">
    <path id="Path_2800" data-name="Path 2800" d="M652.112,159.339a.631.631,0,0,0,.34-1.163,18.123,18.123,0,0,1-8.068-11.992,18.588,18.588,0,0,1,.064-6.886.634.634,0,0,0-.5-.741.626.626,0,0,0-.739.5,19.853,19.853,0,0,0-.067,7.351,19.387,19.387,0,0,0,8.63,12.832A.624.624,0,0,0,652.112,159.339Z" transform="translate(-642.831 -138.545)" fill="#246789"/>
  </g>
  <g id="Group_1344" data-name="Group 1344" transform="translate(33.966 45.302)">
    <path id="Path_2801" data-name="Path 2801" d="M638.543,176.172a33.571,33.571,0,0,0,8.821-1.044,10.333,10.333,0,0,0,7.484-7.519,11.384,11.384,0,0,0-2.934-10.849.631.631,0,1,0-.88.9,10.108,10.108,0,0,1,2.592,9.63,9.1,9.1,0,0,1-6.6,6.617,32.263,32.263,0,0,1-8.486,1,35.729,35.729,0,0,1-7.22-.678.631.631,0,1,0-.258,1.236A36.919,36.919,0,0,0,638.543,176.172Z" transform="translate(-630.563 -156.581)" fill="#246789"/>
  </g>
  <g id="Group_1345" data-name="Group 1345" transform="translate(21.514 43.258)">
    <path id="Path_2802" data-name="Path 2802" d="M641.118,172.795a.632.632,0,0,0,.382-1.135,14.433,14.433,0,0,1-2.212-2.069,7.285,7.285,0,0,1-1.783-4.222,7.5,7.5,0,0,1,.546-3.421,7.306,7.306,0,0,1,6.26-4.577l18.87-.741a.631.631,0,0,0,.606-.655.6.6,0,0,0-.657-.606l-18.9.742a8.662,8.662,0,0,0-7.351,5.356,8.771,8.771,0,0,0-.638,4,8.527,8.527,0,0,0,2.086,4.951,15.743,15.743,0,0,0,2.405,2.251A.631.631,0,0,0,641.118,172.795Z" transform="translate(-636.222 -155.366)" fill="#246789"/>
  </g>
  <g id="Group_1346" data-name="Group 1346" transform="translate(24.339 31.171)">
    <path id="Path_2803" data-name="Path 2803" d="M645.843,152.992a.635.635,0,0,0,.246-.05l8.346-3.543a.631.631,0,1,0-.493-1.161L645.6,151.78a.631.631,0,0,0,.248,1.212Z" transform="translate(-645.212 -148.186)" fill="#246789"/>
  </g>
  <g id="Group_1347" data-name="Group 1347" transform="translate(0 31.692)">
    <path id="Path_2804" data-name="Path 2804" d="M664.907,191.4c14.236,0,25.39-4.02,30.6-11.029a.632.632,0,0,0-1.013-.754c-4.971,6.686-15.754,10.521-29.588,10.521-18.153,0-30.19-3.882-36.8-11.866-5.4-6.523-7-15.837-4.752-27.684a1.007,1.007,0,0,1,.547-.726.968.968,0,0,1,.874,0c1.323.656,3.188,1.562,5.1,2.48a.631.631,0,1,0,.545-1.138c-1.9-.916-3.76-1.818-5.08-2.473a2.221,2.221,0,0,0-2,0,2.267,2.267,0,0,0-1.225,1.623c-2.32,12.233-.631,21.9,5.021,28.722C634,187.369,646.356,191.4,664.907,191.4Z" transform="translate(-621.103 -148.495)" fill="#246789"/>
  </g>
  <g id="Group_1348" data-name="Group 1348" transform="translate(60.584 31.187)">
    <path id="Path_2805" data-name="Path 2805" d="M635.154,163.195a.63.63,0,0,0,.582-.877c-3.545-8.417-12.236-12.894-14.816-14.066a.631.631,0,1,0-.522,1.148c2.474,1.124,10.807,5.414,14.175,13.409A.63.63,0,0,0,635.154,163.195Z" transform="translate(-620.027 -148.195)" fill="#246789"/>
  </g>
  <g id="Group_1349" data-name="Group 1349" transform="translate(0 0.001)">
    <path id="Path_2806" data-name="Path 2806" d="M662.953,204.264c16.446,0,34.017-5.695,34.017-21.678,0-12.414-11.033-19.092-15.552-21.3.115-.126.227-.256.332-.392a10.8,10.8,0,0,1,5.114-3.747l6.287-2.018a.628.628,0,0,0,.412-.417.636.636,0,0,0-.111-.577l-1.813-2.264a6.074,6.074,0,0,0,2.757-6.575l-.316-1.335a.635.635,0,0,0-.379-.438.627.627,0,0,0-.577.054l-1.427.917a5.708,5.708,0,0,1-4.126.816,3.5,3.5,0,0,1-2.7-2.363,19.33,19.33,0,1,0-33.352,18.239l-7.652,3.249a18.7,18.7,0,0,1-15.411-.362c-1.9-.916-3.76-1.818-5.08-2.473a2.221,2.221,0,0,0-2,0,2.268,2.268,0,0,0-1.225,1.621h0c-2.32,12.234-.631,21.9,5.021,28.724C632.044,200.234,644.4,204.264,662.953,204.264Zm28.94-50.057-5.414,1.737a12.029,12.029,0,0,0-5.723,4.171,7.87,7.87,0,0,1-.537.6l-.323.347a.63.63,0,0,0,.207,1c3.661,1.663,15.6,8.061,15.6,20.526,0,15.052-16.919,20.415-32.754,20.415-18.153,0-30.19-3.88-36.8-11.864-5.4-6.523-7-15.837-4.752-27.684h0a1.007,1.007,0,0,1,.547-.725.968.968,0,0,1,.874,0c1.323.656,3.188,1.562,5.1,2.48a19.948,19.948,0,0,0,16.449.385l8.443-3.585a.63.63,0,0,0,.226-1,18.065,18.065,0,1,1,30.641-17.67,4.773,4.773,0,0,0,3.67,3.213,6.978,6.978,0,0,0,5.033-1l.678-.434.111.466a4.8,4.8,0,0,1-2.308,5.279l-.485.273a.63.63,0,0,0-.31.429.637.637,0,0,0,.126.515Z" transform="translate(-619.148 -129.669)" fill="#246789"/>
  </g>
</svg>
