<svg xmlns="http://www.w3.org/2000/svg" xmlns:xlink="http://www.w3.org/1999/xlink" width="210.676" height="367.201" viewBox="0 0 210.676 367.201"><defs><style>.a{fill:none;}.b,.c{stroke:none;}.c{fill:#fff;}.d{filter:url(#a);}</style><filter id="a" x="0" y="0" width="210.676" height="367.201" filterUnits="userSpaceOnUse"><feOffset input="SourceAlpha"/><feGaussianBlur stdDeviation="3" result="b"/><feFlood flood-opacity="0.161"/><feComposite operator="in" in2="b"/><feComposite in="SourceGraphic"/></filter></defs><g class="d" transform="matrix(1, 0, 0, 1, 0, 0)"><g class="a" transform="translate(9 29)"><path class="b" d="M185.605-11.035,7.071-20C3.166-20,0-15.986,0-11.035v331.27c0,4.951,3.166,8.965,7.071,8.965L185.605,311.27c3.905,0,7.071-4.014,7.071-8.965V-2.069C192.676-7.021,189.51-11.035,185.605-11.035Z"/><path class="c" d="M 10.00016784667969 -9.84027099609375 L 10.04539489746094 318.8520812988281 L 182.6756591796875 301.5143432617188 L 182.6303405761719 -1.17138671875 L 10.00016784667969 -9.84027099609375 M 7.0706787109375 -20 L 185.6051025390625 -11.03463745117188 C 189.5101470947266 -11.03463745117188 192.67578125 -7.02069091796875 192.67578125 -2.069244384765625 L 192.67578125 302.3050537109375 C 192.67578125 307.2564697265625 189.5101470947266 311.2704162597656 185.6051025390625 311.2704162597656 L 7.0706787109375 329.201171875 C 3.165634155273438 329.201171875 0 325.187255859375 0 320.2358093261719 L 0 -11.03463745117188 C 0 -15.986083984375 3.165634155273438 -20 7.0706787109375 -20 Z"/></g></g></svg>