<svg xmlns="http://www.w3.org/2000/svg" xmlns:xlink="http://www.w3.org/1999/xlink" width="563" height="797" viewBox="0 0 563 797"><defs><style>.a{fill:none;}.b,.c{stroke:none;}.c{fill:#fff;}.d{filter:url(#a);}</style><filter id="a" x="0" y="0" width="563" height="797" filterUnits="userSpaceOnUse"><feOffset input="SourceAlpha"/><feGaussianBlur stdDeviation="3" result="b"/><feFlood flood-opacity="0.161"/><feComposite operator="in" in2="b"/><feComposite in="SourceGraphic"/></filter></defs><g class="d" transform="matrix(1, 0, 0, 1, 0, 0)"><g class="a" transform="translate(9 29)"><path class="b" d="M20,0,525-20A20,20,0,0,1,545,0V739a20,20,0,0,1-20,20L20,719A20,20,0,0,1,0,699V20A20,20,0,0,1,20,0Z"/><path class="c" d="M 525.1980590820313 -4.99609375 L 20 15 C 17.24298095703125 15 15 17.24298095703125 15 20 L 15 699 C 15 701.7570190429688 17.24298095703125 704 20 704 L 20.5931396484375 704 L 21.1844482421875 704.046875 L 525.3961791992188 743.9844360351563 C 527.96875 743.7819213867188 530 741.6237182617188 530 739 L 530 0 C 530 -2.690673828125 527.8636474609375 -4.89178466796875 525.1980590820313 -4.99609375 M 525 -20 C 536.045654296875 -20 545 -11.0457763671875 545 0 L 545 739 C 545 750.045654296875 536.045654296875 759 525 759 L 20 719 C 8.9542236328125 719 0 710.045654296875 0 699 L 0 20 C 0 8.9542236328125 8.9542236328125 0 20 0 L 525 -20 Z"/></g></g></svg>