<svg xmlns="http://www.w3.org/2000/svg" width="97.466" height="113.203" viewBox="0 0 97.466 113.203">
  <g id="Group_522" data-name="Group 522" transform="translate(-12894.917 -12106.677)">
    <path id="Path_313" data-name="Path 313" d="M259.512,320.5h-62.49a17.461,17.461,0,0,0-17.488,17.434v62.3a17.461,17.461,0,0,0,17.488,17.434h34.329V433.7l20.768-16.035h7.392A17.461,17.461,0,0,0,277,400.232v-62.3A17.462,17.462,0,0,0,259.512,320.5Z" transform="translate(12715.383 11786.179)" fill="#fa9084"/>
    <path id="Path_314" data-name="Path 314" d="M288.487,320.5H261.549a17.461,17.461,0,0,1,17.488,17.434v62.3a17.461,17.461,0,0,1-17.488,17.434h-1.223V433.7l20.768-16.035h7.392a17.461,17.461,0,0,0,17.488-17.434v-62.3A17.462,17.462,0,0,0,288.487,320.5Z" transform="translate(12686.408 11786.179)" fill="#ff6cb5"/>
    <path id="Path_315" data-name="Path 315" d="M242.752,407.453c15.038-7.972,22.828-14.755,22.828-25.263,0-14.494-17.756-18.118-22.828-7.247-5.8-11.233-22.828-7.247-22.828,7.247C219.924,392.7,227.715,399.48,242.752,407.453Z" transform="translate(12700.897 11768.977)" fill="#f7f3f1"/>
  </g>
</svg>
