<svg xmlns="http://www.w3.org/2000/svg" width="138.787" height="138.787" viewBox="0 0 138.787 138.787"><defs><style>.a,.e{fill:#fff;}.b{fill:#a4f4fc;}.c{fill:#ffdda1;}.d{fill:#246789;}.e{stroke:#246789;stroke-linecap:round;stroke-linejoin:round;stroke-width:0.75px;}</style></defs><g transform="translate(-222.749 -32.094)"><circle class="a" cx="49.069" cy="49.069" r="49.069" transform="translate(222.749 101.488) rotate(-45)"/><path class="b" d="M287.868,127.177c-9.368-8.594-17.125-19.422-19.955-31.815a73.962,73.962,0,0,1-1.491-16.946c.037-5.9.425-11.977,2.95-17.311,3.356-6.712,9.208-11.225,15.689-14.731,1.543-.833,4.424-1.686,6.668-2.817a49.068,49.068,0,1,0,8.929,93.705A120.377,120.377,0,0,1,287.868,127.177Z" transform="translate(9.763 9.763)"/><path class="c" d="M266.652,55.072s29.621-1.5,37.376,39.17c-.133-.606,4.5-28.243-21.739-47.285-.212-.115-12.568-1.43-19.928,4.091C264.464,51.311,266.652,55.072,266.652,55.072Z" transform="translate(36.615 13.537)"/><g transform="translate(249.95 64.161)"><path class="d" d="M237.606,60.712a.722.722,0,0,1-.464-1.274c11.681-9.8,22.794-11.155,30.047-10.561a33.025,33.025,0,0,1,13.147,3.706.722.722,0,1,1-.733,1.243c-.2-.115-19.957-11.384-41.533,6.716A.715.715,0,0,1,237.606,60.712Z" transform="translate(-236.884 -48.758)"/></g><g transform="translate(292.312 67.338)"><path class="d" d="M307.229,91.569a.725.725,0,0,1-.712-.591c-2.817-15.3-9.11-26.331-18.7-32.777-13.087-8.794-27.9-5.844-28.049-5.815a.721.721,0,1,1-.294-1.412c.625-.131,15.558-3.1,29.148,6.031,9.926,6.67,16.426,18.014,19.318,33.712a.724.724,0,0,1-.579.841A.769.769,0,0,1,307.229,91.569Z" transform="translate(-258.898 -50.409)"/></g><path class="c" d="M277.589,56.773s-27.437,35.163-2.284,75.549c-.083-.1-30.963-1.155-41.023-35.2-.6-1.443,3.071-36.776,37.909-46.055C271.8,51.515,277.589,56.773,277.589,56.773Z" transform="translate(10.609 17.539)"/><g transform="translate(244.168 90.509)"><path class="d" d="M234.6,87.326a.937.937,0,0,1-.125-.01.723.723,0,0,1-.587-.835,75.944,75.944,0,0,1,5.748-18.991c.752-1.615,1.572-3.191,2.444-4.682a.721.721,0,1,1,1.245.727c-.847,1.453-1.647,2.987-2.38,4.565a74.523,74.523,0,0,0-5.634,18.628A.721.721,0,0,1,234.6,87.326Z" transform="translate(-233.879 -62.45)"/></g><g transform="translate(259.311 67.829)"><path class="d" d="M242.471,65.437a.722.722,0,0,1-.518-1.224,44.754,44.754,0,0,1,4.266-3.868,44.866,44.866,0,0,1,29.317-9.622.722.722,0,0,1-.127,1.437,43.375,43.375,0,0,0-19.838,4.093,42.449,42.449,0,0,0-8.454,5.221,43.346,43.346,0,0,0-4.13,3.743A.715.715,0,0,1,242.471,65.437Z" transform="translate(-241.749 -50.664)"/></g><g transform="translate(292.312 59.485)"><path class="d" d="M259.62,56.173a.722.722,0,0,1-.46-1.278c.514-.423,12.712-10.388,26.438-8.273a.724.724,0,0,1,.606.824.732.732,0,0,1-.824.6c-13.078-2.011-25.182,7.859-25.3,7.957A.715.715,0,0,1,259.62,56.173Z" transform="translate(-258.898 -46.328)"/></g><g transform="translate(280.141 53.131)"><path class="d" d="M265.466,59.225a.732.732,0,0,1-.2-.029.723.723,0,0,1-.491-.9,8.546,8.546,0,0,0-.691-7c-2.979-5.034-10.863-6.828-10.944-6.845a.72.72,0,0,1-.548-.86.728.728,0,0,1,.858-.548c.35.075,8.569,1.938,11.873,7.515a9.927,9.927,0,0,1,.837,8.148A.723.723,0,0,1,265.466,59.225Z" transform="translate(-252.573 -43.026)"/></g><g transform="translate(313.802 118.656)"><path class="d" d="M270.786,103.614a.7.7,0,0,1-.287-.062.719.719,0,0,1-.373-.949,66.945,66.945,0,0,0,4.726-15.651,57.246,57.246,0,0,0,.781-9.156.721.721,0,0,1,.722-.72h0a.721.721,0,0,1,.72.724,58.863,58.863,0,0,1-.8,9.391,68.4,68.4,0,0,1-4.828,15.989A.72.72,0,0,1,270.786,103.614Z" transform="translate(-270.066 -77.077)"/></g><g transform="translate(292.314 67.886)"><path class="d" d="M283.236,83.5a.724.724,0,0,1-.679-.473,62.691,62.691,0,0,0-4.842-10.209,72.907,72.907,0,0,0-18.508-20.808.722.722,0,0,1,.826-1.185,74.6,74.6,0,0,1,18.926,21.262,63.918,63.918,0,0,1,4.955,10.443.721.721,0,0,1-.429.926A.7.7,0,0,1,283.236,83.5Z" transform="translate(-258.899 -50.694)"/></g><g transform="translate(275.049 67.886)"><path class="d" d="M251.67,108.409a.721.721,0,0,1-.71-.6c-.389-2.251-.67-4.526-.839-6.756a67.02,67.02,0,0,1,.389-13.94,64.739,64.739,0,0,1,2.165-9.995,67.507,67.507,0,0,1,5.484-12.983,78.346,78.346,0,0,1,9.206-13.187.721.721,0,1,1,1.095.939,77.358,77.358,0,0,0-9.039,12.943,66.032,66.032,0,0,0-5.363,12.706,62.932,62.932,0,0,0-2.119,9.772,65.445,65.445,0,0,0-.379,13.638c.165,2.184.443,4.412.822,6.622a.721.721,0,0,1-.589.833A.909.909,0,0,1,251.67,108.409Z" transform="translate(-249.927 -50.694)"/></g><g transform="translate(281.095 141.1)"><path class="d" d="M257.888,98.221a.722.722,0,0,1-.6-.327,57.667,57.667,0,0,1-4.157-8.15.721.721,0,1,1,1.326-.568,57.571,57.571,0,0,0,4.041,7.93.722.722,0,0,1-.212,1A.7.7,0,0,1,257.888,98.221Z" transform="translate(-253.069 -88.74)"/></g><path class="e" d="M274.422,54.135c0,3.523-4.582,6.381-10.234,6.381s-10.234-2.858-10.234-6.381,4.582-6.383,10.234-6.383S274.422,50.61,274.422,54.135Z" transform="translate(28.845 14.473)"/><g transform="translate(242.351 51.697)"><path class="d" d="M282.727,141.861a49.746,49.746,0,1,1,47.316-34.251.722.722,0,1,1-1.372-.45,48.354,48.354,0,1,0-18.4,24.653,48.71,48.71,0,0,0,7.705-6.649.722.722,0,0,1,1.053.987,49.716,49.716,0,0,1-36.3,15.71Z" transform="translate(-232.935 -42.281)"/></g></g></svg>