<svg xmlns="http://www.w3.org/2000/svg" width="113.312" height="140.268" viewBox="0 0 113.312 140.268"><defs><style>.a{fill:#fff;}.b{fill:#246789;}.c{fill:#ffdda1;}.d{fill:#a4f4fc;}</style></defs><g transform="matrix(0.921, 0.391, -0.391, 0.921, -294.25, -326.191)"><rect class="a" width="3.922" height="50.984" transform="translate(472.24 187.035)"/><g transform="translate(471.569 186.364)"><path class="b" d="M455.366,226.5h-3.923a.671.671,0,0,1-.671-.671V174.84a.671.671,0,0,1,.671-.671h3.923a.671.671,0,0,1,.671.671v50.986A.671.671,0,0,1,455.366,226.5Zm-3.253-1.341H454.7V175.51h-2.582Z" transform="translate(-450.772 -174.169)"/></g><rect class="a" width="3.922" height="35.296" transform="matrix(0.674, -0.739, 0.739, 0.674, 446.811, 215.671)"/><rect class="a" width="3.922" height="35.296" transform="matrix(0.683, 0.73, -0.73, 0.683, 498.643, 212.481)"/><g transform="translate(472.189 211.811)"><path class="b" d="M454.468,216.711a.668.668,0,0,1-.488-.211l-2.679-2.865a.67.67,0,0,1-.182-.481.678.678,0,0,1,.213-.468l25.783-24.105a.669.669,0,0,1,.946.032l2.68,2.865a.669.669,0,0,1-.032.948L454.926,216.53A.663.663,0,0,1,454.468,216.711Zm-1.731-3.5,1.763,1.886L479.3,191.9l-1.763-1.885Z" transform="translate(-451.119 -188.4)"/></g><g transform="translate(446.141 212.101)"><path class="b" d="M463.29,216.6a.662.662,0,0,1-.452-.175l-26.067-23.8a.67.67,0,0,1-.045-.948l2.645-2.9a.671.671,0,0,1,.467-.216.649.649,0,0,1,.481.173l26.067,23.8a.67.67,0,0,1,.045.948l-2.645,2.895a.68.68,0,0,1-.467.218Zm-25.121-24.51,25.076,22.891,1.742-1.906-25.076-22.891Z" transform="translate(-436.551 -188.563)"/></g><circle class="a" cx="17.088" cy="17.088" r="17.088" transform="translate(453.985 192.153) rotate(-78.226)"/><path class="a" d="M465.364,199.924a29.726,29.726,0,1,0,29.725,29.727A29.727,29.727,0,0,0,465.364,199.924Zm0,51.222a21.5,21.5,0,1,1,21.495-21.495A21.495,21.495,0,0,1,465.364,251.146Z" transform="translate(8.869 32.492)"/><g transform="translate(464.211 168.997)"><path class="b" d="M462.406,183.522a.673.673,0,0,1-.4-.129l-5.364-3.9-5.364,3.9a.67.67,0,0,1-1.032-.749l2.047-6.307-5.366-3.9a.671.671,0,0,1,.4-1.212h6.632l2.051-6.307a.667.667,0,0,1,.637-.463h0a.67.67,0,0,1,.638.463l2.049,6.307h6.63a.671.671,0,0,1,.4,1.212l-5.366,3.9,2.049,6.307a.671.671,0,0,1-.637.878Zm-13.016-10.954,4.091,2.97a.671.671,0,0,1,.241.749l-1.561,4.81,4.089-2.972a.671.671,0,0,1,.79,0l4.088,2.97-1.561-4.808a.669.669,0,0,1,.243-.749l4.089-2.97h-5.053a.67.67,0,0,1-.638-.465l-1.563-4.806-1.563,4.806a.67.67,0,0,1-.637.465Z" transform="translate(-446.657 -164.457)"/></g><path class="a" d="M489.182,206.487a17.088,17.088,0,1,1,.812-24.152A17.089,17.089,0,0,1,489.182,206.487Z" transform="translate(28.403 14.36)"/><path class="c" d="M475.418,205.672a17.059,17.059,0,0,1,7.306-27.939,17.082,17.082,0,1,0-.034,32.536A17,17,0,0,1,475.418,205.672Z" transform="translate(28.403 14.363)"/><path class="a" d="M453.364,181.6a17.089,17.089,0,1,1-24.141,1.1A17.087,17.087,0,0,1,453.364,181.6Z" transform="translate(0.292 14.528)"/><path class="c" d="M446.471,210.652a17.084,17.084,0,1,1,.055-32.865,16.513,16.513,0,0,0-5.5,2.655,17.117,17.117,0,0,0,1.293,28.418A16.473,16.473,0,0,0,446.471,210.652Z" transform="translate(0.292 14.526)"/><g transform="translate(443.837 231.746)"><path class="b" d="M465.659,260.343a30.4,30.4,0,1,1,30.4-30.4A30.431,30.431,0,0,1,465.659,260.343Zm0-59.453a29.056,29.056,0,1,0,29.057,29.057A29.089,29.089,0,0,0,465.659,200.89Zm0,51.222a22.166,22.166,0,1,1,22.165-22.165A22.192,22.192,0,0,1,465.659,252.112Zm0-42.991a20.825,20.825,0,1,0,20.824,20.826A20.85,20.85,0,0,0,465.659,209.121Z" transform="translate(-435.263 -199.549)"/></g><path class="d" d="M449.494,177.532a17.093,17.093,0,0,1,13.684-16.747,17.089,17.089,0,1,0,0,33.495A17.092,17.092,0,0,1,449.494,177.532Z" transform="translate(14.425 1.379)"/><path class="a" d="M471.442,224.752h-.209a3.091,3.091,0,0,0-3.092,3.092l-.02.413a3.086,3.086,0,0,1-5.726,0l-.125-.413a3.091,3.091,0,0,0-3.092-3.092h-.207a3.091,3.091,0,0,0-3.092,3.092l-.125.413a3.086,3.086,0,0,1-5.726,0l-.02-.413a3.093,3.093,0,0,0-3.092-3.092h-.209a3.091,3.091,0,0,0-3.092,3.092V241.43a3.091,3.091,0,0,0,3.092,3.092h.209a3.093,3.093,0,0,0,3.092-3.092l.02-.413a3.085,3.085,0,0,1,5.726,0l.125.413a3.091,3.091,0,0,0,3.092,3.092h.207a3.091,3.091,0,0,0,3.092-3.092l.125-.413a3.085,3.085,0,0,1,5.726,0l.02.413a3.091,3.091,0,0,0,3.092,3.092h.209a3.091,3.091,0,0,0,3.092-3.092V227.844A3.091,3.091,0,0,0,471.442,224.752Z" transform="translate(15.158 52.059)"/><g transform="translate(458.104 276.141)"><path class="b" d="M471.737,245.487h-.209a3.767,3.767,0,0,1-3.762-3.762l-.013-.259a2.415,2.415,0,0,0-4.44.1l-.079.265a3.766,3.766,0,0,1-3.76,3.66h-.207a3.764,3.764,0,0,1-3.76-3.658l-.1-.324a2.418,2.418,0,0,0-4.42-.039l-.014.293a3.758,3.758,0,0,1-3.76,3.728H447a3.766,3.766,0,0,1-3.762-3.762V228.137a3.764,3.764,0,0,1,3.762-3.76h.209a3.764,3.764,0,0,1,3.76,3.76l.014.261a2.417,2.417,0,0,0,4.442-.1l.077-.261a3.764,3.764,0,0,1,3.76-3.662h.207a3.765,3.765,0,0,1,3.76,3.657l.1.324a2.42,2.42,0,0,0,4.422.043l.013-.293a3.759,3.759,0,0,1,3.762-3.73h.209a3.765,3.765,0,0,1,3.762,3.76v13.588A3.767,3.767,0,0,1,471.737,245.487Zm-6.183-6.78a3.748,3.748,0,0,1,3.485,2.355.667.667,0,0,1,.048.22l.02.411a2.43,2.43,0,0,0,2.421,2.453h.209a2.423,2.423,0,0,0,2.421-2.421V228.137a2.423,2.423,0,0,0-2.421-2.419h-.209a2.423,2.423,0,0,0-2.421,2.419l-.02.447a.677.677,0,0,1-.048.22,3.758,3.758,0,0,1-6.97,0l-.145-.47a.7.7,0,0,1-.029-.195,2.424,2.424,0,0,0-2.421-2.419h-.207a2.423,2.423,0,0,0-2.421,2.419.64.64,0,0,1-.029.193l-.123.413a3.756,3.756,0,0,1-6.992.059.732.732,0,0,1-.048-.216l-.021-.415a2.43,2.43,0,0,0-2.419-2.453H447a2.424,2.424,0,0,0-2.421,2.419v13.588A2.424,2.424,0,0,0,447,244.146h.209a2.423,2.423,0,0,0,2.419-2.421l.021-.447a.757.757,0,0,1,.048-.216,3.756,3.756,0,0,1,6.97,0l.145.47a.64.64,0,0,1,.029.193,2.423,2.423,0,0,0,2.421,2.421h.207a2.424,2.424,0,0,0,2.421-2.421.714.714,0,0,1,.029-.195l.127-.413A3.757,3.757,0,0,1,465.554,238.707Z" transform="translate(-443.242 -224.377)"/></g><g transform="translate(488.166 190.605)"><path class="b" d="M477.808,212.051a17.749,17.749,0,1,1,12.125-4.78h0A17.7,17.7,0,0,1,477.808,212.051Zm-.018-34.167a16.392,16.392,0,1,0,.565.009C478.167,177.885,477.978,177.884,477.79,177.884Zm11.685,28.9h0Z" transform="translate(-460.054 -176.541)"/></g><g transform="translate(424.384 190.995)"><path class="b" d="M442.126,212.26a17.755,17.755,0,1,1,11.982-30.866h0a17.752,17.752,0,0,1-11.982,30.866Zm.014-34.16a16.408,16.408,0,1,0,11.063,4.284A16.378,16.378,0,0,0,442.14,178.1Z" transform="translate(-424.384 -176.759)"/></g><g transform="translate(456.441 161.153)"><path class="b" d="M460.072,195.587a17.759,17.759,0,1,1,17.759-17.758A17.78,17.78,0,0,1,460.072,195.587Zm0-34.176a16.417,16.417,0,1,0,16.418,16.418A16.438,16.438,0,0,0,460.072,161.411Z" transform="translate(-442.312 -160.07)"/></g></g></svg>