<svg xmlns="http://www.w3.org/2000/svg" width="243.072" height="275.075" viewBox="0 0 243.072 275.075">
  <path id="Path_2825" data-name="Path 2825" d="M439.843,186.775a7.163,7.163,0,0,0,3.14,2.144,1.565,1.565,0,0,0,1.375,1.168c3.337.4,6.35,2.824,9.635,3.526,2.944.63,6.415.121,9.539-.7a29.574,29.574,0,0,0,8.6-1.633c6.125-2.253,11.289-6.435,17.289-8.975a23.751,23.751,0,0,1,11.909-2.134,34.891,34.891,0,0,1,6.507,1.357c-2.654.969-5.548,1.487-8.2,2.206-3.26.883-6.555,1.536-9.844,2.262a1.68,1.68,0,0,0-2.144-.642,44.231,44.231,0,0,0-5.352,2.52,64.012,64.012,0,0,0-14.74,6.139,38.161,38.161,0,0,0-13.766,14.233c-3.839,6.994-3.962,13.868-4.874,21.576a1.541,1.541,0,0,0,.836,1.607c1.61.8,3.12.42,4.838.16,2.613-.4,5.264-.494,7.869-.891a33.1,33.1,0,0,0,15.183-6.486,63.677,63.677,0,0,0,11.026-10.62c1.762-2.183,2.816-4.789,4.713-6.882a35.481,35.481,0,0,1,7.5-6.009,75.2,75.2,0,0,1,18.125-8.439c.139-.042.314-.1.5-.174a45.433,45.433,0,0,0,4.566.033,12.143,12.143,0,0,1-.3,1.742c-.885,3.216-3.9,6.016-6.862,7.282-5.051,2.162-10.248,3.23-15.125,5.936a99.66,99.66,0,0,0-13.82,9.643,32.76,32.76,0,0,0-10.515,14.055c-1.31,3.476-1.527,7.242-3.286,10.558-1.357,2.561-3.409,4.6-4.328,7.394a1.386,1.386,0,0,0,.968,1.7,28.1,28.1,0,0,0,14.959-1.3c6.3-2.506,12.4-6.459,17.914-10.393a182.789,182.789,0,0,0,16.856-13.779c2.274-2.075,4.366-4.343,6.68-6.373.591-.517,4.633-4.271,5.054-1.353.076.528-2.634,3.07-2.947,3.443-4.214,5.02-8.791,9.844-13.034,14.913a72.725,72.725,0,0,0-6.931,8.654,40.531,40.531,0,0,0-4.042,7.733,29.641,29.641,0,0,0-2.8,14.243c.123,3.408,1,6.508.823,9.983-.143,2.85-.616,5.74-.135,8.573a1.3,1.3,0,0,0,1.12,1.075c4.011.55,7.73-3.656,9.457-6.905a46.1,46.1,0,0,1,3.143-5.662,36.753,36.753,0,0,0,3.53-6.791,86.887,86.887,0,0,1,9.1-16.581c1.314-1.811,2.7-3.682,4.14-5.522-.384.892-.736,1.8-1.075,2.68-.031.018-.064.029-.094.048-2.808,1.937-4.018,5.318-4.916,8.646a44.932,44.932,0,0,0-3.764,17.14c-.2,6.578-.193,14.341,2.694,20.412,1.446,3.043,4,4.895,6.621,6.883,1.121.849,2.363,1.534,3.474,2.38a7.523,7.523,0,0,1,1.734,1.8,1.29,1.29,0,0,0,.337.566,7.935,7.935,0,0,1,.711,4.229c-.065,1.138,1.616,2.077,2.287.884,1.859-3.312,3.872-6.367,5.26-9.936a50.625,50.625,0,0,0,3.062-12.844,53.78,53.78,0,0,0,.117,7.227,28.734,28.734,0,0,0,3.72,10.873c1.861,3.478,2.986,7.33,5.149,10.641,1.9,2.912,4.051,5.844,6.229,8.561,1.492,1.86,3.44,4.127,6.005,4.187a1.357,1.357,0,0,0,1.333-.872,7.537,7.537,0,0,0,.338-3.094A19.63,19.63,0,0,1,574,318.836c1.328-4.134,3-8.143,4.266-12.3,1.028-3.37,2.586-6.481,3.631-9.854a42.028,42.028,0,0,0,1.588-11.408c.24-7.221-3.556-11.829-7.527-17.412A40.054,40.054,0,0,1,570.08,256.7c-.939-2.906-.778-6.089-1.336-9.036.937,1.494,1.923,2.947,2.735,4.287,2.265,3.742,4.094,7.191,7.28,10.245a84.382,84.382,0,0,1,9.284,10.591c3.075,4.125,5.058,8.747,7.826,13.022a1.367,1.367,0,0,0,1.81.584,3.54,3.54,0,0,0,.652-.541,1.132,1.132,0,0,0,1.155-1.061,1.259,1.259,0,0,0,.216-.508c2.457-12.971-6.354-24.477-15.6-32.529-3.326-2.895-6.54-5.787-9.547-8.9-1.354-2.591-2.609-5.255-3.953-7.842-1.324-2.549-2.1-7.307-.288-10.171,2.039,8.939,7.285,16.977,14.13,23.166,2.847,2.575,5.7,4.256,9.529,4.655,1.136.119,2.334.185,3.535.284a1.471,1.471,0,0,0,1.348.131,18.187,18.187,0,0,1,3.086.592c.068.021.131.048.2.071a5.781,5.781,0,0,1,.523,1.01,1.235,1.235,0,0,0,1.872.475,14.046,14.046,0,0,1,2.961,4.828,1.381,1.381,0,0,0,2.148.342,5,5,0,0,0,1.417-2.093,1.212,1.212,0,0,0,.381-1.307,20.978,20.978,0,0,0,.31-2.236c.322-3.3.634-6.925-.325-10.153-1.04-3.505-1.772-8.062-3.709-11.224a31.278,31.278,0,0,0-6.269-6.842,80.91,80.91,0,0,0-9.653-6.529c-3.346-2.109-7.272-2.841-10.659-4.837-4.389-2.586-9.444-5.572-12.133-10.054.059-.008.122-.007.179-.018a1.339,1.339,0,0,0,1-.972,3.021,3.021,0,0,0,.021-.595c2.489.762,5.069,1.331,7.458,2.165,4.473,1.563,8.732,3.231,13.5,3.746a14.7,14.7,0,0,0,6.763-1.236,20.867,20.867,0,0,0,2.214-.088,28.517,28.517,0,0,1,7.227-.219c.246.083.5.16.747.244a1.361,1.361,0,0,0,.622.066,33.693,33.693,0,0,1,7.163,3.219c1.935,1.09,3.657,2.724,5.747,3.477a.992.992,0,0,0,1.1-1.549c-.617-.778-1.28-1.511-1.963-2.224a1,1,0,0,0-.06-1.048,71.42,71.42,0,0,1-3.564-7.867c-1.185-2.658-2.394-5.222-3.758-7.791-2.182-4.113-5.865-7.725-10.578-8.785-4.645-1.045-9.373-1-14.082-1.179-1.975-.212-3.98-.347-6.034-.462-.811-.106-1.619-.232-2.424-.392-3.629-.724-7.242-1.5-10.859-2.279a11.794,11.794,0,0,0-3.908-.08c-.025-.245-.05-.5-.072-.76a30.287,30.287,0,0,0,2.266-2.307,21.3,21.3,0,0,1,2.026-.782c3.825-1.246,7.525-1.209,11.467-1.6a88.85,88.85,0,0,0,15.355-3.379c5.056-1.429,10.316-3.2,14.393-6.6a53.144,53.144,0,0,1,8.028-5.887c.961-.542,2.372-1.2,2.595-2.419.175.008.355.012.541.01a2.8,2.8,0,0,0,2.592-.392c1.625-.925.823-3.747-1.088-3.546-.151.016-.3.008-.453.016a4.044,4.044,0,0,0-1.125-.658q-.758-.605-1.557-1.155c-1.637-1.175-3.3-2.3-4.927-3.5a28.21,28.21,0,0,0-7.01-3.919l-.068-.022a19.639,19.639,0,0,0-8.63-3.95c-4.686-.867-9.763.675-13.716,3.147a24.2,24.2,0,0,0-5,4.46c-1.119.829-2.2,1.7-3.252,2.6a52.356,52.356,0,0,0-4.331,4.4,59.861,59.861,0,0,1-7.7,3.3c-2.709,1.011-5.51,1.952-8.273,2.789-4.794,1.454-9.315,3.531-13.915,5.388,2.888-3.763,7.861-5.982,11.649-8.451,3.692-2.407,8.258-5.282,10.567-9.1,2.684-4.439,6.465-8.677,7.885-13.755.809-2.895.866-5.957,1.536-8.89a42.043,42.043,0,0,0,1.129-8.756c.031-1.512.094-3.023.106-4.535a16.43,16.43,0,0,1,1.04-4.969c.287-.971.635-1.762-.1-2.627-.836-.977-2.989-1.074-4.168-1.227a75.662,75.662,0,0,0-8.562-.807c-9.341-.139-16.879,8.664-18.958,17.179-1.759,7.21-1.88,14.286-7.209,20.037-1.187,1.281-2.375,2.143-3.32,3.32.012-.046.025-.092.037-.135a32.251,32.251,0,0,0,1-8.747c-.059-5.362-.087-12.028-2.025-17.076-1.322-3.442-2.565-7.348-5.405-9.83a18.923,18.923,0,0,0-5.829-3.443c-3.292-1.227-5.34-1.806-6.393-5.664-.322-1.181-2.185-1.954-2.9-.61A48.007,48.007,0,0,0,509.2,110.59c-.778,3.629.786,7.14,2.284,10.406,1.705,3.715,3.344,7.432,5.026,11.145l.082.181a41.726,41.726,0,0,0,2.753,6.448,21.383,21.383,0,0,1,1.494,9.77,14.871,14.871,0,0,1-1.2,5.145c-1.032-1.388-2.062-2.779-2.993-4.246-2.778-4.377-5.9-8.515-8.566-12.964-2.984-4.977-6.993-9.195-10.56-13.745-3.686-4.7-7.316-9.43-11.038-14.1-1.911-2.4-3.97-4.648-5.8-7.111-1.318-1.768-2.764-4.355-4.841-5.316-2.528-1.171-4.9,2.531-2.346,3.708,1.977.909,3.446,3.912,4.7,5.556,1.735,2.274,3.678,4.371,5.463,6.6,3.574,4.472,7.062,9,10.6,13.5,3.594,4.569,7.506,8.806,10.557,13.776,2.529,4.123,5.352,8,8.042,12.021,1.124,1.678,2.349,3.261,3.6,4.837a3.723,3.723,0,0,1-1.212-.042,11.39,11.39,0,0,0-1.346-1.094c-4.409-3-10.229-5.187-15.2-7.065-4.926-1.864-10.418-2.917-14.911-5.766-4.542-2.882-7.9-7.2-11.474-11.1-1.037-1.132-3.616-1.054-3.66.93-.086,4.079,4.021,9.78,6.317,12.828,1.195,1.586,2.5,3.178,3.873,4.724,1.276,2.309,2.214,4.772,4.346,6.449a42.47,42.47,0,0,0-11.372,2.808,45.021,45.021,0,0,0-16.37,10.681,47.432,47.432,0,0,0-6,7.9,15.264,15.264,0,0,1-3.792,4.274c-1.6,1.141-3.585,1.586-5.332,2.494A1.66,1.66,0,0,0,439.843,186.775ZM452,228.974c.042-.381.081-.76.12-1.138a1.923,1.923,0,0,0,.62.466c.008.065.007.127.018.193a1.316,1.316,0,0,0,.185.451A5.617,5.617,0,0,1,452,228.974Zm.885-5.538a5.306,5.306,0,0,0-.364.517c.062-.563.13-1.125.2-1.684.01.008.018.02.029.028a2.857,2.857,0,0,0,.393.238C453.06,222.837,452.977,223.138,452.881,223.436Zm7.391-9.483c.462-.621.943-1.238,1.45-1.848-.629.922-1.221,1.868-1.767,2.84v-.024Zm.625,13.979c-.918.1-1.838.168-2.757.248,1.164-.7,2.327-1.438,3.522-2.075a2.084,2.084,0,0,0,1,1.574C462.068,227.782,461.476,227.871,460.9,227.932Zm6.669-7.064a10.54,10.54,0,0,0-1.134.009q.792-.9,1.623-1.768a1.869,1.869,0,0,0,.842.478C468.457,220.022,468.016,220.452,467.566,220.869Zm4.871,3.409a24.9,24.9,0,0,1-2.364,1.188c1.759-1.052,3.4-2.3,5.077-3.474,2.851-1.992,5.474-4.386,8.144-6.622.254-.212.53-.431.817-.65A48.978,48.978,0,0,1,472.437,224.278Zm2.246,23.4a2.091,2.091,0,0,0-.179.419c-.464-.029-.921-.063-1.358-.11a22.511,22.511,0,0,1,1.567-2.52,1.8,1.8,0,0,0,.847.934A10.442,10.442,0,0,0,474.684,247.673Zm4.567-13.461c.094-.352.2-.7.308-1.054a26.039,26.039,0,0,1,1.374-3.471C480.356,231.188,479.823,232.709,479.251,234.213Zm3.011,10.7c.714-.546,1.421-1.087,2.088-1.639a1.68,1.68,0,0,0,1.219.372C484.482,244.119,483.377,244.533,482.262,244.916Zm4.566-1.838c-.138.067-.279.126-.417.189.4-.293.8-.6,1.195-.9a2.233,2.233,0,0,0,.317.157C487.56,242.713,487.2,242.9,486.828,243.079ZM510.6,269.855q-.039-1.558-.018-3.117c.063-.077.127-.153.189-.23C510.69,267.62,510.631,268.74,510.6,269.855Zm1.433-11.466c-.215.554-.43,1.107-.655,1.656a6.021,6.021,0,0,1-.3.6l.016-.083c.237-.681.491-1.357.749-2.025.122-.317.258-.63.388-.944C512.163,257.852,512.1,258.123,512.038,258.389Zm1.181,11.818q.016-.568.042-1.137a1.244,1.244,0,0,0,.434.109C513.531,269.519,513.374,269.863,513.219,270.207Zm.537-6.377c.177-1.231.4-2.431.664-3.585q.381-.857.731-1.733a1.163,1.163,0,0,0,.726-.194c.052-.033.1-.08.153-.115C515.215,260.056,514.445,261.946,513.756,263.83Zm2.473,5.927c.782-1.73,1.663-3.45,2.544-5.154A48.786,48.786,0,0,1,516.229,269.756Zm3.5-33.182c-.043.08-.094.158-.139.238-1.992,2.58-4.531,4.739-6.525,7.353-1.967,2.576-2.755,5.589-3.445,8.671a35.655,35.655,0,0,0-1.472,4.506,1.265,1.265,0,0,0,.3,1.181q-.143.833-.263,1.662c-.87,2.434-1.445,5.044-.57,6.54-.01.367-.022.731-.026,1.1-.024,2.809.64,6.681.354,9.986-.1.181-.191.363-.288.544.013-1.872.026-3.746-.145-5.628-.338-3.724-1.158-7.565-1.052-11.3.2-7.065,3.987-14.554,8.608-19.787q2.393-2.711,4.836-5.409C519.849,236.345,519.793,236.459,519.731,236.574Zm12.222,25.092a1.256,1.256,0,0,0-.8.726,8.21,8.21,0,0,0-.073,4.436c-.068,1.413-.194,2.833-.214,4.189-.048,3.187.187,6.351.321,9.531.069,1.619.168,3.208.283,4.786l-.024-.033c-.024-.134-.048-.27-.073-.4a100.034,100.034,0,0,1-1.883-15.52,67.17,67.17,0,0,1,.093-6.833c.206-2.783,1.518-5.332,2.77-7.842-.088,1.445-.24,2.871-.322,4.16C531.974,259.828,531.95,260.754,531.953,261.666Zm59.762,3.5a22.728,22.728,0,0,1,5.034,11.768c-.03-.043-.058-.088-.088-.13-.75-1.553-1.553-3.078-2.313-4.58-1.015-2.008-2.075-3.963-3.206-5.873-.365-.747-.735-1.489-1.122-2.22-.224-.423-.435-.87-.641-1.329A24.9,24.9,0,0,1,591.715,265.17ZM572.9,223.882c.151.155.3.308.452.464a1.251,1.251,0,0,0-.043.248,7.3,7.3,0,0,0,.228,1.759C573.3,225.548,573.083,224.732,572.9,223.882Zm1.434,4.844c.555,1.327,1.231,2.612,1.758,3.661q.4.8.775,1.607A34.346,34.346,0,0,1,574.334,228.726Zm12.611,16.836c-3.425-2.481-5.12-7.023-6.684-10.842-.1-.251-.224-.5-.338-.744.164.257.327.512.489.768a10.75,10.75,0,0,0,1.966,3.043,1.479,1.479,0,0,0,1.375.279c.588.926,1.188,1.846,1.822,2.741,1.454,2.054,3.772,6.066,6.309,6.941.06.021.122.031.182.047.168.173.339.343.508.515A16.634,16.634,0,0,1,586.944,245.562Zm5.937-15.4c0,.017,0,.033,0,.05-1.074-.812-2.151-1.608-3.2-2.4-.557-.419-1.117-.832-1.675-1.246,1.183.589,2.364,1.178,3.525,1.8q.766.652,1.509,1.333A1.166,1.166,0,0,0,592.882,230.159Zm3.789,18.513c-.724-.682-1.438-1.37-2.134-2.066.018-.054.045-.1.06-.159a2.267,2.267,0,0,0,.042-.245q1.12,1.165,2.283,2.279c.026.063.047.124.072.187Zm-1.738-8.009c-.356-.554-.724-1.09-1.1-1.615a1.557,1.557,0,0,0,.668-.756c.289.329.579.658.871.978.373.62.741,1.229,1.107,1.811a1.23,1.23,0,0,0,.068,1.043c.418.77.874,1.515,1.354,2.242a1.275,1.275,0,0,0,.055.4c.042.135.1.262.143.394C597.072,243.575,595.83,242.061,594.933,240.662Zm-23.767-28.835c.185.161.369.317.557.465a74.345,74.345,0,0,0,7.97,5.117c3.192,1.916,6.907,2.605,10.105,4.507,5.863,3.488,13.922,7.964,16.388,14.732a26.806,26.806,0,0,1,.867,3.153,34.879,34.879,0,0,0-2.314-3.328,14.726,14.726,0,0,0-2.959-5.028,1.2,1.2,0,0,0-1.6.08,36.135,36.135,0,0,0-6.345-4.622c-1.045-.91-2.117-1.775-3.2-2.572a58.02,58.02,0,0,0-9.919-6.084,14.316,14.316,0,0,0-3.413-1.381,16.207,16.207,0,0,0-4.147-2.832,1.073,1.073,0,0,0-.9.037c-.551-.489-1.111-.968-1.665-1.454A1.389,1.389,0,0,0,571.165,211.827Zm18.324-7.766a5.816,5.816,0,0,0-.982-.973l.044.01c.921.284,1.844.565,2.765.85a1.407,1.407,0,0,0,.627.052l.821.227Q591.129,204.149,589.489,204.061Zm-.322-3.952c.862.312,1.72.633,2.578.955-.344-.072-.69-.132-1.036-.2C590.194,200.609,589.681,200.359,589.167,200.11Zm2.633-3.047a1.6,1.6,0,0,0,.067-.329c0-.007,0-.01,0-.017.55.219,1.1.443,1.646.665Zm14.52-6.9a16.014,16.014,0,0,1,4.187,4.338,5.784,5.784,0,0,0-.827-.4,17.508,17.508,0,0,0-6.905-5.74c-.092-.047-.182-.086-.274-.131A13.2,13.2,0,0,1,606.32,190.161Zm.165,3.956a.805.805,0,0,0-.325.394c-.27-.212-.532-.422-.774-.621a43.058,43.058,0,0,0-3.877-3.327A16.759,16.759,0,0,1,606.485,194.116Zm-1.056,8.3c.162.1.324.2.487.3a6.668,6.668,0,0,0,.661.782c-.042-.012-.086-.033-.127-.041a1.118,1.118,0,0,0-1.18.558q-3.452-1.631-6.956-3.069c.551.117,1.1.231,1.654.352C601.748,201.692,603.646,201.915,605.43,202.42Zm-7.417-13.411c.452.185.9.371,1.352.563a2.126,2.126,0,0,0-1.271.1,1.536,1.536,0,0,0-.948.968,36.535,36.535,0,0,0-7.078-2.718c-.74-.2-2.224-.648-3.961-1.07A35.073,35.073,0,0,1,598.012,189.009Zm-11.051,5.776.185.072q-4.132-.864-8.265-1.73a2.1,2.1,0,0,0-.1-1.536C581.658,193.239,585.874,194.366,586.961,194.785Zm-9.154.457a1.073,1.073,0,0,0,0,.324c-.154-.045-.305-.094-.461-.138-.018-.018-.026-.041-.046-.058-.119-.107-.242-.208-.364-.312C577.224,195.119,577.515,195.182,577.807,195.243Zm38.166-39.071a1.835,1.835,0,0,0,.734-.342l.274.156c-.415.143-.829.293-1.238.461A1.3,1.3,0,0,0,615.973,156.172Zm-3.407,1.209a14.474,14.474,0,0,0,1.5-.177c-.234.115-.466.242-.7.363q-.468.2-.931.428A1.583,1.583,0,0,0,612.566,157.38Zm-14.5,8.115c-.468.177-.939.344-1.415.507a1.675,1.675,0,0,0-.2-.5c.346-.081.692-.161,1.031-.228.3-.059.592-.107.888-.161A1.849,1.849,0,0,0,598.068,165.5ZM597.8,151.29c.278-.008.559,0,.84,0q-1.725.472-3.407,1.066l-.241-.024c-.557-.054-1.322-.075-2.178-.1A17.7,17.7,0,0,1,597.8,151.29Zm-10.52,10.818c-.471.21-.943.418-1.415.629-.868.388-1.746.774-2.626,1.163a1.493,1.493,0,0,0-.124-.4Q585.193,162.766,587.284,162.107Zm-2.77,5.121a1.845,1.845,0,0,0,.206.447l-.356.106q-1.971.593-3.94,1.192Q582.466,168.077,584.513,167.229ZM552.345,238.8a14.78,14.78,0,0,0,2.262,2.815,26.511,26.511,0,0,1,.026,6.808,40.849,40.849,0,0,1-1.741-6.042C552.756,241.475,552.528,240.192,552.345,238.8Zm2.352,52.279q-.361-2.1-.572-4.235a55.515,55.515,0,0,1,0-10.04c.092,1.759.178,3.518.28,5.28.075,1.282.225,2.562.394,3.839A23.771,23.771,0,0,0,554.7,291.076Zm-.375-38.186c.025-.009.045-.021.069-.03-.06,1.083-.136,2.161-.24,3.227q-.336-1.615-.7-3.223A1.131,1.131,0,0,0,554.323,252.89Zm-1.367,43.15c-.084-.468-.157-.942-.221-1.417a51.544,51.544,0,0,0,2.981,8.773A26.273,26.273,0,0,1,552.955,296.04Zm4.644-23.694c-.012-.912-.026-1.822-.059-2.732-.022-.652-.037-1.3-.056-1.958q.175,2.371.266,4.743C557.7,272.381,557.654,272.362,557.6,272.346Zm.212,7.259c-.027-.306-.064-.612-.079-.921-.035-.694-.056-1.391-.073-2.088.027-.211.058-.421.088-.63.033.071.065.141.1.216C557.861,277.323,557.861,278.465,557.812,279.6Zm7.242,35.165a1.538,1.538,0,0,0,.365-.13c.071.2.145.4.219.6.109.365.229.726.351,1.086Q565.51,315.555,565.054,314.77Zm3.052-3.185c-.339-1.107-.654-2.217-.934-3.324a1.175,1.175,0,0,0,0-.389q-.558-3.23-1.159-6.452c-.252-2.3-.519-4.571-.93-6.738a1.229,1.229,0,0,0-.191-.47c-.123-.936-.255-1.866-.419-2.777-.136-.758-.286-1.518-.428-2.276.816-1.8.434-4.549.455-6.287.007-.452,0-.9,0-1.354.05.259.1.519.147.778.444,2.227.646,6.028,3,7.2a1.236,1.236,0,0,0,.86.068c.043.364.085.726.127,1.082-.161,4.334-.415,8.66-.478,13C568.123,306.205,568.18,308.9,568.106,311.585Zm.578-40.137c0,.059,0,.117,0,.174q-.179-1.255-.358-2.51c-.287-2.021-.7-4.005-1.179-5.971.533,1.341,1.069,2.682,1.618,4.02.111.272.23.541.343.812C568.484,268.862,568.677,270.269,568.683,271.447Zm1.729,16.2q-.138-1.692-.215-3.385.387,1.863.833,3.721A1.364,1.364,0,0,0,570.412,287.647Zm.172-16.261c.2.454.4.91.6,1.365.027.138.052.275.079.413a8.311,8.311,0,0,0-.152,1.061,2.1,2.1,0,0,0-.415-.394C570.635,273.02,570.584,272.2,570.584,271.386Zm.786,21.3q0-1.586.03-3.178c.079.305.166.608.248.912A22.677,22.677,0,0,0,571.37,292.682Zm4.122,14.046c-.656,2.071-1.42,4.1-2.178,6.14.3-1.729.555-3.463.8-5.205l.126-.891a.831.831,0,0,0,.246-.246c1.138-1.8.934-4.7.939-6.782a2.1,2.1,0,0,0,.233.11,1,1,0,0,0,1.272-.583,20.419,20.419,0,0,0,.711-8.334c.329.351.673.689,1.035,1.009a1,1,0,0,0,1.395-.262,6.7,6.7,0,0,0,.634-2C579.856,295.7,577.35,300.857,575.492,306.728Zm-.451-19.37c.059.1.114.208.174.31.106.681.207,1.378.293,2.083a1.239,1.239,0,0,0-.338-.169c-.038-.685-.075-1.369-.118-2.052C575.049,287.471,575.044,287.415,575.041,287.357Zm2.069-.5c.22.266.44.533.677.77a1.03,1.03,0,0,0,1.086.253,7.23,7.23,0,0,1-.075,1.4,15.84,15.84,0,0,1-1.661-2.242Zm.595-12.24c2.878,3.991,3.484,7.391,3.253,12.315-.033.7-.1,1.392-.177,2.072.27-3.263-1.143-7.058-1.966-9.875-.382-1.31-.791-3.083-1.35-4.851C577.547,274.389,577.624,274.5,577.705,274.616Zm-4.314-4.157c2.063,2.271,2.937,7.334,3.622,9.632.1.331.217.7.346,1.1-.6-1.142-1.2-2.261-1.643-3.327-.06-.143-.123-.284-.182-.427a9.506,9.506,0,0,0-1.942-4.531l-.326-.75A6.024,6.024,0,0,1,573.391,270.459Zm-6.254-51.916c.91.938,1.822,1.877,2.722,2.816a7.489,7.489,0,0,0-1.033.992c-.574-1.145-1.209-2.266-1.852-3.382A1.475,1.475,0,0,0,567.136,218.542Zm-.073,5.907a1.349,1.349,0,0,0,.367.141q-.2.464-.355.95c-.206-.517-.407-1.011-.574-1.46A6.6,6.6,0,0,0,567.063,224.45Zm-.813,7.793a1.584,1.584,0,0,0,.469.173c.03.181.06.361.1.538s.1.369.148.554c-.278-.434-.558-.866-.823-1.31l0-.03C566.175,232.192,566.21,232.221,566.25,232.243Zm.01,16.3a1.237,1.237,0,0,0,.473.145c.063,1.09.059,2.2.18,3.143a32.264,32.264,0,0,0,1.09,5.354,32.685,32.685,0,0,0,3.958,9.021c.366.536.727,1.075,1.09,1.615a.921.921,0,0,0-.919.426c-.042.071-.075.141-.113.212a4.932,4.932,0,0,0-.707-.946c-.014-.014-.03-.022-.044-.035-.424-1.019-.844-2.041-1.244-3.07q-1.6-4.108-3.24-8.185a65.2,65.2,0,0,0-1.04-8.087A2.867,2.867,0,0,0,566.26,248.546Zm-2.228,12.719a1.3,1.3,0,0,0,.414.523c.52,2,.989,4.005,1.322,6.053.481,2.967.905,5.969,1.248,8.955.3,2.589.989,6.346.6,9.268-1.15-2.584-1.407-7.787-1.708-9.474-.779-4.383-1.475-8.78-2.165-13.178-.244-1.552-.436-3.105-.617-4.66A17.553,17.553,0,0,0,564.032,261.265Zm-.14-54.466q-.666-.574-1.331-1.146-.438-1.092-.88-2.185Q562.724,205.177,563.892,206.8Zm-1.781,73.221q-.142-.6-.289-1.2c-.109-1.067-.211-2.136-.325-3.2q-.613-5.745-1.09-11.495a1.493,1.493,0,0,0,.906.462c.431,4.008.608,8.063.728,12.087Q562.092,278.347,562.111,280.02Zm-2.764,5.9c.064-.261.109-.527.166-.788q.157,1.2.329,2.393c-.211-.414-.43-.817-.663-1.2A1.686,1.686,0,0,0,559.347,285.915Zm.779-59.586a1.522,1.522,0,0,0-.25.122q-.216-.837-.449-1.662C559.656,225.3,559.885,225.821,560.127,226.329Zm-2.282,62.858c1.346,2.741,2.233,5.986,3.181,8.472.029.079.055.157.085.236a22.031,22.031,0,0,0,1.365,7.957c.034.739.08,1.477.143,2.215-.367-.365-.724-.718-1.069-1.061A14.072,14.072,0,0,0,559.362,303a1.3,1.3,0,0,0-.6-.41,43.278,43.278,0,0,1-1.122-6.761,1.138,1.138,0,0,0,.658-1.041A40.2,40.2,0,0,0,557.845,289.187Zm.98-49.218c-.2-1.116-.418-2.229-.635-3.343.152.537.3,1.074.448,1.612C558.707,238.817,558.768,239.392,558.825,239.969Zm-.009-30.3c.094.335.194.669.309,1-.771-.935-1.544-1.87-2.329-2.794a1.215,1.215,0,0,0-.241-.212q-.35-1.218-.747-2.434a21.964,21.964,0,0,0,2.77,4.043Zm-.925-7.239q-.682-1.167-1.364-2.333c-1.156-1.988-2.33-3.979-3.455-5.991q.409.283.826.553a5.386,5.386,0,0,0,2.161,3.29c.743,1.6,1.5,3.2,2.211,4.825C558.145,202.663,558.018,202.547,557.891,202.433Zm.347-38.651c.225-.067.451-.138.676-.2-.268.113-.544.215-.809.331-1.666.739-3.542,1.308-5.4,1.918a1.833,1.833,0,0,0-.21-.025C554.379,165.057,556.285,164.359,558.238,163.783Zm-10.129,56.461a23.8,23.8,0,0,0,2.447,6.127c.11.334.231.667.331,1,.193.654.372,1.31.544,1.969a1.635,1.635,0,0,0-.2.048c-1.044-2.254-2.115-4.5-3.094-6.781-.228-.53-.517-1.37-.862-2.322q-.063-1.189-.179-2.375Q547.594,219.08,548.109,220.244Zm2.46,25.027a1.449,1.449,0,0,0-.456.082c.1-.3.179-.6.249-.906.026.126.05.25.08.375C550.48,244.971,550.527,245.122,550.569,245.271Zm-4.164,37.918a54.356,54.356,0,0,0,1.539-7.624c.629-4.473,2.3-10.8.58-15.133a1.255,1.255,0,0,0-.262-.4c.331-1.939.675-3.874,1.043-5.806a14.484,14.484,0,0,1,.986-2.971c.521,2.1,1.012,4.223,1.455,6.354a10.985,10.985,0,0,0-1.111,4.655,17.1,17.1,0,0,0-.616,2.18c-.382,1.861-.441,3.747-.7,5.624-.614,4.4-1.451,8.857-1.66,13.288a51.4,51.4,0,0,1-2.228,13.576c-.317.977-.686,1.92-1.088,2.845.033-.314.054-.637.067-.959.837-2.084.614-4.876.9-7.082C545.677,288.891,546.063,286.042,546.405,283.19Zm-.261-103.78c.418-.177.842-.35,1.268-.524-.386.253-.779.5-1.17.74-.086-.048-.168-.109-.255-.149ZM543.7,238.041q.208-2.833.432-5.665c.021.094.039.191.06.287.309,1.361.58,2.727.85,4.092q-.7,1.809-1.411,3.618C543.638,239.566,543.649,238.777,543.7,238.041Zm28.4-110.389c-.418,2.32-.606,4.5-1.154,6.647a71.7,71.7,0,0,1,1.231-8.544q.373-1.487.752-2.975C572.685,124.383,572.4,125.989,572.1,127.652Zm1.454-20.522c1.536.238,1.653.039,1.242.436a1.907,1.907,0,0,0-1.907-.193c-.028.012-.072.042-.1.059a2.072,2.072,0,0,0-.837-.245c-.66-.052-1.318-.124-1.973-.2a1.954,1.954,0,0,0-.092-.249C571.108,106.854,572.342,106.943,573.554,107.13Zm-10.186,16.806c-.111.269-.227.536-.339.8q-.081-.456-.2-.905.3-.7.583-1.4C563.415,122.937,563.4,123.437,563.368,123.936Zm.079-12.388.017-.008a13.093,13.093,0,0,0-.849,1.3,2.129,2.129,0,0,0-.305.283,1.824,1.824,0,0,0-.6-.487A12.078,12.078,0,0,1,563.447,111.548Zm-6.782-2.388a10.21,10.21,0,0,0-.9,1.2c-.774.536-1.531,1.1-2.259,1.7A19.87,19.87,0,0,1,556.665,109.161ZM526.727,176.7c-.229-.232-.468-.454-.713-.671.024-1.363-.007-2.735-.041-4.106C526.259,173.507,526.53,175.11,526.727,176.7Zm-5.189-44.562a5.419,5.419,0,0,0,.2-.6c.039.106.081.211.12.317q.085,1.786.227,3.573c-.109-.223-.215-.445-.318-.671-.3-.655-.551-1.3-.782-1.944A1.444,1.444,0,0,0,521.537,132.141Zm2.122,50.712c.083-.054.166-.107.25-.16a1.6,1.6,0,0,0,1.3-.6c.01.338.02.677.039,1.016C524.779,183.018,524.238,182.927,523.659,182.853Zm2.6,13.228c-.219,1.426-1.48,2.811-2.837,4.016l-.341.134a16.346,16.346,0,0,0,3.7-6.271c.034.212.068.424.1.635A3.255,3.255,0,0,0,526.257,196.081Zm3.684-21.333c-.224-2.229-.5-4.462-.629-6.663q-.128-2.157-.168-4.314a57.082,57.082,0,0,0,1.324,10.4A1.617,1.617,0,0,0,529.941,174.748Zm-5.519,56.62q-.416.69-.84,1.374c-.109.134-.223.265-.333.4a1.457,1.457,0,0,0-.416-.086Q523.623,232.205,524.422,231.368Zm-.411,8.229c.238-.532.487-1.06.743-1.584a1.526,1.526,0,0,0,.758-.1,1.332,1.332,0,0,0,.651.617c-1.143,1.481-2.289,2.964-3.417,4.459A33.339,33.339,0,0,1,524.01,239.6Zm12.063,7.044c.016-.038.034-.076.05-.114.063-.147.124-.3.186-.453q.334-.493.663-.989l0,.046q-.195.672-.383,1.348A1.394,1.394,0,0,0,536.073,246.641Zm.652,8.417a1.313,1.313,0,0,0,.457-.063l.013.1q-.344.884-.669,1.777Q536.617,255.961,536.726,255.058Zm-.7,38.936a1.358,1.358,0,0,0,.356-.933l0-.183a1.145,1.145,0,0,0,.536.241c.071.7.151,1.4.227,2.1Zm3.872-44.42q-.2.308-.4.622c.082-.546.135-1.1.174-1.661a1.984,1.984,0,0,0,.524.317C540.1,249.093,540,249.334,539.9,249.574Zm.2,49.211c-.03-.043-.06-.085-.092-.127q-.226-1.923-.42-3.849a1.568,1.568,0,0,0,.723-.415Q540.188,296.588,540.093,298.785Zm.95-73.539c.1-.16.193-.318.288-.481a29.337,29.337,0,0,1,.2,4.8c-.033.393-.064.785-.1,1.178-.005-1.557-.021-3.115-.065-4.676A1.281,1.281,0,0,0,541.043,225.246Zm.937-39.174c.134.923.322,1.859.536,2.79q-.5-1.633-1.024-3.251C541.652,185.766,541.809,185.927,541.979,186.071Zm.8,24.016q.381,1.882.7,3.739a1.417,1.417,0,0,0-.536-.111c-.251-1-.512-1.99-.8-2.982-.808-2.753-1.374-5.506-2.114-8.2-.054-.917-.135-1.832-.227-2.728A95.6,95.6,0,0,1,542.774,210.088Zm-5.083,89.747c.03.229.055.458.086.688-.11-.09-.234-.182-.347-.272-.062-.359-.128-.72-.21-1.087Q537.462,299.495,537.691,299.834ZM538.828,149.7q.768-.819,1.51-1.712c-.063.1-.122.2-.183.3-.554.65-1.1,1.3-1.654,1.952C538.612,150.064,538.715,149.879,538.828,149.7Zm-4.43,63.133q.039.432.077.864a2.753,2.753,0,0,0-.68-.324Q534.112,213.113,534.4,212.836Zm3.411,22.016q-.041.6-.085,1.191c-2.69,2.8-4.867,5.974-7.371,8.981a72.021,72.021,0,0,0-5.4,7.417q1.083-2.1,2.166-4.2a1.631,1.631,0,0,0,.368-.279A102.5,102.5,0,0,0,537.809,234.852Zm-9.6-122.92c1.475,1.965,2.512,5.337,3.3,7.654.117.346.22.7.313,1.048-.4-1.239-.857-2.455-1.367-3.635a25.258,25.258,0,0,0-3.086-5.354c-.347-.561-.714-1.1-1.1-1.622A9.788,9.788,0,0,1,528.213,111.932ZM515,103.234a8.393,8.393,0,0,0,.991,1.265,2.575,2.575,0,0,0-.805.371,4.343,4.343,0,0,0-.507-.123,1.745,1.745,0,0,0-.247-.009Q514.7,103.981,515,103.234Zm-2.6,8.757c.153,1.318.392,2.646.664,3.946A9.68,9.68,0,0,1,512.391,111.991Zm3.416,51.873c.381.132,1.037.282,1.716.452a14.286,14.286,0,0,0-.126,1.574,8.248,8.248,0,0,0-1.948-2.148C515.569,163.784,515.687,163.823,515.807,163.864Zm-1.5,4.068a15.551,15.551,0,0,1,1.369,2.79,8,8,0,0,1-1.149-1.238,5.617,5.617,0,0,1-.811-1.572Zm-4.939-6.011c1.145.266,2.255.579,3.356.921a2.928,2.928,0,0,0-1.159.261c-1.739-.57-3.508-1.124-5.273-1.6-.14-.149-.291-.286-.439-.426C507.015,161.366,508.183,161.648,509.364,161.921Zm.689,5.933a10.424,10.424,0,0,0,.44,1.823c-1.5-.335-3-.643-4.5-.954a3.17,3.17,0,0,0-.382-.844Q507.836,167.848,510.053,167.855ZM502,164.482c-.743.018-1.487.034-2.229.051-.041-.013-.083-.024-.123-.035,0-.042,0-.083,0-.124A14.389,14.389,0,0,1,502,164.482Zm-1.662-9.23a1.722,1.722,0,0,0-.225.956c-.6-.523-1.213-1.039-1.83-1.539C498.959,154.875,499.644,155.067,500.339,155.252Zm-2.783,12.77a1.964,1.964,0,0,0-.52.448c-.181-.043-.362-.085-.541-.132a2.743,2.743,0,0,0-.65-.295Q496.7,168.036,497.555,168.022Zm-1.643,8.487c.523.115,1.045.223,1.567.347-.794.065-1.58.182-2.36.322C495.394,176.964,495.663,176.742,495.913,176.51Zm-16.382.143c.119-.094.241-.19.354-.28l.519-.414c1.407-.677,2.84-1.336,4.292-1.94.009.018.021.035.031.054C482.975,174.9,481.251,175.787,479.531,176.653Zm10.328-17.41a29.492,29.492,0,0,0-6.161.863,36.985,36.985,0,0,0-4.261-.021A37.6,37.6,0,0,1,489.859,159.243Zm-20.091,11.315a22.362,22.362,0,0,0,2.989-.109q-1.843.784-3.671,1.614a2.167,2.167,0,0,0-.584-.917Q469.138,170.842,469.768,170.558Zm-14.313,12.654.227-.141a2.7,2.7,0,0,0,.169,1.142c-.009.027-.021.055-.029.083-.631.027-1.26.048-1.885.052C454.438,183.965,454.941,183.584,455.455,183.212Zm-5.632-.884a43.184,43.184,0,0,0,3.878-5.618,1.4,1.4,0,0,0,.181.244,2.454,2.454,0,0,0,.844.58,1.8,1.8,0,0,0-.1.4,17.326,17.326,0,0,0-3.86,4.223,17.393,17.393,0,0,0-2.613,2.223,2.165,2.165,0,0,0-.534,1.229q-1.332.234-2.58.566l-.625-.266A14.723,14.723,0,0,0,449.823,182.328Z" transform="translate(691.96 194.901) rotate(164)" fill="#febfb6"/>
</svg>
