<svg xmlns="http://www.w3.org/2000/svg" width="70.054" height="81.258" viewBox="0 0 70.054 81.258">
  <g id="Group_523" data-name="Group 523" transform="translate(-12491.219 -12376.119)">
    <path id="Path_306" data-name="Path 306" d="M214.881,67.461a12.539,12.539,0,0,0,7.369,2.379H245.8V81.258L260.726,69.84h6.44a12.55,12.55,0,0,0,12.569-12.531V12.531A12.55,12.55,0,0,0,267.165,0H222.25a12.55,12.55,0,0,0-12.569,12.531v54.93Z" transform="translate(12281.538 12376.119)" fill="#779ecc"/>
    <path id="Path_308" data-name="Path 308" d="M300.186,92.382l1.3,1.049A11.538,11.538,0,0,0,308.741,96h18.392a3.068,3.068,0,0,0,3.064-3.216c-.078-1.65,0-16.677,0-18.371a3.068,3.068,0,0,0-3.068-3.068l-12.471-.038,1.527-3.616a13.086,13.086,0,0,0-.694-11.582,2.058,2.058,0,0,0-3.813,1.013,13.31,13.31,0,0,1-3.33,8.806l-7.952,9h-2.9V92.382h2.686Z" transform="translate(12216.374 12335.209)" fill="#ffd36c"/>
    <path id="Path_309" data-name="Path 309" d="M276.058,142.9h-8.4a1,1,0,0,1-1.005-1.005V120.489a1,1,0,0,1,1.005-1.005h8.4a1,1,0,0,1,1.005,1.005v21.405A1,1,0,0,1,276.058,142.9Z" transform="translate(12239.261 12287.459)" fill="#8ee6f3"/>
  </g>
</svg>
