<svg xmlns="http://www.w3.org/2000/svg" width="237.568" height="367.023" viewBox="0 0 237.568 367.023">
  <g id="Group_783" data-name="Group 783" transform="translate(-174.201 -81.196)">
    <path id="Path_659" data-name="Path 659" d="M312.121,396.272s-1.464-16.441,1.545-14.144c2.015,1.538,9.444,15.978,3.5,22.51s-33.463,17.71-39.914,6.637c-4.8-8.241,4.621-32.216,12.437-26.72C305.29,395.527,307.96,393.065,312.121,396.272Z" fill="#f6bc9f"/>
    <path id="Path_660" data-name="Path 660" d="M292.087,386.05s6.632,18.439-10.291,28.939c0,0,11.8-20.583,10.291-28.939Z" fill="#f69d81"/>
    <path id="Path_661" data-name="Path 661" d="M289.361,346.376s-9.033-18.484,4.115-18.676c7.061-.1,16.283,9.666,2.3,20.918Z" fill="#f69d81"/>
    <path id="Path_662" data-name="Path 662" d="M290.066,334.108a.467.467,0,0,1-.142-.022.48.48,0,0,1-.317-.6l37.515-121.562a.481.481,0,0,1,.92.284L290.526,333.768A.483.483,0,0,1,290.066,334.108Z" fill="#fffaef"/>
    <path id="Path_663" data-name="Path 663" d="M290.065,334.108a.482.482,0,0,1-.479-.445L278.319,187.1a.48.48,0,0,1,.443-.517.494.494,0,0,1,.516.443l11.267,146.56a.479.479,0,0,1-.442.516A.24.24,0,0,1,290.065,334.108Z" fill="#fffaef"/>
    <path id="Path_664" data-name="Path 664" d="M295.776,348.618s-1.492,15.833-7.6,21.244c-18.458,16.361-34.583,4.2-34.583,4.2l9.17-23.651s12.413,8.956,17.061,7.825,8.352-14.4,8.352-14.4Z" fill="#f69d81"/>
    <path id="Path_665" data-name="Path 665" d="M291.123,135.481c-2.741,32.357,18.686,60.59,47.861,63.063s55.046-21.754,57.788-54.11-18.685-60.592-47.86-63.064S293.866,103.124,291.123,135.481Z" fill="#e9acb1"/>
    <path id="Path_666" data-name="Path 666" d="M309.928,135.481c2.742,32.357-18.684,60.59-47.858,63.063s-55.048-21.754-57.79-54.11,18.686-60.592,47.86-63.064S307.186,103.124,309.928,135.481Z" fill="#e9acb1"/>
    <path id="Path_667" data-name="Path 667" d="M268.954,294.29a47.576,47.576,0,1,1-61.132-28.1A47.574,47.574,0,0,1,268.954,294.29Z" fill="#f6bc9f"/>
    <path id="Path_668" data-name="Path 668" d="M285.471,380.718c6.711,18.128-5.278,27.4-22.006,33.587s-31.862,6.963-38.572-11.166-10.978-41.448,15.475-51.238C269.1,341.265,278.762,362.587,285.471,380.718Z" fill="#f6bc9f"/>
    <path id="Path_669" data-name="Path 669" d="M279.421,321.169c4.323,11.678-12.384,28.627-37.317,37.855s-48.649,7.242-52.971-4.438,12.383-28.626,37.317-37.853S275.1,309.489,279.421,321.169Z" fill="#f6bc9f"/>
    <path id="Path_670" data-name="Path 670" d="M189.7,341.792s-8.856-13.939-13.572-9.859-1.052,31.321,14.279,16.5C190.4,348.436,192.792,349.108,189.7,341.792Z" fill="#f6bc9f"/>
    <path id="Path_671" data-name="Path 671" d="M177.066,338.684s9.972-3.97,11.72,8.015C188.786,346.7,186.488,339.963,177.066,338.684Z" fill="#e67f69"/>
    <path id="Path_672" data-name="Path 672" d="M270.259,311.973s-2.353-16.346,3.882-16.319,21.19,23.088-.094,21.822C274.047,317.476,272.672,319.543,270.259,311.973Z" fill="#f6bc9f"/>
    <path id="Path_673" data-name="Path 673" d="M277.82,301.392s-10.152,3.48-3.677,13.714C274.143,315.106,271.5,308.5,277.82,301.392Z" fill="#e67f69"/>
    <path id="Path_674" data-name="Path 674" d="M210.847,346.95c1.032,2.789-1.214,6.192-5.019,7.6s-7.725.287-8.757-2.5,1.215-6.191,5.018-7.6S209.813,344.16,210.847,346.95Z" fill="#f69d81"/>
    <path id="Path_675" data-name="Path 675" d="M274.446,323.41c1.031,2.79-1.216,6.194-5.019,7.6s-7.724.288-8.759-2.5,1.215-6.192,5.02-7.6S273.412,320.62,274.446,323.41Z" fill="#f69d81"/>
    <path id="Path_676" data-name="Path 676" d="M229,335.877s-1.6-8.26,1.776-11c4.27-3.474,8.762,6.453,8.762,6.453s-5.258-5.37-7.44-3.153C229.134,331.182,229,335.877,229,335.877Z" fill="#3c2a34"/>
    <path id="Path_677" data-name="Path 677" d="M224.383,338.384a13.145,13.145,0,0,0,14.5,3.992c9.354-2.939,7.638-10.758,7.638-10.758s7.075,12.221-9.665,15.2C225.789,348.792,224.383,338.384,224.383,338.384Z" fill="#3c2a34"/>
    <path id="Path_678" data-name="Path 678" d="M228.042,362.554s19.158-5.56,28.614-10.591C256.656,351.963,247.234,370.428,228.042,362.554Z" fill="#f69d81"/>
    <path id="Path_679" data-name="Path 679" d="M225.726,363.837s50.291-7.067,57.235-25.959l5.216,10.787s-11.718,48.476-57.2,41.423Z" fill="#f6bc9f"/>
    <path id="Path_680" data-name="Path 680" d="M228.042,383.667s30.038,10.642,51.783-16.224C279.825,367.443,263.759,402.456,228.042,383.667Z" fill="#f69d81"/>
    <path id="Path_681" data-name="Path 681" d="M219.821,332.792s-5.332-11.409-12.6-6.832-3.264,16.416-3.264,16.416,2.762-9.584,7.138-11.789C213.027,329.615,219.821,332.792,219.821,332.792Z" fill="#3c2a34"/>
    <path id="Path_682" data-name="Path 682" d="M262.076,316.164s-5.332-11.407-12.6-6.831-3.264,16.416-3.264,16.416,2.763-9.585,7.139-11.788C255.282,312.989,262.076,316.164,262.076,316.164Z" fill="#3c2a34"/>
    <path id="Path_683" data-name="Path 683" d="M226.338,406.5s38.669,4.167,58-28.78c0,0,3.406-.616,7.747,8.331,0,0,2.342,20.566-14.267,32.227S233.747,417,233.747,417A20.844,20.844,0,0,1,226.338,406.5Z" fill="#fffaef"/>
    <path id="Path_684" data-name="Path 684" d="M227.843,439.3s-8.111-14.564-9.567-11.068,4.951,21.209,13.69,19.926,29.549-21.54,28.76-27.343c-1.283-9.448-30.273-16.22-30.077-6.666C231.037,433.213,227.506,434.052,227.843,439.3Z" fill="#f6bc9f"/>
    <path id="Path_685" data-name="Path 685" d="M290.065,334.108a.483.483,0,0,1-.472-.391L261.6,188.769a.481.481,0,0,1,.945-.182l27.99,144.948a.482.482,0,0,1-.473.573Z" fill="#fffaef"/>
    <path id="Path_686" data-name="Path 686" d="M290.066,334.108a.491.491,0,0,1-.2-.045.482.482,0,0,1-.232-.641l60.929-130.093a.481.481,0,1,1,.872.407L290.5,333.83A.483.483,0,0,1,290.066,334.108Z" fill="#fffaef"/>
    <path id="Path_687" data-name="Path 687" d="M302.724,172.184c9.766,30.969-4.953,63.213-32.875,72.019s-58.477-9.161-68.243-40.132,4.952-63.212,32.876-72.018S292.958,141.215,302.724,172.184Z" fill="#18a6fe"/>
    <path id="Path_688" data-name="Path 688" d="M307.632,171.123c-9.765,30.969,4.954,63.213,32.876,72.018s58.478-9.161,68.243-40.13S403.8,139.8,375.876,130.993,317.4,140.153,307.632,171.123Z" fill="#18a6fe"/>
    <path id="Path_689" data-name="Path 689" d="M273.487,239.4l6.365,13.088-14.993,3.351,2.586-17.855Z" fill="#9bd5ca"/>
    <path id="Path_690" data-name="Path 690" d="M209.746,197.142a2.406,2.406,0,0,1-2.367-1.991c-7.65-43.717,24.508-54.229,24.834-54.331a2.406,2.406,0,0,1,1.432,4.594h0c-1.164.368-28.426,9.477-21.527,48.906a2.4,2.4,0,0,1-1.955,2.785A2.366,2.366,0,0,1,209.746,197.142Z" fill="#fffaef"/>
    <path id="Path_691" data-name="Path 691" d="M218.311,219.634a2.4,2.4,0,0,1-1.383-.438c-6.446-4.537-7.858-12.243-7.915-12.568a2.406,2.406,0,0,1,4.738-.837c.011.062,1.161,6.1,5.946,9.47a2.406,2.406,0,0,1-1.386,4.373Z" fill="#fffaef"/>
    <path id="Path_692" data-name="Path 692" d="M290.067,334.108a.391.391,0,0,1-.059,0,.482.482,0,0,1-.42-.535l18.018-149.008a.5.5,0,0,1,.535-.421.482.482,0,0,1,.42.536L290.543,333.684A.481.481,0,0,1,290.067,334.108Z" fill="#fffaef"/>
    <path id="Path_693" data-name="Path 693" d="M358.192,149.6c0,32.473-23.736,58.8-53.014,58.8s-53.013-26.324-53.013-58.8S275.9,90.8,305.178,90.8,358.192,117.123,358.192,149.6Z" fill="#fdc0c5"/>
    <path id="Path_694" data-name="Path 694" d="M262.991,141.438a2.462,2.462,0,0,1-.308-.02,2.406,2.406,0,0,1-2.081-2.692c5.626-44.024,39.455-44.55,39.8-44.55h0a2.406,2.406,0,0,1,.008,4.811h0c-1.222.008-29.958.642-35.034,40.349A2.407,2.407,0,0,1,262.991,141.438Z" fill="#fffaef"/>
    <path id="Path_695" data-name="Path 695" d="M264.515,165.455a2.4,2.4,0,0,1-1.906-.936c-4.816-6.241-3.885-14.02-3.842-14.347a2.4,2.4,0,0,1,4.772.6c-.008.083-.69,6.18,2.879,10.806a2.4,2.4,0,0,1-1.9,3.875Z" fill="#fffaef"/>
    <path id="Path_696" data-name="Path 696" d="M336.766,236.778l-1.636,14.4L321.2,244.691l12.935-12.578Z" fill="#9bd5ca"/>
    <path id="Path_697" data-name="Path 697" d="M228.4,277.5s-26.4-14.01-39.617,5.68c-18.542,27.628-5.859,51.061-5.859,51.061s-9.72-11.136-5.23-32.847S202.381,256.671,228.4,277.5Z" fill="#f69d81"/>
    <path id="Path_698" data-name="Path 698" d="M193.352,274.685s7.37-21.655,22.516-22.238l-11.909,10.769s19.191-10.186,26.765,2.631c0,0-13.108-1.457-15.73-.583,0,0,14,.874,13.409,12.234C228.4,277.5,214.528,262.552,193.352,274.685Z" fill="#aa5c27"/>
    <path id="Path_699" data-name="Path 699" d="M299.076,211.721l-19.251-8.189c-13.05,42.4-53.678,30.485-53.678,30.485,16.519,11.089,30.352,11.791,41.379,7.988v11.258l9.623-2.088-4.726-11.231C289.969,231.212,299.076,211.721,299.076,211.721Z" fill="#82ecff" opacity="0.3"/>
    <path id="Path_700" data-name="Path 700" d="M306.866,205.27l3.008,14.174-15.263-1.74,6.73-13.018Z" fill="#e58672"/>
    <path id="Path_701" data-name="Path 701" d="M381.009,232.113s-38.154,13.821-51.2-28.581l-19.252,8.189s7,16.005,21.3,24.912l-7.226,7.489,8.821,4.17,2.855-9.246C347.471,244.208,362.335,244.649,381.009,232.113Z" fill="#82ecff" opacity="0.3"/>
    <path id="Path_702" data-name="Path 702" d="M306.021,201.677l1.28,15.179-9.3-.962,4.243-14.916Z" fill="#f2a2a9"/>
    <path id="Path_703" data-name="Path 703" d="M259.506,172.27s31.381,41.138,82.813,15.858c0,0-11.528,23.208-47.708,16.726C267.739,200.038,259.506,172.27,259.506,172.27Z" fill="#f2a2a9"/>
    <path id="Path_704" data-name="Path 704" d="M301.039,365.311a.463.463,0,0,1-.132-.019.48.48,0,0,1-.33-.6c4.513-15.734-7.281-20.988-7.786-21.2a.481.481,0,1,1,.378-.884c.13.055,13.086,5.786,8.332,22.354A.479.479,0,0,1,301.039,365.311Z" fill="#fffaef"/>
    <path id="Path_705" data-name="Path 705" d="M305.733,362.552h-.012a.483.483,0,0,1-.47-.493c.373-16.364-12.371-18.451-12.913-18.533a.481.481,0,0,1-.4-.546.49.49,0,0,1,.545-.407c.142.022,14.128,2.276,13.735,19.509A.48.48,0,0,1,305.733,362.552Z" fill="#fffaef"/>
    <path id="Path_706" data-name="Path 706" d="M310.427,360.512a.483.483,0,0,1-.474-.4c-2.754-16.156-16.085-15.733-16.207-15.733a.476.476,0,0,1-.5-.458.482.482,0,0,1,.458-.5c.151-.015,14.3-.465,17.2,16.532a.482.482,0,0,1-.394.556A.454.454,0,0,1,310.427,360.512Z" fill="#fffaef"/>
    <path id="Path_707" data-name="Path 707" d="M292.984,365.628a.481.481,0,0,1-.264-.883c3.3-2.163,5.162-4.84,5.541-7.957.781-6.427-4.987-12.721-5.045-12.783a.481.481,0,1,1,.7-.656c.251.269,6.13,6.676,5.3,13.551-.413,3.414-2.422,6.324-5.97,8.649A.471.471,0,0,1,292.984,365.628Z" fill="#fffaef"/>
    <path id="Path_708" data-name="Path 708" d="M288.585,363.408a.48.48,0,0,1-.18-.925c3.654-1.485,6-3.75,6.976-6.736,2.01-6.155-2.43-13.445-2.475-13.518a.481.481,0,0,1,.817-.507c.194.313,4.722,7.736,2.574,14.32-1.066,3.27-3.6,5.736-7.53,7.331A.467.467,0,0,1,288.585,363.408Z" fill="#fffaef"/>
    <path id="Path_709" data-name="Path 709" d="M282.184,345.466s-6.162-18.938,6.939-17.822,14.6,12.056-.946,21.021Z" fill="#f6bc9f"/>
  </g>
</svg>
