<svg xmlns="http://www.w3.org/2000/svg" width="97.013" height="34.136" viewBox="0 0 97.013 34.136">
  <path id="Path_761" data-name="Path 761" d="M353.433,66.726c-1.232,4.591,22.34,5.07,48.483,5.07S450.4,70.212,450.4,64.35s-9.982-6.654-14.735-3.327c0,0,4.966-9.665-2.667-13.784s-13.811.633-16.346,7.922c0,0,1.268-10.616-4.911-11.883s-8.4,9.032-8.4,9.032-3.169-16.795-11.091-14.418S385.6,49.139,385.6,49.139s-6.813-11.091-12.042-7.289-.158,12.2-.158,12.2-8.556-9.665-12.675-4.753,5.7,12.041,5.7,12.041S355.176,60.23,353.433,66.726Z" transform="translate(-353.387 -37.66)" fill="#fff" opacity="0.39"/>
</svg>
