<svg xmlns="http://www.w3.org/2000/svg" width="82.171" height="82.171" viewBox="0 0 82.171 82.171"><defs><style>.a{fill:#fdc0c5;}.b{fill:#a8d7ff;}.c{fill:#965353;}.d{fill:#844747;}.e{fill:#ffa5ad;}</style></defs><path class="a" d="M126.814,47.407v7.7H96v-7.7a15.407,15.407,0,1,1,30.814,0Z" transform="translate(-80.593 -26.864)"/><path class="b" d="M86.518,176v2.568L69.185,190.123,48,176H86.518Z" transform="translate(-40.296 -147.754)"/><path class="b" d="M86.518,178.568v21.827H48V176l21.185,14.123Z" transform="translate(-40.296 -147.754)"/><path class="c" d="M298.271,335.7v20.543H288V328h10.271Z" transform="translate(-241.779 -275.359)"/><path class="d" d="M320,328v28.246h5.136V328Z" transform="translate(-268.643 -275.359)"/><path class="a" d="M217.036,52.543a3.21,3.21,0,1,0,3.21,3.21A3.211,3.211,0,0,0,217.036,52.543ZM224.1,32h2.568a15.4,15.4,0,0,1,15.407,15.407v32.1H207.407v-32.1A15.4,15.4,0,0,0,192,32h21.827v3.852H224.1Z" transform="translate(-161.186 -26.864)"/><path class="e" d="M394.568,32H392v.231a15.393,15.393,0,0,1,12.839,15.176v32.1h5.136v-32.1A15.4,15.4,0,0,0,394.568,32Z" transform="translate(-329.088 -26.864)"/><path d="M120.1,74.073a1.283,1.283,0,0,1-1.284-1.284v-32.1a14.123,14.123,0,1,0-28.246,0v7.7a1.284,1.284,0,0,1-2.568,0v-7.7a16.691,16.691,0,1,1,33.382,0v32.1A1.283,1.283,0,0,1,120.1,74.073Z" transform="translate(-73.877 -20.148)"/><path d="M315.95,74.073H281.284a1.284,1.284,0,0,1,0-2.568h33.382V40.691a14.14,14.14,0,0,0-14.123-14.123,1.284,1.284,0,0,1,0-2.568,16.71,16.71,0,0,1,16.691,16.691v32.1A1.283,1.283,0,0,1,315.95,74.073Z" transform="translate(-235.063 -20.148)"/><path d="M207.111,26.568H185.284a1.284,1.284,0,0,1,0-2.568h21.827a1.284,1.284,0,0,1,0,2.568Z" transform="translate(-154.47 -20.148)"/><path d="M281.284,350.814A1.283,1.283,0,0,1,280,349.53V321.284a1.284,1.284,0,1,1,2.568,0V349.53A1.283,1.283,0,0,1,281.284,350.814Z" transform="translate(-235.063 -268.643)"/><path d="M345.284,350.814A1.283,1.283,0,0,1,344,349.53V321.284a1.284,1.284,0,0,1,2.568,0V349.53A1.283,1.283,0,0,1,345.284,350.814Z" transform="translate(-288.791 -268.643)"/><path d="M324.494,160.987a4.494,4.494,0,1,1,4.494-4.494A4.5,4.5,0,0,1,324.494,160.987Zm0-6.42a1.926,1.926,0,1,0,1.926,1.926A1.928,1.928,0,0,0,324.494,154.568Z" transform="translate(-268.643 -127.606)"/><path d="M321.284,30.172A1.283,1.283,0,0,1,320,28.888V1.284a1.284,1.284,0,1,1,2.568,0v27.6A1.283,1.283,0,0,1,321.284,30.172Z" transform="translate(-268.643)"/><path d="M331.555,2.568H321.284a1.284,1.284,0,1,1,0-2.568h10.271a1.284,1.284,0,0,1,0,2.568Z" transform="translate(-268.643)"/><path d="M385.284,10.271A1.283,1.283,0,0,1,384,8.987v-7.7a1.284,1.284,0,1,1,2.568,0v7.7A1.283,1.283,0,0,1,385.284,10.271Z" transform="translate(-322.372)"/><path d="M331.555,50.568H321.284a1.284,1.284,0,1,1,0-2.568h10.271a1.284,1.284,0,0,1,0,2.568Z" transform="translate(-268.643 -40.296)"/><path d="M46.221,322.568H1.284a1.284,1.284,0,0,1,0-2.568H46.221a1.284,1.284,0,1,1,0,2.568Z" transform="translate(0 -268.643)"/><path d="M41.284,194.962A1.283,1.283,0,0,1,40,193.678V169.284A1.283,1.283,0,0,1,41.284,168H79.8a1.284,1.284,0,1,1,0,2.568H42.568v23.111A1.283,1.283,0,0,1,41.284,194.962Z" transform="translate(-33.58 -141.038)"/><path d="M62.463,184.69a1.289,1.289,0,0,1-.711-.216L40.567,170.351a1.284,1.284,0,1,1,1.425-2.136l21.185,14.123a1.284,1.284,0,0,1-.714,2.352Z" transform="translate(-33.577 -141.037)"/><path d="M173.281,198.119a1.284,1.284,0,0,1-.714-2.352L189.9,184.212a1.284,1.284,0,0,1,1.425,2.136L173.993,197.9A1.289,1.289,0,0,1,173.281,198.119Z" transform="translate(-144.392 -154.466)"/><path d="M387.852,26.568h-2.568a1.284,1.284,0,1,1,0-2.568h2.568a1.284,1.284,0,1,1,0,2.568Z" transform="translate(-322.372 -20.148)"/><path d="M321.284,407.407A1.283,1.283,0,0,1,320,406.123V393.284a1.284,1.284,0,1,1,2.568,0v12.839A1.283,1.283,0,0,1,321.284,407.407Z" transform="translate(-268.643 -329.088)"/><path d="M321.284,374.42A1.283,1.283,0,0,1,320,373.136,5.141,5.141,0,0,1,325.136,368a1.284,1.284,0,1,1,0,2.568,2.57,2.57,0,0,0-2.568,2.568A1.283,1.283,0,0,1,321.284,374.42Z" transform="translate(-268.643 -308.94)"/></svg>