<svg xmlns="http://www.w3.org/2000/svg" width="48.59" height="33.51" viewBox="0 0 48.59 33.51"><defs><style>.a{fill:#0099df;}.b{fill:#202121;opacity:0.15;}.c{fill:#ea001b;}.d{fill:#f79f1a;}.e{fill:#ff5f01;}.f{fill:#ffc715;}.g{fill:#34495e;}.h{fill:#ffa617;}</style></defs><g transform="translate(0 -79.451)"><path class="a" d="M48.59,110.088a2.872,2.872,0,0,1-2.872,2.872H2.872A2.872,2.872,0,0,1,0,110.088V82.323a2.872,2.872,0,0,1,2.872-2.872H45.718a2.872,2.872,0,0,1,2.872,2.872v27.765Z"/><path class="b" d="M2.042,110.088V82.323a2.872,2.872,0,0,1,2.872-2.872H2.872A2.872,2.872,0,0,0,0,82.323v27.765a2.872,2.872,0,0,0,2.872,2.872H4.915A2.873,2.873,0,0,1,2.042,110.088Z"/><path class="c" d="M269.239,182.575a5.442,5.442,0,0,1,2.021-4.237,5.452,5.452,0,1,0,0,8.474A5.44,5.44,0,0,1,269.239,182.575Z" transform="translate(-237.477 -88.402)"/><path class="d" d="M359.415,177.123a5.43,5.43,0,0,0-3.431,1.215,5.452,5.452,0,0,1,0,8.474,5.452,5.452,0,1,0,3.431-9.689Z" transform="translate(-322.2 -88.403)"/><path class="e" d="M338.729,194.165a5.441,5.441,0,0,0-2.021-4.237,5.452,5.452,0,0,0,0,8.474A5.441,5.441,0,0,0,338.729,194.165Z" transform="translate(-302.925 -99.993)"/><path class="f" d="M70.537,190.637a.694.694,0,0,1-.694.694H61.238a.693.693,0,0,1-.694-.694V183.93a.693.693,0,0,1,.694-.693h8.606a.694.694,0,0,1,.694.693v6.706Z" transform="translate(-54.798 -93.936)"/><g transform="translate(4.953 101.749)"><path class="g" d="M63.075,315.994H52.987a.792.792,0,0,1,0-1.585H63.075a.792.792,0,0,1,0,1.585Z" transform="translate(-52.195 -314.41)"/><path class="g" d="M63.075,350.808H52.987a.792.792,0,0,1,0-1.585H63.075a.792.792,0,0,1,0,1.585Z" transform="translate(-52.195 -345.919)"/></g><g transform="translate(5.746 89.3)"><path class="h" d="M63.233,191.33h1.584v-8.094H63.233v1.905h-2.69v1.584h2.69v1.114h-2.69v1.584h2.69v1.906Z" transform="translate(-60.543 -183.236)"/><path class="h" d="M127.975,186.726h.792v-1.584h-2.3v-1.905H124.88v5.4a.792.792,0,0,0,.792.792h3.1V187.84h-2.3v-1.114Z" transform="translate(-118.774 -183.236)"/></g><path class="b" d="M62,190.637V183.93a.693.693,0,0,1,.694-.693H61.238a.693.693,0,0,0-.694.693v6.706a.693.693,0,0,0,.694.694H62.7A.693.693,0,0,1,62,190.637Z" transform="translate(-54.798 -93.936)"/></g></svg>