<svg xmlns="http://www.w3.org/2000/svg" width="169.478" height="162.293" viewBox="0 0 169.478 162.293"><defs><style>.a{fill:#ae7b51;}.b{fill:#f2c894;}.c{fill:#af8b58;}.d{fill:#d6feff;}.e{fill:#7dd0ff;}.f{fill:#e1e4fb;}.g{fill:#ccedff;}.h{fill:#c5c9f7;}</style></defs><g transform="matrix(0.978, 0.208, -0.208, 0.978, 7.12, -21.763)"><path class="a" d="M245.166,343.191l-6.957,6.957a4.919,4.919,0,0,1-6.957-6.957l6.957-6.957a4.923,4.923,0,0,0,0-6.957l-6.4-6.4a4.919,4.919,0,0,1,6.957-6.957l6.4,6.4A14.774,14.774,0,0,1,245.166,343.191Z" transform="translate(-140.288 -214.335)"/><path class="a" d="M206.573,398.719h0a9.839,9.839,0,0,1-13.914,0l-34.786-34.786,13.914-13.915L206.573,384.8A9.839,9.839,0,0,1,206.573,398.719Z" transform="translate(-91.259 -238.555)"/><path class="b" d="M66.334,261.753,87.9,283.321l-.417,13.5-24.35,24.35a14.907,14.907,0,0,1-21.011-.139L28.209,307.114a14.634,14.634,0,0,1,.139-20.733L52.7,262.031Z" transform="translate(0 -178.398)"/><path class="c" d="M101.3,295.4l10.853,10.853-.417,13.5L87.387,344.1a14.907,14.907,0,0,1-21.011-.139l-6.818-6.818Z" transform="translate(-24.253 -201.33)"/><g transform="translate(122.554 0)"><path class="d" d="M338.46,19.679a4.918,4.918,0,0,1-4.919-4.919l0-9.841a4.919,4.919,0,1,1,9.838,0l0,9.841A4.917,4.917,0,0,1,338.46,19.679Z" transform="translate(-333.538 0)"/><path class="d" d="M440.99,133.429l-9.841,0a4.919,4.919,0,0,1,0-9.838l9.841,0a4.919,4.919,0,1,1,0,9.838Z" transform="translate(-396.712 -84.232)"/><path class="d" d="M412.46,30.1a4.871,4.871,0,0,1,0,6.957L402.024,47.5a4.919,4.919,0,0,1-6.957-6.957L405.5,30.1A4.871,4.871,0,0,1,412.46,30.1Z" transform="translate(-374.477 -19.521)"/></g><path class="e" d="M162.877,53.791l48.7,48.7c1.392,1.392,3.131,16.071,4.939,16.35l-13.705,2.853c-20.315,4.035-39.587,15.236-52.667,28.316l-1.183,1.183-34.787-34.787,1.183-1.183a103.387,103.387,0,0,0,28.107-52.876l2.852-14.262Z" transform="translate(-61.478 -32.773)"/><path class="f" d="M114.04,335.967a4.871,4.871,0,0,1,0,6.957l-6.957,6.957a4.919,4.919,0,0,1-6.957-6.957l6.957-6.957A4.872,4.872,0,0,1,114.04,335.967Z" transform="translate(-50.906 -227.983)"/><path class="g" d="M224.454,142.467l24.35,24.35c1.392,1.392,3.131,16.071,4.939,16.35l-13.705,2.853c-20.315,4.035-39.587,15.236-52.667,28.316l-1.183,1.183L168.8,198.125Z" transform="translate(-98.704 -97.099)"/><path class="h" d="M117.167,339.094a4.871,4.871,0,0,1,0,6.957l-6.957,6.957a4.872,4.872,0,0,1-6.957,0Z" transform="translate(-54.033 -231.11)"/><path class="b" d="M231.49,16.165,294.105,78.78a9.868,9.868,0,0,1,0,13.915,5.743,5.743,0,0,1-1.531.974,9.192,9.192,0,0,1-7.444,1.461,8.764,8.764,0,0,1-4.939-2.435L217.575,30.079a9.649,9.649,0,0,1-2.644-5.705,9.734,9.734,0,0,1,1.183-6.053,11.725,11.725,0,0,1,1.461-2.157A9.869,9.869,0,0,1,231.49,16.165Z" transform="translate(-130.09 -9.061)"/><path class="c" d="M335.641,120.62l31.308,31.308a9.868,9.868,0,0,1,0,13.915,5.741,5.741,0,0,1-1.531.974,9.192,9.192,0,0,1-7.444,1.461,8.764,8.764,0,0,1-4.939-2.435l-31.308-31.308Z" transform="translate(-202.934 -82.209)"/></g></svg>