<svg xmlns="http://www.w3.org/2000/svg" width="123.47" height="104.961" viewBox="0 0 123.47 104.961">
  <g id="Group_1379" data-name="Group 1379" transform="translate(-1284.846 -1257.126)">
    <g id="Group_1371" data-name="Group 1371" transform="matrix(0.839, -0.545, 0.545, 0.839, 577.996, 1317.074)">
      <path id="Path_2823" data-name="Path 2823" d="M706.433,407.063a2.81,2.81,0,0,1-3.029-1.581c-2.172-3.781-4.353-7.567-6.3-11.468-1.1-2.212-.87-2.513,1.3-3.759a40.932,40.932,0,0,1,19.62-5.827c5.109-.126,8.775,2.342,11.482,6.452a12.287,12.287,0,0,1,2.363,8.523,9.371,9.371,0,0,1-2.2,4.9c-2.466,3.017-5.727,5.022-9,6.953-2.319,1.366-4.834,2.392-7.258,3.58a3.01,3.01,0,0,1-4.04-.832c-1.089-1.348-2.109-2.751-3.352-4.383a5.581,5.581,0,0,0,3.436-5.509c1.885-.153,3.545-.189,5.165-.451a12.049,12.049,0,0,0,3.347-1.063c2.678-1.32,3.294-3.692,1.764-6.315a4.936,4.936,0,0,0-6.09-2.223c-3.059.977-4.605,3.225-5.372,6.14-.425,1.608-.656,3.265-1.045,4.882A14.686,14.686,0,0,1,706.433,407.063Z" transform="translate(-36.973 -1.149)" fill="#f2c894" fill-rule="evenodd"/>
      <path id="Path_2824" data-name="Path 2824" d="M657.262,390.853c.027-1.848,1.475-2.867,3.118-3.536,4.186-1.7,8.357-3.5,12.669-4.818a35.813,35.813,0,0,1,8.452-1.2c5.538-.3,9.513,2.608,12.635,6.827a13.7,13.7,0,0,1,3.03,7.625,11.171,11.171,0,0,1-4.235,9.88,97.741,97.741,0,0,1-8.96,6.253,50.383,50.383,0,0,1-6.631,3.235,6.5,6.5,0,0,1-4.621.6,3.377,3.377,0,0,0-1.991.422c-4.083,1.741-8.094,3.658-12.23,5.261-3.9,1.511-7.927,2.7-11.9,4.042-2.021.682-4.029,1.419-6.062,2.066-1.652.525-3.335.959-5.006,1.421s-3.359.862-5.017,1.371c-6.9,2.118-14.011,3.282-21.065,4.7A13.451,13.451,0,0,1,597,431.228c-2.13-2.046-2.659-6.028.1-9.356a43.462,43.462,0,0,1,10.424-8.965c3.691-2.32,7.34-4.723,11.152-6.825a100.883,100.883,0,0,1,9.473-4.393c3.361-1.422,6.788-2.69,10.2-3.992q7.1-2.712,14.23-5.362C654.06,391.79,655.583,391.38,657.262,390.853Zm1.068,3.046a74.955,74.955,0,0,0-13.952,4.567c-3.569,1.532-7.157,3.052-10.825,4.324a110.837,110.837,0,0,0-13.246,5.273,105.865,105.865,0,0,0-13.3,7.794,70.335,70.335,0,0,0-5.989,5.219,20.684,20.684,0,0,1,3.637.495c5.473,1.8,6.793,6.179,3.085,10.95a37.652,37.652,0,0,0,3.93-.465c4.57-1.041,9.134-2.108,13.676-3.269,3.615-.924,7.145-2.252,10.8-2.958,9.97-1.927,19.338-5.685,28.794-9.179a43.321,43.321,0,0,0,4.9-2.52C666.138,407.105,660.848,401.427,658.329,393.9Zm11.13,12.015a14.684,14.684,0,0,0,.786-1.981c.389-1.617.62-3.274,1.045-4.882.767-2.914,2.313-5.163,5.372-6.14a4.937,4.937,0,0,1,6.09,2.223c1.531,2.623.915,5-1.763,6.315a12.049,12.049,0,0,1-3.347,1.063c-1.619.262-3.279.3-5.165.451a5.581,5.581,0,0,1-3.436,5.509c1.243,1.631,2.264,3.034,3.352,4.383a3.01,3.01,0,0,0,4.04.832c2.424-1.188,4.939-2.214,7.258-3.58,3.278-1.931,6.539-3.936,9-6.953a9.371,9.371,0,0,0,2.2-4.9,12.287,12.287,0,0,0-2.363-8.523c-2.707-4.11-6.373-6.578-11.482-6.452a40.932,40.932,0,0,0-19.62,5.827c-2.165,1.247-2.4,1.548-1.295,3.759,1.944,3.9,4.126,7.686,6.3,11.468A2.81,2.81,0,0,0,669.459,405.914Zm-62.423,24.324a4.9,4.9,0,0,0,.741-2.241,4.63,4.63,0,0,0-3.206-3.779,4.045,4.045,0,0,0-4.605.827c-1.281,1.273-1.513,3.2-.347,4.2a13.428,13.428,0,0,0,3.174,2.015C604.093,431.836,605.42,431.612,607.037,430.239Zm66.014-29.371a15.637,15.637,0,0,0,6.761-.814,2.866,2.866,0,0,0,1.292-.946,3.511,3.511,0,0,0-.638-3.528c-1.141-.969-2-1.48-3.407-.806C674.615,395.95,673.661,398.071,673.051,400.867Z" fill="#6796ad" fill-rule="evenodd"/>
    </g>
    <g id="Group_1372" data-name="Group 1372" transform="translate(824.08 771.059) rotate(14)">
      <path id="Path_2823-2" data-name="Path 2823" d="M706.433,407.063a2.81,2.81,0,0,1-3.029-1.581c-2.172-3.781-4.353-7.567-6.3-11.468-1.1-2.212-.87-2.513,1.3-3.759a40.932,40.932,0,0,1,19.62-5.827c5.109-.126,8.775,2.342,11.482,6.452a12.287,12.287,0,0,1,2.363,8.523,9.371,9.371,0,0,1-2.2,4.9c-2.466,3.017-5.727,5.022-9,6.953-2.319,1.366-4.834,2.392-7.258,3.58a3.01,3.01,0,0,1-4.04-.832c-1.089-1.348-2.109-2.751-3.352-4.383a5.581,5.581,0,0,0,3.436-5.509c1.885-.153,3.545-.189,5.165-.451a12.049,12.049,0,0,0,3.347-1.063c2.678-1.32,3.294-3.692,1.764-6.315a4.936,4.936,0,0,0-6.09-2.223c-3.059.977-4.605,3.225-5.372,6.14-.425,1.608-.656,3.265-1.045,4.882A14.686,14.686,0,0,1,706.433,407.063Z" transform="translate(-36.973 -1.149)" fill="#7dc3ff" fill-rule="evenodd"/>
      <path id="Path_2824-2" data-name="Path 2824" d="M657.262,390.853c.027-1.848,1.475-2.867,3.118-3.536,4.186-1.7,8.357-3.5,12.669-4.818a35.813,35.813,0,0,1,8.452-1.2c5.538-.3,9.513,2.608,12.635,6.827a13.7,13.7,0,0,1,3.03,7.625,11.171,11.171,0,0,1-4.235,9.88,97.741,97.741,0,0,1-8.96,6.253,50.383,50.383,0,0,1-6.631,3.235,6.5,6.5,0,0,1-4.621.6,3.377,3.377,0,0,0-1.991.422c-4.083,1.741-8.094,3.658-12.23,5.261-3.9,1.511-7.927,2.7-11.9,4.042-2.021.682-4.029,1.419-6.062,2.066-1.652.525-3.335.959-5.006,1.421s-3.359.862-5.017,1.371c-6.9,2.118-14.011,3.282-21.065,4.7A13.451,13.451,0,0,1,597,431.228c-2.13-2.046-2.659-6.028.1-9.356a43.462,43.462,0,0,1,10.424-8.965c3.691-2.32,7.34-4.723,11.152-6.825a100.883,100.883,0,0,1,9.473-4.393c3.361-1.422,6.788-2.69,10.2-3.992q7.1-2.712,14.23-5.362C654.06,391.79,655.583,391.38,657.262,390.853Zm1.068,3.046a74.955,74.955,0,0,0-13.952,4.567c-3.569,1.532-7.157,3.052-10.825,4.324a110.837,110.837,0,0,0-13.246,5.273,105.865,105.865,0,0,0-13.3,7.794,70.335,70.335,0,0,0-5.989,5.219,20.684,20.684,0,0,1,3.637.495c5.473,1.8,6.793,6.179,3.085,10.95a37.652,37.652,0,0,0,3.93-.465c4.57-1.041,9.134-2.108,13.676-3.269,3.615-.924,7.145-2.252,10.8-2.958,9.97-1.927,19.338-5.685,28.794-9.179a43.321,43.321,0,0,0,4.9-2.52C666.138,407.105,660.848,401.427,658.329,393.9Zm11.13,12.015a14.684,14.684,0,0,0,.786-1.981c.389-1.617.62-3.274,1.045-4.882.767-2.914,2.313-5.163,5.372-6.14a4.937,4.937,0,0,1,6.09,2.223c1.531,2.623.915,5-1.763,6.315a12.049,12.049,0,0,1-3.347,1.063c-1.619.262-3.279.3-5.165.451a5.581,5.581,0,0,1-3.436,5.509c1.243,1.631,2.264,3.034,3.352,4.383a3.01,3.01,0,0,0,4.04.832c2.424-1.188,4.939-2.214,7.258-3.58,3.278-1.931,6.539-3.936,9-6.953a9.371,9.371,0,0,0,2.2-4.9,12.287,12.287,0,0,0-2.363-8.523c-2.707-4.11-6.373-6.578-11.482-6.452a40.932,40.932,0,0,0-19.62,5.827c-2.165,1.247-2.4,1.548-1.295,3.759,1.944,3.9,4.126,7.686,6.3,11.468A2.81,2.81,0,0,0,669.459,405.914Zm-62.423,24.324a4.9,4.9,0,0,0,.741-2.241,4.63,4.63,0,0,0-3.206-3.779,4.045,4.045,0,0,0-4.605.827c-1.281,1.273-1.513,3.2-.347,4.2a13.428,13.428,0,0,0,3.174,2.015C604.093,431.836,605.42,431.612,607.037,430.239Zm66.014-29.371a15.637,15.637,0,0,0,6.761-.814,2.866,2.866,0,0,0,1.292-.946,3.511,3.511,0,0,0-.638-3.528c-1.141-.969-2-1.48-3.407-.806C674.615,395.95,673.661,398.071,673.051,400.867Z" fill="#6796ad" fill-rule="evenodd"/>
    </g>
  </g>
</svg>
