<svg xmlns="http://www.w3.org/2000/svg" width="58.005" height="65.457" viewBox="0 0 58.005 65.457"><defs><style>.a{opacity:0.83;}.b{fill:#fff;}.c{fill:#ffdda1;}.d{fill:#246789;}</style></defs><g class="a" transform="translate(-48.867 -282.525)"><path class="b" d="M105.928,331.618V298.89L77.585,282.526,49.241,298.89v32.728l28.343,16.364Z" transform="translate(0.284 0)"/><path class="c" d="M49.241,291.834l25.665,14.08a5.164,5.164,0,0,1,2.679,4.527v30.486L49.241,324.563Z" transform="translate(0.283 7.056)"/><g transform="translate(48.867 282.525)"><path class="d" d="M77.869,347.982a4.9,4.9,0,0,1-2.454-.656l-24.1-13.909a4.926,4.926,0,0,1-2.452-4.253v-27.82a4.921,4.921,0,0,1,2.452-4.251l24.1-13.911a4.906,4.906,0,0,1,4.908,0l24.093,13.908a4.934,4.934,0,0,1,2.456,4.253v27.82a4.925,4.925,0,0,1-2.456,4.253L80.323,347.328A4.921,4.921,0,0,1,77.869,347.982Zm0-64.137a3.585,3.585,0,0,0-1.795.478l-24.1,13.911a3.6,3.6,0,0,0-1.793,3.11v27.82a3.6,3.6,0,0,0,1.793,3.108l24.1,13.913a3.592,3.592,0,0,0,3.59,0l24.093-13.913a3.6,3.6,0,0,0,1.8-3.108v-27.82a3.609,3.609,0,0,0-1.8-3.112L79.664,284.325A3.569,3.569,0,0,0,77.869,283.845Z" transform="translate(-48.867 -282.525)"/></g><g transform="translate(80.034 299.811)"><path class="d" d="M67.255,306.723a.659.659,0,0,1-.329-1.231l22.759-13.046a.66.66,0,0,1,.656,1.144L67.584,306.637A.657.657,0,0,1,67.255,306.723Z" transform="translate(-66.596 -292.358)"/></g><g transform="translate(60.356 289.77)"><path class="d" d="M57.6,295.172c2.641-.846,15.66-6.531,19.324-7.936a2.791,2.791,0,0,1,2.655-.4c1.132.54.788,1.16.359,1.92a5.9,5.9,0,0,0-.417.832c-1.424,4.221-3.331,8.417-5.118,13.029l-.054.359a2.325,2.325,0,0,1-.643,1.593,2.183,2.183,0,0,1-2.507.332c-.858-.408-.972-1.123-.464-1.693.742-1.876,1.322-3.265,1.927-4.738-.25-.12-.73-.36-1.28-.65-1.823-.868-3.588-1.805-5.932-2.813-.178-.07-.353-.141-.52-.22-2.686,1.2-4.956,2.234-5.889,2.711l.011-.009a2.663,2.663,0,0,1-2.827.276c-.846-.4-1.118-1.041-.427-1.661A4.148,4.148,0,0,1,57.6,295.172Zm16.072.819c.615-1.549,1.336-3.421,2.321-6.021-2.089.89-4.979,2.141-7.795,3.372C68.863,293.66,70.174,294.3,73.669,295.992Z" transform="translate(-55.402 -286.646)"/></g><g transform="translate(85.893 311.329)"><path class="d" d="M70.1,321.638c.076-3.792,0-7.524-.012-14.611l-.151-1.744c0-1.521.213-1.974,1.429-2.579.828-.4,1.656-.83,2.484-1.273s1.668-.932,2.547-1.357c1.781-.865,6.5-3.115,6.5,2.646a9.355,9.355,0,0,1-1.693,4.9,2.954,2.954,0,0,1,1.781.427,3.649,3.649,0,0,1,1.231,2.781c0,6.016-3.651,8.516-8.532,10.884a25.68,25.68,0,0,1-3.312,1.245,3.324,3.324,0,0,1-.853.563c-.9.438-1.468.4-1.568-.3A5.678,5.678,0,0,1,70.1,321.638Zm6.36-3.087c2.282-1.109,4.98-2.809,4.98-5.905,0-2.544-2.059-2.379-3.375-1.739-1.153.559-2.3,1.208-5.181,2.635,0,4.293.012,5.351.012,6.441A20.021,20.021,0,0,0,76.457,318.551Zm-1.77-8.47c3.978-1.93,5.4-3.143,5.4-5.861,0-2.275-1.116-2.568-3.739-1.3-.489.239-1.529.744-3.449,1.756v.026c0,.028.012.049.012.088.025,1.832.012,3.723-.012,5.821v.176A18.607,18.607,0,0,0,74.687,310.08Z" transform="translate(-69.928 -298.91)"/></g><g transform="translate(53.92 311.959)"><path class="d" d="M60.695,299.871a14.791,14.791,0,0,1,3.81,2.254c.754.6,1.577,1.143,1.577,2.259,0,1.28-.8,1.35-1.413,1.115a4.7,4.7,0,0,1-1.449-1.241,8.142,8.142,0,0,0-2.792-1.58c-2.9-1.109-6.091-.019-6.091,5.351,0,5.961,3.219,9.309,6.23,10.462a5.791,5.791,0,0,0,3.244.436,1.248,1.248,0,0,1,1.229-.244,1.89,1.89,0,0,1,1.3,1.911c0,.74-.417,1.2-1.389,1.366v-.014a8.6,8.6,0,0,1-4.274-.506c-5.677-2.175-8.931-8.4-8.931-13.987C51.741,299.713,56.386,298.22,60.695,299.871Z" transform="translate(-51.741 -299.268)"/></g></g></svg>