<svg xmlns="http://www.w3.org/2000/svg" width="143.2" height="158.233" viewBox="0 0 143.2 158.233"><defs><style>.a,.d{fill:#fff;}.b{fill:#246789;}.c{fill:#a4f4fc;}.d{stroke:#246789;stroke-linecap:round;stroke-linejoin:round;stroke-width:0.75px;}.e{fill:#ffdda1;}</style></defs><g transform="matrix(0.985, -0.174, 0.174, 0.985, -208.888, -14.561)"><g transform="translate(250.373 153.641)"><path class="a" d="M261.636,160.462l-32.424-43.9a2.411,2.411,0,0,1,3.879-2.864l32.424,43.9a2.411,2.411,0,0,1-3.879,2.864Z" transform="translate(-228.74 -112.719)"/></g><g transform="translate(249.707 152.974)"><path class="b" d="M263.87,162.4a3.076,3.076,0,0,1-2.48-1.247l-32.424-43.9a3.076,3.076,0,1,1,4.948-3.654l15.833,21.435a.665.665,0,1,1-1.07.791l-15.833-21.436a1.738,1.738,0,0,0-1.144-.688,1.745,1.745,0,0,0-1.664,2.763l32.424,43.9a1.745,1.745,0,1,0,2.808-2.073l-13.247-17.937a.665.665,0,1,1,1.071-.789l13.247,17.935a3.073,3.073,0,0,1-2.471,4.9Z" transform="translate(-228.365 -112.343)"/></g><path class="a" d="M283.629,133.572H231.985a22.322,22.322,0,0,1-20.539-13.581L201.154,95.8H308a4.274,4.274,0,0,1,3.932,5.947l-7.763,18.24A22.322,22.322,0,0,1,283.629,133.572Z" transform="translate(0.291 27.835)"/><g transform="translate(229.571 197.57)"><path class="a" d="M274,142.308H219.422a2.41,2.41,0,1,1,0-4.821H274a2.41,2.41,0,1,1,0,4.821Z" transform="translate(-217.012 -137.487)"/></g><g transform="translate(228.906 196.905)"><path class="b" d="M274.289,143.263H219.713a3.076,3.076,0,1,1,0-6.151h29.9a.665.665,0,0,1,0,1.33h-29.9a1.745,1.745,0,1,0,0,3.491h54.577a1.745,1.745,0,1,0,0-3.491H256.147a.665.665,0,1,1,0-1.33h18.143a3.076,3.076,0,1,1,0,6.151Z" transform="translate(-216.637 -137.112)"/></g><path class="c" d="M211.447,119.991a22.322,22.322,0,0,0,20.539,13.581h35.978c-5.821-3.333-12.064-7.692-15.647-12.589-8.036-10.982-.536-24.375-.536-24.375l-2.159-.8H201.154Z" transform="translate(0.291 27.835)"/><g transform="translate(200.779 122.974)"><path class="b" d="M283.919,134.527H232.276a23.066,23.066,0,0,1-16.8-7.3.664.664,0,0,1,.972-.906,21.736,21.736,0,0,0,15.826,6.871h51.643a21.626,21.626,0,0,0,19.929-13.176l7.763-18.24a3.61,3.61,0,0,0-3.322-5.021H202.45l7.045,16.557a.664.664,0,1,1-1.222.521l-7.44-17.483a.665.665,0,0,1,.61-.926H308.289a4.937,4.937,0,0,1,4.544,6.873l-7.763,18.24A22.952,22.952,0,0,1,283.919,134.527Z" transform="translate(-200.779 -95.429)"/></g><path class="a" d="M307.6,78.12h-16a2.409,2.409,0,0,0-2.233,1.511L217,182.442a2.41,2.41,0,1,0,3.8,2.966L292.928,82.943H307.6a2.411,2.411,0,0,0,0-4.823Z" transform="translate(12.155 14.154)"/><circle class="a" cx="13.928" cy="13.928" r="13.928" transform="translate(272.631 186.053)"/><g transform="translate(278.728 192.15)"><path class="b" d="M252.558,150.092a7.831,7.831,0,1,1,7.832-7.831A7.839,7.839,0,0,1,252.558,150.092Zm0-14.331a6.5,6.5,0,1,0,6.5,6.5A6.508,6.508,0,0,0,252.558,135.761Z" transform="translate(-244.727 -134.431)"/></g><g transform="translate(227.978 114.807)"><path class="b" d="M219.179,177.169a3.073,3.073,0,0,1-2.414-4.964l36.245-51.493a.665.665,0,1,1,1.087.766L217.833,173a1.746,1.746,0,1,0,2.733,2.173L279.74,91.106a.665.665,0,1,1,1.087.766l-59.192,84.09A3.108,3.108,0,0,1,219.179,177.169Z" transform="translate(-216.114 -90.824)"/></g><g transform="translate(273.934 91.611)"><path class="b" d="M242.689,118.836a.658.658,0,0,1-.383-.121.667.667,0,0,1-.161-.928L269.07,79.537a2.967,2.967,0,0,1,2.776-1.791h16a3.076,3.076,0,1,1,0,6.151H273.517l-3.781,5.374a.666.666,0,0,1-1.089-.766l3.982-5.656a.661.661,0,0,1,.543-.282h14.677a1.745,1.745,0,1,0,0-3.491h-16a1.737,1.737,0,0,0-1.616,1.093l-27,38.385A.662.662,0,0,1,242.689,118.836Z" transform="translate(-242.024 -77.746)"/></g><path class="a" d="M201.154,108.423h0a35.762,35.762,0,0,0,1.066-25.792l-1.066-3.138,56.251,28.93Z" transform="translate(0.291 15.216)"/><path class="a" d="M201.154,91.335l4.6-3.581A38.18,38.18,0,0,0,218.344,70.2l2.1-6.011,36.965,56.079Z" transform="translate(0.291 3.374)"/><path class="a" d="M248.993,123.35,244.172,60.2h0a47.108,47.108,0,0,1-30.712,7.231l-1.431-.16Z" transform="translate(8.703 0.29)"/><path class="d" d="M238.277,96.868a4.127,4.127,0,1,1-4.127-4.127A4.128,4.128,0,0,1,238.277,96.868Z" transform="translate(22.624 25.466)"/><circle class="a" cx="13.928" cy="13.928" r="13.928" transform="translate(218.055 186.053)"/><g transform="translate(224.151 192.15)"><path class="b" d="M221.787,150.092a7.832,7.832,0,1,1,7.831-7.831.665.665,0,1,1-1.33,0,6.5,6.5,0,0,0-6.5-6.5,6.5,6.5,0,0,0-6.5,6.5,6.432,6.432,0,0,0,2.059,4.745,6.6,6.6,0,0,0,7.261,1.114.666.666,0,1,1,.578,1.2A7.771,7.771,0,0,1,221.787,150.092Z" transform="translate(-213.956 -134.431)"/></g><path class="d" d="M238.277,119.049a4.127,4.127,0,1,1-4.127-4.127A4.128,4.128,0,0,1,238.277,119.049Z" transform="translate(22.624 42.626)"/><path class="e" d="M252.584,60.2s-.536,20.024-7.233,21.9-24.911-14.828-24.911-14.828,13.393,26.346,9.643,29.024-28.93-1.875-28.93-1.875,26.252,16.073,23.84,21.429-23.84,7.5-23.84,7.5h56.251Z" transform="translate(0.291 0.29)"/><g transform="translate(200.778 94.044)"><path class="b" d="M257.7,109.378H201.443a.666.666,0,0,1-.608-.931,35.415,35.415,0,0,0,2.229-7.086.664.664,0,1,1,1.3.261,36.358,36.358,0,0,1-1.923,6.426h52.505L202.6,81.128l.536,1.58a.665.665,0,0,1-1.259.427L200.813,80a.665.665,0,0,1,.935-.805L258,108.121a.666.666,0,0,1-.305,1.258Z" transform="translate(-200.778 -79.118)"/></g><g transform="translate(200.778 66.897)"><path class="b" d="M257.7,121.22a.673.673,0,0,1-.305-.074L201.14,92.217a.666.666,0,0,1-.1-1.117l4.6-3.581a.665.665,0,0,1,.818,1.05l-3.776,2.941L255.747,118.8,220.918,65.965l-1.653,4.741a.666.666,0,0,1-1.258-.438l2.1-6.011a.667.667,0,0,1,1.185-.147l36.965,56.077a.666.666,0,0,1-.557,1.032Z" transform="translate(-200.778 -63.812)"/></g><g transform="translate(239.933 59.825)"><path class="b" d="M237.689,85.941a.665.665,0,0,1-.663-.614L235.216,61.64a47.755,47.755,0,0,1-11.511,5.1.665.665,0,0,1-.374-1.277,46.332,46.332,0,0,0,12.1-5.536.675.675,0,0,1,.658-.037.668.668,0,0,1,.367.546l1.892,24.787a.665.665,0,0,1-.614.713Z" transform="translate(-222.854 -59.825)"/></g><g transform="translate(220.067 66.897)"><path class="b" d="M249.282,121.22a.665.665,0,0,1-.555-.3L211.763,64.843a.665.665,0,0,1,.628-1.027l1.431.158a46.494,46.494,0,0,0,9.2.1.656.656,0,0,1,.722.6.667.667,0,0,1-.6.722,47.793,47.793,0,0,1-9.462-.106l-.023,0,34.771,52.75-1.321-17.32a.665.665,0,1,1,1.327-.1l1.516,19.879a.667.667,0,0,1-.449.681A.7.7,0,0,1,249.282,121.22Z" transform="translate(-211.653 -63.812)"/></g><path class="a" d="M238.277,96.868a4.127,4.127,0,1,1-4.127-4.127A4.128,4.128,0,0,1,238.277,96.868Z" transform="translate(22.624 25.466)"/><g transform="translate(251.981 117.542)"><path class="b" d="M234.439,101.951a4.792,4.792,0,1,1,4.792-4.794A4.8,4.8,0,0,1,234.439,101.951Zm0-8.255a3.462,3.462,0,1,0,3.462,3.46A3.465,3.465,0,0,0,234.439,93.7Z" transform="translate(-229.647 -92.366)"/></g><g transform="translate(271.965 185.387)"><path class="b" d="M246.719,156.682a.671.671,0,0,1-.422-.149,14.6,14.6,0,0,1,14.892-24.767.666.666,0,0,1-.52,1.226A13.265,13.265,0,0,0,247.139,155.5a.664.664,0,0,1-.42,1.18Z" transform="translate(-240.914 -130.618)"/></g><g transform="translate(282.918 211.041)"><path class="b" d="M250.73,148.615a14.686,14.686,0,0,1-3.118-.335.664.664,0,0,1,.284-1.3,13.378,13.378,0,0,0,8.395-.915,13.6,13.6,0,0,0,1.6-.88.665.665,0,0,1,.717,1.121,14.963,14.963,0,0,1-1.763.967A14.481,14.481,0,0,1,250.73,148.615Z" transform="translate(-247.089 -145.082)"/></g><g transform="translate(295.695 189.619)"><path class="b" d="M254.958,153.926a.663.663,0,0,1-.466-1.137,13.264,13.264,0,0,0,.186-18.657.665.665,0,0,1,.956-.926,14.594,14.594,0,0,1-.208,20.528A.663.663,0,0,1,254.958,153.926Z" transform="translate(-254.293 -133.004)"/></g><g transform="translate(226.631 185.387)"><path class="b" d="M220.7,159.805a14.93,14.93,0,0,1-1.992-.135.666.666,0,0,1,.181-1.32,13.263,13.263,0,1,0-2.65-25.633.665.665,0,1,1-.447-1.252,14.6,14.6,0,1,1,4.908,28.339Z" transform="translate(-215.354 -130.618)"/></g><g transform="translate(217.39 188.22)"><path class="b" d="M216.275,155.7a.662.662,0,0,1-.4-.137,14.6,14.6,0,0,1,.041-23.215.666.666,0,0,1,.807,1.059,13.415,13.415,0,0,0-2.565,2.566,13.259,13.259,0,0,0-.834,14.757,13.325,13.325,0,0,0,3.358,3.778.663.663,0,0,1-.4,1.192Z" transform="translate(-210.144 -132.215)"/></g></g></svg>