<svg xmlns="http://www.w3.org/2000/svg" width="125.225" height="138.812" viewBox="0 0 125.225 138.812"><defs><style>.a{opacity:0.89;}.b{fill:#fff;}.c{fill:#a4f4fc;}.d{fill:#246789;}.e{fill:#ffdda1;}</style></defs><g class="a" transform="matrix(0.695, -0.719, 0.719, 0.695, -175.852, -67.255)"><path class="b" d="M91.278,242.164H87.072a10.988,10.988,0,0,1-10.989-10.987V213.889H28.6v35.4a24.041,24.041,0,0,0,24.041,24.041H92.159a15.583,15.583,0,0,0,15.561-16.418C107.278,248.482,99.715,242.164,91.278,242.164Z" transform="translate(6.459 2.51)"/><path class="c" d="M82.94,263.464C73.923,247.4,59.548,250.5,49.966,242.046s-2.818-26.493-2.818-26.493l.184-1.665H28.6v35.4a24.041,24.041,0,0,0,24.041,24.041H88.173C86.852,270.618,85.134,267.37,82.94,263.464Z" transform="translate(6.459 2.509)"/><g transform="translate(34.313 215.844)"><path class="d" d="M92.526,274.346H53a24.813,24.813,0,0,1-24.784-24.784V214.7a.743.743,0,0,1,1.485,0v34.862a23.325,23.325,0,0,0,23.3,23.3H92.526a14.839,14.839,0,0,0,14.819-15.64c-.406-7.74-7.447-14.04-15.7-14.04H87.44a11.743,11.743,0,0,1-11.732-11.73v-17.1a.743.743,0,0,1,1.485,0v17.1A10.257,10.257,0,0,0,87.44,241.7h4.206c9.029,0,16.737,6.93,17.183,15.448a16.325,16.325,0,0,1-16.3,17.2Z" transform="translate(-28.221 -213.609)"/></g><ellipse class="c" cx="23.744" cy="4.287" rx="23.744" ry="4.287" transform="translate(35.055 212.07)"/><path class="b" d="M40.846,220.234c13.114,0,23.744-1.919,23.744-4.287,0-2.075-8.158-3.8-19-4.2a17.772,17.772,0,0,0-5.271,8.484C40.5,220.23,40.67,220.234,40.846,220.234Z" transform="translate(17.952 0.41)"/><g transform="translate(22.005 254.92)"><path class="b" d="M85.062,263.807H80.856a10.99,10.99,0,0,1-10.989-10.989V235.53H22.38v35.4A24.041,24.041,0,0,0,46.421,294.97H85.945A15.583,15.583,0,0,0,101.5,278.55C101.062,270.125,93.5,263.807,85.062,263.807Z" transform="translate(-21.637 -231.202)"/><path class="e" d="M87.048,294.913c-.628-.414-1.257-.824-1.9-1.212a93.307,93.307,0,0,0-13-6.574c-7.017-2.885-14.458-4.95-20.818-9.086-8.874-5.772-14.725-15.652-16.252-26.057-.707-4.821-.9-10.112,1.509-14.4.42-.75.818-1.426,1.142-2.051H22.38v35.4A24.041,24.041,0,0,0,46.421,294.97H85.945C86.317,294.97,86.681,294.939,87.048,294.913Z" transform="translate(-21.637 -231.202)"/><path class="b" d="M69.867,237.631c0,2.368-10.629,4.289-23.742,4.289S22.38,240,22.38,237.631s10.631-4.287,23.744-4.287S69.867,235.265,69.867,237.631Z" transform="translate(-21.637 -233.344)"/><g transform="translate(0 11.637)"><path class="d" d="M86.312,292.1H46.789A24.812,24.812,0,0,1,22,267.312v-7.124a.743.743,0,0,1,1.485,0v7.124a23.325,23.325,0,0,0,23.3,23.3H86.312a14.843,14.843,0,0,0,14.819-15.64c-.406-7.742-7.449-14.04-15.7-14.04H81.224A11.743,11.743,0,0,1,69.492,249.2v-9.237a.743.743,0,1,1,1.485,0V249.2a10.258,10.258,0,0,0,10.247,10.245h4.208c9.027,0,16.735,6.93,17.183,15.448a16.329,16.329,0,0,1-16.3,17.2Z" transform="translate(-22.005 -239.221)"/></g><path class="c" d="M46.124,233.344c-13.114,0-23.744,1.921-23.744,4.287s10.631,4.287,23.744,4.287l.216,0a11.808,11.808,0,0,1,5.72-8.431C50.16,233.4,48.178,233.344,46.124,233.344Z" transform="translate(-21.637 -233.344)"/></g><g transform="translate(34.313 211.328)"><path class="d" d="M52.706,221.387c-8.469,0-24.485-1.051-24.485-5.029s16.016-5.029,24.485-5.029,24.487,1.049,24.487,5.029S61.177,221.387,52.706,221.387Zm0-8.574c-14.882,0-23,2.34-23,3.544s8.118,3.544,23,3.544,23-2.34,23-3.544S67.59,212.813,52.706,212.813Z" transform="translate(-28.221 -211.328)"/></g><g transform="translate(22.005 254.178)"><path class="d" d="M46.492,243.028C38.023,243.028,22,241.978,22,238s16.018-5.029,24.487-5.029S70.977,234.02,70.977,238,54.961,243.028,46.492,243.028Zm0-8.574c-14.884,0-23,2.342-23,3.544s8.118,3.544,23,3.544,23-2.34,23-3.544S61.374,234.454,46.492,234.454Z" transform="translate(-22.005 -232.969)"/></g></g></svg>