<svg xmlns="http://www.w3.org/2000/svg" width="52.185" height="82.059" viewBox="0 0 52.185 82.059"><defs><style>.a{fill:#f7f7f7;}.b{fill:#fdc0c5;}.c{fill:#ffa5ad;}.d{fill:#a8d7ff;}.e{fill:#59bcf9;}.f{fill:#231f20;}</style></defs><g transform="translate(0)"><path class="a" d="M75.65,77.944V13.279A7.282,7.282,0,0,1,82.93,6h-6.05A7.282,7.282,0,0,0,69.6,13.279V77.944a7.282,7.282,0,0,0,7.279,7.279h6.05A7.344,7.344,0,0,1,75.65,77.944Z" transform="translate(-68.087 -4.582)"/><rect class="b" width="46.324" height="49.349" transform="translate(2.931 14.464)"/><path class="c" d="M0,0H6.05V49.349H0Z" transform="translate(2.931 14.464)"/><path class="d" d="M10.872,0A10.872,10.872,0,1,1,0,10.872,10.872,10.872,0,0,1,10.872,0Z" transform="translate(15.221 28.361)"/><path class="e" d="M130.792,130.872a10.871,10.871,0,0,1,9.076-10.683,10.47,10.47,0,0,0-1.8-.189,10.872,10.872,0,0,0,0,21.744,11.584,11.584,0,0,0,1.8-.189A10.871,10.871,0,0,1,130.792,130.872Z" transform="translate(-112.074 -91.639)"/><g transform="translate(0)"><path class="f" d="M106.688,0H71.9a8.675,8.675,0,0,0-8.7,8.7V73.362a8.675,8.675,0,0,0,8.7,8.7h34.79a8.675,8.675,0,0,0,8.7-8.7V8.7A8.735,8.735,0,0,0,106.688,0ZM66.131,14.464h46.324V63.813H66.131ZM71.9,2.931h34.79A5.73,5.73,0,0,1,112.454,8.7v2.931H66.131V8.7A5.73,5.73,0,0,1,71.9,2.931Zm34.79,76.2H71.9a5.73,5.73,0,0,1-5.767-5.767V66.744h46.324v6.618A5.73,5.73,0,0,1,106.688,79.129Z" transform="translate(-63.2)"/><ellipse class="f" cx="4.727" cy="4.727" rx="4.727" ry="4.727" transform="translate(21.366 67.784)"/><path class="f" d="M133.89,114a12.29,12.29,0,1,0,12.29,12.29A12.265,12.265,0,0,0,133.89,114Zm0,21.744a9.359,9.359,0,1,1,9.359-9.359A9.381,9.381,0,0,1,133.89,135.744Z" transform="translate(-107.797 -87.057)"/></g></g></svg>