<svg xmlns="http://www.w3.org/2000/svg" width="125.957" height="102.434" viewBox="0 0 125.957 102.434">
  <g id="Group_1370" data-name="Group 1370" transform="matrix(0.602, 0.799, -0.799, 0.602, 254.98, -200.835)">
    <path id="Path_2815" data-name="Path 2815" d="M158.544,346.458a17.208,17.208,0,0,1-1.771,2.883,15.9,15.9,0,0,1-7.1,4.485c-.771.246-1.54.5-2.315.735a4.259,4.259,0,0,1-4.5-1,20.9,20.9,0,0,1-3.113-3.705q-5.607-9.232-11.012-18.584c-1.376-2.374-2.558-4.861-3.805-7.309-1.4-2.745-1.2-3.58,1.291-5.235,1.95-1.3,3.9-2.608,5.894-3.832,2.528-1.548,4.265-1.324,6.266.823a33.762,33.762,0,0,1,2.552,3.232c4.04,5.564,8.153,11.08,12.046,16.747,1.865,2.713,3.321,5.712,4.915,8.608A12.112,12.112,0,0,1,158.544,346.458Z" transform="translate(-32.679 -23.066)" fill="#fff" fill-rule="evenodd"/>
    <path id="Path_2816" data-name="Path 2816" d="M107.779,387.056a6.488,6.488,0,0,1-5.265-2.251c-1.717-2.13-3.4-4.3-4.928-6.566q-3.794-5.6-7.365-11.355a59.069,59.069,0,0,1-5.316-11.93c-.509-1.472-.5-2.547,1.018-3.47,2.613-1.584,5.121-3.341,7.667-5.035a1.737,1.737,0,0,1,2.541.5c2.54,2.931,5.16,5.8,7.6,8.807,2.6,3.2,5.081,6.488,7.511,9.815,1.42,1.947,2.661,4.027,3.942,6.073a35.274,35.274,0,0,1,2.678,4.569c1.422,3.29.644,5.46-2.213,7.557a18.437,18.437,0,0,1-6.55,3.044C108.559,386.949,108,387.017,107.779,387.056Z" transform="translate(-16.413 -36.34)" fill="#fff" fill-rule="evenodd"/>
    <path id="Path_2817" data-name="Path 2817" d="M156.648,342.006c-2.7,2.249-5.659,4.87-9.252,3.908-3.54-.947-5.311-5.987-7.25-8.6-2.482-3.348-5.721-6.978-5.575-11.4.1-3.081,4.079-4.884,6.749-6.42-.132-.181-.265-.361-.4-.542a33.762,33.762,0,0,0-2.552-3.232c-2-2.147-3.738-2.371-6.266-.823-2,1.224-3.944,2.531-5.894,3.832-2.486,1.655-2.69,2.49-1.291,5.235,1.247,2.448,2.429,4.936,3.805,7.309q5.418,9.345,11.012,18.584a20.9,20.9,0,0,0,3.113,3.705,4.259,4.259,0,0,0,4.5,1c.775-.231,1.544-.489,2.315-.735a15.9,15.9,0,0,0,7.1-4.485,17.208,17.208,0,0,0,1.771-2.883,12.112,12.112,0,0,0-.658-2.156C157.467,343.542,157.057,342.774,156.648,342.006Z" transform="translate(-32.679 -23.066)" fill="#f2c894" fill-rule="evenodd"/>
    <path id="Path_2818" data-name="Path 2818" d="M88.69,270.024c1.318,1.9,2.656,3.786,3.948,5.7,1.081,1.605,2.059,3.279,3.168,4.863a4.174,4.174,0,0,0,6.374.557,3.07,3.07,0,0,0,.808-2.163,7.75,7.75,0,0,0-1.016-3.162c-1.449-2.421-3.1-4.72-4.6-7.11a25.6,25.6,0,0,1-1.339-2.875c1.529-.236,1.921.634,2.33,1.354,1.36,2.384,2.655,4.807,4.006,7.2.436.769.963,1.484,1.462,2.213.743,1.087,1.789,1.838,3.081,1.443a4.285,4.285,0,0,0,2.414-7.011c-1.9-2.3-3.56-4.786-5.343-7.178a1.774,1.774,0,0,1,.1-2.467,26.44,26.44,0,0,1,1.976,2.495c1.932,3.168,3.809,6.37,5.683,9.571.815,1.392,1.567,2.821,2.356,4.228a3.971,3.971,0,0,1-.386,4.557c-1.863,2.468-1.594,4.747.145,7.089.475.639.83,1.371,1.415,2.356l-3.364,2.034c-1.288-1.792-2.358-3.477-3.634-4.991a2.912,2.912,0,0,0-3.663-.99c-4.843,2.159-5.324.351-7.669-2.544a132.259,132.259,0,0,1-7.716-11.419c-.676-1.038-1.4-2.152-1.121-3.5C88.3,270.191,88.5,270.108,88.69,270.024Z" transform="translate(-17.833 -1.419)" fill="#fff" fill-rule="evenodd"/>
    <path id="Path_2819" data-name="Path 2819" d="M116.945,374.449c-3.232,1.825-5.595,5.071-9.761,3.522-3.375-1.255-5.423-5.144-7.359-7.918-2.015-2.886-5.141-6.519-5.433-10.2-.3-3.79,3.028-6.247,5.737-8.344-1.331-1.522-2.675-3.033-4-4.561a1.737,1.737,0,0,0-2.541-.5c-2.545,1.695-5.054,3.452-7.667,5.035-1.522.923-1.527,2-1.018,3.47a59.069,59.069,0,0,0,5.316,11.93q3.557,5.756,7.365,11.355c1.533,2.264,3.211,4.436,4.928,6.566a6.488,6.488,0,0,0,5.265,2.251c.219-.039.779-.107,1.323-.242a18.437,18.437,0,0,0,6.55-3.044c2.856-2.1,3.635-4.267,2.213-7.557A16.376,16.376,0,0,0,116.945,374.449Z" transform="translate(-16.413 -36.34)" fill="#f2c894" fill-rule="evenodd"/>
    <path id="Path_2820" data-name="Path 2820" d="M75.462,322.285l-4.385,2.675c-1.2-1.694-2.414-3.438-3.653-5.167a5.558,5.558,0,0,0-4.537-2.414c-1.368-.061-2.725-.364-4.092-.492-2.89-.273-4.961-1.978-6.67-4.057a18.536,18.536,0,0,1-4.214-13.088c.107-2.187,1.388-3.774,2.628-5.352a12.241,12.241,0,0,1,8.314-4.965,8.949,8.949,0,0,1,5.333,1.233,18.536,18.536,0,0,1,9.807,12.327,9.289,9.289,0,0,1-1.435,7.433,5.965,5.965,0,0,0-.134,6.815C73.39,318.886,74.4,320.516,75.462,322.285Z" transform="translate(-1.274 -12.956)" fill="#fff" fill-rule="evenodd"/>
    <path id="Path_2821" data-name="Path 2821" d="M115.457,289.011c.579-.134,1.123-.266,1.67-.385a5.625,5.625,0,0,1,5.935,1.822c1.907,2.307,3.783,4.648,5.541,7.07,3.091,4.256,6.154,8.534,9.09,12.9,2.03,3.018,3.837,6.187,5.718,9.3,1.824,3.02.953,6.47-1.78,8.89a23.786,23.786,0,0,1-9.987,5.244,6.277,6.277,0,0,1-7.12-2.159,72.06,72.06,0,0,1-6.9-10.238c-3.858-6.551-7.513-13.22-11.22-19.857-1.4-2.514-1.129-4.44.806-6.662.419-.481.82-.976,1.348-1.609-.765-1.261-1.481-2.514-2.267-3.72a2.176,2.176,0,0,0-2.906-1.011c-.149.062-.307.1-.453.173-3.245,1.546-5.683.246-7.527-2.373-3.254-4.617-6.38-9.325-9.513-14.026a10.431,10.431,0,0,1-.9-2.242c-.538-1.479-.336-2.008.771-2.906a1.856,1.856,0,0,1,2.783.366,28.315,28.315,0,0,1,2.75,3.674c1.339,2.023,2.616,4.087,3.882,6.156a2.567,2.567,0,0,0,2.361,1.444,3.194,3.194,0,0,0,2.089-.918,2.263,2.263,0,0,0-.2-1.961c-1.509-2.574-3.16-5.066-4.711-7.617-.582-.955-1-2.005-1.553-2.983-.675-1.2.072-2.056.768-2.776.827-.859,1.86-.479,2.634.166a8.8,8.8,0,0,1,1.911,2.157c1.577,2.628,3.021,5.336,4.585,7.972a15.376,15.376,0,0,0,1.7,2,12.936,12.936,0,0,0,1.228-.729c1.553-1.205,1.69-1.589.608-3.2-1.713-2.549-3.6-4.98-5.294-7.544a9.451,9.451,0,0,1-1.171-3.084A1.8,1.8,0,0,1,101.3,258.2a2.253,2.253,0,0,1,2.506.286,5.225,5.225,0,0,1,1.083,1.284q2.46,4.03,4.865,8.093c1.44,2.433,2.866,4.874,4.251,7.339.352.626.472,1.381.8,2.026a2.9,2.9,0,0,1-.166,2.968c-2.364,4.219-2.7,3.308.423,8.473A2.943,2.943,0,0,0,115.457,289.011Zm26.863,34.381a12.111,12.111,0,0,0-.658-2.156c-1.594-2.9-3.05-5.894-4.915-8.608-3.894-5.667-8.006-11.183-12.046-16.747a33.763,33.763,0,0,0-2.552-3.232c-2-2.147-3.738-2.371-6.266-.823-2,1.224-3.944,2.531-5.894,3.832-2.486,1.655-2.69,2.49-1.291,5.235,1.247,2.448,2.429,4.936,3.805,7.309q5.418,9.345,11.012,18.584a20.9,20.9,0,0,0,3.112,3.705,4.258,4.258,0,0,0,4.5,1c.775-.231,1.544-.489,2.315-.735a15.9,15.9,0,0,0,7.1-4.485A17.207,17.207,0,0,0,142.32,323.393ZM87.313,268.6c-.194.085-.389.167-.582.25-.283,1.349.445,2.462,1.121,3.5a132.26,132.26,0,0,0,7.716,11.419c2.345,2.894,2.826,4.7,7.669,2.544a2.912,2.912,0,0,1,3.663.99c1.275,1.514,2.346,3.2,3.634,4.991l3.364-2.034c-.585-.986-.94-1.717-1.415-2.356-1.739-2.341-2.008-4.621-.145-7.089a3.971,3.971,0,0,0,.386-4.557c-.789-1.407-1.542-2.836-2.356-4.228-1.874-3.2-3.751-6.4-5.683-9.571a26.441,26.441,0,0,0-1.976-2.495,1.774,1.774,0,0,0-.1,2.467c1.783,2.392,3.447,4.88,5.343,7.178a4.285,4.285,0,0,1-2.414,7.011c-1.292.394-2.338-.356-3.081-1.443-.5-.729-1.026-1.445-1.462-2.213-1.352-2.39-2.646-4.812-4.006-7.2-.409-.719-.8-1.59-2.33-1.353A25.607,25.607,0,0,0,96,267.294c1.5,2.39,3.151,4.689,4.6,7.11a7.75,7.75,0,0,1,1.016,3.162,3.07,3.07,0,0,1-.808,2.163,4.174,4.174,0,0,1-6.374-.557c-1.109-1.584-2.088-3.258-3.168-4.863C89.97,272.391,88.632,270.5,87.313,268.6Z" transform="translate(-16.456)" fill="#558090" fill-rule="evenodd"/>
    <path id="Path_2822" data-name="Path 2822" d="M76.338,319.356c2.235-1.173,3.793-.128,5.359,1.626A255.293,255.293,0,0,1,98.543,342.6a60.757,60.757,0,0,1,4.518,7.742,8,8,0,0,1-3.047,10.944c-2.9,1.735-5.812,3.18-9.238,3.186a7.155,7.155,0,0,1-5.529-2.483c-3.633-3.885-6.328-8.407-9.124-12.846-2.666-4.234-5.114-8.623-7.38-13.086a44.785,44.785,0,0,1-2.639-7.535c-.411-1.379-.2-1.6,1.444-3.583-.2-2.221-1.7-3.77-2.936-5.41a4.8,4.8,0,0,0-3.6-1.683,28.417,28.417,0,0,1-6.578-1.336c-3.208-1.135-5.175-3.81-6.864-6.611a20.411,20.411,0,0,1-2.758-9.707,12.992,12.992,0,0,1,5.362-11.143,19.8,19.8,0,0,1,4.823-2.7c3.283-1.315,6.5-.417,9.292,1.3,6.047,3.721,9.757,9.042,10.28,16.345a10.827,10.827,0,0,1-1.838,6.169,3.963,3.963,0,0,0-.006,4.527C73.767,316.309,74.435,318.211,76.338,319.356ZM91.366,362.17c.219-.039.779-.107,1.323-.242a18.437,18.437,0,0,0,6.55-3.044c2.856-2.1,3.635-4.267,2.213-7.557a35.279,35.279,0,0,0-2.678-4.569c-1.281-2.046-2.521-4.126-3.942-6.073-2.43-3.326-4.915-6.618-7.511-9.815-2.444-3.01-5.064-5.876-7.6-8.807a1.737,1.737,0,0,0-2.541-.5c-2.545,1.695-5.054,3.452-7.667,5.035-1.522.923-1.527,2-1.018,3.47A59.067,59.067,0,0,0,73.808,342q3.557,5.756,7.365,11.355c1.533,2.264,3.211,4.436,4.928,6.566A6.488,6.488,0,0,0,91.366,362.17ZM74.188,320.782c-1.067-1.769-2.072-3.4-3.038-5.051a5.965,5.965,0,0,1,.134-6.815,9.289,9.289,0,0,0,1.435-7.433,18.536,18.536,0,0,0-9.807-12.327,8.949,8.949,0,0,0-5.333-1.233,12.241,12.241,0,0,0-8.314,4.965c-1.24,1.578-2.521,3.165-2.628,5.352a18.535,18.535,0,0,0,4.214,13.088c1.708,2.079,3.78,3.784,6.67,4.057,1.367.128,2.723.431,4.092.492a5.558,5.558,0,0,1,4.537,2.414c1.239,1.728,2.456,3.473,3.653,5.167Z" transform="translate(0 -11.454)" fill="#558090" fill-rule="evenodd"/>
  </g>
</svg>
