<svg xmlns="http://www.w3.org/2000/svg" xmlns:xlink="http://www.w3.org/1999/xlink" viewBox="0 0 360 504"><defs><style>.cls-1{fill:none;}.cls-10,.cls-14,.cls-2{fill:#fff;}.cls-3{isolation:isolate;}.cls-4{clip-path:url(#clip-path);}.cls-5{fill:#f8c7c8;}.cls-6{opacity:0.5;fill:url(#Nueva_muestra_de_motivo_3);}.cls-7{opacity:0.6;}.cls-8{fill:#ff6767;}.cls-9{fill:#ccc;mix-blend-mode:multiply;}.cls-10{opacity:0.3;mix-blend-mode:overlay;}.cls-11{fill:#ffa88b;}.cls-12{fill:#ed6e70;}.cls-13{fill:#f3999b;}.cls-14{font-size:17px;font-family:MontserratAlternates-SemiBold, Montserrat Alternates;font-weight:600;}.cls-15{fill:#c0e7ff;}</style><clipPath id="clip-path"><rect class="cls-1" x="-0.14" y="1.27" width="360.14" height="502.73"/></clipPath><pattern id="Nueva_muestra_de_motivo_3" data-name="Nueva muestra de motivo 3" width="20" height="20" patternTransform="translate(280 -8)" patternUnits="userSpaceOnUse" viewBox="0 0 20 20"><rect class="cls-1" width="20" height="20"/><path class="cls-2" d="M12.5,10A2.5,2.5,0,1,1,10,7.5,2.5,2.5,0,0,1,12.5,10Z"/></pattern></defs><g class="cls-3"><g id="Layer_1" data-name="Layer 1"><g id="Layer_3" data-name="Layer 3"><rect class="cls-2" x="-3.53" y="-9.86" width="363.53" height="513.86"/></g><g class="cls-4"><rect class="cls-5" x="-1.99" y="235.04" width="361.99" height="268.61"/><rect class="cls-6" x="-2.13" y="235.39" width="362.13" height="268.61"/><g class="cls-7"><polygon class="cls-8" points="342.29 310.24 348.93 309.24 344.21 305.44 342.29 310.24"/><path class="cls-8" d="M328,299.81a25.84,25.84,0,0,1-6.72-11.73c-2.45-9-.19-20.53,8-26,4.94-3.29,12.05-4.17,17.29-1,5.63,3.35,8.52,10.44,9.47,16.65,1.37,9-.58,19-6.85,25.81-4.92,5.37-13,2.41-18.2-1.18A23,23,0,0,1,328,299.81Z"/><path class="cls-9" d="M348.15,262.1c3.15,3.69,4.91,8.75,5.61,13.34,1.37,9-.58,18.95-6.85,25.8-4.92,5.38-13,2.41-18.2-1.17-.55-.38-1.08-.79-1.59-1.21.3.32.59.64.9.95a23,23,0,0,0,3,2.51c5.17,3.59,13.28,6.55,18.2,1.18,6.27-6.85,8.22-16.85,6.85-25.81C355.24,272.07,352.79,265.74,348.15,262.1Z"/><path class="cls-10" d="M324.84,269.89a23,23,0,0,0-2.4,12.12c.21,3,4.9,2.65,4.69-.35a18.33,18.33,0,0,1,1.94-9.73C330.42,269.23,326.18,267.19,324.84,269.89Z"/></g><g class="cls-7"><polygon class="cls-8" points="2.65 447.58 7.5 448.55 5.2 444.74 2.65 447.58"/><path class="cls-8" d="M-4.57,436.79A19,19,0,0,1-6.26,427c.6-6.86,5.06-14.24,12.13-16,4.25-1,9.39.13,12.22,3.6,3.05,3.73,3.25,9.35,2.34,13.88-1.32,6.54-5.19,13-11.26,16.13-4.76,2.48-9.62-1.6-12.28-5.37A15.68,15.68,0,0,1-4.57,436.79Z"/><path class="cls-9" d="M18.88,415.77a20,20,0,0,1,.5,10.62c-1.32,6.54-5.19,13-11.26,16.12C3.36,445-1.5,440.92-4.16,437.15c-.28-.4-.55-.81-.79-1.23.12.29.24.59.38.87a15.68,15.68,0,0,0,1.46,2.5c2.66,3.77,7.52,7.85,12.28,5.37,6.07-3.17,9.94-9.59,11.26-16.13C21.26,424.43,21.16,419.44,18.88,415.77Z"/><path class="cls-10" d="M.79,415.32a16.94,16.94,0,0,0-4.72,7.78c-.61,2.13,2.72,3.06,3.33.93a13.39,13.39,0,0,1,3.8-6.24C4.81,416.26,2.41,413.79.79,415.32Z"/></g><g class="cls-7"><polygon class="cls-8" points="37.12 307.18 40.41 306.73 38.1 304.82 37.12 307.18"/><path class="cls-8" d="M30.16,301.93a12.79,12.79,0,0,1-3.23-5.83c-1.14-4.48.06-10.13,4.15-12.76a8.3,8.3,0,0,1,8.54-.4c2.75,1.7,4.13,5.21,4.55,8.29.61,4.42-.42,9.34-3.57,12.67-2.46,2.62-6.44,1.1-9-.71A10.58,10.58,0,0,1,30.16,301.93Z"/><path class="cls-9" d="M40.36,283.48A13.38,13.38,0,0,1,43,290.1c.61,4.43-.42,9.34-3.56,12.67-2.47,2.62-6.45,1.1-9-.71a9.1,9.1,0,0,1-.78-.61c.15.16.29.33.44.48a10.58,10.58,0,0,0,1.48,1.26c2.52,1.81,6.5,3.33,9,.71,3.15-3.33,4.18-8.25,3.57-12.67C43.79,288.45,42.62,285.31,40.36,283.48Z"/><path class="cls-10" d="M28.81,287.15a11.34,11.34,0,0,0-1.27,6,1.16,1.16,0,0,0,2.31-.14,9,9,0,0,1,1-4.78A1.16,1.16,0,0,0,28.81,287.15Z"/></g><rect class="cls-2" x="226.79" y="41.36" width="1.11" height="41.08"/><polygon class="cls-11" points="227.25 81.45 259.48 61.41 227.4 42.6 226.99 43.29 257.93 61.43 226.82 80.77 227.25 81.45"/><rect class="cls-12" x="257.53" y="61.5" transform="translate(11.03 158.16) rotate(-34.84)"/><path class="cls-12" d="M306.42,61.32a.27.27,0,0,0-.27-.27.21.21,0,0,0-.12,0,.41.41,0,0,0-.38-.26.45.45,0,0,0-.26.09.53.53,0,0,0-.23-.24c.47-1.08,1.28-3.16.8-3.9-.65-1-1-1.49-1.82-1-.52.34-.4,2.64-.25,4.12a1.07,1.07,0,0,0-.36.1c0-1.11-.19-2.44-1.17-2.41-1.68.06-8.05.15-8.05.15s0-.21,0-.59l.74-.72h1.26c.65,0,1.73-.39,1.73-1s-.91-.6-2-.6a13.22,13.22,0,0,0-1.82.17c-.3-6.51-1.05-22.59-1.33-23.05s-5.79-.63-6.43-.29-1.16,3.4-1.16,3.4H286L285.62,39l-1,.69-3,18.72s-2.28.2-5.85.8c-1.75.3-6.19.85-10.25,1.33l-1.62-10h-4.43l-.72,10.63.34.15v.36l-.34.15.72,10.63h4.43l1.62-10c4.06.48,8.5,1,10.25,1.33,3.57.61,5.85.81,5.85.81l3,18.72,1,.69.41,3.91h-.76s.52,3.06,1.16,3.4,6.08.29,6.43-.29,1-16.54,1.33-23a13.22,13.22,0,0,0,1.82.17c1.09,0,2,0,2-.6s-1.08-1-1.73-1H295l-.74-.73c0-.37,0-.58,0-.58s6.37.08,8.05.14c1,0,1.18-1.3,1.17-2.41a1.07,1.07,0,0,0,.36.1c-.15,1.49-.27,3.78.25,4.13.78.51,1.17,0,1.82-1,.48-.75-.33-2.83-.8-3.9a.56.56,0,0,0,.23-.25.39.39,0,0,0,.26.09.41.41,0,0,0,.38-.26.21.21,0,0,0,.12,0,.27.27,0,0,0,.27-.26Z"/><path class="cls-13" d="M226.79,82.44V41.36S198.34,32.59,169.05,37,73.57,55.6,52.17,41.36l7,21.5-7,19.58s43.09,9.18,78.58,2.19S193.56,73.68,226.79,82.44Z"/><text class="cls-14" transform="translate(82.2 71.48) rotate(6.53) scale(1.01 1)">J</text><text class="cls-14" transform="translate(91.57 72.63) rotate(2.67) scale(1.01 1)">O</text><text class="cls-14" transform="translate(106.33 73.2) rotate(-1.17) scale(1.01 1)">I</text><text class="cls-14" transform="translate(114.86 73.11) rotate(-5.28) scale(1.01 1)">N</text><text class="cls-14" transform="translate(128.9 71.65) rotate(-9.18) scale(1.01 1)"> </text><text class="cls-14" transform="matrix(0.98, -0.23, 0.22, 0.97, 133.98, 70.93)">U</text><text class="cls-14" transform="translate(147.06 67.95) rotate(-9.87) scale(1.01 1)">S</text><text class="cls-14" transform="translate(157.56 66.17) rotate(-8.02) scale(1.01 1)"> </text><text class="cls-14" transform="matrix(1, -0.11, 0.11, 0.99, 162.16, 65.48)">F</text><text class="cls-14" transform="translate(172.17 64.32) rotate(-3.83) scale(1.01 1)">O</text><text class="cls-14" transform="translate(186.4 63.38) rotate(-1.17) scale(1.01 1)">R</text><path class="cls-2" d="M212.2,54.73a3.58,3.58,0,0,0-4.83-1.45l-.24.13-.13-.24a3.57,3.57,0,0,0-4.82-1.46,3.53,3.53,0,0,0-1.47,4.8l.13.24L204.2,63l6.29-3.34.24-.13A3.54,3.54,0,0,0,212.2,54.73Z"/><path class="cls-2" d="M69.92,62.79a3.58,3.58,0,0,1,4.83-1.46l.24.13.13-.24A3.58,3.58,0,0,1,80,59.76a3.54,3.54,0,0,1,1.46,4.8l-.13.24-3.36,6.25-6.29-3.34-.24-.13A3.53,3.53,0,0,1,69.92,62.79Z"/><path class="cls-15" d="M373.48,103.55a16.84,16.84,0,0,0-2.66.21A9.5,9.5,0,0,0,365,97.49a13.15,13.15,0,0,0-9.58-.14c-2.76-6.25-11.16-9.48-18.77-7.21s-11.53,9.18-8.77,15.43c-6.66.17-11.92,4.7-11.82,10.18s5.53,9.88,12.19,9.89h45.2c7.42,0,13.44-5,13.44-11S380.9,103.55,373.48,103.55Z"/><path class="cls-15" d="M29.67,7.17A14,14,0,0,0,27,7.43,10.91,10.91,0,0,0,21.22-.15a11,11,0,0,0-9.58-.18A14.68,14.68,0,0,0-7.13-9,14.54,14.54,0,0,0-15.89,9.62,12.17,12.17,0,0,0-27.72,21.93a12.19,12.19,0,0,0,12.19,12h45.2a13.37,13.37,0,1,0,0-26.73Z"/><path class="cls-15" d="M22.91,99.16a7.66,7.66,0,0,1,1.51.15,6.25,6.25,0,0,1,8.76-4.42,8.34,8.34,0,0,1,15.69,5.66,6.92,6.92,0,0,1-.21,13.84H22.91a7.62,7.62,0,1,1,0-15.23Z"/></g></g></g></svg>