<svg xmlns="http://www.w3.org/2000/svg" xmlns:xlink="http://www.w3.org/1999/xlink" viewBox="0 0 361.57 504"><defs><style>.cls-1{isolation:isolate;}.cls-2{fill:#eadfe5;}.cls-3{opacity:0.5;}.cls-4{fill:#fff;}.cls-5{fill:#f9fbfc;}.cls-6{fill:url(#New_Gradient_Swatch_3);}.cls-7{fill:#dfe9ec;}.cls-8{fill:#fbec74;}.cls-9{fill:url(#radial-gradient);}.cls-10{fill:url(#radial-gradient-2);}.cls-11{fill:url(#radial-gradient-3);}.cls-12{fill:url(#radial-gradient-4);}.cls-13{fill:url(#radial-gradient-5);}.cls-14{fill:url(#radial-gradient-6);}.cls-15{fill:url(#radial-gradient-7);}.cls-16{fill:url(#radial-gradient-8);}.cls-17{fill:url(#radial-gradient-9);}.cls-18{fill:url(#radial-gradient-10);}.cls-19{fill:url(#radial-gradient-11);}.cls-20{fill:url(#radial-gradient-12);}.cls-21{fill:url(#radial-gradient-13);}.cls-22{fill:url(#radial-gradient-14);}.cls-23{fill:url(#radial-gradient-15);}.cls-24{fill:url(#radial-gradient-16);}.cls-25{fill:url(#radial-gradient-17);}.cls-26{fill:url(#radial-gradient-18);}.cls-27{fill:url(#radial-gradient-19);}.cls-28{mix-blend-mode:multiply;}.cls-29{fill:url(#radial-gradient-20);}.cls-30{fill:url(#radial-gradient-21);}.cls-31{fill:url(#radial-gradient-22);}.cls-32{fill:url(#radial-gradient-23);}.cls-33{fill:url(#radial-gradient-24);}.cls-34{fill:url(#radial-gradient-25);}.cls-35{fill:url(#radial-gradient-26);}.cls-36{fill:url(#radial-gradient-27);}.cls-37{fill:url(#radial-gradient-28);}.cls-38{fill:url(#radial-gradient-29);}.cls-39{fill:url(#radial-gradient-30);}.cls-40{fill:url(#radial-gradient-31);}.cls-41{fill:url(#radial-gradient-32);}.cls-42{fill:url(#radial-gradient-33);}.cls-43{fill:url(#radial-gradient-34);}.cls-44{fill:url(#radial-gradient-35);}.cls-45{fill:url(#radial-gradient-36);}.cls-46{fill:url(#radial-gradient-37);}.cls-47{fill:url(#radial-gradient-38);}.cls-48{fill:url(#radial-gradient-39);}.cls-49{fill:url(#radial-gradient-40);}.cls-50{fill:url(#radial-gradient-41);}.cls-51{fill:url(#radial-gradient-42);}.cls-52{fill:url(#radial-gradient-43);}.cls-53{fill:url(#radial-gradient-44);}.cls-54{fill:url(#radial-gradient-45);}.cls-55{fill:url(#radial-gradient-46);}.cls-56{fill:url(#radial-gradient-47);}.cls-57{fill:url(#radial-gradient-48);}.cls-58{fill:url(#radial-gradient-49);}.cls-59{fill:url(#radial-gradient-50);}.cls-60{fill:url(#radial-gradient-51);}.cls-61{fill:url(#radial-gradient-52);}.cls-62{fill:url(#radial-gradient-53);}.cls-63{fill:url(#radial-gradient-54);}.cls-64{fill:url(#radial-gradient-55);}.cls-65{fill:url(#radial-gradient-56);}.cls-66{fill:url(#radial-gradient-57);}.cls-67{fill:url(#radial-gradient-58);}.cls-68{fill:url(#radial-gradient-59);}.cls-69{fill:url(#radial-gradient-60);}.cls-70{fill:url(#radial-gradient-61);}.cls-71{fill:url(#radial-gradient-62);}.cls-72{fill:url(#radial-gradient-63);}.cls-73{fill:url(#radial-gradient-64);}.cls-74{fill:url(#radial-gradient-65);}.cls-75{fill:url(#radial-gradient-66);}.cls-76{fill:url(#radial-gradient-67);}.cls-77{fill:url(#radial-gradient-68);}.cls-78{fill:url(#radial-gradient-69);}.cls-79{fill:url(#radial-gradient-70);}.cls-80{fill:url(#radial-gradient-71);}.cls-81{fill:url(#radial-gradient-72);}.cls-82{fill:url(#radial-gradient-73);}.cls-83{fill:url(#radial-gradient-74);}.cls-84{fill:url(#radial-gradient-75);}.cls-85{fill:url(#radial-gradient-76);}.cls-86{fill:url(#radial-gradient-77);}.cls-87{fill:url(#radial-gradient-78);}.cls-88{fill:url(#radial-gradient-79);}.cls-89{fill:url(#radial-gradient-80);}.cls-90{fill:url(#radial-gradient-81);}.cls-91{fill:url(#radial-gradient-82);}.cls-92{fill:url(#radial-gradient-83);}.cls-93{fill:url(#radial-gradient-84);}.cls-94{fill:url(#radial-gradient-85);}.cls-95{fill:url(#radial-gradient-86);}.cls-96{fill:url(#radial-gradient-87);}.cls-97{fill:url(#radial-gradient-88);}.cls-98{fill:url(#radial-gradient-89);}.cls-99{fill:url(#radial-gradient-90);}.cls-100{fill:url(#radial-gradient-91);}.cls-101{fill:url(#radial-gradient-92);}.cls-102{fill:url(#radial-gradient-93);}.cls-103{fill:url(#radial-gradient-94);}.cls-104{fill:url(#radial-gradient-95);}.cls-105{fill:url(#radial-gradient-96);}.cls-106{fill:url(#radial-gradient-97);}.cls-107{fill:url(#radial-gradient-98);}.cls-108{fill:url(#radial-gradient-99);}.cls-109{fill:url(#radial-gradient-100);}.cls-110{fill:url(#radial-gradient-101);}.cls-111{fill:url(#radial-gradient-102);}.cls-112{fill:url(#radial-gradient-103);}.cls-113{fill:url(#radial-gradient-104);}.cls-114{fill:url(#radial-gradient-105);}.cls-115{fill:url(#radial-gradient-106);}.cls-116{fill:url(#radial-gradient-107);}.cls-117{fill:url(#radial-gradient-108);}.cls-118{fill:url(#radial-gradient-109);}.cls-119{fill:url(#radial-gradient-110);}.cls-120{fill:url(#radial-gradient-111);}.cls-121{fill:url(#radial-gradient-112);}.cls-122{fill:url(#radial-gradient-113);}.cls-123{fill:url(#radial-gradient-114);}.cls-124{fill:url(#radial-gradient-115);}.cls-125{fill:url(#radial-gradient-116);}.cls-126{fill:url(#radial-gradient-117);}.cls-127{fill:url(#radial-gradient-118);}.cls-128{fill:url(#radial-gradient-119);}.cls-129{fill:url(#radial-gradient-120);}.cls-130{fill:url(#radial-gradient-121);}.cls-131{fill:url(#radial-gradient-122);}.cls-132{fill:url(#radial-gradient-123);}.cls-133{fill:url(#radial-gradient-124);}.cls-134{fill:url(#radial-gradient-125);}.cls-135{fill:url(#radial-gradient-126);}.cls-136{fill:url(#radial-gradient-127);}.cls-137{fill:url(#radial-gradient-128);}.cls-138{fill:url(#radial-gradient-129);}.cls-139{fill:url(#radial-gradient-130);}.cls-140{fill:url(#radial-gradient-131);}.cls-141{fill:url(#radial-gradient-132);}.cls-142{fill:url(#radial-gradient-133);}.cls-143{fill:url(#radial-gradient-134);}.cls-144{fill:url(#radial-gradient-135);}.cls-145{fill:url(#radial-gradient-136);}.cls-146{fill:url(#radial-gradient-137);}.cls-147{fill:url(#radial-gradient-138);}.cls-148{fill:url(#radial-gradient-139);}.cls-149{fill:url(#radial-gradient-140);}.cls-150{fill:url(#radial-gradient-141);}.cls-151{fill:url(#radial-gradient-142);}.cls-152{fill:url(#radial-gradient-143);}.cls-153{fill:url(#radial-gradient-144);}.cls-154{fill:url(#radial-gradient-145);}.cls-155{fill:url(#radial-gradient-146);}.cls-156{fill:url(#radial-gradient-147);}.cls-157{fill:url(#radial-gradient-148);}.cls-158{fill:url(#radial-gradient-149);}.cls-159{fill:url(#radial-gradient-150);}.cls-160{fill:url(#radial-gradient-151);}.cls-161{fill:url(#radial-gradient-152);}.cls-162{fill:url(#radial-gradient-153);}.cls-163{fill:url(#radial-gradient-154);}.cls-164{fill:url(#radial-gradient-155);}.cls-165{fill:url(#radial-gradient-156);}.cls-166{fill:url(#radial-gradient-157);}.cls-167{fill:url(#radial-gradient-158);}.cls-168{fill:url(#radial-gradient-159);}.cls-169{fill:url(#radial-gradient-160);}.cls-170{fill:url(#radial-gradient-161);}.cls-171{fill:url(#radial-gradient-162);}.cls-172{fill:url(#radial-gradient-163);}.cls-173{fill:url(#radial-gradient-164);}.cls-174{fill:url(#radial-gradient-165);}.cls-175{fill:url(#radial-gradient-166);}.cls-176{fill:url(#radial-gradient-167);}.cls-177{fill:url(#radial-gradient-168);}.cls-178{fill:url(#radial-gradient-169);}.cls-179{fill:url(#radial-gradient-170);}.cls-180{fill:url(#radial-gradient-171);}.cls-181{fill:url(#radial-gradient-172);}.cls-182{fill:url(#radial-gradient-173);}.cls-183{fill:url(#radial-gradient-174);}.cls-184{fill:url(#radial-gradient-175);}.cls-185{fill:url(#radial-gradient-176);}.cls-186{fill:url(#radial-gradient-177);}.cls-187{fill:url(#New_Gradient_Swatch_3-2);}.cls-188{fill:url(#Degradado_sin_nombre_174);}.cls-189,.cls-192{fill:none;stroke:#fbbf5c;stroke-miterlimit:10;}.cls-189{stroke-width:0.59px;}.cls-190{fill:url(#Degradado_sin_nombre_174-2);}.cls-191{fill:url(#Degradado_sin_nombre_174-3);}.cls-192{stroke-width:0.29px;}.cls-193{fill:url(#Degradado_sin_nombre_174-4);}.cls-194{fill:url(#Degradado_sin_nombre_174-5);}.cls-195{fill:url(#Degradado_sin_nombre_174-6);}</style><linearGradient id="New_Gradient_Swatch_3" x1="55.01" y1="38.15" x2="303.56" y2="468.64" gradientUnits="userSpaceOnUse"><stop offset="0" stop-color="#cda349"/><stop offset="0.27" stop-color="#cda349"/><stop offset="0.31" stop-color="#cda349"/><stop offset="0.33" stop-color="#d8b561"/><stop offset="0.34" stop-color="#e2c577"/><stop offset="0.36" stop-color="#ead188"/><stop offset="0.38" stop-color="#f0da93"/><stop offset="0.42" stop-color="#f3df9a"/><stop offset="0.51" stop-color="#f4e09c"/><stop offset="1" stop-color="#c3922e"/></linearGradient><radialGradient id="radial-gradient" cx="179.29" cy="25.18" r="6.58" gradientUnits="userSpaceOnUse"><stop offset="0" stop-color="#d6748d"/><stop offset="0.42" stop-color="#d4728d"/><stop offset="0.64" stop-color="#cc6b8d"/><stop offset="0.81" stop-color="#be5e8c"/><stop offset="0.96" stop-color="#ac4c8b"/><stop offset="1" stop-color="#a5468b"/></radialGradient><radialGradient id="radial-gradient-2" cx="179.29" cy="25.18" r="9.86" gradientUnits="userSpaceOnUse"><stop offset="0.44" stop-color="#fbbe68"/><stop offset="0.62" stop-color="#fbbb68"/><stop offset="0.74" stop-color="#fcb269"/><stop offset="0.85" stop-color="#fda36a"/><stop offset="0.94" stop-color="#fe8e6b"/><stop offset="1" stop-color="#ff7d6c"/></radialGradient><radialGradient id="radial-gradient-3" cx="179.29" cy="25.18" r="3.21" xlink:href="#radial-gradient-2"/><radialGradient id="radial-gradient-4" cx="179.29" cy="25.18" r="0.94" xlink:href="#radial-gradient"/><radialGradient id="radial-gradient-5" cx="253.82" cy="43.64" r="49.2" gradientUnits="userSpaceOnUse"><stop offset="0" stop-color="#91b991"/><stop offset="1" stop-color="#60a56b"/></radialGradient><radialGradient id="radial-gradient-6" cx="287.33" cy="45.53" r="9.24" xlink:href="#radial-gradient-5"/><radialGradient id="radial-gradient-7" cx="274.17" cy="54.21" r="7.74" xlink:href="#radial-gradient-5"/><radialGradient id="radial-gradient-8" cx="187.63" cy="54.42" r="5.79" xlink:href="#radial-gradient-5"/><radialGradient id="radial-gradient-9" cx="192.89" cy="43.6" r="5.6" xlink:href="#radial-gradient-5"/><radialGradient id="radial-gradient-10" cx="225.59" cy="55.19" r="7.22" xlink:href="#radial-gradient-5"/><radialGradient id="radial-gradient-11" cx="248" cy="57.18" r="6.12" xlink:href="#radial-gradient-5"/><radialGradient id="radial-gradient-12" cx="203.43" cy="27.36" r="3.97" xlink:href="#radial-gradient"/><radialGradient id="radial-gradient-13" cx="201.01" cy="33.49" r="3.71" xlink:href="#radial-gradient"/><radialGradient id="radial-gradient-14" cx="210.4" cy="25.39" r="3.8" xlink:href="#radial-gradient"/><radialGradient id="radial-gradient-15" cx="215.32" cy="29.36" r="3.91" xlink:href="#radial-gradient"/><radialGradient id="radial-gradient-16" cx="208.58" cy="32.57" r="3.22" xlink:href="#radial-gradient-2"/><radialGradient id="radial-gradient-17" cx="204.41" cy="38.54" r="3.93" xlink:href="#radial-gradient"/><radialGradient id="radial-gradient-18" cx="215.22" cy="35.7" r="3.85" xlink:href="#radial-gradient"/><radialGradient id="radial-gradient-19" cx="210.72" cy="39.87" r="3.83" xlink:href="#radial-gradient"/><radialGradient id="radial-gradient-20" cx="209.11" cy="30.11" r="0.18" xlink:href="#radial-gradient"/><radialGradient id="radial-gradient-21" cx="207.16" cy="30.69" r="0.18" xlink:href="#radial-gradient"/><radialGradient id="radial-gradient-22" cx="208.07" cy="29.84" r="0.18" xlink:href="#radial-gradient"/><radialGradient id="radial-gradient-23" cx="206.19" cy="31.12" r="0.18" xlink:href="#radial-gradient"/><radialGradient id="radial-gradient-24" cx="208.14" cy="32.29" r="0.18" xlink:href="#radial-gradient"/><radialGradient id="radial-gradient-25" cx="207.96" cy="33.35" r="0.18" xlink:href="#radial-gradient"/><radialGradient id="radial-gradient-26" cx="206.92" cy="32.21" r="0.28" xlink:href="#radial-gradient"/><radialGradient id="radial-gradient-27" cx="206.03" cy="33.47" r="0.28" xlink:href="#radial-gradient"/><radialGradient id="radial-gradient-28" cx="208.94" cy="34.35" r="0.28" xlink:href="#radial-gradient"/><radialGradient id="radial-gradient-29" cx="209.82" cy="32.71" r="0.28" xlink:href="#radial-gradient"/><radialGradient id="radial-gradient-30" cx="209.42" cy="31.16" r="0.28" xlink:href="#radial-gradient"/><radialGradient id="radial-gradient-31" cx="209.78" cy="33.8" r="0.18" xlink:href="#radial-gradient"/><radialGradient id="radial-gradient-32" cx="210.49" cy="31.71" r="0.18" xlink:href="#radial-gradient"/><radialGradient id="radial-gradient-33" cx="210.57" cy="34.58" r="0.18" xlink:href="#radial-gradient"/><radialGradient id="radial-gradient-34" cx="210.74" cy="32.54" r="0.18" xlink:href="#radial-gradient"/><radialGradient id="radial-gradient-35" cx="210.79" cy="33.6" r="0.1" xlink:href="#radial-gradient"/><radialGradient id="radial-gradient-36" cx="207.07" cy="34.02" r="0.18" xlink:href="#radial-gradient"/><radialGradient id="radial-gradient-37" cx="206.66" cy="33.15" r="0.1" xlink:href="#radial-gradient"/><radialGradient id="radial-gradient-38" cx="207.94" cy="34.25" r="0.1" xlink:href="#radial-gradient"/><radialGradient id="radial-gradient-39" cx="208.49" cy="35.09" r="0.1" xlink:href="#radial-gradient"/><radialGradient id="radial-gradient-40" cx="209.73" cy="34.64" r="0.1" xlink:href="#radial-gradient"/><radialGradient id="radial-gradient-41" cx="206.9" cy="34.97" r="0.1" xlink:href="#radial-gradient"/><radialGradient id="radial-gradient-42" cx="208.35" cy="31.42" r="0.1" xlink:href="#radial-gradient"/><radialGradient id="radial-gradient-43" cx="209.31" cy="32.26" r="0.1" xlink:href="#radial-gradient"/><radialGradient id="radial-gradient-44" cx="210.32" cy="30.77" r="0.1" xlink:href="#radial-gradient"/><radialGradient id="radial-gradient-45" cx="249.64" cy="38.33" r="13.76" xlink:href="#radial-gradient-5"/><radialGradient id="radial-gradient-46" cx="233.01" cy="39.2" r="5.23" xlink:href="#radial-gradient-5"/><radialGradient id="radial-gradient-47" cx="239.72" cy="32.59" r="4.58" xlink:href="#radial-gradient-5"/><radialGradient id="radial-gradient-48" cx="249.33" cy="41.46" r="4.92" xlink:href="#radial-gradient-5"/><radialGradient id="radial-gradient-49" cx="257.26" cy="33.84" r="3.59" xlink:href="#radial-gradient-5"/><radialGradient id="radial-gradient-50" cx="254.19" cy="29.83" r="1.82" xlink:href="#radial-gradient"/><radialGradient id="radial-gradient-51" cx="244.9" cy="45.7" r="1.63" xlink:href="#radial-gradient"/><radialGradient id="radial-gradient-52" cx="235.99" cy="29.44" r="2.13" xlink:href="#radial-gradient"/><radialGradient id="radial-gradient-53" cx="226.7" cy="42.99" r="1.48" xlink:href="#radial-gradient"/><radialGradient id="radial-gradient-54" cx="230.4" cy="36.64" r="2.31" xlink:href="#radial-gradient"/><radialGradient id="radial-gradient-55" cx="205.33" cy="52" r="4" xlink:href="#radial-gradient"/><radialGradient id="radial-gradient-56" cx="205.33" cy="52" r="5.99" xlink:href="#radial-gradient-2"/><radialGradient id="radial-gradient-57" cx="205.33" cy="52" r="1.95" xlink:href="#radial-gradient-2"/><radialGradient id="radial-gradient-58" cx="205.33" cy="52" r="0.57" xlink:href="#radial-gradient"/><radialGradient id="radial-gradient-59" cx="266.18" cy="34.76" r="5.2" xlink:href="#radial-gradient-5"/><radialGradient id="radial-gradient-60" cx="263.32" cy="43.68" r="5.03" xlink:href="#radial-gradient-5"/><radialGradient id="radial-gradient-61" cx="266.68" cy="40.08" r="5.05" xlink:href="#radial-gradient-5"/><radialGradient id="radial-gradient-62" cx="104.71" cy="43.87" r="49.14" xlink:href="#radial-gradient-5"/><radialGradient id="radial-gradient-63" cx="71.23" cy="45.53" r="9.22" xlink:href="#radial-gradient-5"/><radialGradient id="radial-gradient-64" cx="84.4" cy="54.2" r="7.73" xlink:href="#radial-gradient-5"/><radialGradient id="radial-gradient-65" cx="170.95" cy="54.43" r="5.79" xlink:href="#radial-gradient-5"/><radialGradient id="radial-gradient-66" cx="165.68" cy="43.61" r="5.6" xlink:href="#radial-gradient-5"/><radialGradient id="radial-gradient-67" cx="132.98" cy="55.18" r="7.22" xlink:href="#radial-gradient-5"/><radialGradient id="radial-gradient-68" cx="110.59" cy="57.19" r="6.12" xlink:href="#radial-gradient-5"/><radialGradient id="radial-gradient-69" cx="155.14" cy="27.36" r="3.97" xlink:href="#radial-gradient"/><radialGradient id="radial-gradient-70" cx="157.56" cy="33.49" r="3.71" xlink:href="#radial-gradient"/><radialGradient id="radial-gradient-71" cx="148.17" cy="25.39" r="3.8" xlink:href="#radial-gradient"/><radialGradient id="radial-gradient-72" cx="143.25" cy="29.36" r="3.91" xlink:href="#radial-gradient"/><radialGradient id="radial-gradient-73" cx="149.99" cy="32.57" r="3.22" xlink:href="#radial-gradient-2"/><radialGradient id="radial-gradient-74" cx="154.16" cy="38.54" r="3.93" xlink:href="#radial-gradient"/><radialGradient id="radial-gradient-75" cx="143.35" cy="35.7" r="3.85" xlink:href="#radial-gradient"/><radialGradient id="radial-gradient-76" cx="147.85" cy="39.87" r="3.83" xlink:href="#radial-gradient"/><radialGradient id="radial-gradient-77" cx="149.46" cy="30.11" r="0.18" xlink:href="#radial-gradient"/><radialGradient id="radial-gradient-78" cx="151.41" cy="30.69" r="0.18" xlink:href="#radial-gradient"/><radialGradient id="radial-gradient-79" cx="150.5" cy="29.84" r="0.18" xlink:href="#radial-gradient"/><radialGradient id="radial-gradient-80" cx="152.38" cy="31.12" r="0.18" xlink:href="#radial-gradient"/><radialGradient id="radial-gradient-81" cx="150.43" cy="32.29" r="0.18" xlink:href="#radial-gradient"/><radialGradient id="radial-gradient-82" cx="150.61" cy="33.35" r="0.18" xlink:href="#radial-gradient"/><radialGradient id="radial-gradient-83" cx="151.65" cy="32.21" r="0.28" xlink:href="#radial-gradient"/><radialGradient id="radial-gradient-84" cx="152.54" cy="33.47" r="0.28" xlink:href="#radial-gradient"/><radialGradient id="radial-gradient-85" cx="149.63" cy="34.35" r="0.28" xlink:href="#radial-gradient"/><radialGradient id="radial-gradient-86" cx="148.75" cy="32.71" r="0.28" xlink:href="#radial-gradient"/><radialGradient id="radial-gradient-87" cx="149.15" cy="31.16" r="0.28" xlink:href="#radial-gradient"/><radialGradient id="radial-gradient-88" cx="148.79" cy="33.8" r="0.18" xlink:href="#radial-gradient"/><radialGradient id="radial-gradient-89" cx="148.08" cy="31.71" r="0.18" xlink:href="#radial-gradient"/><radialGradient id="radial-gradient-90" cx="148" cy="34.58" r="0.18" xlink:href="#radial-gradient"/><radialGradient id="radial-gradient-91" cx="147.83" cy="32.54" r="0.18" xlink:href="#radial-gradient"/><radialGradient id="radial-gradient-92" cx="147.78" cy="33.6" r="0.1" xlink:href="#radial-gradient"/><radialGradient id="radial-gradient-93" cx="151.5" cy="34.02" r="0.18" xlink:href="#radial-gradient"/><radialGradient id="radial-gradient-94" cx="151.91" cy="33.15" r="0.1" xlink:href="#radial-gradient"/><radialGradient id="radial-gradient-95" cx="150.63" cy="34.25" r="0.1" xlink:href="#radial-gradient"/><radialGradient id="radial-gradient-96" cx="150.08" cy="35.09" r="0.1" xlink:href="#radial-gradient"/><radialGradient id="radial-gradient-97" cx="148.84" cy="34.64" r="0.1" xlink:href="#radial-gradient"/><radialGradient id="radial-gradient-98" cx="151.67" cy="34.97" r="0.1" xlink:href="#radial-gradient"/><radialGradient id="radial-gradient-99" cx="150.22" cy="31.42" r="0.1" xlink:href="#radial-gradient"/><radialGradient id="radial-gradient-100" cx="149.26" cy="32.26" r="0.1" xlink:href="#radial-gradient"/><radialGradient id="radial-gradient-101" cx="148.25" cy="30.77" r="0.1" xlink:href="#radial-gradient"/><radialGradient id="radial-gradient-102" cx="108.93" cy="38.33" r="13.76" xlink:href="#radial-gradient-5"/><radialGradient id="radial-gradient-103" cx="125.56" cy="39.21" r="5.23" xlink:href="#radial-gradient-5"/><radialGradient id="radial-gradient-104" cx="118.84" cy="32.58" r="4.58" xlink:href="#radial-gradient-5"/><radialGradient id="radial-gradient-105" cx="109.24" cy="41.46" r="4.92" xlink:href="#radial-gradient-5"/><radialGradient id="radial-gradient-106" cx="101.31" cy="33.84" r="3.59" xlink:href="#radial-gradient-5"/><radialGradient id="radial-gradient-107" cx="104.38" cy="29.83" r="1.82" xlink:href="#radial-gradient"/><radialGradient id="radial-gradient-108" cx="113.67" cy="45.7" r="1.63" xlink:href="#radial-gradient"/><radialGradient id="radial-gradient-109" cx="122.58" cy="29.44" r="2.13" xlink:href="#radial-gradient"/><radialGradient id="radial-gradient-110" cx="131.87" cy="42.99" r="1.48" xlink:href="#radial-gradient"/><radialGradient id="radial-gradient-111" cx="128.17" cy="36.64" r="2.31" xlink:href="#radial-gradient"/><radialGradient id="radial-gradient-112" cx="153.24" cy="52" r="4" xlink:href="#radial-gradient"/><radialGradient id="radial-gradient-113" cx="153.24" cy="52" r="5.99" xlink:href="#radial-gradient-2"/><radialGradient id="radial-gradient-114" cx="153.24" cy="52" r="1.95" xlink:href="#radial-gradient-2"/><radialGradient id="radial-gradient-115" cx="153.24" cy="52" r="0.57" xlink:href="#radial-gradient"/><radialGradient id="radial-gradient-116" cx="92.39" cy="34.76" r="5.2" xlink:href="#radial-gradient-5"/><radialGradient id="radial-gradient-117" cx="95.25" cy="43.67" r="5.03" xlink:href="#radial-gradient-5"/><radialGradient id="radial-gradient-118" cx="91.89" cy="40.08" r="5.05" xlink:href="#radial-gradient-5"/><radialGradient id="radial-gradient-119" cx="221.16" cy="439.55" r="13.76" xlink:href="#radial-gradient-5"/><radialGradient id="radial-gradient-120" cx="237.78" cy="440.42" r="5.23" xlink:href="#radial-gradient-5"/><radialGradient id="radial-gradient-121" cx="231.07" cy="433.79" r="4.58" xlink:href="#radial-gradient-5"/><radialGradient id="radial-gradient-122" cx="221.47" cy="442.67" r="4.92" xlink:href="#radial-gradient-5"/><radialGradient id="radial-gradient-123" cx="213.54" cy="435.05" r="3.59" xlink:href="#radial-gradient-5"/><radialGradient id="radial-gradient-124" cx="216.61" cy="431.04" r="1.82" xlink:href="#radial-gradient"/><radialGradient id="radial-gradient-125" cx="225.9" cy="446.91" r="1.63" xlink:href="#radial-gradient"/><radialGradient id="radial-gradient-126" cx="234.8" cy="430.65" r="2.13" xlink:href="#radial-gradient"/><radialGradient id="radial-gradient-127" cx="244.1" cy="444.2" r="1.48" xlink:href="#radial-gradient"/><radialGradient id="radial-gradient-128" cx="240.4" cy="437.86" r="2.31" xlink:href="#radial-gradient"/><radialGradient id="radial-gradient-129" cx="204.62" cy="435.98" r="5.2" xlink:href="#radial-gradient-5"/><radialGradient id="radial-gradient-130" cx="207.48" cy="444.89" r="5.03" xlink:href="#radial-gradient-5"/><radialGradient id="radial-gradient-131" cx="204.11" cy="441.29" r="5.05" xlink:href="#radial-gradient-5"/><radialGradient id="radial-gradient-132" cx="-4526.21" cy="439.55" r="13.76" gradientTransform="matrix(-1, 0, 0, 1, -4388.8, 0)" xlink:href="#radial-gradient-5"/><radialGradient id="radial-gradient-133" cx="-4509.59" cy="440.42" r="5.23" gradientTransform="matrix(-1, 0, 0, 1, -4388.8, 0)" xlink:href="#radial-gradient-5"/><radialGradient id="radial-gradient-134" cx="-4516.3" cy="433.79" r="4.58" gradientTransform="matrix(-1, 0, 0, 1, -4388.8, 0)" xlink:href="#radial-gradient-5"/><radialGradient id="radial-gradient-135" cx="-4525.9" cy="442.67" r="4.92" gradientTransform="matrix(-1, 0, 0, 1, -4388.8, 0)" xlink:href="#radial-gradient-5"/><radialGradient id="radial-gradient-136" cx="-4533.83" cy="435.05" r="3.59" gradientTransform="matrix(-1, 0, 0, 1, -4388.8, 0)" xlink:href="#radial-gradient-5"/><radialGradient id="radial-gradient-137" cx="-4530.77" cy="431.04" r="1.82" gradientTransform="matrix(-1, 0, 0, 1, -4388.8, 0)" xlink:href="#radial-gradient"/><radialGradient id="radial-gradient-138" cx="-4521.47" cy="446.91" r="1.63" gradientTransform="matrix(-1, 0, 0, 1, -4388.8, 0)" xlink:href="#radial-gradient"/><radialGradient id="radial-gradient-139" cx="-4512.57" cy="430.65" r="2.13" gradientTransform="matrix(-1, 0, 0, 1, -4388.8, 0)" xlink:href="#radial-gradient"/><radialGradient id="radial-gradient-140" cx="-4503.28" cy="444.2" r="1.48" gradientTransform="matrix(-1, 0, 0, 1, -4388.8, 0)" xlink:href="#radial-gradient"/><radialGradient id="radial-gradient-141" cx="-4506.98" cy="437.86" r="2.31" gradientTransform="matrix(-1, 0, 0, 1, -4388.8, 0)" xlink:href="#radial-gradient"/><radialGradient id="radial-gradient-142" cx="-4542.76" cy="435.98" r="5.2" gradientTransform="matrix(-1, 0, 0, 1, -4388.8, 0)" xlink:href="#radial-gradient-5"/><radialGradient id="radial-gradient-143" cx="-4539.9" cy="444.89" r="5.03" gradientTransform="matrix(-1, 0, 0, 1, -4388.8, 0)" xlink:href="#radial-gradient-5"/><radialGradient id="radial-gradient-144" cx="-4543.26" cy="441.29" r="5.05" gradientTransform="matrix(-1, 0, 0, 1, -4388.8, 0)" xlink:href="#radial-gradient-5"/><radialGradient id="radial-gradient-145" cx="174.55" cy="437.55" r="3.97" xlink:href="#radial-gradient"/><radialGradient id="radial-gradient-146" cx="172.13" cy="443.69" r="3.71" xlink:href="#radial-gradient"/><radialGradient id="radial-gradient-147" cx="181.52" cy="435.58" r="3.8" xlink:href="#radial-gradient"/><radialGradient id="radial-gradient-148" cx="186.44" cy="439.55" r="3.91" xlink:href="#radial-gradient"/><radialGradient id="radial-gradient-149" cx="179.7" cy="442.76" r="3.22" xlink:href="#radial-gradient-2"/><radialGradient id="radial-gradient-150" cx="175.54" cy="448.73" r="3.93" xlink:href="#radial-gradient"/><radialGradient id="radial-gradient-151" cx="186.34" cy="445.89" r="3.85" xlink:href="#radial-gradient"/><radialGradient id="radial-gradient-152" cx="181.84" cy="450.06" r="3.83" xlink:href="#radial-gradient"/><radialGradient id="radial-gradient-153" cx="180.23" cy="440.3" r="0.18" xlink:href="#radial-gradient"/><radialGradient id="radial-gradient-154" cx="178.28" cy="440.88" r="0.18" xlink:href="#radial-gradient"/><radialGradient id="radial-gradient-155" cx="179.19" cy="440.03" r="0.18" xlink:href="#radial-gradient"/><radialGradient id="radial-gradient-156" cx="177.31" cy="441.31" r="0.18" xlink:href="#radial-gradient"/><radialGradient id="radial-gradient-157" cx="179.26" cy="442.48" r="0.18" xlink:href="#radial-gradient"/><radialGradient id="radial-gradient-158" cx="179.09" cy="443.54" r="0.18" xlink:href="#radial-gradient"/><radialGradient id="radial-gradient-159" cx="178.04" cy="442.4" r="0.28" xlink:href="#radial-gradient"/><radialGradient id="radial-gradient-160" cx="177.15" cy="443.66" r="0.28" xlink:href="#radial-gradient"/><radialGradient id="radial-gradient-161" cx="180.06" cy="444.54" r="0.28" xlink:href="#radial-gradient"/><radialGradient id="radial-gradient-162" cx="180.94" cy="442.9" r="0.28" xlink:href="#radial-gradient"/><radialGradient id="radial-gradient-163" cx="180.54" cy="441.35" r="0.28" xlink:href="#radial-gradient"/><radialGradient id="radial-gradient-164" cx="180.9" cy="443.99" r="0.18" xlink:href="#radial-gradient"/><radialGradient id="radial-gradient-165" cx="181.62" cy="441.9" r="0.18" xlink:href="#radial-gradient"/><radialGradient id="radial-gradient-166" cx="181.69" cy="444.77" r="0.18" xlink:href="#radial-gradient"/><radialGradient id="radial-gradient-167" cx="181.86" cy="442.73" r="0.18" xlink:href="#radial-gradient"/><radialGradient id="radial-gradient-168" cx="181.91" cy="443.79" r="0.1" xlink:href="#radial-gradient"/><radialGradient id="radial-gradient-169" cx="178.19" cy="444.21" r="0.18" xlink:href="#radial-gradient"/><radialGradient id="radial-gradient-170" cx="177.78" cy="443.34" r="0.1" xlink:href="#radial-gradient"/><radialGradient id="radial-gradient-171" cx="179.06" cy="444.44" r="0.1" xlink:href="#radial-gradient"/><radialGradient id="radial-gradient-172" cx="179.61" cy="445.28" r="0.1" xlink:href="#radial-gradient"/><radialGradient id="radial-gradient-173" cx="180.85" cy="444.83" r="0.1" xlink:href="#radial-gradient"/><radialGradient id="radial-gradient-174" cx="178.02" cy="445.16" r="0.1" xlink:href="#radial-gradient"/><radialGradient id="radial-gradient-175" cx="179.47" cy="441.61" r="0.1" xlink:href="#radial-gradient"/><radialGradient id="radial-gradient-176" cx="180.43" cy="442.45" r="0.1" xlink:href="#radial-gradient"/><radialGradient id="radial-gradient-177" cx="181.44" cy="440.97" r="0.1" xlink:href="#radial-gradient"/><linearGradient id="New_Gradient_Swatch_3-2" x1="179.29" y1="39.52" x2="179.29" y2="467.27" xlink:href="#New_Gradient_Swatch_3"/><linearGradient id="Degradado_sin_nombre_174" x1="19.79" y1="386.18" x2="68.2" y2="430.65" gradientTransform="translate(-53.87 -165.08) rotate(-14.19)" gradientUnits="userSpaceOnUse"><stop offset="0" stop-color="#ffc566"/><stop offset="0.1" stop-color="#e8a840"/><stop offset="0.27" stop-color="#fffeb7"/><stop offset="0.5" stop-color="#fec973"/><stop offset="0.68" stop-color="#ffb"/><stop offset="0.79" stop-color="#ffce7c"/><stop offset="1" stop-color="#dc9c31"/></linearGradient><linearGradient id="Degradado_sin_nombre_174-2" x1="-1275.41" y1="49.75" x2="-1227.01" y2="94.22" gradientTransform="matrix(-0.97, -0.25, -0.25, 0.97, -922.5, -165.08)" xlink:href="#Degradado_sin_nombre_174"/><linearGradient id="Degradado_sin_nombre_174-3" x1="-1274.41" y1="124.75" x2="-1250.48" y2="146.73" gradientTransform="matrix(-0.97, -0.25, -0.25, 0.97, -922.5, -165.08)" xlink:href="#Degradado_sin_nombre_174"/><linearGradient id="Degradado_sin_nombre_174-4" x1="-1113.46" y1="174.33" x2="-1089.53" y2="196.31" gradientTransform="matrix(-0.97, -0.25, -0.25, 0.97, -922.5, -165.08)" xlink:href="#Degradado_sin_nombre_174"/><linearGradient id="Degradado_sin_nombre_174-5" x1="-992.23" y1="554.52" x2="-968.3" y2="576.51" gradientTransform="matrix(-0.91, 0.41, 0.41, 0.91, -1010.64, 53.47)" xlink:href="#Degradado_sin_nombre_174"/><linearGradient id="Degradado_sin_nombre_174-6" x1="-1104.45" y1="601.61" x2="-1080.52" y2="623.6" gradientTransform="matrix(-0.91, 0.41, 0.41, 0.91, -1010.64, 53.47)" xlink:href="#Degradado_sin_nombre_174"/></defs><g class="cls-1"><g id="Layer_1" data-name="Layer 1"><rect class="cls-2" x="0.83" y="1.18" width="360.75" height="502.82"/><g class="cls-3"><rect class="cls-4" x="0.09" y="211.78" width="360.75" height="26.3"/><rect class="cls-4" x="0.09" y="264.7" width="360.75" height="26.3"/><rect class="cls-4" x="0.09" y="317.62" width="360.75" height="26.3"/><rect class="cls-4" x="0.09" y="370.54" width="360.75" height="26.3"/><rect class="cls-4" x="0.09" y="0.11" width="360.75" height="26.3"/><rect class="cls-4" x="0.09" y="53.03" width="360.75" height="26.3"/><rect class="cls-4" x="0.09" y="105.95" width="360.75" height="26.3"/><rect class="cls-4" x="0.09" y="158.87" width="360.75" height="26.3"/><rect class="cls-4" x="0.09" y="423.46" width="360.75" height="26.3"/><rect class="cls-4" x="0.09" y="476.37" width="360.75" height="26.3"/></g><path class="cls-5" d="M286.64,468.5c-17.89,0-17.89-4.95-35.78-4.95S233,468.5,215.08,468.5s-17.9-4.95-35.79-4.95-17.89,4.95-35.78,4.95-17.9-4.95-35.79-4.95-17.9,4.95-35.79,4.95c-3.85,0-6.94-5.37-10.49-6.32s-9,2.1-12.24.24-3.26-8.09-5.9-10.73-8.85-2.64-10.74-5.9,1.23-8.58.25-12.25-6.33-6.64-6.33-10.48c0-28.28,5-28.28,5-56.55s-5-28.28-5-56.56,5-28.27,5-56.55-5-28.28-5-56.55,5-28.28,5-56.56-5-28.28-5-56.56c0-3.85,5.38-6.94,6.33-10.49s-2.11-9-.25-12.24,8.09-3.26,10.74-5.9,2.64-8.85,5.9-10.74,8.57,1.23,12.24.25,6.64-6.33,10.49-6.33c17.89,0,17.89,5,35.78,5s17.89-5,35.79-5,17.89,5,35.78,5,17.89-5,35.79-5,17.89,5,35.78,5,17.9-5,35.79-5c3.85,0,6.94,5.38,10.49,6.33s9-2.11,12.24-.25,3.26,8.09,5.91,10.74S324.12,57.74,326,61s-1.23,8.57-.24,12.24,6.32,6.64,6.32,10.49c0,28.27-4.95,28.27-4.95,56.55s4.95,28.27,4.95,56.55-4.95,28.28-4.95,56.55,4.95,28.28,4.95,56.56-4.95,28.28-4.95,56.56,4.95,28.28,4.95,56.56c0,3.84-5.38,6.93-6.32,10.48s2.1,9,.24,12.25-8.09,3.25-10.73,5.9-2.65,8.84-5.91,10.73-8.57-1.22-12.24-.24S290.49,468.5,286.64,468.5Z"/><path class="cls-6" d="M286.64,471a59.73,59.73,0,0,1-18.55-2.57,63.56,63.56,0,0,0-34.46,0A59.73,59.73,0,0,1,215.08,471a59.75,59.75,0,0,1-18.56-2.57A55.33,55.33,0,0,0,179.29,466a55.33,55.33,0,0,0-17.23,2.38A59.73,59.73,0,0,1,143.51,471,59.75,59.75,0,0,1,125,468.41,55.33,55.33,0,0,0,107.72,466a55.45,55.45,0,0,0-17.24,2.38A59.68,59.68,0,0,1,71.93,471c-3.07,0-5.45-2.07-7.55-3.91a12,12,0,0,0-3.58-2.5,12.16,12.16,0,0,0-4.55.37c-2.69.52-5.73,1.11-8.29-.37s-3.61-4.46-4.51-7.07a11.73,11.73,0,0,0-1.91-4.06,11.86,11.86,0,0,0-4-1.9c-2.61-.9-5.57-1.92-7.07-4.51s-.89-5.61-.38-8.3a11.94,11.94,0,0,0,.37-4.55,11.65,11.65,0,0,0-2.5-3.58c-1.83-2.1-3.91-4.48-3.91-7.54a143,143,0,0,1,2.52-28.71A137.72,137.72,0,0,0,29,366.51a137.76,137.76,0,0,0-2.44-27.85A143,143,0,0,1,24,310a143,143,0,0,1,2.52-28.7A137.84,137.84,0,0,0,29,253.4a137.84,137.84,0,0,0-2.44-27.85A142.9,142.9,0,0,1,24,196.85a143,143,0,0,1,2.52-28.71A137.84,137.84,0,0,0,29,140.29a137.76,137.76,0,0,0-2.44-27.85A143.1,143.1,0,0,1,24,83.73c0-3.07,2.08-5.45,3.91-7.55a11.65,11.65,0,0,0,2.5-3.58A11.94,11.94,0,0,0,30,68.05c-.51-2.68-1.1-5.73.38-8.29s4.46-3.62,7.07-4.51a11.67,11.67,0,0,0,4-1.91,11.67,11.67,0,0,0,1.91-4.05c.9-2.61,1.91-5.57,4.51-7.07s5.61-.9,8.29-.38a11.94,11.94,0,0,0,4.55.37,11.65,11.65,0,0,0,3.58-2.5c2.1-1.83,4.48-3.91,7.55-3.91a60,60,0,0,1,18.55,2.57,55,55,0,0,0,17.23,2.39,55,55,0,0,0,17.23-2.39A60.06,60.06,0,0,1,143.5,35.8a60,60,0,0,1,18.55,2.57,55,55,0,0,0,17.23,2.39,55,55,0,0,0,17.23-2.39,60,60,0,0,1,18.55-2.57,60.06,60.06,0,0,1,18.56,2.57,55,55,0,0,0,17.23,2.39,55,55,0,0,0,17.24-2.39,60,60,0,0,1,18.55-2.57c3.07,0,5.45,2.08,7.55,3.91a11.65,11.65,0,0,0,3.58,2.5,12,12,0,0,0,4.55-.37c2.69-.52,5.73-1.1,8.29.38s3.62,4.46,4.51,7.07A11.86,11.86,0,0,0,317,53.34a11.73,11.73,0,0,0,4.06,1.91c2.6.9,5.56,1.91,7.06,4.51s.9,5.61.38,8.29a11.94,11.94,0,0,0-.37,4.55,11.65,11.65,0,0,0,2.5,3.58c1.83,2.1,3.91,4.48,3.91,7.55a142.9,142.9,0,0,1-2.52,28.7,137.84,137.84,0,0,0-2.44,27.85,137.92,137.92,0,0,0,2.44,27.85,142.9,142.9,0,0,1,2.52,28.7,142.9,142.9,0,0,1-2.52,28.7,137.92,137.92,0,0,0-2.44,27.85,137.76,137.76,0,0,0,2.44,27.85,143,143,0,0,1,2.52,28.71,142.9,142.9,0,0,1-2.52,28.7,138,138,0,0,0-2.44,27.86,137.84,137.84,0,0,0,2.44,27.85,142.94,142.94,0,0,1,2.52,28.71c0,3.06-2.08,5.44-3.91,7.55a11.51,11.51,0,0,0-2.5,3.57,11.94,11.94,0,0,0,.37,4.55c.52,2.69,1.1,5.73-.38,8.3s-4.46,3.61-7.07,4.5a12.14,12.14,0,0,0-4.05,1.91,11.73,11.73,0,0,0-1.91,4.06c-.89,2.61-1.91,5.56-4.51,7.07s-5.6.89-8.29.37a12.15,12.15,0,0,0-4.55-.37,12,12,0,0,0-3.58,2.5C292.09,468.91,289.71,471,286.64,471Zm-35.78-9.91a60,60,0,0,1,18.55,2.57A55.07,55.07,0,0,0,286.64,466c1.21,0,2.78-1.37,4.3-2.69,1.68-1.47,3.42-3,5.55-3.56s4.53-.14,6.77.29c1.92.38,3.91.76,4.87.21s1.66-2.52,2.3-4.39c.74-2.14,1.5-4.36,3.09-5.95s3.81-2.36,6-3.09c1.87-.65,3.81-1.31,4.38-2.3s.17-2.95-.2-4.88c-.43-2.24-.88-4.56-.29-6.77s2.09-3.87,3.56-5.55c1.32-1.52,2.68-3.08,2.68-4.29a137.22,137.22,0,0,0-2.44-27.86,143.84,143.84,0,0,1-2.51-28.7,143.88,143.88,0,0,1,2.51-28.71,137.1,137.1,0,0,0,2.44-27.85,137,137,0,0,0-2.44-27.85,144,144,0,0,1-2.51-28.71,143.84,143.84,0,0,1,2.51-28.7,137.1,137.1,0,0,0,2.44-27.85A137.1,137.1,0,0,0,327.17,169a143.84,143.84,0,0,1-2.51-28.7,143.76,143.76,0,0,1,2.51-28.7,137.18,137.18,0,0,0,2.44-27.85c0-1.21-1.36-2.78-2.68-4.29-1.47-1.69-3-3.43-3.56-5.56s-.14-4.53.29-6.77c.37-1.92.76-3.91.2-4.87s-2.51-1.66-4.38-2.3c-2.15-.74-4.36-1.5-6-3.09s-2.35-3.81-3.09-6c-.64-1.88-1.3-3.82-2.3-4.39s-2.95-.17-4.87.2c-2.24.43-4.56.88-6.77.29s-3.87-2.09-5.55-3.55c-1.52-1.33-3.09-2.69-4.3-2.69a55,55,0,0,0-17.23,2.39,60.13,60.13,0,0,1-18.56,2.56,60.1,60.1,0,0,1-18.55-2.56,55,55,0,0,0-17.24-2.39,55,55,0,0,0-17.22,2.39,60.18,60.18,0,0,1-18.56,2.56,60.05,60.05,0,0,1-18.55-2.56,55,55,0,0,0-17.23-2.39,55,55,0,0,0-17.23,2.39,60.13,60.13,0,0,1-18.56,2.56,60.1,60.1,0,0,1-18.55-2.56,55,55,0,0,0-17.23-2.39c-1.21,0-2.78,1.36-4.29,2.69-1.69,1.46-3.43,3-5.56,3.55s-4.53.14-6.77-.29c-1.92-.37-3.91-.76-4.87-.2S48.78,49,48.14,50.9c-.74,2.14-1.5,4.35-3.09,6s-3.81,2.35-5.95,3.09c-1.88.64-3.82,1.31-4.39,2.3s-.17,2.95.2,4.87c.43,2.24.88,4.56.29,6.77s-2.09,3.87-3.55,5.56C30.33,81,29,82.52,29,83.73a137.1,137.1,0,0,0,2.44,27.85,143.2,143.2,0,0,1,2.51,28.71A143.28,143.28,0,0,1,31.4,169,137,137,0,0,0,29,196.85,137.18,137.18,0,0,0,31.4,224.7a143.08,143.08,0,0,1,2.51,28.7,143.28,143.28,0,0,1-2.51,28.71A137,137,0,0,0,29,310,137,137,0,0,0,31.4,337.8a143.2,143.2,0,0,1,2.51,28.71,143.16,143.16,0,0,1-2.51,28.7A137,137,0,0,0,29,423.06c0,1.21,1.37,2.77,2.69,4.29,1.46,1.68,3,3.42,3.55,5.55s.14,4.53-.29,6.77c-.37,1.93-.76,3.92-.2,4.88s2.51,1.65,4.39,2.3c2.14.73,4.35,1.49,5.95,3.09s2.35,3.81,3.09,5.95c.64,1.87,1.31,3.81,2.3,4.39s3,.17,4.87-.21c2.24-.43,4.56-.87,6.77-.29s3.87,2.09,5.56,3.56c1.51,1.32,3.08,2.69,4.29,2.69a55,55,0,0,0,17.23-2.39,60.06,60.06,0,0,1,18.56-2.57,60,60,0,0,1,18.55,2.57A55.09,55.09,0,0,0,143.51,466a55,55,0,0,0,17.23-2.39,60,60,0,0,1,18.55-2.57,60.11,60.11,0,0,1,18.56,2.57A55,55,0,0,0,215.08,466a55,55,0,0,0,17.23-2.39A60,60,0,0,1,250.86,461.07Z"/><path class="cls-7" d="M286.64,35.8c3.07,0,5.45,2.08,7.55,3.91a11.65,11.65,0,0,0,3.58,2.5,4,4,0,0,0,1,.12,20.16,20.16,0,0,0,3.52-.49,23.75,23.75,0,0,1,4.41-.56,7.58,7.58,0,0,1,3.88.94c2.6,1.5,3.62,4.46,4.51,7.07A11.86,11.86,0,0,0,317,53.34a11.73,11.73,0,0,0,4.06,1.91c2.6.9,5.56,1.91,7.06,4.51s.9,5.61.38,8.29a11.94,11.94,0,0,0-.37,4.55,11.65,11.65,0,0,0,2.5,3.58c1.83,2.1,3.91,4.48,3.91,7.55a142.9,142.9,0,0,1-2.52,28.7,137.84,137.84,0,0,0-2.44,27.85,137.92,137.92,0,0,0,2.44,27.85,142.9,142.9,0,0,1,2.52,28.7,142.9,142.9,0,0,1-2.52,28.7,137.92,137.92,0,0,0-2.44,27.85,137.76,137.76,0,0,0,2.44,27.85,143,143,0,0,1,2.52,28.71,142.9,142.9,0,0,1-2.52,28.7,138,138,0,0,0-2.44,27.86,137.84,137.84,0,0,0,2.44,27.85,142.94,142.94,0,0,1,2.52,28.71c0,3.06-2.08,5.44-3.91,7.55a11.51,11.51,0,0,0-2.5,3.57,11.94,11.94,0,0,0,.37,4.55c.52,2.69,1.1,5.73-.38,8.3s-4.46,3.61-7.07,4.5a12.14,12.14,0,0,0-4.05,1.91,11.73,11.73,0,0,0-1.91,4.06c-.89,2.61-1.91,5.56-4.51,7.07a7.57,7.57,0,0,1-3.87.94,23.86,23.86,0,0,1-4.42-.57,20.08,20.08,0,0,0-3.52-.48,4.07,4.07,0,0,0-1,.11,12,12,0,0,0-3.58,2.5c-2.1,1.84-4.48,3.91-7.55,3.91a59.73,59.73,0,0,1-18.55-2.57,63.56,63.56,0,0,0-34.46,0A59.73,59.73,0,0,1,215.08,471a59.75,59.75,0,0,1-18.56-2.57A55.33,55.33,0,0,0,179.29,466a55.33,55.33,0,0,0-17.23,2.38A59.73,59.73,0,0,1,143.51,471,59.75,59.75,0,0,1,125,468.41,55.33,55.33,0,0,0,107.72,466a55.45,55.45,0,0,0-17.24,2.38A59.68,59.68,0,0,1,71.93,471c-3.07,0-5.45-2.07-7.55-3.91a12,12,0,0,0-3.58-2.5,4,4,0,0,0-1-.11,20.2,20.2,0,0,0-3.52.48,23.76,23.76,0,0,1-4.41.57,7.58,7.58,0,0,1-3.88-.94c-2.6-1.51-3.61-4.46-4.51-7.07a11.73,11.73,0,0,0-1.91-4.06,11.86,11.86,0,0,0-4-1.9c-2.61-.9-5.57-1.92-7.07-4.51s-.89-5.61-.38-8.3a11.94,11.94,0,0,0,.37-4.55,11.65,11.65,0,0,0-2.5-3.58c-1.83-2.1-3.91-4.48-3.91-7.54a143,143,0,0,1,2.52-28.71A137.72,137.72,0,0,0,29,366.51a137.76,137.76,0,0,0-2.44-27.85A143,143,0,0,1,24,310a143,143,0,0,1,2.52-28.7A137.84,137.84,0,0,0,29,253.4a137.84,137.84,0,0,0-2.44-27.85A142.9,142.9,0,0,1,24,196.85a143,143,0,0,1,2.52-28.71A137.84,137.84,0,0,0,29,140.29a137.76,137.76,0,0,0-2.44-27.85A143.1,143.1,0,0,1,24,83.73c0-3.07,2.08-5.45,3.91-7.55a11.65,11.65,0,0,0,2.5-3.58A11.94,11.94,0,0,0,30,68.05c-.51-2.68-1.1-5.73.38-8.29s4.46-3.62,7.07-4.51a11.67,11.67,0,0,0,4-1.91,11.67,11.67,0,0,0,1.91-4.05c.9-2.61,1.91-5.57,4.51-7.07a7.61,7.61,0,0,1,3.88-.94,23.75,23.75,0,0,1,4.41.56,20.16,20.16,0,0,0,3.52.49,4,4,0,0,0,1-.12,11.65,11.65,0,0,0,3.58-2.5c2.1-1.83,4.48-3.91,7.55-3.91a60,60,0,0,1,18.55,2.57,55,55,0,0,0,17.23,2.39,55,55,0,0,0,17.23-2.39A60.06,60.06,0,0,1,143.5,35.8a60,60,0,0,1,18.55,2.57,55,55,0,0,0,17.23,2.39,55,55,0,0,0,17.23-2.39,60,60,0,0,1,18.55-2.57,60.06,60.06,0,0,1,18.56,2.57,55,55,0,0,0,17.23,2.39,55,55,0,0,0,17.24-2.39,60,60,0,0,1,18.55-2.57m0-3.72a63.84,63.84,0,0,0-19.55,2.71A51.26,51.26,0,0,1,250.85,37a51.36,51.36,0,0,1-16.24-2.25,63.78,63.78,0,0,0-19.55-2.71,63.76,63.76,0,0,0-19.54,2.71A51.26,51.26,0,0,1,179.28,37,51.26,51.26,0,0,1,163,34.79a63.76,63.76,0,0,0-19.54-2.71A63.78,63.78,0,0,0,124,34.79,51.26,51.26,0,0,1,107.71,37a51.36,51.36,0,0,1-16.24-2.25,63.71,63.71,0,0,0-19.54-2.71c-4.46,0-7.66,2.79-10,4.83a20.17,20.17,0,0,1-2.12,1.7h0A19,19,0,0,1,57,38.2a26.74,26.74,0,0,0-5.14-.64A11.12,11.12,0,0,0,46.1,39c-3.81,2.2-5.17,6.18-6.16,9.08a18.07,18.07,0,0,1-1,2.62,18.14,18.14,0,0,1-2.62,1c-2.9,1-6.88,2.37-9.08,6.17s-1.38,7.86-.81,10.86a18.53,18.53,0,0,1,.42,2.85,19.19,19.19,0,0,1-1.7,2.12c-2,2.34-4.82,5.54-4.82,10a146,146,0,0,0,2.57,29.34,135.07,135.07,0,0,1,2.38,27.22,134.87,134.87,0,0,1-2.38,27.21,146.16,146.16,0,0,0-2.57,29.35,146,146,0,0,0,2.57,29.34,134.87,134.87,0,0,1,2.38,27.21,134.67,134.67,0,0,1-2.38,27.2A146.24,146.24,0,0,0,20.29,310a146.08,146.08,0,0,0,2.57,29.35,134.87,134.87,0,0,1,2.38,27.21,134.83,134.83,0,0,1-2.38,27.2,146.08,146.08,0,0,0-2.57,29.35c0,4.46,2.78,7.65,4.82,10a19,19,0,0,1,1.7,2.12A19.69,19.69,0,0,1,26.4,438c-.58,3-1.38,7.1.8,10.87s6.18,5.16,9.08,6.16a19.38,19.38,0,0,1,2.62,1,18.62,18.62,0,0,1,1,2.62c1,2.91,2.36,6.88,6.16,9.08a11.19,11.19,0,0,0,5.75,1.44,26.24,26.24,0,0,0,5.1-.63,20,20,0,0,1,2.83-.41h0a20,20,0,0,1,2.12,1.69c2.33,2,5.53,4.83,10,4.83A64.09,64.09,0,0,0,91.47,472a51.33,51.33,0,0,1,16.25-2.26A51.3,51.3,0,0,1,124,472a64.22,64.22,0,0,0,19.55,2.7,64.15,64.15,0,0,0,19.54-2.7,51.3,51.3,0,0,1,16.24-2.26A51.21,51.21,0,0,1,195.53,472a64.22,64.22,0,0,0,19.55,2.7,64.15,64.15,0,0,0,19.54-2.7,59.48,59.48,0,0,1,32.48,0,64.15,64.15,0,0,0,19.54,2.7c4.46,0,7.66-2.79,10-4.82a20.17,20.17,0,0,1,2.12-1.7h.05a19.2,19.2,0,0,1,2.81.41,26.76,26.76,0,0,0,5.13.63,11.18,11.18,0,0,0,5.74-1.44c3.8-2.2,5.16-6.17,6.16-9.08a19.92,19.92,0,0,1,1-2.62,19.38,19.38,0,0,1,2.62-1c2.9-1,6.88-2.36,9.08-6.16s1.39-7.87.81-10.86a18.82,18.82,0,0,1-.42-2.86,20.17,20.17,0,0,1,1.7-2.12c2-2.34,4.83-5.54,4.83-10a145.9,145.9,0,0,0-2.58-29.35,134.87,134.87,0,0,1-2.38-27.21,134.87,134.87,0,0,1,2.38-27.21,146,146,0,0,0,2.58-29.35,145.9,145.9,0,0,0-2.58-29.35,134.87,134.87,0,0,1-2.38-27.21,134.83,134.83,0,0,1,2.38-27.2,146,146,0,0,0,2.58-29.35,145.79,145.79,0,0,0-2.58-29.34,135,135,0,0,1-2.38-27.21,134.67,134.67,0,0,1,2.38-27.2,146.06,146.06,0,0,0,2.58-29.35c0-4.46-2.79-7.66-4.83-10a19.22,19.22,0,0,1-1.7-2.13,18.25,18.25,0,0,1,.42-2.84c.58-3,1.37-7.11-.81-10.87s-6.17-5.17-9.08-6.17a17.47,17.47,0,0,1-2.62-1,19.73,19.73,0,0,1-1-2.61c-1-2.91-2.36-6.89-6.16-9.09a11.19,11.19,0,0,0-5.75-1.44,27.36,27.36,0,0,0-5.12.63,18.1,18.1,0,0,1-2.81.42h-.05a19.17,19.17,0,0,1-2.11-1.7c-2.34-2-5.54-4.83-10-4.83Z"/><path class="cls-8" d="M179,24.16a.81.81,0,0,1,.31-.05.76.76,0,0,1,.3.05.66.66,0,0,1,.21.08,1.07,1.07,0,0,1,.44.43.49.49,0,0,1,.08.21.76.76,0,0,1,.05.3.73.73,0,0,1-.05.3.5.5,0,0,1-.08.2.94.94,0,0,1-.44.44.66.66,0,0,1-.21.08.76.76,0,0,1-.3.05.81.81,0,0,1-.31-.05.54.54,0,0,1-.19-.08,1,1,0,0,1-.44-.42,1.2,1.2,0,0,1-.13-.52.76.76,0,0,1,0-.3.5.5,0,0,1,.08-.2,1,1,0,0,1,.44-.44A.54.54,0,0,1,179,24.16Z"/><path class="cls-9" d="M177.93,19.65a1.4,1.4,0,0,1,2.71,0l.07.25.17-.18a1.4,1.4,0,0,1,2.34,1.37l-.07.22.24-.07a1.4,1.4,0,0,1,1.34,2.36l-.15.17.23.05a1.4,1.4,0,0,1,0,2.71l-.23.06.15.18a1.4,1.4,0,0,1-1.34,2.35l-.24-.07.07.23a1.4,1.4,0,0,1-2.34,1.36l-.17-.17-.07.23a1.4,1.4,0,0,1-2.71,0l-.06-.23-.18.17a1.4,1.4,0,0,1-2.34-1.36l.07-.23-.24.07a1.4,1.4,0,0,1-1.36-2.35l.17-.18-.23-.06a1.4,1.4,0,0,1,0-2.71l.23-.05-.17-.17a1.41,1.41,0,0,1,1.36-2.36l.24.07-.07-.22a1.4,1.4,0,0,1,2.34-1.37l.18.18Z"/><path class="cls-10" d="M179.29,35a2,2,0,0,1-2-1.58l-.1-.35-.26.25a2.1,2.1,0,0,1-3.51-2l.09-.34-.34.09a2.1,2.1,0,0,1-2-3.51l.27-.25-.38-.09a2.1,2.1,0,0,1,0-4.07l.38-.1-.27-.25a2.1,2.1,0,0,1,2-3.51l.34.09-.09-.34a2.1,2.1,0,0,1,3.51-2l.26.25.1-.37a2.1,2.1,0,0,1,4.05,0l.1.37.26-.25a2.1,2.1,0,0,1,3.51,2l-.1.34.36-.09a2.09,2.09,0,0,1,2,3.51l-.26.25.37.1a2.1,2.1,0,0,1,0,4.07l-.37.09.26.25a2.09,2.09,0,0,1-2,3.51l-.36-.09.1.34a2.1,2.1,0,0,1-3.52,2l-.25-.25-.1.35A2.05,2.05,0,0,1,179.29,35Zm-1.36-4.34a1.4,1.4,0,0,0,2.71,0l.07-.23.17.17a1.4,1.4,0,0,0,2.34-1.36l-.07-.23.24.07a1.4,1.4,0,0,0,1.34-2.35l-.15-.18.23-.06a1.4,1.4,0,0,0,0-2.71l-.23-.05.15-.17a1.4,1.4,0,0,0-1.34-2.36l-.24.07.07-.22a1.4,1.4,0,0,0-2.34-1.37l-.17.18-.07-.25a1.4,1.4,0,0,0-2.71,0l-.06.25-.18-.18a1.4,1.4,0,0,0-2.34,1.37l.07.22-.24-.07a1.41,1.41,0,0,0-1.36,2.36l.17.17-.23.05a1.4,1.4,0,0,0,0,2.71l.23.06-.17.18a1.4,1.4,0,0,0,1.36,2.35l.24-.07-.07.23a1.4,1.4,0,0,0,2.34,1.36l.18-.17Z"/><path class="cls-11" d="M176.08,25.18a3.21,3.21,0,1,1,3.21,3.21A3.21,3.21,0,0,1,176.08,25.18Z"/><path class="cls-12" d="M178.35,25.18a.94.94,0,1,1,.94.94A.94.94,0,0,1,178.35,25.18Z"/><path class="cls-13" d="M207.05,36.53c7.91-6-3.11-11.83-9.42-10-9.29,2.63-14.29,15.31-9,23.33,6.55,9.95,20.68,11.58,31.53,11.28a85.8,85.8,0,0,0,22.06-3.9,179.34,179.34,0,0,1,31.86-6.41,113.17,113.17,0,0,1,31.08,1c2.44.41,17.82,3.16,13.67,6.95-.64.58.19,1.65.83,1.06,6.07-5.52-7.85-8-11-8.63-16.26-3-32.5-2.25-48.75.46-17.76,3-33.8,10.8-52.22,7.56-8.26-1.45-19.34-6.22-19.9-16a16.37,16.37,0,0,1,6.65-13.57,10.87,10.87,0,0,1,7.07-2.16,15.79,15.79,0,0,1,3.78.78q5.34,1.47,1.61,8.06a.15.15,0,0,0,.19.24Z"/><path class="cls-14" d="M275.75,44.82c3.47,1,6.87,2.83,10.52,2.76,4.71-.1,8.49.29,12.67,2.71.36.21.75-.38.4-.61-1.75-1.14-3.57-2.16-5.34-3.26-2.39-1.47-4.67-3.67-7.19-4.89-3.45-1.68-8.89-.65-11.45,2.18a.68.68,0,0,0,.39,1.11Z"/><path class="cls-15" d="M264.66,58.82c3.39.15,8.31.31,11.51-.88s4.75-5.63,7.69-7.61c.47-.32,0-1.07-.48-.75A34.06,34.06,0,0,1,279,52.19c-1.41.66-2.83.6-4.23,1.13-1.88.71-3.38,2.1-5.29,2.83a37.79,37.79,0,0,0-5,2c-.33.18-.12.63.2.64Z"/><path class="cls-16" d="M180.07,52.1c2,2,3.84,4.31,6.63,5,2.63.68,5.7-.5,8.28-1,.32-.06.44-.62,0-.65-3.16-.23-4.89-2.47-7.76-3.42-2.15-.71-4.77-.51-7-.4a.28.28,0,0,0-.15.48Z"/><path class="cls-17" d="M194.7,36.56c-.8.92-1,2.11-1.72,3.13s-1.73,2.13-2.37,3.33c-1.08,2-1,5.07-1.11,7.34,0,.48.75.55.84.08.43-2.25,1.62-2.64,3.11-3.91a7.91,7.91,0,0,0,2.17-3.33c.7-1.89,1.19-5.13-.43-6.66a.35.35,0,0,0-.49,0Z"/><path class="cls-18" d="M215.83,53.94c3.24.4,6.11,2.64,9.24,3.39s6.86.28,10.1.58c.26,0,.37-.36.1-.42-4-.84-6.52-4.05-10.39-4.77a16.81,16.81,0,0,0-9,1c-.1,0-.11.21,0,.22Z"/><path class="cls-19" d="M240.67,61.11c3.2.11,6.07.36,9-1.08A9.84,9.84,0,0,0,253,58c1.11-1.34,1.21-3,2.54-4.34.27-.26-.18-.65-.44-.38-1.24,1.35-2.9,1.26-4.4,1.84-1.17.45-2.2,1.31-3.36,1.82-2.35,1-4.5,2.49-6.84,3.6a.31.31,0,0,0,.14.6Z"/><path class="cls-20" d="M199.25,25.13c.57-3.83,6.55.58,8.39,4.29v0a3.25,3.25,0,0,0-1.42.89,2.77,2.77,0,0,0-.51.72C204.9,30.81,198.72,28.71,199.25,25.13Z"/><path class="cls-21" d="M205.63,33.8c-.61.39-6.28,3.91-8.7,1.15-2.56-2.91,4.63-4.67,8.65-3.68l0,0A3.11,3.11,0,0,0,205.63,33.8Z"/><path class="cls-22" d="M210.78,30.21a3.1,3.1,0,0,0-2.34-.86c-.17-.79-1.51-7.26,1.87-8.6,3.59-1.42,2.79,6,.5,9.44Z"/><path class="cls-23" d="M218.7,26.32c3.4,1.86-2.75,6-6.85,6.44h-.06a3.19,3.19,0,0,0-.85-2.36C211.43,29.74,215.52,24.58,218.7,26.32Z"/><path class="cls-24" d="M211.77,33a3.12,3.12,0,0,1-.83,1.79,4,4,0,0,1-.44.38l-.18.14a3.19,3.19,0,0,1-2.46.41.9.9,0,0,1-.22-.06,3.15,3.15,0,0,1-1.25-.72,3.29,3.29,0,0,1-.67-.92,1,1,0,0,1-.09-.21,3.11,3.11,0,0,1,0-2.5l.09-.22a2.77,2.77,0,0,1,.51-.72,3.25,3.25,0,0,1,1.42-.89,2.9,2.9,0,0,1,.79-.12,3.1,3.1,0,0,1,2.34.86,1.35,1.35,0,0,1,.16.19,3.19,3.19,0,0,1,.85,2.36A2,2,0,0,1,211.77,33Z"/><path class="cls-25" d="M205.67,34l.05,0a3.29,3.29,0,0,0,.67.92,3.15,3.15,0,0,0,1.25.72c-.11.82-1.08,7.34-4.7,7.42C199.08,43.18,202.34,36.49,205.67,34Z"/><path class="cls-26" d="M210.94,34.78a3.12,3.12,0,0,0,.83-1.79c.79,0,7.38-.2,8.11,3.37.77,3.8-6.35,1.72-9.34-1.16l0,0A4,4,0,0,0,210.94,34.78Z"/><path class="cls-27" d="M207.86,35.71a3.19,3.19,0,0,0,2.46-.41c.58.62,4.9,5.56,2.66,8.39-2.4,3-5.41-3.79-5.13-7.94Z"/><g class="cls-28"><path class="cls-29" d="M209.05,29.93a.19.19,0,0,1,.23.12.18.18,0,0,1-.35.11A.19.19,0,0,1,209.05,29.93Z"/></g><g class="cls-28"><path class="cls-30" d="M207.11,30.52a.18.18,0,0,1,.23.12.18.18,0,0,1-.35.11A.18.18,0,0,1,207.11,30.52Z"/></g><g class="cls-28"><path class="cls-31" d="M208,29.66a.19.19,0,0,1,.23.13.18.18,0,0,1-.35.1A.19.19,0,0,1,208,29.66Z"/></g><g class="cls-28"><path class="cls-32" d="M206.14,30.94a.18.18,0,0,1,.22.12.18.18,0,0,1-.12.23.17.17,0,0,1-.22-.12A.18.18,0,0,1,206.14,30.94Z"/></g><g class="cls-28"><path class="cls-33" d="M208.32,32.25a.18.18,0,0,1-.14.22.2.2,0,0,1-.22-.13.18.18,0,0,1,.14-.22A.18.18,0,0,1,208.32,32.25Z"/></g><g class="cls-28"><path class="cls-34" d="M208.14,33.31a.17.17,0,0,1-.13.22.19.19,0,1,1,.13-.22Z"/></g><g class="cls-28"><path class="cls-35" d="M206.84,31.93a.29.29,0,0,1,.17.55.29.29,0,0,1-.17-.55Z"/></g><g class="cls-28"><path class="cls-36" d="M205.94,33.2a.29.29,0,0,1,.36.19.28.28,0,0,1-.19.35.27.27,0,0,1-.35-.19A.27.27,0,0,1,205.94,33.2Z"/></g><g class="cls-28"><path class="cls-37" d="M208.86,34.08a.28.28,0,0,1,.35.19.29.29,0,0,1-.19.36.29.29,0,0,1-.16-.55Z"/></g><g class="cls-28"><path class="cls-38" d="M209.73,32.44a.29.29,0,0,1,.36.19.28.28,0,0,1-.19.35.29.29,0,0,1-.36-.19A.28.28,0,0,1,209.73,32.44Z"/></g><g class="cls-28"><path class="cls-39" d="M209.34,30.88a.29.29,0,0,1,.17.55.29.29,0,0,1-.17-.55Z"/></g><g class="cls-28"><path class="cls-40" d="M209.72,33.63a.19.19,0,0,1,.23.12.18.18,0,0,1-.12.23.18.18,0,0,1-.11-.35Z"/></g><g class="cls-28"><path class="cls-41" d="M210.44,31.54a.18.18,0,0,1,.23.12.19.19,0,0,1-.12.23.19.19,0,0,1-.23-.13A.18.18,0,0,1,210.44,31.54Z"/></g><g class="cls-28"><path class="cls-42" d="M210.52,34.41a.17.17,0,0,1,.22.12.18.18,0,0,1-.12.23.2.2,0,0,1-.23-.13A.18.18,0,0,1,210.52,34.41Z"/></g><g class="cls-28"><path class="cls-43" d="M210.69,32.36a.19.19,0,0,1,.23.13.18.18,0,0,1-.12.22.18.18,0,1,1-.11-.35Z"/></g><g class="cls-28"><path class="cls-44" d="M210.72,33.68a.1.1,0,0,1,0-.15.1.1,0,0,1,.14,0,.1.1,0,0,1,0,.15A.1.1,0,0,1,210.72,33.68Z"/></g><g class="cls-28"><path class="cls-45" d="M207,33.84a.19.19,0,0,1,.23.13.18.18,0,0,1-.35.1A.19.19,0,0,1,207,33.84Z"/></g><g class="cls-28"><path class="cls-46" d="M206.59,33.23a.1.1,0,0,1,0-.15.1.1,0,0,1,.14,0,.1.1,0,0,1,0,.15A.1.1,0,0,1,206.59,33.23Z"/></g><g class="cls-28"><path class="cls-47" d="M207.87,34.33a.12.12,0,0,1,0-.15.11.11,0,0,1,.16.14A.12.12,0,0,1,207.87,34.33Z"/></g><g class="cls-28"><path class="cls-48" d="M208.42,35.17a.11.11,0,0,1,.14-.16.12.12,0,0,1,0,.15A.11.11,0,0,1,208.42,35.17Z"/></g><g class="cls-28"><path class="cls-49" d="M209.66,34.72a.11.11,0,0,1,0-.15.12.12,0,0,1,.15,0,.11.11,0,0,1-.14.16Z"/></g><g class="cls-28"><path class="cls-50" d="M206.83,35.05a.12.12,0,0,1,0-.15.11.11,0,1,1,0,.15Z"/></g><g class="cls-28"><path class="cls-51" d="M208.28,31.5a.12.12,0,0,1,0-.15.11.11,0,1,1,0,.15Z"/></g><g class="cls-28"><path class="cls-52" d="M209.24,32.34a.11.11,0,1,1,.15,0A.11.11,0,0,1,209.24,32.34Z"/></g><g class="cls-28"><path class="cls-53" d="M210.25,30.85a.1.1,0,0,1,0-.14.1.1,0,0,1,.15,0,.1.1,0,0,1,0,.14A.1.1,0,0,1,210.25,30.85Z"/></g><path class="cls-54" d="M230.55,36.23c6.56.25,13.17-.15,19.71.45,6.33.59,12,3.38,18.2,4.39.52.08.62-.72.11-.81-6.26-1.1-11.79-3.88-18.19-4.43-6.58-.57-13.19,0-19.78,0-.27,0-.33.41,0,.42Z"/><path class="cls-55" d="M226.72,42.78c4.79-.24,9.43-3.07,12.67-6.52.3-.31-.19-.83-.53-.55-3.75,3-7.09,6.26-12.18,6.72-.22,0-.18.36,0,.35Z"/><path class="cls-56" d="M234.74,28.79a41,41,0,0,0,4.81,2.91,11.85,11.85,0,0,1,4.76,4.86c.15.27.5,0,.43-.25-1.2-4.3-6.62-5.45-9.81-7.77a.16.16,0,0,0-.19.25Z"/><path class="cls-57" d="M244.81,45.94c2.59-3.46,6.37-5.67,9.59-8.48.33-.29-.06-.85-.41-.56-3.37,2.76-7.16,5-9.78,8.55-.29.41.3.89.6.49Z"/><path class="cls-58" d="M254.76,30.08a14.18,14.18,0,0,1,4.6,7.9c.06.32.55.27.5,0a14.84,14.84,0,0,0-4.69-8.36c-.31-.29-.72.23-.41.51Z"/><path class="cls-59" d="M254.34,31.68c2.39,0,2.08-3.71-.3-3.71s-2.08,3.71.3,3.71Z"/><path class="cls-60" d="M245,47.36c2.15,0,1.86-3.32-.27-3.32s-1.86,3.32.27,3.32Z"/><path class="cls-61" d="M236.22,31.59c2.78,0,2.32-4.31-.45-4.31s-2.32,4.31.45,4.31Z"/><path class="cls-62" d="M226.79,44.5c2,0,1.76-3-.18-3s-1.75,3,.18,3Z"/><path class="cls-63" d="M230.85,34.33a2.33,2.33,0,1,0-.13,4.61l.14,0a2.2,2.2,0,0,0,1.82-2.4v-.15a2.22,2.22,0,0,0-1.39-1.8l-.11,0,1.2,1.18,0-.06-.27,2.19.05-.08-.86.67.14-.07a2.14,2.14,0,0,0,1.24-2.21,2.17,2.17,0,0,0-1.79-1.79Z"/><path class="cls-8" d="M205.14,51.38a.58.58,0,0,1,.19,0l.18,0,.13,0a.65.65,0,0,1,.26.26.29.29,0,0,1,0,.13.36.36,0,0,1,0,.18.4.4,0,0,1,0,.19.31.31,0,0,1,0,.12.55.55,0,0,1-.26.26.29.29,0,0,1-.13,0l-.18,0a.58.58,0,0,1-.19,0,.22.22,0,0,1-.12,0,.61.61,0,0,1-.27-.26.42.42,0,0,1,0-.12.38.38,0,0,1,0-.19.37.37,0,0,1,0-.18.28.28,0,0,1,0-.12.64.64,0,0,1,.27-.27A.33.33,0,0,1,205.14,51.38Z"/><path class="cls-64" d="M204.51,48.64a.85.85,0,0,1,1.64,0l0,.15.11-.1a.85.85,0,0,1,1.42.82l0,.14.14,0a.85.85,0,0,1,.82,1.43l-.1.1.15,0a.85.85,0,0,1,0,1.64l-.15,0,.1.1a.85.85,0,0,1-.82,1.43l-.14,0,0,.14a.85.85,0,0,1-1.42.83l-.11-.11,0,.15a.85.85,0,0,1-1.64,0l0-.15-.11.11a.85.85,0,0,1-1.42-.83l0-.14-.14,0A.85.85,0,0,1,202,53l.1-.1-.14,0a.85.85,0,0,1,0-1.64l.14,0L202,51a.85.85,0,0,1,.83-1.43l.14,0,0-.14a.85.85,0,0,1,1.42-.82l.11.1Z"/><path class="cls-65" d="M205.33,58a1.24,1.24,0,0,1-1.23-1l-.06-.21-.16.15a1.27,1.27,0,0,1-2.13-1.24l.05-.2-.21,0a1.27,1.27,0,0,1-1.23-2.13l.16-.16-.23,0a1.28,1.28,0,0,1,0-2.47l.23-.06-.16-.15a1.27,1.27,0,0,1,1.23-2.14l.21.06-.05-.21A1.27,1.27,0,0,1,203.88,47l.16.16.06-.23a1.27,1.27,0,0,1,2.46,0l.06.23.16-.16a1.27,1.27,0,0,1,2.13,1.24l-.06.21.22-.06a1.28,1.28,0,0,1,1.23,2.14l-.16.15.23.06a1.28,1.28,0,0,1,0,2.47l-.23,0,.16.16a1.27,1.27,0,0,1-1.23,2.13l-.22,0,.06.2A1.28,1.28,0,0,1,206.77,57l-.15-.15-.06.21A1.25,1.25,0,0,1,205.33,58Zm-.82-2.63a.85.85,0,0,0,1.64,0l0-.15.11.11a.85.85,0,0,0,1.42-.83l0-.14.14,0a.85.85,0,0,0,.82-1.43l-.1-.1.15,0a.85.85,0,0,0,0-1.64l-.15,0,.1-.1a.85.85,0,0,0-.82-1.43l-.14,0,0-.14a.85.85,0,0,0-1.42-.82l-.11.1,0-.15a.85.85,0,0,0-1.64,0l0,.15-.11-.1a.85.85,0,0,0-1.42.82l0,.14-.14,0A.85.85,0,0,0,202,51l.1.1-.14,0a.85.85,0,0,0,0,1.64l.14,0-.1.1a.85.85,0,0,0,.83,1.43l.14,0,0,.14a.85.85,0,0,0,1.42.83l.11-.11Z"/><path class="cls-66" d="M203.38,52a1.95,1.95,0,1,1,2,2A1.95,1.95,0,0,1,203.38,52Z"/><path class="cls-67" d="M204.76,52a.57.57,0,0,1,.57-.57.58.58,0,0,1,.57.57.57.57,0,0,1-.57.57A.56.56,0,0,1,204.76,52Z"/><path class="cls-68" d="M263.25,28.39c.06,2.63-1.3,5.23.34,7.71a4.44,4.44,0,0,0,2.3,1.72c1.64.62,2.11,1.81,3,3.29.27.44.93-.06.64-.5-.44-.69-.87-1.38-1.27-2.09a1.69,1.69,0,0,1,0-2.08,5.66,5.66,0,0,0-.1-2.68c-.84-2.44-3.5-3.27-4.67-5.44a.14.14,0,0,0-.26.07Z"/><path class="cls-69" d="M257,46.33c2.26-.36,4.85,1.27,6.95-.17.86-.59,1.62-1.49,2.46-2.16,1.09-.85,2.07-1.82,3.16-2.67.35-.27,0-.91-.39-.7-1,.48-2,.92-3,1.3a20.18,20.18,0,0,1-3.69.55c-2.28.42-3.57,2.59-5.52,3.66-.09,0-.07.21.05.19Z"/><path class="cls-70" d="M259.84,38.32c1.54,1.21,3.46,1.56,5.31,2,2.65.68,5.24,2,8,1.54a.47.47,0,0,0,0-.92c-2.28-.55-4.66-.92-7-1.3-2.11-.35-4.37-.35-6.25-1.51-.1-.07-.22.07-.12.15Z"/><path class="cls-71" d="M151.71,36.28c-7-6.1,2.68-8.73,5.39-8.83a10.72,10.72,0,0,1,7.08,2.17,16.36,16.36,0,0,1,6.64,13.57c-.57,9.75-11.65,14.53-19.9,16-18.42,3.24-34.46-4.6-52.22-7.56C82.44,48.9,66.2,48.11,50,51.15c-3.22.6-17.1,3.11-11,8.64.65.59,1.46-.5.82-1.08C35.69,55,49.65,52.42,51.94,52A114.68,114.68,0,0,1,76.4,50.1a145,145,0,0,1,31.24,4.53c8.54,2.29,16.77,5.33,25.63,6.14,11.3,1,25.66.54,34.24-8,7.43-7.4,5.29-19.73-3.73-25-6.34-3.71-21.39,1.85-12.26,8.78.16.12.34-.12.19-.25Z"/><path class="cls-72" d="M83.14,43.63c-2.63-2.86-8-3.69-11.47-2-2.19,1.06-4.14,3-6.23,4.27s-4.16,2.47-6.18,3.79c-.41.26,0,.83.42.6C64.2,47.65,68,47.72,73,47.62c3.4-.06,6.72-1.87,10-2.83a.7.7,0,0,0,.21-1.16Z"/><path class="cls-73" d="M94.09,58.17a26.44,26.44,0,0,0-3.79-1.64c-2.22-.8-3.94-2-6-3-1.51-.71-3.18-.7-4.72-1.36a28.11,28.11,0,0,1-4.39-2.59c-.47-.31-.88.47-.41.79,3,2.06,4.56,6.83,8.16,7.78a39.82,39.82,0,0,0,11,.69.35.35,0,0,0,.15-.65Z"/><path class="cls-74" d="M178.31,51.62c-2.31-.11-5.05-.34-7.21.47-2.77,1-4.38,3.11-7.51,3.35a.33.33,0,0,0,0,.65c2.64.55,5.73,1.75,8.41,1s4.59-3.11,6.57-5c.19-.19,0-.44-.22-.45Z"/><path class="cls-75" d="M163.36,36.56c-1.63,1.55-1.11,4.93-.36,6.81a7.82,7.82,0,0,0,2,3.11c1.53,1.28,2.78,1.73,3.21,4,.09.48.86.33.83-.14-.13-2.35-.06-5.39-1.21-7.47-.63-1.14-1.56-2.08-2.27-3.17a28.91,28.91,0,0,0-1.74-3.15.35.35,0,0,0-.49,0Z"/><path class="cls-76" d="M142.73,53.72c-3.24-1.1-6-1.71-9.53-.91-3.66.83-6.1,3.88-9.92,4.69-.23,0-.16.44.08.41,3.14-.29,6.66.12,9.72-.46,3.32-.64,6.25-3.09,9.63-3.5a.12.12,0,0,0,0-.23Z"/><path class="cls-77" d="M118.06,60.52c-2.5-1.2-4.86-2.66-7.38-3.82A32.86,32.86,0,0,0,107.56,55c-1.7-.57-2.73-.21-4.16-1.75-.24-.27-.64.18-.37.44,1.41,1.39,1.46,3.21,2.73,4.53a12.16,12.16,0,0,0,3.61,2.1c2.7,1.28,5.69.92,8.58.82a.31.31,0,0,0,.11-.59Z"/><path class="cls-78" d="M159.32,25.13c-.57-3.83-6.55.58-8.39,4.29v0a3.31,3.31,0,0,1,1.42.89,2.77,2.77,0,0,1,.51.72C153.67,30.81,159.85,28.71,159.32,25.13Z"/><path class="cls-79" d="M152.94,33.8c.61.39,6.28,3.91,8.7,1.15C164.2,32,157,30.28,153,31.27l-.05,0A3.11,3.11,0,0,1,152.94,33.8Z"/><path class="cls-80" d="M147.79,30.21a3.1,3.1,0,0,1,2.34-.86c.17-.79,1.51-7.26-1.87-8.6-3.59-1.42-2.79,6-.5,9.44Z"/><path class="cls-81" d="M139.87,26.32c-3.4,1.86,2.75,6,6.85,6.44h.06a3.19,3.19,0,0,1,.85-2.36C147.14,29.74,143.05,24.58,139.87,26.32Z"/><path class="cls-82" d="M146.8,33a3.12,3.12,0,0,0,.83,1.79,4,4,0,0,0,.44.38l.17.14a3.23,3.23,0,0,0,2.47.41l.22-.06a3.22,3.22,0,0,0,1.25-.72,3.29,3.29,0,0,0,.67-.92,1,1,0,0,0,.09-.21,3.11,3.11,0,0,0,0-2.5l-.09-.22a2.77,2.77,0,0,0-.51-.72,3.31,3.31,0,0,0-1.42-.89,2.9,2.9,0,0,0-.79-.12,3.1,3.1,0,0,0-2.34.86,1.35,1.35,0,0,0-.16.19,3.19,3.19,0,0,0-.85,2.36A.93.93,0,0,0,146.8,33Z"/><path class="cls-83" d="M152.9,34l-.05,0a3.29,3.29,0,0,1-.67.92,3.22,3.22,0,0,1-1.25.72c.11.82,1.08,7.34,4.7,7.42C159.49,43.18,156.23,36.49,152.9,34Z"/><path class="cls-84" d="M147.63,34.78A3.12,3.12,0,0,1,146.8,33c-.79,0-7.38-.2-8.11,3.37-.77,3.8,6.35,1.72,9.34-1.16l0,0A4,4,0,0,1,147.63,34.78Z"/><path class="cls-85" d="M150.71,35.71a3.23,3.23,0,0,1-2.47-.41c-.57.62-4.89,5.56-2.65,8.39,2.4,3,5.4-3.79,5.13-7.94Z"/><g class="cls-28"><path class="cls-86" d="M149.51,29.93a.18.18,0,1,0,.13.23A.19.19,0,0,0,149.51,29.93Z"/></g><g class="cls-28"><path class="cls-87" d="M151.46,30.52a.18.18,0,0,0-.23.12.18.18,0,1,0,.35.11A.18.18,0,0,0,151.46,30.52Z"/></g><g class="cls-28"><path class="cls-88" d="M150.56,29.66a.19.19,0,0,0-.23.13.17.17,0,0,0,.12.22.18.18,0,0,0,.23-.12A.19.19,0,0,0,150.56,29.66Z"/></g><g class="cls-28"><path class="cls-89" d="M152.43,30.94a.18.18,0,1,0-.1.35.17.17,0,0,0,.22-.12A.18.18,0,0,0,152.43,30.94Z"/></g><g class="cls-28"><path class="cls-90" d="M150.25,32.25a.18.18,0,0,0,.14.22.2.2,0,0,0,.22-.13.18.18,0,0,0-.14-.22A.18.18,0,0,0,150.25,32.25Z"/></g><g class="cls-28"><path class="cls-91" d="M150.43,33.31a.17.17,0,0,0,.13.22.19.19,0,1,0-.13-.22Z"/></g><g class="cls-28"><path class="cls-92" d="M151.73,31.93a.29.29,0,1,0,.19.36A.3.3,0,0,0,151.73,31.93Z"/></g><g class="cls-28"><path class="cls-93" d="M152.63,33.2a.29.29,0,0,0-.36.19.28.28,0,0,0,.19.35.27.27,0,0,0,.35-.19A.27.27,0,0,0,152.63,33.2Z"/></g><g class="cls-28"><path class="cls-94" d="M149.71,34.08a.28.28,0,0,0-.35.19.28.28,0,1,0,.54.17A.28.28,0,0,0,149.71,34.08Z"/></g><g class="cls-28"><path class="cls-95" d="M148.84,32.44a.29.29,0,0,0-.36.19.28.28,0,0,0,.19.35.27.27,0,0,0,.35-.19A.27.27,0,0,0,148.84,32.44Z"/></g><g class="cls-28"><path class="cls-96" d="M149.23,30.88a.29.29,0,1,0,.19.36A.3.3,0,0,0,149.23,30.88Z"/></g><g class="cls-28"><path class="cls-97" d="M148.85,33.63a.19.19,0,0,0-.23.12.18.18,0,0,0,.12.23.18.18,0,0,0,.11-.35Z"/></g><g class="cls-28"><path class="cls-98" d="M148.13,31.54a.18.18,0,0,0-.23.12.19.19,0,0,0,.12.23.19.19,0,0,0,.23-.13A.18.18,0,0,0,148.13,31.54Z"/></g><g class="cls-28"><path class="cls-99" d="M148.05,34.41a.17.17,0,0,0-.22.12.18.18,0,1,0,.34.1A.17.17,0,0,0,148.05,34.41Z"/></g><g class="cls-28"><path class="cls-100" d="M147.88,32.36a.19.19,0,0,0-.23.13.18.18,0,0,0,.12.22.18.18,0,0,0,.23-.12A.19.19,0,0,0,147.88,32.36Z"/></g><g class="cls-28"><path class="cls-101" d="M147.85,33.68a.1.1,0,0,0,0-.15.1.1,0,0,0-.14,0,.1.1,0,0,0,0,.15A.1.1,0,0,0,147.85,33.68Z"/></g><g class="cls-28"><path class="cls-102" d="M151.56,33.84a.19.19,0,0,0-.23.13.18.18,0,0,0,.35.1A.19.19,0,0,0,151.56,33.84Z"/></g><g class="cls-28"><path class="cls-103" d="M152,33.23a.1.1,0,0,0,0-.15.1.1,0,0,0-.14,0,.11.11,0,0,0,0,.15A.11.11,0,0,0,152,33.23Z"/></g><g class="cls-28"><path class="cls-104" d="M150.69,34.33a.1.1,0,0,0,0-.15.09.09,0,0,0-.14,0,.1.1,0,0,0,0,.15A.11.11,0,0,0,150.69,34.33Z"/></g><g class="cls-28"><path class="cls-105" d="M150.15,35.17A.11.11,0,1,0,150,35a.12.12,0,0,0,0,.15A.11.11,0,0,0,150.15,35.17Z"/></g><g class="cls-28"><path class="cls-106" d="M148.91,34.72a.11.11,0,0,0,0-.15.12.12,0,0,0-.15,0,.11.11,0,1,0,.14.16Z"/></g><g class="cls-28"><path class="cls-107" d="M151.74,35.05a.12.12,0,0,0,0-.15.11.11,0,1,0,0,.15Z"/></g><g class="cls-28"><path class="cls-108" d="M150.29,31.5a.12.12,0,0,0,0-.15.11.11,0,0,0-.15,0,.1.1,0,0,0,0,.15A.11.11,0,0,0,150.29,31.5Z"/></g><g class="cls-28"><path class="cls-109" d="M149.33,32.34a.11.11,0,1,0-.15,0A.11.11,0,0,0,149.33,32.34Z"/></g><g class="cls-28"><path class="cls-110" d="M148.32,30.85a.11.11,0,0,0,0-.14.1.1,0,0,0-.15,0,.1.1,0,0,0,0,.14A.1.1,0,0,0,148.32,30.85Z"/></g><path class="cls-111" d="M128,35.81c-6.59,0-13.2-.55-19.78,0-6.39.55-11.94,3.33-18.19,4.43a.41.41,0,0,0,.11.81c6.22-1,11.86-3.8,18.2-4.39,6.54-.6,13.15-.2,19.71-.45.28,0,.21-.42-.05-.42Z"/><path class="cls-112" d="M131.9,42.43c-5.08-.46-8.42-3.67-12.18-6.71-.33-.27-.86.2-.55.53,3.24,3.44,7.87,6.28,12.67,6.52.22,0,.28-.32.06-.34Z"/><path class="cls-113" d="M123.64,28.54c-3.23,2.35-8.61,3.47-9.83,7.83-.08.29.35.36.48.14A11.79,11.79,0,0,1,119,31.69a41.5,41.5,0,0,0,4.79-2.9.16.16,0,0,0-.19-.25Z"/><path class="cls-114" d="M114.37,45.47c-2.62-3.57-6.4-5.8-9.77-8.56a.35.35,0,0,0-.44.54c3.21,2.81,7,5,9.59,8.48a.39.39,0,0,0,.62-.46Z"/><path class="cls-115" d="M103.41,29.56a14.85,14.85,0,0,0-4.7,8.36.25.25,0,0,0,.5.07,14.16,14.16,0,0,1,4.59-7.9c.32-.28-.08-.82-.39-.53Z"/><path class="cls-116" d="M104.53,31.68c2.39,0,2.08-3.71-.3-3.71s-2.08,3.71.3,3.71Z"/><path class="cls-117" d="M113.81,47.36c2.14,0,1.86-3.32-.28-3.32s-1.85,3.32.28,3.32Z"/><path class="cls-118" d="M122.8,31.59c2.78,0,2.32-4.31-.45-4.31s-2.32,4.31.45,4.31Z"/><path class="cls-119" d="M132,44.5c1.94,0,1.75-3-.18-3s-1.76,3,.18,3Z"/><path class="cls-120" d="M127.2,38.34l.14.07-1.15-1.13,0,.07c0-.57,0-1.14,0-1.7l0,.06,1.18-1.19-.11,0a2.22,2.22,0,0,0-1.36,1.8v.15a2.23,2.23,0,0,0,1.83,2.4l.14,0a2.33,2.33,0,1,0-.14-4.6,2.12,2.12,0,0,0-1.79,1.79,2.21,2.21,0,0,0,1.28,2.21Z"/><path class="cls-8" d="M153.43,51.38a.58.58,0,0,0-.19,0,.57.57,0,0,0-.18,0l-.13,0a.65.65,0,0,0-.26.26.29.29,0,0,0,0,.13.36.36,0,0,0,0,.18.4.4,0,0,0,0,.19.31.31,0,0,0,0,.12.55.55,0,0,0,.26.26.29.29,0,0,0,.13,0,.57.57,0,0,0,.18,0,.58.58,0,0,0,.19,0,.22.22,0,0,0,.12,0,.55.55,0,0,0,.26-.26.43.43,0,0,0,.05-.12.38.38,0,0,0,0-.19.36.36,0,0,0,0-.18.31.31,0,0,0-.05-.12.57.57,0,0,0-.26-.27A.33.33,0,0,0,153.43,51.38Z"/><path class="cls-121" d="M154.1,48.79l.11-.1a.85.85,0,0,1,1.42.82l0,.14.14,0a.85.85,0,0,1,.83,1.43l-.1.1.14,0a.85.85,0,0,1,0,1.64l-.14,0,.1.1a.85.85,0,0,1-.83,1.43l-.14,0,0,.14a.85.85,0,0,1-1.42.83l-.11-.11,0,.15a.85.85,0,0,1-1.64,0l0-.15-.11.11a.85.85,0,0,1-1.42-.83l0-.14-.14,0a.85.85,0,0,1-.82-1.43l.1-.1-.15,0a.85.85,0,0,1,0-1.64l.15,0-.1-.1a.85.85,0,0,1,.82-1.43l.14,0,0-.14a.85.85,0,0,1,1.42-.82l.11.1,0-.15a.85.85,0,0,1,1.64,0Z"/><path class="cls-122" d="M152,57l-.06-.21-.15.15a1.28,1.28,0,0,1-2.14-1.24l.06-.2-.22,0a1.27,1.27,0,0,1-1.23-2.13l.16-.16-.23,0a1.28,1.28,0,0,1,0-2.47l.23-.06-.16-.15a1.28,1.28,0,0,1,1.23-2.14l.22.06-.06-.21A1.27,1.27,0,0,1,151.79,47l.16.16L152,47a1.27,1.27,0,0,1,2.46,0l.06.23.16-.16a1.27,1.27,0,0,1,2.13,1.24l0,.21.21-.06a1.27,1.27,0,0,1,1.23,2.14l-.16.15.23.06a1.28,1.28,0,0,1,0,2.47l-.23,0,.16.16A1.27,1.27,0,0,1,157,55.58l-.21,0,0,.2A1.27,1.27,0,0,1,154.69,57l-.16-.15-.06.21A1.27,1.27,0,0,1,152,57Zm2.09-1.82.11.11a.85.85,0,0,0,1.42-.83l0-.14.14,0a.85.85,0,0,0,.83-1.43l-.1-.1.14,0a.85.85,0,0,0,0-1.64l-.14,0,.1-.1a.85.85,0,0,0-.83-1.43l-.14,0,0-.14a.85.85,0,0,0-1.42-.82l-.11.1,0-.15a.85.85,0,0,0-1.64,0l0,.15-.11-.1a.85.85,0,0,0-1.42.82l0,.14-.14,0a.85.85,0,0,0-.82,1.43l.1.1-.15,0a.85.85,0,0,0,0,1.64l.15,0-.1.1a.85.85,0,0,0,.82,1.43l.14,0,0,.14a.85.85,0,0,0,1.42.83l.11-.11,0,.15a.85.85,0,0,0,1.64,0Z"/><path class="cls-123" d="M155.19,52a1.95,1.95,0,1,0-1.95,2A1.95,1.95,0,0,0,155.19,52Z"/><path class="cls-124" d="M153.81,52a.57.57,0,0,0-.57-.57.58.58,0,0,0-.57.57.57.57,0,0,0,.57.57A.56.56,0,0,0,153.81,52Z"/><path class="cls-125" d="M95.06,28.32c-1.24,2.29-4,3.12-4.77,5.8a4.58,4.58,0,0,0,.16,2.6c.38,1.53-.56,2.58-1.4,3.89-.28.45.39.94.65.5.69-1.16,1.19-2.51,2.4-3.1s2.09-.7,2.9-1.94c1.61-2.46.26-5.06.32-7.68a.14.14,0,0,0-.26-.07Z"/><path class="cls-126" d="M101.61,46.14c-1.85-1-3.25-3.33-5.45-3.65a7,7,0,0,0-1.7.11c-.69-.19-1.37-.41-2-.66a30.26,30.26,0,0,1-3-1.31.41.41,0,0,0-.41.69c1,.77,1.87,1.63,2.84,2.41s1.81,1.75,2.75,2.4c2.12,1.47,4.69-.17,7,.2.11,0,.14-.14,0-.19Z"/><path class="cls-127" d="M98.61,38.17c-1.88,1.17-4.14,1.16-6.25,1.51-2.32.38-4.69.75-7,1.3a.47.47,0,0,0,0,.92c2.78.48,5.4-.86,8-1.54,1.85-.48,3.77-.83,5.31-2,.1-.08,0-.21-.12-.15Z"/><path class="cls-128" d="M240.2,437c-6.59.05-13.2-.54-19.78,0-6.39.55-11.94,3.32-18.19,4.43a.4.4,0,0,0,.11.8c6.21-1,11.86-3.8,18.2-4.38,6.54-.61,13.15-.21,19.71-.45.28,0,.21-.43-.05-.43Z"/><path class="cls-129" d="M244.13,443.65c-5.08-.46-8.43-3.67-12.18-6.71-.33-.27-.87.2-.56.52,3.25,3.45,7.88,6.29,12.68,6.53.22,0,.28-.32.06-.34Z"/><path class="cls-130" d="M235.87,429.76c-3.23,2.35-8.61,3.47-9.83,7.82-.09.3.35.37.48.14a11.85,11.85,0,0,1,4.75-4.82,40.14,40.14,0,0,0,4.79-2.9c.16-.12,0-.36-.19-.24Z"/><path class="cls-131" d="M226.6,446.69c-2.62-3.57-6.4-5.8-9.77-8.56a.35.35,0,0,0-.44.54c3.21,2.8,7,5,9.58,8.47a.39.39,0,0,0,.63-.45Z"/><path class="cls-132" d="M215.63,430.78a14.87,14.87,0,0,0-4.69,8.35.25.25,0,0,0,.5.08A14.15,14.15,0,0,1,216,431.3c.31-.28-.09-.81-.4-.52Z"/><path class="cls-133" d="M216.76,432.89c2.39,0,2.07-3.7-.3-3.7s-2.08,3.7.3,3.7Z"/><path class="cls-134" d="M226,448.57c2.14,0,1.85-3.31-.28-3.31s-1.86,3.31.28,3.31Z"/><path class="cls-135" d="M235,432.81c2.78,0,2.32-4.31-.45-4.31s-2.32,4.31.45,4.31Z"/><path class="cls-136" d="M244.19,445.71c1.94,0,1.75-3-.19-3s-1.75,3,.19,3Z"/><path class="cls-137" d="M239.42,439.55l.15.08-1.15-1.14,0,.07c0-.56,0-1.13,0-1.7l0,.07,1.18-1.2-.11,0a2.26,2.26,0,0,0-1.37,1.81v.15a2.23,2.23,0,0,0,1.83,2.39l.14,0a2.33,2.33,0,1,0-.14-4.6,2.14,2.14,0,0,0-1.79,1.8,2.19,2.19,0,0,0,1.27,2.2Z"/><path class="cls-138" d="M207.29,429.54c-1.24,2.29-4,3.11-4.77,5.8a4.51,4.51,0,0,0,.16,2.6c.38,1.53-.56,2.57-1.4,3.89-.28.44.38.94.65.49.68-1.15,1.19-2.51,2.4-3.09s2.08-.7,2.9-2c1.6-2.46.26-5.06.32-7.67a.14.14,0,0,0-.26-.07Z"/><path class="cls-139" d="M213.84,447.36c-1.85-1-3.25-3.33-5.45-3.65a6.94,6.94,0,0,0-1.7.1,21,21,0,0,1-2-.65c-1-.38-2-.83-3-1.31-.42-.21-.77.41-.41.69,1,.77,1.87,1.62,2.84,2.4s1.8,1.75,2.75,2.41c2.12,1.46,4.69-.17,7,.19.11,0,.14-.13.05-.18Z"/><path class="cls-140" d="M210.84,439.39c-1.88,1.16-4.14,1.16-6.26,1.5-2.31.38-4.68.76-7,1.31a.47.47,0,0,0,0,.92c2.78.47,5.39-.86,8-1.55,1.85-.48,3.77-.82,5.31-2,.1-.08,0-.22-.12-.15Z"/><path class="cls-141" d="M118.38,437c6.58.05,13.2-.54,19.77,0,6.4.55,11.95,3.32,18.2,4.43a.4.4,0,0,1-.12.8c-6.21-1-11.86-3.8-18.19-4.38-6.55-.61-13.16-.21-19.72-.45-.28,0-.21-.43.06-.43Z"/><path class="cls-142" d="M114.45,443.65c5.08-.46,8.42-3.67,12.17-6.71.33-.27.87.2.56.52-3.24,3.45-7.87,6.29-12.68,6.53-.21,0-.28-.32,0-.34Z"/><path class="cls-143" d="M122.7,429.76c3.23,2.35,8.61,3.47,9.83,7.82.09.3-.35.37-.47.14a11.94,11.94,0,0,0-4.76-4.82,40.14,40.14,0,0,1-4.79-2.9.15.15,0,0,1,.19-.24Z"/><path class="cls-144" d="M132,446.69c2.62-3.57,6.41-5.8,9.77-8.56a.35.35,0,0,1,.44.54c-3.21,2.8-7,5-9.58,8.47a.39.39,0,0,1-.63-.45Z"/><path class="cls-145" d="M142.94,430.78a14.87,14.87,0,0,1,4.69,8.35.25.25,0,0,1-.49.08,14.23,14.23,0,0,0-4.6-7.91c-.31-.28.09-.81.4-.52Z"/><path class="cls-146" d="M141.81,432.89c-2.39,0-2.07-3.7.31-3.7s2.07,3.7-.31,3.7Z"/><path class="cls-147" d="M132.54,448.57c-2.15,0-1.86-3.31.27-3.31s1.86,3.31-.27,3.31Z"/><path class="cls-148" d="M123.55,432.81c-2.79,0-2.33-4.31.44-4.31s2.32,4.31-.44,4.31Z"/><path class="cls-149" d="M114.38,445.71c-1.94,0-1.75-3,.19-3s1.75,3-.19,3Z"/><path class="cls-150" d="M119.15,439.55l-.14.08,1.15-1.14,0,.07c0-.56,0-1.13,0-1.7l0,.07-1.18-1.2.11,0a2.26,2.26,0,0,1,1.37,1.81v.15a2.22,2.22,0,0,1-1.83,2.39l-.14,0a2.33,2.33,0,1,1,.14-4.6,2.13,2.13,0,0,1,1.79,1.8,2.17,2.17,0,0,1-1.27,2.2Z"/><path class="cls-151" d="M151.29,429.54c1.23,2.29,4,3.11,4.76,5.8a4.51,4.51,0,0,1-.16,2.6c-.38,1.53.56,2.57,1.4,3.89.28.44-.38.94-.65.49-.68-1.15-1.19-2.51-2.4-3.09s-2.08-.7-2.9-2c-1.6-2.46-.26-5.06-.31-7.67a.14.14,0,0,1,.26-.07Z"/><path class="cls-152" d="M144.73,447.36c1.85-1,3.26-3.33,5.45-3.65a6.91,6.91,0,0,1,1.7.1,21,21,0,0,0,2-.65c1-.38,2-.83,3-1.31a.41.41,0,0,1,.42.69c-1,.77-1.88,1.62-2.84,2.4s-1.81,1.75-2.76,2.41c-2.11,1.46-4.69-.17-7,.19a.1.1,0,0,1-.06-.18Z"/><path class="cls-153" d="M147.74,439.39c1.87,1.16,4.13,1.16,6.25,1.5,2.31.38,4.69.76,7,1.31a.47.47,0,0,1,0,.92c-2.78.47-5.39-.86-8-1.55-1.85-.48-3.77-.82-5.3-2a.1.1,0,1,1,.12-.15Z"/><path class="cls-154" d="M170.37,435.32c.57-3.83,6.55.58,8.39,4.29v.05a3.31,3.31,0,0,0-1.42.89,2.77,2.77,0,0,0-.51.72C176,441,169.84,438.9,170.37,435.32Z"/><path class="cls-155" d="M176.75,444c-.61.39-6.28,3.91-8.7,1.15s4.64-4.67,8.65-3.68l.05,0A3.11,3.11,0,0,0,176.75,444Z"/><path class="cls-156" d="M181.9,440.4a3.1,3.1,0,0,0-2.34-.86c-.17-.79-1.51-7.26,1.87-8.6,3.59-1.42,2.79,6,.5,9.44Z"/><path class="cls-157" d="M189.82,436.51c3.4,1.86-2.75,6-6.85,6.44h-.06a3.22,3.22,0,0,0-.84-2.36C182.55,439.93,186.64,434.77,189.82,436.51Z"/><path class="cls-158" d="M182.89,443.18a3.12,3.12,0,0,1-.83,1.79,4,4,0,0,1-.44.38l-.17.14a3.23,3.23,0,0,1-2.47.41l-.22-.06a3.22,3.22,0,0,1-1.25-.72,3.29,3.29,0,0,1-.67-.92,1,1,0,0,1-.09-.21,3.11,3.11,0,0,1,0-2.5l.09-.22a2.77,2.77,0,0,1,.51-.72,3.31,3.31,0,0,1,1.42-.89,2.9,2.9,0,0,1,.79-.12,3.1,3.1,0,0,1,2.34.86c.06.07.12.12.17.19a3.22,3.22,0,0,1,.84,2.36A.93.93,0,0,1,182.89,443.18Z"/><path class="cls-159" d="M176.79,444.23l.05,0a3.29,3.29,0,0,0,.67.92,3.22,3.22,0,0,0,1.25.72c-.11.82-1.08,7.34-4.7,7.42C170.2,453.37,173.46,446.68,176.79,444.23Z"/><path class="cls-160" d="M182.06,445a3.12,3.12,0,0,0,.83-1.79c.8,0,7.38-.2,8.11,3.37.78,3.8-6.35,1.72-9.34-1.16l0,0A4,4,0,0,0,182.06,445Z"/><path class="cls-161" d="M179,445.9a3.23,3.23,0,0,0,2.47-.41c.57.62,4.89,5.56,2.65,8.39-2.4,3-5.4-3.79-5.13-7.94Z"/><g class="cls-28"><path class="cls-162" d="M180.18,440.12a.18.18,0,0,1,.22.13.17.17,0,0,1-.12.22.18.18,0,0,1-.23-.12A.19.19,0,0,1,180.18,440.12Z"/></g><g class="cls-28"><path class="cls-163" d="M178.23,440.71a.18.18,0,0,1,.23.12.18.18,0,1,1-.23-.12Z"/></g><g class="cls-28"><path class="cls-164" d="M179.13,439.85a.19.19,0,0,1,.23.13.17.17,0,0,1-.12.22.18.18,0,0,1-.23-.12A.19.19,0,0,1,179.13,439.85Z"/></g><g class="cls-28"><path class="cls-165" d="M177.26,441.13a.18.18,0,1,1,.1.35.17.17,0,0,1-.22-.12A.18.18,0,0,1,177.26,441.13Z"/></g><g class="cls-28"><path class="cls-166" d="M179.44,442.44a.18.18,0,0,1-.14.22.2.2,0,0,1-.22-.13.18.18,0,0,1,.14-.22A.18.18,0,0,1,179.44,442.44Z"/></g><g class="cls-28"><path class="cls-167" d="M179.26,443.5a.17.17,0,0,1-.13.22.19.19,0,1,1,.13-.22Z"/></g><g class="cls-28"><path class="cls-168" d="M178,442.12a.3.3,0,0,1,.36.19.29.29,0,0,1-.19.36.29.29,0,1,1-.17-.55Z"/></g><g class="cls-28"><path class="cls-169" d="M177.07,443.39a.28.28,0,0,1,.35.19.3.3,0,0,1-.19.36.29.29,0,0,1-.35-.2A.27.27,0,0,1,177.07,443.39Z"/></g><g class="cls-28"><path class="cls-170" d="M180,444.27a.28.28,0,0,1,.35.19.28.28,0,1,1-.35-.19Z"/></g><g class="cls-28"><path class="cls-171" d="M180.85,442.63a.29.29,0,0,1,.36.19.3.3,0,0,1-.19.36.29.29,0,0,1-.35-.2A.27.27,0,0,1,180.85,442.63Z"/></g><g class="cls-28"><path class="cls-172" d="M180.46,441.07a.29.29,0,1,1-.19.36A.3.3,0,0,1,180.46,441.07Z"/></g><g class="cls-28"><path class="cls-173" d="M180.84,443.82a.19.19,0,0,1,.23.12.18.18,0,0,1-.12.23.18.18,0,0,1-.11-.35Z"/></g><g class="cls-28"><path class="cls-174" d="M181.56,441.73a.18.18,0,0,1,.23.12.19.19,0,0,1-.12.23.19.19,0,0,1-.23-.13A.18.18,0,0,1,181.56,441.73Z"/></g><g class="cls-28"><path class="cls-175" d="M181.64,444.6a.17.17,0,0,1,.22.12.18.18,0,1,1-.34.1A.17.17,0,0,1,181.64,444.6Z"/></g><g class="cls-28"><path class="cls-176" d="M181.81,442.55a.19.19,0,0,1,.23.13.18.18,0,0,1-.12.22.18.18,0,0,1-.23-.12A.19.19,0,0,1,181.81,442.55Z"/></g><g class="cls-28"><path class="cls-177" d="M181.84,443.87a.1.1,0,0,1,0-.15.1.1,0,0,1,.14,0,.11.11,0,0,1,0,.15A.11.11,0,0,1,181.84,443.87Z"/></g><g class="cls-28"><path class="cls-178" d="M178.13,444a.19.19,0,0,1,.23.13.17.17,0,0,1-.12.22.18.18,0,0,1-.23-.12A.19.19,0,0,1,178.13,444Z"/></g><g class="cls-28"><path class="cls-179" d="M177.71,443.42a.1.1,0,0,1,0-.15.11.11,0,0,1,.15,0,.12.12,0,0,1,0,.15A.11.11,0,0,1,177.71,443.42Z"/></g><g class="cls-28"><path class="cls-180" d="M179,444.52a.1.1,0,0,1,0-.15.09.09,0,0,1,.14,0,.1.1,0,0,1,0,.15A.11.11,0,0,1,179,444.52Z"/></g><g class="cls-28"><path class="cls-181" d="M179.54,445.36a.11.11,0,1,1,.14-.16.12.12,0,0,1,0,.15A.11.11,0,0,1,179.54,445.36Z"/></g><g class="cls-28"><path class="cls-182" d="M180.78,444.91a.11.11,0,0,1,0-.15.12.12,0,0,1,.15,0,.11.11,0,0,1,0,.15A.1.1,0,0,1,180.78,444.91Z"/></g><g class="cls-28"><path class="cls-183" d="M178,445.24a.12.12,0,0,1,0-.15.11.11,0,0,1,.15,0,.1.1,0,0,1,0,.15A.11.11,0,0,1,178,445.24Z"/></g><g class="cls-28"><path class="cls-184" d="M179.41,441.69a.1.1,0,0,1,0-.15.1.1,0,0,1,.14,0,.1.1,0,0,1,0,.15A.1.1,0,0,1,179.41,441.69Z"/></g><g class="cls-28"><path class="cls-185" d="M180.36,442.53a.11.11,0,1,1,.15,0A.11.11,0,0,1,180.36,442.53Z"/></g><g class="cls-28"><path class="cls-186" d="M181.37,441a.11.11,0,0,1,0-.14.1.1,0,0,1,.15,0,.1.1,0,0,1,0,.14A.1.1,0,0,1,181.37,441Z"/></g><path class="cls-187" d="M286.64,467.27a56,56,0,0,1-17.55-2.44,67.16,67.16,0,0,0-36.45,0,56.16,56.16,0,0,1-17.56,2.44,56.06,56.06,0,0,1-17.56-2.44,59.08,59.08,0,0,0-18.23-2.52,59,59,0,0,0-18.22,2.52,56.16,56.16,0,0,1-17.56,2.44A56.06,56.06,0,0,1,126,464.83a59.08,59.08,0,0,0-18.23-2.52,58.85,58.85,0,0,0-18.22,2.52,56.23,56.23,0,0,1-17.57,2.44c-1.67,0-3.34-1.46-5.11-3-1.57-1.37-3.2-2.79-5.06-3.29s-4.1-.09-6.21.31-4.37.85-5.73.06-2.1-2.87-2.85-5.06c-.69-2-1.41-4.09-2.8-5.48s-3.46-2.1-5.47-2.79c-2.19-.75-4.26-1.46-5.06-2.85s-.38-3.48,0-5.73.83-4.28.31-6.22-1.91-3.48-3.28-5.05c-1.55-1.77-3-3.44-3-5.11A138.2,138.2,0,0,1,30.18,395a141.89,141.89,0,0,0,2.5-28.48A142,142,0,0,0,30.18,338,138.12,138.12,0,0,1,27.72,310a138.08,138.08,0,0,1,2.46-28.06,142.09,142.09,0,0,0,2.5-28.49,142,142,0,0,0-2.5-28.49,138.16,138.16,0,0,1-2.46-28.06,138.2,138.2,0,0,1,2.46-28.07,142.09,142.09,0,0,0,2.5-28.49,142,142,0,0,0-2.5-28.49,138.2,138.2,0,0,1-2.46-28.07c0-1.67,1.45-3.34,3-5.11,1.38-1.58,2.8-3.2,3.29-5.06s.1-4.11-.31-6.21-.84-4.37,0-5.73,2.87-2.1,5-2.85c2-.69,4.09-1.41,5.48-2.8S46.28,52.5,47,50.5c.75-2.19,1.45-4.26,2.85-5.06s3.48-.38,5.73.05,4.28.83,6.21.31,3.49-1.91,5.06-3.29c1.77-1.54,3.44-3,5.11-3A56.16,56.16,0,0,1,89.49,42a59,59,0,0,0,18.22,2.52A58.85,58.85,0,0,0,125.93,42a56.24,56.24,0,0,1,17.57-2.43A56.21,56.21,0,0,1,161.06,42a59,59,0,0,0,18.22,2.52A58.85,58.85,0,0,0,197.5,42a56.21,56.21,0,0,1,17.56-2.43A56.24,56.24,0,0,1,232.63,42a59,59,0,0,0,18.22,2.52A59,59,0,0,0,269.08,42a56.16,56.16,0,0,1,17.56-2.43c1.68,0,3.34,1.45,5.1,3,1.58,1.38,3.21,2.8,5.07,3.29s4.11.1,6.21-.31c2.25-.43,4.37-.84,5.73-.05s2.11,2.87,2.86,5.05c.69,2,1.4,4.09,2.79,5.48s3.47,2.11,5.48,2.8c2.18.75,4.25,1.45,5.06,2.85s.37,3.48-.06,5.72-.83,4.29-.31,6.22,1.92,3.49,3.29,5.06c1.54,1.77,3,3.43,3,5.11a138,138,0,0,1-2.46,28.05,143.07,143.07,0,0,0-2.49,28.5,143,143,0,0,0,2.49,28.49,138.08,138.08,0,0,1,2.46,28.06,138.08,138.08,0,0,1-2.46,28.06,143,143,0,0,0-2.49,28.49,142.87,142.87,0,0,0,2.49,28.49,138.27,138.27,0,0,1,2.46,28.07A138.08,138.08,0,0,1,328.39,338a143.07,143.07,0,0,0-2.49,28.5A143,143,0,0,0,328.39,395a138.2,138.2,0,0,1,2.46,28.07c0,1.67-1.45,3.34-3,5.1-1.37,1.58-2.8,3.2-3.29,5.06s-.1,4.11.31,6.22.84,4.37.05,5.73-2.87,2.1-5.05,2.85c-2,.69-4.09,1.4-5.48,2.79s-2.1,3.47-2.79,5.48c-.75,2.19-1.46,4.25-2.86,5.06s-3.48.38-5.73-.06c-2.1-.4-4.27-.82-6.21-.31s-3.49,1.92-5.06,3.29C290,465.81,288.32,467.27,286.64,467.27Zm-35.78-7.44a61.19,61.19,0,0,1,18.88,2.61,53.88,53.88,0,0,0,16.9,2.35c.75,0,2.39-1.44,3.48-2.38,1.7-1.49,3.64-3.18,6.05-3.82s4.95-.19,7.32.27c1.3.25,3.46.67,4,.34s1.29-2.37,1.75-3.71c.78-2.28,1.59-4.63,3.39-6.43s4.14-2.6,6.42-3.38c1.35-.47,3.38-1.16,3.72-1.76s-.09-2.72-.34-4c-.46-2.38-.94-4.84-.28-7.33s2.34-4.34,3.82-6.05c.95-1.08,2.38-2.73,2.38-3.47A136.12,136.12,0,0,0,326,395.42a144.93,144.93,0,0,1-2.53-28.92A145,145,0,0,1,326,337.57a136.08,136.08,0,0,0,2.42-27.63A136.08,136.08,0,0,0,326,282.31a145.05,145.05,0,0,1-2.53-28.93A144.73,144.73,0,0,1,326,224.47a136.28,136.28,0,0,0,2.42-27.64A136.08,136.08,0,0,0,326,169.2a144.93,144.93,0,0,1-2.53-28.92A144.93,144.93,0,0,1,326,111.36a136.08,136.08,0,0,0,2.42-27.63c0-.75-1.43-2.39-2.38-3.48-1.48-1.7-3.17-3.64-3.82-6s-.18-4.94.28-7.32c.25-1.3.66-3.46.34-4s-2.37-1.29-3.72-1.75c-2.27-.78-4.63-1.59-6.42-3.39s-2.61-4.14-3.39-6.42c-.46-1.35-1.16-3.38-1.75-3.72s-2.72.1-4,.34c-2.27.44-4.85.94-7.33.28s-4.26-2.26-6.05-3.82c-1.09-1-2.73-2.38-3.48-2.38a53.89,53.89,0,0,0-16.9,2.34A61.21,61.21,0,0,1,250.85,47,61.19,61.19,0,0,1,232,44.34,53.91,53.91,0,0,0,215.06,42a53.81,53.81,0,0,0-16.89,2.34A61.26,61.26,0,0,1,179.28,47a61.13,61.13,0,0,1-18.88-2.61A53.89,53.89,0,0,0,143.5,42a53.84,53.84,0,0,0-16.9,2.34A61.26,61.26,0,0,1,107.71,47a61.13,61.13,0,0,1-18.88-2.61A53.89,53.89,0,0,0,71.93,42c-.74,0-2.39,1.43-3.47,2.38-1.8,1.56-3.65,3.17-6.06,3.82s-4.93.19-7.31-.27c-1.3-.25-3.47-.67-4-.35S49.77,50,49.31,51.3c-.78,2.28-1.59,4.63-3.39,6.42s-4.15,2.61-6.42,3.39c-1.35.46-3.38,1.16-3.72,1.75s.1,2.72.35,4c.46,2.38.93,4.84.27,7.32s-2.26,4.26-3.82,6c-.95,1.09-2.38,2.73-2.38,3.48a136.2,136.2,0,0,0,2.42,27.64,144.17,144.17,0,0,1,2.53,28.92,144.05,144.05,0,0,1-2.53,28.91,136.32,136.32,0,0,0-2.42,27.65,136.08,136.08,0,0,0,2.42,27.63,144.17,144.17,0,0,1,2.53,28.92,144.05,144.05,0,0,1-2.53,28.91A136.28,136.28,0,0,0,30.2,310a136.12,136.12,0,0,0,2.42,27.64,144.17,144.17,0,0,1,2.53,28.92,144.14,144.14,0,0,1-2.53,28.91,136.12,136.12,0,0,0-2.42,27.64c0,.74,1.43,2.39,2.38,3.47,1.56,1.8,3.17,3.64,3.82,6.05s.19,4.95-.27,7.33c-.25,1.29-.67,3.46-.35,4s2.37,1.29,3.72,1.75c2.28.79,4.63,1.59,6.42,3.39s2.61,4.15,3.39,6.42c.46,1.35,1.16,3.38,1.75,3.72s2.72-.09,4-.34c2.39-.46,4.85-.94,7.33-.27s4.35,2.33,6.05,3.82c1.09.94,2.73,2.38,3.48,2.38a54.19,54.19,0,0,0,16.9-2.34,60.89,60.89,0,0,1,18.89-2.62,61.19,61.19,0,0,1,18.88,2.61,54,54,0,0,0,16.91,2.35,54.11,54.11,0,0,0,16.89-2.34,60.94,60.94,0,0,1,18.89-2.62,61.19,61.19,0,0,1,18.88,2.61,54,54,0,0,0,16.91,2.35A54.11,54.11,0,0,0,232,462.45,60.94,60.94,0,0,1,250.86,459.83Z"/><polygon class="cls-188" points="78.58 197.87 86.49 207.15 98.62 205.9 92.24 216.29 97.19 227.44 85.33 224.58 76.25 232.73 75.31 220.57 64.75 214.46 76.03 209.8 78.58 197.87"/><polygon class="cls-189" points="78.58 197.87 86.49 207.15 98.62 205.9 92.24 216.29 97.19 227.44 85.33 224.58 76.25 232.73 75.31 220.57 64.75 214.46 76.03 209.8 78.58 197.87"/><polygon class="cls-190" points="283.22 189.16 275.3 198.44 263.17 197.18 269.55 207.57 264.61 218.72 276.46 215.87 285.54 224.01 286.49 211.85 297.04 205.74 285.77 201.08 283.22 189.16"/><polygon class="cls-189" points="283.22 189.16 275.3 198.44 263.17 197.18 269.55 207.57 264.61 218.72 276.46 215.87 285.54 224.01 286.49 211.85 297.04 205.74 285.77 201.08 283.22 189.16"/><polygon class="cls-191" points="273.27 264.96 269.36 269.55 263.36 268.93 266.52 274.06 264.07 279.58 269.93 278.16 274.42 282.19 274.89 276.18 280.11 273.16 274.53 270.86 273.27 264.96"/><polygon class="cls-192" points="273.27 264.96 269.36 269.55 263.36 268.93 266.52 274.06 264.07 279.58 269.93 278.16 274.42 282.19 274.89 276.18 280.11 273.16 274.53 270.86 273.27 264.96"/><polygon class="cls-193" points="105.08 273.58 101.17 278.16 95.17 277.54 98.32 282.68 95.88 288.19 101.74 286.78 106.23 290.81 106.7 284.8 111.91 281.77 106.34 279.47 105.08 273.58"/><polygon class="cls-192" points="105.08 273.58 101.17 278.16 95.17 277.54 98.32 282.68 95.88 288.19 101.74 286.78 106.23 290.81 106.7 284.8 111.91 281.77 106.34 279.47 105.08 273.58"/><polygon class="cls-194" points="112.45 155.44 112.23 161.47 107.15 164.7 112.81 166.77 114.32 172.61 118.03 167.86 124.05 168.23 120.69 163.23 122.9 157.62 117.1 159.28 112.45 155.44"/><polygon class="cls-192" points="112.45 155.44 112.23 161.47 107.15 164.7 112.81 166.77 114.32 172.61 118.03 167.86 124.05 168.23 120.69 163.23 122.9 157.62 117.1 159.28 112.45 155.44"/><polygon class="cls-195" points="234.11 152.37 233.89 158.39 228.81 161.63 234.47 163.7 235.98 169.53 239.7 164.79 245.71 165.16 242.35 160.15 244.56 154.55 238.76 156.2 234.11 152.37"/><polygon class="cls-192" points="234.11 152.37 233.89 158.39 228.81 161.63 234.47 163.7 235.98 169.53 239.7 164.79 245.71 165.16 242.35 160.15 244.56 154.55 238.76 156.2 234.11 152.37"/></g></g></svg>