<svg xmlns="http://www.w3.org/2000/svg" xmlns:xlink="http://www.w3.org/1999/xlink" viewBox="0 0 360 504"><defs><style>.cls-1{fill:none;}.cls-2{fill:#fff;}.cls-3{clip-path:url(#clip-path);}.cls-4{fill:#8ad3d1;}.cls-5{fill:#efc947;}.cls-6{fill:#f2ca48;}.cls-10,.cls-7{fill:#fedcca;}.cls-8{fill:#526d7b;}.cls-9{fill:#7cb1d6;}.cls-10{opacity:0.6;}.cls-11{fill:#79b0d7;opacity:0.2;}</style><clipPath id="clip-path"><rect class="cls-1" width="359.93" height="504"/></clipPath></defs><g id="Layer_2" data-name="Layer 2"><rect class="cls-2" x="-12.91" y="-9.57" width="385.71" height="552"/></g><g id="Layer_1" data-name="Layer 1"><g class="cls-3"><path class="cls-4" d="M360,127.53s-38.4,16.67-39.41,38.4,3.54,20.21,13.14,18.69S360,179.57,360,179.57Z"/><path class="cls-4" d="M-.07,89.13S20,86.85,28.29,99s-2,28.29-15.91,32.84l-13.9,4.55v26S28,163.92,45.22,138.27s8.59-52.93-4.55-63S13,62.35-.07,62.35Z"/><path class="cls-5" d="M0,104.08s8.32-.81,11.78,3.52S11,117.69,5.18,119.31l-5.77,1.63v9.28s12.27.55,19.4-8.6,3.57-18.89-1.88-22.5A30.16,30.16,0,0,0,0,94.53Z"/><path class="cls-6" d="M296.69,489.13s3.73-26.4,18-34.45,27,8.94,27.29,27.92l.3,19,25.36,5.83s10.27-37.85-9.63-65.8-49-23-62.78-8.24-20.78,32.89-24.66,49.77Z"/><path class="cls-4" d="M311.29,492.37s1.68-10.93,6.92-14.43,9.59,3.34,9.46,11.16l-.13,7.81,9,2.08s4.17-15.73-2.63-27-17.35-8.84-22.48-2.6-7.89,13.82-9.5,20.83Z"/><path class="cls-7" d="M68.83,27.9s16.22-6.82,17,6.82S72.42,51.82,70.4,62.35c0,0-25.77-12.72-22.49-29.9S68.83,27.9,68.83,27.9Z"/><path class="cls-7" d="M324.39,327.66s-16.22-6.82-17,6.82,13.39,17.1,15.41,27.62c0,0,25.77-12.72,22.48-29.89S324.39,327.66,324.39,327.66Z"/><path class="cls-6" d="M208.34,20.88S206.44,9.47,196.29,8.2,181.07,12,179.8,26.27,156.33,52.7,142.38,43.93s-20.29-23.68-20.29-23.68l13.63-3.49s7.93,16.49,22.83,12.37-1-25.69,19.66-35.2,41.23-1.59,46,22.83Z"/><path class="cls-8" d="M-5.42,288.24,49.7,351.56s-6.07,25.79-16.92,32.78S7.3,379.27,8.12,361.54l-10.91-5.65Z"/><path class="cls-9" d="M20.19,509.43s-7.08-2.11-9.35-11.43S15,471.29,28.58,477s33.28,10.69,41.61,0S93.51,433,68,421.35L56.88,431.7s12.1,17.21,2.94,26.2-22.64-.2-37.87-.31-33.62,18.89-30.39,32.82S4.23,517,4.23,517Z"/><rect class="cls-10" x="61.05" y="372.24" width="11.37" height="28.23"/><rect class="cls-10" x="49.14" y="309.07" width="11.37" height="28.23"/><rect class="cls-10" x="33.29" y="402.67" width="11.37" height="28.23"/><rect class="cls-11" x="304.03" y="23.43" width="11.37" height="28.23"/><rect class="cls-11" x="326.49" y="96.73" width="11.37" height="28.23"/><rect class="cls-11" x="264.91" y="33.66" width="11.37" height="28.23"/><path class="cls-8" d="M359.93,30.17H328.12s-8,32.78-6.82,43.89h38.63Z"/></g></g></svg>