<svg xmlns="http://www.w3.org/2000/svg" viewBox="0 0 37 44" width="37" height="44">
	<defs>
		<clipPath clipPathUnits="userSpaceOnUse" id="cp1">
			<path d="M74.86 364L-285.28 364L-285.28 -138.73L74.86 -138.73L74.86 364Z" />
		</clipPath>
	</defs>
	<style>
		tspan { white-space:pre }
		.shp0 { fill: #ffcaca } 
		.shp1 { mix-blend-mode: multiply;fill: #ffcaca } 
		.shp2 { opacity: 0.502;fill: #ffffff } 
	</style>
	<g id="Layer 1">
		<g id="&lt;Clip Group&gt;" clip-path="url(#cp1)">
			<g id="&lt;Group&gt;">
				<g id="&lt;Group&gt;">
					<g id="&lt;Group&gt;">
						<path id="&lt;Path&gt;" class="shp0" d="M17.97 27.39C19.87 30.7 22.59 33.49 25.91 35.18C28.3 36.39 30.98 37.03 33.67 36.86C34.58 36.8 36.35 36.78 36.13 38.19C36.04 38.73 35.64 39.16 35.21 39.5C33.6 40.75 31.88 41.52 29.9 42.05C19.95 44.69 8.97 40.81 4.28 31.35C1.63 26 1.19 19.61 3.21 13.98C5.08 8.76 8.89 4.19 13.93 1.74C14.87 1.28 15.88 0.91 16.92 0.84C18.99 0.7 19.87 2.53 19.06 4.27C18.01 6.5 16.54 8.41 15.79 10.79C14.07 16.28 15.14 22.44 17.97 27.39Z" />
					</g>
					<path id="&lt;Path&gt;" class="shp1" d="M36.13 38.19C36.35 36.78 34.58 36.8 33.67 36.86C30.98 37.03 28.3 36.39 25.91 35.18C22.59 33.49 19.87 30.7 17.97 27.39C15.21 22.56 14.13 16.58 15.68 11.19C15.51 11.61 15.35 12.02 15.21 12.39C14.08 15.24 13.59 18.34 13.81 21.39C13.94 23.09 14.28 24.76 14.85 26.36C17.03 32.47 22.6 37.32 29.03 38.41C30.25 38.62 31.66 38.79 32.37 39.8C32.62 40.14 32.75 40.55 32.93 40.93C33.72 40.54 34.47 40.07 35.21 39.5C35.64 39.16 36.04 38.73 36.13 38.19Z" />
					<path id="&lt;Path&gt;" class="shp2" d="M6.91 9.49C2.56 16 2.22 24.33 6.15 31.12C6.75 32.15 8.47 31.43 7.87 30.39C4.26 24.16 4.4 16.59 8.42 10.59C9.08 9.59 7.57 8.49 6.91 9.49Z" />
				</g>
			</g>
		</g>
	</g>
</svg>