<svg id="Layer_1" data-name="Layer 1" xmlns="http://www.w3.org/2000/svg" viewBox="0 0 360 504"><defs><style>.cls-1{fill:#f7f7f7;}.cls-2{fill:none;}.cls-3{fill:#cbe0bd;}.cls-4{fill:#eecbcd;}.cls-5{fill:#ede1cc;}.cls-6{font-size:72.94px;fill:#cecdb7;font-family:Magenta-Rose, Magenta Rose;}</style></defs><rect class="cls-1" x="0.27" width="359.73" height="504.39"/><rect class="cls-2" x="0.27" width="359.73" height="504.39"/><path class="cls-3" d="M299.84,426.27a11.75,11.75,0,0,1,1.23-1c1.34-.92,3.4-1.89,5-1.16,1.33.62,1.84,2.17,2.2,3.39.52,1.7,1.1,3.38,1.76,5a8.85,8.85,0,0,0,2.87,4.29c1.3,1,2.8,1.92,3.39,3.44,1,2.53.79,6.43-2.77,7.46-4.22,1.21-12-5-16-10.94C295.19,433.41,296.7,429.09,299.84,426.27Z"/><path class="cls-3" d="M303.89,422.34A2.63,2.63,0,0,1,301,420a2.74,2.74,0,0,1,1.77-3.35,2.63,2.63,0,0,1,2.9,2.35A2.75,2.75,0,0,1,303.89,422.34Z"/><path class="cls-3" d="M299.79,424.51a2.22,2.22,0,0,1-2.63-1.49,2.06,2.06,0,0,1,.71-2.84,2.22,2.22,0,0,1,2.63,1.49A2.06,2.06,0,0,1,299.79,424.51Z"/><path class="cls-3" d="M297.4,427.21a2.07,2.07,0,0,1-2.61-.74c-.73-.9-.76-2-.05-2.5a2.09,2.09,0,0,1,2.61.74C298.08,425.61,298.1,426.73,297.4,427.21Z"/><path class="cls-3" d="M293.54,430c-.69-.67-.82-1.58-.28-2a1.75,1.75,0,0,1,2.21.4c.69.67.82,1.58.28,2A1.75,1.75,0,0,1,293.54,430Z"/><path class="cls-3" d="M292.49,431.84a1.62,1.62,0,0,1,2-.12c.77.42,1.11,1.15.76,1.64a1.64,1.64,0,0,1-2,.12C292.47,433.06,292.13,432.32,292.49,431.84Z"/><path class="cls-3" d="M312.7,423.86a8.83,8.83,0,0,0,.15-5.16q-.5-2.62-1.2-5.19c-.34-1.23-.74-2.82.06-4,.94-1.46,3.21-1.73,4.83-1.67a13.7,13.7,0,0,1,1.57.17c4.15.72,7.74,3.58,7.63,7.66-.21,7.19-3.53,16.56-7.74,17.77-3.57,1-5.8-2.18-6.32-4.83C311.36,427,312.14,425.39,312.7,423.86Z"/><path class="cls-3" d="M312.58,406.8a2.74,2.74,0,0,1-3.28-1.9,2.61,2.61,0,0,1,1.19-3.52,2.75,2.75,0,0,1,3.29,1.9A2.61,2.61,0,0,1,312.58,406.8Z"/><path class="cls-3" d="M317.21,406.46c-1,.18-1.93-.73-2.12-2a2.21,2.21,0,0,1,1.43-2.65c1-.18,1.93.73,2.12,2A2.22,2.22,0,0,1,317.21,406.46Z"/><path class="cls-3" d="M320.68,407.48c-.86,0-1.44-1-1.3-2.14s1-2.06,1.81-2,1.44,1,1.3,2.14S321.54,407.51,320.68,407.48Z"/><path class="cls-3" d="M322.92,407.43c.22-.94,1-1.62,1.66-1.52s1.07.93.84,1.86-1,1.61-1.66,1.52S322.69,408.36,322.92,407.43Z"/><path class="cls-3" d="M327.3,408.78c.56.23.66,1,.23,1.79s-1.22,1.21-1.78,1-.66-1-.23-1.79S326.74,408.56,327.3,408.78Z"/><path class="cls-4" d="M49.11,90.63l6.06-2.08a.78.78,0,0,0,.5-.53l1.72-6.16a.79.79,0,0,1,1.39-.26l3.85,5.11a.82.82,0,0,0,.67.31l6.4-.27A.78.78,0,0,1,70.38,88L66.7,93.22a.76.76,0,0,0-.09.73l2.23,6a.79.79,0,0,1-1,1l-6.12-1.88a.81.81,0,0,0-.72.14l-5,4a.79.79,0,0,1-1.28-.61l-.11-6.39a.8.8,0,0,0-.35-.64L48.93,92A.78.78,0,0,1,49.11,90.63Z"/><path class="cls-5" d="M239,31.72,242.09,34a.47.47,0,0,0,.43.07l3.62-1.29a.48.48,0,0,1,.61.6L245.57,37a.47.47,0,0,0,.08.44l2.34,3a.47.47,0,0,1-.37.76h-3.85a.45.45,0,0,0-.38.21l-2.18,3.17a.47.47,0,0,1-.83-.12l-1.2-3.66a.47.47,0,0,0-.32-.31l-3.68-1.09a.47.47,0,0,1-.15-.84l3.1-2.26a.48.48,0,0,0,.2-.4l-.11-3.84A.47.47,0,0,1,239,31.72Z"/><path class="cls-5" d="M258.69,408.36l3.11,2.26a.49.49,0,0,0,.44.06l3.62-1.28a.47.47,0,0,1,.61.59l-1.18,3.66a.45.45,0,0,0,.08.43l2.34,3.05a.47.47,0,0,1-.37.76h-3.85a.47.47,0,0,0-.39.2l-2.17,3.17a.47.47,0,0,1-.84-.12l-1.19-3.66a.49.49,0,0,0-.32-.31l-3.69-1.09a.48.48,0,0,1-.14-.84l3.1-2.26a.47.47,0,0,0,.2-.39l-.11-3.85A.47.47,0,0,1,258.69,408.36Z"/><path class="cls-5" d="M341.2,290.66l3.12,2.26a.44.44,0,0,0,.43.06l3.62-1.28a.47.47,0,0,1,.61.59L347.8,296a.45.45,0,0,0,.08.43l2.34,3.06a.47.47,0,0,1-.37.76H346a.44.44,0,0,0-.38.2l-2.18,3.17a.46.46,0,0,1-.83-.12l-1.2-3.66a.48.48,0,0,0-.32-.3l-3.68-1.1a.47.47,0,0,1-.15-.83l3.1-2.27a.46.46,0,0,0,.2-.39l-.11-3.84A.47.47,0,0,1,341.2,290.66Z"/><path class="cls-5" d="M17.84,181.38,21,183.64a.49.49,0,0,0,.44.07L25,182.42a.48.48,0,0,1,.61.6l-1.18,3.65a.47.47,0,0,0,.08.44l2.34,3a.47.47,0,0,1-.37.76H22.64a.48.48,0,0,0-.39.21l-2.17,3.17a.47.47,0,0,1-.84-.12l-1.19-3.66a.47.47,0,0,0-.32-.31L14,189.12a.48.48,0,0,1-.14-.84L17,186a.48.48,0,0,0,.2-.4l-.11-3.84A.47.47,0,0,1,17.84,181.38Z"/><path class="cls-5" d="M32.07,461l3.11,2.26a.49.49,0,0,0,.44.06L39.24,462a.47.47,0,0,1,.61.59l-1.18,3.66a.47.47,0,0,0,.07.43l2.35,3.05a.47.47,0,0,1-.37.76H36.87a.47.47,0,0,0-.39.2l-2.17,3.17a.47.47,0,0,1-.84-.12l-1.19-3.66a.49.49,0,0,0-.32-.31l-3.69-1.09a.47.47,0,0,1-.14-.83l3.1-2.27a.47.47,0,0,0,.2-.39l-.11-3.85A.47.47,0,0,1,32.07,461Z"/><text class="cls-6" transform="translate(129.97 393.54) rotate(180)">&quot;</text></svg>