<svg xmlns="http://www.w3.org/2000/svg" xmlns:xlink="http://www.w3.org/1999/xlink" viewBox="0 0 720 1008"><defs><style>.cls-1{isolation:isolate;}.cls-2{fill:url(#radial-gradient);}.cls-3,.cls-4,.cls-5{fill:none;stroke-miterlimit:10;}.cls-3{stroke-width:5px;stroke:url(#Degradado_sin_nombre_3);}.cls-4,.cls-5{stroke-width:2px;}.cls-4{stroke:url(#Degradado_sin_nombre_3-2);}.cls-5{stroke:url(#Degradado_sin_nombre_3-3);}.cls-6{fill:#a6a6d3;}.cls-7{fill:#d296c2;}.cls-8{fill:#ee80b0;}.cls-9{fill:#ffe9c7;}.cls-10,.cls-14,.cls-15,.cls-22,.cls-23{fill:#b04882;}.cls-10{opacity:0.05;}.cls-10,.cls-12,.cls-14,.cls-17,.cls-18,.cls-19,.cls-33{mix-blend-mode:multiply;}.cls-11{fill:#fffbfa;}.cls-12,.cls-18,.cls-19{fill:#f099c0;}.cls-12,.cls-17{opacity:0.1;}.cls-13{fill:#faddec;}.cls-14{opacity:0.2;}.cls-16{fill:#7b3d5d;}.cls-18{opacity:0.25;}.cls-19{opacity:0.3;}.cls-20{fill:#ef8db9;}.cls-21{fill:url(#Degradado_sin_nombre_3-4);}.cls-22{opacity:0.6;}.cls-23{opacity:0.5;}.cls-24{fill:url(#Degradado_sin_nombre_3-5);}.cls-25{fill:url(#Degradado_sin_nombre_3-6);}.cls-26{fill:url(#Degradado_sin_nombre_3-7);}.cls-27{fill:url(#Degradado_sin_nombre_3-8);}.cls-28{fill:url(#Degradado_sin_nombre_3-9);}.cls-29{fill:url(#Degradado_sin_nombre_3-10);}.cls-30{fill:url(#Degradado_sin_nombre_3-11);}.cls-31{fill:#f98c96;}.cls-32{fill:#fff;}.cls-33{fill:#964aaf;opacity:0.8;}.cls-34{fill:#fdfafc;}.cls-35{fill:#ffd7f1;}.cls-36{fill:#304480;}.cls-37{fill:#f2a0c2;}</style><radialGradient id="radial-gradient" cx="360" cy="503.73" r="437.8" gradientUnits="userSpaceOnUse"><stop offset="0" stop-color="#fff"/><stop offset="1" stop-color="#ffdee4"/></radialGradient><linearGradient id="Degradado_sin_nombre_3" x1="69.01" y1="716.09" x2="636.48" y2="716.09" gradientTransform="translate(-42.38 -174.95) rotate(-4.13)" gradientUnits="userSpaceOnUse"><stop offset="0" stop-color="#e2ac8b"/><stop offset="0.49" stop-color="#f4cb8f"/><stop offset="1" stop-color="#e2ac8b"/></linearGradient><linearGradient id="Degradado_sin_nombre_3-2" x1="22.43" y1="-38.25" x2="592.84" y2="-38.25" gradientTransform="translate(51.86 490.77) rotate(11.36)" xlink:href="#Degradado_sin_nombre_3"/><linearGradient id="Degradado_sin_nombre_3-3" x1="-65.27" y1="231.89" x2="499.99" y2="231.89" gradientTransform="matrix(1.04, 0.1, -0.09, 1, 159.27, 243.59)" xlink:href="#Degradado_sin_nombre_3"/><linearGradient id="Degradado_sin_nombre_3-4" x1="581.36" y1="192.23" x2="622.14" y2="192.23" gradientTransform="matrix(1, 0, 0, 1, 0, 0)" xlink:href="#Degradado_sin_nombre_3"/><linearGradient id="Degradado_sin_nombre_3-5" x1="563.66" y1="931.31" x2="613.33" y2="931.31" gradientTransform="matrix(1, 0, 0, 1, 0, 0)" xlink:href="#Degradado_sin_nombre_3"/><linearGradient id="Degradado_sin_nombre_3-6" x1="449.37" y1="876.06" x2="517.84" y2="876.06" gradientTransform="matrix(1, 0, 0, 1, 0, 0)" xlink:href="#Degradado_sin_nombre_3"/><linearGradient id="Degradado_sin_nombre_3-7" x1="164.99" y1="902.53" x2="178.39" y2="902.53" gradientTransform="matrix(1, 0, 0, 1, 0, 0)" xlink:href="#Degradado_sin_nombre_3"/><linearGradient id="Degradado_sin_nombre_3-8" x1="57.17" y1="919.75" x2="69.97" y2="919.75" gradientTransform="matrix(1, 0, 0, 1, 0, 0)" xlink:href="#Degradado_sin_nombre_3"/><linearGradient id="Degradado_sin_nombre_3-9" x1="671.04" y1="71.82" x2="701.09" y2="71.82" gradientTransform="matrix(1, 0, 0, 1, 0, 0)" xlink:href="#Degradado_sin_nombre_3"/><linearGradient id="Degradado_sin_nombre_3-10" x1="496.65" y1="812.45" x2="526.7" y2="812.45" gradientTransform="matrix(1, 0, 0, 1, 0, 0)" xlink:href="#Degradado_sin_nombre_3"/><linearGradient id="Degradado_sin_nombre_3-11" x1="47.67" y1="827.91" x2="79.47" y2="827.91" gradientTransform="matrix(1, 0, 0, 1, 0, 0)" xlink:href="#Degradado_sin_nombre_3"/></defs><g class="cls-1"><g id="Layer_1" data-name="Layer 1"><rect class="cls-2" width="720" height="1007.45"/><polygon class="cls-3" points="655.8 728.34 624.33 255.79 329.53 41.33 66.2 299.41 97.67 771.96 392.48 986.43 655.8 728.34"/><polygon class="cls-4" points="592.21 805.84 678.4 341.35 447.19 49.39 129.79 221.91 43.6 686.4 274.82 978.37 592.21 805.84"/><polygon class="cls-5" points="634.8 761.39 675.84 289.7 404.94 24.11 93.01 230.2 51.97 701.89 322.87 967.49 634.8 761.39"/><path class="cls-6" d="M240.7,118.57c-5.83-8.65-23-26.82-46.84-37.5-19.81-8.88-44.22-12.57-70.53-1.3a91,91,0,0,0-19.25,11.15C70.28,116.58,65.9,159,66.31,173.59c-6.11.47-10.67.66-11.27.31-2-1.16-5-79.61,61.58-108.14a100,100,0,0,1,10.72-3.88c20.9-6.22,40.44-4.18,57.45,1.75,33.45,11.68,57.06,38.44,61.65,47.09C247.31,112.36,244.69,115.35,240.7,118.57Z"/><path class="cls-7" d="M240.7,118.57a93.66,93.66,0,0,1-8.84,6.2c-6.34-8.3-20.81-22.54-40.19-31.17-17.58-7.85-39.22-11.08-62.52-1.09a80,80,0,0,0-20,12.21c-25.25,21.15-30.32,53.07-30.69,67.8-4.27.41-8.49.8-12.16,1.07-.41-14.62,4-57,37.77-82.67a91,91,0,0,1,19.25-11.15c26.31-11.27,50.72-7.58,70.53,1.3C217.69,91.75,234.87,109.92,240.7,118.57Z"/><path class="cls-8" d="M231.86,124.77a87.78,87.78,0,0,1-10.8,5.83c-7.19-8.09-20.67-19.71-37.86-25.65a64.1,64.1,0,0,0-47.84,1.69,69.38,69.38,0,0,0-13.06,7.42c-22.56,16.31-28.64,42.19-29.82,57-4.21.48-9.14,1-14,1.47.37-14.73,5.44-46.65,30.69-67.8a80,80,0,0,1,20-12.21c23.3-10,44.94-6.76,62.52,1.09C211.05,102.23,225.52,116.47,231.86,124.77Z"/><path class="cls-9" d="M221.06,130.6c-1.9.83-3.29,1.22-3.81,1-2.06-.83-20.78-16.23-43.31-20.57-9.07-1.74-18.74-1.7-28.2,1.81a51.94,51.94,0,0,0-9,4.33c-27.19,16.36-28.8,51.33-32.69,52.39-.83.21-5.45.81-11.55,1.49,1.18-14.8,7.26-40.68,29.82-57a69.38,69.38,0,0,1,13.06-7.42A64.1,64.1,0,0,1,183.2,105C200.39,110.89,213.87,122.51,221.06,130.6Z"/><path class="cls-10" d="M128.57,116a65.27,65.27,0,0,0,8.15,1.18c-27.19,16.36-28.8,51.33-32.69,52.39-.83.21-5.45.81-11.55,1.49-4.21.48-9.14,1-14,1.47-4.27.41-8.49.8-12.16,1.07-6.11.47-10.67.66-11.27.31-2-1.16-5-79.61,61.58-108.14a100,100,0,0,1,10.72-3.88c-11,6.11-22.17,14.25-23.2,27.53,0,.51-.06,1-.06,1.51a21.31,21.31,0,0,0,5.08,13.8,33.23,33.23,0,0,0,13.14,9.34A37.38,37.38,0,0,0,128.57,116Z"/><path class="cls-10" d="M240.7,118.57a93.66,93.66,0,0,1-8.84,6.2,87.78,87.78,0,0,1-10.8,5.83c-1.9.83-3.29,1.22-3.81,1-2.06-.83-20.78-16.23-43.31-20.57A42.57,42.57,0,0,0,183.2,105a32.17,32.17,0,0,0,8.47-11.35,28.14,28.14,0,0,0,2-6.67,22.43,22.43,0,0,0,.22-5.86c-.64-6.77-4.35-12.46-9.07-17.44,33.45,11.68,57.06,38.44,61.65,47.09C247.31,112.36,244.69,115.35,240.7,118.57Z"/><path class="cls-11" d="M149.31,62c23.94-.94,48.42,8.92,67,23.68,1.32,1-.34,3.34-1.77,2.4-10.08-6.62-20-13-31.42-17.21a91.32,91.32,0,0,0-33.81-5.72C147.32,65.17,147.28,62.06,149.31,62Z"/><path class="cls-11" d="M142.16,62.28a1.65,1.65,0,1,1-1.14,2A1.69,1.69,0,0,1,142.16,62.28Z"/><path class="cls-11" d="M120.91,196.45a26.2,26.2,0,0,1-.92,2.49c-2.33,5.49-9.36,18.2-24.8,19C73.52,219,66,203.57,66,203.57s-7.65,10.23-23.3,9.6C26.25,212.51,21.43,200,21.43,200S6.1,199.07,7.21,183.64c1.07-14.73,16.11-14.2,16.11-14.2A32.23,32.23,0,0,1,42.1,140.16c8.3-4,15.35-2,20.74,1.56,7.44,5,11.7,13.15,11.7,13.15s8.57-13.32,25.19-11.81c17.58,1.61,19,21.08,19,21.08s14.72.12,17.44,12.59C139.25,190.66,120.91,196.45,120.91,196.45Z"/><path class="cls-12" d="M120,198.94c-2.33,5.49-9.36,18.2-24.8,19C73.52,219,66,203.57,66,203.57s-7.65,10.23-23.3,9.6C26.25,212.51,21.43,200,21.43,200S6.1,199.07,7.21,183.64c1.07-14.73,16.11-14.2,16.11-14.2A32.23,32.23,0,0,1,42.1,140.16c8.3-4,15.35-2,20.74,1.56-14.29.1-25.22,13-24.4,27.42.47,8.24,5.34,14.8,13.91,15.59,7.76.71,14.72-3.52,20.55-8.15a1,1,0,0,1,1.57.81c-.84,11.82,4.85,24.73,16.07,29.79,9.94,4.48,22.86,1.43,28.88-7.87A.84.84,0,0,1,120,198.94Z"/><path class="cls-7" d="M331.45,67.62c-2.12,3.94-6.56,6.35-11.41,7.06a20.1,20.1,0,0,1-10.32-1.16c-7.67-3.13-18.07-18.2-22.71-18-8.76.35-17.76,11.23-17.76,11.23S263.4,59.69,263,55,267.72,36.54,274.55,33c5.09-2.62,16.06-2,23.75,1.68a17.23,17.23,0,0,1,6.39,4.92C310,46.76,317.13,62,323,64.26c5.63,2.23,8.14-4.15,5.7-6.73C329,57.69,335,61,331.45,67.62Z"/><path class="cls-13" d="M329.41,69.16c-5.13,4.79-12.5,3.81-18.08.41s-9.55-8.45-14.3-12.7c-1.83-1.64-3.9-3.55-6.3-4.27s-5,0-7.35.74a20.48,20.48,0,0,0-11.51,8.94c-.07.11.1.19.17.09,3.34-5.06,10.39-9.4,16.61-9.29,3.57.07,6.62,3.22,9.08,5.53,2.24,2.11,4.34,4.36,6.6,6.45,6.51,6,17.58,11.9,25.29,4.28C329.75,69.21,329.54,69,329.41,69.16Z"/><path class="cls-13" d="M330,62.43c-1.95,5.43-9.09,2.95-12.27.49a52.94,52.94,0,0,1-8.28-8.77c-2.5-3.08-4.6-6.46-7.05-9.58a13.86,13.86,0,0,0-7.79-4.88,45.12,45.12,0,0,0-11.9-1.57c-3.13,0-6.31.42-8.61,2.74s-6.89,14.93-5.36,17.79c.05.09.21,0,.17-.08-1.68-4.12,4.31-15.85,6-17.52,1.58-1.52,4.79-2,6.92-2.12a42.48,42.48,0,0,1,13,1.65c4.64,1.32,6.84,4.32,9.5,8.08,3.86,5.48,8.45,12,14.17,15.66,3.65,2.35,10,3.37,11.61-1.86C330.16,62.4,330.05,62.37,330,62.43Z"/><path class="cls-13" d="M320.18,71.55c-5.61-1.76-9.81-5.61-13.36-10.18-2.59-3.33-4.82-8-8.51-10.31-7.22-4.45-17.93.13-23.51,5.23-.07.07,0,.19.11.13a27,27,0,0,1,13.44-6.2,17.43,17.43,0,0,1,7.12.2c2.91.78,4.7,2.78,6.42,5.13,4.79,6.54,9.74,14.42,18.24,16.27C320.3,71.86,320.35,71.6,320.18,71.55Z"/><path class="cls-14" d="M320,74.68a20.1,20.1,0,0,1-10.32-1.16c-7.67-3.13-18.07-18.2-22.71-18-8.76.35-17.76,11.23-17.76,11.23S263.4,59.69,263,55,267.72,36.54,274.55,33c5.09-2.62,16.06-2,23.75,1.68a12.63,12.63,0,0,0-10.09,1.23,13.72,13.72,0,0,0-5.84,7.31c-.72,2.17-1.09,4.66,1.43,5.74a21.59,21.59,0,0,0,4.72,1c5.43.88,10.08,1.76,13.82,8C311.78,73.64,317.88,74,320,74.68Z"/><path class="cls-13" d="M202.2,166.58c-2.61,1.8-11.91,4.2-18.39,5.52-2.35.48-4.31.81-5.47.92-3.57.36-14.43-1.22-19.29-3.29a5.34,5.34,0,0,1-2.19-1.4c-2-2.7-.86-12.42,2.48-14.28,1-.55,10.86,2.42,15.56,1.67s20.85-11.45,23.24-11.26C203.56,144.91,205.75,164.12,202.2,166.58Z"/><path class="cls-12" d="M202.2,166.58c-2.61,1.8-11.91,4.2-18.39,5.52a8.93,8.93,0,0,0,.59-6.7c-1.41-4.43-5.59-6-9.91-5.9-3.87.07-8.28.71-11.61,2.81-2,1.28-4.22,3.47-4.13,6.06a3.9,3.9,0,0,0,.3,1.36,5.34,5.34,0,0,1-2.19-1.4c-2-2.7-.86-12.42,2.48-14.28,1-.55,10.86,2.42,15.56,1.67s20.85-11.45,23.24-11.26C203.56,144.91,205.75,164.12,202.2,166.58Z"/><path class="cls-13" d="M314.57,169.55c-1.11.2-9.5-5.78-14.2-6.58s-23.41,4.14-25.61,3.19c-5-2.17-.9-21.06,3.26-22.25,2.39-.68,8.8-.38,14.62.18a98.09,98.09,0,0,1,10,1.38c3.55.83,13.65,6,17.43,9.52a4.93,4.93,0,0,1,1.41,1.84C322.51,160,318.33,168.87,314.57,169.55Z"/><path class="cls-12" d="M314.57,169.55c-1.11.2-9.5-5.78-14.2-6.58s-23.41,4.14-25.61,3.19c-5-2.17-.9-21.06,3.26-22.25,2.39-.68,8.8-.38,14.62.18-3.22,1.63-5.91,4.39-5,8.32,1,4.41,7,5.63,10.74,6.19,4.56.65,9.18.89,13.76,1.33,2.83.26,5,.53,6.74-2.22a9.91,9.91,0,0,0,1.22-2.72,4.93,4.93,0,0,1,1.41,1.84C322.51,160,318.33,168.87,314.57,169.55Z"/><path class="cls-11" d="M331.85,95.15c-4.72,1.7-23.15,3-23.15,3s-3.6,5.7-12.76,7.23a27.43,27.43,0,0,1-14.94-2c-.65,1,.42,44.53.7,46.1s14,24.49,17.21,31,5.65,32.53,4.64,33.31c-4.43,3.39-12.88,3.13-14.56,1.82s-6-18.89-7.45-22.09S267.46,181,265.05,182a78.52,78.52,0,0,1-19.45,5.59c-21.52,3.25-37.6-3.49-38.42-3.43-1.06.07-21.71,14.32-30.81,16s-24.4,0-26.68-2.34-.41-11.83.59-12.78,13.43-.16,18.57-2.79,13.29-10.41,15-14.24,3.58-29.34,14.09-36.42S245.6,124.82,248.7,121c0,0,9.2-39.39,10.95-47a18.09,18.09,0,0,1,3.81-7.24,31,31,0,0,1,3.34-3.47c.24-.22.49-.43.74-.64l.2-.17A44.75,44.75,0,0,1,278.45,56c.43-.19.87-.38,1.31-.54,9.44-3.75,22.39,4,25.85,7.72,14.6,15.52,26.7,12.36,29.75,15.73S335.86,93.71,331.85,95.15Z"/><path class="cls-12" d="M270.29,73.26c-.84,3.42-2.37,6.71-3.35,10.11-4.06,14.15-5.18,28.94-6.2,43.56a.56.56,0,0,1-.39.51c-10.65,2.43-21.38,4.64-32,7.23-8.26,2-15.77,5.37-19.84,13.41-12.62,25,16.71,36.35,25.21,37.63,3.55.53,7.84,1.23,11.88,1.87-21.52,3.25-37.6-3.49-38.42-3.43-1.06.07-21.71,14.32-30.81,16s-24.4,0-26.68-2.34-.41-11.83.59-12.78,13.43-.16,18.57-2.79,13.29-10.41,15-14.24,3.58-29.34,14.09-36.42S245.6,124.82,248.7,121c0,0,9.2-39.39,10.95-47a18.09,18.09,0,0,1,3.81-7.24c-1.82-4.92-4.27-14.62-2.57-17.1.6-.87,2.15-.92,4.1-.47-1.74,2.07-1.68,4.47-.86,6.9a34.1,34.1,0,0,0,3.41,6.56c.66,1.08,1.26,2.1,1.71,3a.05.05,0,0,0,0,0,14.12,14.12,0,0,1,.91,2.44A10.11,10.11,0,0,1,270.29,73.26Z"/><path class="cls-15" d="M265.88,48s0,0,0,0l-.12-.07-.18-.11.12-.12C265.83,47.57,265.89,47.76,265.88,48Z"/><path class="cls-7" d="M275,119.92c.75,6.73,1.41,18-11.56,23.22l-.31.13c-13,5-16.25-5.23-16.4-5.76.31.34,6.81,7.46,10.27,2.88,10.9-14.34-31-33.63-30.14-43.49s8.93-31.76,19.31-41.39c7.37-6.85,20.24-4.68,27.06-2.86,2.77.74,4.54,1.42,4.54,1.42C267.32,57.31,259.52,72,258.3,78.46S274.28,113.14,275,119.92Z"/><path class="cls-13" d="M262.87,129.15c-2.11-5.64-6.8-10.36-11.13-14.4-4.69-4.37-9.77-8.32-14.23-12.94a33,33,0,0,1-3.42-4c-1.5-2.15-1.49-4.27-1.09-6.75a51.07,51.07,0,0,1,3.14-10.83c1.52-3.79,3.34-7.46,5.18-11.11A65,65,0,0,1,248,57.93a.14.14,0,0,0-.21-.18c-4.32,5.15-7.26,11.52-10.17,17.53-2.7,5.57-5.39,11.8-5.72,18.06-.16,2.85,1.28,4.9,3.09,7a78.33,78.33,0,0,0,6.56,6.58c4.57,4.13,9.43,8,13.63,12.48,2.71,2.93,5.47,6.28,6.95,10,1.65,4.14,1.12,9.71-3.65,11.45a.23.23,0,0,0,.14.43C263.72,139.54,264.55,133.63,262.87,129.15Z"/><path class="cls-13" d="M272.6,124.61c-1.27-7.12-4.82-13.64-8.16-20q-2.79-5.31-5.65-10.59c-2-3.7-5-7.73-4.64-12.12.53-7.33,5.58-14.92,10.48-20.1.05,0,0-.12-.08-.07A44.14,44.14,0,0,0,254.37,78a12.46,12.46,0,0,0,0,9.43,104.78,104.78,0,0,0,4.9,9.4c3.69,6.88,7.88,13.68,10.71,21,2.77,7.15,4.8,17-2.67,22.08a.09.09,0,0,0,.1.15C272.72,136.91,273.6,130.2,272.6,124.61Z"/><path class="cls-13" d="M260.65,121.84c-6-7.67-12.71-14.77-18.78-22.37-1.69-2.11-3.24-4.11-3.43-6.91a33.23,33.23,0,0,1,.57-7.24,49.28,49.28,0,0,1,4.2-13.47c0-.08-.08-.13-.11-.06a49.91,49.91,0,0,0-4.59,13c-.85,4.3-1.73,9,.92,12.82a134.09,134.09,0,0,0,9.84,11.74c3.71,4.22,7.34,8.54,11.21,12.62C260.57,122.1,260.73,122,260.65,121.84Z"/><path class="cls-14" d="M259,114.27c5.13,5.46,8.6,12.34,7.09,20a39.55,39.55,0,0,1-2.21,6.39,5.79,5.79,0,0,0-.45,2.49l-.31.13c-13,5-16.25-5.23-16.4-5.76.31.34,6.81,7.46,10.27,2.88,10.9-14.34-31-33.63-30.14-43.49s8.93-31.76,19.31-41.39c7.37-6.85,20.24-4.68,27.06-2.86-9.36.14-17.36,6.88-21.88,14.84a65.82,65.82,0,0,0-5.34,13c-1.4,4.49-3.3,9.46-3.37,14.19-.07,5.08,3.26,8.46,7,11.39A82.07,82.07,0,0,1,259,114.27Z"/><path class="cls-11" d="M270.18,68.16c-2.08,1.24-4,1.92-5.27,1.48-.29-.1-.84-1.21-1.45-2.88-1.82-4.92-4.27-14.62-2.57-17.1.6-.87,2.15-.92,4.1-.47A39,39,0,0,1,278.45,56a4.24,4.24,0,0,1,1.44,1.75C280.36,59.65,274.92,65.34,270.18,68.16Z"/><path class="cls-13" d="M264.66,52.27c0-.15-.2-.13-.24,0-1.47,4.23,1.52,10.6,4.29,13.65.13.14.64-.17.56-.34C268.23,63.48,265,57.51,264.66,52.27Z"/><circle class="cls-13" cx="292.06" cy="93.16" r="6.54" transform="translate(28.78 250.21) rotate(-48.51)"/><path class="cls-15" d="M304.3,78.74a15.53,15.53,0,0,1-1.21,5.07,8.44,8.44,0,0,1-1.45,2.31A4.13,4.13,0,0,1,299,87.48a3.59,3.59,0,0,1-2.84-1.06A7.09,7.09,0,0,1,294.67,84a13.19,13.19,0,0,1-.77-2.56,18,18,0,0,1-.35-2.64l.76.43a6.17,6.17,0,0,1-1.79.44,6.38,6.38,0,0,1-1.8-.06,5.36,5.36,0,0,1-1.67-.59A5.5,5.5,0,0,1,287.69,78a7,7,0,0,0,1.51.73,5.48,5.48,0,0,0,1.59.28,6,6,0,0,0,1.59-.15,7,7,0,0,0,1.46-.52l.64-.34.12.77a20.17,20.17,0,0,0,1.29,4.76c.63,1.46,1.66,2.8,3.05,2.67a2.84,2.84,0,0,0,1.89-.88,8,8,0,0,0,1.46-1.9A24.63,24.63,0,0,0,304.3,78.74Z"/><path class="cls-16" d="M332.64,83.35a5.63,5.63,0,0,0-1.83-.23.77.77,0,0,0-.52.3,1,1,0,0,0-.21.59c0,.37.3.72.84.93a7.6,7.6,0,0,0,1.85.35,3.23,3.23,0,0,1-2,.4,2.14,2.14,0,0,1-1.1-.47,1.61,1.61,0,0,1-.55-1.22,1.86,1.86,0,0,1,.5-1.2,1.5,1.5,0,0,1,1.22-.45A2.82,2.82,0,0,1,332.64,83.35Z"/><path class="cls-7" d="M199.45,131.74a5.44,5.44,0,0,1-4.82,4.89s-13.11-10.14-17.85-6.41c-4,3.11-9.56,20.19-15.22,29.08a18.58,18.58,0,0,1-3.29,4.1c-6.7,5.8-19.48,1.37-22.47-3.48s1.78-8.53,1.78-8.53c-2.12,5.32,2.71,9.52,7.6,6.51s1.63-35.76,6.52-41.2,23.62-10.56,31-6.65a23.78,23.78,0,0,1,6.26,5.67A110.27,110.27,0,0,1,199.45,131.74Z"/><path class="cls-13" d="M194.9,134.16a32.58,32.58,0,0,0-10.62-8.06c-3.38-1.69-6.77-2.44-9.7.42-3.21,3.13-5.28,7.66-7,11.73-2.16,5.19-4.1,10.49-6.13,15.73,0,.06.07.11.1.05,3.26-7.69,6.06-16,10.53-23.07,1.17-1.84,2.57-4.05,4.55-5.1,2.61-1.38,5.27-.17,7.67,1.06a49.45,49.45,0,0,1,10.25,7.52C194.76,134.6,195.06,134.35,194.9,134.16Z"/><path class="cls-13" d="M195.8,129.44A62.89,62.89,0,0,0,188.38,119c-2.13-2.49-4.48-5.39-7.43-6.93-3.28-1.72-7-.9-10.37,0a63.54,63.54,0,0,0-11.49,4.14c-7.1,3.54-6.49,11.65-7.21,18.52-.47,4.57-.93,9.15-1.42,13.72-.51,4.75-1.5,11-7.36,11.59,0,0,0,.05,0,.05,6.73-.26,7.53-8.35,8.07-13.43.48-4.41.94-8.82,1.41-13.24.41-3.86.35-8.45,2-12,1.86-3.94,6.11-5.27,9.95-6.54s8.86-3.34,13.08-3,7.71,4.48,10.44,7.43a72.26,72.26,0,0,1,7.55,10.26C195.7,129.67,195.86,129.55,195.8,129.44Z"/><path class="cls-13" d="M189.29,122c-2.8-2.68-6.69-6.32-10.51-7.38s-8.61.94-12.16,2.27c-2.93,1.09-7.29,2.19-9.26,4.87-1.11,1.51-1.49,3.55-1.94,5.32-.63,2.5-1,5-1.39,7.59,0,0,0,0,.05,0a57.09,57.09,0,0,1,2.86-10.93c1.5-3.82,6.31-5.06,9.85-6.38,3.69-1.37,8.63-3.51,12.56-2,3.62,1.39,6.88,4.26,9.81,6.74C189.3,122.22,189.42,122.12,189.29,122Z"/><path class="cls-14" d="M188.92,115.72a20.69,20.69,0,0,0-11.64.43c-7.47,2.49-14.26,5.51-16.83,9.91-.95,1.62-2.87,30.28-2.08,32a2.28,2.28,0,0,0,3.19,1.23,18.58,18.58,0,0,1-3.29,4.1c-6.7,5.8-19.48,1.37-22.47-3.48s1.78-8.53,1.78-8.53c-2.12,5.32,2.71,9.52,7.6,6.51s1.63-35.76,6.52-41.2,23.62-10.56,31-6.65A23.78,23.78,0,0,1,188.92,115.72Z"/><path class="cls-13" d="M211.38,146.85c-1.47,3.38-3.26,6.65-4.81,10a.18.18,0,0,1-.32,0s-11.76-7.76-10.22-13.62c.42-1.56,1.77-3.1,3.51-3,2.46.12,3.93,3.4,4.94,5.31,0-2.34.35-5.33,2.32-6.76a3.35,3.35,0,0,1,4.61.67C213.24,141.59,212.38,144.55,211.38,146.85Z"/><path class="cls-9" d="M303.74,27.38l-.12.6c-.37,2-.81,4.17-1.28,6.46,0,.21-.09.42-.13.62-.43,2.08-.88,4.23-1.34,6.37,0,.2-.08.4-.13.61-.47,2.15-.92,4.28-1.38,6.31,0,.21-.09.42-.13.61-.51,2.28-1,4.4-1.43,6.25,0,.21-.09.41-.13.6-.87,3.7-1.37,5.86-1.48,5.89-6.18,1.88-11-3-10.84-3.34l.74-1.56.2-.44c.73-1.56,1.86-3.93,3.21-6.76.06-.15.14-.29.22-.45,1-2.08,2.08-4.37,3.22-6.74l.22-.48c1.08-2.22,2.18-4.5,3.27-6.72l.24-.5c1.17-2.38,2.3-4.66,3.33-6.71.08-.17.17-.34.26-.51,2.43-4.82,4.26-8.2,4.56-8.07S304.6,22.75,303.74,27.38Z"/><g class="cls-17"><path class="cls-15" d="M297.8,55.21c0,.21-.09.41-.13.6a29.09,29.09,0,0,1-11.58,1l.2-.44A33.26,33.26,0,0,0,297.8,55.21Z"/><path class="cls-15" d="M299.36,48.35c0,.21-.09.42-.13.61a29,29,0,0,1-9.73.64c.06-.15.14-.29.22-.45A33.09,33.09,0,0,0,299.36,48.35Z"/><path class="cls-15" d="M300.87,41.43c0,.2-.08.4-.13.61a28.72,28.72,0,0,1-7.8.37l.22-.48A33.06,33.06,0,0,0,300.87,41.43Z"/><path class="cls-15" d="M302.34,34.44c0,.21-.09.42-.13.62a28.64,28.64,0,0,1-5.78.15l.24-.5A33.46,33.46,0,0,0,302.34,34.44Z"/><path class="cls-15" d="M303.74,27.38l-.12.6A29.15,29.15,0,0,1,300,28c.08-.17.17-.34.26-.51A33.71,33.71,0,0,0,303.74,27.38Z"/></g><path class="cls-6" d="M668.27,675.76c-1.25-8.1-7.39-26.75-20.75-42.3-11.11-12.92-27.22-23.7-49.68-24.48a71.41,71.41,0,0,0-17.4,1.49c-32.59,6.94-49.87,35.6-54.46,46.12-4.49-1.71-7.8-3.09-8.11-3.55-1-1.49,23.07-58.21,79.88-56.25a74.8,74.8,0,0,1,8.92.82,72.13,72.13,0,0,1,40.23,20.44c19.86,19.47,27.7,46.37,28.07,54.05C675,673.56,672.18,674.8,668.27,675.76Z"/><path class="cls-7" d="M668.27,675.76a74.54,74.54,0,0,1-8.35,1.45,86.76,86.76,0,0,0-18.15-35.58c-9.87-11.44-24.16-21-44.06-21.65a62.56,62.56,0,0,0-18.27,2c-25,6.6-39.28,27.58-44.46,37.93-3.17-1.14-6.3-2.27-9-3.31,4.59-10.52,21.87-39.18,54.46-46.12a71.41,71.41,0,0,1,17.4-1.49c22.46.78,38.57,11.56,49.68,24.48C660.88,649,667,667.66,668.27,675.76Z"/><path class="cls-8" d="M659.92,677.21a71.31,71.31,0,0,1-9.62.54c-2.41-8.15-8.11-20.92-18.33-30.88a50.38,50.38,0,0,0-34.56-14.78,54.29,54.29,0,0,0-11.76.91c-21.47,4-34.44,20.41-40.23,30.53-3.15-1.06-6.82-2.35-10.44-3.63,5.18-10.35,19.45-31.33,44.46-37.93a62.56,62.56,0,0,1,18.27-2c19.9.68,34.19,10.21,44.06,21.65A86.76,86.76,0,0,1,659.92,677.21Z"/><path class="cls-9" d="M650.3,677.75c-1.63-.06-2.75-.24-3-.57-1.18-1.27-9.34-18.47-23.9-29.08A40.8,40.8,0,0,0,602.71,640a41.81,41.81,0,0,0-7.85.07c-24.79,2.54-37.62,26.85-40.73,26.3-.66-.13-4.14-1.24-8.71-2.8,5.79-10.12,18.76-26.48,40.23-30.53a54.29,54.29,0,0,1,11.76-.91A50.38,50.38,0,0,1,632,646.87C642.19,656.83,647.89,669.6,650.3,677.75Z"/><path class="cls-10" d="M589.46,636.47a50.9,50.9,0,0,0,5.4,3.56c-24.79,2.54-37.62,26.85-40.73,26.3-.66-.13-4.14-1.24-8.71-2.8-3.15-1.06-6.82-2.35-10.44-3.63-3.17-1.14-6.3-2.27-9-3.31-4.49-1.71-7.8-3.09-8.11-3.55-1-1.49,23.07-58.21,79.88-56.25a74.8,74.8,0,0,1,8.92.82c-9.84.68-20.52,2.71-25.69,11.81q-.3.52-.54,1.05a16.72,16.72,0,0,0-1,11.5,26,26,0,0,0,6.21,11A29.57,29.57,0,0,0,589.46,636.47Z"/><path class="cls-10" d="M668.27,675.76a74.54,74.54,0,0,1-8.35,1.45,71.31,71.31,0,0,1-9.62.54c-1.63-.06-2.75-.24-3-.57-1.18-1.27-9.34-18.47-23.9-29.08a33.73,33.73,0,0,0,8.62-1.23,25.11,25.11,0,0,0,9.8-5.24,21.51,21.51,0,0,0,3.63-4.07,17.6,17.6,0,0,0,2.12-4.1c1.8-5,1.07-10.3-.62-15.41,19.86,19.47,27.7,46.37,28.07,54.05C675,673.56,672.18,674.8,668.27,675.76Z"/><path class="cls-11" d="M622.24,605c17.33,7.33,31.43,22.52,39.71,39.22.59,1.19-1.35,2.25-2.05,1.11-4.95-8.07-9.88-15.93-16.58-22.72a71.76,71.76,0,0,0-22.11-15.37A1.23,1.23,0,0,1,622.24,605Z"/><path class="cls-11" d="M617.06,602.84a1.3,1.3,0,1,1-1.49,1.08A1.33,1.33,0,0,1,617.06,602.84Z"/><path class="cls-11" d="M571.11,682.1a27.84,27.84,0,0,1-4.84,8.09,20.4,20.4,0,0,1-15.82,7.55c-16.79,0-22-12.17-22-12.17s-6.28,7.63-18.36,6.56c-12.69-1.12-16-11-16-11s-11.81-1.29-10.38-13.17c1.37-11.35,13-10.39,13-10.39a25,25,0,0,1,15.6-21.93,15.34,15.34,0,0,1,15.93,1.95,31.14,31.14,0,0,1,8.59,10.62s7.12-10,19.91-8.2c13.53,1.89,13.94,17,13.94,17s11.38.63,13,10.37C585.5,678.31,571.11,682.1,571.11,682.1Z"/><path class="cls-18" d="M566.27,690.19a20.4,20.4,0,0,1-15.82,7.55c-16.79,0-22-12.17-22-12.17s-6.28,7.63-18.36,6.56c-12.69-1.12-16-11-16-11s-11.81-1.29-10.38-13.17c1.37-11.35,13-10.39,13-10.39a25,25,0,0,1,15.6-21.93,15.34,15.34,0,0,1,15.93,1.95c-7.33,1.69-13.4,8.49-15.64,15.59-1.62,5.15-.54,11.58,4.75,14.13,4.94,2.39,10.46.45,14.87-2.16C532.69,664.92,535.63,696.56,566.27,690.19Z"/><path class="cls-11" d="M688.94,690.67a22.64,22.64,0,0,1-2.88,8.71,22.35,22.35,0,0,1-12.93,10.36c-14.85,4.89-23.69-9.31-23.69-9.31s-6.92,6.6-16,5.43c-10.21-1.31-12.29-11.32-12.29-11.32s-8.09-3.68-7-10.4c1.43-8.93,11.44-6.66,11.44-6.66s1.09-16,13.38-18a17.32,17.32,0,0,1,11.08,1.69,18.82,18.82,0,0,1,7,6.48s4.81-11.39,16.49-9.78c9.16,1.26,12.7,12.66,12.7,12.66s7.89.19,9.55,7.21C697.34,684.24,692.4,689.47,688.94,690.67Z"/><path class="cls-19" d="M686.06,699.38a22.35,22.35,0,0,1-12.93,10.36c-14.85,4.89-23.69-9.31-23.69-9.31s-6.92,6.6-16,5.43c-10.21-1.31-12.29-11.32-12.29-11.32s-8.09-3.68-7-10.4c1.43-8.93,11.44-6.66,11.44-6.66s1.09-16,13.38-18a17.32,17.32,0,0,1,11.08,1.69c-7.59,3.39-13.67,10.73-14.77,19.09-.72,5.59,2.56,10.15,8.22,10.9,4.83.64,9.29-1.93,12.91-4.84a1.13,1.13,0,0,1,1.77.81c.94,7.34,6.34,13.88,13.7,15.47A17.47,17.47,0,0,0,686.06,699.38Z"/><path class="cls-20" d="M557.36,164.13a5.56,5.56,0,0,0,9.39.44,5.06,5.06,0,0,0,.39-4.87.65.65,0,0,0-.09-.16,5.4,5.4,0,0,0-5.47-3.73A5.61,5.61,0,0,0,557.36,164.13Z"/><path class="cls-20" d="M567.59,140.66c-.09,3.48,2.53,6.45,5.29,8.28,5.54,3.67,13.48.76,14.76-5.91a8.66,8.66,0,0,0-7.36-10.31,10.23,10.23,0,0,0-7.46.44A8.77,8.77,0,0,0,567.59,140.66Z"/><path class="cls-20" d="M546.81,143.63c1.72,1.21,4.28,1.07,5.11-1.12a2.79,2.79,0,0,0-.9-3.18,3.49,3.49,0,0,0-4-.58A2.81,2.81,0,0,0,546.81,143.63Z"/><path class="cls-21" d="M620.42,211.66a8,8,0,0,0-.26-9.42,10.44,10.44,0,0,0,1-1.64c2.31-4.87.42-10.4-3.54-13.78a13.86,13.86,0,0,0-6.62-3.11,11,11,0,0,0-1.31-4.31c-2.81-5.19-8.71-7.58-14.42-6.73-6,.89-10.72,5-13.84,10a.32.32,0,0,0,.54.36c5.13-7.49,16.88-13.4,24.4-5.38a10.55,10.55,0,0,1,2.81,5.81,18,18,0,0,0-7.45,1.21c-4.09,1.58-11.38,6.56-8,11.84s10.13.89,13.1-2.26a14.69,14.69,0,0,0,4.18-8.83,12.44,12.44,0,0,1,2.06.6c6,2.43,9.27,9.88,5.91,15a7.13,7.13,0,0,0-2.91-1.37,7.69,7.69,0,0,0-7.24,2c-1.45,1.62-.83,3.53,1,4.47,3.19,1.61,6.83-.16,9.24-2.71a6.63,6.63,0,0,1,.1,7.36A.73.73,0,0,0,620.42,211.66Zm-11.18-26.44a9.88,9.88,0,0,1-.93,3.82c-1.55,3.34-5.33,7.54-9.18,8s-5.4-3.45-3.19-6.37a14.12,14.12,0,0,1,5.06-3.79A16.53,16.53,0,0,1,609.24,185.22Zm8.74,17.1a10.14,10.14,0,0,1-2,1.61,7.85,7.85,0,0,1-2.52,1,3.79,3.79,0,0,1-1.92.05c-1.53-.55-1.61-1.56-1.41-2.29.47-1.65,4.43-1.67,5.64-1.4A5.65,5.65,0,0,1,618,202.32Z"/><path class="cls-22" d="M126.4,658.59a20.7,20.7,0,0,0,1.58,4.28,10,10,0,0,0-2.88,5.42c-1.17,6.54,3,12.24,7.6,16.37.62.55,1.42-.39.84-1-3.92-3.8-7.83-8.56-7.1-14.4a9.23,9.23,0,0,1,2.36-4.9c2,3.33,4.95,6.16,8.53,5.35,5.56-1.25,3.21-7.52-.93-8.9a8,8,0,0,0-7,.89l0,0a15.92,15.92,0,0,1-.88-11.94,13.78,13.78,0,0,1,10.73-9c-1.43,3.94.07,8.5,3.18,11.92s10,6.16,11.86,0c1.67-5.48-3.07-11-7.8-13a13.86,13.86,0,0,0-3.56-1,11.53,11.53,0,0,1,6.5-3c4.47-.55,9.41.86,13.56,2.41.53.19.92-.58.39-.81-6.75-2.82-14.48-6-21-.75a10.25,10.25,0,0,0-2,2.07,14.83,14.83,0,0,0-9.36,4.07A16.52,16.52,0,0,0,126.4,658.59Zm15-18a11.79,11.79,0,0,1,7.45,2.88,10.12,10.12,0,0,1,3.62,6.06c.36,2.6-1,5.31-3.93,4.8-4-.69-7.64-5.71-8-9.54A7.1,7.1,0,0,1,141.44,640.58Zm-11.27,22.6a5.8,5.8,0,0,1,7.44.1c1.5,1.23,2.1,3.8-.14,4.68-1.42.56-3.05-.2-4.15-1.06A13.66,13.66,0,0,1,130.17,663.18Z"/><path class="cls-20" d="M20.73,69a5.56,5.56,0,0,0,9.39.44,5,5,0,0,0,.38-4.87s-.05-.1-.08-.16A5.4,5.4,0,0,0,25,60.68,5.61,5.61,0,0,0,20.73,69Z"/><path class="cls-23" d="M118.38,8.16c-5-.4-10.44-.44-15.1,1.73a16.93,16.93,0,0,0-8.91,10.48,16.51,16.51,0,0,0-.63,4.89A11.27,11.27,0,0,0,89,28.41c-2.76,3.14-3.14,7.29-2.1,11.22,1.21,4.62,4.06,8.64,5.14,13.3s-1,11.87-7,11c-.35,0-.45.52-.12.61,5.94,1.54,9.88-4.84,9.37-10.07-.71-7.18-7.59-13.81-5.66-21.23a9.07,9.07,0,0,1,5.28-5.92,17.38,17.38,0,0,0,1.54,5.13c1.56,3.2,4.69,7.1,8.71,6.34,3.77-.72,4.27-4.41,3-7.47a11.2,11.2,0,0,0-8.23-6.5,9.82,9.82,0,0,0-3.29,0,14.65,14.65,0,0,1,1.66-6.65c4.28-8.16,12.93-8.5,21-8.7A.65.65,0,0,0,118.38,8.16ZM95.7,26.76a8.06,8.06,0,0,1,2.14-.12c3.46.28,7.54,3.26,8,6.91.27,2.2-1,3.82-3.42,3.3a6.46,6.46,0,0,1-3.33-2.26,13.89,13.89,0,0,1-2.83-5.2A14.79,14.79,0,0,1,95.7,26.76Z"/><path class="cls-20" d="M638.71,922.65c1.28,1.67,3.76,2.3,5.21.46a2.8,2.8,0,0,0,.09-3.3,3.49,3.49,0,0,0-3.61-1.74A2.81,2.81,0,0,0,638.71,922.65Z"/><path class="cls-20" d="M537.78,918c2.08.33,4.31-.93,4.09-3.25a2.77,2.77,0,0,0-2.2-2.46,3.47,3.47,0,0,0-3.81,1.22A2.81,2.81,0,0,0,537.78,918Z"/><path class="cls-24" d="M613.29,936.22c.28-.69-.84-1.21-1.18-.56-3.88,7.4-10.63,13.91-19.58,13.19a13.6,13.6,0,0,1-10.39-6.14,20,20,0,0,0,7.19-6.88c1.66-2.82,2.71-7.62-1.12-9.23-3.67-1.53-7.32,1.89-8.7,5a12.51,12.51,0,0,0,0,10.34,11.84,11.84,0,0,1-7.65.68c-4.61-1.24-6.36-5.35-6.28-9.8.14-7.86,4-15.15,9.66-20.45.36-.33-.12-.81-.49-.54a26.89,26.89,0,0,0-10,14.42c-1.36,4.77-2,11.1,1.43,15.17,3.79,4.44,9.33,4.38,14.2,2.2a15.49,15.49,0,0,0,10.6,7.07C601,952.28,609.69,945.09,613.29,936.22Zm-32,4.83a11,11,0,0,1-.52-7,8.63,8.63,0,0,1,2.72-4.61c2-1.59,5.44-1.74,5.42,1.66s-3.4,7-6,8.94A15.14,15.14,0,0,1,581.27,941.05Z"/><path class="cls-25" d="M517.59,889.34c-1.83,2.95-18.74,3.63-23.52,2.69-1.18,4.4-6.68,17.74-9.53,18-3.82.4-13.67-15.79-14.61-21-4,.58-19.22-.46-20.39-3.22-1.89-4.45,12.44-15.74,15.67-19.3-2-5.33-5.38-23.05-2-24.42s18.07,8.23,21.86,11.1c4.09-2.33,20.65-9.3,23.79-6.09,1.91,2-1.94,18.27-3.2,21.66C509.48,872.36,519.54,886.23,517.59,889.34Z"/><path class="cls-26" d="M168.81,895.78c.63-.21,3.19,1.74,3.78,2.45.7-.5,3.13-1.79,3.58-1.49.61.4.09,4-.39,4.84.65.4,2.76,2.4,2.6,2.94-.27.89-3.73.81-4.64.94-.35,1-2,4-2.67,3.82s-1.65-3.39-1.86-4.28c-.88-.15-4.15-1.13-4.22-2-.05-.52,2.49-2.45,3.09-2.79C168,899.25,168.15,896,168.81,895.78Z"/><path class="cls-27" d="M64.61,913.35c.63.2,1.53,3.29,1.58,4.22.86,0,3.58.42,3.76.93.25.68-2.28,3.24-3.19,3.65.29.72.79,3.57.34,3.92-.74.55-3.48-1.58-4.28-2-.9.61-4,2.05-4.42,1.48s.69-3.71,1.05-4.54c-.62-.65-2.67-3.38-2.22-4.11.28-.44,3.46-.48,4.15-.4C61.85,915.62,64,913.13,64.61,913.35Z"/><path class="cls-28" d="M690.77,87.28c-2.61.08-6.43-6.25-7.81-7.75-2.8.43-9.44,2.49-11.1,1.06-1.06-.9,2.63-8.24,3.94-10-.58-.7-6.27-7.69-4.38-9.08,2.18-1.59,10.1.93,11,1.17,1.66-1.66,6-6.67,8.37-6.35,2.58.36,1.94,6.6,1.81,9.93,1.29.57,7.82,3.52,8.39,5.54.64,2.31-3.61,4.59-8.51,5.85C692.53,80.16,692.62,87.23,690.77,87.28Z"/><path class="cls-29" d="M516.38,827.91c-2.62.08-6.43-6.25-7.81-7.75-2.81.43-9.44,2.49-11.1,1.06-1.06-.9,2.63-8.24,3.93-10-.58-.7-6.26-7.69-4.37-9.08,2.18-1.59,10.1.93,11,1.17,1.66-1.66,6-6.67,8.37-6.35,2.57.36,1.94,6.6,1.81,9.93,1.29.57,7.82,3.52,8.39,5.54.64,2.31-3.61,4.59-8.51,5.85C518.14,820.79,518.23,827.86,516.38,827.91Z"/><path class="cls-30" d="M52.73,813.31c2.45-.91,8.09,3.86,9.89,4.84,2.52-1.31,8.13-5.39,10.17-4.57,1.29.51.16,8.64-.53,10.68.77.49,8.4,5.27,7,7.2-1.54,2.21-9.86,2.37-10.82,2.43-1,2.12-3.57,8.26-5.89,8.71-2.56.49-4-5.62-4.91-8.83-1.4-.12-8.53-.81-9.72-2.54-1.35-2,1.94-5.51,6.18-8.28C53.35,820.63,51,814,52.73,813.31Z"/><path class="cls-31" d="M648.25,372.37c-8.71,0-11.31,6.22-13.93,8.71-2.63-2.49-5.23-8.71-13.93-8.71-8.08,0-12.19,9.34-12.19,17.42,0,13.92,26.12,29.6,26.12,29.6s26.11-15.68,26.11-29.6C660.43,381.71,656.33,372.37,648.25,372.37Z"/><path class="cls-32" d="M637,410.39l-1.94-2.9c.15-.1,14.9-10.06,14.9-19.45h3.48C653.47,399.29,637.7,409.94,637,410.39Z"/><path class="cls-32" d="M653.47,382.82H650a1.6,1.6,0,0,0-1.76-1.74l0-3.48a5.08,5.08,0,0,1,5.22,5.22Z"/><path class="cls-33" d="M84.57,513.35c-9,4.48-8.52,12.26-10,16.18-4-1.23-9.89-6.33-18.91-1.86C47.32,531.82,47.86,543.6,52,552c7.16,14.43,42.28,17.25,42.28,17.25s19-29.66,11.85-44.1C102,516.76,92.94,509.2,84.57,513.35Z"/><path class="cls-32" d="M92.48,558.51l-3.5-2c.11-.18,10.27-18.08,5.45-27.8L98,526.91C103.82,538.56,92.94,557.7,92.48,558.51Z"/><path class="cls-32" d="M95.35,521.49l-3.61,1.79a1.83,1.83,0,0,0-1.15-1.09,1.85,1.85,0,0,0-1.57.19l-1.77-3.62a5.88,5.88,0,0,1,8.1,2.73Z"/><path class="cls-34" d="M80.94,872.11A38.9,38.9,0,0,0,87,891.22a27.37,27.37,0,0,0,16,11.32,19.77,19.77,0,0,0,10.68,0c3.24-.95,6.27-2.58,9.59-3.25,7.11-1.44,11.66,5.64,15.33,10.56a35.86,35.86,0,0,0,6.38,7,20.15,20.15,0,0,0,9.78,4c7.89,1.12,15.25-2.3,20.42-8.2,2.26-2.57,3.94-5.56,6.12-8.19s4.62-4.6,8-4.27c3.65.35,6.89,2.47,9.74,4.62,3.09,2.33,5.94,5,9.11,7.2,5.32,3.72,12.79,6.09,18.93,2.89a13.2,13.2,0,0,0,6.12-7.46c1.27-3.55.93-7.41,1-11.11s.44-7.6,3.34-10.2c2.5-2.24,6.08-2.89,9.08-4.2,3.25-1.42,5.89-3.82,6.79-7.36,1-3.86-.19-8-1.94-11.46s-5.35-5.34-8.35-7.78c-2.48-2-3.69-4.35-3.11-7.56,1-5.6,5-11.5,1.77-17.11-4.07-7.18-13.33-6.28-20.34-6.47-3.84-.1-7.67-.58-11.09-2.44a23.53,23.53,0,0,1-7.9-7.41c-4-5.68-6.35-12.25-9.56-18.35-2.52-4.8-5.64-9.19-10-12.26-.65-.07-1.3-.14-1.95-.19A82.29,82.29,0,0,0,156,785.46c-7.79,1.82-15.34,5.21-21.2,10.76a32.23,32.23,0,0,0-9.14,15.13,23.85,23.85,0,0,0-10.5-3.16c-9.08-.6-18.3,4.14-22.08,12.61a24.39,24.39,0,0,0,1.59,23.05A33.31,33.31,0,0,0,81.7,857.4c-.19,1.55-.34,3.11-.47,4.66A64.85,64.85,0,0,0,80.94,872.11Zm77.42-18.31a6.37,6.37,0,0,1,3.38-2.9,5.39,5.39,0,0,1,4.48.53c2.92,1.73,3.74,5.21,3.6,8.38a1.45,1.45,0,1,1-2.89,0c0-.43,0-.87,0-1.31l0-.57,0-.35a6.23,6.23,0,0,0-.66-2.11l-.23-.39-.17-.24-.05-.06-.41-.42-.16-.15-.49-.32-.3-.16-.41-.13c-.07,0-.59-.09-.32-.07h-.5l-.25,0-.47.15-.33.18a1.92,1.92,0,0,0-.59.47l-.38.42-.1.17a7.16,7.16,0,0,0-.86,4.42,1.45,1.45,0,0,1-1.44,1.44,1.47,1.47,0,0,1-1.45-1.44A10.32,10.32,0,0,1,158.36,853.8Zm-.87,14.09a6.72,6.72,0,0,1,2.63-2.76,10.68,10.68,0,0,1,3.26-1.38,10.86,10.86,0,0,1,7.21.7,4.8,4.8,0,0,1,1,.66,5,5,0,0,1,2,2.39,4.42,4.42,0,0,1-.7,4.17,6.35,6.35,0,0,1-3.3,2.21,13.18,13.18,0,0,1-7.84,0,8.52,8.52,0,0,1-3.48-1.83,3.81,3.81,0,0,1-1.05-1.7A3.69,3.69,0,0,1,157.49,867.89ZM136.1,860a1.46,1.46,0,0,1,1.45,1.44,4.47,4.47,0,0,0,4.12,5,4.62,4.62,0,0,0,3.22-1.26c1.08-1,1.38-2.63,1.61-4.19a1.46,1.46,0,0,1,1.78-1,1.49,1.49,0,0,1,1,1.78c-.31,2.13-.89,4.22-2.59,5.68a7.62,7.62,0,0,1-5.19,1.89,7.34,7.34,0,0,1-6.85-7.86A1.47,1.47,0,0,1,136.1,860ZM116,853.8a6.37,6.37,0,0,1,3.38-2.9,5.39,5.39,0,0,1,4.48.53c2.92,1.73,3.74,5.21,3.6,8.38a1.45,1.45,0,1,1-2.89,0c0-.43,0-.87,0-1.31l0-.57,0-.35a6.46,6.46,0,0,0-.66-2.11l-.23-.39-.17-.24,0-.06-.41-.42-.16-.15-.49-.32-.3-.16-.41-.13c-.07,0-.59-.09-.32-.07h-.5l-.25,0-.46.14-.34.19a1.92,1.92,0,0,0-.59.47l-.38.42-.1.17a7.16,7.16,0,0,0-.86,4.42,1.45,1.45,0,0,1-1.44,1.44,1.47,1.47,0,0,1-1.45-1.44A10.32,10.32,0,0,1,116,853.8Zm-5.62,14.09a6.72,6.72,0,0,1,2.63-2.76,10.68,10.68,0,0,1,3.26-1.38,10.86,10.86,0,0,1,7.21.7,4.8,4.8,0,0,1,1,.66,5,5,0,0,1,2,2.39,4.42,4.42,0,0,1-.7,4.17,6.39,6.39,0,0,1-3.3,2.21,13.18,13.18,0,0,1-7.84,0A8.52,8.52,0,0,1,111.2,872a3.73,3.73,0,0,1-1-1.7A3.63,3.63,0,0,1,110.36,867.89Z"/><path class="cls-35" d="M252.34,847.44a25.45,25.45,0,0,0,4-10.13,27.87,27.87,0,0,0-9.74-26.25,33.61,33.61,0,0,0-27.09-6.56,41.48,41.48,0,0,0-14.85-14.1c-.87-.5-1.75-1-2.64-1.4-.3-.15-.62-.28-.92-.42-.59-.27-1.19-.55-1.79-.8l-1.16-.44c-.53-.21-1.06-.42-1.6-.6l-1.31-.43c-.5-.16-1-.32-1.5-.46s-.95-.26-1.42-.39l-1.44-.35c-.49-.12-1-.23-1.49-.33s-.92-.19-1.39-.27l-1.56-.27-1.35-.2-1.59-.2-.47-.06h0c4.34,3.07,7.46,7.46,10,12.26,3.21,6.1,5.6,12.67,9.56,18.35a23.53,23.53,0,0,0,7.9,7.41c3.42,1.86,7.25,2.34,11.09,2.44,7,.19,16.27-.71,20.34,6.47,3.19,5.61-.76,11.51-1.77,17.11-.58,3.21.63,5.53,3.11,7.56,3,2.44,6.53,4.18,8.35,7.78s2.92,7.6,1.94,11.46c-.9,3.54-3.54,5.94-6.79,7.36-3,1.31-6.58,2-9.08,4.2-2.9,2.6-3.3,6.54-3.34,10.2s.3,7.56-1,11.11A13.2,13.2,0,0,1,227.2,915c-6.14,3.2-13.61.83-18.93-2.89-3.17-2.22-6-4.87-9.11-7.2-2.85-2.15-6.09-4.27-9.74-4.62-3.42-.33-6,1.79-8,4.27s-3.86,5.62-6.12,8.19c-5.17,5.9-12.53,9.32-20.42,8.2a20.15,20.15,0,0,1-9.78-4,35.86,35.86,0,0,1-6.38-7c-3.67-4.92-8.22-12-15.33-10.56-3.32.67-6.35,2.3-9.59,3.25a19.77,19.77,0,0,1-10.68,0,27.37,27.37,0,0,1-16-11.32,38.9,38.9,0,0,1-6.09-19.11,64.85,64.85,0,0,1,.29-10.05c.13-1.55.28-3.11.47-4.66v0a.36.36,0,0,0,0,.09c-.45.85-.87,1.71-1.25,2.59A37.7,37.7,0,0,0,78,882.61,39.06,39.06,0,0,0,89.72,902.7a46.14,46.14,0,0,0,20.88,11.2c6.28,1.47,14.14,1.92,19.83-1.6a26.76,26.76,0,0,0,8.92,12.07c9.53,7.68,22.32,11.87,34.49,9.17a32.08,32.08,0,0,0,21.75-16.85,42.57,42.57,0,0,0,14.6,8.93,38.62,38.62,0,0,0,18.48,2,32.3,32.3,0,0,0,16.19-7.23c8.44-7,13.41-18.24,11.8-29.14a22.6,22.6,0,0,0,9.4-7.05c5.53-7,7-16.56,2.75-24.6A24.14,24.14,0,0,0,252.34,847.44Z"/><path class="cls-36" d="M158.74,860.82a1.45,1.45,0,0,0,1.44-1.44A7.16,7.16,0,0,1,161,855l.1-.17.38-.42a1.92,1.92,0,0,1,.59-.47l.33-.18.47-.15.25,0h.5c-.27,0,.25.05.32.07l.41.13.3.16.49.32.16.15.41.42.05.06.17.24.23.39a6.23,6.23,0,0,1,.66,2.11l0,.35,0,.57c0,.44,0,.88,0,1.31a1.45,1.45,0,1,0,2.89,0c.14-3.17-.68-6.65-3.6-8.38a5.39,5.39,0,0,0-4.48-.53,6.37,6.37,0,0,0-3.38,2.9,10.32,10.32,0,0,0-1.07,5.58A1.47,1.47,0,0,0,158.74,860.82Z"/><path class="cls-36" d="M116.36,860.82a1.45,1.45,0,0,0,1.44-1.44,7.16,7.16,0,0,1,.86-4.42l.1-.17.38-.42a1.92,1.92,0,0,1,.59-.47l.34-.19.46-.14.25,0h.5c-.27,0,.25.05.32.07l.41.13.3.16.49.32.16.15.41.42,0,.06.17.24.23.39a6.46,6.46,0,0,1,.66,2.11l0,.35,0,.57c0,.44,0,.88,0,1.31a1.45,1.45,0,1,0,2.89,0c.14-3.17-.68-6.65-3.6-8.38a5.39,5.39,0,0,0-4.48-.53,6.37,6.37,0,0,0-3.38,2.9,10.32,10.32,0,0,0-1.07,5.58A1.47,1.47,0,0,0,116.36,860.82Z"/><path class="cls-36" d="M141.51,869.27a7.62,7.62,0,0,0,5.19-1.89c1.7-1.46,2.28-3.55,2.59-5.68a1.49,1.49,0,0,0-1-1.78,1.46,1.46,0,0,0-1.78,1c-.23,1.56-.53,3.16-1.61,4.19a4.62,4.62,0,0,1-3.22,1.26,4.47,4.47,0,0,1-4.12-5,1.45,1.45,0,0,0-2.89,0A7.34,7.34,0,0,0,141.51,869.27Z"/><path class="cls-37" d="M158.33,872a8.52,8.52,0,0,0,3.48,1.83,13.18,13.18,0,0,0,7.84,0,6.35,6.35,0,0,0,3.3-2.21,4.42,4.42,0,0,0,.7-4.17,5,5,0,0,0-2-2.39,4.8,4.8,0,0,0-1-.66,10.86,10.86,0,0,0-7.21-.7,10.68,10.68,0,0,0-3.26,1.38,6.72,6.72,0,0,0-2.63,2.76,3.69,3.69,0,0,0-.21,2.45A3.81,3.81,0,0,0,158.33,872Zm11.77-4.39h0l0,0v0h0v.08l0-.11,0-.1Zm-5.52-1.21h0l.19,0h.06v.23l-.43-.16Z"/><path class="cls-37" d="M111.2,872a8.52,8.52,0,0,0,3.48,1.83,13.18,13.18,0,0,0,7.84,0,6.39,6.39,0,0,0,3.3-2.21,4.42,4.42,0,0,0,.7-4.17,5,5,0,0,0-2-2.39,4.8,4.8,0,0,0-1-.66,10.86,10.86,0,0,0-7.21-.7,10.68,10.68,0,0,0-3.26,1.38,6.72,6.72,0,0,0-2.63,2.76,3.63,3.63,0,0,0-.21,2.45A3.73,3.73,0,0,0,111.2,872ZM123,867.65h0l0,0v0h0v.08l0-.11,0-.1Zm-5.52-1.21h0l.19,0h.06v.23l-.43-.16Z"/></g></g></svg>