<svg xmlns="http://www.w3.org/2000/svg" xmlns:xlink="http://www.w3.org/1999/xlink" viewBox="0 0 793.59 917.56"><defs><style>.cls-1,.cls-46,.cls-7{fill:none;}.cls-11,.cls-2,.cls-21,.cls-50{fill:#fff;}.cls-3{isolation:isolate;}.cls-4{clip-path:url(#clip-path);}.cls-5{fill:#f8c7c8;}.cls-50,.cls-6{opacity:0.5;}.cls-6{fill:url(#Nueva_muestra_de_motivo_3);}.cls-19,.cls-46,.cls-7{stroke:#ed6e70;stroke-miterlimit:10;}.cls-7{stroke-linecap:round;stroke-dasharray:3 3;}.cls-8{opacity:0.6;}.cls-9{fill:#ff6767;}.cls-10{fill:#ccc;}.cls-10,.cls-49{mix-blend-mode:multiply;}.cls-11{opacity:0.3;}.cls-11,.cls-50{mix-blend-mode:overlay;}.cls-12{font-size:46.02px;font-family:Pacifico-Regular, Pacifico;}.cls-12,.cls-17{fill:#f3999b;}.cls-13{letter-spacing:-0.04em;}.cls-14{letter-spacing:-0.01em;}.cls-15{letter-spacing:0.01em;}.cls-16,.cls-19,.cls-23{fill:#ed6e70;}.cls-18{fill:#575756;}.cls-20{fill:#ffa88b;}.cls-21{font-size:17px;}.cls-21,.cls-23,.cls-29{font-family:MontserratAlternates-SemiBold, Montserrat Alternates;font-weight:600;}.cls-22{font-size:28.49px;fill:#282828;font-family:Sacramento-Regular, Sacramento;}.cls-23{font-size:12px;}.cls-24{letter-spacing:-0.01em;}.cls-25{letter-spacing:-0.01em;}.cls-26{letter-spacing:-0.02em;}.cls-27{letter-spacing:0em;}.cls-28{letter-spacing:-0.01em;}.cls-29{font-size:38.43px;}.cls-29,.cls-32,.cls-37{fill:#353535;}.cls-30{letter-spacing:0em;}.cls-31{letter-spacing:-0.01em;}.cls-32{font-size:14.7px;}.cls-32,.cls-37{font-family:MontserratAlternates-Regular, Montserrat Alternates;}.cls-33{letter-spacing:-0.01em;}.cls-34{letter-spacing:-0.02em;}.cls-35{letter-spacing:0em;}.cls-36{letter-spacing:0em;}.cls-37{font-size:13px;}.cls-38{letter-spacing:-0.01em;}.cls-39{letter-spacing:0em;}.cls-40{letter-spacing:0.01em;}.cls-41{letter-spacing:-0.02em;}.cls-42{letter-spacing:-0.01em;}.cls-43{letter-spacing:0em;}.cls-44{letter-spacing:0em;}.cls-45{letter-spacing:0em;}.cls-47{fill:#c0e7ff;}.cls-48,.cls-49{fill:#ffcaca;}</style><clipPath id="clip-path" transform="translate(406.53 11.2)"><rect class="cls-1" width="360.14" height="502.73"/></clipPath><pattern id="Nueva_muestra_de_motivo_3" data-name="Nueva muestra de motivo 3" width="20" height="20" patternTransform="translate(686.53 3.2)" patternUnits="userSpaceOnUse" viewBox="0 0 20 20"><rect class="cls-1" width="20" height="20"/><path class="cls-2" d="M12.5,10A2.5,2.5,0,1,1,10,7.5,2.5,2.5,0,0,1,12.5,10Z"/></pattern></defs><g class="cls-3"><g id="Layer_2" data-name="Layer 2"><g id="Layer_1-2" data-name="Layer 1"><g class="cls-4"><rect class="cls-5" x="404.68" y="244.97" width="361.99" height="268.61"/><rect class="cls-6" x="404.54" y="245.32" width="362.13" height="268.61"/><rect class="cls-2" x="31.76" y="860.13" width="214.35" height="57.43" rx="9"/><rect class="cls-7" x="35.54" y="863.84" width="206.79" height="50" rx="9"/><g class="cls-8"><polygon class="cls-9" points="748.96 320.17 755.6 319.16 750.88 315.37 748.96 320.17"/><path class="cls-9" d="M328.16,298.53a26,26,0,0,1-6.73-11.72c-2.44-9-.19-20.53,8-26,4.94-3.28,12.06-4.16,17.29-1.05,5.64,3.36,8.53,10.45,9.48,16.66,1.37,9-.58,19-6.85,25.8-4.92,5.38-13,2.41-18.2-1.17A23,23,0,0,1,328.16,298.53Z" transform="translate(406.53 11.2)"/><path class="cls-10" d="M348.29,260.83c3.14,3.68,4.91,8.75,5.61,13.34,1.37,9-.58,18.95-6.85,25.8-4.92,5.37-13,2.41-18.2-1.18q-.83-.57-1.59-1.2c.29.32.59.64.9.94a23,23,0,0,0,3,2.52c5.16,3.58,13.28,6.55,18.2,1.17,6.27-6.84,8.22-16.84,6.85-25.8C355.38,270.8,352.92,264.47,348.29,260.83Z" transform="translate(406.53 11.2)"/><path class="cls-11" d="M325,268.61a23.27,23.27,0,0,0-2.4,12.13c.22,3,4.91,2.65,4.69-.36a18.3,18.3,0,0,1,1.94-9.72C330.55,268,326.32,265.92,325,268.61Z" transform="translate(406.53 11.2)"/></g><g class="cls-8"><polygon class="cls-9" points="409.32 457.5 414.17 458.47 411.87 454.67 409.32 457.5"/><path class="cls-9" d="M-4.44,435.52a19,19,0,0,1-1.68-9.78c.6-6.86,5.06-14.24,12.13-16,4.25-1,9.39.13,12.22,3.6,3.05,3.72,3.25,9.35,2.34,13.88-1.32,6.54-5.2,13-11.26,16.12C4.55,445.87-.31,441.79-3,438A17.92,17.92,0,0,1-4.44,435.52Z" transform="translate(406.53 11.2)"/><path class="cls-10" d="M19,414.49a20,20,0,0,1,.5,10.63c-1.32,6.53-5.19,12.95-11.26,16.12-4.76,2.48-9.62-1.6-12.28-5.36-.29-.4-.55-.82-.8-1.24.12.3.25.59.38.88A17.92,17.92,0,0,0-3,438c2.67,3.77,7.53,7.85,12.29,5.36,6.06-3.16,9.94-9.58,11.26-16.12C21.39,423.16,21.3,418.17,19,414.49Z" transform="translate(406.53 11.2)"/><path class="cls-11" d="M.93,414a17.12,17.12,0,0,0-4.73,7.79c-.61,2.12,2.72,3.05,3.33.92a13.57,13.57,0,0,1,3.8-6.23C5,415,2.54,412.52.93,414Z" transform="translate(406.53 11.2)"/></g><g class="cls-8"><polygon class="cls-9" points="443.79 317.11 447.07 316.66 444.77 314.75 443.79 317.11"/><path class="cls-9" d="M30.3,300.65a12.65,12.65,0,0,1-3.23-5.83c-1.14-4.47.05-10.12,4.15-12.76a8.3,8.3,0,0,1,8.54-.39c2.75,1.69,4.12,5.21,4.55,8.28.61,4.43-.43,9.35-3.57,12.68-2.47,2.61-6.45,1.09-9-.71A11.17,11.17,0,0,1,30.3,300.65Z" transform="translate(406.53 11.2)"/><path class="cls-10" d="M40.5,282.2a13.52,13.52,0,0,1,2.67,6.62c.61,4.43-.42,9.35-3.57,12.68-2.46,2.61-6.44,1.09-9-.71-.27-.19-.53-.4-.78-.61.14.16.29.32.44.47a11.17,11.17,0,0,0,1.47,1.27c2.52,1.8,6.5,3.32,9,.71,3.14-3.33,4.18-8.25,3.57-12.68C43.92,287.17,42.76,284,40.5,282.2Z" transform="translate(406.53 11.2)"/><path class="cls-11" d="M28.94,285.88a11.4,11.4,0,0,0-1.27,6A1.16,1.16,0,0,0,30,291.7a9,9,0,0,1,1-4.78A1.16,1.16,0,0,0,28.94,285.88Z" transform="translate(406.53 11.2)"/></g><text class="cls-12" transform="translate(137.03 603.74) scale(1.01 1)"><tspan class="cls-13">B</tspan><tspan x="36.22" y="0">aby</tspan><tspan class="cls-14" x="0" y="48.67">S</tspan><tspan x="31.43" y="48.67">h</tspan><tspan class="cls-15" x="54.54" y="48.67">o</tspan><tspan x="75.76" y="48.67">wer</tspan></text><path class="cls-16" d="M-381.77,584.78a16.92,16.92,0,0,0-10-10.09A22.91,22.91,0,0,1-397,571.9a2.69,2.69,0,0,0-.71-2,13.84,13.84,0,0,1-3.44-7,2.68,2.68,0,0,0-3-2.35,2.67,2.67,0,0,0-2.39,2.94,19.13,19.13,0,0,0,4.85,10.07,2.71,2.71,0,0,0,2,.85h.19A25.72,25.72,0,0,0-393,577.9a13.49,13.49,0,0,1,8,7.91c-.13-.66-.22-1-.22-1Z" transform="translate(406.53 11.2)"/><path class="cls-5" d="M-319.91,590a103.43,103.43,0,0,1-24.91-2.11,3.59,3.59,0,0,1-3.46,2.63,3.57,3.57,0,0,1-3.59-3.56,3.52,3.52,0,0,1,.77-2.2h-34.21s.09.37.22,1a113.67,113.67,0,0,1,2,13.13c.47,6.29,6.65,28,23.73,28.32s26.43,0,38.13,0,16.77-3.46,20.26-6.92a30.08,30.08,0,0,0,9-16.21c1.43-7.71,1.27-12.59,2.06-15.26s1.11-4.09,1.11-4.09S-301.34,589.6-319.91,590Z" transform="translate(406.53 11.2)"/><path class="cls-17" d="M-345.49,584.75c6.66-5.59,23.59-21.48,32.86-45.4,0,0-7.28-1.36-14.87-2.09s-11.61-3.89-15.72-1.26c-3.43,2.18-4.66,36.2-5,47.42A3.56,3.56,0,0,1-345.49,584.75Z" transform="translate(406.53 11.2)"/><path class="cls-5" d="M-345.49,584.75a3.4,3.4,0,0,1,.65,1.25c10-3,39.4-12.54,53.1-26.51,0,0-5.6-6.5-10.13-11.12a94.15,94.15,0,0,0-10.76-9C-321.9,563.27-338.83,579.16-345.49,584.75Z" transform="translate(406.53 11.2)"/><path class="cls-17" d="M-344.84,586a3.52,3.52,0,0,1,.14,1,3.59,3.59,0,0,1-.12.93A103.43,103.43,0,0,0-319.91,590c18.57-.42,31.12-5.24,31.12-5.24s-1.16-12.07-1.27-15.63a58,58,0,0,0-1.68-9.66C-305.44,573.46-334.8,583-344.84,586Z" transform="translate(406.53 11.2)"/><path class="cls-16" d="M-348.28,590.54a3.59,3.59,0,0,0,3.46-2.63,3.59,3.59,0,0,0,.12-.93,3.52,3.52,0,0,0-.14-1,3.4,3.4,0,0,0-.65-1.25,3.56,3.56,0,0,0-2.7-1.33h-.09a3.59,3.59,0,0,0-2.82,1.37,3.52,3.52,0,0,0-.77,2.2A3.57,3.57,0,0,0-348.28,590.54Zm2.14-3.56a2.13,2.13,0,0,1-2.14,2.12,2.13,2.13,0,0,1-2.14-2.12,2.13,2.13,0,0,1,2.14-2.13A2.13,2.13,0,0,1-346.14,587Z" transform="translate(406.53 11.2)"/><path class="cls-5" d="M-348.28,584.85a2.13,2.13,0,0,0-2.14,2.13,2.13,2.13,0,0,0,2.14,2.12,2.13,2.13,0,0,0,2.14-2.12A2.13,2.13,0,0,0-348.28,584.85Z" transform="translate(406.53 11.2)"/><path class="cls-1" d="M-364.09,650a3.41,3.41,0,0,1,.29-1.05l-13.56-7.75a18.7,18.7,0,0,0-2.36,8.83Z" transform="translate(406.53 11.2)"/><path class="cls-1" d="M-377,640.59l13.56,7.75a3.7,3.7,0,0,1,.77-.76l-7.84-13.46A19,19,0,0,0-377,640.59Z" transform="translate(406.53 11.2)"/><path class="cls-1" d="M-363.8,651.68a3.08,3.08,0,0,1-.28-1l-15.64,0a18.68,18.68,0,0,0,2.39,8.82Z" transform="translate(406.53 11.2)"/><path class="cls-1" d="M-358,652.25a3.27,3.27,0,0,1-.77.76l7.85,13.46a19.1,19.1,0,0,0,6.48-6.47Z" transform="translate(406.53 11.2)"/><path class="cls-1" d="M-296.21,641.11l-13.53,7.8a3.41,3.41,0,0,1,.29,1.05l15.63,0A18.71,18.71,0,0,0-296.21,641.11Z" transform="translate(406.53 11.2)"/><path class="cls-1" d="M-370.49,666.51l7.8-13.49a3.27,3.27,0,0,1-.77-.76l-13.53,7.8A19,19,0,0,0-370.49,666.51Z" transform="translate(406.53 11.2)"/><path class="cls-1" d="M-361.06,653.64a3.41,3.41,0,0,1-1.05-.29l-7.8,13.49a19,19,0,0,0,8.88,2.35Z" transform="translate(406.53 11.2)"/><path class="cls-1" d="M-357.37,650.62a3.14,3.14,0,0,1-.28,1l13.56,7.75a18.69,18.69,0,0,0,2.36-8.82Z" transform="translate(406.53 11.2)"/><path class="cls-1" d="M-359.33,653.35a3.4,3.4,0,0,1-1.06.29l0,15.55a19.14,19.14,0,0,0,8.87-2.38Z" transform="translate(406.53 11.2)"/><path class="cls-1" d="M-344.13,641.11l-13.53,7.8a3.41,3.41,0,0,1,.29,1.05l15.64,0A18.61,18.61,0,0,0-344.13,641.11Z" transform="translate(406.53 11.2)"/><path class="cls-1" d="M-362.12,647.24a3.14,3.14,0,0,1,1.05-.28l0-15.55a18.84,18.84,0,0,0-8.87,2.38Z" transform="translate(406.53 11.2)"/><path class="cls-1" d="M-351,634.09l-7.79,13.48a3.7,3.7,0,0,1,.77.76l13.53-7.8A19.1,19.1,0,0,0-351,634.09Z" transform="translate(406.53 11.2)"/><path class="cls-1" d="M-360.73,647.57a2.74,2.74,0,0,0-2.74,2.73,2.73,2.73,0,0,0,2.74,2.72A2.74,2.74,0,0,0-358,650.3,2.74,2.74,0,0,0-360.73,647.57Zm0,4.92a2.19,2.19,0,0,1-2.2-2.19,2.19,2.19,0,0,1,2.2-2.2,2.2,2.2,0,0,1,2.21,2.2A2.2,2.2,0,0,1-360.73,652.49Z" transform="translate(406.53 11.2)"/><path class="cls-1" d="M-360.42,631.4l0,15.56a3.2,3.2,0,0,1,1.06.28l7.79-13.49A19,19,0,0,0-360.42,631.4Z" transform="translate(406.53 11.2)"/><path class="cls-1" d="M-316.17,650a3.14,3.14,0,0,1,.28-1.05l-13.56-7.75a18.7,18.7,0,0,0-2.36,8.83Z" transform="translate(406.53 11.2)"/><path class="cls-1" d="M-322.57,666.51l7.79-13.49a3.7,3.7,0,0,1-.77-.76l-13.53,7.8A19.13,19.13,0,0,0-322.57,666.51Z" transform="translate(406.53 11.2)"/><path class="cls-1" d="M-315.88,651.68a3.34,3.34,0,0,1-.29-1l-15.64,0a18.57,18.57,0,0,0,2.4,8.82Z" transform="translate(406.53 11.2)"/><path class="cls-1" d="M-310.07,652.25a3.7,3.7,0,0,1-.77.76l7.84,13.46a19,19,0,0,0,6.49-6.47Z" transform="translate(406.53 11.2)"/><path class="cls-1" d="M-309.45,650.62a3.41,3.41,0,0,1-.29,1l13.56,7.75a18.69,18.69,0,0,0,2.36-8.82Z" transform="translate(406.53 11.2)"/><path class="cls-1" d="M-329.11,640.59l13.56,7.75a3.27,3.27,0,0,1,.77-.76l-7.85-13.46A19.1,19.1,0,0,0-329.11,640.59Z" transform="translate(406.53 11.2)"/><path class="cls-1" d="M-313.14,653.64a3.47,3.47,0,0,1-1.06-.29L-322,666.84a19,19,0,0,0,8.88,2.35Z" transform="translate(406.53 11.2)"/><path class="cls-1" d="M-314.21,647.24a3.13,3.13,0,0,1,1.06-.28l0-15.55a18.9,18.9,0,0,0-8.87,2.38Z" transform="translate(406.53 11.2)"/><path class="cls-1" d="M-312.81,647.57a2.74,2.74,0,0,0-2.75,2.73,2.74,2.74,0,0,0,2.75,2.72,2.73,2.73,0,0,0,2.74-2.72A2.74,2.74,0,0,0-312.81,647.57Zm0,4.92A2.2,2.2,0,0,1-315,650.3a2.2,2.2,0,0,1,2.21-2.2,2.2,2.2,0,0,1,2.21,2.2A2.2,2.2,0,0,1-312.81,652.49Z" transform="translate(406.53 11.2)"/><path class="cls-1" d="M-311.42,653.35a3.41,3.41,0,0,1-1.05.29l0,15.55a19.08,19.08,0,0,0,8.87-2.38Z" transform="translate(406.53 11.2)"/><path class="cls-1" d="M-303,634.09l-7.8,13.48a3.27,3.27,0,0,1,.77.76l13.53-7.8A19,19,0,0,0-303,634.09Z" transform="translate(406.53 11.2)"/><path class="cls-1" d="M-312.51,631.4l0,15.56a3.14,3.14,0,0,1,1.05.28l7.8-13.49A19,19,0,0,0-312.51,631.4Z" transform="translate(406.53 11.2)"/><path class="cls-18" d="M-360.73,629.63a20.75,20.75,0,0,0-20.78,20.67A20.75,20.75,0,0,0-360.73,671a20.74,20.74,0,0,0,20.78-20.66A20.75,20.75,0,0,0-360.73,629.63Zm3.36,20.33a3.41,3.41,0,0,0-.29-1.05l13.53-7.8a18.61,18.61,0,0,1,2.4,8.82Zm-3,3.68a3.4,3.4,0,0,0,1.06-.29l7.84,13.46a19.14,19.14,0,0,1-8.87,2.38Zm-.34-.62a2.73,2.73,0,0,1-2.74-2.72,2.74,2.74,0,0,1,2.74-2.73A2.74,2.74,0,0,1-358,650.3,2.74,2.74,0,0,1-360.73,653Zm.33-6.06,0-15.56a19,19,0,0,1,8.87,2.35l-7.79,13.49A3.2,3.2,0,0,0-360.4,647Zm2.41,1.37a3.7,3.7,0,0,0-.77-.76l7.79-13.48a19.1,19.1,0,0,1,6.51,6.44Zm-3.1-16.92,0,15.55a3.14,3.14,0,0,0-1.05.28L-370,633.79A18.84,18.84,0,0,1-361.09,631.41Zm-9.45,2.71,7.84,13.46a3.7,3.7,0,0,0-.77.76L-377,640.59A19,19,0,0,1-370.54,634.12Zm-6.82,7,13.56,7.75a3.41,3.41,0,0,0-.29,1.05l-15.63,0A18.7,18.7,0,0,1-377.36,641.17Zm13.28,9.46a3.08,3.08,0,0,0,.28,1l-13.53,7.8a18.68,18.68,0,0,1-2.39-8.82Zm.62,1.63a3.27,3.27,0,0,0,.77.76l-7.8,13.49a19,19,0,0,1-6.5-6.45Zm1.35,1.09a3.41,3.41,0,0,0,1.05.29l0,15.55a19,19,0,0,1-8.88-2.35Zm11.2,13.12L-358.76,653a3.27,3.27,0,0,0,.77-.76l13.56,7.75A19.1,19.1,0,0,1-350.91,666.47Zm6.82-7.05-13.56-7.75a3.14,3.14,0,0,0,.28-1l15.64,0A18.69,18.69,0,0,1-344.09,659.42Z" transform="translate(406.53 11.2)"/><path class="cls-18" d="M-360.73,648.1a2.19,2.19,0,0,0-2.2,2.2,2.19,2.19,0,0,0,2.2,2.19,2.2,2.2,0,0,0,2.21-2.19A2.2,2.2,0,0,0-360.73,648.1Z" transform="translate(406.53 11.2)"/><path class="cls-18" d="M-312.81,629.63a20.75,20.75,0,0,0-20.78,20.67A20.74,20.74,0,0,0-312.81,671,20.75,20.75,0,0,0-292,650.3,20.75,20.75,0,0,0-312.81,629.63Zm3.36,20.33a3.41,3.41,0,0,0-.29-1.05l13.53-7.8a18.71,18.71,0,0,1,2.39,8.82Zm-3,3.68a3.41,3.41,0,0,0,1.05-.29l7.84,13.46a19.08,19.08,0,0,1-8.87,2.38Zm-.34-.62a2.74,2.74,0,0,1-2.75-2.72,2.74,2.74,0,0,1,2.75-2.73,2.74,2.74,0,0,1,2.74,2.73A2.73,2.73,0,0,1-312.81,653Zm.33-6.06,0-15.56a19,19,0,0,1,8.88,2.35l-7.8,13.49A3.14,3.14,0,0,0-312.48,647Zm2.4,1.37a3.27,3.27,0,0,0-.77-.76l7.8-13.48a19,19,0,0,1,6.5,6.44Zm-3.1-16.92,0,15.55a3.13,3.13,0,0,0-1.06.28L-322,633.79A18.9,18.9,0,0,1-313.18,631.41Zm-9.45,2.71,7.85,13.46a3.27,3.27,0,0,0-.77.76l-13.56-7.75A19.1,19.1,0,0,1-322.63,634.12Zm-6.82,7,13.56,7.75a3.14,3.14,0,0,0-.28,1.05l-15.64,0A18.7,18.7,0,0,1-329.45,641.17Zm13.28,9.46a3.34,3.34,0,0,0,.29,1l-13.53,7.8a18.57,18.57,0,0,1-2.4-8.82Zm.62,1.63a3.7,3.7,0,0,0,.77.76l-7.79,13.49a19.13,19.13,0,0,1-6.51-6.45Zm1.35,1.09a3.47,3.47,0,0,0,1.06.29l0,15.55a19,19,0,0,1-8.88-2.35Zm11.2,13.12L-310.84,653a3.7,3.7,0,0,0,.77-.76l13.56,7.75A19,19,0,0,1-303,666.47Zm6.82-7.05-13.56-7.75a3.41,3.41,0,0,0,.29-1l15.63,0A18.69,18.69,0,0,1-296.18,659.42Z" transform="translate(406.53 11.2)"/><path class="cls-18" d="M-312.81,648.1a2.2,2.2,0,0,0-2.21,2.2,2.2,2.2,0,0,0,2.21,2.19,2.2,2.2,0,0,0,2.21-2.19A2.2,2.2,0,0,0-312.81,648.1Z" transform="translate(406.53 11.2)"/><path class="cls-19" d="M-311.5,622.25c.82.61.09,1.79-.79,1.7-1.22-.12-1.23-1.67-.73-2.47a2.92,2.92,0,0,1,3.14-1.15,3.22,3.22,0,0,1,2.21,3,4.77,4.77,0,0,1-1.35,3.45c-2.1,2.28-5.43,2.5-8.33,2.33a81,81,0,0,0-9.21-.31c-2.76.15-6,.28-8.31,1.94a4.81,4.81,0,0,0-1.86,5.63,4.68,4.68,0,0,0,4,3,4.22,4.22,0,0,0,4.5-2.53,3.76,3.76,0,0,0-2.13-4.92,2.66,2.66,0,0,0-3,.73,1.71,1.71,0,0,0,.46,2.42c.43.29.75-.09.38-.46-.73-.71.13-1.72.84-1.92a2,2,0,0,1,1.88.39,2.8,2.8,0,0,1,.71,3.17,3.84,3.84,0,0,1-5.68,1.68c-2.33-1.47-1.53-4.9.37-6.32,2.43-1.83,6.06-1.89,9-2,3.22-.11,6.39.36,9.6.4,2.53,0,5.2-.43,7.12-2.2a5.16,5.16,0,0,0,1.47-5.8,4,4,0,0,0-4.65-2.43,3.07,3.07,0,0,0-2.18,1.94,2.37,2.37,0,0,0,.94,2.78,1.7,1.7,0,0,0,2.35-.35,1.49,1.49,0,0,0-.6-2.05c-.26-.15-.4.16-.18.33" transform="translate(406.53 11.2)"/><path class="cls-19" d="M-362.4,621.9c-1.64.88-.14,3,1.4,2.7,2.27-.48,1.64-3.39.21-4.42a3.75,3.75,0,0,0-4.95.5,4.85,4.85,0,0,0-.16,5.85c3.35,5.05,10.45,3.16,15.45,3.08a28.94,28.94,0,0,1,9.28.91,5.5,5.5,0,0,1,3.33,2.53,4.12,4.12,0,0,1-.24,3.87c-1.39,2.15-5,2.26-6.28,0a2.93,2.93,0,0,1,.36-3.5,2.38,2.38,0,0,1,1.64-.81c1.13,0,1.95,1,1.08,2-.25.27.31.76.59.59a1.54,1.54,0,0,0,.5-2.08,2.68,2.68,0,0,0-2.48-1.33,3.38,3.38,0,0,0-3,3.66c.25,4,6,5.43,8.28,2.3a4.8,4.8,0,0,0-.22-5.72c-1.6-2-4.25-2.6-6.66-2.89a47.46,47.46,0,0,0-9.23-.19c-3.09.23-6.49.79-9.38-.67-2.62-1.32-4.4-5.14-1.69-7.35a2.9,2.9,0,0,1,3.81.11,1.92,1.92,0,0,1,.11,2.52,1,1,0,0,1-1.38.17.84.84,0,0,1,0-1.4c.22-.17-.12-.51-.33-.4" transform="translate(406.53 11.2)"/><rect class="cls-2" x="633.46" y="51.28" width="1.11" height="41.08"/><polygon class="cls-20" points="633.92 91.37 666.15 71.33 634.07 52.52 633.66 53.21 664.6 71.35 633.49 90.69 633.92 91.37"/><rect class="cls-16" x="257.67" y="60.23" transform="translate(418.32 169.21) rotate(-34.84)"/><path class="cls-16" d="M306.56,60a.27.27,0,0,0-.27-.27.28.28,0,0,0-.13,0,.39.39,0,0,0-.37-.26.39.39,0,0,0-.26.09.56.56,0,0,0-.23-.25c.47-1.07,1.27-3.16.8-3.9-.65-1-1-1.49-1.83-1-.52.35-.39,2.64-.25,4.13a1.08,1.08,0,0,0-.35.1c0-1.11-.19-2.45-1.18-2.41-1.67.06-8.05.14-8.05.14s0-.21,0-.58l.73-.73h1.26c.66,0,1.74-.39,1.74-1s-.91-.6-2-.6a12.08,12.08,0,0,0-1.83.17c-.29-6.51-1.05-22.6-1.32-23s-5.8-.64-6.43-.29-1.16,3.4-1.16,3.4h.75l-.4,3.91-1.05.69-2.95,18.72s-2.29.21-5.85.81c-1.75.3-6.19.85-10.25,1.33l-1.62-10h-4.43l-.73,10.63.35.15v.35l-.35.16.73,10.62H264l1.62-10c4.06.48,8.5,1,10.25,1.33,3.56.6,5.85.8,5.85.8L284.71,82l1.05.69.4,3.92h-.75s.52,3,1.16,3.4,6.08.29,6.43-.29,1-16.54,1.32-23a13.52,13.52,0,0,0,1.83.17c1.09,0,2,0,2-.6s-1.08-1-1.74-1h-1.26l-.73-.72c0-.38,0-.59,0-.59s6.38.09,8.05.15c1,0,1.18-1.3,1.18-2.42a.89.89,0,0,0,.35.11c-.14,1.48-.27,3.78.26,4.12.78.52,1.17,0,1.82-1,.47-.74-.33-2.82-.8-3.9a.53.53,0,0,0,.23-.24.45.45,0,0,0,.26.09.4.4,0,0,0,.37-.26.28.28,0,0,0,.13,0,.27.27,0,0,0,.27-.27Z" transform="translate(406.53 11.2)"/><path class="cls-17" d="M226.93,81.17V40.08s-28.45-8.76-57.74-4.38S73.71,54.33,52.3,40.08l7,21.5-7,19.59s43.1,9.17,78.58,2.19S193.69,72.4,226.93,81.17Z" transform="translate(406.53 11.2)"/><text class="cls-21" transform="translate(488.87 81.4) rotate(6.53) scale(1.01 1)">J</text><text class="cls-21" transform="translate(498.24 82.55) rotate(2.67) scale(1.01 1)">O</text><text class="cls-21" transform="translate(513 83.12) rotate(-1.17) scale(1.01 1)">I</text><text class="cls-21" transform="translate(521.53 83.04) rotate(-5.28) scale(1.01 1)">N</text><text class="cls-21" transform="translate(535.57 81.58) rotate(-9.18) scale(1.01 1)"> </text><text class="cls-21" transform="matrix(0.98, -0.23, 0.22, 0.97, 540.65, 80.85)">U</text><text class="cls-21" transform="translate(553.73 77.87) rotate(-9.87) scale(1.01 1)">S</text><text class="cls-21" transform="translate(564.23 76.09) rotate(-8.02) scale(1.01 1)"> </text><text class="cls-21" transform="matrix(1, -0.11, 0.11, 0.99, 568.83, 75.4)">F</text><text class="cls-21" transform="translate(578.84 74.24) rotate(-3.83) scale(1.01 1)">O</text><text class="cls-21" transform="translate(593.07 73.31) rotate(-1.17) scale(1.01 1)">R</text><path class="cls-2" d="M212.33,53.46A3.57,3.57,0,0,0,207.51,52l-.24.13-.13-.24a3.57,3.57,0,0,0-4.83-1.45,3.53,3.53,0,0,0-1.46,4.79l.13.24,3.36,6.26,6.29-3.34.24-.13A3.53,3.53,0,0,0,212.33,53.46Z" transform="translate(406.53 11.2)"/><path class="cls-2" d="M70.06,61.51a3.58,3.58,0,0,1,4.83-1.45l.24.12.13-.24a3.56,3.56,0,0,1,6.29,3.35l-.13.24-3.36,6.25-6.29-3.34-.24-.13A3.53,3.53,0,0,1,70.06,61.51Z" transform="translate(406.53 11.2)"/><text class="cls-22" transform="translate(98.68 721.46) scale(1.01 1)">honoring</text><text class="cls-23" transform="translate(57.89 885.24) scale(1.01 1)">All a<tspan class="cls-24" x="29.18" y="0">r</tspan><tspan x="34.1" y="0">e g</tspan><tspan class="cls-24" x="53.19" y="0">r</tspan><tspan x="58.11" y="0">adually i</tspan><tspan class="cls-25" x="114.01" y="0">n</tspan><tspan x="122.11" y="0">vi</tspan><tspan class="cls-26" x="132.51" y="0">t</tspan><tspan x="137.13" y="0">ed t</tspan><tspan x="-10.28" y="16">our baby s</tspan><tspan class="cls-27" x="56.34" y="16">h</tspan><tspan x="64.62" y="16">ower </tspan><tspan class="cls-28" x="99.92" y="16">c</tspan><tspan x="106.8" y="16">e</tspan><tspan class="cls-25" x="114.25" y="16">l</tspan><tspan x="118.16" y="16">eb</tspan><tspan class="cls-24" x="133.85" y="16">r</tspan><tspan x="138.77" y="16">ation</tspan></text><text class="cls-29" transform="translate(46.38 767.44) scale(1.01 1)">Geb<tspan class="cls-30" x="79.9" y="0">r</tspan><tspan x="95.85" y="0">ial</tspan><tspan class="cls-31" x="146.24" y="0">l</tspan><tspan x="158.77" y="0">a</tspan></text><text class="cls-32" transform="translate(2.88 808.06) scale(1.01 1)">S<tspan class="cls-33" x="9.04" y="0">A</tspan><tspan x="20.67" y="0">TURD</tspan><tspan class="cls-34" x="63.67" y="0">A</tspan><tspan class="cls-35" x="75.11" y="0">Y</tspan></text><text class="cls-32" transform="translate(111.87 808.06) scale(1.01 1)">A<tspan class="cls-33" x="11.78" y="0">P</tspan><tspan x="22.19" y="0">RIL </tspan><tspan class="cls-36" x="51.87" y="0">2</tspan><tspan x="60.16" y="0">0</tspan></text><text class="cls-37" transform="translate(28.11 836.5) scale(1.01 1)">VI<tspan class="cls-38" x="14.86" y="0">K</tspan><tspan class="cls-39" x="23.97" y="0">AS MAR</tspan><tspan class="cls-40" x="81.54" y="0">G</tspan><tspan class="cls-39" x="91.71" y="0">, </tspan><tspan class="cls-41" x="97.88" y="0">V</tspan><tspan class="cls-39" x="106.69" y="0">ASANT </tspan><tspan class="cls-42" x="156.86" y="0">K</tspan><tspan class="cls-43" x="165.97" y="0">UNJ, ND</tspan></text><text class="cls-32" transform="translate(203.97 808.06) scale(1.01 1)"><tspan class="cls-44">0</tspan><tspan x="9.7" y="0">1:00 </tspan><tspan class="cls-33" x="41.45" y="0">P</tspan><tspan class="cls-45" x="51.85" y="0">M</tspan></text><path class="cls-46" d="M-303.4,779s-4.31,1-3.88,4.8,3.59,2.59,3.88,6.91-7.17,7.88,0,12.23" transform="translate(406.53 11.2)"/><path class="cls-46" d="M-214.22,779s4.31,1,3.88,4.8-3.59,2.59-3.88,6.91,7.17,7.88,0,12.23" transform="translate(406.53 11.2)"/><path class="cls-47" d="M373.62,102.27a16.75,16.75,0,0,0-2.66.22,9.47,9.47,0,0,0-5.8-6.27,13.12,13.12,0,0,0-9.57-.14c-2.76-6.25-11.17-9.48-18.77-7.21s-11.53,9.18-8.77,15.43c-6.66.17-11.92,4.7-11.82,10.18s5.52,9.88,12.19,9.89h45.2c7.42,0,13.43-5,13.43-11.05S381,102.27,373.62,102.27Z" transform="translate(406.53 11.2)"/><path class="cls-47" d="M29.81,5.89a13.19,13.19,0,0,0-2.66.27,11,11,0,0,0-5.79-7.59,11.06,11.06,0,0,0-9.58-.17A14.67,14.67,0,0,0-7-10.32,14.54,14.54,0,0,0-15.76,8.34,12.18,12.18,0,0,0-27.58,20.66a12.17,12.17,0,0,0,12.19,12h45.2a13.37,13.37,0,1,0,0-26.73Z" transform="translate(406.53 11.2)"/><path class="cls-47" d="M23,97.88a7.76,7.76,0,0,1,1.52.15,6.23,6.23,0,0,1,3.3-4.32,6.3,6.3,0,0,1,5.46-.1A8.34,8.34,0,0,1,49,99.28a6.92,6.92,0,0,1-.21,13.83H23a7.62,7.62,0,1,1,0-15.23Z" transform="translate(406.53 11.2)"/><path class="cls-47" d="M226.18,9.25a3.56,3.56,0,0,1,.8.08A3.35,3.35,0,0,1,231.66,7,4.45,4.45,0,0,1,240,10a3.7,3.7,0,0,1-.11,7.39H226.18a4.07,4.07,0,1,1,0-8.13Z" transform="translate(406.53 11.2)"/><path class="cls-47" d="M232.1,277.15a49.81,49.81,0,0,1,5.44-15.71" transform="translate(406.53 11.2)"/><path class="cls-2" d="M234.51,277.81a48,48,0,0,1,5.19-15.11,2.5,2.5,0,1,0-4.31-2.52,52.57,52.57,0,0,0-5.7,16.3,2.57,2.57,0,0,0,1.75,3.08,2.53,2.53,0,0,0,3.07-1.75Z" transform="translate(406.53 11.2)"/><path class="cls-47" d="M239.85,281.25l7.62-3.5" transform="translate(406.53 11.2)"/><path class="cls-2" d="M241.11,283.41l7.62-3.5a2.5,2.5,0,0,0-.59-4.57,2.87,2.87,0,0,0-1.93.25l-7.63,3.5a2.49,2.49,0,0,0-.89,3.42,2.46,2.46,0,0,0,1.49,1.15,2.88,2.88,0,0,0,1.93-.25Z" transform="translate(406.53 11.2)"/><path class="cls-47" d="M243.66,289.52a119.11,119.11,0,0,0,14.69,2.2" transform="translate(406.53 11.2)"/><path class="cls-2" d="M243,291.93a126.44,126.44,0,0,0,15.36,2.29,2.51,2.51,0,0,0,2.5-2.5,2.57,2.57,0,0,0-2.5-2.5,112.17,112.17,0,0,1-14-2.11,2.5,2.5,0,0,0-1.33,4.82Z" transform="translate(406.53 11.2)"/><path class="cls-47" d="M122.44,277.15A49.56,49.56,0,0,0,117,261.44" transform="translate(406.53 11.2)"/><path class="cls-2" d="M124.85,276.48a52.29,52.29,0,0,0-5.69-16.3,2.5,2.5,0,0,0-4.32,2.52A47.91,47.91,0,0,1,120,277.81a2.52,2.52,0,0,0,3.08,1.75,2.57,2.57,0,0,0,1.74-3.08Z" transform="translate(406.53 11.2)"/><path class="cls-47" d="M114.7,281.25l-7.62-3.5" transform="translate(406.53 11.2)"/><path class="cls-2" d="M116,279.09l-7.62-3.5a2.7,2.7,0,0,0-1.93-.25,2.52,2.52,0,0,0-1.75,3.07,2.46,2.46,0,0,0,1.15,1.5l7.63,3.5a2.7,2.7,0,0,0,1.93.25,2.56,2.56,0,0,0,1.49-1.15,2.49,2.49,0,0,0,.25-1.92,2.46,2.46,0,0,0-1.15-1.5Z" transform="translate(406.53 11.2)"/><path class="cls-47" d="M110.89,289.52a119.39,119.39,0,0,1-14.69,2.2" transform="translate(406.53 11.2)"/><path class="cls-2" d="M110.22,287.11a111.74,111.74,0,0,1-14,2.11,2.55,2.55,0,0,0-2.5,2.5,2.52,2.52,0,0,0,2.5,2.5,126,126,0,0,0,15.35-2.29,2.51,2.51,0,0,0,1.75-3.07,2.57,2.57,0,0,0-3.08-1.75Z" transform="translate(406.53 11.2)"/><path class="cls-48" d="M303.25,166.11a19.45,19.45,0,0,0,7.94,7.79,14.94,14.94,0,0,0,7.76,1.68c.91-.05,2.68-.08,2.46,1.33a2.27,2.27,0,0,1-.92,1.32,14.44,14.44,0,0,1-5.31,2.55c-9.95,2.64-20.93-1.24-25.62-10.7a22.46,22.46,0,0,1-1.07-17.37,21.74,21.74,0,0,1,10.72-12.25,8.27,8.27,0,0,1,3-.89c2.07-.14,2.95,1.69,2.14,3.43-1,2.23-2.52,4.13-3.27,6.51A21.25,21.25,0,0,0,303.25,166.11Z" transform="translate(406.53 11.2)"/><path class="cls-49" d="M321.41,176.91c.22-1.41-1.55-1.38-2.46-1.33a14.94,14.94,0,0,1-7.76-1.68,19.45,19.45,0,0,1-7.94-7.79A21.32,21.32,0,0,1,301,149.92c-.17.42-.33.83-.47,1.19a20.54,20.54,0,0,0-1.4,9,19.22,19.22,0,0,0,1,5,18.78,18.78,0,0,0,14.18,12c1.22.21,2.63.37,3.34,1.39a5.63,5.63,0,0,1,.55,1.13,13.84,13.84,0,0,0,2.29-1.43A2.27,2.27,0,0,0,321.41,176.91Z" transform="translate(406.53 11.2)"/><path class="cls-50" d="M292.19,148.22a20.4,20.4,0,0,0-.76,21.63c.6,1,2.32.3,1.72-.73a18.58,18.58,0,0,1,.55-19.81C294.36,148.32,292.85,147.22,292.19,148.22Z" transform="translate(406.53 11.2)"/></g></g></g></g></svg>