<svg xmlns="http://www.w3.org/2000/svg" viewBox="0 0 293.56 289.03"><defs><style>.cls-1{fill:#6b4939;}.cls-1,.cls-10,.cls-11,.cls-12,.cls-13,.cls-14,.cls-15,.cls-16,.cls-17,.cls-18,.cls-19,.cls-2,.cls-20,.cls-21,.cls-22,.cls-23,.cls-24,.cls-3,.cls-4,.cls-5,.cls-6,.cls-7,.cls-8,.cls-9{fill-rule:evenodd;}.cls-2{fill:#25473c;}.cls-3{fill:#012d22;}.cls-4{fill:#c9be92;}.cls-5{fill:#496150;}.cls-6{fill:#edbfb1;}.cls-7{fill:#ea9b91;}.cls-8{fill:#592439;}.cls-9{fill:#310218;}.cls-10{fill:#7d7c64;}.cls-11{fill:#626852;}.cls-12{fill:#ada682;}.cls-13{fill:#fff;}.cls-14{fill:#d2c9a4;}.cls-15{fill:#8ba9a4;}.cls-16{fill:#afbbbb;}.cls-17{fill:#79948f;}.cls-18{fill:#efe3da;}.cls-19{fill:#eba89d;}.cls-20{fill:#451227;}.cls-21{fill:#e5817a;}.cls-22{fill:#e8b8aa;}.cls-23{fill:#cfa497;}.cls-24{fill:#ebc7ba;}</style></defs><g id="Layer_2" data-name="Layer 2"><g id="Layer_1-2" data-name="Layer 1"><path class="cls-1" d="M176.22,34.91a117.25,117.25,0,0,0-19.07-4.42c-16.54-2.14-29.39-1.28-45.61,2.75A115.32,115.32,0,0,0,27.1,128.57c-1.82,15.58-1.47,28.23,2.23,43.38.18.75.38,1.5.59,2.24,0,0,0,.08,0,.09.19.75.39,1.49.61,2.23,4.36,15,10.41,26.18,19.78,38.77a115.06,115.06,0,0,0,120.8,40.34c16.06-4.62,27.61-10.3,40.87-20.42a118.28,118.28,0,0,0,14.31-13.36,116.79,116.79,0,0,0,14.45-20c6.27-11.46,17-46.9,12.74-74.34h0s-1-8.51-2.94-17.12h0c-2.1-9.16-12.95-27.47-18.88-36.29-9.85-12.62-19.22-20.75-32.94-29.1a117.23,117.23,0,0,0-22.52-10.09Zm73.89,86.78,0,.32h0c1.21,12.4,4.69,40.42-12.85,77.81a111.91,111.91,0,0,1-28,31.9c-12.79,9.65-23.91,15.05-39.36,19.43A110.59,110.59,0,0,1,54.27,212.21c-9-12.1-14.67-22.73-18.85-37.11l-.6-2.13s0-.07,0-.08c-.18-.72-.36-1.44-.53-2.15-3.56-14.5-3.92-26.57-2.21-41.48A110.39,110.39,0,0,1,112.74,37.7c15.57-3.93,27.9-4.81,43.8-2.85a112,112,0,0,1,40.19,13.63c13.37,7.92,22.53,15.66,32.32,27.66,2.68,3.63,13.15,22.89,18.37,33.13A62.44,62.44,0,0,1,250.11,121.69Z"/><path class="cls-2" d="M259.56,151.37c-22.75,16.27-33.79-10.58-34.93-11C224.63,140.36,251.9,125.1,259.56,151.37Z"/><path class="cls-3" d="M259.39,151.49c-21.42,15.15-32.41-8-34.49-10.84,13.56,14.57,23.42,12.71,23.31,9.34s-13.23-7.06-7.85-7,12,5.18,12.77,5.21S257.54,150.26,259.39,151.49Z"/><path class="cls-4" d="M259.56,151.37c-.48.34-.94.65-1.41.95-3.1-2.52-11.71-8.07-29.56-10.43,0,0-.83-.11-.88-.62s13.45-2.68,31.35,8.54C259.23,150.31,259.4,150.83,259.56,151.37Z"/><path class="cls-5" d="M256.2,146.4s-4.3-7.07-11.17-8.68-12.3.09-12.92.95,9.74-2.21,15,1.29S253.76,146.79,256.2,146.4Z"/><path class="cls-2" d="M235.64,196.14c-27.79,3.09-24.32-25.73-25.11-26.66C210.53,169.48,241.78,169.47,235.64,196.14Z"/><path class="cls-3" d="M235.43,196.16c-26.09,2.77-24.4-22.76-24.8-26.29,4.71,19.33,14.23,22.52,15.78,19.53s-8.11-12.62-3.42-10,7.93,10.37,8.6,10.78S234.42,194.18,235.43,196.16Z"/><path class="cls-4" d="M235.64,196.14c-.58.07-1.14.11-1.7.15-1.47-3.73-6.27-12.77-20.7-23.54,0,0-.67-.5-.47-1s13,4.23,23.19,22.75C235.87,195.06,235.76,195.59,235.64,196.14Z"/><path class="cls-5" d="M235.13,190.16s-.3-8.27-5.5-13-10.78-5.92-11.74-5.47,9.57,2.83,12.44,8.44S232.81,189.31,235.13,190.16Z"/><path class="cls-1" d="M245.73,139.62a.85.85,0,0,1,.14-1.2.86.86,0,0,1,1.2.14c4.39,5.58,4.69,14.5,5,23.73.29,8.61.6,17.51,4.28,23.82a.86.86,0,0,1-.31,1.18.85.85,0,0,1-1.17-.31c-3.91-6.69-4.22-15.8-4.52-24.63S249.76,144.75,245.73,139.62Z"/><path class="cls-1" d="M260.49,130.41a.87.87,0,0,1,1.2-.16.85.85,0,0,1,.16,1.2s-9.85,13-10,26a.86.86,0,0,1-1.72,0C250.29,143.85,260.46,130.45,260.49,130.41Z"/><path class="cls-6" d="M249.31,133.39c3.21-4.51,8.75-16.77-.33-24.19s-16.06,17.14-4.51,25.06c.31.21.54.46.8.61C247.74,136.34,249.31,133.39,249.31,133.39Z"/><path class="cls-7" d="M249.31,133.39a26.91,26.91,0,0,0,2.59-4.65,28.12,28.12,0,0,0,1.32-3.76c-2.06,2.31-4.64,4.68-6.36,4.49-3.31-.36-8.65-12-2.32-18.53s-.42,9.3,4,12.14-.89-7.06-.11-11.66,3.15,5.63,3.86,7,.36-5.11-1.65-7.65l-.07-.08a14.19,14.19,0,0,0-1.58-1.5c-9.08-7.42-16.06,17.14-4.51,25.06.31.21.54.46.8.61C247.74,136.34,249.31,133.39,249.31,133.39Z"/><path class="cls-8" d="M249.81,108.18s2.1,1.92,1.11,3.14-6.5,3.44-9.23-.43S246.92,105.11,249.81,108.18Z"/><path class="cls-9" d="M245.24,108.91l-.27,0a.51.51,0,0,0-.12,1,1.41,1.41,0,0,0,.29,0A.49.49,0,0,0,245.24,108.91Z"/><path class="cls-9" d="M248.62,108.24a.91.91,0,0,0-1.42,1.14A.91.91,0,0,0,248.62,108.24Z"/><path class="cls-9" d="M246.72,111.37a.71.71,0,0,0-1.11.88A.71.71,0,0,0,246.72,111.37Z"/><path class="cls-9" d="M250.63,110.79a.64.64,0,0,0-1,.79A.64.64,0,0,0,250.63,110.79Z"/><path class="cls-9" d="M245.92,107.44a.62.62,0,0,0-1,.77A.62.62,0,0,0,245.92,107.44Z"/><path class="cls-9" d="M243.3,110.22a.71.71,0,1,0-.89-1.1l-.15.1a.72.72,0,0,0,.9,1.13Z"/><path class="cls-10" d="M254.15,130s-1.93-1.51-3.87.73-3.07,3.35-5,1.65-4.11-5.08-6.06-3.4,2.83,3.24,3.84,6.79,3.59,6.78,6,3.47S251.34,132.12,254.15,130Z"/><path class="cls-11" d="M244.71,131.83c-1.79-1.76-3.74-4.4-5.5-2.88-2,1.67,2.83,3.24,3.84,6.79s3.59,6.78,6,3.47a12.67,12.67,0,0,0,1.49-2.66C250.49,136.68,247.36,141,244.71,131.83Z"/><path class="cls-6" d="M264.65,129.36c5.18-1.94,16.64-9,13.27-20.22s-22.91,5.2-17.77,18.23c.14.35.19.68.32.95C261.69,130.93,264.65,129.36,264.65,129.36Z"/><path class="cls-7" d="M264.65,129.36a27.48,27.48,0,0,0,7.94-4.78c-3,.76-6.46,1.28-7.78.16-2.53-2.15-.44-14.79,8.46-16.65s-5.56,7.47-3.49,12.29,3.21-6.34,6.43-9.72-.54,6.43-.72,8,3.15-4,2.91-7.26v-.11a14.22,14.22,0,0,0-.47-2.12c-3.37-11.24-22.91,5.2-17.77,18.23.14.35.19.68.32.95C261.69,130.93,264.65,129.36,264.65,129.36Z"/><path class="cls-8" d="M279.18,108.75s.67,2.77-.84,3.23-7.31-.8-7.41-5.53S278.5,104.6,279.18,108.75Z"/><path class="cls-9" d="M275,106.8c-.07-.06-.13-.14-.21-.2a.51.51,0,0,0-.66.78l.23.17A.49.49,0,0,0,275,106.8Z"/><path class="cls-9" d="M278.16,108.14a.91.91,0,0,0-1.81.15A.91.91,0,0,0,278.16,108.14Z"/><path class="cls-9" d="M274.83,109.66a.71.71,0,0,0-1.41.11A.71.71,0,0,0,274.83,109.66Z"/><path class="cls-9" d="M278.4,111.37a.64.64,0,0,0-1.27.1A.64.64,0,0,0,278.4,111.37Z"/><path class="cls-9" d="M276.38,106a.62.62,0,0,0-1.24.11A.62.62,0,0,0,276.38,106Z"/><path class="cls-9" d="M272.64,106.8a.71.71,0,1,0-.11-1.41h-.19a.72.72,0,0,0-.66.78.73.73,0,0,0,.78.66Z"/><path class="cls-10" d="M270.58,129.24a2.76,2.76,0,0,0-3.62-1.57c-2.86.77-4.42,1.06-5.08-1.43s-.56-6.51-3.12-6.22.54,4.27-.61,7.78-.83,7.62,3.06,6.27S267,129.45,270.58,129.24Z"/><path class="cls-11" d="M261.71,125.5c-.5-2.48-.63-5.74-2.95-5.48-2.54.3.54,4.27-.61,7.78s-.83,7.62,3.06,6.27a12.93,12.93,0,0,0,2.73-1.38C263.78,132.75,258.8,134.54,261.71,125.5Z"/><path class="cls-4" d="M251.69,195.92c-14.05,24.9,14.45,33.2,15,34.31C266.7,230.23,279.24,200.84,251.69,195.92Z"/><path class="cls-12" d="M251.59,196.11c-13.07,23.43,11.62,32.08,14.79,33.87-16.3-12.18-15.48-22.42-12-22.67s8.62,12.68,8,7.21-6.58-11.62-6.7-12.42C255.54,201.47,253,197.85,251.59,196.11Z"/><path class="cls-13" d="M251.69,195.92q-.44.78-.81,1.53c2.9,2.89,9.49,11,13.83,28.92,0,0,.2.83.73.83s1.26-14-12.11-30.94C252.8,196.14,252.26,196,251.69,195.92Z"/><path class="cls-14" d="M257.11,198.8s7.66,3.59,10.05,10.4,1.25,12.51.44,13.24,1.18-10.14-2.94-15.1S257,201.32,257.11,198.8Z"/><path class="cls-4" d="M249.06,192.79c16.18,28.65,41.3,5.5,42.72,5.6C291.78,198.39,270.29,168.57,249.06,192.79Z"/><path class="cls-12" d="M249.18,193c15.32,26.8,38.52,7.62,42.17,5.57-21.69,8.81-31.29,1.92-29.5-1.61s17.62-1,11.86-3.6-15.36-.42-16.21-.78C256.81,192.3,251.77,192.6,249.18,193Z"/><path class="cls-13" d="M249.06,192.79c.34.59.68,1.16,1,1.71,4.57-1.15,16.5-2.79,36.71,3.56,0,0,.94.3,1.25-.22s-13-9.55-37.68-6.47C249.93,191.82,249.5,192.29,249.06,192.79Z"/><path class="cls-14" d="M255.12,189.15s8.09-5.4,16.22-3.71,13.07,6.21,13.31,7.44-9.29-7.2-16.63-6.08S257.52,190.79,255.12,189.15Z"/><path class="cls-2" d="M273,191.37,272,194.7c-10.88,3.92-10.52,15.94-20.3,11.21-5.29-2.55-3.87-11.25-3.87-11.25Z"/><path class="cls-4" d="M261.5,159.61c32.28,6.36,31.05-27.77,32.06-28.79C293.56,130.82,256.93,127.73,261.5,159.61Z"/><path class="cls-12" d="M261.74,159.65c30.32,5.82,30.85-24.28,31.67-28.39-7.43,22.21-18.9,25-20.42,21.36s10.74-14,5-11.35-10.32,11.39-11.15,11.8C266.17,153.41,263.12,157.43,261.74,159.65Z"/><path class="cls-13" d="M261.5,159.61c.67.13,1.33.24,2,.34,2.1-4.22,8.62-14.36,26.6-25.56,0,0,.83-.52.64-1.1S275,137,261.28,157.69C261.34,158.32,261.41,159,261.5,159.61Z"/><path class="cls-14" d="M262.69,152.64s1.16-9.66,7.73-14.72,13.22-5.89,14.31-5.27-11.51,2.37-15.43,8.67S265.49,151.88,262.69,152.64Z"/><path class="cls-15" d="M244.48,197.13a18.63,18.63,0,0,1-12.91-3.84c-8.89-7.1-9.62-31.71,2.86-36.3A15.17,15.17,0,0,1,242,145.85c7.12-4.16,11.85-7.92,16.87-7.77S266.1,143,266.1,143s7.12-1.79,13.4,6.75,9.87,8.45,6.48,16.72-6.64,15.24-6.2,19.24-8.8,8.09-13.87,8.7-4.06,6.7-12.22,6.52A12.86,12.86,0,0,1,244.48,197.13Z"/><path class="cls-16" d="M227.61,174a18.67,18.67,0,0,1-3.13-13.11c1.7-11.24,22.65-24.18,32.87-15.67a15.17,15.17,0,0,1,13.46,1c7.15,4.08,12.77,6.3,15.15,10.72s-.68,8.69-.68,8.69,5.11,5.28.86,15-2.39,12.77-11.25,14-16.52,1.88-19.75,4.26-11.41-3.58-14.48-7.66-7.83-.17-11.75-7.33A12.84,12.84,0,0,1,227.61,174Z"/><path class="cls-16" d="M236.77,179.41s-13.85-2.28-10.83-16.17,16.13-19.2,26-15.73,6.61,12.59,4.87,17S236.77,179.41,236.77,179.41Z"/><path class="cls-16" d="M274.91,160.66s15.16,1.34,13,10.1-9.32,12.85-12,19.2-17.24,7.56-18.06.86S274.91,160.66,274.91,160.66Z"/><path class="cls-15" d="M246.75,152.81s.77-12.29,9.59-11,13.2,6.91,19.64,8.8,8.21,13.55,1.55,14.52S246.75,152.81,246.75,152.81Z"/><path class="cls-15" d="M268.8,181.52s1.8,15.22-6.66,16-13.66-4.89-20-5.46-10.38-14.34-4.4-17.31S268.8,181.52,268.8,181.52Z"/><path class="cls-16" d="M243.36,183.37s-11.33,3-12.75-5.39,2.3-14,2.08-20.34,9.79-11.44,12.65-5.72S243.36,183.37,243.36,183.37Z"/><path class="cls-16" d="M263.32,157.44s13.95-1.5,14.75,12.7-10.44,22.81-20.88,22.1-9.73-10.38-9.22-15.08S263.32,157.44,263.32,157.44Z"/><path class="cls-16" d="M266.27,179s-2.88,13.73-16.63,10.11-18.48-16.95-14.58-26.67,12.86-6.06,17.18-4.12S266.27,179,266.27,179Z"/><path class="cls-16" d="M245,165.12s-3.3-13.63,10.67-16.27,24,7.37,24.63,17.81-9,11-13.74,11.11S245,165.12,245,165.12Z"/><path class="cls-16" d="M246.89,178.58S233,176.3,236.06,162.41s16.14-19.2,26-15.74,6.61,12.59,4.87,17S246.89,178.58,246.89,178.58Z"/><path class="cls-2" d="M268.14,166.64s2.73,1.05,1.36-2.21-.63-5.88.32-4.52,7.25,12,1.05,19.76-24.59,7.78-27.75,0-1.26,2.94,13,2.1c0,0-6.94-2.52-7.26-6.83s6.31,2.1,10.62-4.41-11.14-2.63-11.56-1.37S250.8,158.23,268.14,166.64Z"/><path class="cls-3" d="M268.14,166.64s2.73,1.05,1.36-2.21-.63-5.88.32-4.52,7.25,12,1.05,19.76c-2.9,3.65-8.49,5.58-13.93,5.81,15.8-9.43,5.29-21,5.22-21.12A32.94,32.94,0,0,1,268.14,166.64Z"/><path class="cls-17" d="M253.44,151.93c14-2.64,24,7.36,24.64,17.81a11.85,11.85,0,0,1-.53,4.62,3.29,3.29,0,0,1-.16.44l.16-.14c1.8-1.63,3-4.14,2.72-8-.66-10.44-10.66-20.45-24.63-17.81-5.47,1-8.29,3.75-9.7,6.67A14.14,14.14,0,0,1,253.44,151.93Z"/><path class="cls-17" d="M237.59,165.26c1.71-4.29,4.42-6,7.28-6.35a13,13,0,0,1,.8-2.78c-3.95-.61-8.23.32-10.61,6.27a19.77,19.77,0,0,0,5,21.53A19.69,19.69,0,0,1,237.59,165.26Z"/><path class="cls-18" d="M243,170.41c2-11,12.23-15.52,20.1-13a9.47,9.47,0,0,1,3.24,1.7l.28.24-.06-.15c-.69-1.79-2.2-3.36-5.1-4.28-7.86-2.49-18.06,2-20.1,13-.8,4.31.4,7.16,2.14,9A11.08,11.08,0,0,1,243,170.41Z"/><path class="cls-17" d="M276,175.64a20,20,0,0,1-7.32,10.56,19.53,19.53,0,0,1-11.1,3.87,14.73,14.73,0,0,1-1.63,0,13.79,13.79,0,0,1-2.4-.36,17.37,17.37,0,0,1-3.35-.41c1.42,1.6,3.62,2.74,7,3,.4,0,.81,0,1.22,0a19.48,19.48,0,0,0,10-3l0,.15A20.18,20.18,0,0,0,278,174l-.25.27a7,7,0,0,1-.56.53A9.29,9.29,0,0,1,276,175.64Z"/><path class="cls-18" d="M234.67,158.74c-.15-4.31,4.37-8,8.2-8.21.22-.18.44-.37.66-.54-3.94-2.17-11,2.27-10.84,7.65.21,6-3.13,11.39-2.27,19,.05.43.11.86.19,1.3a6.38,6.38,0,0,0,4.28,5.25,6.5,6.5,0,0,1-2.31-4.15c-.06-.4-.12-.8-.17-1.19C231.51,170.18,234.88,164.81,234.67,158.74Z"/><path class="cls-19" d="M209,249.18a21.07,21.07,0,0,1-14.6-4.35c-10.05-8-10.88-35.84,3.24-41a17.13,17.13,0,0,1,8.6-12.59c8-4.7,13.39-8.95,19.08-8.78s8.12,5.58,8.12,5.58,8.05-2,15.15,7.64,11.16,9.55,7.32,18.9-7.5,17.23-7,21.75-9.95,9.15-15.69,9.84-4.59,7.57-13.81,7.36A14.48,14.48,0,0,1,209,249.18Z"/><path class="cls-6" d="M189.92,223.05a21.1,21.1,0,0,1-3.53-14.82c1.92-12.71,25.61-27.34,37.16-17.71a17.12,17.12,0,0,1,15.21,1.15c8.09,4.62,14.44,7.13,17.14,12.13s-.77,9.82-.77,9.82,5.77,6,1,16.95-2.7,14.44-12.71,15.79-18.68,2.11-22.33,4.81-12.91-4-16.37-8.66-8.86-.2-13.29-8.28A14.57,14.57,0,0,1,189.92,223.05Z"/><path class="cls-6" d="M200.28,229.15s-15.66-2.58-12.25-18.29,18.25-21.7,29.41-17.78,7.48,14.23,5.51,19.21S200.28,229.15,200.28,229.15Z"/><path class="cls-6" d="M243.4,208s17.14,1.52,14.71,11.41-10.54,14.53-13.59,21.72-19.49,8.54-20.41,1S243.4,208,243.4,208Z"/><path class="cls-19" d="M211.56,199.08s.87-13.91,10.85-12.41,14.92,7.82,22.2,9.94,9.28,15.32,1.75,16.42S211.56,199.08,211.56,199.08Z"/><path class="cls-19" d="M236.49,231.53s2,17.21-7.53,18.06-15.44-5.53-22.64-6.17-11.74-16.22-5-19.58S236.49,231.53,236.49,231.53Z"/><path class="cls-6" d="M207.73,233.63s-12.8,3.35-14.42-6.1,2.61-15.79,2.36-23,11.07-12.93,14.3-6.46S207.73,233.63,207.73,233.63Z"/><path class="cls-6" d="M230.29,204.31s15.78-1.69,16.68,14.35-11.8,25.79-23.6,25-11-11.73-10.43-17.05S230.29,204.31,230.29,204.31Z"/><path class="cls-6" d="M233.63,228.64s-3.26,15.52-18.8,11.43-20.89-19.17-16.49-30.16,14.55-6.84,19.43-4.66S233.63,228.64,233.63,228.64Z"/><path class="cls-6" d="M209.55,213s-3.73-15.41,12.06-18.4,27.11,8.33,27.86,20.14-10.2,12.44-15.55,12.56S209.55,213,209.55,213Z"/><path class="cls-6" d="M211.72,228.2s-15.65-2.57-12.24-18.28,18.24-21.71,29.41-17.79,7.47,14.24,5.5,19.21S211.72,228.2,211.72,228.2Z"/><path class="cls-8" d="M235.74,214.71s3.09,1.18,1.55-2.5-.71-6.65.35-5.11,8.2,13.55,1.19,22.34-27.8,8.79-31.37,0-1.42,3.33,14.74,2.38c0,0-7.85-2.86-8.2-7.73s7.13,2.38,12-5-12.6-3-13.07-1.54S216.14,205.2,235.74,214.71Z"/><path class="cls-20" d="M235.74,214.71s3.09,1.18,1.55-2.5-.71-6.65.35-5.11,8.2,13.55,1.19,22.34c-3.28,4.12-9.6,6.31-15.75,6.57,17.86-10.66,6-23.8,5.9-23.89A37.89,37.89,0,0,1,235.74,214.71Z"/><path class="cls-18" d="M219.13,198.07c15.79-3,27.1,8.33,27.85,20.15a13.46,13.46,0,0,1-.59,5.22c0,.17-.12.33-.18.49l.18-.15c2-1.85,3.35-4.69,3.08-9.05-.75-11.81-12.06-23.12-27.86-20.14-6.18,1.17-9.37,4.24-11,7.55A16,16,0,0,1,219.13,198.07Z"/><path class="cls-21" d="M201.2,213.14c1.94-4.84,5-6.75,8.24-7.17a15.45,15.45,0,0,1,.9-3.15c-4.47-.69-9.31.37-12,7.09A22.34,22.34,0,0,0,204,234.25,22.25,22.25,0,0,1,201.2,213.14Z"/><path class="cls-18" d="M207.34,219c2.31-12.44,13.84-17.53,22.73-14.72a10.63,10.63,0,0,1,3.67,1.92l.31.28-.07-.18c-.78-2-2.48-3.8-5.76-4.83-8.89-2.82-20.42,2.27-22.73,14.72-.9,4.87.45,8.09,2.43,10.2A12.53,12.53,0,0,1,207.34,219Z"/><path class="cls-21" d="M244.66,224.88a22.54,22.54,0,0,1-8.27,11.94,22.06,22.06,0,0,1-12.55,4.38c-.62,0-1.23,0-1.84,0a15.41,15.41,0,0,1-2.72-.41,18.35,18.35,0,0,1-3.79-.46c1.62,1.81,4.1,3.1,7.88,3.36.45,0,.91,0,1.37,0a22,22,0,0,0,11.31-3.39l0,.17A22.79,22.79,0,0,0,246.87,223c-.09.1-.18.21-.28.31s-.41.4-.63.59A10.06,10.06,0,0,1,244.66,224.88Z"/><path class="cls-18" d="M197.91,205.78c-.17-4.88,4.94-9.06,9.26-9.28l.75-.62c-4.45-2.44-12.46,2.57-12.25,8.65.24,6.83-3.54,12.88-2.57,21.53q.08.72.21,1.47a7.19,7.19,0,0,0,4.84,5.93,7.29,7.29,0,0,1-2.6-4.68c-.08-.46-.15-.91-.2-1.35C194.33,218.71,198.15,212.64,197.91,205.78Z"/><path class="cls-1" d="M94.63,42.5a1,1,0,0,1-.15-2c.07,0,22.61-1.82,31.8,13.8a1,1,0,1,1-1.73,1C116,40.78,94.69,42.5,94.63,42.5Z"/><path class="cls-1" d="M130.53,33.1a1,1,0,0,1-.29-2c6.51-1,12.68-3.94,18.83-6.91,10.07-4.87,20.11-9.72,32-6.18a1,1,0,1,1-.57,1.92C169.35,16.63,159.66,21.31,150,26,143.65,29.05,137.34,32.1,130.53,33.1Z"/><path class="cls-1" d="M104,38.58a1,1,0,0,1-1.58-1.25A60.25,60.25,0,0,1,128.65,19.8a1,1,0,0,1,1.27.64,1,1,0,0,1-.64,1.26A57.83,57.83,0,0,0,104,38.58Z"/><path class="cls-1" d="M113.21,19a1,1,0,0,1,1.72-1s2,3.23-2.86,12.92a1,1,0,1,1-1.79-.89C114.63,21.26,113.21,19,113.21,19Z"/><path class="cls-1" d="M42.43,91.72a1,1,0,1,1-1.68-1.1s8.31-12.75,19.86-15.68l1.58-.4c10.13-2.56,17.53-4.43,21-10.48a1,1,0,1,1,1.73,1C81,71.85,73.28,73.81,62.68,76.49l-1.57.4C50.31,79.63,42.45,91.69,42.43,91.72Z"/><path class="cls-1" d="M82.2,78a1,1,0,1,1,.24,2S72,81.39,64.31,76.49a1,1,0,0,1-.3-1.38,1,1,0,0,1,1.38-.31C72.44,79.3,82.17,78,82.2,78Z"/><path class="cls-1" d="M41.28,82.7a1,1,0,1,1-2,.22c0-.06-2.44-21.25,13.91-35.78a1,1,0,1,1,1.33,1.5C39,62.48,41.27,82.65,41.28,82.7Z"/><path class="cls-1" d="M36.54,49.9a1,1,0,0,1,1.28-1.54s6.24,5.08,6.23,15.4a1,1,0,0,1-2,0C42.06,54.39,36.56,49.91,36.54,49.9Z"/><path class="cls-1" d="M164.32,35.42a1,1,0,1,1,1.13-1.66c.06,0,23,15.64,27.54,33.75a1,1,0,1,1-1.94.49C186.7,50.63,164.38,35.46,164.32,35.42Z"/><path class="cls-1" d="M178.86,64a1,1,0,0,1-1.38.33,1,1,0,0,1-.32-1.38s3.85-6.11,1.73-15.07a1,1,0,1,1,2-.46A23,23,0,0,1,178.86,64Z"/><path class="cls-1" d="M139.94,33.42a1,1,0,0,1-.67-1.25,1,1,0,0,1,1.26-.67S151.44,34.83,155,43.43a1,1,0,1,1-1.85.76C150,36.47,140,33.43,139.94,33.42Z"/><path class="cls-1" d="M166.56,5.87a1,1,0,0,1,1.24.69,1,1,0,0,1-.69,1.24c-4.78,1.36-7,5.06-9.22,8.88s-4.56,7.72-9.43,10a1,1,0,0,1-.86-1.81c4.31-2.06,6.47-5.71,8.56-9.25C158.63,11.48,161,7.45,166.56,5.87Z"/><path class="cls-1" d="M211.63,57.41a1,1,0,1,1,.16-2c.07,0,24.74,2,37.07,18.13a1,1,0,1,1-1.59,1.22C235.48,59.32,211.69,57.41,211.63,57.41Z"/><path class="cls-1" d="M248.22,60a1,1,0,0,1,1.11,1.67s-7,4.85-18,1a1,1,0,1,1,.65-1.89C242,64.3,248.2,60,248.22,60Z"/><path class="cls-1" d="M212.83,59.47a1,1,0,0,1,2-.21c0,.06,2.07,20.66,13.19,32.48a1,1,0,0,1-1.47,1.37C215,80.8,212.84,59.53,212.83,59.47Z"/><path class="cls-1" d="M214.08,88.29a1,1,0,1,1-1.73-1s4.07-6.91,3.31-14.62a1,1,0,0,1,2-.19C218.48,80.84,214.1,88.27,214.08,88.29Z"/><path class="cls-1" d="M70.05,235.05a1,1,0,0,1,.92,1.08,1,1,0,0,1-1.08.92c-.06,0-20.11-1.6-33-14.28a1,1,0,0,1,1.41-1.43C50.67,233.5,70,235,70.05,235.05Z"/><path class="cls-1" d="M42.58,236.17a1,1,0,0,1-.79-1.18A1,1,0,0,1,43,234.2s5.46,1.11,14.55-1.14A1,1,0,1,1,58,235C48.47,237.36,42.6,236.17,42.58,236.17Z"/><path class="cls-1" d="M54.74,216.55a1,1,0,1,1-1.4,1.44s-9.31-9.14-25.17-18.3c-16.5-9.53-15.93-16.87-15.93-16.89a1,1,0,0,1,2,.12s-.49,6.13,14.93,15A138.42,138.42,0,0,1,54.74,216.55Z"/><path class="cls-1" d="M17.23,203.71a1,1,0,0,1,.36-2,44.55,44.55,0,0,0,15.58-.35,1,1,0,1,1,.41,2A46.54,46.54,0,0,1,17.23,203.71Z"/><path class="cls-1" d="M25.68,188.57a1,1,0,0,1,.94-1.06,1,1,0,0,1,1.06.94S28,194.83,31,199a1,1,0,1,1-1.65,1.15C26,195.5,25.68,188.59,25.68,188.57Z"/><path class="cls-1" d="M47.75,204.73a1,1,0,0,1-2,.42s-3.23-15-1.67-21.55a1,1,0,0,1,1.2-.74,1,1,0,0,1,.75,1.21C44.6,190.14,47.74,204.69,47.75,204.73Z"/><path class="cls-1" d="M70.15,224.53a1,1,0,0,1-1.05,1,1,1,0,0,1-.95-1s.65-11.83-8.7-24A1,1,0,1,1,61,199.19C70.84,212,70.15,224.5,70.15,224.53Z"/><path class="cls-1" d="M71.81,201.54a1,1,0,0,1,1.42,0,1,1,0,0,1,0,1.42s-4.93,4.92-4.34,11.54a1,1,0,0,1-2,.17C66.24,207.1,71.79,201.55,71.81,201.54Z"/><path class="cls-1" d="M195.59,231.9a1,1,0,0,1,1.54,1.3c0,.05-13.28,16.15-40,4.5a1,1,0,0,1,.8-1.84C183.26,246.91,195.56,232,195.59,231.9Z"/><path class="cls-1" d="M165.37,253.53a1,1,0,1,1-.34,2c-16.86-2.95-22.19-10.77-27.12-18-3.42-5-6.64-9.74-13.64-12.1a1,1,0,0,1-.64-1.27,1,1,0,0,1,1.27-.63c7.65,2.58,11,7.56,14.67,12.86C144.27,243.26,149.35,250.71,165.37,253.53Z"/><path class="cls-1" d="M140.48,226.52a1,1,0,0,1,1.28-.62,1,1,0,0,1,.62,1.27s-2.64,7.69-.1,13.08a1,1,0,1,1-1.81.86C137.57,235,140.48,226.54,140.48,226.52Z"/><path class="cls-1" d="M161.36,255.53a1,1,0,0,1,1.65,1.16,36.19,36.19,0,0,1-25.12,13.63,1,1,0,1,1-.18-2A33.93,33.93,0,0,0,161.36,255.53Z"/><path class="cls-1" d="M190.37,245.47a1,1,0,0,1,.92,1.78s-12.58,6.46-15.82,17a1,1,0,0,1-1.25.66,1,1,0,0,1-.67-1.25C177.05,252.31,190.33,245.49,190.37,245.47Z"/><path class="cls-1" d="M152.65,263.39a1,1,0,0,1,1.62,1.18s-4.34,5.91-3.77,9.85a1,1,0,0,1-2,.28C147.83,270,152.63,263.41,152.65,263.39Z"/><path class="cls-2" d="M23.17,134.12C33.92,163.34,1.84,167.27,1,168.37,1,168.37-7.29,134.59,23.17,134.12Z"/><path class="cls-3" d="M23.25,134.34c9.94,27.47-18.1,32.44-21.82,33.82C21.08,157.91,22,146.78,18.35,145.9S6.86,158,8.49,152.25s9.1-11.34,9.37-12.17C18.07,139.41,21.38,136,23.25,134.34Z"/><path class="cls-4" d="M23.17,134.12c.23.61.43,1.21.61,1.79-3.63,2.59-12.13,10.19-19.93,28.66,0,0-.36.86-.93.76S4,150.1,21.35,134.2C22,134.16,22.55,134.13,23.17,134.12Z"/><path class="cls-5" d="M16.84,136.26S8,138.79,4.23,145.69.7,158.92,1.43,159.84s.51-11.11,5.81-15.71S16.55,139,16.84,136.26Z"/><path class="cls-2" d="M43.39,96.65c12.1,16.16,25.55.11,26.43.06C69.82,96.71,54.4,80.26,43.39,96.65Z"/><path class="cls-3" d="M43.48,96.77c11.43,15.1,24,1.61,26.09.08-12.5,7.06-18.88,3.62-18.07,1.34s10.64-2,6.93-3.12-9.38.94-9.92.8A23.68,23.68,0,0,0,43.48,96.77Z"/><path class="cls-4" d="M43.39,96.65l.76,1c2.69-1.06,9.82-3,22.61-.72,0,0,.6.1.75-.24s-8.67-4.78-23.43-1Q43.74,96.16,43.39,96.65Z"/><path class="cls-5" d="M46.79,94s4.5-3.92,9.58-3.54,8.44,2.76,8.68,3.48-6.22-3.64-10.59-2.39S48.38,94.77,46.79,94Z"/><path class="cls-2" d="M39.52,130.32c14.6,13.93,25.21-4.13,26.07-4.32C65.59,126,47.66,112.33,39.52,130.32Z"/><path class="cls-3" d="M39.63,130.42c13.76,13,24-2.39,25.74-4.24-11.17,9-18,6.7-17.61,4.31s10.18-3.7,6.32-4.22-9.09,2.48-9.65,2.43A23.25,23.25,0,0,0,39.63,130.42Z"/><path class="cls-4" d="M39.52,130.32c.3.29.6.56.9.83,2.48-1.49,9.19-4.59,22.19-4.46,0,0,.6,0,.69-.35S54,123.06,40,129.26C39.86,129.6,39.68,130,39.52,130.32Z"/><path class="cls-5" d="M42.42,127.11s3.79-4.61,8.86-5.07,8.78,1.32,9.14,2-6.74-2.56-10.84-.6S44.13,127.64,42.42,127.11Z"/><path class="cls-4" d="M26.5,123c-2.83,20.44-22.82,12.73-23.62,13.12C2.88,136.12,8.53,113.77,26.5,123Z"/><path class="cls-12" d="M26.47,123.15c-2.75,19.16-20.7,13.33-23.3,13,14.68.13,18.69-6.1,16.83-7.75s-10.5,3.51-7.75.64,8.87-3.79,9.28-4.2A24.12,24.12,0,0,1,26.47,123.15Z"/><path class="cls-13" d="M26.5,123q-.09.63-.21,1.23c-2.93.39-10.27,2.18-20.59,10.55,0,0-.48.39-.78.15s5.39-8.56,20.49-12.46C25.77,122.63,26.13,122.81,26.5,123Z"/><path class="cls-14" d="M22.12,122.27s-6-1.28-10.31,1.58-6.19,6.64-6.05,7.41,3.76-6.34,8.3-7.38S21.1,123.78,22.12,122.27Z"/><path class="cls-4" d="M29.38,122.35c-21.82,9.37-26.11-14.91-27-15.47C2.4,106.88,27.79,99.16,29.38,122.35Z"/><path class="cls-12" d="M29.21,122.41C8.7,131.1,3.77,109.94,2.57,107.17c8.6,14.55,17.12,14.79,17.64,12s-9.69-8.26-5.23-7.26,9,6.48,9.65,6.65A28.57,28.57,0,0,1,29.21,122.41Z"/><path class="cls-13" d="M29.38,122.35c-.46.19-.9.37-1.34.53-2.12-2.66-8.26-8.82-22.63-14,0,0-.67-.24-.62-.68s11.64.22,24.46,12.77C29.3,121.41,29.34,121.87,29.38,122.35Z"/><path class="cls-14" d="M27.49,117.61s-2.28-6.64-7.69-9.22-10.22-2.16-10.89-1.56,8.48-.06,12.2,3.79S25.4,117.5,27.49,117.61Z"/><path class="cls-2" d="M16.25,111.05l-.85,2.38c4.53,7-.93,13.75,6.75,15.32,4.15.85,7.14-4.77,7.14-4.77Z"/><path class="cls-4" d="M36.75,97.86c-21.31-10.47-5.68-29.52-5.81-30.55C30.94,67.31,53.32,81.57,36.75,97.86Z"/><path class="cls-12" d="M36.59,97.78c-19.94-9.92-7.08-27.43-5.76-30.15-5.45,16-.09,22.63,2.39,21.19s0-12.73,2.09-8.69.95,11.05,1.24,11.65A27.85,27.85,0,0,1,36.59,97.78Z"/><path class="cls-13" d="M36.75,97.86c-.44-.22-.87-.44-1.28-.67.64-3.34,1.33-12-4.09-26.3,0,0-.25-.67.12-.91s7.41,9,6.22,26.88C37.41,97.19,37.09,97.53,36.75,97.86Z"/><path class="cls-14" d="M39.12,93.35s3.55-6.06,2-11.84-5-9.16-5.91-9.28S40.78,78.62,40.28,84,37.84,91.68,39.12,93.35Z"/><path class="cls-19" d="M31.7,129.85a13.34,13.34,0,0,0,9,3.4c8.11-.18,19.17-13.83,14.07-21.83a10.81,10.81,0,0,0,.5-9.61C53,96.38,52,92.2,49,90.11s-6.2-.31-6.2-.31-3.27-4.09-10.53-2-9.25.53-10.9,6.69-2.82,11.51-4.8,13.59,1.49,8.39,4.11,10.93-.59,5.56,4.11,9A9.16,9.16,0,0,0,31.7,129.85Z"/><path class="cls-6" d="M51.27,124A13.34,13.34,0,0,0,58.71,118c3.89-7.12-2.4-23.51-11.87-23.1a10.83,10.83,0,0,0-8.08-5.24c-5.82-.77-10-2-13.24-.47s-3.36,5.23-3.36,5.23-5.19.78-7,8.13-4.17,8.28.34,12.78,8.56,8.21,9.37,11,8,2.9,11.52,1.91,4.52,3.29,9.84.92A9.14,9.14,0,0,0,51.27,124Z"/><path class="cls-6" d="M43.74,123.13s8.84,4.69,13.14-4.49-.86-17.87-8-20.17-9.19,4.28-10.11,7.53S43.74,123.13,43.74,123.13Z"/><path class="cls-6" d="M30.21,96s-9.18-5.79-11.74.11S18.19,107.43,17,112.2s6.51,11.74,9.87,8.29S30.21,96,30.21,96Z"/><path class="cls-19" d="M49.58,103.72s4.88-7.3-.7-10.36-10.47-1.79-15-3.51S23.42,94,26.78,97.42,49.58,103.72,49.58,103.72Z"/><path class="cls-19" d="M24.66,110.48s-7.6,7.86-3.13,11.94,9.87,3.13,13.72,5.56,12.09-3.65,10-7.92S24.66,110.48,24.66,110.48Z"/><path class="cls-6" d="M38.29,122.53s5.14,6.58,9.56,2.45,4.73-8.92,7.61-12.44-.6-10.72-4.7-8.71S38.29,122.53,38.29,122.53Z"/><path class="cls-6" d="M38.18,99.19s-7.27-6.88-13.86.82-3.94,17.45,2.29,21.57,10-1.68,11.75-4.57S38.18,99.19,38.18,99.19Z"/><path class="cls-6" d="M27.2,110.12s-4.3,9,5.06,12.93,17.82-1.64,19.81-8.83-4.68-9-8-9.77S27.2,110.12,27.2,110.12Z"/><path class="cls-6" d="M45.26,111.48s7.77-6.31,1-13.85-16.79-6.18-21.68-.54.36,10.14,3,12.24S45.26,111.48,45.26,111.48Z"/><path class="cls-6" d="M38.36,118.28s8.84,4.69,13.13-4.49-.85-17.87-8-20.17-9.2,4.28-10.11,7.53S38.36,118.28,38.36,118.28Z"/><path class="cls-8" d="M31.47,102.32s-2-.58.18-1.84,2.9-3.07,1.77-2.7-9.29,3.66-9.14,10.75,10.59,15,15.74,12-.55,2.21-8.3-4.44c0,0,5,1.57,7.07-.74s-4.49-1.54-4.11-7.1,7.45,3.33,7.14,4.23S44.94,105.05,31.47,102.32Z"/><path class="cls-20" d="M31.47,102.32s-2-.58.18-1.84,2.9-3.07,1.77-2.7-9.29,3.66-9.14,10.75c.08,3.33,2.41,6.84,5.39,9.32-4.88-12.18,6.1-14.22,6.18-14.24A24.3,24.3,0,0,0,31.47,102.32Z"/><path class="cls-18" d="M46.16,100.33c-6.78-7.54-16.78-6.18-21.67-.54a8.25,8.25,0,0,0-1.7,2.84c0,.11-.07.22-.1.32l0-.15c-.32-1.7.11-3.63,1.91-5.71,4.89-5.64,14.9-7,21.68.54,2.65,3,3.08,5.71,2.61,8A10,10,0,0,0,46.16,100.33Z"/><path class="cls-21" d="M49.4,114.75c.88-3.18.07-5.3-1.39-6.75a10.06,10.06,0,0,0,.75-1.93c2.5,1.36,4.53,3.75,3.31,8.15a14.11,14.11,0,0,1-12.16,10A14.06,14.06,0,0,0,49.4,114.75Z"/><path class="cls-18" d="M44.09,115.32c3.6-7.13-.24-14.09-5.77-16.08a7,7,0,0,0-2.58-.44l-.26,0,.1-.06a5.21,5.21,0,0,1,4.74-.22c5.54,2,9.38,8.95,5.77,16.07-1.41,2.79-3.31,3.89-5.11,4.2A8,8,0,0,0,44.09,115.32Z"/><path class="cls-21" d="M23.1,104a14.27,14.27,0,0,0-.41,9.16,14,14,0,0,0,4.62,7c.3.24.62.47.94.68a10.13,10.13,0,0,0,1.52.84,12.26,12.26,0,0,0,2.08,1.21,7,7,0,0,1-5.24-1.32c-.24-.16-.47-.33-.71-.51a13.83,13.83,0,0,1-4.37-6l-.05.09a14.39,14.39,0,0,1,1.22-12.9c0,.09,0,.18,0,.26l.09.55A6.26,6.26,0,0,0,23.1,104Z"/><path class="cls-18" d="M53.87,112.31c1.94-2.38,1-6.44-1.11-8.2,0-.2-.08-.4-.13-.6,3.17.48,5.26,6.06,2.83,9-2.73,3.34-3.14,7.82-6.94,11.79-.21.22-.43.44-.67.65a4.54,4.54,0,0,1-4.69,1.13,4.66,4.66,0,0,0,3.1-1.36l.61-.6C50.72,120.17,51.12,115.66,53.87,112.31Z"/><path class="cls-19" d="M27.7,172.24A15.23,15.23,0,0,0,38,176.13c9.27-.2,21.92-15.82,16.09-25a12.39,12.39,0,0,0,.57-11c-2.56-6.21-3.77-11-7.11-13.38s-7.1-.34-7.1-.34-3.74-4.69-12-2.25-10.58.6-12.47,7.65S12.7,145,10.43,147.38s1.71,9.61,4.7,12.51-.67,6.36,4.71,10.27A10.47,10.47,0,0,0,27.7,172.24Z"/><path class="cls-6" d="M50.09,165.59a15.29,15.29,0,0,0,8.51-7c4.45-8.14-2.74-26.9-13.59-26.43a12.37,12.37,0,0,0-9.23-6c-6.67-.88-11.41-2.22-15.15-.53s-3.85,6-3.85,6-5.93.9-8,9.31-4.77,9.47.38,14.62S19,165,19.92,168.11s9.17,3.33,13.18,2.19,5.17,3.76,11.25,1.06A10.54,10.54,0,0,0,50.09,165.59Z"/><path class="cls-6" d="M41.48,164.56s10.11,5.37,15-5.14-1-20.44-9.1-23.08S36.88,141.25,35.84,145,41.48,164.56,41.48,164.56Z"/><path class="cls-6" d="M26,133.53s-10.51-6.63-13.44.11-.31,13-1.7,18.41,7.45,13.43,11.29,9.49S26,133.53,26,133.53Z"/><path class="cls-19" d="M48.15,142.36s5.58-8.36-.8-11.86-12-2-17.09-4-12,4.73-8.19,8.66S48.15,142.36,48.15,142.36Z"/><path class="cls-19" d="M19.65,150.09s-8.7,9-3.58,13.66,11.28,3.57,15.7,6.36,13.83-4.17,11.42-9.06S19.65,150.09,19.65,150.09Z"/><path class="cls-6" d="M35.24,163.87s5.88,7.53,10.94,2.81,5.41-10.21,8.7-14.24-.69-12.26-5.37-10S35.24,163.87,35.24,163.87Z"/><path class="cls-6" d="M35.11,137.17s-8.31-7.87-15.85.94-4.51,20,2.62,24.67,11.44-1.92,13.44-5.22S35.11,137.17,35.11,137.17Z"/><path class="cls-6" d="M22.55,149.68S17.63,160,28.34,164.46,48.72,162.6,51,154.36s-5.36-10.29-9.11-11.17S22.55,149.68,22.55,149.68Z"/><path class="cls-6" d="M43.21,151.23s8.89-7.22,1.13-15.84-19.2-7.07-24.8-.62.42,11.6,3.43,14S43.21,151.23,43.21,151.23Z"/><path class="cls-6" d="M35.32,159s10.11,5.37,15-5.14-1-20.44-9.1-23.07-10.51,4.9-11.56,8.62S35.32,159,35.32,159Z"/><path class="cls-8" d="M27.43,140.75s-2.29-.66.21-2.1,3.32-3.51,2-3.09S19,139.75,19.21,147.86s12.12,17.21,18,13.72-.64,2.54-9.5-5.08c0,0,5.75,1.8,8.09-.84s-5.13-1.76-4.71-8.12,8.53,3.8,8.18,4.83S42.85,143.87,27.43,140.75Z"/><path class="cls-20" d="M27.43,140.75s-2.29-.66.21-2.1,3.32-3.51,2-3.09S19,139.75,19.21,147.86c.09,3.8,2.75,7.82,6.17,10.66-5.59-13.93,7-16.27,7.06-16.29A27.46,27.46,0,0,0,27.43,140.75Z"/><path class="cls-18" d="M44.25,138.48c-7.76-8.62-19.21-7.08-24.8-.62a9.63,9.63,0,0,0-1.95,3.25c0,.12-.08.24-.11.36l0-.17c-.36-2,.12-4.15,2.18-6.53,5.6-6.45,17-8,24.8.62,3,3.37,3.53,6.53,3,9.13A11.5,11.5,0,0,0,44.25,138.48Z"/><path class="cls-21" d="M47.94,155c1-3.63.08-6.07-1.59-7.72a10.58,10.58,0,0,0,.86-2.21c2.87,1.56,5.18,4.29,3.79,9.32a16.14,16.14,0,0,1-13.91,11.49A16.07,16.07,0,0,0,47.94,155Z"/><path class="cls-18" d="M41.87,155.62c4.12-8.15-.27-16.11-6.6-18.39a7.61,7.61,0,0,0-3-.5l-.3,0,.12-.07a6,6,0,0,1,5.42-.26c6.34,2.28,10.73,10.24,6.61,18.39-1.62,3.2-3.8,4.45-5.86,4.8A9,9,0,0,0,41.87,155.62Z"/><path class="cls-21" d="M17.86,142.69a16.28,16.28,0,0,0-.47,10.48,16,16,0,0,0,5.29,8,13.18,13.18,0,0,0,2.81,1.74,13.33,13.33,0,0,0,2.38,1.39,7.94,7.94,0,0,1-6-1.52q-.42-.27-.81-.57a15.92,15.92,0,0,1-5-6.9l-.06.11a16.5,16.5,0,0,1,1.4-14.76l0,.3c0,.21.06.42.1.62A7.08,7.08,0,0,0,17.86,142.69Z"/><path class="cls-18" d="M53.06,152.18c2.22-2.72,1.13-7.36-1.26-9.38,0-.23-.1-.46-.16-.68,3.63.54,6,6.93,3.24,10.32-3.12,3.82-3.59,8.95-7.94,13.49-.24.25-.49.5-.76.75A5.22,5.22,0,0,1,40.81,168a5.27,5.27,0,0,0,3.54-1.56c.25-.22.48-.45.7-.68C49.45,161.17,49.92,156,53.06,152.18Z"/><path class="cls-6" d="M75.4,224.81c-.55-3.48-2.64-3.79.22-7,1.79-2,4.41-5.27,7.47-4.62a14.57,14.57,0,0,1,2.48,1.06,2.79,2.79,0,0,0,2.59,0,29.71,29.71,0,0,0,7.6,1.76c2.39,2.58,2.35,7.81.63,10.87s-4.62,5.25-7.44,7.35l-4.32,3.2a4.41,4.41,0,0,1-2.37,1.11,4,4,0,0,1-2.88-1.69C76.47,233.53,76.93,229,75.4,224.81Z"/><path class="cls-19" d="M74.41,219.52a7.29,7.29,0,0,1,1.21-1.7l1-1.18a3.07,3.07,0,0,0,1.31.61c2.33.47,10.67,2.37,11.24,6s-1.23,4,.62,6,0,2.44-.89,5l-4.32,3.2a4.41,4.41,0,0,1-2.37,1.11,4,4,0,0,1-2.88-1.69c-2.75-3.18-2.48-7.42-3.75-11.4a5.05,5.05,0,0,1,4.73,3.9c1,3.73,5.41,1.19,5.41,1.19s.9-5.55-1.07-8.54C83.62,220.4,78.66,219.76,74.41,219.52Z"/><path class="cls-18" d="M88.16,214.29a2.79,2.79,0,0,1-2.59,0,14.57,14.57,0,0,0-2.48-1.06c-2.06-.44-3.92.9-5.46,2.43,1.6-.8,3.34-1.75,3.43-.65.22,2.68.12-.88,2.57-.4a4.06,4.06,0,0,1,1.9,1.32c1.91,1.89,2.14.77,3.9.4,1.37-.28,2.56.9,3.45,2s1.21,3.14,1.56,4.31c.28.91.81,1.52,1.48.63,1.22-1.59.27,2.54.25,4.09l.22-.38c1.72-3.06,1.76-8.29-.63-10.87A29.71,29.71,0,0,1,88.16,214.29Z"/><path class="cls-6" d="M81.67,240.94a75.26,75.26,0,0,0,11.11,8.44,7.41,7.41,0,0,0,3.08,1.29,2.7,2.7,0,0,0,2.8-1.43c1.22,1.12,3.82.28,4.73-1.11a7,7,0,0,0,.66-4.84,6.29,6.29,0,0,1,0-2.59,12.74,12.74,0,0,1,1.67-2.64c.53-.89.64-2.27-.26-2.8,1.45-.82,1.85-2.77,1.48-4.4a29.15,29.15,0,0,0-14-3.71A13.14,13.14,0,0,0,84.23,234C83.13,236.39,83.37,238.89,81.67,240.94Z"/><path class="cls-19" d="M81.67,240.94c1.47,1.35,3,2.63,4.55,3.85,2.2-.93,6.37,2.8,6.37,2.8a17.1,17.1,0,0,0-2.6-3.11c-2-2.07-1.1-4.66-.34-6.09s7.59.53,5.69-2.08-7.27.55-6.39-2,2.74-3.08.89-5a4.15,4.15,0,0,1-.51-.63,12.13,12.13,0,0,0-5.1,5.35C83.13,236.39,83.37,238.89,81.67,240.94Z"/><path class="cls-18" d="M106.89,230.86a29.15,29.15,0,0,0-14-3.71c-.43.11-.86.24-1.28.39,18.14,2.41,2.74,9.9,9.85,11.94,1.42,3.12-.92,3.39-3.1,3.26-4.16-.25-2.23-.58-2,1.68.36,3-6.34,1.94-9-1l1.16,3.21q2,1.46,4.17,2.79a7.41,7.41,0,0,0,3.08,1.29,2.7,2.7,0,0,0,2.8-1.43c1.22,1.12,3.82.28,4.73-1.11a7,7,0,0,0,.66-4.84,6.29,6.29,0,0,1,0-2.59,12.74,12.74,0,0,1,1.67-2.64c.53-.89.64-2.27-.26-2.8C106.86,234.44,107.26,232.49,106.89,230.86Z"/><path class="cls-21" d="M101.24,248a30.45,30.45,0,0,1-6-.95c-4.16-1.24-7.57-4.16-10.84-7l1,4.1a76.44,76.44,0,0,0,7.41,5.26,7.41,7.41,0,0,0,3.08,1.29,2.7,2.7,0,0,0,2.8-1.43c.94.86,2.69.56,3.87-.26a.81.81,0,0,0-.18-.59A1.58,1.58,0,0,0,101.24,248Z"/><path class="cls-21" d="M87,232.08c.09-1.81-1.18-3.51-.92-5.3.39-2.74,1.45-3-.46-4.94a15.92,15.92,0,0,0-4.81-3.13,11.8,11.8,0,0,0-5.23-.85c-2.81,3.16-.73,3.49-.18,6.95,1.53,4.17,1.07,8.72,4,12.08a7.34,7.34,0,0,0,.61.64c.49-.11,1-.24,1.46-.39a11.32,11.32,0,0,0,3.62-1.69A4.73,4.73,0,0,0,87,232.08Z"/><path class="cls-6" d="M68,239.91a2.37,2.37,0,0,0-2-1.1,17.45,17.45,0,0,1-2.4-.08,3.39,3.39,0,0,1-1.8-5.65,8.48,8.48,0,0,1-.4-7.62,7.5,7.5,0,0,1,5.75-4.23,4.24,4.24,0,0,1,2.3-3.14,3.28,3.28,0,0,1,3.35.5c1.34-.85,3.26-.53,4.73.08s2.77,1.55,4.26,2.12a11.34,11.34,0,0,1,3,1.25,2.17,2.17,0,0,1,.77,2.81,16,16,0,0,1,.3,5.73,31,31,0,0,1-2.25,8.34c-.62,1.66-3.38,1.5-5.16,1.4C74.69,240.11,71.66,240.12,68,239.91Z"/><path class="cls-19" d="M70.2,217.87a3.29,3.29,0,0,1,2.56.72c1.34-.84,3.26-.53,4.73.08,1,.43,2,1,3,1.53a73.69,73.69,0,0,0-12.58-.81l2.33-1.52ZM84.7,222a2.38,2.38,0,0,1,1,2.43,7.23,7.23,0,0,0-1-2.43Zm1.07,8.54a31,31,0,0,1-2.25,8.34c-.62,1.66-3.38,1.5-5.16,1.4-1-.06-2-.1-3-.14a5.39,5.39,0,0,0-1.85-1.64s-6.21-2-6.55-3.84,6.83,2,8.92,1-6.55-4.79-6.4-6.16,4.26,1.9,6.16,2.13-.45-5.69-.28-6.07,4,.07,5,3.8S85.77,230.58,85.77,230.58Z"/><path class="cls-21" d="M83.25,239.38a1.32,1.32,0,0,0-.52-.6,3.35,3.35,0,0,0-1.57-.32q-6.64-.22-13.29-.21a18.21,18.21,0,0,1-4.49-.36,6.73,6.73,0,0,1-2.16-.94,3.45,3.45,0,0,0,2.34,1.78,17.45,17.45,0,0,0,2.4.08,2.37,2.37,0,0,1,2,1.1c3.67.21,6.7.2,10.37.41C80,240.41,82.33,240.55,83.25,239.38Z"/><path class="cls-18" d="M73.28,259.25a1.41,1.41,0,0,1-1.66.1,4.26,4.26,0,0,1-1.23-1.27l-4.27-5.91a6.43,6.43,0,0,1-1.29-2.45,2.22,2.22,0,0,1,1-2.41c0-2.48.15-5.78,2.13-7.28,2.22-1.68,5.32-1.34,8.08-.91l6,.93c-.38.28-.16,1,.21,1.3a3,3,0,0,0,1.33.43c3.69.7,6.23,4,8.43,7,.88,1.23,1.79,2.84,1,4.15-.37.63-1.06,1-1.5,1.6s-.48,1.63.21,1.88a3.36,3.36,0,0,1-1.4,1.87,2.31,2.31,0,0,1-.5,2.27,2,2,0,0,1-2.08.57c-1.06-.35-1.74-1.59-2.86-1.64S83,260.58,82,261c-1.45.65-3.1-.17-4.47-1S74.41,258.13,73.28,259.25Z"/><path class="cls-6" d="M83.57,241.78a3,3,0,0,1-1.33-.43c-.37-.29-.59-1-.21-1.3l-6-.93a27.54,27.54,0,0,0-2.91-.33,16.61,16.61,0,0,0-2.78,1c-1.09.53-2.25,1.4-2.25,2.62a5.34,5.34,0,0,0,1.15,2.49,20.57,20.57,0,0,1,1.31,3.38,28.56,28.56,0,0,0,2.67,5.07c.5.81,1.17,1.72,2.13,1.71,1.32,0,2-1.79,3.29-2.05s2.24.94,2.87,2,1.41,2.35,2.66,2.41,2.22-1,3.33-.71c.47.13.9.5,1.39.44.74-.1,1-1.1.78-1.82a8.06,8.06,0,0,1-.7-2.13c0-1.55,1.87-2.5,2.15-4,.25-1.35-.8-2.44-1.59-3.63A10.8,10.8,0,0,0,83.57,241.78Z"/><path class="cls-19" d="M83.57,241.78a3,3,0,0,1-1.33-.43c-.37-.29-.59-1-.21-1.3l-6-.93c-.63-.1-1.28-.19-1.93-.26a9.89,9.89,0,0,1,2,2.19c1.5,2.13-2,7.21-.47,8.39s2.51-5.69,4.22-5.07,1.7,5.64,3.74,7.21.19-4.37,2.14-6.41c.82-.86,2.19-.56,3.49.08A10.53,10.53,0,0,0,83.57,241.78Z"/><path class="cls-8" d="M85.87,237.76c-.14-1.23-2.11-1.79-3.07-1a1.36,1.36,0,1,0-2.4.74c-.55-.15-1,.53-.93,1.09s1.47,1,1.9,1.36a1.39,1.39,0,0,0-.8,1.82,1.41,1.41,0,0,0,1.42.76,1.41,1.41,0,0,0,.7.77,1.65,1.65,0,0,0,1.86-.18,1.52,1.52,0,0,0,.49-1.26,5,5,0,0,0,2.32-1.76A1.86,1.86,0,0,0,85.87,237.76Z"/><path class="cls-9" d="M82.93,238.92l-.21.17a.49.49,0,0,0,.69.69,1.57,1.57,0,0,0,.17-.21A.46.46,0,0,0,82.93,238.92Z"/><path class="cls-9" d="M84.44,236a.87.87,0,0,0,0,1.73A.87.87,0,0,0,84.44,236Z"/><path class="cls-9" d="M85.62,239.28a.68.68,0,0,0,0,1.35A.68.68,0,0,0,85.62,239.28Z"/><path class="cls-9" d="M87.52,236a.61.61,0,0,0,0,1.22A.61.61,0,0,0,87.52,236Z"/><path class="cls-9" d="M81.36,237.23a.59.59,0,0,0,0,1.18A.59.59,0,0,0,81.36,237.23Z"/><path class="cls-9" d="M82.75,241.14a.71.71,0,0,0-.68-.68.69.69,0,0,0-.67.68,1.09,1.09,0,0,0,0,.18.68.68,0,0,0,.68.68.69.69,0,0,0,.69-.68C82.76,241.26,82.75,241.2,82.75,241.14Z"/><path class="cls-18" d="M85.47,224.85A2.18,2.18,0,0,0,84.7,222a11.34,11.34,0,0,0-3-1.25c-1.49-.57-2.8-1.51-4.26-2.12s-3.39-.93-4.73-.08a3.28,3.28,0,0,0-3.35-.5,4.24,4.24,0,0,0-2.3,3.14,7.5,7.5,0,0,0-5.75,4.23,8.48,8.48,0,0,0,.4,7.62,3.37,3.37,0,0,0,1.42,5.54c-1.91-1.94-1.14-2.48.34-3,2.76-.93,2.24-.28,1.27-1.78-.8-1.22-1.05-2.89.37-3.21,2.45-.57,1.82-1.37.36-2.63a1.69,1.69,0,0,1-.18-2.31c3-1.92,5.69.64,7-2.25.85-1.94,1.89-2.54,4.23-2.33a4.45,4.45,0,0,1,3,1.86c1.43,3.2,1.62-.43,3.76.18a2.78,2.78,0,0,1,1.46,1,6.94,6.94,0,0,1,1,3.71l.15-.07A11.12,11.12,0,0,0,85.47,224.85Z"/><path class="cls-16" d="M105.86,239.18c-.57-3.56-2.7-3.88.22-7.15,1.83-2.05,4.52-5.39,7.64-4.72a14.46,14.46,0,0,1,2.54,1.08,2.88,2.88,0,0,0,2.65,0,31.15,31.15,0,0,0,7.77,1.8c2.45,2.63,2.41,8,.65,11.12s-4.73,5.37-7.61,7.51l-4.41,3.28a4.55,4.55,0,0,1-2.43,1.13,4,4,0,0,1-2.95-1.73C107,248.09,107.43,243.44,105.86,239.18Z"/><path class="cls-15" d="M104.84,233.77a7.76,7.76,0,0,1,1.24-1.74l1.08-1.21a3,3,0,0,0,1.34.62c2.38.49,10.92,2.43,11.5,6.16s-1.26,4.12.63,6.11,0,2.49-.91,5.14l-4.41,3.28a4.55,4.55,0,0,1-2.43,1.13,4,4,0,0,1-2.95-1.73c-2.81-3.25-2.54-7.59-3.83-11.65a5.14,5.14,0,0,1,4.83,4c1,3.81,5.54,1.22,5.54,1.22s.92-5.68-1.1-8.74C114.26,234.67,109.2,234,104.84,233.77Z"/><path class="cls-18" d="M118.91,228.42a2.88,2.88,0,0,1-2.65,0,14.46,14.46,0,0,0-2.54-1.08c-2.1-.45-4,.91-5.58,2.48,1.64-.82,3.42-1.8,3.51-.67.22,2.74.12-.9,2.63-.41a4.24,4.24,0,0,1,1.94,1.35c2,1.93,2.19.79,4,.42,1.4-.29,2.61.91,3.53,2s1.23,3.21,1.6,4.41c.28.92.82,1.55,1.51.64,1.24-1.62.27,2.59.25,4.18.08-.12.16-.25.23-.38,1.76-3.14,1.8-8.49-.65-11.12A31.15,31.15,0,0,1,118.91,228.42Z"/><path class="cls-16" d="M112.27,255.68a78,78,0,0,0,11.37,8.62,7.43,7.43,0,0,0,3.15,1.32,2.74,2.74,0,0,0,2.86-1.46c1.25,1.15,3.91.29,4.84-1.14a7.1,7.1,0,0,0,.67-4.94,6.41,6.41,0,0,1,0-2.65,13.06,13.06,0,0,1,1.71-2.7c.55-.91.66-2.32-.27-2.86,1.49-.85,1.9-2.83,1.52-4.5a29.73,29.73,0,0,0-14.27-3.8,13.46,13.46,0,0,0-8.91,7C113.77,251,114,253.57,112.27,255.68Z"/><path class="cls-15" d="M112.27,255.68c1.5,1.37,3.06,2.68,4.66,3.93,2.24-.95,6.51,2.87,6.51,2.87a17,17,0,0,0-2.66-3.18c-2.08-2.12-1.12-4.78-.34-6.23s7.75.54,5.81-2.13-7.43.56-6.53-2.09,2.8-3.15.91-5.14a4.47,4.47,0,0,1-.53-.65,12.54,12.54,0,0,0-5.21,5.47C113.77,251,114,253.57,112.27,255.68Z"/><path class="cls-18" d="M138.07,245.37a29.76,29.76,0,0,0-14.27-3.8,12.33,12.33,0,0,0-1.31.4c18.55,2.47,2.8,10.12,10.08,12.21,1.45,3.19-.95,3.47-3.18,3.33-4.25-.25-2.28-.59-2,1.73.37,3.1-6.49,2-9.2-1.06l1.2,3.27c1.39,1,2.81,1.95,4.26,2.85a7.43,7.43,0,0,0,3.15,1.32,2.74,2.74,0,0,0,2.86-1.46c1.25,1.15,3.91.29,4.84-1.14a7.1,7.1,0,0,0,.67-4.94,6.41,6.41,0,0,1,0-2.65,13.06,13.06,0,0,1,1.71-2.7c.55-.91.66-2.32-.27-2.86C138,249,138.45,247,138.07,245.37Z"/><path class="cls-17" d="M132.29,262.87a31.23,31.23,0,0,1-6.16-1c-4.25-1.27-7.74-4.27-11.08-7.18l1,4.19a75.37,75.37,0,0,0,7.58,5.38,7.43,7.43,0,0,0,3.15,1.32,2.74,2.74,0,0,0,2.86-1.46c1,.89,2.75.58,4-.26a.87.87,0,0,0-.18-.6A1.59,1.59,0,0,0,132.29,262.87Z"/><path class="cls-17" d="M117.73,246.61c.08-1.84-1.21-3.59-1-5.41.41-2.81,1.48-3.07-.47-5.06a16.14,16.14,0,0,0-4.92-3.2,11.89,11.89,0,0,0-5.34-.87c-2.87,3.23-.75,3.56-.19,7.11,1.57,4.26,1.1,8.91,4.07,12.35a7.75,7.75,0,0,0,.63.66c.5-.11,1-.25,1.49-.4a11.73,11.73,0,0,0,3.7-1.73A4.83,4.83,0,0,0,117.73,246.61Z"/><path class="cls-16" d="M98.28,254.62a2.41,2.41,0,0,0-2.07-1.12,20.16,20.16,0,0,1-2.46-.09,3.47,3.47,0,0,1-1.84-5.78,8.68,8.68,0,0,1-.41-7.79,7.65,7.65,0,0,1,5.88-4.32,4.32,4.32,0,0,1,2.35-3.21,3.34,3.34,0,0,1,3.43.51c1.37-.87,3.33-.54,4.83.08s2.85,1.58,4.36,2.16a12.09,12.09,0,0,1,3,1.28,2.23,2.23,0,0,1,.79,2.87,16.52,16.52,0,0,1,.31,5.87,31.56,31.56,0,0,1-2.31,8.53c-.63,1.7-3.45,1.53-5.27,1.43C105.14,254.83,102,254.83,98.28,254.62Z"/><path class="cls-15" d="M100.54,232.08a3.35,3.35,0,0,1,2.62.74c1.37-.87,3.33-.54,4.83.08,1.06.43,2,1,3,1.56a75.76,75.76,0,0,0-12.87-.83l2.38-1.55Zm14.83,4.26a2.43,2.43,0,0,1,1,2.49,7.51,7.51,0,0,0-1-2.49Zm1.1,8.74a31.56,31.56,0,0,1-2.31,8.53c-.63,1.7-3.45,1.53-5.27,1.43-1.06-.06-2.06-.1-3-.14a5.33,5.33,0,0,0-1.9-1.68s-6.35-2.09-6.69-3.93,7,2,9.12,1-6.69-4.9-6.55-6.31,4.37,1.94,6.31,2.19-.46-5.83-.29-6.21,4.1.06,5.09,3.88S116.47,245.08,116.47,245.08Z"/><path class="cls-17" d="M113.89,254.08a1.33,1.33,0,0,0-.54-.61,3.34,3.34,0,0,0-1.6-.33q-6.8-.24-13.59-.22a18.18,18.18,0,0,1-4.6-.36,7.16,7.16,0,0,1-2.21-1,3.55,3.55,0,0,0,2.4,1.82,20.16,20.16,0,0,0,2.46.09,2.41,2.41,0,0,1,2.07,1.12c3.75.21,6.86.21,10.61.42C110.52,255.13,112.94,255.27,113.89,254.08Z"/><path class="cls-18" d="M103.7,274.4a1.45,1.45,0,0,1-1.7.11,4.23,4.23,0,0,1-1.26-1.3l-4.38-6a6.83,6.83,0,0,1-1.31-2.5,2.28,2.28,0,0,1,1-2.47c0-2.54.16-5.92,2.18-7.44,2.27-1.73,5.45-1.37,8.27-.94l6.17.95c-.39.29-.16,1,.22,1.33a3,3,0,0,0,1.35.45c3.78.71,6.38,4.07,8.62,7.2.91,1.25,1.84,2.9,1.06,4.24-.38.65-1.08,1-1.53,1.64s-.49,1.66.21,1.91a3.34,3.34,0,0,1-1.43,1.92,2.37,2.37,0,0,1-.51,2.32,2,2,0,0,1-2.12.59c-1.09-.36-1.79-1.63-2.93-1.69s-1.92,1.09-3,1.55c-1.48.67-3.17-.17-4.57-1S104.85,273.26,103.7,274.4Z"/><path class="cls-16" d="M114.21,256.54a3,3,0,0,1-1.35-.45c-.38-.3-.61-1-.22-1.33l-6.17-.95a29.2,29.2,0,0,0-3-.33,16.15,16.15,0,0,0-2.84,1.05c-1.12.54-2.3,1.43-2.3,2.68a5.45,5.45,0,0,0,1.17,2.54,21,21,0,0,1,1.33,3.46,29.6,29.6,0,0,0,2.74,5.19c.51.83,1.2,1.76,2.17,1.75,1.36,0,2-1.83,3.38-2.1s2.28,1,2.93,2.07,1.44,2.4,2.72,2.46,2.27-1,3.41-.72c.48.13.92.5,1.41.44.77-.09,1-1.12.8-1.86a8.82,8.82,0,0,1-.71-2.18c0-1.58,1.91-2.55,2.2-4.1.25-1.38-.82-2.5-1.63-3.71A11,11,0,0,0,114.21,256.54Z"/><path class="cls-15" d="M114.21,256.53a2.88,2.88,0,0,1-1.35-.44c-.38-.3-.61-1-.22-1.33l-6.17-.95c-.65-.1-1.31-.19-2-.26a9.88,9.88,0,0,1,2,2.24c1.53,2.18-2,7.37-.49,8.58s2.57-5.82,4.32-5.19,1.74,5.77,3.83,7.37.19-4.46,2.18-6.54c.84-.89,2.24-.58,3.57.07A10.72,10.72,0,0,0,114.21,256.53Z"/><path class="cls-2" d="M116.57,252.42c-.14-1.25-2.16-1.83-3.14-1a1.39,1.39,0,1,0-2.46.75c-.56-.15-1,.55-.94,1.12s1.5,1,1.93,1.39a1.36,1.36,0,0,0,.64,2.64,1.48,1.48,0,0,0,.72.79,1.68,1.68,0,0,0,1.89-.18,1.56,1.56,0,0,0,.51-1.3,5.1,5.1,0,0,0,2.38-1.79A1.91,1.91,0,0,0,116.57,252.42Z"/><path class="cls-3" d="M113.56,253.6l-.21.18a.5.5,0,0,0,.7.7,1.81,1.81,0,0,0,.18-.21A.47.47,0,0,0,113.56,253.6Z"/><path class="cls-3" d="M115.11,250.64a.88.88,0,0,0,0,1.76A.88.88,0,0,0,115.11,250.64Z"/><path class="cls-3" d="M116.32,254a.69.69,0,0,0,0,1.37A.69.69,0,0,0,116.32,254Z"/><path class="cls-3" d="M118.26,250.65a.63.63,0,0,0,0,1.25A.63.63,0,0,0,118.26,250.65Z"/><path class="cls-3" d="M112,251.88a.61.61,0,0,0,0,1.21A.61.61,0,0,0,112,251.88Z"/><path class="cls-3" d="M113.38,255.88a.7.7,0,0,0-.69-.69.69.69,0,0,0-.69.69c0,.06,0,.12,0,.18a.7.7,0,0,0,.71.7.72.72,0,0,0,.7-.7A1.09,1.09,0,0,1,113.38,255.88Z"/><path class="cls-18" d="M116.16,239.21a2.23,2.23,0,0,0-.79-2.87,12.09,12.09,0,0,0-3-1.28c-1.51-.58-2.86-1.54-4.36-2.16s-3.46-1-4.83-.08a3.34,3.34,0,0,0-3.43-.51,4.32,4.32,0,0,0-2.35,3.21,7.65,7.65,0,0,0-5.88,4.32,8.68,8.68,0,0,0,.41,7.79,3.46,3.46,0,0,0,1.45,5.67c-2-2-1.16-2.53.35-3,2.82-.95,2.29-.28,1.3-1.81-.82-1.26-1.07-3,.37-3.29,2.52-.58,1.87-1.4.38-2.69a1.72,1.72,0,0,1-.19-2.36c3-2,5.83.65,7.12-2.3.87-2,1.94-2.6,4.32-2.38a4.46,4.46,0,0,1,3,1.89c1.46,3.28,1.66-.44,3.85.19a2.9,2.9,0,0,1,1.49,1,7.15,7.15,0,0,1,1,3.79.51.51,0,0,0,.15-.07A11.24,11.24,0,0,0,116.16,239.21Z"/><path class="cls-22" d="M80.3,76.4c2.32-2.54,6.62-5.19,15.26-2.94,0,0-4.32,11.73-14.06,8.06C79,80.59,77.67,79.28,80.3,76.4Z"/><path class="cls-23" d="M80.3,76.4c2.32-2.54,6.62-5.19,15.26-2.94,0,0-7.18-.91-11.39,1.48s-4.09,5.27-3.6,6.18C78.73,80.21,78,78.89,80.3,76.4Z"/><path class="cls-24" d="M94.22,74.81S91.4,79.4,87.9,80.62s-5.77.78-5.59,0,1.93-1.09,3.57-1.07A9.82,9.82,0,0,0,92,76.59C93.28,75,94.87,73.39,94.22,74.81Z"/><path class="cls-22" d="M79.05,65.9c1.06-3.27,3.88-7.47,12.67-9,0,0,.92,12.47-9.46,13.16C79.62,70.24,77.84,69.61,79.05,65.9Z"/><path class="cls-23" d="M79.05,65.9c1.06-3.27,3.88-7.47,12.67-9,0,0-6.91,2.15-9.75,6.07s-1.55,6.49-.72,7.12C79.2,70,78,69.11,79.05,65.9Z"/><path class="cls-24" d="M91.05,58.69s-.66,5.34-3.34,7.9-4.93,3.1-5.11,2.28,1.31-1.79,2.81-2.45a9.79,9.79,0,0,0,4.32-5.18C90.28,59.24,91.06,57.13,91.05,58.69Z"/><path class="cls-22" d="M53.73,51.61c3.26-1.09,7.44-3.93,8.91-12.74,0,0-12.47-.83-13.1,9.55C49.38,51.07,50,52.84,53.73,51.61Z"/><path class="cls-23" d="M53.73,51.61c3.26-1.09,7.44-3.93,8.91-12.74,0,0-2.1,6.93-6,9.8s-6.48,1.59-7.11.77C49.61,51.49,50.53,52.68,53.73,51.61Z"/><path class="cls-24" d="M60.85,39.55s-5.34.7-7.88,3.4-3.06,4.95-2.24,5.12,1.78-1.32,2.43-2.82a9.83,9.83,0,0,1,5.15-4.36C60.31,40.33,62.41,39.54,60.85,39.55Z"/><path class="cls-22" d="M37.16,53.46c-3.26-1.08-7.44-3.93-8.9-12.74,0,0,12.47-.83,13.09,9.56C41.51,52.92,40.86,54.69,37.16,53.46Z"/><path class="cls-23" d="M37.16,53.46c-3.26-1.08-7.44-3.93-8.9-12.74,0,0,2.09,6.93,6,9.8s6.47,1.6,7.1.77C41.28,53.34,40.37,54.53,37.16,53.46Z"/><path class="cls-24" d="M30,41.41s5.34.69,7.88,3.4,3.06,4.94,2.24,5.12-1.78-1.32-2.43-2.83a9.77,9.77,0,0,0-5.15-4.35C30.58,42.18,28.48,41.39,30,41.41Z"/><path class="cls-22" d="M111.38,18.66c-2.55-2.31-5.22-6.59-3-15.25,0,0,11.75,4.26,8.14,14C115.58,19.91,114.27,21.28,111.38,18.66Z"/><path class="cls-23" d="M111.38,18.66c-2.55-2.31-5.22-6.59-3-15.25,0,0-.87,7.19,1.55,11.39s5.28,4.06,6.2,3.56C115.2,20.21,113.89,20.92,111.38,18.66Z"/><path class="cls-24" d="M109.72,4.75s4.6,2.79,5.84,6.29.81,5.76,0,5.59-1.1-1.92-1.09-3.57a9.7,9.7,0,0,0-3-6.05C109.9,5.69,108.29,4.11,109.72,4.75Z"/><path class="cls-22" d="M128.09,23.6c3.07,1.53,8,2.48,15.3-2.71,0,0-8.22-9.41-16-2.51C125.4,20.14,124.6,21.85,128.09,23.6Z"/><path class="cls-23" d="M128.09,23.6c3.07,1.53,8,2.48,15.3-2.71,0,0-6.38,3.41-11.17,2.68s-5.7-3.45-5.57-4.48C125.26,20.6,125.07,22.08,128.09,23.6Z"/><path class="cls-24" d="M141.65,20.11s-4.27-3.28-8-3.17-5.67,1.34-5.21,2,2.19.32,3.72-.28a9.76,9.76,0,0,1,6.72.56C140.72,20.28,142.77,21.2,141.65,20.11Z"/><path class="cls-22" d="M119.77,52.1c0,3.44,1.32,8.31,9.19,12.54,0,0,4.81-11.53-4.82-15.48C121.69,48.16,119.8,48.2,119.77,52.1Z"/><path class="cls-23" d="M119.77,52.1c0,3.44,1.32,8.31,9.19,12.54,0,0-5.88-4.22-7.34-8.84s.58-6.65,1.57-7C121.22,48.24,119.8,48.72,119.77,52.1Z"/><path class="cls-24" d="M128.89,62.73s1.06-5.28-.68-8.56-3.7-4.49-4.12-3.77.67,2.11,1.89,3.21a9.86,9.86,0,0,1,2.46,6.28C128.32,62,128.4,64.21,128.89,62.73Z"/><path class="cls-22" d="M148.57,41.06c0,3.44,1.32,8.31,9.18,12.54,0,0,4.82-11.53-4.81-15.48C150.49,37.12,148.6,37.16,148.57,41.06Z"/><path class="cls-23" d="M148.57,41.06c0,3.44,1.32,8.31,9.18,12.54,0,0-5.88-4.22-7.33-8.84s.58-6.65,1.57-7C150,37.2,148.6,37.68,148.57,41.06Z"/><path class="cls-24" d="M157.69,51.69s1.06-5.28-.68-8.56-3.7-4.49-4.12-3.77.67,2.11,1.89,3.21a9.86,9.86,0,0,1,2.46,6.28C157.13,50.93,157.2,53.17,157.69,51.69Z"/><path class="cls-22" d="M173.5,20.8c2.23,2.61,6.44,5.4,15.15,3.44,0,0-3.93-11.86-13.79-8.52C172.35,16.57,171,17.84,173.5,20.8Z"/><path class="cls-23" d="M173.5,20.8c2.23,2.61,6.44,5.4,15.15,3.44,0,0-7.2.67-11.33-1.86s-3.93-5.39-3.4-6.29C172.05,16.94,171.3,18.24,173.5,20.8Z"/><path class="cls-24" d="M187.35,22.84s-2.66-4.68-6.12-6-5.74-1-5.59-.14,1.89,1.15,3.53,1.18a9.81,9.81,0,0,1,6,3.13C186.42,22.63,188,24.28,187.35,22.84Z"/><path class="cls-22" d="M166.06,9.59c3.4.47,8.41-.23,13.62-7.48,0,0-10.81-6.26-16,2.77C162.4,7.18,162.2,9.06,166.06,9.59Z"/><path class="cls-23" d="M166.06,9.59c3.4.47,8.41-.23,13.62-7.48,0,0-4.94,5.29-9.71,6.13s-6.52-1.44-6.72-2.46C162.42,7.66,162.71,9.13,166.06,9.59Z"/><path class="cls-24" d="M177.78,1.94S172.69.2,169.21,1.5s-4.93,3.08-4.27,3.59,2.18-.39,3.43-1.45A9.76,9.76,0,0,1,174.91,2C177,2.39,179.19,2.61,177.78,1.94Z"/><path class="cls-22" d="M185.87,60.53c-.62,3.38-.16,8.41,6.84,14,0,0,6.76-10.51-2-16.08C188.46,57,186.59,56.69,185.87,60.53Z"/><path class="cls-23" d="M185.88,60.53c-.63,3.38-.17,8.41,6.83,14,0,0-5.05-5.19-5.67-10s1.74-6.44,2.77-6.6C188,57,186.49,57.21,185.88,60.53Z"/><path class="cls-24" d="M193,72.6s2-5,.84-8.54S191,59,190.42,59.62s.29,2.19,1.3,3.49A9.79,9.79,0,0,1,193,69.72C192.56,71.75,192.23,74,193,72.6Z"/><path class="cls-22" d="M177.08,57.23c-2.61,2.24-5.41,6.45-3.44,15.16,0,0,11.86-3.93,8.52-13.79C181.31,56.09,180,54.69,177.08,57.23Z"/><path class="cls-23" d="M177.08,57.23c-2.61,2.24-5.41,6.45-3.44,15.16,0,0-.67-7.21,1.86-11.34s5.39-3.92,6.29-3.39C180.94,55.79,179.64,55,177.08,57.23Z"/><path class="cls-24" d="M175,71.08s4.68-2.66,6-6.12,1-5.73.14-5.58S180,61.27,180,62.91a9.74,9.74,0,0,1-3.12,6C175.24,70.16,173.59,71.69,175,71.08Z"/><path class="cls-22" d="M212.08,82.49c-2.61,2.24-5.4,6.45-3.44,15.16,0,0,11.86-3.93,8.52-13.79C216.31,81.35,215,80,212.08,82.49Z"/><path class="cls-23" d="M212.08,82.49c-2.61,2.24-5.4,6.45-3.44,15.16,0,0-.67-7.2,1.86-11.34s5.39-3.92,6.29-3.39C215.94,81.05,214.64,80.3,212.08,82.49Z"/><path class="cls-24" d="M210,96.35s4.68-2.66,6-6.13,1-5.73.14-5.58S215,86.53,215,88.17a9.86,9.86,0,0,1-3.13,6C210.24,95.42,208.59,97,210,96.35Z"/><path class="cls-22" d="M225.72,85.56c3.27,1.07,7.45,3.91,8.94,12.71,0,0-12.47.87-13.12-9.52C221.38,86.11,222,84.33,225.72,85.56Z"/><path class="cls-23" d="M225.72,85.56c3.27,1.07,7.45,3.91,8.94,12.71,0,0-2.11-6.92-6-9.78s-6.48-1.58-7.12-.75C221.6,85.69,222.52,84.5,225.72,85.56Z"/><path class="cls-24" d="M232.88,97.6s-5.34-.69-7.89-3.39-3.07-4.93-2.25-5.11,1.78,1.31,2.43,2.82a9.82,9.82,0,0,0,5.16,4.34C232.33,96.82,234.44,97.61,232.88,97.6Z"/><path class="cls-22" d="M244.5,74.27c.12,3.44,1.67,8.25,9.7,12.15,0,0,4.33-11.72-5.46-15.26C246.25,70.26,244.37,70.38,244.5,74.27Z"/><path class="cls-23" d="M244.5,74.27c.12,3.44,1.67,8.25,9.7,12.15,0,0-6-4-7.7-8.53s.31-6.66,1.28-7C245.79,70.36,244.39,70.9,244.5,74.27Z"/><path class="cls-24" d="M254.05,84.52s.84-5.32-1-8.52-3.88-4.34-4.28-3.6.76,2.08,2,3.13a9.77,9.77,0,0,1,2.71,6.17C253.46,83.78,253.63,86,254.05,84.52Z"/><path class="cls-22" d="M245.54,58.63c1-3.3,3.67-7.57,12.42-9.34,0,0,1.27,12.43-9.09,13.42C246.23,63,244.44,62.37,245.54,58.63Z"/><path class="cls-23" d="M245.54,58.63c1-3.3,3.67-7.57,12.42-9.34,0,0-6.85,2.33-9.58,6.34s-1.37,6.52-.52,7.13C245.8,62.74,244.59,61.87,245.54,58.63Z"/><path class="cls-24" d="M257.34,51.09s-.51,5.36-3.12,8-4.84,3.23-5,2.41,1.25-1.82,2.74-2.52a9.83,9.83,0,0,0,4.17-5.3C256.58,51.66,257.3,49.53,257.34,51.09Z"/><path class="cls-22" d="M178.87,260.89c.76,3.36.48,8.4-6.3,14.21,0,0-7.16-10.24,1.41-16.14C176.16,257.45,178,257.09,178.87,260.89Z"/><path class="cls-23" d="M178.87,260.89c.76,3.36.48,8.4-6.3,14.21,0,0,4.85-5.37,5.28-10.2s-2-6.36-3-6.48C176.64,257.43,178.13,257.6,178.87,260.89Z"/><path class="cls-24" d="M172.23,273.22s-2.16-4.93-1.16-8.5,2.65-5.17,3.22-4.56-.2,2.2-1.16,3.54a9.82,9.82,0,0,0-1.06,6.66C172.62,272.36,173,274.57,172.23,273.22Z"/><path class="cls-22" d="M152.27,273.55c1.79,2.93,3.16,7.79-1.38,15.48,0,0-10.08-7.38-3.88-15.74C148.59,271.17,150.22,270.22,152.27,273.55Z"/><path class="cls-23" d="M152.27,273.55c1.79,2.93,3.16,7.79-1.38,15.48,0,0,2.85-6.65,1.71-11.36s-3.93-5.39-4.95-5.16C149,271,150.5,270.67,152.27,273.55Z"/><path class="cls-24" d="M150,287.36s-3.63-4-3.84-7.67.84-5.76,1.58-5.36.51,2.15,0,3.72a9.76,9.76,0,0,0,1.14,6.65C150.05,286.42,151.15,288.38,150,287.36Z"/><path class="cls-22" d="M143.74,265.31c-3.23-1.18-8.27-1.56-14.91,4.41,0,0,9.24,8.42,16.2.69C146.8,268.44,147.4,266.65,143.74,265.31Z"/><path class="cls-23" d="M143.74,265.31c-3.23-1.18-8.27-1.56-14.91,4.41,0,0,6-4.11,10.8-3.92s6.06,2.79,6,3.83C146.88,268,146.9,266.47,143.74,265.31Z"/><path class="cls-24" d="M130.65,270.3s4.61,2.78,8.28,2.25,5.48-2,4.94-2.61-2.21-.08-3.65.7a9.82,9.82,0,0,1-6.75.19C131.56,270,129.42,269.34,130.65,270.3Z"/><path class="cls-22" d="M127.49,228.65c-3.43.26-8.38-.75-13.14-8.31,0,0,11.18-5.59,15.77,3.75C131.29,226.47,131.38,228.35,127.49,228.65Z"/><path class="cls-23" d="M127.49,228.65c-3.43.26-8.38-.75-13.14-8.31,0,0,4.61,5.58,9.32,6.72s6.59-1,6.86-2C131.24,227,130.86,228.39,127.49,228.65Z"/><path class="cls-24" d="M116.26,220.28s5.19-1.42,8.58.09,4.74,3.38,4,3.86-2.15-.53-3.33-1.67a9.78,9.78,0,0,0-6.44-2C117.06,220.79,114.82,220.87,116.26,220.28Z"/><path class="cls-22" d="M143.33,229.81c2.75-2.08,5.79-6.11,4.36-14.92,0,0-12.08,3.2-9.34,13.24C139,230.69,140.22,232.16,143.33,229.81Z"/><path class="cls-23" d="M143.33,229.81c2.75-2.08,5.79-6.11,4.36-14.92,0,0,.23,7.23-2.55,11.2s-5.62,3.58-6.48,3C139.39,231,140.64,231.84,143.33,229.81Z"/><path class="cls-24" d="M146.22,216.1s-4.84,2.37-6.38,5.75-1.31,5.67-.48,5.57,1.26-1.82,1.4-3.46a9.74,9.74,0,0,1,3.48-5.77C146,217,147.69,215.59,146.22,216.1Z"/><path class="cls-22" d="M165.69,236.38c-1.48-3.1-4.81-6.9-13.73-7.27,0,0,.7,12.47,11.09,11.82C165.69,240.76,167.37,239.9,165.69,236.38Z"/><path class="cls-23" d="M165.69,236.38c-1.48-3.1-4.81-6.9-13.73-7.27,0,0,7.13,1.23,10.46,4.75s2.38,6.23,1.63,7C166.08,240.48,167.14,239.43,165.69,236.38Z"/><path class="cls-24" d="M152.85,230.79s1.35,5.22,4.35,7.41,5.28,2.42,5.35,1.59-1.53-1.6-3.1-2.06a9.75,9.75,0,0,1-4.95-4.58C153.69,231.24,152.65,229.25,152.85,230.79Z"/><path class="cls-22" d="M73.61,205.39c3.43,0,8.31-1.31,12.55-9.16,0,0-11.53-4.83-15.48,4.79C69.67,203.47,69.71,205.36,73.61,205.39Z"/><path class="cls-23" d="M73.61,205.39c3.43,0,8.31-1.31,12.55-9.16,0,0-4.23,5.87-8.85,7.32s-6.64-.59-7-1.57C69.75,203.94,70.23,205.36,73.61,205.39Z"/><path class="cls-24" d="M84.25,196.3S79,195.23,75.7,197s-4.5,3.69-3.78,4.12,2.11-.67,3.21-1.89a9.85,9.85,0,0,1,6.28-2.45C83.49,196.86,85.73,196.79,84.25,196.3Z"/><path class="cls-22" d="M59.88,205.21c-3.31-.93-7.62-3.57-9.52-12.29,0,0,12.41-1.44,13.54,8.9C64.19,204.45,63.64,206.25,59.88,205.21Z"/><path class="cls-23" d="M59.88,205.21c-3.31-.93-7.62-3.57-9.52-12.29,0,0,2.43,6.82,6.47,9.49s6.55,1.28,7.14.42C64,204.88,63.13,206.11,59.88,205.21Z"/><path class="cls-24" d="M52.17,193.51s5.37.44,8,3,3.3,4.79,2.49,5-1.84-1.23-2.57-2.71a9.77,9.77,0,0,0-5.35-4.09C52.75,194.26,50.61,193.58,52.17,193.51Z"/><path class="cls-22" d="M47.73,189.4c2.19-2.65,4.23-7.28.82-15.52,0,0-11,5.89-6.06,15C43.75,191.24,45.24,192.4,47.73,189.4Z"/><path class="cls-23" d="M47.73,189.4c2.19-2.65,4.23-7.28.82-15.52,0,0,1.88,7,.09,11.48S44,190.14,43,189.78C44.17,191.47,45.58,192,47.73,189.4Z"/><path class="cls-24" d="M47.39,175.4s-4.16,3.42-4.88,7,0,5.82.81,5.53.81-2.06.56-3.68A9.84,9.84,0,0,1,46,177.88C47.35,176.34,48.71,174.56,47.39,175.4Z"/><path class="cls-22" d="M19.16,187.56c.11-3.44-1.12-8.34-8.88-12.76,0,0-5.08,11.42,4.45,15.59C17.15,191.45,19,191.46,19.16,187.56Z"/><path class="cls-23" d="M19.16,187.56c.11-3.44-1.12-8.34-8.88-12.76,0,0,5.78,4.36,7.13,9s-.74,6.62-1.74,6.93C17.63,191.38,19.06,190.93,19.16,187.56Z"/><path class="cls-24" d="M10.31,176.71s-1.19,5.25.47,8.57,3.58,4.58,4,3.87S14.19,187,13,185.9a9.82,9.82,0,0,1-2.31-6.34C10.85,177.49,10.83,175.24,10.31,176.71Z"/><path class="cls-22" d="M29.94,190.15c1.52-3.09,2.43-8.06-2.79-15.29,0,0-9.36,8.27-2.42,16C26.5,192.86,28.21,193.64,29.94,190.15Z"/><path class="cls-23" d="M29.94,190.15c1.52-3.09,2.43-8.06-2.79-15.29,0,0,3.45,6.36,2.74,11.15s-3.42,5.73-4.45,5.6C27,193,28.44,193.17,29.94,190.15Z"/><path class="cls-24" d="M26.38,176.6s-3.26,4.29-3.13,8,1.37,5.65,2.07,5.19.31-2.19-.3-3.71a9.81,9.81,0,0,1,.52-6.73C26.55,177.53,27.46,175.48,26.38,176.6Z"/><path class="cls-22" d="M20.61,200.65c-2.41-2.45-6.8-5-15.35-2.41,0,0,4.72,11.57,14.33,7.57C22,204.8,23.34,203.44,20.61,200.65Z"/><path class="cls-23" d="M20.61,200.65c-2.41-2.45-6.8-5-15.35-2.41,0,0,7.14-1.16,11.43,1.09s4.28,5.12,3.81,6C22.31,204.41,23,203.06,20.61,200.65Z"/><path class="cls-24" d="M6.65,199.55s3,4.49,6.52,5.58,5.78.58,5.58-.23-2-1-3.61-.94A9.85,9.85,0,0,1,9,201.24C7.59,199.69,6,198.15,6.65,199.55Z"/><path class="cls-22" d="M43.56,223.27c-1-3.28-3.82-7.5-12.61-9.09,0,0-1,12.45,9.36,13.23C43,227.61,44.74,227,43.56,223.27Z"/><path class="cls-23" d="M43.56,223.27c-1-3.28-3.82-7.5-12.61-9.09,0,0,6.9,2.19,9.71,6.14s1.5,6.5.66,7.12C43.38,227.38,44.58,226.49,43.56,223.27Z"/><path class="cls-24" d="M31.61,216s.62,5.35,3.28,7.93,4.9,3.13,5.09,2.31-1.29-1.8-2.79-2.47a9.8,9.8,0,0,1-4.28-5.21C32.38,216.52,31.61,214.41,31.61,216Z"/><path class="cls-22" d="M46.33,238.27c-2.59,2.27-7.15,4.44-15.49,1.27,0,0,5.57-11.19,14.85-6.49C48.05,234.25,49.26,235.7,46.33,238.27Z"/><path class="cls-23" d="M46.33,238.27c-2.59,2.27-7.15,4.44-15.49,1.27,0,0,7,1.68,11.48-.24s4.64-4.79,4.25-5.75C48.3,234.66,48.86,236,46.33,238.27Z"/><path class="cls-24" d="M32.32,238.34s3.3-4.25,6.91-5.09,5.82-.14,5.55.65-2,.87-3.66.67a9.82,9.82,0,0,0-6.36,2.25C33.27,238.27,31.52,239.68,32.32,238.34Z"/></g></g></svg>