<svg xmlns="http://www.w3.org/2000/svg" viewBox="0 0 360 504"><defs><style>.cls-1{fill:#fff3e9;}.cls-2{fill:#59361e;}.cls-3{opacity:0.25;}.cls-4{fill:#246789;}.cls-5{opacity:0.15;}.cls-6,.cls-8{fill:#4a3b32;}.cls-6{fill-rule:evenodd;}.cls-7{fill:#ededed;}.cls-9{opacity:0.2;}.cls-10,.cls-11{fill:none;stroke:#246789;stroke-linecap:round;stroke-miterlimit:10;}.cls-11{stroke-dasharray:2.03 2.03;}</style></defs><title>Asset 24</title><g id="Layer_2" data-name="Layer 2"><g id="Layer_1-2" data-name="Layer 1"><rect class="cls-1" width="360" height="504"/><path class="cls-2" d="M342.66,481.18h0a12.43,12.43,0,0,1-10.87-7.62c-.1-.27-2.52-6.57,1.64-11.45a10.72,10.72,0,0,1,11.49-3.27c.52.18,5.16,2,6.3,6.85a9.42,9.42,0,0,1-4.13,10.16c-2.28,1.32-5.86,1.87-8.32,0-1.16-.89-3.12-3.23-2.23-5.68a4.68,4.68,0,0,1,4-2.87,4.84,4.84,0,0,1,3.42,1.14.34.34,0,0,1,0,.49.35.35,0,0,1-.49.05,4.25,4.25,0,0,0-2.92-1,3.94,3.94,0,0,0-3.4,2.41c-.75,2.07,1,4.1,2,4.89,2.21,1.7,5.45,1.17,7.54,0a8.69,8.69,0,0,0,3.79-9.39c-1.05-4.52-5.36-6.18-5.85-6.35A10,10,0,0,0,334,462.57c-3.89,4.56-1.62,10.48-1.52,10.73a11.74,11.74,0,0,0,10.26,7.18.35.35,0,0,1,.33.37A.36.36,0,0,1,342.66,481.18Z"/><path class="cls-2" d="M353.29,475.58a3.88,3.88,0,0,1-2.7-1.32,4.26,4.26,0,0,1-.94-1.86.35.35,0,0,1,.23-.42,3,3,0,0,1,2.3.1,4.25,4.25,0,0,1,2,2.2,1.09,1.09,0,0,1,0,.85.88.88,0,0,1-.72.44Zm-2.86-3a3.29,3.29,0,0,0,2.85,2.32c.24,0,.31-.05.33-.07a3.14,3.14,0,0,0-1.73-2.09A2.31,2.31,0,0,0,350.43,472.56Z"/><path class="cls-2" d="M353.62,471.92a3.82,3.82,0,0,1-1.19-.18,4.4,4.4,0,0,1-1.77-1.1.35.35,0,0,1,0-.48,3.07,3.07,0,0,1,2-1.1,4.2,4.2,0,0,1,2.88.81,1.05,1.05,0,0,1,.46.72.83.83,0,0,1-.38.74A3.33,3.33,0,0,1,353.62,471.92Zm-2.21-1.55a3.4,3.4,0,0,0,1.23.7,3.23,3.23,0,0,0,2.41-.2c.19-.11.25-.21.25-.23a3.13,3.13,0,0,0-2.56-.89A2.34,2.34,0,0,0,351.41,470.37Z"/><path class="cls-2" d="M352.4,468.58a4.6,4.6,0,0,1-1.35-.2.36.36,0,0,1-.24-.41,3.09,3.09,0,0,1,1.26-1.93,4.26,4.26,0,0,1,2.93-.64,1.06,1.06,0,0,1,.74.42.83.83,0,0,1,0,.83,3.86,3.86,0,0,1-3.35,1.93Zm-.81-.79a3.37,3.37,0,0,0,1.41,0,3.24,3.24,0,0,0,2-1.31c.11-.19.12-.29.11-.32a3.14,3.14,0,0,0-2.68.43A2.25,2.25,0,0,0,351.59,467.79Z"/><path class="cls-2" d="M350.87,466a.36.36,0,0,1-.34-.25,3.11,3.11,0,0,1,.15-2.29,4.27,4.27,0,0,1,2.23-2,1.11,1.11,0,0,1,.86,0,.87.87,0,0,1,.42.73,3.75,3.75,0,0,1-1.36,2.91,4.28,4.28,0,0,1-1.88.9Zm2.51-3.94a3.33,3.33,0,0,0-2.06,1.7,2.3,2.3,0,0,0-.19,1.46,3.52,3.52,0,0,0,1.24-.67,3.26,3.26,0,0,0,1.13-2.14.74.74,0,0,0-.06-.34Z"/><path class="cls-2" d="M347.06,481.65a7.79,7.79,0,0,1-3.18-.72.36.36,0,0,1-.19-.44,5.35,5.35,0,0,1,2.59-3.05,7.51,7.51,0,0,1,5.25-.48,1.73,1.73,0,0,1,1.09.78,1.32,1.32,0,0,1-.16,1.25,6.63,6.63,0,0,1-5,2.64Zm-2.58-1.23a6.9,6.9,0,0,0,3,.51,6,6,0,0,0,4.39-2.29.73.73,0,0,0,.13-.59c0-.06-.15-.25-.67-.43a6.9,6.9,0,0,0-4.7.44A4.58,4.58,0,0,0,344.48,480.42Z"/><path class="cls-2" d="M349.4,493.66a.33.33,0,0,1-.23-.09.34.34,0,0,1,0-.49c1.85-2.1,1.38-5.41-1.1-7.7-1.67-1.55-3.44-1.81-5.31-2.08a11,11,0,0,1-6.44-2.61.34.34,0,0,1,0-.49.35.35,0,0,1,.5,0,10.37,10.37,0,0,0,6.07,2.43c1.89.28,3.85.56,5.69,2.26,2.76,2.57,3.26,6.3,1.14,8.68A.34.34,0,0,1,349.4,493.66Z"/><path class="cls-2" d="M323.94,495.35a9.36,9.36,0,0,1-2.16-.25c-4.88-1.13-6.67-5.77-6.85-6.3a10.71,10.71,0,0,1,3.27-11.48c4.88-4.16,11.19-1.75,11.45-1.64a12.42,12.42,0,0,1,7.62,10.87.35.35,0,0,1-.33.37.34.34,0,0,1-.37-.32,11.74,11.74,0,0,0-7.18-10.27c-.25-.09-6.17-2.36-10.73,1.53a10,10,0,0,0-3.07,10.71c.17.49,1.83,4.8,6.35,5.85a8.7,8.7,0,0,0,9.39-3.8c1.21-2.08,1.73-5.32,0-7.53-.79-1-2.82-2.75-4.89-2a3.94,3.94,0,0,0-2.41,3.39,4.19,4.19,0,0,0,1,2.92.36.36,0,0,1-.05.5.35.35,0,0,1-.49,0,4.91,4.91,0,0,1-1.14-3.42,4.66,4.66,0,0,1,2.87-4c2.46-.89,4.79,1.07,5.68,2.23,1.9,2.46,1.35,6,0,8.32A9.27,9.27,0,0,1,323.94,495.35Z"/><path class="cls-2" d="M330.86,498.22a1.6,1.6,0,0,1-.49-.09,4.32,4.32,0,0,1-2.2-2,3,3,0,0,1-.1-2.3.34.34,0,0,1,.42-.23,4.26,4.26,0,0,1,1.86.94,3.73,3.73,0,0,1,1.31,2.93.86.86,0,0,1-.43.71A.75.75,0,0,1,330.86,498.22Zm-2.21-3.89a2.33,2.33,0,0,0,.16,1.46,3.1,3.1,0,0,0,2.1,1.72.58.58,0,0,0,.06-.32,3.25,3.25,0,0,0-1.09-2.17A3.51,3.51,0,0,0,328.65,494.33Z"/><path class="cls-2" d="M326.74,499.91h-.06a1.05,1.05,0,0,1-.72-.46,4.2,4.2,0,0,1-.81-2.88,3,3,0,0,1,1.11-2,.34.34,0,0,1,.47,0,4.14,4.14,0,0,1,1.1,1.77,3.74,3.74,0,0,1-.41,3.19A.87.87,0,0,1,326.74,499.91Zm-.27-4.59a2.27,2.27,0,0,0-.62,1.33,3.06,3.06,0,0,0,.89,2.56s.11-.06.22-.25a3.23,3.23,0,0,0,.2-2.41A3.52,3.52,0,0,0,326.47,495.32Z"/><path class="cls-2" d="M322.3,499.76a.7.7,0,0,1-.39-.11,1.06,1.06,0,0,1-.42-.74,4.25,4.25,0,0,1,.64-2.93,3.09,3.09,0,0,1,1.93-1.26.36.36,0,0,1,.41.24,4.4,4.4,0,0,1,.14,2.08,3.75,3.75,0,0,1-1.86,2.62A1.23,1.23,0,0,1,322.3,499.76Zm1.58-4.26a2.29,2.29,0,0,0-1.17.88,3.09,3.09,0,0,0-.42,2.68.63.63,0,0,0,.31-.11,3.25,3.25,0,0,0,1.32-2A3.55,3.55,0,0,0,323.88,495.5Z"/><path class="cls-2" d="M318.5,498.11h-.2a.85.85,0,0,1-.72-.42,1.06,1.06,0,0,1,0-.86,4.24,4.24,0,0,1,2-2.23,3.09,3.09,0,0,1,2.3-.15.36.36,0,0,1,.23.42,4.39,4.39,0,0,1-.9,1.88A3.88,3.88,0,0,1,318.5,498.11Zm2.39-3.12a2.33,2.33,0,0,0-1,.23,3.11,3.11,0,0,0-1.68,2.13.64.64,0,0,0,.33.06,3.26,3.26,0,0,0,2.14-1.13,3.57,3.57,0,0,0,.67-1.25A3.14,3.14,0,0,0,320.89,495Z"/><path class="cls-2" d="M334.26,496.62a.88.88,0,0,1-.43-.1,1.7,1.7,0,0,1-.78-1.08,7.51,7.51,0,0,1,.48-5.25,5.34,5.34,0,0,1,3.06-2.59.34.34,0,0,1,.43.19,7.68,7.68,0,0,1,.71,3.62,6.68,6.68,0,0,1-2.65,5A1.61,1.61,0,0,1,334.26,496.62Zm2.25-8.24a4.65,4.65,0,0,0-2.36,2.14,6.81,6.81,0,0,0-.43,4.69c.17.53.36.65.42.68a.73.73,0,0,0,.59-.13,6,6,0,0,0,2.29-4.4A6.8,6.8,0,0,0,336.51,488.38Z"/><path class="cls-2" d="M346.13,494.88a7.21,7.21,0,0,1-5.18-2.45,9.62,9.62,0,0,1-2.26-5.69,10.37,10.37,0,0,0-2.43-6.07.35.35,0,0,1,.53-.47,11,11,0,0,1,2.6,6.44c.27,1.87.53,3.64,2.08,5.31,2.3,2.48,5.6,2.95,7.7,1.1a.35.35,0,1,1,.46.52A5.2,5.2,0,0,1,346.13,494.88Z"/><path class="cls-2" d="M16.42,481.18h0a12.42,12.42,0,0,0,10.87-7.62c.11-.27,2.52-6.57-1.64-11.45a10.71,10.71,0,0,0-11.48-3.27c-.53.18-5.17,2-6.3,6.85A9.39,9.39,0,0,0,12,475.85c2.27,1.32,5.85,1.87,8.31,0,1.16-.89,3.12-3.23,2.23-5.68a4.66,4.66,0,0,0-4-2.87,4.82,4.82,0,0,0-3.42,1.14.35.35,0,0,0-.05.49.36.36,0,0,0,.5.05,4.21,4.21,0,0,1,2.92-1,3.94,3.94,0,0,1,3.39,2.41c.75,2.07-1,4.1-2,4.89-2.2,1.7-5.45,1.17-7.53,0a8.7,8.7,0,0,1-3.8-9.39c1.06-4.52,5.37-6.18,5.85-6.35a10,10,0,0,1,10.71,3.07c3.89,4.56,1.63,10.48,1.53,10.73a11.75,11.75,0,0,1-10.26,7.18.35.35,0,0,0-.33.37A.34.34,0,0,0,16.42,481.18Z"/><path class="cls-2" d="M5.8,475.58a3.9,3.9,0,0,0,2.7-1.32,4.37,4.37,0,0,0,.94-1.86A.36.36,0,0,0,9.2,472a3,3,0,0,0-2.3.1,4.33,4.33,0,0,0-2,2.2,1.08,1.08,0,0,0,0,.85.84.84,0,0,0,.71.44Zm2.86-3A3.51,3.51,0,0,1,8,473.79a3.23,3.23,0,0,1-2.17,1.09c-.23,0-.31-.05-.33-.07a3.14,3.14,0,0,1,1.73-2.09A2.33,2.33,0,0,1,8.66,472.56Z"/><path class="cls-2" d="M5.47,471.92a3.81,3.81,0,0,0,1.18-.18,4.34,4.34,0,0,0,1.77-1.1.35.35,0,0,0,0-.48,3,3,0,0,0-2-1.1,4.22,4.22,0,0,0-2.89.81,1.09,1.09,0,0,0-.46.72.83.83,0,0,0,.39.74A3.28,3.28,0,0,0,5.47,471.92Zm2.2-1.55a3.32,3.32,0,0,1-1.23.7,3.23,3.23,0,0,1-2.41-.2.58.58,0,0,1-.25-.23,3.14,3.14,0,0,1,2.57-.89A2.34,2.34,0,0,1,7.67,470.37Z"/><path class="cls-2" d="M6.69,468.58a4.59,4.59,0,0,0,1.34-.2.35.35,0,0,0,.24-.41A3,3,0,0,0,7,466a4.24,4.24,0,0,0-2.92-.64,1.08,1.08,0,0,0-.75.42.86.86,0,0,0,0,.83A3.72,3.72,0,0,0,6,468.51,3.64,3.64,0,0,0,6.69,468.58Zm.8-.79a3.37,3.37,0,0,1-1.41,0,3.19,3.19,0,0,1-2-1.31c-.12-.19-.12-.29-.11-.32a3.12,3.12,0,0,1,2.67.43A2.25,2.25,0,0,1,7.49,467.79Z"/><path class="cls-2" d="M8.21,466a.36.36,0,0,0,.34-.25,3.06,3.06,0,0,0-.15-2.29,4.2,4.2,0,0,0-2.23-2,1.11,1.11,0,0,0-.86,0,.89.89,0,0,0-.42.73,3.75,3.75,0,0,0,1.36,2.91,4.34,4.34,0,0,0,1.88.9Zm-2.5-3.94a3.37,3.37,0,0,1,2.06,1.7A2.37,2.37,0,0,1,8,465.25a3.57,3.57,0,0,1-1.25-.67,3.26,3.26,0,0,1-1.13-2.14.57.57,0,0,1,.07-.34Z"/><path class="cls-2" d="M12,481.65a7.76,7.76,0,0,0,3.18-.72.35.35,0,0,0,.19-.44,5.35,5.35,0,0,0-2.59-3.05A7.51,7.51,0,0,0,7.55,477a1.7,1.7,0,0,0-1.08.78A1.27,1.27,0,0,0,6.63,479a6.6,6.6,0,0,0,5,2.64Zm2.59-1.23a7,7,0,0,1-3,.51,6,6,0,0,1-4.4-2.29.73.73,0,0,1-.13-.59c0-.06.15-.25.68-.43a6.9,6.9,0,0,1,4.7.44A4.62,4.62,0,0,1,14.61,480.42Z"/><path class="cls-2" d="M9.68,493.66a.35.35,0,0,0,.27-.58c-1.86-2.1-1.38-5.41,1.09-7.7,1.68-1.55,3.44-1.81,5.32-2.08a11,11,0,0,0,6.44-2.61.35.35,0,0,0,0-.49.34.34,0,0,0-.49,0,10.42,10.42,0,0,1-6.08,2.43c-1.89.28-3.85.56-5.68,2.26-2.77,2.57-3.26,6.3-1.15,8.68A.35.35,0,0,0,9.68,493.66Z"/><path class="cls-2" d="M35.14,495.35a9.3,9.3,0,0,0,2.16-.25c4.89-1.13,6.67-5.77,6.86-6.3a10.73,10.73,0,0,0-3.28-11.48c-4.88-4.16-11.18-1.75-11.45-1.64a12.45,12.45,0,0,0-7.62,10.87.36.36,0,0,0,.71.05,11.73,11.73,0,0,1,7.17-10.27c.25-.09,6.18-2.36,10.74,1.53a10,10,0,0,1,3.06,10.71c-.17.49-1.83,4.8-6.35,5.85a8.7,8.7,0,0,1-9.39-3.8c-1.2-2.08-1.72-5.32,0-7.53.78-1,2.81-2.75,4.88-2A3.94,3.94,0,0,1,35,484.48a4.19,4.19,0,0,1-1,2.92.36.36,0,0,0,.55.45,4.92,4.92,0,0,0,1.13-3.42,4.65,4.65,0,0,0-2.87-4c-2.45-.89-4.79,1.07-5.68,2.23-1.9,2.46-1.35,6,0,8.32A9.27,9.27,0,0,0,35.14,495.35Z"/><path class="cls-2" d="M28.22,498.22a1.55,1.55,0,0,0,.49-.09,4.29,4.29,0,0,0,2.2-2,3,3,0,0,0,.1-2.3.33.33,0,0,0-.41-.23,4.24,4.24,0,0,0-1.87.94,3.76,3.76,0,0,0-1.31,2.93.84.84,0,0,0,.44.71A.68.68,0,0,0,28.22,498.22Zm2.21-3.89a2.33,2.33,0,0,1-.16,1.46,3.08,3.08,0,0,1-2.1,1.72.58.58,0,0,1-.06-.32A3.29,3.29,0,0,1,29.2,495,3.51,3.51,0,0,1,30.43,494.33Z"/><path class="cls-2" d="M32.35,499.91h0a1.05,1.05,0,0,0,.72-.46,4.26,4.26,0,0,0,.82-2.88,3.1,3.1,0,0,0-1.11-2,.35.35,0,0,0-.48,0,4.34,4.34,0,0,0-1.1,1.77,3.74,3.74,0,0,0,.41,3.19A.87.87,0,0,0,32.35,499.91Zm.27-4.59a2.34,2.34,0,0,1,.62,1.33,3.09,3.09,0,0,1-.9,2.56.67.67,0,0,1-.22-.25,3.23,3.23,0,0,1-.2-2.41A3.55,3.55,0,0,1,32.62,495.32Z"/><path class="cls-2" d="M36.78,499.76a.76.76,0,0,0,.4-.11,1.13,1.13,0,0,0,.42-.74A4.26,4.26,0,0,0,37,496,3.07,3.07,0,0,0,35,494.72a.36.36,0,0,0-.42.24,4.39,4.39,0,0,0-.13,2.08,3.73,3.73,0,0,0,1.86,2.62A1.18,1.18,0,0,0,36.78,499.76ZM35.2,495.5a2.25,2.25,0,0,1,1.17.88,3.09,3.09,0,0,1,.42,2.68.63.63,0,0,1-.31-.11,3.24,3.24,0,0,1-1.31-2A3.37,3.37,0,0,1,35.2,495.5Z"/><path class="cls-2" d="M40.59,498.11h.19a.89.89,0,0,0,.73-.42,1.15,1.15,0,0,0,0-.86,4.28,4.28,0,0,0-2-2.23,3.09,3.09,0,0,0-2.3-.15.36.36,0,0,0-.24.42,4.41,4.41,0,0,0,.91,1.88A3.86,3.86,0,0,0,40.59,498.11ZM38.19,495a2.3,2.3,0,0,1,1,.23,3.08,3.08,0,0,1,1.68,2.13.58.58,0,0,1-.32.06,3.26,3.26,0,0,1-2.15-1.13,3.4,3.4,0,0,1-.66-1.25A2.87,2.87,0,0,1,38.19,495Z"/><path class="cls-2" d="M24.82,496.62a.88.88,0,0,0,.43-.1,1.75,1.75,0,0,0,.79-1.08,7.52,7.52,0,0,0-.49-5.25,5.35,5.35,0,0,0-3.05-2.59.35.35,0,0,0-.44.19,7.67,7.67,0,0,0-.7,3.62,6.68,6.68,0,0,0,2.64,5A1.63,1.63,0,0,0,24.82,496.62Zm-2.25-8.24a4.65,4.65,0,0,1,2.36,2.14,6.87,6.87,0,0,1,.44,4.69c-.18.53-.37.65-.42.68a.72.72,0,0,1-.59-.13,6,6,0,0,1-2.3-4.4A7,7,0,0,1,22.57,488.38Z"/><path class="cls-2" d="M13,494.88a7.21,7.21,0,0,0,5.18-2.45c1.7-1.84,2-3.8,2.26-5.69a10.37,10.37,0,0,1,2.43-6.07.36.36,0,0,0,0-.5.35.35,0,0,0-.5,0,10.88,10.88,0,0,0-2.6,6.44c-.28,1.87-.54,3.64-2.09,5.31-2.29,2.48-5.6,2.95-7.69,1.1a.35.35,0,0,0-.5,0,.34.34,0,0,0,0,.49A5.2,5.2,0,0,0,13,494.88Z"/><path class="cls-2" d="M342.66,23.44h0a12.43,12.43,0,0,0-10.87,7.62c-.1.26-2.52,6.57,1.64,11.45a10.74,10.74,0,0,0,11.49,3.27c.52-.19,5.16-2,6.3-6.85a9.42,9.42,0,0,0-4.13-10.16c-2.28-1.32-5.86-1.87-8.32,0-1.16.9-3.12,3.24-2.23,5.69a4.68,4.68,0,0,0,4,2.87A4.93,4.93,0,0,0,344,36.21a.35.35,0,0,0-.45-.54,4.25,4.25,0,0,1-2.92,1,3.94,3.94,0,0,1-3.4-2.41c-.75-2.07,1-4.1,2-4.89,2.21-1.7,5.45-1.18,7.54,0a8.68,8.68,0,0,1,3.79,9.39c-1.05,4.52-5.36,6.17-5.85,6.35A10,10,0,0,1,334,42.05c-3.89-4.56-1.62-10.49-1.52-10.73a11.72,11.72,0,0,1,10.26-7.18.35.35,0,0,0,.33-.37A.36.36,0,0,0,342.66,23.44Z"/><path class="cls-2" d="M353.29,29a3.9,3.9,0,0,0-2.7,1.33,4.26,4.26,0,0,0-.94,1.86.35.35,0,0,0,.23.42,3.05,3.05,0,0,0,2.3-.11,4.23,4.23,0,0,0,2-2.19,1.12,1.12,0,0,0,0-.86.89.89,0,0,0-.72-.43Zm-2.86,3a3.26,3.26,0,0,1,2.85-2.32.6.6,0,0,1,.33.06,3.16,3.16,0,0,1-1.73,2.1A2.31,2.31,0,0,1,350.43,32.06Z"/><path class="cls-2" d="M353.62,32.7a4.12,4.12,0,0,0-1.19.17A4.32,4.32,0,0,0,350.66,34a.34.34,0,0,0,0,.47,3,3,0,0,0,2,1.11,4.2,4.2,0,0,0,2.88-.81A1.07,1.07,0,0,0,356,34a.86.86,0,0,0-.38-.75A3.4,3.4,0,0,0,353.62,32.7Zm-2.21,1.54a3.37,3.37,0,0,1,1.23-.69,3.23,3.23,0,0,1,2.41.2c.19.11.25.2.25.23a3.13,3.13,0,0,1-2.56.88A2.34,2.34,0,0,1,351.41,34.24Z"/><path class="cls-2" d="M352.4,36a4.62,4.62,0,0,0-1.35.21.35.35,0,0,0-.24.41,3.09,3.09,0,0,0,1.26,1.93,4.26,4.26,0,0,0,2.93.64,1.06,1.06,0,0,0,.74-.42.85.85,0,0,0,0-.84,3.73,3.73,0,0,0-2.61-1.86A4.63,4.63,0,0,0,352.4,36Zm-.81.8a3.55,3.55,0,0,1,1.41,0,3.25,3.25,0,0,1,2,1.32c.11.18.12.29.11.31a3.09,3.09,0,0,1-2.68-.42A2.29,2.29,0,0,1,351.59,36.83Z"/><path class="cls-2" d="M350.87,38.59a.35.35,0,0,0-.34.24,3.14,3.14,0,0,0,.15,2.3,4.31,4.31,0,0,0,2.23,2,1.06,1.06,0,0,0,.86,0,.83.83,0,0,0,.42-.72,3.73,3.73,0,0,0-1.36-2.91,4.41,4.41,0,0,0-1.88-.91Zm2.51,3.93a3.29,3.29,0,0,1-2.06-1.7,2.26,2.26,0,0,1-.19-1.45,3.37,3.37,0,0,1,1.24.67,3.26,3.26,0,0,1,1.13,2.14.64.64,0,0,1-.06.33Z"/><path class="cls-2" d="M347.06,23a7.94,7.94,0,0,0-3.18.71.37.37,0,0,0-.19.44,5.34,5.34,0,0,0,2.59,3.06,7.51,7.51,0,0,0,5.25.48,1.76,1.76,0,0,0,1.09-.78,1.32,1.32,0,0,0-.16-1.25,6.66,6.66,0,0,0-5-2.65Zm-2.58,1.23a6.75,6.75,0,0,1,3-.51A6,6,0,0,1,351.85,26a.73.73,0,0,1,.13.59c0,.06-.15.25-.67.42a6.78,6.78,0,0,1-4.7-.44A4.56,4.56,0,0,1,344.48,24.2Z"/><path class="cls-2" d="M349.4,11a.38.38,0,0,0-.23.08.35.35,0,0,0,0,.5c1.85,2.09,1.38,5.4-1.1,7.7-1.67,1.55-3.44,1.81-5.31,2.08a10.94,10.94,0,0,0-6.44,2.6.35.35,0,0,0,.47.53A10.31,10.31,0,0,1,342.83,22a9.62,9.62,0,0,0,5.69-2.26c2.76-2.57,3.26-6.3,1.14-8.69A.36.36,0,0,0,349.4,11Z"/><path class="cls-2" d="M323.94,9.27a9.93,9.93,0,0,0-2.16.24c-4.88,1.14-6.67,5.78-6.85,6.3a10.7,10.7,0,0,0,3.27,11.48c4.88,4.17,11.19,1.75,11.45,1.65a12.43,12.43,0,0,0,7.62-10.87.36.36,0,0,0-.33-.38.35.35,0,0,0-.37.33,11.72,11.72,0,0,1-7.18,10.26c-.25.1-6.17,2.37-10.73-1.52a10,10,0,0,1-3.07-10.71c.17-.49,1.83-4.8,6.35-5.85A8.69,8.69,0,0,1,331.33,14c1.21,2.09,1.73,5.33,0,7.54-.79,1-2.82,2.74-4.89,2a3.93,3.93,0,0,1-2.41-3.39,4.23,4.23,0,0,1,1-2.92.35.35,0,0,0-.05-.49.34.34,0,0,0-.49,0,4.93,4.93,0,0,0-1.14,3.42,4.68,4.68,0,0,0,2.87,4c2.46.89,4.79-1.07,5.68-2.23,1.9-2.47,1.35-6,0-8.32A9.25,9.25,0,0,0,323.94,9.27Z"/><path class="cls-2" d="M330.86,6.39a1.38,1.38,0,0,0-.49.1,4.28,4.28,0,0,0-2.2,2,3,3,0,0,0-.1,2.3.36.36,0,0,0,.42.23,4.37,4.37,0,0,0,1.86-.94,3.73,3.73,0,0,0,1.31-2.93.89.89,0,0,0-.43-.72A.87.87,0,0,0,330.86,6.39Zm-2.21,3.89a2.3,2.3,0,0,1,.16-1.45,3.12,3.12,0,0,1,2.1-1.73.64.64,0,0,1,.06.33,3.21,3.21,0,0,1-1.09,2.16A3.51,3.51,0,0,1,328.65,10.28Z"/><path class="cls-2" d="M326.74,4.7h-.06a1.07,1.07,0,0,0-.72.45,4.25,4.25,0,0,0-.81,2.89,3,3,0,0,0,1.11,2,.34.34,0,0,0,.47,0,4.2,4.2,0,0,0,1.1-1.77,3.74,3.74,0,0,0-.41-3.19A.89.89,0,0,0,326.74,4.7Zm-.27,4.6A2.27,2.27,0,0,1,325.85,8a3,3,0,0,1,.89-2.56s.11.06.22.25a3.22,3.22,0,0,1,.2,2.41A3.61,3.61,0,0,1,326.47,9.3Z"/><path class="cls-2" d="M322.3,4.85a.69.69,0,0,0-.39.12,1.06,1.06,0,0,0-.42.74,4.26,4.26,0,0,0,.64,2.93,3.09,3.09,0,0,0,1.93,1.26.37.37,0,0,0,.41-.24,4.43,4.43,0,0,0,.14-2.09A3.73,3.73,0,0,0,322.75,5,1.09,1.09,0,0,0,322.3,4.85Zm1.58,4.27a2.29,2.29,0,0,1-1.17-.88,3.09,3.09,0,0,1-.42-2.68s.12,0,.31.11a3.25,3.25,0,0,1,1.32,2A3.55,3.55,0,0,1,323.88,9.12Z"/><path class="cls-2" d="M318.5,6.51h-.2a.83.83,0,0,0-.72.42,1,1,0,0,0,0,.85,4.3,4.3,0,0,0,2,2.24,3.08,3.08,0,0,0,2.3.14.34.34,0,0,0,.23-.41,4.28,4.28,0,0,0-.9-1.88A3.88,3.88,0,0,0,318.5,6.51Zm2.39,3.11a2.33,2.33,0,0,1-1-.23,3.07,3.07,0,0,1-1.68-2.13.59.59,0,0,1,.33,0,3.24,3.24,0,0,1,2.14,1.12,3.66,3.66,0,0,1,.67,1.25A2.15,2.15,0,0,1,320.89,9.62Z"/><path class="cls-2" d="M334.26,8a1,1,0,0,0-.43.09,1.73,1.73,0,0,0-.78,1.09,7.51,7.51,0,0,0,.48,5.25A5.41,5.41,0,0,0,336.59,17a.35.35,0,0,0,.43-.19,7.7,7.7,0,0,0,.71-3.62,6.66,6.66,0,0,0-2.65-5A1.61,1.61,0,0,0,334.26,8Zm2.25,8.23a4.58,4.58,0,0,1-2.36-2.13,6.83,6.83,0,0,1-.43-4.7c.17-.52.36-.65.42-.67a.69.69,0,0,1,.59.13A6,6,0,0,1,337,13.25,6.75,6.75,0,0,1,336.51,16.23Z"/><path class="cls-2" d="M346.13,9.74A7.21,7.21,0,0,0,341,12.19a9.57,9.57,0,0,0-2.26,5.69A10.37,10.37,0,0,1,336.26,24a.35.35,0,0,0,.53.47,11,11,0,0,0,2.6-6.44c.27-1.87.53-3.64,2.08-5.31,2.3-2.48,5.6-2.95,7.7-1.1a.34.34,0,0,0,.49,0,.35.35,0,0,0,0-.5A5.19,5.19,0,0,0,346.13,9.74Z"/><path class="cls-2" d="M16.42,23.44h0a12.42,12.42,0,0,1,10.87,7.62c.11.26,2.52,6.57-1.64,11.45a10.73,10.73,0,0,1-11.48,3.27c-.53-.19-5.17-2-6.3-6.85A9.39,9.39,0,0,1,12,28.77c2.27-1.32,5.85-1.87,8.31,0,1.16.9,3.12,3.24,2.23,5.69a4.66,4.66,0,0,1-4,2.87,4.91,4.91,0,0,1-3.42-1.14.35.35,0,1,1,.45-.54,4.21,4.21,0,0,0,2.92,1,3.94,3.94,0,0,0,3.39-2.41c.75-2.07-1-4.1-2-4.89-2.2-1.7-5.45-1.18-7.53,0a8.68,8.68,0,0,0-3.8,9.39c1.06,4.52,5.37,6.17,5.85,6.35a10,10,0,0,0,10.71-3.07c3.89-4.56,1.63-10.49,1.53-10.73A11.73,11.73,0,0,0,16.4,24.14a.35.35,0,0,1-.33-.37A.34.34,0,0,1,16.42,23.44Z"/><path class="cls-2" d="M5.8,29a3.92,3.92,0,0,1,2.7,1.33,4.37,4.37,0,0,1,.94,1.86.36.36,0,0,1-.24.42,3.05,3.05,0,0,1-2.3-.11,4.31,4.31,0,0,1-2-2.19,1.11,1.11,0,0,1,0-.86.86.86,0,0,1,.71-.43Zm2.86,3A3.56,3.56,0,0,0,8,30.82,3.26,3.26,0,0,0,5.8,29.74a.64.64,0,0,0-.33.06A3.16,3.16,0,0,0,7.2,31.9,2.33,2.33,0,0,0,8.66,32.06Z"/><path class="cls-2" d="M5.47,32.7a4.11,4.11,0,0,1,1.18.17A4.26,4.26,0,0,1,8.42,34a.34.34,0,0,1,0,.47,3,3,0,0,1-2,1.11,4.22,4.22,0,0,1-2.89-.81A1.11,1.11,0,0,1,3.08,34a.85.85,0,0,1,.39-.75A3.35,3.35,0,0,1,5.47,32.7Zm2.2,1.54a3.29,3.29,0,0,0-1.23-.69,3.23,3.23,0,0,0-2.41.2c-.19.11-.24.2-.25.23a3.14,3.14,0,0,0,2.57.88A2.34,2.34,0,0,0,7.67,34.24Z"/><path class="cls-2" d="M6.69,36A4.61,4.61,0,0,1,8,36.24a.34.34,0,0,1,.24.41A3,3,0,0,1,7,38.58a4.24,4.24,0,0,1-2.92.64,1.08,1.08,0,0,1-.75-.42.88.88,0,0,1,0-.84A3.78,3.78,0,0,1,6,36.1,4.53,4.53,0,0,1,6.69,36Zm.8.8a3.55,3.55,0,0,0-1.41,0,3.2,3.2,0,0,0-2,1.32c-.12.18-.12.29-.11.31A3.07,3.07,0,0,0,6.61,38,2.29,2.29,0,0,0,7.49,36.83Z"/><path class="cls-2" d="M8.21,38.59a.35.35,0,0,1,.34.24,3.09,3.09,0,0,1-.15,2.3,4.24,4.24,0,0,1-2.23,2,1.06,1.06,0,0,1-.86,0,.85.85,0,0,1-.42-.72A3.73,3.73,0,0,1,6.25,39.5a4.47,4.47,0,0,1,1.88-.91Zm-2.5,3.93a3.34,3.34,0,0,0,2.06-1.7A2.33,2.33,0,0,0,8,39.37,3.41,3.41,0,0,0,6.71,40a3.26,3.26,0,0,0-1.13,2.14c0,.22,0,.32.07.33Z"/><path class="cls-2" d="M12,23a7.9,7.9,0,0,1,3.18.71.36.36,0,0,1,.19.44,5.34,5.34,0,0,1-2.59,3.06,7.51,7.51,0,0,1-5.25.48,1.74,1.74,0,0,1-1.08-.78,1.27,1.27,0,0,1,.16-1.25,6.64,6.64,0,0,1,5-2.65Zm2.59,1.23a6.8,6.8,0,0,0-3-.51A6,6,0,0,0,7.23,26a.73.73,0,0,0-.13.59c0,.06.15.25.68.42a6.78,6.78,0,0,0,4.7-.44A4.61,4.61,0,0,0,14.61,24.2Z"/><path class="cls-2" d="M9.68,11a.41.41,0,0,1,.24.08.37.37,0,0,1,0,.5c-1.86,2.09-1.38,5.4,1.09,7.7,1.68,1.55,3.44,1.81,5.32,2.08a11,11,0,0,1,6.44,2.6.36.36,0,0,1,0,.5.34.34,0,0,1-.49,0A10.36,10.36,0,0,0,16.25,22a9.57,9.57,0,0,1-5.68-2.26c-2.77-2.57-3.26-6.3-1.15-8.69A.38.38,0,0,1,9.68,11Z"/><path class="cls-2" d="M35.14,9.27a9.86,9.86,0,0,1,2.16.24c4.89,1.14,6.67,5.78,6.86,6.3a10.73,10.73,0,0,1-3.28,11.48C36,31.46,29.7,29,29.43,28.94a12.46,12.46,0,0,1-7.62-10.87.36.36,0,1,1,.71-.05,11.71,11.71,0,0,0,7.17,10.26c.25.1,6.18,2.37,10.74-1.52a10,10,0,0,0,3.06-10.71c-.17-.49-1.83-4.8-6.35-5.85A8.69,8.69,0,0,0,27.75,14c-1.2,2.09-1.72,5.33,0,7.54.78,1,2.81,2.74,4.88,2A3.93,3.93,0,0,0,35,20.13a4.23,4.23,0,0,0-1-2.92.36.36,0,0,1,.55-.45,4.94,4.94,0,0,1,1.13,3.42,4.66,4.66,0,0,1-2.87,4c-2.45.89-4.79-1.07-5.68-2.23-1.9-2.47-1.35-6,0-8.32A9.25,9.25,0,0,1,35.14,9.27Z"/><path class="cls-2" d="M28.22,6.39a1.34,1.34,0,0,1,.49.1,4.25,4.25,0,0,1,2.2,2,3,3,0,0,1,.1,2.3.34.34,0,0,1-.41.23,4.35,4.35,0,0,1-1.87-.94,3.76,3.76,0,0,1-1.31-2.93.88.88,0,0,1,.44-.72A.8.8,0,0,1,28.22,6.39Zm2.21,3.89a2.3,2.3,0,0,0-.16-1.45,3.1,3.1,0,0,0-2.1-1.73.64.64,0,0,0-.06.33A3.25,3.25,0,0,0,29.2,9.59,3.51,3.51,0,0,0,30.43,10.28Z"/><path class="cls-2" d="M32.35,4.7h0a1.07,1.07,0,0,1,.72.45,4.3,4.3,0,0,1,.82,2.89,3.12,3.12,0,0,1-1.11,2,.35.35,0,0,1-.48,0,4.4,4.4,0,0,1-1.1-1.77,3.74,3.74,0,0,1,.41-3.19A.89.89,0,0,1,32.35,4.7Zm.27,4.6A2.34,2.34,0,0,0,33.24,8a3.08,3.08,0,0,0-.9-2.56.67.67,0,0,0-.22.25,3.22,3.22,0,0,0-.2,2.41A3.64,3.64,0,0,0,32.62,9.3Z"/><path class="cls-2" d="M36.78,4.85a.76.76,0,0,1,.4.12,1.13,1.13,0,0,1,.42.74A4.27,4.27,0,0,1,37,8.64,3.07,3.07,0,0,1,35,9.9a.37.37,0,0,1-.42-.24,4.42,4.42,0,0,1-.13-2.09A3.71,3.71,0,0,1,36.34,5,1,1,0,0,1,36.78,4.85ZM35.2,9.12a2.25,2.25,0,0,0,1.17-.88,3.09,3.09,0,0,0,.42-2.68s-.12,0-.31.11a3.24,3.24,0,0,0-1.31,2A3.37,3.37,0,0,0,35.2,9.12Z"/><path class="cls-2" d="M40.59,6.51h.19a.87.87,0,0,1,.73.42,1.12,1.12,0,0,1,0,.85,4.34,4.34,0,0,1-2,2.24,3.08,3.08,0,0,1-2.3.14A.34.34,0,0,1,37,9.76a4.3,4.3,0,0,1,.91-1.88A3.86,3.86,0,0,1,40.59,6.51Zm-2.4,3.11a2.3,2.3,0,0,0,1-.23,3,3,0,0,0,1.68-2.13.54.54,0,0,0-.32,0,3.24,3.24,0,0,0-2.15,1.12,3.48,3.48,0,0,0-.66,1.25A2,2,0,0,0,38.19,9.62Z"/><path class="cls-2" d="M24.82,8a1,1,0,0,1,.43.09A1.77,1.77,0,0,1,26,9.18a7.52,7.52,0,0,1-.49,5.25A5.43,5.43,0,0,1,22.5,17a.36.36,0,0,1-.44-.19,7.69,7.69,0,0,1-.7-3.62,6.66,6.66,0,0,1,2.64-5A1.63,1.63,0,0,1,24.82,8Zm-2.25,8.23a4.58,4.58,0,0,0,2.36-2.13,6.9,6.9,0,0,0,.44-4.7c-.18-.52-.37-.65-.42-.67a.69.69,0,0,0-.59.13,6,6,0,0,0-2.3,4.39A6.9,6.9,0,0,0,22.57,16.23Z"/><path class="cls-2" d="M13,9.74a7.21,7.21,0,0,1,5.18,2.45c1.7,1.83,2,3.79,2.26,5.69A10.37,10.37,0,0,0,22.82,24a.36.36,0,0,1,0,.5.35.35,0,0,1-.5,0A10.88,10.88,0,0,1,19.7,18c-.28-1.87-.54-3.64-2.09-5.31-2.29-2.48-5.6-2.95-7.69-1.1A.35.35,0,0,1,9.45,11,5.19,5.19,0,0,1,13,9.74Z"/><g id="Group_1382" data-name="Group 1382" class="cls-3"><g id="Group_247" data-name="Group 247"><g id="Group_240" data-name="Group 240"><path id="Path_118" data-name="Path 118" class="cls-4" d="M39.36,242.92l-4.6-1.59a.26.26,0,1,1,.16-.49l4.61,1.58a.28.28,0,0,1,.16.34A.27.27,0,0,1,39.36,242.92Z"/></g><g id="Group_241" data-name="Group 241"><path id="Path_119" data-name="Path 119" class="cls-4" d="M37.15,244.84l-3.22-1.11a.25.25,0,0,1-.16-.33.26.26,0,0,1,.33-.16l3.22,1.11a.25.25,0,0,1,.16.33.25.25,0,0,1-.33.16Z"/></g><g id="Group_242" data-name="Group 242"><path id="Path_120" data-name="Path 120" class="cls-4" d="M37.7,247.71l-4.6-1.58a.27.27,0,0,1-.16-.33.26.26,0,0,1,.33-.16l4.6,1.58a.26.26,0,0,1,.16.33A.25.25,0,0,1,37.7,247.71Z"/></g><g id="Group_243" data-name="Group 243"><path id="Path_121" data-name="Path 121" class="cls-4" d="M35.5,249.64l-3.22-1.11a.26.26,0,0,1-.16-.33.25.25,0,0,1,.33-.16h0l3.22,1.11a.25.25,0,0,1,.16.33.26.26,0,0,1-.33.16Z"/></g><g id="Group_244" data-name="Group 244"><path id="Path_122" data-name="Path 122" class="cls-4" d="M36.05,252.51l-4.6-1.58a.26.26,0,0,1-.16-.33.25.25,0,0,1,.33-.16h0l4.6,1.58a.26.26,0,0,1,.16.33.25.25,0,0,1-.33.16Z"/></g><g id="Group_245" data-name="Group 245"><path id="Path_123" data-name="Path 123" class="cls-4" d="M33.85,254.44l-3.23-1.11a.27.27,0,0,1-.16-.33.26.26,0,0,1,.33-.16h0L34,254a.26.26,0,0,1,.16.33.27.27,0,0,1-.33.16Z"/></g><g id="Group_246" data-name="Group 246"><path id="Path_124" data-name="Path 124" class="cls-4" d="M34.4,257.31l-4.6-1.58a.26.26,0,0,1-.16-.33.26.26,0,0,1,.33-.17h0l4.6,1.59a.26.26,0,1,1-.17.49Z"/></g></g><g id="Group_252" data-name="Group 252"><g id="Group_248" data-name="Group 248"><path id="Path_125" data-name="Path 125" class="cls-4" d="M35.83,234.49a.27.27,0,0,1-.17-.33h0l1.62-4.69a.26.26,0,0,1,.33-.16.27.27,0,0,1,.16.33l-1.61,4.69a.27.27,0,0,1-.33.16Z"/></g><g id="Group_249" data-name="Group 249"><path id="Path_126" data-name="Path 126" class="cls-4" d="M38.13,235.28A.27.27,0,0,1,38,235h0l1.62-4.68a.26.26,0,0,1,.33-.17.27.27,0,0,1,.16.33l-1.61,4.69a.26.26,0,0,1-.33.16Z"/></g><g id="Group_250" data-name="Group 250"><path id="Path_127" data-name="Path 127" class="cls-4" d="M40.43,236.07a.25.25,0,0,1-.16-.33h0l1.61-4.68a.25.25,0,0,1,.33-.16.26.26,0,0,1,.16.33l-1.61,4.68a.26.26,0,0,1-.33.16Z"/></g><g id="Group_251" data-name="Group 251"><path id="Path_128" data-name="Path 128" class="cls-4" d="M42.73,236.86a.25.25,0,0,1-.16-.33h0l1.61-4.68a.25.25,0,0,1,.33-.16.26.26,0,0,1,.16.33l-1.61,4.68a.26.26,0,0,1-.33.16Z"/></g></g><g id="Group_253" data-name="Group 253"><path id="Path_130" data-name="Path 130" class="cls-4" d="M43.69,236.94,35,234a1.86,1.86,0,0,1-1.15-2.37l.5-1.47A1.88,1.88,0,0,1,36.75,229l8.66,3a1.88,1.88,0,0,1,1.16,2.38l-.51,1.47A1.88,1.88,0,0,1,43.69,236.94Zm-7.11-7.5a1.36,1.36,0,0,0-1.72.84l-.5,1.47a1.35,1.35,0,0,0,.83,1.71l8.67,3a1.34,1.34,0,0,0,1.71-.83l.51-1.47a1.35,1.35,0,0,0-.84-1.71Z"/></g><g id="Group_254" data-name="Group 254"><path id="Path_132" data-name="Path 132" class="cls-4" d="M27.87,240.58a.27.27,0,0,1-.17-.31l.35-1.54a6.39,6.39,0,0,1,7.67-4.79c.22.05.43.11.65.18l6.16,2.12a6.43,6.43,0,0,1,4.31,5.95.26.26,0,0,1-.25.26.25.25,0,0,1-.27-.25h0a5.9,5.9,0,0,0-4-5.47l-6.16-2.12a5.88,5.88,0,0,0-7.47,3.65,5.72,5.72,0,0,0-.17.59l-.36,1.54a.25.25,0,0,1-.31.19Z"/></g><g id="Group_255" data-name="Group 255"><path id="Path_133" data-name="Path 133" class="cls-4" d="M32.42,265.61l-6.17-2.12a6.39,6.39,0,0,1-4-8.13c.07-.21.16-.42.25-.62l3.35-7.17a6.62,6.62,0,0,0,.4-1.16l.3-1.33a.25.25,0,0,1,.31-.19h0a.25.25,0,0,1,.2.3h0l-.31,1.32a6.33,6.33,0,0,1-.43,1.27L23,255a5.88,5.88,0,0,0,2.84,7.81l.57.23,6.16,2.12a5.88,5.88,0,0,0,7.47-3.64,4.5,4.5,0,0,0,.17-.6L42,253.19a6.25,6.25,0,0,1,.43-1.26L45,246.45a.25.25,0,0,1,.33-.13h0a.27.27,0,0,1,.13.35h0l-2.56,5.48a5.89,5.89,0,0,0-.4,1.16L40.73,261a6.39,6.39,0,0,1-7.67,4.79c-.22-.05-.43-.11-.64-.18Z"/></g><g id="Group_256" data-name="Group 256"><path id="Path_134" data-name="Path 134" class="cls-4" d="M44.16,232.05l-6.5-2.24a1.91,1.91,0,0,1-1.19-2.44l.07-.18a2,2,0,0,1,2.46-1,1.45,1.45,0,0,0,1.84-.9l.14-.42a7.3,7.3,0,0,0,.32-3,2.81,2.81,0,0,1,.14-1.11,2.76,2.76,0,0,1,1.7-1.72,2.8,2.8,0,0,1,2.44.27,2.77,2.77,0,0,1,1.28,2.6.26.26,0,0,1-.28.24.27.27,0,0,1-.24-.28h0a2.28,2.28,0,0,0-4.42-.93,2.13,2.13,0,0,0-.11.9,7.79,7.79,0,0,1-.35,3.18l-.14.42a2,2,0,0,1-2.5,1.22,1.45,1.45,0,0,0-1.81.7,1.4,1.4,0,0,0,.67,1.86l.14,0,6.5,2.24a1.41,1.41,0,0,0,1.82-1,1.46,1.46,0,0,0-1-1.67,2,2,0,0,1-1.22-2.5l.15-.43a.27.27,0,0,1,.33-.16.26.26,0,0,1,.16.33l-.15.43a1.46,1.46,0,0,0,.9,1.84,2,2,0,0,1,1.33,2.27,1.91,1.91,0,0,1-2.3,1.44l-.19-.06Z"/></g></g><g id="Group_1383" data-name="Group 1383" class="cls-3"><g id="Group_274" data-name="Group 274"><path id="Path_158" data-name="Path 158" class="cls-4" d="M58.18,160.42a1.1,1.1,0,0,1-1-.3l-14.77-14A1.15,1.15,0,0,1,44,144.43l7.21,6.85a.25.25,0,1,1-.34.36l-7.21-6.85a.65.65,0,0,0-.46-.18.66.66,0,0,0-.64.67.67.67,0,0,0,.2.46l14.77,14a.65.65,0,0,0,.92,0,.64.64,0,0,0,0-.92l-6-5.73a.25.25,0,0,1,0-.35.24.24,0,0,1,.35,0v0l6,5.73a1.14,1.14,0,0,1,0,1.62,1.12,1.12,0,0,1-.63.34Z"/></g><g id="Group_276" data-name="Group 276"><path id="Path_161" data-name="Path 161" class="cls-4" d="M58.67,160.35l-20.05,3.54a1.15,1.15,0,1,1-.4-2.26l11-1.94a.23.23,0,0,1,.28.2.25.25,0,0,1-.2.29l-11,1.94a.65.65,0,1,0,.22,1.28l20.06-3.54a.66.66,0,0,0,.53-.76.65.65,0,0,0-.76-.52l-6.67,1.17a.23.23,0,0,1-.28-.2.25.25,0,0,1,.2-.29l6.66-1.17a1.15,1.15,0,1,1,.4,2.26Z"/></g><g id="Group_277" data-name="Group 277"><path id="Path_163" data-name="Path 163" class="cls-4" d="M55,145.46l-19,3.35a8.63,8.63,0,0,1-6.65-1.59.25.25,0,0,1,.3-.4,8.1,8.1,0,0,0,6.26,1.5L55,145a8.08,8.08,0,0,0,6.47-6.14l1.66-7.2A1.34,1.34,0,0,0,61.55,130l-38.89,6.87,3.66,5.62a.25.25,0,0,1-.06.35.24.24,0,0,1-.34-.05l0,0L22,136.82a.26.26,0,0,1,.17-.38l39.26-6.93A1.85,1.85,0,0,1,63.6,131a2,2,0,0,1,0,.74L61.91,139A8.57,8.57,0,0,1,55,145.46Z"/></g><g id="Group_278" data-name="Group 278"><path id="Path_165" data-name="Path 165" class="cls-4" d="M59,162.1a2.92,2.92,0,1,1,2.37-3.39A2.92,2.92,0,0,1,59,162.1Zm-.93-5.27a2.43,2.43,0,1,0,2.81,2,2.41,2.41,0,0,0-2.81-2Z"/></g><g id="Group_279" data-name="Group 279"><path id="Path_166" data-name="Path 166" class="cls-4" d="M38.15,163.25a1.15,1.15,0,0,1-1.33-.93,1.19,1.19,0,0,1,.12-.74l10-21.27a.24.24,0,0,1,.33-.12.26.26,0,0,1,.12.33l-10,21.28a.65.65,0,0,0,.26.89.66.66,0,0,0,.88-.26l16.29-34.74a.25.25,0,0,1,.45.22L39,162.65A1.13,1.13,0,0,1,38.15,163.25Z"/></g><g id="Group_280" data-name="Group 280"><path id="Path_167" data-name="Path 167" class="cls-4" d="M49.71,135.27a.26.26,0,0,1-.15,0,.25.25,0,0,1-.12-.33l7.41-15.8a1.12,1.12,0,0,1,.91-.84l5.88-1a1.15,1.15,0,1,1,.4,2.26h0l-5.27.93-1,2.22a.25.25,0,0,1-.45-.21l1.1-2.34a.26.26,0,0,1,.18-.14L64,119a.65.65,0,1,0-.22-1.28l-5.88,1a.64.64,0,0,0-.53.5l-7.43,15.86A.24.24,0,0,1,49.71,135.27Z"/></g><g id="Group_281" data-name="Group 281"><path id="Path_172" data-name="Path 172" class="cls-4" d="M38.93,165.64a2.92,2.92,0,1,1,2.37-3.39h0a.25.25,0,1,1-.49.09h0a2.42,2.42,0,0,0-2.8-2h0a2.43,2.43,0,0,0-2,2.81h0a2.35,2.35,0,0,0,1.07,1.61,2.45,2.45,0,0,0,2.74-.06.25.25,0,0,1,.3.4h0A3,3,0,0,1,38.93,165.64Z"/></g><g id="Group_282" data-name="Group 282"><path id="Path_175" data-name="Path 175" class="cls-4" d="M43,133.28l-20.67,3.65a.24.24,0,0,1-.29-.2.17.17,0,0,1,0-.1,12.72,12.72,0,0,0,.36-2.75.25.25,0,0,1,.24-.26.26.26,0,0,1,.26.24,0,0,0,0,1,0,0,13.86,13.86,0,0,1-.28,2.49L41.86,133l-21-6.49.3.54a.26.26,0,0,1-.1.34.25.25,0,0,1-.34-.1h0l-.59-1.08a.25.25,0,0,1,.09-.34.27.27,0,0,1,.2,0l22.55,7a.25.25,0,0,1,.16.31.24.24,0,0,1-.19.17Z"/></g><g id="Group_283" data-name="Group 283"><path id="Path_176" data-name="Path 176" class="cls-4" d="M43,133.28a.17.17,0,0,1-.12,0l-22.55-7a.25.25,0,0,1-.16-.31.31.31,0,0,1,.05-.1l1.46-1.61a.25.25,0,0,1,.35,0,.26.26,0,0,1,0,.34l-1.2,1.33,21.27,6.58L25.86,115.37l-.3,1.85a.26.26,0,0,1-.29.2.25.25,0,0,1-.2-.28l.38-2.35a.24.24,0,0,1,.28-.2.23.23,0,0,1,.14.07l17.22,18.21a.24.24,0,0,1,0,.35.33.33,0,0,1-.13.07Z"/></g><g id="Group_284" data-name="Group 284"><path id="Path_177" data-name="Path 177" class="cls-4" d="M39.39,119.37a.23.23,0,0,1-.28-.18l-2.21-8.58a17.76,17.76,0,0,1-3.9,2.62.25.25,0,0,1-.22-.45A17.23,17.23,0,0,0,36.87,110a.24.24,0,0,1,.24,0,.23.23,0,0,1,.17.17l2.31,9a.25.25,0,0,1-.18.3h0Z"/></g><g id="Group_285" data-name="Group 285"><path id="Path_178" data-name="Path 178" class="cls-4" d="M43,133.28a.24.24,0,0,1-.23-.07L25.51,115a.25.25,0,0,1,0-.35.3.3,0,0,1,.15-.07l.54,0A17.77,17.77,0,0,0,29.6,114a.24.24,0,0,1,.3.17h0a.25.25,0,0,1-.18.31,17,17,0,0,1-3.48.57h0l16.2,17.12-1.61-6.28a.26.26,0,0,1,.18-.3.25.25,0,0,1,.3.18L43.15,133a.25.25,0,0,1-.12.28Z"/></g><g id="Group_286" data-name="Group 286"><path id="Path_180" data-name="Path 180" class="cls-4" d="M42.8,134.38a1.79,1.79,0,1,1,1.45-2.07A1.79,1.79,0,0,1,42.8,134.38Zm-.54-3a1.28,1.28,0,0,0-1,1.49,1.29,1.29,0,1,0,2.54-.45h0A1.28,1.28,0,0,0,42.26,131.35Z"/></g><g id="Group_287" data-name="Group 287"><path id="Path_181" data-name="Path 181" class="cls-4" d="M56,164a.29.29,0,0,1-.16,0,5.45,5.45,0,0,1,3.86-10.07.24.24,0,0,1,.17.3.23.23,0,0,1-.28.18,4.95,4.95,0,0,0-3.51,9.15.25.25,0,0,1,.09.34A.21.21,0,0,1,56,164Z"/></g><g id="Group_288" data-name="Group 288"><path id="Path_182" data-name="Path 182" class="cls-4" d="M59.42,164.58a5.66,5.66,0,0,1-1.17.08.25.25,0,0,1,0-.5,5,5,0,0,0,3-.88,4.33,4.33,0,0,0,.53-.43.25.25,0,0,1,.35,0,.24.24,0,0,1,0,.35h0a6.75,6.75,0,0,1-.59.47A5.42,5.42,0,0,1,59.42,164.58Z"/></g><g id="Group_289" data-name="Group 289"><path id="Path_183" data-name="Path 183" class="cls-4" d="M62.76,162.46a.25.25,0,0,1-.29-.2.27.27,0,0,1,.05-.19,5,5,0,0,0-1.15-6.86.25.25,0,0,1,0-.35.24.24,0,0,1,.32-.06,5.45,5.45,0,0,1,1.26,7.56A.25.25,0,0,1,62.76,162.46Z"/></g><g id="Group_290" data-name="Group 290"><path id="Path_184" data-name="Path 184" class="cls-4" d="M39.37,168.12a6.43,6.43,0,0,1-.74.08.24.24,0,0,1-.26-.24.24.24,0,0,1,.24-.25h0a5,5,0,0,0-.38-9.9,5.09,5.09,0,0,0-2.26.65.26.26,0,0,1-.34-.09.25.25,0,0,1,.09-.34,5.45,5.45,0,1,1,3.65,10.09Z"/></g><g id="Group_291" data-name="Group 291"><path id="Path_185" data-name="Path 185" class="cls-4" d="M36.07,167.62a.23.23,0,0,1-.16,0,5.46,5.46,0,0,1-1.49-8.53.24.24,0,0,1,.35,0,.25.25,0,0,1,0,.35h0a4.82,4.82,0,0,0-.78,1.11,4.94,4.94,0,0,0,.65,5.47,5.07,5.07,0,0,0,1.48,1.17.26.26,0,0,1,.11.34.27.27,0,0,1-.18.13Z"/></g></g><g id="Group_1265" data-name="Group 1265" class="cls-5"><g id="Path_2676" data-name="Path 2676"><path class="cls-6" d="M333.25,180.94a38.47,38.47,0,0,1-5.26,3.33,20.62,20.62,0,0,1-6,2.21,13.16,13.16,0,0,1-6-.46,36.49,36.49,0,0,1-5.13-1.87,19.46,19.46,0,0,1-4.59-2.9,27,27,0,0,1-5.87-8,15.93,15.93,0,0,1-1.13-8.06c0-.4.09-.8.14-1.26,0-.25.07-.52.1-.82l.06-.49-.47.14a5.3,5.3,0,0,1-3.85-.24,11.33,11.33,0,0,1-3.05-2.31c-1.4-1.36-1.66-4.33-.57-6.49a7.26,7.26,0,0,1,2.07-2.58,6,6,0,0,1,.82-.52c1.64-.84,3.32-.65,5.45.62a16.12,16.12,0,0,1,2,1.53c.32.27.64.55,1,.82l.29.23.19-.31a39.46,39.46,0,0,1,6.41-7.92,82.77,82.77,0,0,1,7.89-6.61c1-.73,1.93-1.44,2.66-2l.24-.18-.16-.25c-.08-.13-.17-.26-.25-.4l-.68-1.06a6.62,6.62,0,0,1-1.05-4.72,6.39,6.39,0,0,1,2.49-4,8,8,0,0,1,2.12-1.13,4.57,4.57,0,0,1,2.9-.08,6.08,6.08,0,0,1,2.59,1.63,8.69,8.69,0,0,1,2,3,7.15,7.15,0,0,1,.34,3.6l0,.25.23.1.17.08a.72.72,0,0,0,.46.14c3.27-.25,6.23.91,9,2.13a15.89,15.89,0,0,1,6,4.62,25.75,25.75,0,0,1,2.61,4.31l.52,1a15,15,0,0,1,1.6,4.74,19,19,0,0,1,.12,5,18.54,18.54,0,0,1-2.48,7.34,57.66,57.66,0,0,1-8.21,10.41l-.32.34c-.29.32-.61.64-.92.94s-.86.84-1.25,1.3A33.4,33.4,0,0,1,333.25,180.94Zm-33.79-19.27h.34a1.76,1.76,0,0,1,.8.11c.2.1.2.28.08.81l0,.08-.05.23a18.11,18.11,0,0,0-.47,3.05c-.16,4.12,1.61,8.69,5,12.88l0,0,0,0a29.38,29.38,0,0,0,9,5.55,18.31,18.31,0,0,0,8.26.77,20.47,20.47,0,0,0,6.77-2.35,30.14,30.14,0,0,0,4.38-2.74,35.37,35.37,0,0,0,4.63-4.22c1-1.11,1.9-2.1,2.68-3.05l1.36-1.61c2.66-3.14,5.4-6.4,7-10.38s2-7.6.94-11c-1.39-4.4-3.28-8.87-7.71-11.72a19.6,19.6,0,0,0-11.44-3.5,3.09,3.09,0,0,1-1.07-.06,3.38,3.38,0,0,1,.05-1.15v-.06a6.92,6.92,0,0,0-.79-4.85,5,5,0,0,0-6.17-2.11,5.12,5.12,0,0,0-1.46.77,5.84,5.84,0,0,0-1.35,7.82c.34.53.72,1,1.17,1.59l.48.62-.26.16a8.21,8.21,0,0,1-.88.53c-.21.11-.44.21-.68.31a6.05,6.05,0,0,0-1,.49c-.95.58-1.91,1.25-2.88,2a74.19,74.19,0,0,0-7.29,6.53,27.42,27.42,0,0,0-5,7.18,1.59,1.59,0,0,1-.36.49h0c-.09.07-.35.26-.89-.32a2.78,2.78,0,0,1-.35-.46,4.91,4.91,0,0,0-.4-.53A6.8,6.8,0,0,0,297,151a4.23,4.23,0,0,0-2.66.89,6.84,6.84,0,0,0-2.2,3.17,4.79,4.79,0,0,0,1.42,5.45c1.26,1.13,3.22,2.5,5.75,1.21l.1-.06Z"/><path class="cls-6" d="M330.39,130.21a9.45,9.45,0,0,1,.05,3.22v.06a8.41,8.41,0,0,0-.08.85c.2,0,.53,0,.77,0h.34a1.8,1.8,0,0,1-.31-.14l-.14-.07-.46-.2.08-.5a6.91,6.91,0,0,0-.24-3.21m-28.1,23.3c.11.14.21.28.3.41a4,4,0,0,0,.33.43.92.92,0,0,0,.4.3s0,0,.06,0a1,1,0,0,0,.27-.37,34.63,34.63,0,0,1,1.75-3.07q-.91,1.25-1.68,2.52l-.39.64-.57-.46-.47-.38m18.51-27.36A8.08,8.08,0,0,1,323,125a5.42,5.42,0,0,1,5.83,1.63,7.76,7.76,0,0,1,2.44,6.91c.21.09.35.21.48.2,3.27-.26,6.2.85,9.13,2.15a16.13,16.13,0,0,1,6.08,4.72,33.55,33.55,0,0,1,3.17,5.34,17,17,0,0,1,1.75,10,19,19,0,0,1-2.51,7.47c-2.29,4-5.45,7.42-8.58,10.81-.7.76-1.49,1.45-2.16,2.24a33.66,33.66,0,0,1-5.19,4.79,38,38,0,0,1-5.3,3.36c-4.38,2.26-7.7,3.11-12.24,1.77a25.72,25.72,0,0,1-9.85-4.84,27.07,27.07,0,0,1-5.94-8.07A16.12,16.12,0,0,1,299,165.2c.06-.62.14-1.23.24-2.09-3.19.93-5.28-.74-7.22-2.62-1.52-1.49-1.78-4.62-.63-6.87a7.72,7.72,0,0,1,2.16-2.7,5.22,5.22,0,0,1,.88-.55c2-1.05,4-.43,5.75.64a30.32,30.32,0,0,1,3,2.37c3.61-6,8.82-10.42,14.39-14.62.88-.67,1.76-1.32,2.66-2-.28-.42-.6-.94-.94-1.46A6.67,6.67,0,0,1,320.8,126.15Zm12.63,53.71a35.36,35.36,0,0,0,4.58-4.18c.91-1,1.81-2,2.67-3,3.11-3.75,6.46-7.31,8.37-11.92,1.45-3.51,2.08-7.07.92-10.75-1.43-4.54-3.31-8.8-7.57-11.55A19.41,19.41,0,0,0,331.14,135c-1.56.05-1.54,0-1.35-1.63a6.49,6.49,0,0,0-.73-4.63,4.74,4.74,0,0,0-5.8-2,4.45,4.45,0,0,0-1.36.72,5.48,5.48,0,0,0-1.28,7.38c.5.78,1.11,1.49,1.85,2.48-.62.38-1,.66-1.46.89s-1.16.46-1.69.78c-1,.61-1.93,1.27-2.85,2a72.13,72.13,0,0,0-7.26,6.5,27.3,27.3,0,0,0-5,7.1,1.66,1.66,0,0,1-.46.6c-.38.29-.83.17-1.33-.36-.28-.3-.47-.68-.75-1a6.51,6.51,0,0,0-4.69-2.43,3.89,3.89,0,0,0-2.47.82,6.63,6.63,0,0,0-2.09,3,4.44,4.44,0,0,0,1.34,5.1c1.56,1.41,3.27,2.24,5.38,1.16.09,0,.19-.13.28-.12a3.31,3.31,0,0,1,1.31.15c.48.25.34.76.23,1.25a18.63,18.63,0,0,0-.52,3.22c-.17,4.58,2,9.07,4.92,12.67a29.43,29.43,0,0,0,8.94,5.5,18.08,18.08,0,0,0,8.12.75,20.12,20.12,0,0,0,6.65-2.32A29.25,29.25,0,0,0,333.43,179.86Z"/></g><path id="Path_2677" data-name="Path 2677" class="cls-7" d="M326.59,161c-2,2.31-3.52,5.59-1.93,7.89s5.23,2.2,8.7-1.36c2.31-2.36,4.39-6.23,1.77-8.48-2.24-1.92-6.31-.75-8.52,1.93"/><g id="Group_1250" data-name="Group 1250"><g id="Group_1248" data-name="Group 1248"><path id="Path_2678" data-name="Path 2678" class="cls-8" d="M321.35,165.47c2.28-1.73-.39-5.27-2.68-3.55S319.06,167.19,321.35,165.47Z"/></g><g id="Group_1249" data-name="Group 1249"><path id="Path_2679" data-name="Path 2679" class="cls-8" d="M330.68,156c2.29-1.73-.39-5.27-2.67-3.55S328.39,157.68,330.68,156Z"/></g></g><g id="Group_1254" data-name="Group 1254"><g id="Group_1253" data-name="Group 1253"><g id="Group_1251" data-name="Group 1251"><path id="Path_2680" data-name="Path 2680" class="cls-8" d="M327.66,167.62a2.57,2.57,0,0,0,2.44-2.09,3.89,3.89,0,0,0-1.62-3.42c-.56-.45-1.23.43-.68.88,1.25,1,1.93,3.27-.27,3.53a.55.55,0,0,0-.46.64.56.56,0,0,0,.59.46Z"/></g><g id="Group_1252" data-name="Group 1252"><path id="Path_2681" data-name="Path 2681" class="cls-8" d="M332.31,161.62c-.22,2.2-2.44,1.63-3.52.38-.46-.54-1.35.13-.88.67a4.06,4.06,0,0,0,3.29,1.59,2.52,2.52,0,0,0,2.21-2.48c.07-.71-1-.87-1.1-.16Z"/></g></g><path id="Path_2682" data-name="Path 2682" class="cls-6" d="M328.76,162.71c2.19-2.33-.27-4.48-2.4-2.31-2.51,2.56,0,4.84,2.4,2.31"/></g></g><g class="cls-9"><path class="cls-10" d="M94.8,84.5s-.37.09-1,.29"/><path class="cls-11" d="M92,85.57c-2.44,1.2-5.52,3.53-5.14,7.49.62,6.47,12,7.42,10.48,16.36a17,17,0,0,1-6.85,11.13"/><path class="cls-10" d="M89.62,121.11a9.46,9.46,0,0,1-.87.49"/><path class="cls-10" d="M97.56,65.57s-.37.09-1,.29"/><path class="cls-11" d="M94.74,66.64c-2.44,1.2-5.53,3.52-5.15,7.49.62,6.46,12,7.41,10.48,16.35a17,17,0,0,1-6.84,11.14"/><path class="cls-10" d="M92.38,102.18a9.06,9.06,0,0,1-.87.48"/></g><g class="cls-9"><path class="cls-10" d="M324.83,216.46a9.23,9.23,0,0,0-.94.33"/><path class="cls-11" d="M322.05,217.63c-2.39,1.3-5.39,3.73-4.86,7.68.86,6.44,12.24,7,11.08,15.95a16.87,16.87,0,0,1-6.43,11.38"/><path class="cls-10" d="M321,253.24a8.4,8.4,0,0,1-.86.51"/><path class="cls-10" d="M326.88,197.44s-.37.1-.95.32"/><path class="cls-11" d="M324.1,198.61c-2.4,1.29-5.39,3.73-4.86,7.68.85,6.43,12.24,7,11.08,16a16.94,16.94,0,0,1-6.43,11.38"/><path class="cls-10" d="M323.06,234.21a7.18,7.18,0,0,1-.85.52"/></g></g></g></svg>