<svg xmlns="http://www.w3.org/2000/svg" viewBox="0 0 421.8 595.28"><defs><style>.cls-1{isolation:isolate;}.cls-2{fill:#8cbdd8;}.cls-3{fill:#fcfbf8;}.cls-4{fill:#bcd7e9;}.cls-5{fill:#b3ccdd;}.cls-6{fill:#ecf3f4;}.cls-7{fill:#e1eeee;}.cls-8{fill:#f8b5c3;}.cls-10,.cls-9{fill:#b7b3c4;}.cls-9{opacity:0.2;mix-blend-mode:multiply;}.cls-11{fill:#c9c7d6;}.cls-12{fill:#ffce3f;}.cls-13{fill:#fcc21e;}.cls-14{fill:#362d26;opacity:0.5;mix-blend-mode:soft-light;}.cls-15{fill:#cfdfea;opacity:0.6;}.cls-16,.cls-17{fill:#fff;}.cls-16{opacity:0.68;}.cls-17{opacity:0.65;}</style></defs><g class="cls-1"><g id="PRINT"><rect class="cls-2" x="-8.53" y="-8.5" width="438.86" height="612.28"/><path class="cls-3" d="M414.7,586.31h-2.09v-2h2.09Zm0-4.09h-2.09v-2h2.09Zm0-4.09h-2.09v-2h2.09Zm0-4.09h-2.09v-2h2.09Zm0-4.09h-2.09V567.9h2.09Zm0-4.09h-2.09v-2.05h2.09Zm0-4.09h-2.09v-2h2.09Zm0-4.09h-2.09v-2h2.09Zm0-4.09h-2.09v-2.05h2.09Zm0-4.09h-2.09v-2h2.09Zm0-4.09h-2.09v-2h2.09Zm0-4.09h-2.09v-2.05h2.09Zm0-4.1h-2.09v-2h2.09Zm0-4.09h-2.09v-2h2.09Zm0-4.09h-2.09v-2h2.09Zm0-4.09h-2.09v-2h2.09Zm0-4.09h-2.09v-2h2.09Zm0-4.09h-2.09v-2h2.09Zm0-4.09h-2.09v-2h2.09Zm0-4.09h-2.09v-2h2.09Zm0-4.09h-2.09v-2h2.09Zm0-4.09h-2.09v-2.05h2.09Zm0-4.09h-2.09v-2.05h2.09Zm0-4.09h-2.09v-2.05h2.09Zm0-4.09h-2.09v-2.05h2.09Zm0-4.09h-2.09V482h2.09Zm0-4.09h-2.09v-2h2.09Zm0-4.09h-2.09v-2.05h2.09Zm0-4.09h-2.09v-2h2.09Zm0-4.09h-2.09v-2.05h2.09Zm0-4.1h-2.09v-2h2.09Zm0-4.09h-2.09v-2h2.09Zm0-4.09h-2.09v-2h2.09Zm0-4.09h-2.09v-2h2.09Zm0-4.09h-2.09v-2h2.09Zm0-4.09h-2.09v-2h2.09Zm0-4.09h-2.09v-2h2.09Zm0-4.09h-2.09v-2h2.09Zm0-4.09h-2.09v-2.05h2.09Zm0-4.09h-2.09v-2h2.09Zm0-4.09h-2.09v-2.05h2.09Zm0-4.09h-2.09v-2.05h2.09Zm0-4.09h-2.09v-2.05h2.09Zm0-4.09h-2.09v-2.05h2.09Zm0-4.09h-2.09v-2.05h2.09Zm0-4.09h-2.09v-2.05h2.09Zm0-4.09h-2.09v-2h2.09Zm0-4.09h-2.09V392h2.09Zm0-4.1h-2.09v-2h2.09Zm0-4.09h-2.09v-2h2.09Zm0-4.09h-2.09v-2h2.09Zm0-4.09h-2.09v-2h2.09Zm0-4.09h-2.09v-2h2.09Zm0-4.09h-2.09v-2h2.09Zm0-4.09h-2.09v-2h2.09Zm0-4.09h-2.09v-2h2.09Zm0-4.09h-2.09v-2h2.09Zm0-4.09h-2.09v-2h2.09Zm0-4.09h-2.09V347h2.09Zm0-4.09h-2.09v-2.05h2.09Zm0-4.09h-2.09v-2.05h2.09Zm0-4.09h-2.09v-2.05h2.09Zm0-4.09h-2.09v-2.05h2.09Zm0-4.09h-2.09v-2.05h2.09Zm0-4.09h-2.09v-2h2.09Zm0-4.1h-2.09v-2h2.09Zm0-4.09h-2.09v-2h2.09Zm0-4.09h-2.09v-2h2.09Zm0-4.09h-2.09v-2h2.09Zm0-4.09h-2.09v-2h2.09Zm0-4.09h-2.09v-2h2.09Zm0-4.09h-2.09v-2h2.09Zm0-4.09h-2.09v-2h2.09Zm0-4.09h-2.09v-2h2.09Zm0-4.09h-2.09v-2.05h2.09Zm0-4.09h-2.09v-2h2.09Zm0-4.09h-2.09v-2.05h2.09Zm0-4.09h-2.09v-2h2.09Zm0-4.09h-2.09V265.2h2.09Zm0-4.09h-2.09v-2.05h2.09Zm0-4.09h-2.09V257h2.09Zm0-4.09h-2.09v-2h2.09Zm0-4.09h-2.09v-2h2.09Zm0-4.09h-2.09v-2.05h2.09Zm0-4.1h-2.09v-2h2.09Zm0-4.09h-2.09v-2h2.09Zm0-4.09h-2.09v-2h2.09Zm0-4.09h-2.09v-2h2.09Zm0-4.09h-2.09v-2h2.09Zm0-4.09h-2.09v-2h2.09Zm0-4.09h-2.09v-2h2.09Zm0-4.09h-2.09v-2h2.09Zm0-4.09h-2.09v-2h2.09Zm0-4.09h-2.09v-2h2.09Zm0-4.09h-2.09v-2.05h2.09Zm0-4.09h-2.09v-2.05h2.09Zm0-4.09h-2.09v-2.05h2.09Zm0-4.09h-2.09v-2.05h2.09Zm0-4.09h-2.09v-2.05h2.09Zm0-4.09h-2.09v-2h2.09Zm0-4.09h-2.09v-2h2.09Zm0-4.09h-2.09v-2h2.09Zm0-4.09h-2.09V167h2.09Zm0-4.09h-2.09v-2.05h2.09Zm0-4.1h-2.09v-2h2.09Zm0-4.09h-2.09v-2h2.09Zm0-4.09h-2.09v-2h2.09Zm0-4.09h-2.09v-2h2.09Zm0-4.09h-2.09v-2h2.09Zm0-4.09h-2.09v-2h2.09Zm0-4.09h-2.09v-2h2.09Zm0-4.09h-2.09v-2h2.09Zm0-4.09h-2.09v-2h2.09Zm0-4.09h-2.09v-2h2.09Zm0-4.09h-2.09v-2h2.09Zm0-4.09h-2.09v-2.05h2.09Zm0-4.09h-2.09v-2h2.09Zm0-4.09h-2.09v-2h2.09Zm0-4.09h-2.09v-2h2.09Zm0-4.09h-2.09V97.49h2.09Zm0-4.09h-2.09v-2h2.09Zm0-4.1h-2.09v-2h2.09Zm0-4.09h-2.09v-2h2.09Zm0-4.09h-2.09v-2h2.09Zm0-4.09h-2.09V77h2.09Zm0-4.09h-2.09V73h2.09Zm0-4.09h-2.09v-2h2.09Zm0-4.09h-2.09v-2h2.09Zm0-4.09h-2.09v-2h2.09Zm0-4.09h-2.09v-2h2.09Zm0-4.09h-2.09v-2h2.09Zm0-4.09h-2.09V48.4h2.09Zm0-4.09h-2.09v-2h2.09Zm0-4.09h-2.09V40.22h2.09Zm0-4.09h-2.09v-2h2.09Zm0-4.09h-2.09V32h2.09Zm0-4.09h-2.09V28h2.09Zm0-4.09h-2.09V23.86h2.09Zm0-4.09h-2.09V19.77h2.09Zm0-4.09h-2.09V15.68h2.09Zm0-4.1h-2.09v-2h2.09Zm0-4.09h-2.09v-2h2.09Z"/><path class="cls-3" d="M9.18,587.78H7.1v-2H9.18Zm0-4.09H7.1v-2.05H9.18Zm0-4.1H7.1v-2H9.18Zm0-4.09H7.1v-2H9.18Zm0-4.09H7.1v-2H9.18Zm0-4.09H7.1v-2H9.18Zm0-4.09H7.1v-2H9.18Zm0-4.09H7.1v-2H9.18Zm0-4.09H7.1v-2H9.18Zm0-4.09H7.1v-2H9.18Zm0-4.09H7.1v-2H9.18Zm0-4.09H7.1v-2H9.18Zm0-4.09H7.1v-2.05H9.18Zm0-4.09H7.1v-2.05H9.18Zm0-4.09H7.1v-2H9.18Zm0-4.09H7.1v-2H9.18Zm0-4.09H7.1v-2.05H9.18Zm0-4.09H7.1v-2H9.18Zm0-4.09H7.1v-2H9.18Zm0-4.09H7.1V508H9.18Zm0-4.09H7.1v-2.05H9.18Zm0-4.09H7.1v-2.05H9.18Zm0-4.1H7.1v-2H9.18Zm0-4.09H7.1v-2H9.18Zm0-4.09H7.1v-2H9.18Zm0-4.09H7.1v-2H9.18Zm0-4.09H7.1v-2H9.18Zm0-4.09H7.1v-2H9.18Zm0-4.09H7.1v-2H9.18Zm0-4.09H7.1v-2H9.18Zm0-4.09H7.1V463H9.18Zm0-4.09H7.1v-2.05H9.18Zm0-4.09H7.1v-2.05H9.18Zm0-4.09H7.1v-2.05H9.18Zm0-4.09H7.1v-2.05H9.18Zm0-4.09H7.1v-2.05H9.18Zm0-4.09H7.1v-2H9.18Zm0-4.09H7.1v-2.05H9.18Zm0-4.09H7.1v-2H9.18Zm0-4.09H7.1V426.2H9.18Zm0-4.1H7.1v-2H9.18Zm0-4.09H7.1v-2H9.18Zm0-4.09H7.1v-2H9.18Zm0-4.09H7.1v-2H9.18Zm0-4.09H7.1v-2H9.18Zm0-4.09H7.1v-2H9.18Zm0-4.09H7.1v-2H9.18Zm0-4.09H7.1v-2H9.18Zm0-4.09H7.1v-2H9.18Zm0-4.09H7.1v-2H9.18Zm0-4.09H7.1V381.2H9.18Zm0-4.09H7.1v-2.05H9.18Zm0-4.09H7.1V373H9.18Zm0-4.09H7.1v-2.05H9.18Zm0-4.09H7.1v-2.05H9.18Zm0-4.09H7.1v-2.05H9.18Zm0-4.09H7.1v-2H9.18Zm0-4.09H7.1v-2.05H9.18Zm0-4.1H7.1v-2H9.18Zm0-4.09H7.1v-2H9.18Zm0-4.09H7.1v-2H9.18Zm0-4.09H7.1v-2H9.18Zm0-4.09H7.1v-2H9.18Zm0-4.09H7.1v-2H9.18Zm0-4.09H7.1v-2H9.18Zm0-4.09H7.1v-2H9.18Zm0-4.09H7.1v-2H9.18Zm0-4.09H7.1v-2H9.18Zm0-4.09H7.1v-2.05H9.18Zm0-4.09H7.1v-2H9.18Zm0-4.09H7.1v-2.05H9.18Zm0-4.09H7.1V295.3H9.18Zm0-4.09H7.1v-2.05H9.18Zm0-4.09H7.1v-2.05H9.18Zm0-4.09H7.1V283H9.18Zm0-4.09H7.1v-2.05H9.18Zm0-4.09H7.1v-2H9.18Zm0-4.1H7.1v-2H9.18Zm0-4.09H7.1v-2H9.18Zm0-4.09H7.1v-2H9.18Zm0-4.09H7.1v-2H9.18Zm0-4.09H7.1v-2H9.18Zm0-4.09H7.1v-2H9.18Zm0-4.09H7.1v-2H9.18Zm0-4.09H7.1v-2H9.18Zm0-4.09H7.1V238H9.18Zm0-4.09H7.1v-2.05H9.18Zm0-4.09H7.1v-2.05H9.18Zm0-4.09H7.1v-2.05H9.18Zm0-4.09H7.1v-2.05H9.18Zm0-4.09H7.1v-2H9.18Zm0-4.09H7.1v-2H9.18Zm0-4.09H7.1v-2H9.18Zm0-4.09H7.1v-2.05H9.18Zm0-4.09H7.1v-2.05H9.18Zm0-4.1H7.1v-2H9.18Zm0-4.09H7.1v-2H9.18Zm0-4.09H7.1v-2H9.18Zm0-4.09H7.1v-2H9.18Zm0-4.09H7.1v-2H9.18Zm0-4.09H7.1v-2H9.18Zm0-4.09H7.1v-2H9.18Zm0-4.09H7.1v-2H9.18Zm0-4.09H7.1v-2H9.18Zm0-4.09H7.1v-2.05H9.18Zm0-4.09H7.1v-2.05H9.18Zm0-4.09H7.1v-2.05H9.18Zm0-4.09H7.1V148H9.18Zm0-4.09H7.1V144H9.18Zm0-4.09H7.1v-2H9.18Zm0-4.09H7.1v-2H9.18Zm0-4.09H7.1v-2H9.18Zm0-4.09H7.1v-2H9.18Zm0-4.1H7.1v-2H9.18Zm0-4.09H7.1v-2H9.18Zm0-4.09H7.1v-2H9.18Zm0-4.09H7.1v-2H9.18Zm0-4.09H7.1v-2H9.18Zm0-4.09H7.1v-2H9.18Zm0-4.09H7.1V99H9.18Zm0-4.09H7.1v-2H9.18Zm0-4.09H7.1v-2H9.18Zm0-4.09H7.1v-2H9.18Zm0-4.09H7.1v-2H9.18Zm0-4.09H7.1v-2H9.18Zm0-4.09H7.1v-2H9.18Zm0-4.09H7.1V70.32H9.18Zm0-4.09H7.1v-2H9.18Zm0-4.09H7.1v-2H9.18Zm0-4.09H7.1V58.05H9.18Zm0-4.09H7.1V54H9.18Zm0-4.1H7.1v-2H9.18Zm0-4.09H7.1v-2H9.18Zm0-4.09H7.1v-2H9.18Zm0-4.09H7.1v-2H9.18Zm0-4.09H7.1v-2H9.18Zm0-4.09H7.1v-2H9.18Zm0-4.09H7.1v-2H9.18Zm0-4.09H7.1v-2H9.18Zm0-4.09H7.1V17.14H9.18Zm0-4.09H7.1v-2H9.18Zm0-4.09H7.1V9H9.18Z"/><path class="cls-3" d="M413.62,588.8h-2.1v-2h2.1Zm-4.19,0h-2.09v-2h2.09Zm-4.19,0h-2.09v-2h2.09Zm-4.19,0H399v-2h2.09Zm-4.18,0h-2.1v-2h2.1Zm-4.19,0h-2.1v-2h2.1Zm-4.19,0H386.4v-2h2.09Zm-4.19,0h-2.09v-2h2.09Zm-4.18,0H378v-2h2.1Zm-4.19,0h-2.1v-2h2.1Zm-4.19,0h-2.09v-2h2.09Zm-4.19,0h-2.09v-2h2.09Zm-4.19,0h-2.09v-2h2.09Zm-4.18,0h-2.1v-2h2.1Zm-4.19,0H352.9v-2H355Zm-4.19,0h-2.09v-2h2.09Zm-4.19,0h-2.09v-2h2.09Zm-4.18,0h-2.1v-2h2.1Zm-4.19,0h-2.09v-2h2.09Zm-4.19,0H332v-2h2.09Zm-4.19,0h-2.09v-2h2.09Zm-4.18,0h-2.1v-2h2.1Zm-4.19,0h-2.1v-2h2.1Zm-4.19,0h-2.09v-2h2.09Zm-4.19,0H311v-2h2.09Zm-4.19,0h-2.09v-2h2.09Zm-4.18,0h-2.1v-2h2.1Zm-4.19,0h-2.09v-2h2.09Zm-4.19,0h-2.09v-2h2.09Zm-4.19,0h-2.09v-2h2.09Zm-4.18,0h-2.1v-2H288Zm-4.19,0h-2.1v-2h2.1Zm-4.19,0h-2.09v-2h2.09Zm-4.19,0h-2.09v-2h2.09Zm-4.19,0h-2.09v-2h2.09Zm-4.18,0H265v-2h2.1Zm-4.19,0h-2.09v-2h2.09Zm-4.19,0h-2.09v-2h2.09Zm-4.19,0h-2.09v-2h2.09Zm-4.18,0h-2.1v-2h2.1Zm-4.19,0H244v-2h2.09Zm-4.19,0h-2.09v-2h2.09Zm-4.19,0h-2.09v-2h2.09Zm-4.18,0h-2.1v-2h2.1Zm-4.19,0h-2.1v-2h2.1Zm-4.19,0h-2.09v-2h2.09Zm-4.19,0h-2.09v-2H221Zm-4.19,0H214.7v-2h2.09Zm-4.18,0h-2.1v-2h2.1Zm-4.19,0h-2.09v-2h2.09Zm-4.19,0h-2.09v-2h2.09Zm-4.19,0H198v-2H200Zm-4.18,0h-2.1v-2h2.1Zm-4.19,0h-2.1v-2h2.1Zm-4.19,0h-2.09v-2h2.09Zm-4.19,0H181.2v-2h2.09Zm-4.18,0H177v-2h2.1Zm-4.19,0h-2.1v-2h2.1Zm-4.19,0h-2.09v-2h2.09Zm-4.19,0h-2.09v-2h2.09Zm-4.19,0h-2.09v-2h2.09Zm-4.18,0h-2.1v-2h2.1Zm-4.19,0h-2.09v-2H154Zm-4.19,0H147.7v-2h2.09Zm-4.19,0h-2.09v-2h2.09Zm-4.18,0h-2.1v-2h2.1Zm-4.19,0h-2.1v-2h2.1Zm-4.19,0H131v-2H133Zm-4.19,0h-2.09v-2h2.09Zm-4.18,0h-2.1v-2h2.1Zm-4.19,0h-2.1v-2h2.1Zm-4.19,0H114.2v-2h2.09Zm-4.19,0H110v-2h2.09Zm-4.19,0h-2.09v-2h2.09Zm-4.18,0h-2.1v-2h2.1Zm-4.19,0H97.45v-2h2.09Zm-4.19,0H93.26v-2h2.09Zm-4.19,0H89.07v-2h2.09Zm-4.18,0h-2.1v-2H87Zm-4.19,0h-2.1v-2h2.1Zm-4.19,0H76.51v-2H78.6Zm-4.19,0H72.32v-2h2.09Zm-4.19,0H68.13v-2h2.09Zm-4.18,0h-2.1v-2H66Zm-4.19,0H59.76v-2h2.09Zm-4.19,0H55.57v-2h2.09Zm-4.19,0H51.38v-2h2.09Zm-4.18,0h-2.1v-2h2.1Zm-4.19,0H43v-2h2.1Zm-4.19,0H38.82v-2h2.09Zm-4.19,0H34.63v-2h2.09Zm-4.18,0h-2.1v-2h2.1Zm-4.19,0h-2.1v-2h2.1Zm-4.19,0H22.07v-2h2.09Zm-4.19,0H17.88v-2H20Zm-4.19,0H13.69v-2h2.09Zm-4.18,0H9.5v-2h2.1Z"/><path class="cls-3" d="M412.25,8.52h-2.09v-2h2.09Zm-4.18,0H406v-2h2.1Zm-4.19,0h-2.1v-2h2.1Zm-4.19,0H397.6v-2h2.09Zm-4.19,0h-2.09v-2h2.09Zm-4.18,0h-2.1v-2h2.1Zm-4.19,0H385v-2h2.1Zm-4.19,0h-2.09v-2h2.09Zm-4.19,0h-2.09v-2h2.09Zm-4.19,0h-2.09v-2h2.09Zm-4.18,0h-2.1v-2h2.1Zm-4.19,0h-2.1v-2h2.1Zm-4.19,0h-2.09v-2H362Zm-4.19,0h-2.09v-2h2.09Zm-4.18,0h-2.1v-2h2.1Zm-4.19,0h-2.1v-2h2.1Zm-4.19,0h-2.09v-2h2.09Zm-4.19,0H339v-2h2.09Zm-4.19,0h-2.09v-2h2.09Zm-4.18,0h-2.1v-2h2.1Zm-4.19,0h-2.09v-2h2.09Zm-4.19,0h-2.09v-2h2.09Zm-4.19,0H318v-2h2.09Zm-4.18,0h-2.1v-2h2.1Zm-4.19,0h-2.1v-2h2.1Zm-4.19,0h-2.09v-2h2.09Zm-4.19,0h-2.09v-2h2.09Zm-4.18,0h-2.1v-2h2.1Zm-4.19,0h-2.1v-2H295Zm-4.19,0h-2.09v-2h2.09Zm-4.19,0h-2.09v-2h2.09Zm-4.19,0h-2.09v-2h2.09Zm-4.18,0h-2.1v-2h2.1Zm-4.19,0H272v-2h2.1Zm-4.19,0h-2.09v-2h2.09Zm-4.19,0h-2.09v-2h2.09Zm-4.18,0h-2.1v-2h2.1Zm-4.19,0h-2.1v-2h2.1Zm-4.19,0H251v-2h2.09Zm-4.19,0h-2.09v-2h2.09Zm-4.18,0h-2.1v-2h2.1Zm-4.19,0h-2.1v-2h2.1Zm-4.19,0h-2.09v-2h2.09Zm-4.19,0h-2.09v-2h2.09Zm-4.19,0H225.9v-2H228Zm-4.18,0h-2.1v-2h2.1Zm-4.19,0h-2.1v-2h2.1Zm-4.19,0h-2.09v-2h2.09Zm-4.19,0h-2.09v-2h2.09Zm-4.18,0H205v-2h2.1Zm-4.19,0h-2.1v-2h2.1Zm-4.19,0h-2.09v-2h2.09Zm-4.19,0H192.4v-2h2.09Zm-4.19,0h-2.09v-2h2.09Zm-4.18,0H184v-2h2.1Zm-4.19,0h-2.09v-2h2.09Zm-4.19,0h-2.09v-2h2.09Zm-4.19,0h-2.09v-2h2.09Zm-4.18,0h-2.1v-2h2.1Zm-4.19,0h-2.1v-2h2.1Zm-4.19,0H158.9v-2H161Zm-4.19,0h-2.09v-2h2.09Zm-4.18,0h-2.1v-2h2.1Zm-4.19,0h-2.1v-2h2.1Zm-4.19,0h-2.09v-2h2.09Zm-4.19,0H138v-2h2.09Zm-4.19,0h-2.09v-2h2.09Zm-4.18,0h-2.1v-2h2.1Zm-4.19,0H125.4v-2h2.09Zm-4.19,0h-2.09v-2h2.09Zm-4.19,0H117v-2h2.09Zm-4.18,0h-2.1v-2h2.1Zm-4.19,0h-2.1v-2h2.1Zm-4.19,0h-2.09v-2h2.09Zm-4.19,0h-2.09v-2h2.09Zm-4.18,0h-2.1v-2h2.1ZM94,8.52h-2.1v-2H94Zm-4.19,0H87.71v-2H89.8Zm-4.19,0H83.52v-2h2.09Zm-4.19,0H79.33v-2h2.09Zm-4.18,0h-2.1v-2h2.1Zm-4.19,0H71v-2h2.09Zm-4.19,0H66.77v-2h2.09Zm-4.19,0H62.58v-2h2.09Zm-4.18,0h-2.1v-2h2.1Zm-4.19,0H54.2v-2h2.1Zm-4.19,0H50v-2h2.09Zm-4.19,0H45.83v-2h2.09Zm-4.19,0H41.64v-2h2.09Zm-4.18,0h-2.1v-2h2.1Zm-4.19,0H33.27v-2h2.09Zm-4.19,0H29.08v-2h2.09ZM27,8.52H24.89v-2H27Zm-4.18,0H20.7v-2h2.1Zm-4.19,0h-2.1v-2h2.1Zm-4.19,0H12.33v-2h2.09Zm-4.19,0H8.14v-2h2.09Z"/><polygon class="cls-4" points="-8.08 518.74 -8.08 554.82 201.91 542.82 201.91 530.82 -8.08 518.74"/><polygon class="cls-4" points="430.41 518.74 430.41 554.82 220.42 542.82 220.42 530.82 430.41 518.74"/><path class="cls-5" d="M201.91,530.82,117.44,526c-2.4,5.81-2.28,13.16-.62,18.68a15.16,15.16,0,0,0,1,3l84.08-4.8Z"/><path class="cls-5" d="M300.84,526.19l-80.42,4.63v12l77.78,4.44a46.24,46.24,0,0,0,2.62-6.62A23,23,0,0,0,300.84,526.19Z"/><path class="cls-3" d="M220.86,534.74l-.08-2,2-.08.08,2Zm4-.16-.09-2,2-.08.08,2Zm4-.17-.08-2,2-.09.08,2Zm4-.16-.08-2,2-.08.08,2Zm4-.16-.08-2,2-.08.08,2Zm4-.16-.08-2,2-.08.08,2Zm4-.17-.08-2,2-.08.08,2Zm4-.16-.09-2,2-.08.08,2Zm4-.16-.08-2,2-.08.08,2Zm4-.16-.08-2,2-.08.08,2Zm4-.17-.09-2,2-.09.08,2Zm4-.16-.08-2,2-.08.08,2Zm4-.16-.08-2,2-.08.08,2Zm4-.16-.09-2,2-.08.08,2Zm4-.17-.08-2,2-.08.08,2Zm4-.16-.08-2,2-.08.08,2Zm4-.16-.09-2,2-.08.08,2Zm4-.17-.08-2,2-.08.08,2Zm4-.16-.08-2,2-.08.08,2Zm4-.16-.09-2,2-.08.09,2Zm4-.16-.08-2,2-.08.08,2Zm4-.16-.08-2,2-.08.08,2Zm4-.17-.08-2,2-.08.08,2Zm4-.16-.08-2,2-.08.08,2Zm4-.16-.08-2,2-.08.08,2Zm4-.17-.08-2,2-.08.08,2Zm4-.16-.08-2,2-.08.08,2Zm4-.16-.08-2,2-.08.08,2Zm4-.16-.09-2,2-.08.09,2Zm4-.17-.08-2,2-.08.08,2Zm4-.16-.08-2,2-.08.08,2Zm4-.16-.09-2,2-.08.08,2Zm4-.16-.08-2,2-.08.08,2Zm4-.17-.08-2,2-.08.08,2Zm4-.16-.08-2,2-.08.09,2Zm4-.16-.08-2,2-.08.08,2Zm4-.16-.08-2,2-.08.08,2Zm4-.17-.08-2,2-.09.08,2Zm4-.16-.08-2,2-.08.08,2Zm4-.16-.08-2,2-.08.08,2Zm4-.16-.08-2,2-.08.09,2Zm4-.17-.08-2,2-.09.08,2Zm4-.16-.08-2,2-.08.08,2Zm4-.16-.08-2,2-.08.08,2Zm4-.16-.08-2,2-.08.08,2Zm4-.17-.08-2,2-.09.08,2Zm4-.16-.08-2,2-.08.08,2Zm4-.16-.08-2,2-.08.08,2Zm4-.16-.08-2,2-.08.08,2Zm4-.17-.08-2,2-.09.08,2Zm4-.16-.08-2,2-.08.08,2Zm4-.16-.08-2,2-.08.08,2Zm4-.16-.08-2,1.17,0,.08,2Z"/><path class="cls-3" d="M429.77,549.74l-1.21-.06.09-2,1.21.06Zm-3.21-.15-2-.09.09-2,2,.09Zm-4-.18-2-.09.09-2,2,.09Zm-4-.18-2-.09.09-2,2,.09Zm-4-.18-2-.09.09-2,2,.09Zm-4-.18-2-.09.09-2,2,.09Zm-4-.19-2-.09.09-2,2,.09Zm-4-.18-2-.09.09-2,2,.1Zm-4-.18-2-.09.09-2,2,.09Zm-4-.18-2-.09.09-2,2,.09Zm-4-.18-2-.09.09-2,2,.09Zm-4-.18-2-.09.1-2,2,.09Zm-4-.19-2-.09.09-2,2,.09Zm-4-.18-2-.09.09-2,2,.1Zm-4-.18-2-.09.09-2,2,.09Zm-4-.18-2-.09.09-2,2,.09Zm-4-.18-2-.09.08-2,2,.09Zm-4-.18-2-.09.09-2,2,.09Zm-4-.18-2-.1.09-2,2,.09Zm-4-.19-2-.09.09-2,2,.1Zm-4-.18-2-.09.09-2,2,.09Zm-4-.18-2-.09.09-2,2,.09Zm-4-.18-2-.09.09-2,2,.09Zm-4-.18-2-.09.1-2,2,.09Zm-4-.18-2-.1.09-2,2,.09Zm-4-.19-2-.09.09-2,2,.1Zm-4-.18-2-.09.09-2,2,.09Zm-4-.18-2-.09.09-2,2,.09Zm-4-.18-2-.09.1-2,2,.09Zm-4-.18-2-.09.09-2,2,.09Zm-4-.18-2-.1.09-2,2,.09Zm-4-.19-2-.09.09-2,2,.1Zm-4-.18-2-.09.09-2,2,.09Zm-4-.18-2-.09.09-2,2,.09Zm-4-.18-2-.09.09-2,2,.09Zm-4-.18-2-.09.09-2,2,.09Zm-4-.18-2-.1.09-2,2,.09Zm-4-.19-2-.09.09-2,2,.1Zm-4-.18-2-.09.1-2,2,.09Zm-4-.18-2-.09.09-2,2,.09Zm-4-.18-2-.09.09-2,2,.09Zm-4-.18-2-.09.09-2,2,.09Zm-4-.18-2-.1.09-2,2,.09Zm-4-.19-2-.09.09-2,2,.09Zm-4-.18-2-.09.09-2,2,.09Zm-4-.18-2-.09.09-2,2,.09Zm-4-.18-2-.09.09-2,2,.09Zm-4-.18-2-.09.09-2,2,.09Zm-4-.18-2-.1.09-2,2,.09Zm-4-.19-2-.09.09-2,2,.09Zm-4-.18-2-.09.1-2,2,.09Zm-4-.18-2-.09.09-2,2,.09Zm-4-.18-2-.09.09-2,2,.09Z"/><path class="cls-3" d="M201.38,534.74l-2-.08.08-2,2,.08Zm-4-.16-2-.09.09-2,2,.08Zm-4-.17-2-.08.08-2,2,.09Zm-4-.16-2-.08.08-2,2,.08Zm-4-.16-2-.08.08-2,2,.08Zm-4-.16-2-.09.08-2,2,.08Zm-4-.17-2-.08.08-2,2,.08Zm-4-.16-2-.08.08-2,2,.08Zm-4-.16-2-.08.08-2,2,.08Zm-4-.16-2-.09.08-2,2,.08Zm-4-.17-2-.08.09-2,2,.09Zm-4-.16-2-.08.08-2,2,.08Zm-4-.16-2-.08.08-2,2,.08Zm-4-.16-2-.09.09-2,2,.08Zm-4-.17-2-.08.08-2,2,.08Zm-4-.16-2-.08.08-2,2,.08Zm-4-.16-2-.08.08-2,2,.08Zm-4-.17-2-.08.08-2,2,.08Zm-4-.16-2-.08.08-2,2,.08Zm-4-.16-2-.08.09-2,2,.08Zm-4-.16-2-.08.08-2,2,.08Zm-4-.16-2-.09.08-2,2,.08Zm-4-.17-2-.08.09-2,2,.08Zm-4-.16-2-.08.08-2,2,.08Zm-4-.16-2-.08.08-2,2,.08Zm-4-.17-2-.08.09-2,2,.08Zm-4-.16-2-.08.08-2,2,.08Zm-4-.16-2-.08.08-2,2,.08Zm-4-.16-2-.08.09-2,2,.08Zm-4-.17-2-.08.08-2,2,.08Zm-4-.16-2-.08.08-2,2,.08Zm-4-.16-2-.08.09-2,2,.08Zm-4-.16-2-.08.08-2,2,.08Zm-4-.17-2-.08.08-2,2,.08Zm-4-.16-2-.08.09-2,2,.08Zm-4-.16-2-.08.08-2,2,.08Zm-4-.16-2-.08.08-2,2,.08Zm-4-.17-2-.08.09-2,2,.09Zm-4-.16-2-.08.08-2,2,.08Zm-4-.16-2-.08.08-2,2,.08Zm-4-.16-2-.08.09-2,2,.08Zm-4-.17-2-.08.08-2,2,.09Zm-4-.16-2-.08.08-2,2,.08Zm-4-.16-2-.08.09-2,2,.08Zm-4-.16-2-.08.08-2,2,.08Zm-4-.17-2-.08.08-2,2,.09Zm-4-.16-2-.08.08-2,2,.08Zm-4-.16-2-.08.08-2,2,.08Zm-4-.16-2-.09.08-2,2,.08Zm-4-.17-2-.08.09-2,2,.09Zm-4-.16-2-.08.08-2,2,.08Zm-4-.16-2-.08.08-2,2,.08Zm-4-.16-1.17,0,.08-2,1.17,0Z"/><path class="cls-3" d="M-7.53,549.74l-.09-2,1.21-.06.09,2Zm3.21-.15-.09-2,2-.09.09,2Zm4-.18-.09-2,2-.09.09,2Zm4-.18-.09-2,2-.09.09,2Zm4-.18-.09-2,2-.09.09,2Zm4-.18-.09-2,2-.09.09,2Zm4-.19-.09-2,2-.09.09,2Zm4-.18-.09-2,2-.1.09,2Zm4-.18-.09-2,2-.09.09,2Zm4-.18-.1-2,2-.09.09,2Zm4-.18-.09-2,2-.09.09,2Zm4-.18-.09-2,2-.09.1,2Zm4-.19-.09-2,2-.09.09,2Zm4-.18-.09-2,2-.1.09,2Zm4-.18-.1-2,2-.09.09,2Zm4-.18-.09-2,2-.09.09,2Zm4-.18-.09-2,2-.09.09,2Zm4-.18-.09-2,2-.09.09,2Zm4-.18-.09-2,2-.09.09,2Zm4-.19-.09-2,2-.1.09,2Zm4-.18-.09-2,2-.09.09,2Zm4-.18-.09-2,2-.09.09,2Zm4-.18-.09-2,2-.09.09,2Zm4-.18-.09-2,2-.09.09,2Zm4-.18-.09-2,2-.09.09,2Zm4-.19-.09-2,2-.1.09,2Zm4-.18-.1-2,2-.09.09,2Zm4-.18-.09-2,2-.09.09,2Zm4-.18-.09-2,2-.09.1,2Zm4-.18-.09-2,2-.09.09,2Zm4-.18-.09-2,2-.09.09,2Zm4-.19-.1-2,2-.1.09,2Zm4-.18-.09-2,2-.09.09,2Zm4-.18-.09-2,2-.09.1,2Zm4-.18-.09-2,2-.09.09,2Zm4-.18-.09-2,2-.09.09,2Zm4-.18-.09-2,2-.09.09,2Zm4-.19-.09-2,2-.1.09,2Zm4-.18-.09-2,2-.09.09,2Zm4-.18-.09-2,2-.09.09,2Zm4-.18-.09-2,2-.09.1,2Zm4-.18-.09-2,2-.09.09,2Zm4-.18-.09-2,2-.09.09,2Zm4-.19-.1-2,2-.09.09,2Zm4-.18-.09-2,2-.09.09,2Zm4-.18-.09-2,2-.09.1,2Zm4-.18-.09-2,2-.09.09,2Zm4-.18-.09-2,2-.09.09,2Zm4-.18-.09-2,2-.09.09,2Zm4-.19-.09-2,2-.09.09,2Zm4-.18-.09-2,2-.09.09,2Zm4-.18-.09-2,2-.09.09,2Zm4-.18-.09-2,2-.09.09,2Z"/><path class="cls-4" d="M205.3,543.27S164,556.06,144.56,589.69l22.68-6s7.15,9.86,6.09,18c0,0,32.49-27.39,36.87-54.8Z"/><path class="cls-5" d="M205.3,543.27a130.55,130.55,0,0,0-32.23,16.44,89.47,89.47,0,0,1,27.71,4,10.12,10.12,0,0,1,2.57,2,59.58,59.58,0,0,0,6.85-18.77Z"/><path class="cls-3" d="M175.94,596.81l-1.3-1.52c.19-.16.55-.47,1-.91l-1.44,0a14.77,14.77,0,0,0-.11-1.87l2-.24c.07.62.11,1.23.12,1.81l1.23,1.36C176.72,596.14,176.19,596.6,175.94,596.81Zm3-2.72-1.37-1.46c.45-.41.93-.87,1.45-1.37l1.39,1.45Zm2.91-2.79-1.4-1.42,1.41-1.41,1.42,1.4C182.81,590.37,182.33,590.85,181.87,591.3Zm-8.06-.65c-.13-.6-.3-1.23-.49-1.85l1.91-.59q.32,1,.54,2Zm10.9-2.22L183.27,587l1.37-1.44L186.1,587Zm-12-1.45c-.25-.63-.51-1.23-.76-1.79l1.81-.84c.27.59.55,1.23.81,1.9Zm-20.54-.68-.33-1.3-1.18-.8c.38-.56.76-1.11,1.15-1.66l1.63,1.16-.18.25.35-.09.49,1.94Zm35.32-.81L186,584.14l1.33-1.48,1.5,1.33ZM156,585.31l-.49-1.94,1.94-.49.49,1.93Zm3.88-1-.5-1.94,1.94-.49.5,1.93Zm11.16-.87c-.38-.71-.72-1.28-1-1.68l1.7-1c.27.42.63,1,1,1.79Zm-7.29-.12-.49-1.94,1.94-.49.49,1.93Zm26.37-.86-1.51-1.3c.43-.5.86-1,1.29-1.52l1.53,1.29C191,581.46,190.58,582,190.14,582.47Zm-22.49-.13-.49-1.94,1.93-.49.5,1.93Zm-13.06-.23-1.6-1.2,1.23-1.61,1.57,1.24Zm38.15-2.73-1.55-1.26c.41-.51.83-1,1.24-1.55l1.57,1.24C193.58,578.34,193.16,578.87,192.74,579.38ZM157,579l-1.55-1.27c.43-.52.87-1,1.31-1.55l1.51,1.31C157.88,578,157.46,578.49,157,579Zm38.2-2.79L193.65,575c.4-.52.79-1,1.19-1.59l1.61,1.19Zm-35.62-.2-1.48-1.34c.45-.5.91-1,1.37-1.49l1.45,1.37C160.51,575,160.06,575.51,159.62,576Zm2.71-2.89-1.42-1.4c.47-.48,1-1,1.43-1.42l1.39,1.42C163.26,572.18,162.8,572.65,162.33,573.12Zm35.3-.16L196,571.81c.38-.54.76-1.08,1.13-1.63l1.66,1.12C198.41,571.86,198,572.42,197.63,573Zm-32.47-2.61-1.37-1.45c.49-.47,1-.92,1.49-1.37l1.34,1.48Zm34.75-.72-1.68-1.1c.36-.55.72-1.1,1.06-1.66l1.7,1C200.64,568.5,200.27,569.06,199.91,569.63Zm-31.81-1.94-1.31-1.5q.77-.68,1.53-1.32l1.29,1.53ZM202,566.2l-1.72-1c.34-.57.67-1.14,1-1.72l1.75,1C202.73,565,202.39,565.62,202,566.2Zm-30.9-1.06-1.26-1.55c.52-.43,1.05-.85,1.58-1.26l1.23,1.58C172.17,564.31,171.65,564.72,171.14,565.14Zm3.12-2.44-1.21-1.6,1.63-1.2,1.17,1.62C175.32,561.9,174.79,562.3,174.26,562.7Zm29.77,0-1.77-.94c.31-.58.6-1.17.89-1.76l1.8.89Zm-26.56-2.3-1.15-1.64,1.65-1.14,1.13,1.65ZM205.82,559l-1.82-.83c.27-.59.54-1.2.79-1.8l1.84.77Q206.24,558.1,205.82,559Zm-25.07-.88-1.1-1.68,1.7-1.09,1.07,1.69C181.86,557.4,181.31,557.76,180.75,558.13ZM184.1,556l-1-1.71c.58-.36,1.16-.7,1.73-1l1,1.72C185.24,555.3,184.67,555.64,184.1,556Zm23.29-.74-1.87-.71c.23-.61.45-1.23.66-1.85l1.89.64C207.86,554,207.63,554.62,207.39,555.26ZM187.52,554l-1-1.74,1.76-1,1,1.75C188.68,553.31,188.1,553.63,187.52,554ZM191,552l-.94-1.76c.6-.33,1.2-.64,1.78-.94l.92,1.78Zm17.7-.64-1.92-.56q.27-.95.51-1.89l1.94.47C209.06,550.08,208.88,550.74,208.69,551.4Zm-14.17-1.18-.89-1.8,1.81-.88.87,1.8C195.73,549.62,195.13,549.91,194.52,550.22Zm3.59-1.73-.84-1.81c.64-.3,1.25-.57,1.84-.83l.81,1.82Zm11.55-1.06-2-.39c.06-.29.11-.59.16-.88l0,0,.06-.06.06-.38.29,0,1-1,.74.77-.08.49C209.84,546.46,209.76,547,209.66,547.43Zm-7.92-.54-.78-1.84,1.87-.78.75,1.86C203,546.35,202.41,546.61,201.74,546.89Zm3.69-1.48-.71-1.87c1.24-.47,1.94-.7,1.94-.7l.59-.2.62.64-.81.79.22.67S206.61,545,205.43,545.41Z"/><path class="cls-4" d="M216.64,537.62s35.51,24.59,44,62.53c0,0-15.87-13.52-19.84-12.51s-6.7,7.74-11.21,15.33c0,0-22.76-35.89-18.68-63.35Z"/><path class="cls-5" d="M247.94,570.78a130.42,130.42,0,0,0-31.3-33.16l-5.76,2c-1.2,8.07-.08,16.88,2.1,25.29a6.46,6.46,0,0,1,2.38-1.23C227.81,559.85,238.56,564,247.94,570.78Z"/><path class="cls-3" d="M229.48,599.79l-.87-1.37s-.31-.49-.84-1.38l1.72-1c.51.85.8,1.32.81,1.33l-.44.28.67.39Zm2.06-3.52-1.74-1,1-1.74,1.75,1Zm-4.79-1c-.3-.53-.63-1.12-1-1.77l1.75-1c.35.64.67,1.22,1,1.74Zm30.69-.46-2.92-1.92.21-.32-.27-.93,1.07-.32.07-.11.1.06.67-.2c.12.38.23.76.34,1.15Zm-23.95-2.05-1.75-1,1-1.75,1.73,1C234.15,591.61,233.82,592.18,233.49,592.78Zm19.35-.93-1.7-1,1-1.72c.63.37,1.21.73,1.73,1Zm-28-.1c-.3-.57-.62-1.16-.94-1.79l1.78-.91.92,1.76Zm24.61-1.94-1.72-1,1-1.75c.6.33,1.2.66,1.77,1Zm4.44,0c-.21-.63-.42-1.25-.65-1.87l1.88-.68c.23.63.45,1.27.67,1.91Zm-18.37-.4-1.68-1.09c.43-.66.83-1.22,1.21-1.71l1.57,1.24C236.25,588.27,235.89,588.78,235.49,589.39ZM223,588.16l-.88-1.81,1.8-.87.87,1.79Zm23-.24c-.6-.3-1.19-.59-1.77-.86l.84-1.81c.6.27,1.22.57,1.84.89Zm-8.13-1.41-1.3-1.51a6,6,0,0,1,2-1.21l.63,1.9A4.18,4.18,0,0,0,237.82,586.51Zm4.58-.21a16.39,16.39,0,0,0-1.77-.56l.44-2a15.18,15.18,0,0,1,2.05.65Zm10.11-.22c-.24-.62-.49-1.22-.75-1.83l1.84-.78c.26.62.52,1.24.77,1.87Zm-31.29-1.56-.83-1.84,1.83-.81c.27.62.55,1.22.82,1.81ZM251,582.45c-.27-.6-.56-1.19-.84-1.78l1.79-.88q.45.9.87,1.83Zm-31.38-1.61c-.26-.61-.52-1.24-.78-1.87l1.86-.75c.25.62.51,1.23.76,1.83Zm29.64-1.94c-.3-.58-.62-1.16-.93-1.73l1.75-1c.32.58.64,1.18,1,1.78Zm-31.16-1.8q-.37-.93-.72-1.89l1.87-.69c.23.62.47,1.24.71,1.85Zm29.25-1.65-1-1.7,1.7-1c.35.57.7,1.15,1,1.74Zm-30.66-2.14c-.22-.63-.44-1.26-.65-1.91l1.9-.63c.21.63.42,1.26.64,1.88Zm28.58-1.23c-.36-.55-.73-1.1-1.1-1.64l1.66-1.13c.37.55.75,1.11,1.12,1.68Zm-29.85-2.6c-.2-.64-.39-1.29-.58-1.94l1.93-.55c.18.63.37,1.27.56,1.9Zm27.62-.66-1.17-1.6,1.6-1.2,1.2,1.63Zm-2.37-3.17c-.41-.53-.83-1-1.24-1.55l1.55-1.26c.42.51.84,1,1.26,1.58Zm-26.36-.06c-.17-.65-.34-1.31-.49-2l1.94-.47.48,1.92Zm23.85-3-1.29-1.5,1.49-1.32c.45.5.89,1,1.33,1.52Zm-24.79-.93c-.14-.67-.27-1.33-.39-2l2-.36c.12.64.25,1.29.38,1.94Zm22.17-2c-.45-.49-.91-1-1.36-1.45l1.45-1.38,1.38,1.47Zm-22.89-2c-.11-.68-.2-1.35-.28-2l2-.24c.07.65.16,1.3.26,2Zm20.15-.91c-.47-.48-.94-.94-1.41-1.39l1.4-1.44,1.43,1.42ZM229.92,554l-1.46-1.35,1.34-1.48c.49.44,1,.9,1.48,1.37Zm-17.79-.37c-.06-.68-.11-1.36-.14-2l2-.09c0,.65.07,1.3.13,2ZM227,551.32q-.76-.68-1.5-1.29l1.28-1.54,1.54,1.32Zm-15-1.78v-.29c0-.59,0-1.18,0-1.76l2,.08c0,.55,0,1.11,0,1.68v.26Zm12-.78-1.55-1.23,1.23-1.58,1.58,1.26Zm-3.13-2.43c-.57-.43-1.11-.82-1.6-1.17l1.16-1.63,1.64,1.2Zm-6.71-.71-2-.18c.06-.68.13-1.36.23-2l2,.28C214.22,544.32,214.15,545,214.09,545.62Zm3.49-1.59-1.24-.81-1,.38-.71-1.87,1.92-.73.41.25s.63.38,1.73,1.12Z"/><path class="cls-6" d="M292.63,537.41s-11.55,22.26-46.49,18.6-31.56-6.76-31.56-6.76S283.05,523,292.63,537.41Z"/><path class="cls-4" d="M216.84,533.19s11.83-6.77,27-21.7,31.27-16.34,35.5-8.45,16.06,28.46,13.24,34.37-15.78-2.82-37.47,7.05-40.58,4.79-40.58,4.79Z"/><path class="cls-5" d="M238.06,517c-12.31,11.11-21.22,16.21-21.22,16.21l-2.26,16a57.8,57.8,0,0,0,17.81,1.09C239.36,541.11,240.82,528.46,238.06,517Z"/><path class="cls-3" d="M226.24,549v-2l2,0,.06,2Zm-2,0c-.72,0-1.39-.05-2-.09l.11-2,2,.08Zm6.09-.08-.11-2c.64,0,1.3-.08,2-.13l.16,2Zm-10.14-.15c-.81-.07-1.49-.14-2-.21l.24-2,1.95.2Zm14.17-.17-.21-2,2-.23.27,2Zm4-.54-.32-2c.64-.1,1.29-.22,1.95-.34l.37,2C239.67,547.8,239,547.92,238.34,548Zm4-.75-.43-2,1.92-.45.48,1.94C243.64,547,243,547.12,242.33,547.27Zm-24.43-.4-2-.23.22-2,2,.22Zm28.37-.59-.55-1.92,1.89-.57.6,1.91C247.56,545.9,246.91,546.1,246.27,546.28Zm3.87-1.22-.67-1.89c.62-.22,1.24-.44,1.85-.68l.72,1.86C251.41,544.6,250.77,544.83,250.14,545.06Zm3.79-1.47-.78-1.84,1.37-.61L255,541l.81,1.82-.42.19C254.88,543.18,254.4,543.39,253.93,543.59Zm-35.59-.7-2-.22.22-2,2,.22Zm39.24-.88-.74-1.86c.64-.26,1.28-.5,1.9-.72l.67,1.89Q258.51,541.64,257.58,542Zm3.69-1.31-.59-1.91c.66-.21,1.31-.4,2-.57l.51,1.93C262.54,540.32,261.91,540.5,261.27,540.7Zm3.78-1-.43-2q1-.22,2-.39l.34,2C266.35,539.42,265.71,539.54,265.05,539.69Zm3.86-.68-.26-2c.69-.09,1.37-.17,2-.23l.17,2C270.22,538.85,269.57,538.92,268.91,539Zm-50.13-.1-2-.22.22-2,2,.22Zm64-.06c-.63,0-1.31,0-2-.06l.09-2c.7,0,1.36.06,2,.06Zm2.12-.09-.24-2a4,4,0,0,0,1.53-.44l1,1.74A6.07,6.07,0,0,1,284.87,538.76Zm-6.16-.06-2-.07,0-2,2,.07Zm-5.91,0-.09-2,2-.06,0,2Zm16.07-2.55-1.84-.78a4,4,0,0,0,.24-1.51l2-.06v.06A5.83,5.83,0,0,1,288.87,536.12Zm-69.65-1.18-2-.22.23-2,1,.11-.47-.93s.63-.32,1.73-.93l1,1.74-1.32.72Zm67.86-3a18.77,18.77,0,0,0-.43-1.87l1.93-.52c.2.73.36,1.41.47,2Zm-64.62-.25-1-1.72c.52-.3,1.09-.65,1.7-1l1.05,1.7Zm3.44-2.12-1.08-1.68,1.66-1.09,1.11,1.66C227,528.88,226.44,529.24,225.9,529.59Zm60.18-1.36c-.2-.6-.42-1.21-.66-1.84l1.87-.71q.38,1,.69,1.92Zm-56.82-.88-1.14-1.64,1.62-1.14,1.17,1.62Zm3.28-2.34-1.19-1.61,1.59-1.19,1.21,1.59Zm52.14-.45c-.25-.6-.51-1.21-.78-1.82l1.83-.81c.27.62.54,1.24.8,1.86Zm-48.94-2L234.5,521c.52-.4,1-.82,1.55-1.24l1.27,1.55Zm47.34-1.62c-.28-.6-.57-1.2-.86-1.8l1.8-.87c.3.6.59,1.21.87,1.82ZM238.87,520l-1.29-1.53,1.51-1.29,1.31,1.51Zm3-2.65-1.33-1.48,1.46-1.34L243.4,516C242.9,516.46,242.41,516.92,241.91,517.36Zm39.43,0-.9-1.78,1.78-.91.91,1.79Zm-36.47-2.75-1.39-1.44.85-.82.59-.57,1.38,1.44-.57.56Zm34.65-.8c-.32-.6-.63-1.19-.94-1.76l1.77-.94.94,1.77Zm-31.78-1.92-1.32-1.49c.51-.46,1-.9,1.54-1.33l1.27,1.55C248.74,511,248.24,511.45,247.74,511.89Zm29.9-1.6-1-1.76,1.76-.95.95,1.76Zm-26.87-.89-1.21-1.59c.56-.42,1.11-.82,1.66-1.2l1.14,1.64C251.83,508.62,251.3,509,250.77,509.4Zm3.22-2.22-1.07-1.7c.59-.37,1.18-.72,1.76-1.05l1,1.75C255.11,506.49,254.55,506.82,254,507.18Zm21.73-.41-.36-.67a5.66,5.66,0,0,0-.58-.89l1.57-1.24a8.71,8.71,0,0,1,.78,1.19l.35.66Zm-18.34-1.5-.88-1.8c.63-.31,1.25-.59,1.87-.85l.78,1.84Q258.28,504.82,257.38,505.27ZM273.54,504a7.41,7.41,0,0,0-1.55-.84l.75-1.85a9.25,9.25,0,0,1,2,1.07ZM261,503.76l-.66-1.89c.67-.23,1.33-.44,2-.61l.52,1.93C262.19,503.35,261.57,503.54,261,503.76Zm3.71-1-.36-2a19.77,19.77,0,0,1,2.08-.27l.16,2A18.33,18.33,0,0,0,264.66,502.77Zm5.6-.08a13.26,13.26,0,0,0-1.84-.21l.08-2a13.2,13.2,0,0,1,2.14.25Z"/><path class="cls-6" d="M125.61,537.41s11.55,22.26,46.49,18.6,31.55-6.76,31.55-6.76S135.19,523,125.61,537.41Z"/><path class="cls-4" d="M201.4,533.19s-11.83-6.77-27.05-21.7-31.27-16.34-35.5-8.45-16.06,28.46-13.24,34.37,15.78-2.82,37.47,7.05,40.57,4.79,40.57,4.79Z"/><path class="cls-5" d="M183.74,550.14a58.91,58.91,0,0,0,19.91-.9l-2.25-16A119.38,119.38,0,0,1,187,522.8,47.88,47.88,0,0,0,183.74,550.14Z"/><path class="cls-3" d="M191.9,549,190,549l.06-2,2,0v2Zm2.14,0-.06-2,2-.08.11,2C195.43,548.91,194.76,548.94,194,549Zm-6.08-.08-2-.13.15-2c.68,0,1.33.1,2,.13Zm10.13-.15-.17-2,2-.2.24,2C199.58,548.59,198.9,548.66,198.09,548.73Zm-14.17-.17-2-.24.27-2c.66.09,1.32.16,2,.23Zm-4-.54c-.66-.1-1.33-.22-2-.35l.37-2c.66.12,1.31.24,1.95.34Zm-4-.75c-.65-.15-1.31-.3-2-.47l.48-1.94,1.92.45Zm24.43-.41-.22-2,2-.22.22,2ZM172,546.28,170,545.7l.6-1.91c.64.2,1.27.39,1.89.56Zm-3.88-1.22c-.63-.23-1.27-.46-1.9-.71l.72-1.86c.62.24,1.23.46,1.85.68Zm-3.79-1.47c-.47-.2-.95-.41-1.42-.63l-.42-.19.81-1.82.43.19,1.39.61Zm35.59-.7-.22-2,2-.22.22,2ZM160.66,542q-.93-.37-1.83-.69l.67-1.89,1.91.72ZM157,540.7c-.64-.2-1.27-.38-1.88-.55l.51-1.93c.65.17,1.3.36,2,.57Zm-3.78-1c-.66-.15-1.3-.27-1.92-.38l.34-2q1,.17,2,.39Zm-3.85-.68q-1-.13-2-.21l.18-2c.65.06,1.33.14,2,.23Zm50.12-.1-.22-2,2-.22.22,2Zm-64-.06,0-2c.61,0,1.26,0,2-.06l.09,2C136.8,538.82,136.12,538.85,135.5,538.85Zm-2.13-.09a6.07,6.07,0,0,1-2.28-.69l1-1.73a4.18,4.18,0,0,0,1.53.43Zm6.16-.06-.09-2,2-.07,0,2Zm5.91,0-2-.06,0-2,2,.06Zm-16.07-2.55a6,6,0,0,1-.4-2.29l2-.06v.06a4,4,0,0,0,.24,1.51ZM199,534.94l-.17-1.5-1.32-.72,1-1.74c1.09.61,1.71.92,1.72.93l-.46.93,1-.11.23,2Zm-67.86-3-2-.35c.11-.63.27-1.31.47-2l1.93.52C131.41,530.76,131.26,531.39,131.16,532Zm64.62-.25-1.73-1,1-1.7c.61.37,1.18.72,1.7,1Zm-3.44-2.12c-.54-.35-1.1-.71-1.69-1.11l1.11-1.66,1.66,1.09Zm-60.18-1.35-1.9-.64c.21-.63.45-1.27.7-1.92l1.86.71C132.58,527,132.36,527.63,132.16,528.24Zm56.82-.89-1.65-1.16,1.17-1.63,1.62,1.15ZM185.7,525c-.53-.39-1.07-.8-1.61-1.22l1.21-1.58,1.59,1.19Zm-52.14-.45-1.85-.77c.26-.61.52-1.23.8-1.86l1.83.81C134.07,523.35,133.81,524,133.56,524.56Zm48.94-2-1.58-1.26,1.27-1.55c.52.42,1,.84,1.55,1.24Zm-47.34-1.62-1.81-.85c.28-.61.57-1.21.87-1.82l1.8.87C135.73,519.74,135.44,520.34,135.16,520.94Zm44.21-.93-1.53-1.31,1.31-1.51,1.51,1.29Zm-3-2.65c-.5-.44-1-.9-1.49-1.36l1.36-1.46,1.46,1.34Zm-39.43,0-1.79-.9.91-1.79,1.78.91Zm36.47-2.75-.86-.83-.57-.56,1.38-1.44.59.57.85.82Zm-34.65-.8-1.77-.93.94-1.77,1.77.94C139.35,512.62,139,513.21,138.72,513.81Zm31.77-1.92c-.49-.44-1-.86-1.49-1.27l1.27-1.55c.52.43,1,.87,1.55,1.33Zm-29.88-1.6-1.76-1,1-1.76,1.76.95Zm26.86-.89c-.53-.4-1.06-.78-1.59-1.15l1.14-1.64q.82.57,1.65,1.2Zm-3.22-2.22c-.56-.36-1.12-.69-1.67-1l1-1.75c.58.33,1.17.68,1.76,1.05Zm-21.73-.41-1.76-.95.35-.66a8.71,8.71,0,0,1,.78-1.19l1.57,1.24a7,7,0,0,0-.59.9Zm18.34-1.5q-.9-.45-1.77-.81l.78-1.84c.62.26,1.24.54,1.87.85ZM144.71,504l-1.17-1.62a9.25,9.25,0,0,1,2-1.07l.75,1.85A7.08,7.08,0,0,0,144.71,504Zm12.58-.27c-.62-.22-1.24-.41-1.84-.57l.52-1.93c.65.17,1.32.38,2,.61Zm-3.71-1a18.33,18.33,0,0,0-1.88-.25l.15-2a19.62,19.62,0,0,1,2.09.27Zm-5.6-.08-.38-2a13.21,13.21,0,0,1,2.13-.25l.09,2A13.26,13.26,0,0,0,148,502.69Z"/><path class="cls-7" d="M215.92,551.54s5.41-11.44,1.91-19.39c0,0-12.71-4.29-16.21-.16-1.91,2.54-4.29,16.53-.16,19.07S215.92,551.54,215.92,551.54Z"/><path class="cls-3" d="M207.5,551.07a18.55,18.55,0,0,1-2.12-.19l.31-2a16.54,16.54,0,0,0,1.87.16Zm2.08,0-.1-2c.68,0,1.34-.09,1.94-.16l.21,2C211,551,210.3,551,209.58,551Zm4.08-.43-.31-2,.48-.08c.13-.31.32-.76.52-1.31l1.88.68c-.43,1.19-.78,1.91-.79,2l-.22.45-.49.1S214.33,550.51,213.66,550.61Zm-10.44-.32a5,5,0,0,1-.73-.37,3.73,3.73,0,0,1-1.24-1.31l1.73-1a1.8,1.8,0,0,0,.56.62l.46.23Zm-2.75-3.86a14.64,14.64,0,0,1-.25-2.14l2-.09a11.84,11.84,0,0,0,.21,1.83Zm16.4-.46-1.91-.56c.17-.58.33-1.21.48-1.88l1.95.44C217.25,544.63,217.07,545.3,216.87,546Zm-14.64-3.68-2-.09c0-.67.09-1.37.17-2.07l2,.24C202.31,541,202.26,541.67,202.23,542.29Zm15.54-.36-2-.29a18.5,18.5,0,0,0,.18-1.89l2,.09C217.94,540.51,217.87,541.21,217.77,541.93Zm-15.09-3.47-2-.37c.14-.73.29-1.41.47-2l1.92.54C203,537.16,202.81,537.79,202.68,538.46Zm13.27-.59a12.63,12.63,0,0,0-.27-1.82l1.95-.46a15.81,15.81,0,0,1,.32,2.13Zm-.29-2.94c-.23-.08-.92-.29-1.87-.54l.51-1.94c1,.27,1.74.5,2,.58Zm-11.94-.06-1.8-.87a4.58,4.58,0,0,1,.42-.72,4.19,4.19,0,0,1,1.43-1.11l.88,1.79a2.31,2.31,0,0,0-.74.57A1.76,1.76,0,0,0,203.72,534.87Zm8.17-.92c-.65-.14-1.3-.24-1.9-.33l.26-2c.65.09,1.34.21,2,.35Zm-5.63-.42-.26-2a13.75,13.75,0,0,1,2.17-.08l-.08,2A11.87,11.87,0,0,0,206.26,533.53Z"/><polygon class="cls-4" points="-8.08 12.74 -8.08 48.82 201.91 36.82 201.91 24.82 -8.08 12.74"/><polygon class="cls-4" points="430.41 12.74 430.41 48.82 220.42 36.82 220.42 24.82 430.41 12.74"/><path class="cls-5" d="M201.91,24.82,117.44,20c-2.4,5.81-2.28,13.16-.62,18.68a15.16,15.16,0,0,0,1,3l84.08-4.8Z"/><path class="cls-5" d="M300.84,20.19l-80.42,4.63v12l77.78,4.44a46.71,46.71,0,0,0,2.62-6.62A23,23,0,0,0,300.84,20.19Z"/><path class="cls-3" d="M220.86,28.74l-.08-2,2-.08.08,2Zm4-.17-.09-2,2-.08.08,2Zm4-.16-.08-2,2-.08.08,2Zm4-.16-.08-2,2-.08.08,2Zm4-.16-.08-2,2-.08.08,2Zm4-.17-.08-2,2-.08.08,2Zm4-.16-.08-2,2-.08.08,2Zm4-.16-.09-2,2-.08.09,2Zm4-.16-.08-2,2-.08.08,2Zm4-.17-.08-2,2-.08.08,2Zm4-.16-.09-2,2-.08.08,2Zm4-.16-.08-2,2-.08.08,2Zm4-.16-.08-2,2-.08.08,2Zm4-.17-.09-2,2-.08.08,2Zm4-.16-.08-2,2-.08.08,2Zm4-.16-.08-2,2-.08.08,2Zm4-.16-.09-2,2-.08.08,2Zm4-.17-.08-2,2-.09.08,2Zm4-.16-.08-2,2-.08.08,2Zm4-.16-.09-2,2-.08.09,2Zm4-.16-.08-2,2-.08.08,2Zm4-.17-.08-2,2-.09.08,2Zm4-.16-.08-2,2-.08.08,2Zm4-.16-.08-2,2-.08.08,2Zm4-.16-.08-2,2-.08.08,2Zm4-.17-.09-2,2-.09.09,2Zm4-.16-.08-2,2-.08.08,2Zm4-.16-.08-2,2-.08.08,2Zm4-.16-.08-2,2-.08.08,2Zm4-.17-.08-2,2-.09.08,2Zm4-.16-.08-2,2-.08.08,2Zm4-.16-.09-2,2-.08.08,2Zm4-.16-.08-2,2-.08.08,2Zm4-.17-.08-2,2-.09.08,2Zm4-.16-.08-2,2-.08.09,2Zm4-.16-.08-2,2-.08.08,2Zm4-.16-.08-2,2-.08.08,2Zm4-.17-.08-2,2-.09.08,2Zm4-.16-.08-2,2-.08.08,2Zm4-.16-.08-2,2-.08.08,2Zm4-.16-.08-2,2-.08.09,2Zm4-.17-.08-2,2-.08.08,2Zm4-.16-.08-2,2-.08.08,2Zm4-.16-.08-2,2-.08.09,2Zm4-.16-.08-2,2-.08.08,2Zm4-.17-.08-2,2-.08.08,2Zm4-.16-.08-2,2-.08.08,2Zm4-.16-.08-2,2-.08.08,2Zm4-.16-.08-2,2-.08.08,2Zm4-.17-.08-2,2-.08.08,2Zm4-.16-.08-2,2-.08.08,2Zm4-.16-.08-2,2-.08.08,2Zm4-.16-.08-2,1.17-.05.08,2Z"/><path class="cls-3" d="M429.77,43.74l-1.21-.06.09-2,1.21.06Zm-3.21-.15-2-.09.09-2,2,.09Zm-4-.18-2-.09.09-2,2,.09Zm-4-.18-2-.09.09-2,2,.09Zm-4-.18-2-.09.09-2,2,.09Zm-4-.19-2-.09.09-2,2,.09Zm-4-.18-2-.09.09-2,2,.1Zm-4-.18-2-.09.09-2,2,.09Zm-4-.18-2-.09.09-2,2,.09Zm-4-.18-2-.09.09-2,2,.09Zm-4-.18-2-.09.09-2,2,.09Zm-4-.18-2-.1.1-2,2,.09Zm-4-.19-2-.09.09-2,2,.1Zm-4-.18-2-.09.09-2,2,.09Zm-4-.18-2-.09.09-2,2,.09Zm-4-.18-2-.09.09-2,2,.09Zm-4-.18-2-.09.08-2,2,.09Zm-4-.18-2-.1.09-2,2,.09Zm-4-.19-2-.09.09-2,2,.09Zm-4-.18-2-.09.09-2,2,.09Zm-4-.18-2-.09.09-2,2,.09Zm-4-.18-2-.09.09-2,2,.09Zm-4-.18-2-.09.09-2,2,.09Zm-4-.18-2-.09.1-2,2,.09Zm-4-.19-2-.09.09-2,2,.09Zm-4-.18-2-.09.09-2,2,.09Zm-4-.18-2-.09.09-2,2,.09Zm-4-.18-2-.09.09-2,2,.09Zm-4-.18-2-.09.1-2,2,.09Zm-4-.18-2-.09.09-2,2,.09Zm-4-.19-2-.09.09-2,2,.09Zm-4-.18-2-.09.09-2,2,.09Zm-4-.18-2-.09.09-2,2,.09Zm-4-.18-2-.09.09-2,2,.09Zm-4-.18-2-.09.09-2,2,.09Zm-4-.18-2-.09.09-2,2,.09Zm-4-.19-2-.09.09-2,2,.09Zm-4-.18-2-.09.09-2,2,.09Zm-4-.18-2-.09.1-2,2,.09Zm-4-.18-2-.09.09-2,2,.09Zm-4-.18-2-.09.09-2,2,.09Zm-4-.18-2-.09.09-2,2,.09Zm-4-.18-2-.1.09-2,2,.09Zm-4-.19-2-.09.09-2,2,.1Zm-4-.18-2-.09.09-2,2,.09Zm-4-.18-2-.09.09-2,2,.09Zm-4-.18-2-.09.09-2,2,.09Zm-4-.18-2-.09.09-2,2,.09Zm-4-.18-2-.1.09-2,2,.09Zm-4-.19-2-.09.09-2,2,.1Zm-4-.18-2-.09.1-2,2,.09Zm-4-.18-2-.09.09-2,2,.09Zm-4-.18-2-.09.09-2,2,.09Z"/><path class="cls-3" d="M201.38,28.74l-2-.08.08-2,2,.08Zm-4-.17-2-.08.08-2,2,.08Zm-4-.16-2-.08.08-2,2,.08Zm-4-.16-2-.08.08-2,2,.08Zm-4-.16-2-.08.08-2,2,.08Zm-4-.17-2-.08.08-2,2,.08Zm-4-.16-2-.08.08-2,2,.08Zm-4-.16-2-.08.09-2,2,.08Zm-4-.16-2-.08.08-2,2,.08Zm-4-.17-2-.08.08-2,2,.08Zm-4-.16-2-.08.08-2,2,.08Zm-4-.16-2-.08.08-2,2,.08Zm-4-.16-2-.08.08-2,2,.08Zm-4-.17-2-.08.09-2,2,.08Zm-4-.16-2-.08.08-2,2,.08Zm-4-.16-2-.08.08-2,2,.08Zm-4-.16-2-.08.08-2,2,.08Zm-4-.17-2-.08.08-2,2,.09Zm-4-.16-2-.08.08-2,2,.08Zm-4-.16-2-.08.09-2,2,.08Zm-4-.16-2-.08.08-2,2,.08Zm-4-.17-2-.08.08-2,2,.09Zm-4-.16-2-.08.09-2,2,.08Zm-4-.16-2-.08.08-2,2,.08Zm-4-.16-2-.08.08-2,2,.08Zm-4-.17-2-.08.09-2,2,.09Zm-4-.16-2-.08.08-2,2,.08Zm-4-.16-2-.08.08-2,2,.08Zm-4-.16-2-.08.09-2,2,.08Zm-4-.17-2-.08.08-2,2,.09Zm-4-.16-2-.08.08-2,2,.08Zm-4-.16-2-.08.09-2,2,.08Zm-4-.16-2-.09.08-2,2,.08Zm-4-.17-2-.08.08-2,2,.09Zm-4-.16-2-.08.09-2,2,.08Zm-4-.16-2-.08.08-2,2,.08Zm-4-.16-2-.09.08-2,2,.08Zm-4-.17-2-.08.09-2,2,.09Zm-4-.16-2-.08.08-2,2,.08Zm-4-.16-2-.08.08-2,2,.08Zm-4-.16-2-.09.09-2,2,.08Zm-4-.17-2-.08.08-2,2,.08Zm-4-.16-2-.08.08-2,2,.08Zm-4-.16-2-.08.09-2,2,.08Zm-4-.16-2-.09.08-2,2,.08Zm-4-.17-2-.08.08-2,2,.08Zm-4-.16-2-.08.08-2,2,.08Zm-4-.16-2-.08.08-2,2,.08Zm-4-.16-2-.09.08-2,2,.08Zm-4-.17-2-.08.09-2,2,.08Zm-4-.16-2-.08.08-2,2,.08Zm-4-.16-2-.08.08-2,2,.08Zm-4-.16-1.17-.05.08-2,1.17.05Z"/><path class="cls-3" d="M-7.53,43.74l-.09-2,1.21-.06.09,2Zm3.21-.15-.09-2,2-.09.09,2Zm4-.18-.09-2,2-.09.09,2Zm4-.18-.09-2,2-.09.09,2Zm4-.18-.09-2,2-.09.09,2Zm4-.19-.09-2,2-.09.09,2Zm4-.18-.09-2,2-.1.09,2Zm4-.18-.09-2,2-.09.09,2Zm4-.18-.09-2,2-.09.09,2Zm4-.18-.1-2,2-.09.09,2Zm4-.18-.09-2,2-.09.09,2Zm4-.18-.09-2,2-.09.1,2Zm4-.19-.09-2,2-.1.09,2Zm4-.18-.09-2,2-.09.09,2Zm4-.18-.1-2,2-.09.09,2Zm4-.18-.09-2,2-.09.09,2Zm4-.18-.09-2,2-.09.09,2Zm4-.18-.09-2,2-.09.09,2Zm4-.19-.09-2,2-.09.09,2Zm4-.18-.09-2,2-.09.09,2Zm4-.18-.09-2,2-.09.09,2Zm4-.18-.09-2,2-.09.09,2Zm4-.18-.09-2,2-.09.09,2Zm4-.18-.09-2,2-.09.09,2Zm4-.19-.09-2,2-.09.09,2Zm4-.18-.09-2,2-.09.09,2Zm4-.18-.1-2,2-.09.09,2Zm4-.18-.09-2,2-.09.09,2Zm4-.18-.09-2,2-.09.1,2Zm4-.18-.09-2,2-.09.09,2Zm4-.19-.09-2,2-.09.09,2Zm4-.18-.1-2,2-.09.09,2Zm4-.18-.09-2,2-.09.09,2Zm4-.18-.09-2,2-.09.09,2Zm4-.18-.09-2,2-.09.09,2Zm4-.18-.09-2,2-.09.09,2Zm4-.19-.09-2,2-.09.09,2Zm4-.18-.09-2,2-.09.09,2Zm4-.18-.09-2,2-.09.09,2Zm4-.18-.09-2,2-.09.09,2Zm4-.18-.09-2,2-.09.1,2Zm4-.18-.09-2,2-.09.09,2Zm4-.18-.09-2,2-.09.09,2Zm4-.19-.1-2,2-.1.09,2Zm4-.18-.09-2,2-.09.09,2Zm4-.18-.09-2,2-.09.1,2Zm4-.18-.09-2,2-.09.09,2Zm4-.18-.09-2,2-.09.09,2Zm4-.18-.09-2,2-.09.09,2Zm4-.19-.09-2,2-.1.09,2Zm4-.18-.09-2,2-.09.09,2Zm4-.18-.09-2,2-.09.09,2Zm4-.18-.09-2,2-.09.09,2Z"/><path class="cls-4" d="M205.3,37.27S164,50.06,144.56,83.69l22.68-6s7.15,9.86,6.09,18c0,0,32.49-27.39,36.87-54.81Z"/><path class="cls-5" d="M205.3,37.27a130.55,130.55,0,0,0-32.23,16.44,89.18,89.18,0,0,1,27.71,4,9.9,9.9,0,0,1,2.57,2,59.54,59.54,0,0,0,6.85-18.78Z"/><path class="cls-3" d="M175.94,90.81l-1.3-1.52c.19-.16.55-.47,1-.91l-1.44,0a14.77,14.77,0,0,0-.11-1.87l2-.24c.07.62.11,1.23.12,1.82l1.23,1.35C176.72,90.14,176.19,90.6,175.94,90.81Zm3-2.71-1.37-1.47c.45-.41.93-.87,1.45-1.37l1.38,1.45Zm2.91-2.8-1.4-1.42,1.41-1.41,1.42,1.4C182.81,84.37,182.33,84.85,181.87,85.3Zm-8.06-.65c-.13-.6-.3-1.23-.49-1.85l1.91-.59c.21.67.39,1.35.54,2Zm10.9-2.22L183.27,81l1.37-1.44L186.1,81Zm-12-1.45c-.24-.64-.5-1.23-.75-1.79l1.81-.84c.27.59.55,1.23.81,1.9Zm-20.53-.68L151.81,79l-1.17-.79c.38-.56.76-1.11,1.15-1.66l1.63,1.16-.18.25.35-.09.49,1.94Zm35.32-.81L186,78.14l1.33-1.48,1.5,1.33ZM156,79.31l-.49-1.94,1.94-.5.49,1.94Zm3.88-1-.5-1.94,1.94-.49.5,1.93Zm11.16-.87c-.38-.71-.72-1.28-1-1.68l1.7-1c.27.42.63,1,1,1.79Zm-7.29-.12-.49-1.94,1.94-.49.49,1.93Zm26.37-.86-1.51-1.3c.43-.5.86-1,1.29-1.52l1.53,1.29C191,75.46,190.58,76,190.14,76.47Zm-22.49-.13-.5-1.94,1.94-.49.5,1.93Zm-13.06-.23-1.6-1.2,1.23-1.61,1.58,1.24C155.39,75.06,155,75.58,154.59,76.11Zm38.15-2.73-1.55-1.26,1.24-1.55L194,71.81C193.58,72.34,193.16,72.87,192.74,73.38ZM157,73l-1.55-1.27c.43-.52.87-1,1.31-1.55l1.51,1.31C157.88,72,157.46,72.49,157,73Zm38.2-2.79L193.65,69c.4-.52.79-1,1.19-1.59l1.61,1.19ZM159.62,70l-1.48-1.34c.45-.5.91-1,1.37-1.49L161,68.55C160.51,69,160.06,69.52,159.62,70Zm2.71-2.89-1.42-1.4c.47-.48,1-1,1.43-1.42l1.39,1.42Zm35.3-.16L196,65.81c.38-.54.76-1.08,1.13-1.63l1.66,1.12C198.41,65.86,198,66.42,197.63,67Zm-32.47-2.61-1.37-1.45c.5-.47,1-.92,1.49-1.37L166.62,63Zm34.74-.72-1.67-1.1c.36-.55.72-1.1,1.06-1.66l1.7,1.05C200.64,62.5,200.27,63.07,199.9,63.63Zm-31.8-1.94-1.31-1.5,1.53-1.32,1.29,1.53ZM202,60.2l-1.72-1c.34-.57.67-1.14,1-1.72l1.75,1C202.73,59,202.39,59.62,202,60.2Zm-30.91-1.06-1.25-1.55c.52-.43,1.05-.85,1.57-1.26l1.24,1.58Q171.91,58.51,171.13,59.14Zm3.13-2.44-1.2-1.6q.81-.62,1.62-1.2l1.17,1.61Zm29.77,0-1.77-.94c.3-.58.6-1.17.89-1.76l1.8.89C204.65,55.46,204.34,56.06,204,56.66Zm-26.56-2.3-1.15-1.64q.83-.59,1.65-1.14l1.13,1.65ZM205.82,53,204,52.18c.27-.59.54-1.2.79-1.8l1.84.77Q206.24,52.1,205.82,53Zm-25.07-.88-1.1-1.68,1.69-1.09,1.08,1.69C181.86,51.4,181.31,51.76,180.75,52.13ZM184.1,50l-1-1.71c.58-.36,1.16-.7,1.73-1l1,1.72C185.24,49.3,184.67,49.64,184.1,50Zm23.29-.74-1.87-.71c.23-.61.45-1.23.66-1.84l1.89.63C207.86,48,207.63,48.63,207.39,49.26ZM187.52,48l-1-1.74,1.76-1,1,1.75C188.68,47.31,188.1,47.63,187.52,48ZM191,46l-.94-1.76c.6-.33,1.2-.64,1.78-.94l.92,1.77Zm17.7-.64-1.92-.56q.27-.95.51-1.89l1.94.47C209.06,44.08,208.88,44.74,208.69,45.4Zm-14.17-1.19-.89-1.79,1.81-.88.87,1.8Zm3.59-1.72-.84-1.81c.64-.3,1.25-.57,1.84-.83l.81,1.83Zm11.55-1.06-2-.39c.06-.29.11-.59.16-.88l0,0,.06-.06.06-.38.29,0,1-1,.74.77-.08.49C209.84,40.46,209.76,40.94,209.66,41.43Zm-7.92-.54L201,39l1.87-.77.75,1.86C203,40.35,202.41,40.61,201.74,40.89Zm3.69-1.48-.71-1.87c1.24-.47,1.93-.7,1.93-.7l.6-.2.62.64-.81.79.22.67S206.61,39,205.43,39.41Z"/><path class="cls-4" d="M216.64,31.61s35.51,24.6,44,62.54c0,0-15.87-13.52-19.84-12.51s-6.7,7.74-11.21,15.33c0,0-22.76-35.89-18.68-63.35Z"/><path class="cls-5" d="M247.94,64.78a130.57,130.57,0,0,0-31.3-33.17l-5.76,2c-1.2,8.07-.08,16.88,2.1,25.29a6.46,6.46,0,0,1,2.38-1.23C227.81,53.85,238.56,58,247.94,64.78Z"/><path class="cls-3" d="M229.48,93.79l-.87-1.37s-.31-.49-.84-1.38l1.72-1c.51.85.8,1.32.81,1.33l-.44.28.67.39Zm2.06-3.52-1.74-1,1-1.74,1.75,1Zm-4.79-1-1-1.77,1.76-1c.35.64.67,1.22,1,1.74Zm30.69-.45-2.24-1.49-.68-.44.21-.32-.27-.93,1.07-.32.07-.11.1.06.67-.21c.12.39.23.77.34,1.16Zm-23.95-2.06-1.75-1c.35-.61.68-1.2,1-1.75l1.72,1C234.15,85.6,233.82,86.18,233.49,86.78Zm19.35-.93-1.7-1,1-1.72,1.73,1.05Zm-28-.1c-.3-.57-.62-1.17-.94-1.79l1.78-.91.92,1.76Zm24.61-1.94-1.72-1,1-1.75c.6.33,1.2.66,1.77,1Zm4.44,0c-.21-.62-.42-1.24-.65-1.86l1.88-.68c.23.63.45,1.27.67,1.91Zm-18.37-.39-1.68-1.09c.43-.66.83-1.22,1.21-1.71l1.57,1.24C236.25,82.27,235.88,82.78,235.49,83.39ZM223,82.16l-.88-1.81,1.8-.87.87,1.79Zm23-.24c-.6-.3-1.19-.59-1.77-.86l.84-1.81c.6.27,1.22.57,1.84.89Zm-8.13-1.41L236.52,79a6,6,0,0,1,2-1.21l.63,1.9A4.18,4.18,0,0,0,237.82,80.51Zm4.58-.21a12.87,12.87,0,0,0-1.77-.56l.44-1.95a15.64,15.64,0,0,1,2.05.65Zm10.11-.22c-.24-.62-.49-1.22-.75-1.83l1.84-.78c.26.62.52,1.24.77,1.87Zm-31.29-1.56-.83-1.84,1.83-.81c.27.62.55,1.22.82,1.81ZM251,76.45c-.27-.6-.56-1.2-.84-1.78l1.79-.88c.3.6.59,1.21.87,1.82Zm-31.38-1.62q-.39-.92-.78-1.86l1.86-.75c.25.62.51,1.23.76,1.83Zm29.64-1.93c-.3-.58-.62-1.16-.93-1.74l1.75-1L251,72Zm-31.16-1.8q-.37-.93-.72-1.89l1.87-.69c.23.62.47,1.24.71,1.85Zm29.25-1.65-1-1.7,1.7-1c.35.57.7,1.15,1,1.74Zm-30.66-2.14c-.22-.63-.44-1.27-.65-1.91l1.9-.63c.21.63.42,1.26.64,1.88Zm28.58-1.23c-.36-.55-.73-1.1-1.1-1.64l1.65-1.13c.38.55.76,1.11,1.13,1.68Zm-29.85-2.6c-.2-.65-.39-1.29-.57-1.94l1.92-.55c.18.63.37,1.27.56,1.89ZM243,62.82c-.39-.54-.78-1.08-1.17-1.6l1.6-1.2,1.2,1.63Zm-2.37-3.17c-.41-.53-.83-1-1.24-1.55l1.55-1.26c.42.51.84,1,1.26,1.58Zm-26.36-.06c-.17-.65-.34-1.31-.49-2l1.94-.47.48,1.92Zm23.85-3-1.29-1.5,1.49-1.32c.45.5.89,1,1.33,1.52Zm-24.79-.93c-.14-.67-.27-1.33-.39-2l2-.36c.12.65.25,1.3.38,1.94Zm22.17-2c-.45-.49-.91-1-1.36-1.45l1.45-1.38c.46.48.92,1,1.38,1.48Zm-22.89-2c-.11-.67-.2-1.34-.28-2l2-.24c.07.65.16,1.3.26,2Zm20.15-.9c-.47-.48-.94-.94-1.41-1.39l1.4-1.44,1.43,1.42ZM229.92,48l-1.46-1.35,1.34-1.48c.49.44,1,.9,1.48,1.37Zm-17.8-.37c-.05-.68-.1-1.36-.13-2l2-.09c0,.65.07,1.3.13,2ZM227,45.32q-.76-.68-1.5-1.29l1.28-1.54,1.54,1.32Zm-15-1.79v-.28c0-.59,0-1.18,0-1.76l2,.07c0,.56,0,1.12,0,1.69v.26Zm12-.77-1.55-1.23L223.61,40l1.58,1.26Zm-3.13-2.43c-.57-.43-1.11-.82-1.6-1.17l1.16-1.63,1.64,1.2Zm-6.71-.71-2-.18c.06-.68.13-1.36.23-2l2,.28C214.22,38.32,214.15,39,214.09,39.62ZM217.58,38c-.54-.36-1-.64-1.24-.81l-1,.38-.71-1.87,1.92-.73.41.25s.63.38,1.73,1.12Z"/><path class="cls-6" d="M292.63,31.41S281.08,53.67,246.14,50s-31.56-6.77-31.56-6.77S283.05,17,292.63,31.41Z"/><path class="cls-4" d="M216.84,27.19s11.83-6.77,27-21.7S275.16-10.85,279.39-3s16.06,28.45,13.24,34.37-15.78-2.82-37.47,7-40.58,4.79-40.58,4.79Z"/><path class="cls-5" d="M238.06,11c-12.31,11.11-21.22,16.21-21.22,16.21l-2.26,16.05a57.8,57.8,0,0,0,17.81,1.09C239.36,35.11,240.82,22.46,238.06,11Z"/><path class="cls-3" d="M226.24,43V41c.64,0,1.3,0,2,0l0,2C227.56,43,226.89,43,226.24,43Zm-2,0c-.72,0-1.4-.05-2-.09l.11-2,2,.08Zm6.08-.08-.11-2c.64,0,1.3-.08,2-.13l.16,2C231.62,42.8,230.94,42.84,230.29,42.88Zm-10.14-.15c-.8-.07-1.49-.14-2-.21l.24-2,1.95.2Zm14.17-.17-.21-2,2-.24.27,2Zm4-.54-.31-2,1.94-.34.37,2C239.67,41.8,239,41.92,238.34,42Zm4-.76-.43-1.95,1.92-.45.48,1.94C243.64,41,243,41.12,242.33,41.26Zm-24.43-.39-2-.23.22-2,2,.22Zm28.37-.59-.55-1.93c.63-.17,1.26-.36,1.89-.56l.6,1.91C247.56,39.9,246.91,40.1,246.27,40.28Zm3.87-1.23-.66-1.88,1.84-.68.73,1.86C251.41,38.6,250.77,38.83,250.14,39.05Zm3.79-1.46-.78-1.84,1.37-.61L255,35l.81,1.82-.42.19C254.88,37.18,254.4,37.39,253.93,37.59Zm-35.59-.7-2-.22.22-2,2,.22ZM257.58,36l-.74-1.86c.64-.26,1.28-.5,1.9-.72l.67,1.88C258.81,35.53,258.2,35.76,257.58,36Zm3.69-1.32-.59-1.91c.66-.2,1.32-.39,2-.56l.51,1.93C262.54,34.31,261.91,34.49,261.27,34.69Zm3.78-1-.43-2q1-.23,2-.39l.34,2C266.35,33.42,265.71,33.54,265.05,33.69Zm3.86-.68-.26-2c.69-.1,1.37-.17,2-.23l.17,2C270.22,32.85,269.57,32.92,268.91,33Zm-50.13-.1-2-.22.22-2,2,.22Zm64-.06c-.63,0-1.31,0-2-.06l.09-2c.7,0,1.36.06,2,.06Zm2.12-.09-.24-2a3.93,3.93,0,0,0,1.53-.44l1,1.74A6.07,6.07,0,0,1,284.87,32.76Zm-6.16-.06c-.63,0-1.29-.06-2-.07l0-2,2,.07Zm-5.91,0-.09-2,2-.06,0,2Zm16.07-2.55L287,29.34a4,4,0,0,0,.24-1.51l2-.06v.06A6,6,0,0,1,288.87,30.12Zm-69.65-1.18-2-.22.23-2,1,.11-.47-.93s.63-.32,1.73-.93l1,1.74-1.32.72Zm67.86-3a18.77,18.77,0,0,0-.43-1.87l1.93-.52c.2.73.36,1.41.47,2Zm-64.62-.25-1-1.72c.52-.3,1.09-.65,1.7-1l1.05,1.7Zm3.44-2.12-1.08-1.68c.53-.34,1.08-.7,1.65-1.09l1.12,1.66C227,22.88,226.44,23.24,225.9,23.59Zm60.18-1.36c-.2-.6-.42-1.21-.66-1.84l1.87-.71q.38,1,.69,1.92Zm-56.82-.88-1.14-1.64,1.62-1.14,1.17,1.62ZM232.54,19l-1.19-1.61,1.59-1.2,1.21,1.59Zm52.14-.45c-.25-.6-.51-1.21-.78-1.82l1.83-.81c.28.62.54,1.24.8,1.86Zm-48.94-2L234.5,15l1.55-1.24,1.27,1.55Zm47.34-1.63-.86-1.79,1.8-.87c.3.6.59,1.21.87,1.82ZM238.87,14l-1.29-1.53,1.51-1.29,1.31,1.51C239.89,13.15,239.38,13.58,238.87,14Zm3-2.65-1.33-1.49L242,8.54,243.4,10C242.9,10.46,242.41,10.92,241.91,11.36Zm39.43,0-.9-1.78,1.78-.91.91,1.79ZM244.87,8.61l-1.39-1.44.85-.82.59-.57,1.38,1.44-.57.56Zm34.65-.8c-.32-.6-.63-1.19-.94-1.76l1.77-.94.94,1.77ZM247.74,5.89,246.42,4.4c.51-.46,1-.9,1.54-1.33l1.28,1.55C248.74,5,248.24,5.45,247.74,5.89Zm29.9-1.6-1-1.76,1.76-.95.95,1.76ZM250.77,3.4l-1.21-1.59q.84-.63,1.65-1.2l1.15,1.64C251.83,2.62,251.3,3,250.77,3.4ZM254,1.17,252.92-.52c.59-.37,1.18-.72,1.76-1l1,1.75C255.11.49,254.55.82,254,1.17Zm21.73-.4L275.36.1a5.66,5.66,0,0,0-.58-.89L276.35-2a8.71,8.71,0,0,1,.78,1.19l.35.66ZM257.38-.73l-.88-1.8c.63-.31,1.25-.59,1.87-.86l.78,1.85Q258.28-1.18,257.38-.73ZM273.53-2A7.08,7.08,0,0,0,272-2.81l.75-1.85a9.72,9.72,0,0,1,2,1.07ZM261-2.24l-.66-1.89c.67-.23,1.33-.44,2-.61l.52,1.93C262.19-2.65,261.57-2.46,261-2.24Zm3.71-1-.36-2c.71-.13,1.41-.22,2.08-.28l.16,2C265.93-3.43,265.3-3.35,264.66-3.24Zm5.59-.07a12.94,12.94,0,0,0-1.83-.21l.08-2a14.59,14.59,0,0,1,2.14.24Z"/><path class="cls-6" d="M125.61,31.41S137.16,53.67,172.1,50s31.55-6.77,31.55-6.77S135.19,17,125.61,31.41Z"/><path class="cls-4" d="M201.4,27.19s-11.83-6.77-27.05-21.7S143.08-10.85,138.85-3s-16.06,28.45-13.24,34.37,15.78-2.82,37.47,7,40.57,4.79,40.57,4.79Z"/><path class="cls-5" d="M183.74,44.14a58.91,58.91,0,0,0,19.91-.9l-2.25-16A119.38,119.38,0,0,1,187,16.8,47.88,47.88,0,0,0,183.74,44.14Z"/><path class="cls-3" d="M192,43c-.66,0-1.33,0-2,0l.05-2c.68,0,1.34,0,2,0Zm2,0L194,41l2-.08.11,2C195.43,42.91,194.76,42.94,194,43ZM188,42.88c-.66,0-1.33-.08-2-.14l.15-2c.67,0,1.33.1,2,.13Zm10.13-.15-.17-2,2-.2.25,2C199.58,42.59,198.9,42.66,198.09,42.73Zm-14.17-.17-2-.24.27-2,2,.24Zm-4-.54c-.66-.1-1.33-.22-2-.35l.37-2,1.95.34Zm-4-.76c-.65-.14-1.31-.29-2-.46l.48-1.94,1.92.45Zm24.43-.4-.22-2,2-.22.22,2ZM172,40.28c-.65-.18-1.3-.38-1.95-.58l.6-1.91c.63.2,1.26.39,1.89.56Zm-3.88-1.23c-.63-.22-1.27-.45-1.9-.7l.72-1.86c.61.24,1.23.46,1.85.68Zm-3.79-1.46c-.47-.2-.95-.41-1.42-.63l-.42-.19.81-1.82.44.19,1.37.61Zm35.59-.7-.22-2,2-.22.22,2ZM160.66,36c-.62-.25-1.23-.48-1.83-.7l.67-1.88c.62.22,1.26.46,1.9.72ZM157,34.69c-.64-.2-1.27-.38-1.88-.54l.51-1.93c.65.17,1.3.36,2,.56Zm-3.78-1c-.66-.15-1.3-.27-1.92-.38l.34-2q1,.16,2,.39ZM149.33,33c-.66-.09-1.31-.16-1.94-.21l.17-2c.66.06,1.34.14,2,.23Zm50.13-.1-.22-2,2-.23.22,2Zm-64-.06v-2c.6,0,1.26,0,2-.06l.09,2C136.8,32.82,136.12,32.85,135.49,32.85Zm-2.12-.09a6.13,6.13,0,0,1-2.28-.69l1-1.74a4,4,0,0,0,1.53.44Zm6.16-.06-.09-2,2-.07,0,2Zm5.91,0-2-.06,0-2,2,.06Zm-16.07-2.56a5.93,5.93,0,0,1-.4-2.28l2-.06v.09a3.92,3.92,0,0,0,.24,1.48ZM199,28.94l-.17-1.5-1.32-.72,1-1.74c1.09.61,1.71.92,1.72.93l-.46.93,1-.11.23,2Zm-67.86-3-2-.36c.11-.62.27-1.31.47-2l1.93.52C131.41,24.76,131.26,25.39,131.16,26Zm64.62-.25-1.73-1,1-1.7c.61.37,1.18.72,1.7,1Zm-3.44-2.12-1.69-1.1,1.11-1.67,1.66,1.09Zm-60.18-1.36-1.9-.63c.21-.63.45-1.27.7-1.92l1.86.71C132.58,21,132.36,21.63,132.16,22.23ZM189,21.35l-1.65-1.16,1.17-1.63,1.62,1.15ZM185.7,19l-1.61-1.22,1.21-1.59c.54.42,1.07.81,1.59,1.2Zm-52.14-.45-1.85-.77c.26-.62.53-1.24.8-1.86l1.83.81C134.07,17.35,133.81,18,133.56,18.56Zm48.94-2-1.58-1.26,1.27-1.55L183.74,15Zm-47.34-1.62-1.81-.85.87-1.82,1.8.87C135.73,13.74,135.44,14.34,135.16,14.94ZM179.37,14c-.51-.43-1-.86-1.53-1.31l1.31-1.51,1.51,1.29Zm-3-2.65c-.5-.44-1-.9-1.49-1.36l1.36-1.46c.49.45,1,.9,1.47,1.33Zm-39.43,0-1.79-.9L136,8.67l1.78.91Zm36.47-2.75-.86-.83-.57-.56,1.38-1.44.59.57.85.82Zm-34.65-.8L137,6.88l.94-1.77,1.77.94C139.35,6.62,139,7.21,138.72,7.81ZM170.5,5.89c-.5-.44-1-.86-1.5-1.27l1.27-1.55c.52.43,1,.87,1.55,1.33Zm-29.89-1.6-1.76-1,1-1.76,1.76.95Zm26.86-.89c-.53-.4-1.06-.78-1.59-1.15L167,.61c.55.38,1.1.78,1.66,1.2Zm-3.22-2.23c-.56-.35-1.12-.68-1.67-1l1-1.75c.58.33,1.17.68,1.76,1.05ZM142.52.77l-1.76-.95.35-.66A8.71,8.71,0,0,1,141.89-2l1.57,1.24a5.66,5.66,0,0,0-.58.89Zm18.34-1.5q-.9-.45-1.77-.81l.78-1.85c.62.27,1.24.55,1.87.86ZM144.71-2l-1.17-1.62a8.82,8.82,0,0,1,2-1.07l.75,1.85A7.33,7.33,0,0,0,144.71-2Zm12.58-.27c-.62-.22-1.24-.41-1.84-.57L156-4.74c.65.17,1.31.38,2,.61Zm-3.71-1c-.64-.11-1.27-.19-1.88-.24l.15-2c.68.06,1.38.15,2.09.28ZM148-3.31l-.38-2a14.59,14.59,0,0,1,2.14-.24l.08,2A13.26,13.26,0,0,0,148-3.31Z"/><path class="cls-7" d="M215.92,45.54s5.41-11.44,1.91-19.39c0,0-12.71-4.29-16.21-.16-1.91,2.54-4.29,16.53-.16,19.07S215.92,45.54,215.92,45.54Z"/><path class="cls-3" d="M207.49,45.07a18.36,18.36,0,0,1-2.11-.19l.31-2a16.34,16.34,0,0,0,1.87.16Zm2.08,0-.09-2c.68,0,1.33-.09,1.93-.16l.22,2C211,45,210.29,45,209.57,45Zm4.09-.43-.31-2,.48-.08c.13-.31.32-.76.52-1.31l1.88.68c-.43,1.18-.78,1.91-.79,1.94l-.15.32-.31.15A4.4,4.4,0,0,1,213.66,44.61Zm-10.45-.32a5.41,5.41,0,0,1-.72-.37,3.73,3.73,0,0,1-1.24-1.31l1.73-1a1.8,1.8,0,0,0,.56.62l.46.23Zm-2.74-3.87a14.33,14.33,0,0,1-.25-2.13l2-.1a12,12,0,0,0,.21,1.84Zm16.4-.45L215,39.41c.17-.58.33-1.21.48-1.88l1.95.44C217.25,38.63,217.07,39.3,216.87,40Zm-14.64-3.68-2-.1c0-.67.09-1.36.17-2.06l2,.24C202.31,35,202.25,35.66,202.23,36.29Zm15.54-.36-2-.29a18.5,18.5,0,0,0,.18-1.89l2,.09C217.94,34.51,217.87,35.21,217.77,35.93Zm-15.09-3.47-2-.38c.14-.72.29-1.4.47-2l1.92.54C203,31.16,202.81,31.79,202.68,32.46ZM216,31.87a13,13,0,0,0-.27-1.83l1.95-.45a15.81,15.81,0,0,1,.32,2.13Zm-.29-2.94c-.23-.08-.92-.29-1.87-.54l.51-1.94c1,.27,1.74.5,2,.58Zm-11.94-.06-1.8-.87a4.58,4.58,0,0,1,.42-.72,4.19,4.19,0,0,1,1.43-1.11l.89,1.79a2.23,2.23,0,0,0-.75.56A2.39,2.39,0,0,0,203.72,28.87ZM211.9,28c-.67-.14-1.31-.25-1.91-.33l.26-2c.65.09,1.34.2,2,.35Zm-5.64-.42-.25-2a13.54,13.54,0,0,1,2.15-.08l-.07,2A9.8,9.8,0,0,0,206.26,27.53Z"/><path class="cls-8" d="M398.83,443.68c-12.3,12.3-11.41,33.13,2,46.53s34.23,14.29,46.53,2,11.41-33.14-2-46.54S411.13,431.37,398.83,443.68Zm34.09,34.09c-7.57,7.56-20.38,7-28.62-1.23s-8.79-21.05-1.22-28.61,20.38-7,28.62,1.22S440.49,470.2,432.92,477.77Z"/><path class="cls-9" d="M445.36,445.66c13.4,13.4,14.29,34.24,2,46.54s-33.14,11.41-46.54-2a37.68,37.68,0,0,1-3.25-3.71c13.3,10.19,31.6,9.94,42.82-1.27s11.46-29.52,1.27-42.82A37.68,37.68,0,0,1,445.36,445.66Z"/><path class="cls-10" d="M436.35,412.57c-.28,6.67-11.94,23.09-28.74,39.89s-33.22,28.46-39.88,28.74c.12-2.94,2.45-7.76,6.44-13.68h0a189.67,189.67,0,0,1,22.28-26.2c13.4-13.4,26.56-23.53,34.72-27.22A15,15,0,0,1,436.35,412.57Z"/><path class="cls-10" d="M435.64,410.21a3.08,3.08,0,0,1,.71,2.36,7.78,7.78,0,0,1-.17,1.28h0c0,.16-.07.33-.11.5s-.06.23-.1.35-.12.41-.19.62-.18.52-.28.8-.21.56-.33.85c-.07.14-.13.29-.19.44s-.25.55-.39.84l0,.11c-.14.29-.28.59-.44.89h0l-.52,1c-.72,1.33-1.58,2.78-2.56,4.3l-.38.57-.38.58-.4.59-.4.6q-1.31,1.88-2.8,3.9l-.48.62c-.17.23-.34.47-.52.7s-.36.46-.54.69l-.09.12c-.24.32-.5.64-.76,1-.64.82-1.32,1.65-2,2.49l-.6.73c-.66.8-1.33,1.6-2,2.41l-1.1,1.27c-.27.32-.55.63-.83.94s-.81.92-1.23,1.38l-.69.77-.2.23-.91,1c-.94,1-1.89,2-2.87,3.07l-1,1-.88.9c-.51.53-1,1-1.55,1.57l-.78.79c-.25.26-.51.51-.77.76,0,0,0,0,0,0h0c-.52.53-1.05,1-1.57,1.55l-.9.88-1,1c-1,1-2.05,1.93-3.06,2.86l-1,.94-.2.18-.77.69c-.45.41-.89.8-1.34,1.19s-.65.58-1,.87l-1.28,1.1c-1.92,1.66-3.8,3.2-5.62,4.64L388,470c-2.07,1.61-4.06,3.06-5.93,4.35-.21.14-.41.27-.6.41s-.4.26-.59.4l-.58.38-.23.15a59,59,0,0,1-5.64,3.3l-.94.47-.07,0q-.88.44-1.71.75l-.16.07c-.5.19-1,.36-1.44.49l-.47.13-.27.07L369,481a7.9,7.9,0,0,1-1.29.17,3.08,3.08,0,0,1-2.36-.71c-3.92-3.93,8.63-22.85,28-42.25a209.21,209.21,0,0,1,21-18.51C424.93,411.71,433.19,407.77,435.64,410.21Z"/><path class="cls-11" d="M379.81,454.56a.38.38,0,0,1,.09.46,1.37,1.37,0,0,1-.34.42,6.81,6.81,0,0,0-1.09,1.52,62.28,62.28,0,0,0-5.2,9.9c-.59,1.61-1.55,4.37-.1,5.82a3.08,3.08,0,0,0,2.36.71,7.9,7.9,0,0,0,1.29-.17l.34-.08.27-.07.47-.13c.46-.13.94-.3,1.44-.49l.16-.07c.55-.21,1.12-.46,1.71-.74l.07,0a11.76,11.76,0,0,0,1.8-1.08c.84-.46,1.8-.79,2.69-1.17a.33.33,0,0,1,.13,0c.16,0,.26.18.23.33a.81.81,0,0,1-.25.37,27.63,27.63,0,0,1-7.15,4.61c-.32.17-.63.32-.94.47l-.07,0q-.89.44-1.71.75l-.16.07c-.5.19-1,.36-1.44.49l-.47.13-.26.07-.35.07a7,7,0,0,1-1.29.18,3,3,0,0,1-2.35-.71c-1.93-1.93.09-6,1-7.93a56.2,56.2,0,0,1,3.72-6.54,47.85,47.85,0,0,1,4.81-6.91c.15-.17.38-.35.58-.25Z"/><path class="cls-12" d="M384.47,400.46a20.19,20.19,0,0,1,4.55,6.93A69.47,69.47,0,0,0,396.26,421a81.71,81.71,0,0,0,9.87,11.87,2.69,2.69,0,0,1,0,3.8L391.81,451a2.69,2.69,0,0,1-3.8,0l-.47-.47c-.6-.6-1.2-1.18-1.81-1.75A81.8,81.8,0,0,0,362,433.65a20.18,20.18,0,0,1-7-5,20.41,20.41,0,0,1,29.48-28.21Z"/><path class="cls-11" d="M435.64,410.21l3.07,3.08c3.92,3.92-8.62,22.83-28,42.24s-38.32,32-42.25,28l-3.07-3.07A5.44,5.44,0,0,0,369,481l.34-.08.27-.07.47-.13c.45-.14.93-.3,1.44-.49l.16-.07q.82-.33,1.71-.75l.07,0,.94-.47a64,64,0,0,0,5.64-3.3l.23-.15.58-.38c.19-.14.39-.27.59-.4s.39-.27.6-.41c1.87-1.29,3.86-2.74,5.93-4.35l1.06-.83c1.82-1.44,3.7-3,5.62-4.64l1.28-1.1c.33-.29.66-.57,1-.87s.9-.78,1.34-1.19c.26-.22.52-.45.77-.69l.2-.18,1-.94c1-.93,2-1.88,3.06-2.86l1-1,.9-.88c.52-.51,1.05-1,1.57-1.55h0s0,0,0,0c.26-.25.52-.5.77-.76l.78-.79c.53-.52,1-1,1.55-1.57l.88-.9,1-1c1-1,1.93-2.05,2.87-3.07l.91-1,.2-.23c.24-.25.47-.51.69-.77q.63-.69,1.23-1.38c.28-.31.56-.62.83-.94l1.1-1.27c.7-.81,1.37-1.61,2-2.41.21-.24.41-.49.6-.73.69-.84,1.37-1.67,2-2.49.26-.33.52-.65.76-1l.09-.12.54-.69c.18-.23.35-.47.52-.7l.48-.62q1.5-2,2.8-3.9l.4-.6.4-.59.38-.58.38-.57q1.47-2.3,2.56-4.3l.52-1h0c.16-.3.3-.6.44-.89l0-.11q.21-.44.39-.84c.06-.15.12-.3.19-.44.12-.29.23-.57.33-.85s.2-.54.28-.8.14-.42.19-.62.07-.24.1-.35.08-.34.11-.5h0A5.4,5.4,0,0,0,435.64,410.21Z"/><path class="cls-9" d="M435.64,410.21l3.07,3.08c3.92,3.92-8.62,22.83-28,42.24s-38.32,32-42.25,28c0,0,22.05-7.55,33.2-23.16q2.65-3.7,5.2-7.16s0,0,0,0c9-12.22,16.73-21.76,19.7-26.38,3.26-5.06,6.83-16.59-12.19-7.11C424.93,411.71,433.19,407.77,435.64,410.21Z"/><path class="cls-13" d="M384.47,400.46a20.19,20.19,0,0,1,4.55,6.93A69.47,69.47,0,0,0,396.26,421a81.71,81.71,0,0,0,9.87,11.87,2.69,2.69,0,0,1,0,3.8L391.81,451a2.69,2.69,0,0,1-3.8,0l-.47-.47c-.6-.6-1.2-1.18-1.81-1.75,4.44-3.52,9.6-9.06,7.19-14.51-4-9-3.35-25.09-6.28-28.44-1.07-1.23-2.09-4-4-6.94A20.37,20.37,0,0,1,384.47,400.46Z"/><path class="cls-13" d="M375.79,438.83s2.56-13,11.83-18.1C387.62,420.73,374.85,420.85,375.79,438.83Z"/><path class="cls-14" d="M357.34,405.41s-8.71,7.49,0,18.79C357.35,424.2,353.14,416.73,357.34,405.41Z"/><path class="cls-8" d="M16.82,443.68c12.3,12.3,11.41,33.13-2,46.53s-34.23,14.29-46.53,2-11.41-33.14,2-46.54S4.52,431.37,16.82,443.68Zm-34.09,34.09c7.57,7.56,20.38,7,28.62-1.23s8.79-21.05,1.22-28.61-20.38-7-28.62,1.22S-24.84,470.2-17.27,477.77Z"/><path class="cls-9" d="M-29.71,445.66c-13.4,13.4-14.29,34.24-2,46.54s33.14,11.41,46.54-2a37.68,37.68,0,0,0,3.25-3.71c-13.3,10.19-31.6,9.94-42.82-1.27S-36.19,455.71-26,442.41A37.68,37.68,0,0,0-29.71,445.66Z"/><path class="cls-10" d="M-20.7,412.57c.28,6.67,11.94,23.09,28.74,39.89s33.22,28.46,39.88,28.74c-.12-2.94-2.45-7.76-6.44-13.68h0a189.67,189.67,0,0,0-22.28-26.2c-13.4-13.4-26.56-23.53-34.72-27.22A15,15,0,0,0-20.7,412.57Z"/><path class="cls-10" d="M-20,410.21a3.08,3.08,0,0,0-.71,2.36,7.78,7.78,0,0,0,.17,1.28h0c0,.16.07.33.11.5s.06.23.1.35.12.41.19.62.18.52.28.8.21.56.33.85c.07.14.13.29.19.44s.25.55.39.84l.05.11c.14.29.28.59.44.89h0l.52,1c.72,1.33,1.58,2.78,2.56,4.3l.38.57.38.58.4.59.4.6q1.31,1.88,2.8,3.9l.48.62c.17.23.34.47.52.7s.36.46.54.69l.09.12c.24.32.5.64.76,1,.64.82,1.32,1.65,2,2.49l.6.73c.66.8,1.33,1.6,2,2.41l1.1,1.27c.27.32.55.63.83.94s.81.92,1.23,1.38l.69.77.2.23.91,1c.94,1,1.89,2,2.87,3.07l1,1,.88.9c.51.53,1,1,1.55,1.57l.78.79c.25.26.51.51.77.76,0,0,0,0,0,0h0c.52.53,1.05,1,1.57,1.55l.9.88,1,1c1,1,2.05,1.93,3.06,2.86l1,.94.2.18.77.69c.45.41.89.8,1.34,1.19s.65.58,1,.87l1.28,1.1c1.92,1.66,3.8,3.2,5.62,4.64l1.06.83c2.07,1.61,4.06,3.06,5.93,4.35.21.14.41.27.6.41s.4.26.59.4l.58.38.23.15a59,59,0,0,0,5.64,3.3l.94.47.07,0q.89.44,1.71.75l.16.07c.5.19,1,.36,1.44.49l.47.13.27.07.34.08a7.9,7.9,0,0,0,1.29.17,3.08,3.08,0,0,0,2.36-.71c3.92-3.93-8.63-22.85-28-42.25a209.21,209.21,0,0,0-21-18.51C-9.28,411.71-17.54,407.77-20,410.21Z"/><path class="cls-11" d="M35.84,454.56a.38.38,0,0,0-.09.46,1.37,1.37,0,0,0,.34.42A6.81,6.81,0,0,1,37.18,457a62.28,62.28,0,0,1,5.2,9.9c.59,1.61,1.55,4.37.1,5.82a3.08,3.08,0,0,1-2.36.71,7.9,7.9,0,0,1-1.29-.17l-.34-.08-.27-.07-.47-.13c-.46-.13-.94-.3-1.44-.49l-.16-.07c-.55-.21-1.12-.46-1.71-.74l-.07,0a11.76,11.76,0,0,1-1.8-1.08c-.84-.46-1.8-.79-2.69-1.17a.33.33,0,0,0-.13,0c-.16,0-.26.18-.23.33a.81.81,0,0,0,.25.37,27.63,27.63,0,0,0,7.15,4.61c.32.17.63.32.94.47l.07,0q.89.44,1.71.75l.16.07c.5.19,1,.36,1.44.49l.47.13.26.07.35.07a7,7,0,0,0,1.29.18,3,3,0,0,0,2.35-.71c1.93-1.93-.09-6-1-7.93a56.2,56.2,0,0,0-3.72-6.54,47.85,47.85,0,0,0-4.81-6.91c-.15-.17-.38-.35-.58-.25Z"/><path class="cls-12" d="M31.18,400.46a20.19,20.19,0,0,0-4.55,6.93A69.47,69.47,0,0,1,19.39,421a81.71,81.71,0,0,1-9.87,11.87,2.69,2.69,0,0,0,0,3.8L23.84,451a2.69,2.69,0,0,0,3.8,0l.47-.47c.6-.6,1.2-1.18,1.81-1.75a81.8,81.8,0,0,1,23.72-15.11,20.18,20.18,0,0,0,7-5,20.41,20.41,0,0,0-29.48-28.21Z"/><path class="cls-11" d="M-20,410.21l-3.07,3.08c-3.92,3.92,8.62,22.83,28,42.24s38.32,32,42.25,28l3.07-3.07a5.44,5.44,0,0,1-3.65.54L46.3,481l-.27-.07-.47-.13c-.45-.14-.93-.3-1.44-.49l-.16-.07q-.83-.33-1.71-.75l-.07,0-.94-.47a64,64,0,0,1-5.64-3.3l-.23-.15-.58-.38c-.19-.14-.39-.27-.59-.4s-.39-.27-.6-.41c-1.87-1.29-3.86-2.74-5.93-4.35l-1.06-.83c-1.82-1.44-3.7-3-5.62-4.64l-1.28-1.1c-.33-.29-.66-.57-1-.87s-.9-.78-1.34-1.19c-.26-.22-.52-.45-.77-.69l-.2-.18-1-.94c-1-.93-2-1.88-3.06-2.86l-1-1-.9-.88c-.52-.51-1.05-1-1.57-1.55h0s0,0,0,0c-.26-.25-.52-.5-.77-.76l-.78-.79c-.53-.52-1-1-1.55-1.57l-.88-.9-1-1c-1-1-1.93-2.05-2.87-3.07l-.91-1-.2-.23c-.24-.25-.47-.51-.69-.77q-.63-.69-1.23-1.38c-.28-.31-.56-.62-.83-.94L-4,439.52c-.7-.81-1.37-1.61-2-2.41-.21-.24-.41-.49-.6-.73-.69-.84-1.37-1.67-2-2.49-.26-.33-.52-.65-.76-1l-.09-.12-.54-.69c-.18-.23-.35-.47-.52-.7l-.48-.62q-1.5-2-2.8-3.9l-.4-.6-.4-.59-.38-.58-.38-.57q-1.47-2.3-2.56-4.3l-.52-1h0c-.16-.3-.3-.6-.44-.89l-.05-.11q-.21-.44-.39-.84c-.06-.15-.12-.3-.19-.44-.12-.29-.23-.57-.33-.85s-.2-.54-.28-.8-.14-.42-.19-.62-.07-.24-.1-.35-.08-.34-.11-.5h0A5.4,5.4,0,0,1-20,410.21Z"/><path class="cls-9" d="M-20,410.21l-3.07,3.08c-3.92,3.92,8.62,22.83,28,42.24s38.32,32,42.25,28c0,0-22-7.55-33.2-23.16q-2.65-3.7-5.2-7.16s0,0,0,0c-9-12.22-16.73-21.76-19.7-26.38-3.26-5.06-6.83-16.59,12.19-7.11C-9.28,411.71-17.54,407.77-20,410.21Z"/><path class="cls-13" d="M31.18,400.46a20.19,20.19,0,0,0-4.55,6.93A69.47,69.47,0,0,1,19.39,421a81.71,81.71,0,0,1-9.87,11.87,2.69,2.69,0,0,0,0,3.8L23.84,451a2.69,2.69,0,0,0,3.8,0l.47-.47c.6-.6,1.2-1.18,1.81-1.75-4.44-3.52-9.6-9.06-7.19-14.51,4-9,3.35-25.09,6.28-28.44,1.07-1.23,2.09-4,4-6.94A20.37,20.37,0,0,0,31.18,400.46Z"/><path class="cls-13" d="M39.86,438.83s-2.56-13-11.83-18.1C28,420.73,40.8,420.85,39.86,438.83Z"/><path class="cls-14" d="M58.31,405.41s8.71,7.49,0,18.79C58.3,424.2,62.51,416.73,58.31,405.41Z"/><path class="cls-15" d="M327.28,151.07a6.51,6.51,0,0,0,1.62,4.35,5.14,5.14,0,0,0,3.86,1.81H450.1c3,0,5.49-2.77,5.49-6.16a6.53,6.53,0,0,0-1.62-4.35,5.16,5.16,0,0,0-3.87-1.81h-5.54c-2.19-5.71-7.25-9.7-13.14-9.7a13.54,13.54,0,0,0-10.14,4.73c-3.46-6.58-9.83-11-17.13-11a17.8,17.8,0,0,0-5.76,1c-3.82-8.06-11.37-13.55-20.07-13.55-10.44,0-19.23,7.92-21.88,18.69a13,13,0,0,0-6.4-1.7c-6.52,0-12,4.89-13.74,11.57h-3.54C329.75,144.91,327.28,147.68,327.28,151.07Z"/><path class="cls-15" d="M-57.13,279.41a6.53,6.53,0,0,0,1.62,4.35,5.14,5.14,0,0,0,3.87,1.81H65.7c3,0,5.48-2.77,5.48-6.16a6.53,6.53,0,0,0-1.62-4.35,5.14,5.14,0,0,0-3.86-1.81H60.15C58,267.54,52.9,263.54,47,263.54a13.56,13.56,0,0,0-10.14,4.73c-3.46-6.58-9.83-11-17.13-11a18.07,18.07,0,0,0-5.76,1c-3.82-8.05-11.37-13.54-20.07-13.54-10.44,0-19.23,7.92-21.88,18.69a13,13,0,0,0-6.4-1.7c-6.52,0-12,4.88-13.74,11.57h-3.53C-54.66,273.25-57.13,276-57.13,279.41Z"/><path class="cls-16" d="M92.94,185.36a2.46,2.46,0,0,1-.61,1.65,2,2,0,0,1-1.48.69H46.21a2.23,2.23,0,0,1-2.09-2.34,2.45,2.45,0,0,1,.62-1.66,2,2,0,0,1,1.47-.69h2.11a5.47,5.47,0,0,1,5-3.69,5.18,5.18,0,0,1,3.86,1.8,7.44,7.44,0,0,1,6.51-4.18,7,7,0,0,1,2.2.36,8.55,8.55,0,0,1,7.63-5.15c4,0,7.32,3,8.33,7.11a5,5,0,0,1,2.43-.65,5.58,5.58,0,0,1,5.23,4.4h1.34A2.24,2.24,0,0,1,92.94,185.36Z"/><path class="cls-17" d="M396.31,337.39a4,4,0,0,1-1,2.64,3.13,3.13,0,0,1-2.35,1.1H321.71a3.56,3.56,0,0,1-3.33-3.74,3.92,3.92,0,0,1,1-2.64,3.11,3.11,0,0,1,2.35-1.1h3.37a8.72,8.72,0,0,1,8-5.9,8.24,8.24,0,0,1,6.16,2.87,11.9,11.9,0,0,1,10.4-6.68,10.71,10.71,0,0,1,3.5.59c2.32-4.9,6.91-8.23,12.19-8.23,6.34,0,11.68,4.81,13.29,11.35a7.88,7.88,0,0,1,3.89-1c4,0,7.3,3,8.35,7H393A3.56,3.56,0,0,1,396.31,337.39Z"/></g></g></svg>