<svg xmlns="http://www.w3.org/2000/svg" viewBox="0 0 360 504"><defs><style>.cls-1{fill:#ffe3ee;}.cls-2{opacity:0.3;}.cls-3{fill:#562603;}.cls-4{opacity:0.2;}.cls-5{fill:#081a10;}.cls-6{fill:#ffcae0;}.cls-7{fill:#fff;}.cls-8{fill:#fffaf0;}.cls-9{fill:#912531;}.cls-10{fill:#98c6aa;}.cls-11{fill:#8bb59b;}</style></defs><title>Asset 23</title><g id="Layer_2" data-name="Layer 2"><g id="Layer_3" data-name="Layer 3"><rect class="cls-1" width="360" height="504"/><g class="cls-2"><path class="cls-3" d="M42.66,481.9c0,6.93-5.75,11.05-6.41,11.5a14.16,14.16,0,0,1-2,1.11,12.36,12.36,0,0,1-12.33-1.17,14.57,14.57,0,0,1-6.3-12.1V267.69a.71.71,0,1,1,1.42,0V481.24a13.09,13.09,0,0,0,5.66,10.86,11,11,0,0,0,11,1,12.18,12.18,0,0,0,1.77-1c.6-.41,5.89-4.13,5.77-10.4-.05-4-2.13-8.69-6-9.91-2.52-.79-6.74-.34-8.1,2.59a6.09,6.09,0,0,0,0,4.5.77.77,0,0,1-.42,1,.72.72,0,0,1-.92-.44,7.67,7.67,0,0,1,0-5.67c1.62-3.47,6.34-4.44,9.79-3.36,4.52,1.43,6.94,6.77,7,11.31Z"/><path class="cls-3" d="M42.66,25.12v.17c-.06,4.53-2.48,9.88-7,11.3-3.45,1.09-8.17.11-9.79-3.35a7.7,7.7,0,0,1,0-5.68.7.7,0,0,1,.92-.43.75.75,0,0,1,.42.95,6.11,6.11,0,0,0,0,4.51c1.36,2.92,5.58,3.38,8.1,2.58,3.86-1.22,5.94-5.91,6-9.9v-.15c0-6.15-5.18-9.85-5.77-10.25a12.23,12.23,0,0,0-1.77-1,11,11,0,0,0-11,1.05,13.09,13.09,0,0,0-5.66,10.86V239.53a.71.71,0,1,1-1.42,0V25.78a14.59,14.59,0,0,1,6.3-12.1,12.36,12.36,0,0,1,12.33-1.17,14.22,14.22,0,0,1,2,1.12C36.91,14.08,42.66,18.19,42.66,25.12Z"/><path class="cls-3" d="M345.58,25.78V239.53a.71.71,0,1,1-1.42,0V25.78a13.11,13.11,0,0,0-5.65-10.86,11,11,0,0,0-11-1.05,12.23,12.23,0,0,0-1.77,1c-.59.4-5.77,4.1-5.77,10.25v.15c0,4,2.13,8.68,6,9.9,2.51.8,6.73.34,8.09-2.58a6.17,6.17,0,0,0,0-4.51.74.74,0,0,1,.41-.95.7.7,0,0,1,.92.43,7.7,7.7,0,0,1,0,5.68c-1.62,3.46-6.34,4.44-9.79,3.35-4.52-1.42-6.94-6.77-7-11.3v-.17c0-6.93,5.76-11,6.42-11.49a13.56,13.56,0,0,1,2-1.12,12.36,12.36,0,0,1,12.33,1.17A14.59,14.59,0,0,1,345.58,25.78Z"/><path class="cls-3" d="M345.58,267.69V481.24a14.57,14.57,0,0,1-6.3,12.1A12.36,12.36,0,0,1,327,494.51a13.51,13.51,0,0,1-2-1.11c-.66-.45-6.42-4.56-6.42-11.5v-.16c.06-4.54,2.48-9.88,7-11.31,3.45-1.08,8.17-.11,9.79,3.36a7.67,7.67,0,0,1,0,5.67.72.72,0,0,1-.92.44.75.75,0,0,1-.41-1,6.14,6.14,0,0,0,0-4.5c-1.36-2.93-5.58-3.38-8.09-2.59-3.87,1.22-6,5.91-6,9.91-.09,6.29,5.17,10,5.77,10.4a12.18,12.18,0,0,0,1.77,1,11,11,0,0,0,11-1,13.11,13.11,0,0,0,5.65-10.86V267.69a.71.71,0,1,1,1.42,0Z"/><path class="cls-3" d="M319.27,494.89a.72.72,0,0,1-.71.74H42a.74.74,0,0,1,0-1.48H318.56A.72.72,0,0,1,319.27,494.89Z"/><path class="cls-3" d="M319.27,12a.72.72,0,0,1-.71.74H42a.74.74,0,0,1,0-1.48H318.56A.72.72,0,0,1,319.27,12Z"/><path class="cls-3" d="M315.73,489a.73.73,0,0,1-.71.74H45.5a.72.72,0,0,1-.71-.74.73.73,0,0,1,.71-.75H315A.73.73,0,0,1,315.73,489Z"/><path class="cls-3" d="M315.73,17.9a.73.73,0,0,1-.71.74H45.5a.74.74,0,0,1,0-1.48H315A.73.73,0,0,1,315.73,17.9Z"/><path class="cls-3" d="M23.06,253.61a6.89,6.89,0,0,1-6.73,7,7,7,0,0,1,0-14A6.89,6.89,0,0,1,23.06,253.61Zm-12,0a5.43,5.43,0,0,0,5.3,5.54,5.54,5.54,0,0,0,0-11.08A5.43,5.43,0,0,0,11,253.61Z"/><path class="cls-3" d="M351,253.61a6.74,6.74,0,1,1-6.73-7A6.89,6.89,0,0,1,351,253.61Zm-12,0a5.31,5.31,0,1,0,5.31-5.54A5.44,5.44,0,0,0,339,253.61Z"/></g><g class="cls-4"><path class="cls-5" d="M313.78,194.18c0,.07,5-2,6.27-1.7s-.28,2.44-.68,2.8a1,1,0,0,1,.69,1.24c-.16.52-1,.58-1,.58s.63,1.64-.1,2.5c-1.18,1.34-5.4-4.49-5.46-4.4Z"/><path class="cls-5" d="M313.78,194.18c0-.06-3.26-4.36-4.63-4.61s-.74,1.87-.6,2.35c0,0-1-.27-1.16.48-.11.43.58.95.58.95s-1.36.71-1.23,1.66c.18,1.71,6.74.3,6.74.19Z"/><path class="cls-5" d="M315.78,184.53c0,.06,4.26-2.49,5.5-2.36s.05,2.22-.27,2.61c0,0,.91.16.78,1-.07.49-.85.66-.85.66s.78,1.39.24,2.25c-.9,1.36-5.51-3.29-5.54-3.21C315.69,185.17,315.73,184.85,315.78,184.53Z"/><path class="cls-5" d="M315.78,184.53c0-.05-3.51-3.51-4.79-3.56s-.45,1.81-.26,2.23c0,0-.9-.12-1,.59-.05.4.65.78.65.78s-1.15.83-.91,1.68c.39,1.52,6.17-.67,6.16-.76C315.69,185.17,315.73,184.85,315.78,184.53Z"/><path class="cls-5" d="M316.43,174.78s3.66-2.9,4.83-3,.32,2.06.08,2.46c0,0,.87,0,.85.83,0,.46-.71.73-.71.73s.91,1.16.52,2c-.66,1.38-5.55-2.27-5.57-2.19Z"/><path class="cls-5" d="M316.43,174.78c0-.05-3.71-2.78-4.91-2.65s-.19,1.74.05,2.11c0,0-.86,0-.85.69,0,.38.7.64.71.64s-1,.94-.64,1.69c.56,1.36,5.65-1.49,5.64-1.57Z"/><path class="cls-5" d="M315.89,166.11s2.91-3,3.93-3.15.5,1.75.33,2.13c0,0,.76-.07.84.63,0,.4-.55.72-.55.72s.93.91.68,1.71c-.42,1.3-5.13-1.3-5.13-1.24C316,166.64,315.92,166.37,315.89,166.11Z"/><path class="cls-5" d="M315.89,166.11s-3.55-2-4.59-1.79,0,1.58.26,1.88c0,0-.75.12-.66.71,0,.34.69.49.69.49s-.75.95-.37,1.58c.64,1.12,4.79-2,4.77-2.07C316,166.64,315.92,166.37,315.89,166.11Z"/><path class="cls-5" d="M314,156.55s2.22-3.05,3.12-3.34.65,1.5.54,1.86c0,0,.68-.17.83.45.09.35-.4.71-.4.71s.93.69.81,1.44c-.21,1.21-4.71-.47-4.71-.42C314.17,157,314.11,156.78,314,156.55Z"/><path class="cls-5" d="M314,156.55s-3.4-1.35-4.3-1,.22,1.43.47,1.66c0,0-.65.21-.5.73.08.31.67.35.67.35s-.54,1-.13,1.48c.72.92,4-2.46,4-2.51C314.17,157,314.11,156.78,314,156.55Z"/><path class="cls-5" d="M311.56,148.92s1.61-2.87,2.35-3.21.7,1.23.64,1.55c0,0,.57-.22.76.3.1.29-.27.65-.27.65s.86.49.83,1.15c-.06,1.07-4.09.11-4.08.15C311.71,149.31,311.63,149.12,311.56,148.92Z"/><path class="cls-5" d="M311.56,148.92s-3.06-.83-3.79-.44.32,1.22.57,1.4c0,0-.54.25-.36.69.1.26.61.24.61.24s-.36.89.05,1.3c.7.72,3.17-2.57,3.15-2.6C311.71,149.31,311.63,149.12,311.56,148.92Z"/><path class="cls-5" d="M309,143.13s1.24-2.8,1.89-3.17.75,1.07.73,1.37c0,0,.5-.25.71.21.13.27-.19.63-.19.63s.83.38.86,1c0,1-3.75.47-3.74.51C309.18,143.49,309.09,143.31,309,143.13Z"/><path class="cls-5" d="M309,143.13s-2.89-.5-3.54-.08.41,1.11.65,1.26c0,0-.47.27-.27.67.12.23.59.17.59.17s-.26.86.15,1.21c.72.61,2.7-2.67,2.68-2.69C309.18,143.49,309.09,143.31,309,143.13Z"/><path class="cls-5" d="M306.31,138.18a9.08,9.08,0,0,1,1.21-2.45c.47-.3.6.74.6,1,0,0,.36-.21.54.11s-.1.47-.1.47.62.23.68.67c.09.74-2.71.6-2.71.62Z"/><path class="cls-5" d="M306.31,138.18s-2.15-.21-2.6.13.37.82.56.91c0,0-.33.23-.16.52s.45.09.45.09-.14.66.19.9c.57.41,1.79-2.15,1.78-2.17Z"/><path class="cls-5" d="M303.6,134a7.56,7.56,0,0,1,.86-2.12c.37-.27.54.58.56.77a.32.32,0,0,1,.45,0c.09.15-.06.4-.06.4s.53.15.6.52c.12.6-2.2.67-2.2.68Z"/><path class="cls-5" d="M303.6,134a5.55,5.55,0,0,0-2.14.25c-.35.3.36.66.52.73,0,0-.26.21-.09.44s.38.05.38.05-.08.57.21.74c.5.31,1.34-1.9,1.33-1.91Z"/><path class="cls-5" d="M311,202.51c.09,0,.17,0,.21-.11a71.87,71.87,0,0,0-8.67-70.34c-.07-.08-.16-.11-.23-.06a.17.17,0,0,0,0,.24,71.55,71.55,0,0,1,8.63,70A.17.17,0,0,0,311,202.51Z"/></g><path class="cls-6" d="M37.22,237.44c-1.63-.07-1.43,2.23-1.43,2.23s-1.67-1.59-2.64-.28c-1.1,1.49,1.81,4.29,4.49,4.13C39.36,241.56,39.06,237.51,37.22,237.44Z"/><path class="cls-6" d="M71.92,242.67c-4.34-.17-3.82,5.94-3.82,5.94s-4.45-4.22-7-.72c-2.92,4,4.81,11.41,12,11C77.63,253.65,76.83,242.86,71.92,242.67Z"/><path class="cls-6" d="M106.62,247c-2-2.47-5.14.81-5.14.81s.15-4.52-3-4.23c-3.61.32-3.93,8.24-.2,12C103.37,255.49,108.93,249.77,106.62,247Z"/><path class="cls-6" d="M69.26,215.06c-.53-1.54-2.6-.52-2.6-.52s.87-2.13-.71-2.55c-1.78-.48-3.32,3.25-2.19,5.69C66.22,218.57,69.88,216.8,69.26,215.06Z"/><path class="cls-7" d="M64.19,175.81s3.24-2.22,3.37-8.54-3-9.64-3-9.64A14.81,14.81,0,0,0,61.1,168C61.27,174.18,64.19,175.81,64.19,175.81Z"/><path class="cls-7" d="M54.4,170.93a6.75,6.75,0,0,0-5.12-4.32,7,7,0,0,0-6.45,2.21s2,4.1,6.31,4.56A5,5,0,0,0,54.4,170.93Z"/><path class="cls-7" d="M61,180.29a9.2,9.2,0,0,1-7.23,5.76,9.87,9.87,0,0,1-8.87-3.39s2.87-5.58,8.88-6C59.22,176.25,61,180.29,61,180.29Z"/><path class="cls-8" d="M43.49,125.44a.4.4,0,0,0-.3,0,.63.63,0,0,0-.4.73c.05.39,5.67,38.81,23,56.69a.43.43,0,0,0,.7-.09.75.75,0,0,0-.08-.89c-17-17.59-22.58-55.55-22.64-55.93A.64.64,0,0,0,43.49,125.44Z"/><path class="cls-8" d="M53.25,131c-.24-.15-.44-.28-.56,0-.21.53-5.08,12.87,0,30.86a.47.47,0,0,0,.66.32.74.74,0,0,0,.32-.84c-4.9-17.48-.11-29.62-.06-29.74.12-.31-.06-.46-.3-.62Z"/><path class="cls-8" d="M37.55,139.87a.41.41,0,0,0-.47,0,.74.74,0,0,0-.17.87c.52,1.08,12.68,26.39,21.9,32.83a.44.44,0,0,0,.67-.25.73.73,0,0,0-.2-.86c-9-6.27-21.4-32.12-21.52-32.38A.61.61,0,0,0,37.55,139.87Z"/><path class="cls-9" d="M53.21,135.64s4.17-1.95,4.39-7.75-5-5.4-7-.69S51.34,137.09,53.21,135.64Z"/><path class="cls-9" d="M47.29,121.06S47,117,44,116.85s-5.2,4.68-3.61,8.26,3.84,3,4.88,1.94S47.77,123,47.29,121.06Z"/><path class="cls-9" d="M41,139.07s-1-3.79-4.28-4.24-4.58,5.69-2.42,8.45,3.71,3.59,5.53,2.05S41.53,140.29,41,139.07Z"/><path class="cls-10" d="M295.06,107s3.43-10-3-16.7a20,20,0,0,0-14.95-5.93S274.38,104.87,295.06,107Z"/><path class="cls-11" d="M294.64,106.5s-3.08-4.94-10.57-4.73c0,0,4.42-1,7.35,1.06A19,19,0,0,0,280.3,95.7a13.31,13.31,0,0,1,8.2,3,17.24,17.24,0,0,0-10.22-8.33s5.64,1.14,8.57,4.52c0,0-4.09-7.29-9-9.58,0,0,6.68,2.73,9.52,8.61,0,0-.16-3.24.8-4.69a24.59,24.59,0,0,0,.63,7.52s.43-3.77,2-4.51c0,0-1.6,5.65.55,9.29,0,0-.36-3.38,1.41-4.73C292.79,96.83,291.82,103,294.64,106.5Z"/><path class="cls-10" d="M299.26,114.14s8.66,6.12,16.86,1.86a20,20,0,0,0,9.9-12.68S307.15,94.91,299.26,114.14Z"/><path class="cls-11" d="M299.88,113.89s5.61-1.57,7.52-8.81c0,0-.28,4.53-3.09,6.75,0,0,6.75-2.24,10-8.66a13.36,13.36,0,0,1-5.21,7,17.24,17.24,0,0,0,10.87-7.47s-2.68,5.09-6.75,7c0,0,8.14-1.87,11.73-5.93,0,0-4.51,5.64-10.94,6.7,0,0,3.15.77,4.27,2.09a24.7,24.7,0,0,0-7.4-1.51s3.5,1.47,3.76,3.22c0,0-5-3.13-9.07-2.09,0,0,3.35.6,4.15,2.68C309.69,114.83,304,112.16,299.88,113.89Z"/></g></g></svg>