<svg id="Layer_1" data-name="Layer 1" xmlns="http://www.w3.org/2000/svg" xmlns:xlink="http://www.w3.org/1999/xlink" viewBox="0 0 360 504"><defs><style>.cls-1{fill:none;}.cls-2{clip-path:url(#clip-path);}.cls-3{fill:#fff8e9;}.cls-4{opacity:0.2;}.cls-5{fill:#a0d468;}.cls-6{fill:#fc6e51;}.cls-7{fill:#5d9cec;}.cls-8{fill:#ffce54;}.cls-9{fill:#ed5564;}.cls-10{fill:#e6e9ed;}.cls-11{fill:#ffb8ba;}.cls-11,.cls-12,.cls-13,.cls-14{fill-rule:evenodd;}.cls-12{fill:#ff9295;}.cls-13{fill:#ffe08e;}.cls-14{fill:#fab769;}</style><clipPath id="clip-path"><rect class="cls-1" width="360.19" height="503.24"/></clipPath></defs><g class="cls-2"><rect class="cls-3" width="360" height="504"/><g class="cls-4"><path class="cls-5" d="M348.79,480.13l74.75-27.91s-6.56-87.15-8.25-87.43-61.5-105.91-61.5-105.91L222.24,193.1l-75.75-14L55.78,220l-83.71,86.71L-60.61,446.24,0,463.17l5-79.72L33.87,308.7l69.75-50.82,72.27-8.41,73.25,4.41L303,298.73l45.83,70.78V480.13Z"/><polygon class="cls-6" points="484.34 445.24 478.36 384.45 448.46 278.81 408.59 225.55 336.83 159.21 215.25 122.33 164.43 122.33 104.63 133.31 33.88 162.2 -12.77 183.13 -60.61 242.93 -107.65 340.59 -132.58 401.39 -83.73 452.22 -60.61 405.97 -39.89 319.66 19.91 230.17 105.63 191.09 222.24 181.14 313.92 225.55 369.93 260.87 407.61 332.62 423.54 399.4 423.54 452.22 484.34 445.24"/><path class="cls-7" d="M24.88,464.06a158.74,158.74,0,0,1-5.77-42.51c0-87.95,71.53-159.47,159.47-159.47S338,333.6,338,421.55a158.74,158.74,0,0,1-5.77,42.51h32.89a190.49,190.49,0,0,0,4.79-42.51c0-105.54-85.84-191.38-191.35-191.38S-12.77,316-12.77,421.55A190.48,190.48,0,0,0-8,464.06Z"/><path class="cls-8" d="M-40.64,464.06a225.53,225.53,0,0,1-4-42.51A223.22,223.22,0,0,1,178.58,198.29,223.22,223.22,0,0,1,401.82,421.55a225.61,225.61,0,0,1-4,42.51H430.2a259.51,259.51,0,0,0,3.5-42.51A255.13,255.13,0,0,0,178.58,166.4,255.13,255.13,0,0,0-76.56,421.55,257.34,257.34,0,0,0-73,464.06Z"/><path class="cls-9" d="M-105.34,464.06a288.07,288.07,0,0,1-3.11-42.51,287,287,0,0,1,287-287,287.05,287.05,0,0,1,287,287.05,288.17,288.17,0,0,1-3.13,42.51h32.19a320.62,320.62,0,0,0,2.82-42.51A318.92,318.92,0,0,0,178.58,102.61,318.92,318.92,0,0,0-140.36,421.55a320.62,320.62,0,0,0,2.83,42.51Z"/><path class="cls-10" d="M19.11,437.48h-34.8A48,48,0,0,0-60.61,406a47.66,47.66,0,0,0-27.24,8.48,79,79,0,0,0-36.55-8.86,79.82,79.82,0,0,0-79.73,79.73,79.84,79.84,0,0,0,79.73,79.74H19.11a63.79,63.79,0,1,0,0-127.58Z"/><path class="cls-10" d="M481.54,405.59A79.17,79.17,0,0,0,445,414.45a47.83,47.83,0,0,0-72.15,23H338a63.79,63.79,0,0,0,0,127.58H481.54a79.74,79.74,0,1,0,0-159.47Z"/></g><path class="cls-11" d="M332.54,536.28a7.46,7.46,0,0,1-3.13-1.9c-.42-.41-.79-.8-1.14-1.21a10.73,10.73,0,0,1-1.16-1.74,11.81,11.81,0,0,1-.92-2.07,21.83,21.83,0,0,1-1.13-4.54,17.19,17.19,0,0,1,0-4.11c.09-.74.24-1.52.43-2.38l-.06.08-.08.06c-.3.22-.61.43-.92.63a17.24,17.24,0,0,1-2.72,1.36,14.26,14.26,0,0,1-1.93.67,13.39,13.39,0,0,1-3.86.59l-.57,0a13.34,13.34,0,0,1-3-.7c-.45-.15-.89-.33-1.4-.55a8.1,8.1,0,0,1-2.1-1.35,9.92,9.92,0,0,1-2.36-3,6.81,6.81,0,0,1-.55-1.57l0-.11a9.29,9.29,0,0,1-.3-2.11,16.41,16.41,0,0,1,.36-3.88,28.56,28.56,0,0,1,1.13-3.65l0-.06a24.21,24.21,0,0,1,1.41-3.31,32.11,32.11,0,0,1,2-3.44,19.47,19.47,0,0,1,2.41-2.79l.08-.08a50.88,50.88,0,0,1,5.69-4.81C321,488.64,323,487.22,325,486c1.21-.79,2.41-1.54,3.67-2.31-.32.11-.66.19-1,.27-1.6.4-3.21.77-4.67,1.08l-1,.22a52.35,52.35,0,0,1-6.79,1.19,50,50,0,0,1-8.12.13l-.24,0a31.41,31.41,0,0,1-3.37-.5,29.18,29.18,0,0,1-3.14-.76,15.71,15.71,0,0,1-2.37-1,25.21,25.21,0,0,1-3.76-2.18,9.51,9.51,0,0,1-2.92-3.18,10.32,10.32,0,0,1-.85-1.87,8.28,8.28,0,0,1-.37-1.71,15.69,15.69,0,0,1-.15-2.42,12.89,12.89,0,0,1,.52-3,13.31,13.31,0,0,1,1.1-2.66,15.85,15.85,0,0,1,1.53-2.44,19.88,19.88,0,0,1,2-2.26,10.25,10.25,0,0,1,1.06-.86l.05,0,.14-.1c.33-.25.67-.48,1-.71a14.6,14.6,0,0,1,3.53-1.69l-.18-.17a15.68,15.68,0,0,1-2-2.84,11.87,11.87,0,0,1-1.3-3.13,15.54,15.54,0,0,1-.29-3.87,23.83,23.83,0,0,1,.18-2.38,8.06,8.06,0,0,1,.54-2.12,6.65,6.65,0,0,1,.77-1.35l.11-.17a14.33,14.33,0,0,1,1.66-2.15,10.16,10.16,0,0,1,3.6-2.47,11,11,0,0,1,3.74-.78c.73,0,1.46,0,2.18,0q.44,0,.87.06a23.09,23.09,0,0,1,2.94.45,40.27,40.27,0,0,1,7.21,2.43,53.06,53.06,0,0,1,6.58,3.44,62.12,62.12,0,0,1,5.93,4.17,2.07,2.07,0,0,1-.22-.35l0-.09c-.39-.76-.78-1.55-1.15-2.33-1.2-2.54-2.27-4.83-3.14-7.23-.53-1.45-.89-2.58-1.18-3.65-.19-.73-.36-1.39-.49-2a17.29,17.29,0,0,1-.28-1.77l0-.32a34,34,0,0,1-.17-3.76,15.25,15.25,0,0,1,.53-3.71,28.3,28.3,0,0,1,3.4-7.94,10.32,10.32,0,0,1,2.83-2.9,10,10,0,0,1,3-1.35,13.66,13.66,0,0,1,2.15-.4,11.44,11.44,0,0,1,2.18,0c.28,0,.55.06.83.11a9.76,9.76,0,0,1,2.52.73,10.88,10.88,0,0,1,2.25,1.47,18.16,18.16,0,0,1,2.62,2.69c.78.93,1.48,1.94,2.25,3.07a17.85,17.85,0,0,1,1.65,3c.5,1.19,1,2.44,1.4,3.82.11.36.22.73.32,1.1l.08-.2c.15-.3.32-.61.48-.91l.1-.18c.66-1.18,1.35-2.29,2-3.28a34.59,34.59,0,0,1,2.35-2.9,10.88,10.88,0,0,1,3.34-2.51,10.36,10.36,0,0,1,2.27-.78,8.17,8.17,0,0,1,2.73-.26l.43.05a9.77,9.77,0,0,1,2.71.77,11,11,0,0,1,2.72,1.78,14.76,14.76,0,0,1,1.77,1.92,7.31,7.31,0,0,1,1,2,15.65,15.65,0,0,1,.19,7.43c-.42,2.47-1,4.94-1.58,7.25-.63,2.52-1.32,4.94-2,7.18s-1.52,4.4-2.52,6.86c-.61,1.52-1.3,3.13-2.24,5.22l-.12.26-.44,1c.6-.49,1.27-1,2.14-1.63,2.87-2.09,5.5-3.84,8.06-5.37a68.1,68.1,0,0,1,6.72-3.39c2.19-1,4.54-2.05,6.94-3a34.56,34.56,0,0,1,3.52-1.14,22,22,0,0,1,3.22-.66,8.39,8.39,0,0,1,1.5,0c.49,0,1,.12,1.43.18a13.17,13.17,0,0,1,4,1.42,8.51,8.51,0,0,1,2.82,2.32,5.33,5.33,0,0,1,.88,1.57,7.27,7.27,0,0,1,.34,1.91,11.34,11.34,0,0,1-.93,4.86,32.49,32.49,0,0,1-2.4,4.58,29.67,29.67,0,0,1-2.52,3.65.24.24,0,0,1,.12,0c.36,0,.72,0,1.09,0,.74,0,1.37,0,1.93.09a15,15,0,0,1,3.08.57,8.42,8.42,0,0,1,2.18,1.06,11.8,11.8,0,0,1,1.65,1.23A14.54,14.54,0,0,1,415,467a6.89,6.89,0,0,1,1.29,3.15,7.67,7.67,0,0,1,0,2.87,7.51,7.51,0,0,1-.91,2.16,16.51,16.51,0,0,1-5.23,5.65c-1,.65-2.09,1.3-3.31,2a20.31,20.31,0,0,1-3.47,1.45,32.31,32.31,0,0,1-7.47,1.33l-.37,0c-1.09.1-2.3.21-3.45.22-1.46,0-2.79-.06-4.05-.15l-.21,0c-.56-.05-1.16-.12-1.87-.21l.2.07c.23.11.45.23.68.36,1.13.63,2.26,1.35,3.25,2l.07.05a30.53,30.53,0,0,1,2.52,1.87l.58.46a44.32,44.32,0,0,1,5.36,5l.18.19a26.31,26.31,0,0,1,2.28,2.8c.35.53.71,1.1,1.11,1.81a10,10,0,0,1,.63,1.32l.12.28a22.39,22.39,0,0,1,1.1,3.41,11.89,11.89,0,0,1,.35,2.88,10.26,10.26,0,0,1-.29,2.36,14.09,14.09,0,0,1-1.07,3.11,11.15,11.15,0,0,1-2.41,3.26,12.23,12.23,0,0,1-2.25,1.61,9.8,9.8,0,0,1-1.35.58l-.24.09a8.18,8.18,0,0,1-2.1.5,13,13,0,0,1-2.16,0,12.05,12.05,0,0,1-1.53-.23,13.73,13.73,0,0,1-2-.69,21.88,21.88,0,0,1-2.56-1.21v.19c-.1.64-.23,1.34-.42,2.16a30.13,30.13,0,0,1-1.09,3.63,35.64,35.64,0,0,1-1.59,3.57,9.2,9.2,0,0,1-2.06,2.88,8.16,8.16,0,0,1-3.11,1.69,5.51,5.51,0,0,1-2.18.23,5,5,0,0,1-1.15-.23,9.31,9.31,0,0,1-2.28-1.11,25.63,25.63,0,0,1-5.58-5.12l-.24-.28a28.37,28.37,0,0,1-2.2-2.84,34.35,34.35,0,0,1-1.88-3.37,70.41,70.41,0,0,1-3.08-7.22c-.73-2.06-1.39-4.18-2-6.5v.23c0,.16-.06.33-.08.49-.2,1.21-.42,2.36-.66,3.44-.3,1.35-.62,2.67-1,3.91s-.82,2.59-1.26,3.76a49.41,49.41,0,0,1-3.19,7,44,44,0,0,1-4.22,6.48A17.38,17.38,0,0,1,345,532.6c-.51.44-1.08.89-1.79,1.4a16.3,16.3,0,0,1-3.14,1.86,11.42,11.42,0,0,1-3.85.74,15.48,15.48,0,0,1-2,0A9.25,9.25,0,0,1,332.54,536.28Z"/><path class="cls-12" d="M334.24,535.83l-.14,0c-.36,0-.72-.1-1.07-.18a10.59,10.59,0,0,1-1.7-.56,9.61,9.61,0,0,1-1.23-.66,8.3,8.3,0,0,1-2.9-3.39,30.38,30.38,0,0,1-1.65-4.53l-.12-.37c-.39-1.29-.73-2.66-1-3.86l-.16-.62-.15-.62a2.57,2.57,0,0,1-.32.22,11.91,11.91,0,0,1-1.91.91,21.83,21.83,0,0,1-2.1.62,13,13,0,0,1-2.13.31,10.49,10.49,0,0,1-1.77,0,14.79,14.79,0,0,1-2.57-.48,16.86,16.86,0,0,1-4-1.82,7.77,7.77,0,0,1-1.66-1.28,4.06,4.06,0,0,1-1.2-2,1.56,1.56,0,0,1,.95-1.75,1.52,1.52,0,0,1,.68-.09l.17,0a1.34,1.34,0,0,1,1,1,1.11,1.11,0,0,1,0,.48l.34.38.44.38c.38.27.77.51,1.14.73s.86.46,1.37.72,1.23.46,1.85.64c.43.09.88.18,1.39.26H316c.28,0,.55,0,.82,0,.43,0,.88,0,1.39-.08s.84-.15,1.37-.28a15.88,15.88,0,0,0,1.61-.55,9.5,9.5,0,0,0,.9-.44,13.58,13.58,0,0,0,1.13-.78l.07,0,.08-.06.38-.29a1.74,1.74,0,0,1,1.15-.33,1.17,1.17,0,0,1,.35.08c.88.3,1.15,1.23,1.38,2l0,.09c.2.71.39,1.44.59,2.24.12.5.25,1,.38,1.49l-.07-.18a54.06,54.06,0,0,0,1.89,5.87c.16.34.31.66.47,1a9.78,9.78,0,0,0,.6.88c.14.16.27.32.42.47s.29.27.45.4.38.26.58.38l.56.28c.22.08.43.16.65.22l1.08.24c.25,0,.5.06.74.08s.57.05.86.06c.61,0,1.15-.05,1.65-.11l1-.22c.34-.11.67-.22,1-.35.65-.3,1.24-.61,1.82-.93s.83-.54,1.2-.81a29.5,29.5,0,0,0,2.24-2,34.27,34.27,0,0,0,2.71-3.16,31.9,31.9,0,0,0,1.84-2.78,62.92,62.92,0,0,0,2.82-5.79,36.71,36.71,0,0,0,1.41-4c.27-1,.53-2,.82-3.23s.52-2.17.69-3.23c.2-1.59.3-3.17.38-4.49a1.37,1.37,0,0,1,1.22-1.24c-.39-1.94-.69-3.74-.91-5.5s-.34-3.06-.44-4.35l-.15-2.28,0-.38a17.49,17.49,0,0,1,0-1.76,1.55,1.55,0,0,1,.65-1.19,1.42,1.42,0,0,1,.78-.23l0-.06a1.4,1.4,0,0,1,0-1,1.35,1.35,0,0,1,.73-.72,1.4,1.4,0,0,1,.51-.09,1.89,1.89,0,0,1-.21-1.06,1.46,1.46,0,0,1,.53-.92,1.36,1.36,0,0,1,1-.29,1.34,1.34,0,0,1,1.12.87,1.13,1.13,0,0,1,.35-.67,1.27,1.27,0,0,1,1-.36h.13l-.06,0a1.21,1.21,0,0,1,.5.18,1.45,1.45,0,0,1,1.15-.63h.3a2.92,2.92,0,0,1,.78.18c.22.07.44.16.66.25a1.13,1.13,0,0,1,0-.52,1.39,1.39,0,0,1,.89-1,1.21,1.21,0,0,1,.58-.07,3.76,3.76,0,0,1,.82.19l.25.08c.48.14.95.29,1.42.45l2.13.68.81.26c1.61.52,3.74,1.2,5.93,1.81l-.17,0c1.48.36,2.52.6,3.47.8,1.13.24,2.3.42,3.4.58h-.06l2.26.22c1.42.13,3,.21,5,.27a26.25,26.25,0,0,0,2.8-.14,59.34,59.34,0,0,0,6.36-1.29,24.45,24.45,0,0,0,2.63-.91,47.27,47.27,0,0,0,4.9-2.31,21.24,21.24,0,0,0,2.16-1.48c.29-.23.57-.48.88-.77s.46-.51.67-.78l0,.06c.37-.5.78-1.06,1.16-1.69.14-.26.28-.52.4-.8s.2-.57.29-.87.12-.54.17-.82,0-.38.05-.57A10.65,10.65,0,0,0,414,471c0-.14-.05-.28-.07-.43-.11-.36-.24-.72-.38-1.08s-.22-.44-.34-.66l-.22-.33c-.24-.29-.46-.55-.67-.77s-.52-.46-.8-.67c-.51-.37-1-.71-1.51-1a20.84,20.84,0,0,0-1.95-1c-.54-.21-1.09-.39-1.63-.56l-.19-.07-.91-.31a7,7,0,0,1-.81-.33,3.84,3.84,0,0,1-1.14-.92,3.25,3.25,0,0,1-.69-1.11,3.71,3.71,0,0,1,0-1.87,9.84,9.84,0,0,1,1.33-3l.06-.1c.53-.93,1-1.78,1.42-2.67a15.36,15.36,0,0,0,.58-1.66,10.38,10.38,0,0,0,.26-1.25,6.33,6.33,0,0,0,.05-.76,16.06,16.06,0,0,0-.1-1.86,1.48,1.48,0,0,1,1.19-1.52,1.06,1.06,0,0,1,.4,0,1.43,1.43,0,0,1,1.26,1,6.8,6.8,0,0,1,.3,1.22,11.09,11.09,0,0,1,.06,1.37,10.48,10.48,0,0,1-.32,2.28,17.12,17.12,0,0,1-.86,2.46,21,21,0,0,1-1.09,2.06l-.13.21-.27.47c-.3.52-.65,1.12-.93,1.73l0,.1a1.8,1.8,0,0,0-.08.21c0,.18-.07.36-.1.55a.28.28,0,0,1,0,.09,1.89,1.89,0,0,0,.23.25l.18.09c.42.16.87.31,1.24.42l.42.14c.69.22,1.37.49,2,.78a17.87,17.87,0,0,1,3.76,2.23,9.93,9.93,0,0,1,1.58,1.5,6.64,6.64,0,0,1,.65.85,12.3,12.3,0,0,1,.59,1.1,8.38,8.38,0,0,1,.71,4.79,10.86,10.86,0,0,1-.57,2.2,10.09,10.09,0,0,1-1,2,13.73,13.73,0,0,1-2.81,3.25,20.21,20.21,0,0,1-3.88,2.52c-1.37.69-2.8,1.3-3.89,1.75-.66.27-1.35.56-2.08.8s-1.31.39-2.05.57c-1.25.3-2.58.58-4.31.9a24.59,24.59,0,0,1-4.48.42c-1.36,0-2.81-.07-4.69-.2l-.72-.06c-.59-.05-1.19-.12-1.84-.2l-.17,0c-1.67-.24-3.12-.49-4.42-.77s-2.89-.69-4.35-1.12c-2.28-.67-4.56-1.4-6.51-2,2.16,1.11,4.26,2.31,6.26,3.55,1.19.74,2.37,1.55,3.51,2.41a23.18,23.18,0,0,1,3.21,2.82,10.29,10.29,0,0,1,.82,1,2.13,2.13,0,0,1,.43,2.05,1.54,1.54,0,0,1-.63.75,1.8,1.8,0,0,1-.86.22h-.16a4,4,0,0,1-1.33-.44l-.24-.1c-1.22-.55-2.49-1.18-3.86-1.91s-2.53-1.43-3.77-2.23-2.36-1.58-3.4-2.31l-.32-.22-.7-.49-.71-.49-.47-.32-.46-.32c.9.9,1.87,1.93,3.25,3.43.89,1,1.78,1.92,2.66,2.89l2.41,2.61.32.36c.8.86,1.6,1.72,2.39,2.59l1,1.08.33.37.38.44.23.27a3.86,3.86,0,0,1,.9,1.5,1.39,1.39,0,0,1-.81,1.6,1.64,1.64,0,0,1-.71.12l-.22,0a3.18,3.18,0,0,1-.88-.46l-.8-.56q-.84-.61-1.68-1.26c-1.1-.84-2.17-1.76-3.2-2.66L372,499c-2.17-1.87-4.27-3.87-6.25-5.93-.51-.53-1-1.07-1.51-1.61.6.85,1.24,1.81,2,3l.39.61c.68,1.05,1.37,2.11,2,3.18.4.66.76,1.27,1.07,1.9s.51,1,.72,1.54a6.62,6.62,0,0,1,.54,2.44,1.8,1.8,0,0,1-1,1.74,1.74,1.74,0,0,1-.82.14l-.22,0a2.38,2.38,0,0,1-1.06-.62,11.86,11.86,0,0,1-1.2-1.46l-.22-.29c-.92-1.23-1.78-2.5-2.49-3.57-.86-1.28-1.57-2.44-2.19-3.53l-.16-.27c-.43-.77-.93-1.64-1.36-2.5-.56-1.1-1-2.11-1.49-3.08-.23-.52-.47-1-.69-1.56l0,.12c0,.31,0,.61.07.91.11,1.38.25,2.79.42,4.2a90.93,90.93,0,0,0,2.15,11.15,59.22,59.22,0,0,0,2.11,6c1,2.42,2.16,5,3.49,7.38.48.8.95,1.58,1.41,2.3s1.13,1.66,1.6,2.28l0,.06h0a32.24,32.24,0,0,0,2.14,2.48c.49.47.92.86,1.34,1.2s.75.54,1.13.78l.75.38.44.14.28.06h.11l.32,0h.25l.11,0,.23-.08a10.83,10.83,0,0,0,1.2-.62l.5-.36c.25-.22.51-.46.82-.77a17.33,17.33,0,0,0,1.37-1.53c.26-.35.52-.73.78-1.16a29.67,29.67,0,0,0,1.37-2.81c.32-.78.63-1.58.93-2.38l0-.11a12,12,0,0,1,1.06-2.27,2.68,2.68,0,0,1,2.61-1.15,3.74,3.74,0,0,1,1,.24c.7.27,1.5.58,2.33.82.31.08.63.15.95.21l.2,0,.32,0a13.74,13.74,0,0,0,1.48-.07c.34-.05.64-.11.9-.17a7.63,7.63,0,0,0,.84-.31c.35-.15.61-.28.86-.41.41-.26.81-.55,1.14-.81a19.5,19.5,0,0,0,1.59-1.41c.41-.42.82-.9,1.33-1.53l.12-.16.2-.28a1.51,1.51,0,0,1,1.34-.62,1.41,1.41,0,0,1,.66.23,1.47,1.47,0,0,1,.39,2,14.73,14.73,0,0,1-3.05,3.43c-.49.42-1,.84-1.72,1.33a9.8,9.8,0,0,1-1.84,1,10.54,10.54,0,0,1-4.17.75l-.56,0a13.44,13.44,0,0,1-3.33-.84l-.38-.13-.72-.26h-.19c-.11.22-.21.43-.3.64-.22.52-.43,1-.64,1.58l0,.1a29.1,29.1,0,0,1-2.68,5.6,12.86,12.86,0,0,1-1.32,1.66c-.57.63-1,1.09-1.48,1.5a8.08,8.08,0,0,1-1.73,1.22c-.3.16-.64.35-1,.51a4.64,4.64,0,0,1-1.83.4l-.47,0a7.48,7.48,0,0,1-3.58-1.44,19.35,19.35,0,0,1-3.16-2.81,37.67,37.67,0,0,1-5-7,69.94,69.94,0,0,1-3.67-7.76,53.29,53.29,0,0,1-2.14-6.24,2.34,2.34,0,0,1,0,.53,26.38,26.38,0,0,1-.74,4.06l0,.13c-.3,1.21-.7,2.78-1.2,4.3a41.58,41.58,0,0,1-1.63,4c-.65,1.44-1.23,2.64-1.83,3.76a27,27,0,0,1-2.31,3.73,30.63,30.63,0,0,1-6.32,6.49,16.79,16.79,0,0,1-1.93,1.17,12.45,12.45,0,0,1-2,.88,13,13,0,0,1-2.33.52,15.7,15.7,0,0,1-2.35.09l-.39,0C334.64,535.89,334.44,535.86,334.24,535.83Z"/><path class="cls-12" d="M342.37,509.82a2.22,2.22,0,0,1-.95-.6l-.05-.06a2.94,2.94,0,0,1-.3-.42,4.64,4.64,0,0,1-.23-.53,4.39,4.39,0,0,1-.2-1.38,11.17,11.17,0,0,1,.4-2.74c.21-.81.44-1.58.69-2.26l.18-.48c.2-.56.41-1.11.63-1.66,1-2.5,2.08-4.95,3.09-7.24-.11.21-.24.41-.37.62-.87,1.36-1.69,2.59-2.52,3.77a43.07,43.07,0,0,1-2.81,3.51c-.46.53-1,1-1.45,1.53l-.13.13-.56.53-.19.18a3.75,3.75,0,0,1-2,1.1h-.41a2,2,0,0,1-1.39-.74,3,3,0,0,1-.35-2.51,11.18,11.18,0,0,1,.92-2.51,19,19,0,0,1,1-1.76l.37-.61.36-.6c.12-.19.25-.37.38-.56l.15-.21.7-1c.15-.21.31-.41.48-.61l.24-.29c.84-1.06,1.65-2,2.49-2.88.52-.55,1.07-1.11,1.67-1.69-1.55,1.14-3.17,2.34-4.92,3.66-1,.77-2.22,1.65-3.41,2.47-.55.37-1.1.74-1.67,1.09l-.24.16a13.2,13.2,0,0,1-2.19,1.19,2.37,2.37,0,0,1-1.14.17,1.67,1.67,0,0,1-.87-.29,1.92,1.92,0,0,1-.77-2,5.92,5.92,0,0,1,1-2.08,16.08,16.08,0,0,1,1.9-2.23c.66-.66,1.38-1.26,2.07-1.85l.25-.21c.16-.14.33-.26.5-.39l.23-.17.37-.28.71-.52c.17-.13.34-.24.52-.36l.29-.18.3-.21.61-.41.59-.36c.42-.26.85-.53,1.29-.77,1.16-.66,2.53-1.41,3.94-2.08s2.67-1.27,4-1.83l1.12-.48a3.91,3.91,0,0,1,1.63-.36h0a1.45,1.45,0,0,1,.34.07l.12-.1.3-.25a5.68,5.68,0,0,1,1.1-.79,1.32,1.32,0,0,1,.7-.14,1.49,1.49,0,0,1,.79.33,1.36,1.36,0,0,1,.35,1.64,1.51,1.51,0,0,1,.38-.21,1.16,1.16,0,0,1,.53-.07,1.2,1.2,0,0,1,.5.14,1.36,1.36,0,0,1,.66.76,1.25,1.25,0,0,1,.05.7,1.12,1.12,0,0,1-.1.27l-.06.19c-.3,1.12-.55,2.28-.8,3.39l-.13.62-.48,2.2-.48,2.19c-.57,2.61-1.26,5.64-2.15,8.6-.44,1.42-.92,2.82-1.45,4.17a24.15,24.15,0,0,1-2,4c-.74,1.2-1.59,2.34-2.89,2.59a2.66,2.66,0,0,1-.68.05A2.11,2.11,0,0,1,342.37,509.82Z"/><path class="cls-12" d="M330.65,476.84c-1.6-.31-3.07-.65-4.47-1l-.24-.07a8.77,8.77,0,0,1-2.34-.86,2.38,2.38,0,0,1-.8-.68,1.71,1.71,0,0,1-.32-.92,2.19,2.19,0,0,1,1.13-1.91,5.74,5.74,0,0,1,2.23-.71,17.85,17.85,0,0,1,2.24-.17h1.41c.22,0,.45,0,.67,0h.11l.36,0c.64.07,1.28.13,1.91.22l2.38.37,2.2.37.17,0c-2-.64-3.45-1.17-4.84-1.69-.72-.28-1.31-.52-1.87-.76l-.32-.13c-.56-.24-1.13-.48-1.68-.75s-1.37-.68-2.06-1.06a20.22,20.22,0,0,1-1.91-1.21l-1.4-1-.23-.17-.86-.64a2.22,2.22,0,0,1-1-1.44,1.46,1.46,0,0,1,1-1.53,3.22,3.22,0,0,1,1.36-.13c.26,0,.51.06.75.1.76.14,1.5.3,2.2.47a59.69,59.69,0,0,1,8.45,3l.24.09c.87.36,1.77.75,2.76,1.2a47.8,47.8,0,0,1-5.52-4.41c-.55-.52-1.1-1-1.63-1.58l-.68-.68a3,3,0,0,1-1-1.68,1.65,1.65,0,0,1,.26-1,1.62,1.62,0,0,1,.84-.61,1.78,1.78,0,0,1,.81-.09,5.31,5.31,0,0,1,1.57.47c.73.3,1.38.6,2,.91,1.2.6,2.37,1.3,3.51,2l.46.27c1.16.69,2.36,1.4,3.49,2.2a57.17,57.17,0,0,1,5,3.88c.51.44,1,.9,1.51,1.36-.48-1.06-.89-2.15-1.34-3.35s-.91-2.64-1.32-3.94c-.52-1.64-.94-3.08-1.32-4.44-.46-1.65-.81-3-1.09-4.22-.33-1.41-.67-2.86-.93-4.3-.11-.67-.25-1.43-.34-2.17a2.84,2.84,0,0,1,.25-1.82,1.74,1.74,0,0,1,.75-.69,1.64,1.64,0,0,1,.91-.15l.19,0a2.92,2.92,0,0,1,.95.43,5.7,5.7,0,0,1,.93.74,8.15,8.15,0,0,1,1,1.24c.22.3.42.61.63.92a7.59,7.59,0,0,1,.52.94l.07.14a20.57,20.57,0,0,1,1,2.53l0,.07,0,.09,0,.07.07.27.14.49.15.5a.39.39,0,0,1,0,.13s0,.09.05.13c.1.39.19.78.28,1.17.05.19.09.38.14.57.11.49.21,1,.32,1.45l.05.25c.24,1.12.44,2.24.66,3.48.45,2.47.84,4.93,1.19,7.22v-.07l0,.23a.87.87,0,0,1,0,.1l0,.3,0,.26v-.14c0-.33.05-.67.07-1v-.27c-.06-1.48,0-3,0-4.46v-.11c0-2.67.21-5.54.52-8.77.16-1.57.31-3,.48-4.39l0-.29c0-.19,0-.38.07-.58l0-.29a4.47,4.47,0,0,1,.36-1.46,1.62,1.62,0,0,1,1.58-.95,1.51,1.51,0,0,1,.84.35,2.91,2.91,0,0,1,.79,1.1A9.25,9.25,0,0,1,358,446v.07c.11.42.2.85.3,1.27.05.24.08.47.12.71l0,.28c.06.39.11.8.13,1.17a36.67,36.67,0,0,1,0,4.57c-.08,1.23-.27,2.47-.46,3.67l0,.31c-.19,1.25-.41,2.68-.69,4.06-.32,1.55-.6,2.83-.88,4-.16.68-.32,1.35-.49,2l0,.08,0,.09,0,.06,0,.1a1.33,1.33,0,0,1-.64,1.75,2.48,2.48,0,0,1-.45.54.81.81,0,0,0-1,1,1.35,1.35,0,0,1-1.32.75,1.37,1.37,0,0,1-.45-.13l-.07,0a1.07,1.07,0,0,1-.4.1h-.12a4.36,4.36,0,0,1,.43.43,2.47,2.47,0,0,1,.68,1.1,1.38,1.38,0,0,1-.87,1.58,1.48,1.48,0,0,1-.63.08,3.34,3.34,0,0,1-1-.28,1.29,1.29,0,0,1-.84.21,1.26,1.26,0,0,1-.25.45,2.59,2.59,0,0,1-1.85.7l-.84.07-.39,0-1.71.1-.4,0c-1.55.08-3,.15-4.42.2h-.31c-1.36.05-2.76.1-4.14.05-.94,0-1.66-.07-2.34-.13a19.78,19.78,0,0,1-2.12-.29Zm5.87-15.25.29.23v-.07l-.26-.17-.19-.12Z"/><path class="cls-12" d="M365.79,459.92a1.41,1.41,0,0,1-.71-.82,1.21,1.21,0,0,1,.06-1c1.12-2.12,2.11-4.32,3-6.27l.13-.3c.87-1.91,1.76-3.88,2.54-5.87l-.06.16a92,92,0,0,0,3.46-10.48,53,53,0,0,0,1.06-5.31c.05-.64.08-1.29.08-2,0-.95-.1-1.75-.2-2.51a14.26,14.26,0,0,0-.34-1.57,17.17,17.17,0,0,0-.62-1.66c-.32-.67-.68-1.36-1.12-2.09-.14-.21-.28-.42-.44-.62a3.51,3.51,0,0,0-.33-.34l-.09-.08-.1-.08-.37-.25a14.17,14.17,0,0,0-1.31-.59c-.49-.18-1-.33-1.45-.47s-.66-.12-1-.17-.54,0-.81,0-.57,0-.88.07a17.56,17.56,0,0,0-1.73.38l-.72.29a12.08,12.08,0,0,0-1.12.59,20.67,20.67,0,0,0-1.77,1.27c-.31.28-.6.55-.88.84a48,48,0,0,0-3.41,4.18l0,0-.06.08c-.16.23-.34.49-.51.76l-.08.13a2.36,2.36,0,0,1-.34.44,1.28,1.28,0,0,1-1,.34,1.18,1.18,0,0,1-.4-.1,1.21,1.21,0,0,1-.77-.4,2.69,2.69,0,0,1-.43-.82c-.15-.36-.29-.72-.42-1.09l-.07-.2c-.26-.71-.53-1.45-.83-2.16-.18-.4-.36-.76-.55-1.09a12.65,12.65,0,0,0-.74-1l-.06-.07-.19-.23a1.36,1.36,0,0,1,.07-1.89,1.34,1.34,0,0,1,1.05-.35,1.23,1.23,0,0,1,.84.41,11.81,11.81,0,0,1,1.43,1.9,16,16,0,0,1,1,2.21c.11.29.21.59.32.88l0,.07.07-.1.07-.11c.77-1,1.61-2,2.41-3,.35-.4.82-.93,1.34-1.42a13,13,0,0,1,1.52-1.22,12,12,0,0,1,3.52-1.81l-.17.06a11.52,11.52,0,0,1,4.19-.59,12.78,12.78,0,0,1,2.22.39A14.43,14.43,0,0,1,372,416a7.32,7.32,0,0,1,1.82,1,7,7,0,0,1,1.07,1.1,6.84,6.84,0,0,1,.57.87l.13.21a18,18,0,0,1,1.76,3.81,16.64,16.64,0,0,1,.7,4.21c0,.81,0,1.53,0,2.19a19.61,19.61,0,0,1-.24,2.09c-.24,1.4-.55,2.78-.83,3.94s-.64,2.62-1.1,4.09c-.9,2.84-2,5.59-2.78,7.66s-1.64,3.88-2.48,5.75l-.72,1.58c-.38.85-.77,1.69-1.16,2.48s-.78,1.5-1.17,2.23l-.1.18a1.39,1.39,0,0,1-1.71.51Z"/><path class="cls-12" d="M358.91,476.65a1.32,1.32,0,0,1,.14-1,1.36,1.36,0,0,1,.8-.61c.47-.15,1-.26,1.44-.37l.35-.08.53-.12.13,0a1.28,1.28,0,0,1-.71-.78l-.73.32-.33.15-.61.27-.28.12-.23.11a3.32,3.32,0,0,1-.59.24,1.32,1.32,0,0,1-1.49-.63,1.34,1.34,0,0,1,.23-1.6,2.24,2.24,0,0,1,.75-.45l.17-.07.3-.14.31-.14a.56.56,0,0,1,0-.12,6.21,6.21,0,0,1,1.22-1.65c.56-.57,1.12-1.11,1.6-1.56.89-.84,1.84-1.64,2.77-2.42l.57-.48c1.19-1,2.38-2,3.53-3s2.31-1.81,3.41-2.63a39.91,39.91,0,0,1,5.57-3.42c.82-.42,1.67-.81,2.5-1.19l.5-.22,1.37-.62.73-.33a3.57,3.57,0,0,1,.61-.23,2.1,2.1,0,0,1,.85-.09,1.35,1.35,0,0,1,.93.53,1.28,1.28,0,0,1,.25,1,1.89,1.89,0,0,1-.38.9,6,6,0,0,1-.66.68l-.9.84c-.5.46-1,.92-1.6,1.38s-1.26,1-1.88,1.47c-.41.31-.82.6-1.22.87l-.58.39c-1.13.8-2.29,1.54-3.59,2.36l-3.85,2.41-.36.22-.36.23c1.11-.41,2.32-.82,3.8-1.3.87-.29,1.75-.56,2.62-.84l1.48-.47L380,464l2.14-.69a34,34,0,0,1,4-1.06l.15,0a7.22,7.22,0,0,1,1.81-.17,2.12,2.12,0,0,1,1.17.43,1.81,1.81,0,0,1,.58.87,2,2,0,0,1,0,.92,2.09,2.09,0,0,1-.53.91,5.38,5.38,0,0,1-1.12.91,22.66,22.66,0,0,1-4.29,1.94l-.14.06c-1.26.46-2.57.86-3.84,1.24l-.17,0c-3,.89-5.64,1.73-8.14,2.55l-.06,0-.07,0h0l-.15.05-1.71.58-2.16.74-1.2.39c.68-.12,1.37-.23,2-.33,1.41-.2,2.79-.33,4.45-.47l1.83-.09.46,0c.71,0,1.35,0,2,0h.48c.56,0,1.12,0,1.69.05.79,0,1.59.1,2.38.16h.06c.53,0,1.06.11,1.59.19l.37,0c.85.11,1.59.24,2.29.39a2.26,2.26,0,0,1,1.63,1.12,1.35,1.35,0,0,1,.12,1,1.72,1.72,0,0,1-.63,1,7.58,7.58,0,0,1-3.19,1c-1.3.19-2.69.34-4.25.45s-2.82.16-4,.2-2.55,0-4-.09l-1-.08c-.9-.08-1.8-.18-2.78-.32s-2.32-.41-3.87-.78a1.79,1.79,0,0,1-.32-.13l-.18,0c-.93.18-1.88.37-2.81.63a1.08,1.08,0,0,1-.44,0A1.34,1.34,0,0,1,358.91,476.65Z"/><path class="cls-12" d="M308.51,487.67h-.19a41.23,41.23,0,0,1-4.33-.61,31.33,31.33,0,0,1-4.35-1.21,21.47,21.47,0,0,1-4-2,18.94,18.94,0,0,1-1.85-1.3,12.31,12.31,0,0,1-1.61-1.62,14.62,14.62,0,0,1-1.52-2.2,9.29,9.29,0,0,1-.86-2.52,12.84,12.84,0,0,1-.37-4.42,9.86,9.86,0,0,1,.53-2.2c.28-.73.63-1.41.92-2a16.26,16.26,0,0,1,3.5-4.81,15.06,15.06,0,0,1,2.49-1.8c.48-.28,1-.54,1.47-.81l1.09-.59.54-.35-.18-.23-.18-.24c-.23-.31-.47-.66-.75-1.1a25.15,25.15,0,0,1-1.41-2.54c-.4-.8-.85-1.75-1.23-2.73l-.05-.13a3.14,3.14,0,0,1-.23-2.68,1.3,1.3,0,0,1,1.23-.58,1.35,1.35,0,0,1,1.14.92,2.37,2.37,0,0,1,.09.36l0,.12a8.89,8.89,0,0,0,.37,1,42.92,42.92,0,0,0,2.06,4.17c.36.58.74,1.16,1.15,1.71l.15.2.47.66a2.2,2.2,0,0,1,.39,1.08,2.24,2.24,0,0,1-.27,1.14,3.94,3.94,0,0,1-1.25,1.22l-.06,0a8.37,8.37,0,0,1-1,.64l-.91.51-1.05.58a18,18,0,0,0-1.51,1c-.29.24-.58.49-.88.77a12.87,12.87,0,0,0-.88,1,21.59,21.59,0,0,0-1.27,1.93l0,.06h0a23.44,23.44,0,0,0-1.13,2.23c-.11.28-.2.56-.29.85s-.09.42-.13.64-.07.65-.09,1,0,.6,0,.9c.12.86.26,1.62.43,2.32.1.34.2.65.32,1s.16.34.26.51c.23.38.49.74.76,1.1s.62.75.88,1.05.69.62,1.07.93c.57.4,1.16.79,1.77,1.15s1.44.74,2.15,1.05c.88.34,1.73.64,2.61.89a32.67,32.67,0,0,0,3.55.74c.9.12,1.79.22,2.66.29,1.38.12,2.76.2,4.08.22a41.6,41.6,0,0,0,4.42-.25c1.78-.23,3.36-.45,4.84-.66a43.79,43.79,0,0,0,4.74-.93h0l.16-.05,2.42-.67a1.47,1.47,0,0,1,.55-.05,1.32,1.32,0,0,1,1.16.89,1.37,1.37,0,0,1-.08,1.05,1.27,1.27,0,0,1-.76.65l-.82.26c-1.17.37-2.37.75-3.58,1s-2.51.47-3.75.66l-.43.06-.3.05c-1.3.19-2.65.39-4,.55a40,40,0,0,1-4.49.25,41.62,41.62,0,0,1-4.19-.19Z"/><path class="cls-13" d="M350.11,488.48a9.79,9.79,0,0,1-2-1.22,11.32,11.32,0,0,1-1.81-1.72,11.58,11.58,0,0,1-2.18-3.61,10.19,10.19,0,0,1-.47-4.81,10.55,10.55,0,0,1,2.14-5.32l.14-.27a9.1,9.1,0,0,1,2.66-3.33,7.64,7.64,0,0,1,4.5-1.33,8.16,8.16,0,0,1,5.81-.16,10,10,0,0,1,2.29,1.19,20.72,20.72,0,0,1,2,1.43,9.76,9.76,0,0,1,2.62,3,8,8,0,0,1,.76,1.93,7.66,7.66,0,0,1,.21,2,11.93,11.93,0,0,1-.3,2.05,16.53,16.53,0,0,1-.53,1.95,15.38,15.38,0,0,1-1.51,3.3,14.77,14.77,0,0,1-2.74,3.41,9.39,9.39,0,0,1-3.11,2,10.33,10.33,0,0,1-4.09.56l-.39,0A12.7,12.7,0,0,1,350.11,488.48Z"/><path class="cls-14" d="M352.4,482.28a1.36,1.36,0,1,1,1.26,1.46,1.38,1.38,0,0,1-1.26-1.46Zm3.42,6.81A1.32,1.32,0,1,1,357,490.5a1.33,1.33,0,0,1-1.22-1.41Zm6.22-4.71a1.32,1.32,0,0,1,2.64.2,1.33,1.33,0,0,1-1.41,1.22,1.34,1.34,0,0,1-1.23-1.42Zm-5.56-16.44a1.35,1.35,0,1,1,1.25,1.45,1.37,1.37,0,0,1-1.25-1.45Zm2.9,7.69a1.35,1.35,0,0,1,1.43-1.23,1.45,1.45,0,0,1,.64.23,1.28,1.28,0,0,1,.84-.22,1.35,1.35,0,0,1,1.23,1.43,1.27,1.27,0,0,1-.37.81,1.35,1.35,0,0,1,.71,1.27,1.32,1.32,0,0,1-2.64-.2,1.31,1.31,0,0,1,.36-.8l-.14-.08a1.33,1.33,0,0,1-.83.22,1.36,1.36,0,0,1-1.23-1.43ZM353.92,474a1.33,1.33,0,0,1,2.65.23,1.36,1.36,0,0,1-.52,1,1.38,1.38,0,0,1,.63,1.26,1.39,1.39,0,0,1-2.78,0,1.27,1.27,0,0,1-.61.1,1.33,1.33,0,1,1,.2-2.66,1.62,1.62,0,0,1,.43.12Zm-7.74,11.18a1.34,1.34,0,0,1,1.42-1.23,1.39,1.39,0,0,1,.85.4,1.32,1.32,0,1,1-2.27.83Zm-2.59-6.73a1.33,1.33,0,0,1,2.44-.61h.26a1.35,1.35,0,0,1-.2,2.69,1.4,1.4,0,0,1-1.06-.66h-.21a1.36,1.36,0,0,1-1.23-1.42Zm1.13-4.63a1.34,1.34,0,0,1,1.42-1.23,1.36,1.36,0,0,1,1.23,1.43,1.33,1.33,0,1,1-2.65-.2Zm6.31-5.45a1.34,1.34,0,0,1,1.42-1.23,1.36,1.36,0,0,1,1.23,1.19,1.31,1.31,0,0,1,1.14-.5,1.33,1.33,0,1,1-1.43,1.47,1.33,1.33,0,0,1-2.36-.93Zm-2.27,2.39a1.3,1.3,0,0,0,.41,1.05,1.35,1.35,0,0,0,0,2.7,6,6,0,0,1,2.23-3.56,1.33,1.33,0,1,0-2.66-.19Zm14.77,3a1.36,1.36,0,0,0,1.23,1.43,1.33,1.33,0,0,0,.2-2.65h-.25a1.27,1.27,0,0,0,.17-.55,1.34,1.34,0,0,0-2.67-.2,1.36,1.36,0,0,0,1.24,1.44,1.07,1.07,0,0,0,.25,0,1.31,1.31,0,0,0-.17.54Zm.53,7.6a1.35,1.35,0,1,1,2.69.2,1.35,1.35,0,0,1-2.69-.2Zm-6.23,4.94a1.35,1.35,0,0,1,1.43-1.24h.1a1.32,1.32,0,0,1,.95-.31,1.34,1.34,0,0,1,1.22,1.43,1.33,1.33,0,0,1-1.42,1.22H360a1.34,1.34,0,0,1-2.21-1.11Zm-.6-14.87a1.35,1.35,0,1,1,1.25,1.46,1.38,1.38,0,0,1-1.25-1.46ZM356,478.52a1.34,1.34,0,0,0,1.23,1.42,1.32,1.32,0,1,0,.2-2.64,1.34,1.34,0,0,0-1.43,1.22Zm-6.94-.41a1.34,1.34,0,0,1,2.68.2,1.34,1.34,0,1,1-2.68-.2Zm-.13,5.4a1.32,1.32,0,1,0,1.41-1.22,1.34,1.34,0,0,0-1.41,1.22Zm4.16,3.31a1.34,1.34,0,0,1,2.68.2,1.34,1.34,0,1,1-2.68-.2Zm5.73-4.86a1.35,1.35,0,1,1,1.25,1.45A1.35,1.35,0,0,1,358.84,482Z"/><path class="cls-11" d="M-17.53,536.28a7.4,7.4,0,0,1-3.13-1.9c-.42-.41-.8-.8-1.15-1.21A10.71,10.71,0,0,1-23,531.43a11.86,11.86,0,0,1-.93-2.07A23.18,23.18,0,0,1-25,524.82a17.21,17.21,0,0,1,.05-4.11c.09-.74.23-1.52.42-2.38l-.05.08-.09.06c-.29.22-.6.43-.91.63a17.24,17.24,0,0,1-2.72,1.36,14,14,0,0,1-1.94.67,13.28,13.28,0,0,1-3.85.59l-.57,0a13.07,13.07,0,0,1-3-.7c-.46-.15-.89-.33-1.4-.55a7.94,7.94,0,0,1-2.1-1.35,10.11,10.11,0,0,1-2.37-3,7.32,7.32,0,0,1-.55-1.57l0-.11a9.29,9.29,0,0,1-.3-2.11,16.41,16.41,0,0,1,.36-3.88,28.52,28.52,0,0,1,1.12-3.65l0-.06a25.56,25.56,0,0,1,1.4-3.31,33.88,33.88,0,0,1,2-3.44,20.81,20.81,0,0,1,2.41-2.79l.09-.08a50,50,0,0,1,5.69-4.81c2.22-1.66,4.24-3.08,6.16-4.35,1.22-.79,2.42-1.54,3.68-2.31a9.92,9.92,0,0,1-1,.27c-1.59.4-3.21.77-4.66,1.08l-1,.22a52.5,52.5,0,0,1-6.8,1.19,50,50,0,0,1-8.12.13l-.24,0a31.41,31.41,0,0,1-3.37-.5,29.6,29.6,0,0,1-3.13-.76,15.3,15.3,0,0,1-2.37-1,25.32,25.32,0,0,1-3.77-2.18,9.72,9.72,0,0,1-2.92-3.18,11,11,0,0,1-.84-1.87,8.28,8.28,0,0,1-.37-1.71,15.69,15.69,0,0,1-.15-2.42,13.45,13.45,0,0,1,.51-3,14,14,0,0,1,1.11-2.66,15.12,15.12,0,0,1,1.53-2.44,19.88,19.88,0,0,1,2-2.26,10.25,10.25,0,0,1,1.06-.86l.05,0,.13-.1c.34-.25.68-.48,1-.71a14.78,14.78,0,0,1,3.53-1.69l-.17-.17a15.68,15.68,0,0,1-2-2.84,11.87,11.87,0,0,1-1.3-3.13,16,16,0,0,1-.3-3.87c0-.84.11-1.67.19-2.38a8.06,8.06,0,0,1,.54-2.12,7.12,7.12,0,0,1,.76-1.35l.11-.17A15,15,0,0,1-49.76,441a10.28,10.28,0,0,1,3.61-2.47,11,11,0,0,1,3.73-.78q1.11,0,2.19,0,.43,0,.87.06a22.94,22.94,0,0,1,2.93.45,40.09,40.09,0,0,1,7.22,2.43,53.06,53.06,0,0,1,6.58,3.44,60.81,60.81,0,0,1,5.92,4.17,2,2,0,0,1-.21-.35l0-.09c-.39-.76-.77-1.55-1.14-2.33-1.2-2.54-2.27-4.83-3.14-7.23-.53-1.45-.89-2.58-1.18-3.65-.2-.73-.36-1.39-.5-2a17.37,17.37,0,0,1-.27-1.77l0-.32a34.19,34.19,0,0,1-.18-3.76,15.81,15.81,0,0,1,.54-3.71,28,28,0,0,1,3.4-7.94,10.28,10.28,0,0,1,2.82-2.9,10.1,10.1,0,0,1,3-1.35,13.45,13.45,0,0,1,2.15-.4,11.43,11.43,0,0,1,2.18,0c.28,0,.55.06.82.11a10,10,0,0,1,2.53.73,10.88,10.88,0,0,1,2.25,1.47,18.67,18.67,0,0,1,2.62,2.69c.77.93,1.48,1.94,2.25,3.07a17.85,17.85,0,0,1,1.65,3c.5,1.19,1,2.44,1.39,3.82.12.36.22.73.33,1.1l.08-.2c.15-.3.31-.61.48-.91l.1-.18a34.83,34.83,0,0,1,2-3.28A32.7,32.7,0,0,1,9.54,419a10.76,10.76,0,0,1,3.34-2.51,10.45,10.45,0,0,1,2.26-.78,8.25,8.25,0,0,1,2.74-.26l.43.05a9.69,9.69,0,0,1,2.7.77A10.91,10.91,0,0,1,23.74,418a14.76,14.76,0,0,1,1.77,1.92,7.33,7.33,0,0,1,.95,2,15.53,15.53,0,0,1,.2,7.43c-.42,2.47-1,4.94-1.58,7.25-.63,2.52-1.32,4.94-2,7.18s-1.52,4.4-2.52,6.86c-.61,1.52-1.31,3.13-2.24,5.22l-.12.26-.45,1c.61-.49,1.27-1,2.15-1.63,2.86-2.09,5.5-3.84,8.06-5.37a68.1,68.1,0,0,1,6.72-3.39c2.18-1,4.54-2.05,6.94-3a33.77,33.77,0,0,1,3.52-1.14,22,22,0,0,1,3.22-.66,8.28,8.28,0,0,1,1.49,0c.5,0,1,.12,1.44.18a13.26,13.26,0,0,1,4,1.42,8.47,8.47,0,0,1,2.81,2.32,5.15,5.15,0,0,1,.89,1.57,7.27,7.27,0,0,1,.34,1.91,11.34,11.34,0,0,1-.93,4.86,33.67,33.67,0,0,1-2.41,4.58,29.63,29.63,0,0,1-2.51,3.65.24.24,0,0,1,.12,0c.36,0,.72,0,1.08,0,.74,0,1.38,0,1.94.09a15,15,0,0,1,3.08.57,8.58,8.58,0,0,1,2.18,1.06,11.69,11.69,0,0,1,1.64,1.23A12.75,12.75,0,0,1,64.89,467a6.9,6.9,0,0,1,1.3,3.15,7.88,7.88,0,0,1,0,2.87,7.8,7.8,0,0,1-.91,2.16A16.54,16.54,0,0,1,60,480.83c-1,.65-2.08,1.3-3.31,2a19.91,19.91,0,0,1-3.46,1.45,32.31,32.31,0,0,1-7.47,1.33l-.37,0c-1.1.1-2.3.21-3.45.22-1.46,0-2.79-.06-4-.15l-.21,0c-.56-.05-1.16-.12-1.88-.21l.21.07c.23.11.45.23.67.36,1.14.63,2.26,1.35,3.25,2l.07.05a30.53,30.53,0,0,1,2.52,1.87l.59.46a44.32,44.32,0,0,1,5.36,5l.17.19a25.23,25.23,0,0,1,2.29,2.8c.35.53.7,1.1,1.11,1.81a10,10,0,0,1,.63,1.32l.12.28a23.56,23.56,0,0,1,1.1,3.41,11.89,11.89,0,0,1,.35,2.88A10.85,10.85,0,0,1,54,510.3a14.61,14.61,0,0,1-1.08,3.11,10.81,10.81,0,0,1-2.41,3.26,12.17,12.17,0,0,1-2.24,1.61,9.8,9.8,0,0,1-1.35.58l-.24.09a8.28,8.28,0,0,1-2.1.5,13,13,0,0,1-2.16,0,11.79,11.79,0,0,1-1.53-.23,13,13,0,0,1-2-.69,20.44,20.44,0,0,1-2.56-1.21v.19c-.09.64-.22,1.34-.41,2.16a32.06,32.06,0,0,1-1.09,3.63,35.64,35.64,0,0,1-1.59,3.57,9.36,9.36,0,0,1-2.06,2.88A8.16,8.16,0,0,1,28,531.44a5.53,5.53,0,0,1-2.18.23,5,5,0,0,1-1.15-.23,9.31,9.31,0,0,1-2.28-1.11,25.4,25.4,0,0,1-5.58-5.12l-.24-.28a27,27,0,0,1-2.2-2.84,32.39,32.39,0,0,1-1.88-3.37,66.22,66.22,0,0,1-3.08-7.22c-.73-2.06-1.4-4.18-2-6.5v.23c0,.16,0,.33-.08.49-.2,1.21-.42,2.36-.65,3.44-.3,1.35-.63,2.67-1,3.91s-.83,2.59-1.27,3.76a49.38,49.38,0,0,1-3.18,7A44,44,0,0,1-3,530.32a18.08,18.08,0,0,1-2.14,2.28c-.52.44-1.09.89-1.8,1.4A16,16,0,0,1-10,535.86a11.32,11.32,0,0,1-3.84.74,15.68,15.68,0,0,1-2,0A9.3,9.3,0,0,1-17.53,536.28Z"/><path class="cls-12" d="M-15.84,535.83l-.13,0c-.37,0-.73-.1-1.07-.18a10.71,10.71,0,0,1-1.71-.56,9.56,9.56,0,0,1-1.22-.66,8.3,8.3,0,0,1-2.9-3.39,29.35,29.35,0,0,1-1.66-4.53l-.11-.37c-.39-1.29-.73-2.66-1-3.86l-.16-.62L-26,521a2.44,2.44,0,0,1-.31.22,12,12,0,0,1-1.92.91,20.76,20.76,0,0,1-2.09.62,13,13,0,0,1-2.13.31,10.48,10.48,0,0,1-1.77,0,14.79,14.79,0,0,1-2.57-.48,16.67,16.67,0,0,1-4-1.82,8.1,8.1,0,0,1-1.67-1.28,4.13,4.13,0,0,1-1.19-2,1.56,1.56,0,0,1,1-1.75,1.52,1.52,0,0,1,.68-.09l.17,0a1.34,1.34,0,0,1,1,1,1.29,1.29,0,0,1,0,.48l.34.38.44.38c.37.27.77.51,1.14.73s.86.46,1.37.72,1.23.46,1.85.64c.42.09.88.18,1.39.26h.17c.27,0,.54,0,.82,0s.88,0,1.39-.08.83-.15,1.36-.28a16.1,16.1,0,0,0,1.62-.55c.34-.15.63-.29.9-.44s.73-.48,1.13-.78l.06,0,.08-.06.38-.29a1.77,1.77,0,0,1,1.15-.33,1.05,1.05,0,0,1,.35.08c.88.3,1.15,1.23,1.39,2l0,.09c.21.71.4,1.44.6,2.24.12.5.25,1,.38,1.49l-.07-.18a54.06,54.06,0,0,0,1.89,5.87c.16.34.31.66.46,1s.39.59.61.88.27.32.41.47l.46.4c.19.13.38.26.58.38l.56.28c.21.08.43.16.65.22s.71.17,1.08.24.49.06.74.08.57.05.86.06c.61,0,1.15-.05,1.64-.11l1-.22c.34-.11.67-.22,1-.35.65-.3,1.24-.61,1.82-.93.43-.28.82-.54,1.19-.81a29.54,29.54,0,0,0,2.25-2,34.27,34.27,0,0,0,2.71-3.16,31.9,31.9,0,0,0,1.84-2.78A62.92,62.92,0,0,0,2.05,517a38.94,38.94,0,0,0,1.41-4c.27-1,.53-2,.82-3.23s.52-2.17.69-3.23c.2-1.59.3-3.17.38-4.49a1.36,1.36,0,0,1,1.22-1.24c-.4-1.94-.69-3.74-.92-5.5s-.34-3.06-.43-4.35q-.09-1.14-.15-2.28l0-.38a15,15,0,0,1,0-1.76,1.54,1.54,0,0,1,.64-1.19,1.48,1.48,0,0,1,.79-.23l0-.06a1.4,1.4,0,0,1,0-1,1.32,1.32,0,0,1,.73-.72,1.36,1.36,0,0,1,.51-.09,1.73,1.73,0,0,1-.21-1.06,1.46,1.46,0,0,1,.53-.92,1.35,1.35,0,0,1,1-.29,1.27,1.27,0,0,1,.7.28,1.24,1.24,0,0,1,.42.59,1.2,1.2,0,0,1,.36-.67,1.26,1.26,0,0,1,1-.36h.13l-.06,0a1.26,1.26,0,0,1,.5.18,1.43,1.43,0,0,1,1.15-.63h.3a2.94,2.94,0,0,1,.77.18c.23.07.45.16.67.25a1.13,1.13,0,0,1,0-.52,1.39,1.39,0,0,1,.89-1,1.21,1.21,0,0,1,.58-.07,3.76,3.76,0,0,1,.82.19l.25.08c.47.14.95.29,1.42.45l2.13.68.81.26c1.61.52,3.73,1.2,5.93,1.81l-.17,0c1.48.36,2.52.6,3.47.8,1.13.24,2.3.42,3.4.58h-.06l2.25.22c1.42.13,3,.21,5,.27a26.12,26.12,0,0,0,2.8-.14,59.49,59.49,0,0,0,6.37-1.29,25.22,25.22,0,0,0,2.63-.91,47.27,47.27,0,0,0,4.9-2.31,22.41,22.41,0,0,0,2.16-1.48c.28-.23.57-.48.88-.77s.46-.51.67-.78l0,.06a19,19,0,0,0,1.15-1.69,7.53,7.53,0,0,0,.41-.8c.11-.29.2-.57.29-.87s.12-.54.17-.82,0-.38,0-.57a10.65,10.65,0,0,0-.06-1.12c0-.14,0-.28-.08-.43-.11-.36-.23-.72-.37-1.08s-.22-.44-.34-.66l-.22-.33c-.24-.29-.46-.55-.68-.77s-.52-.46-.79-.67c-.52-.37-1-.71-1.51-1s-1.25-.66-2-1c-.54-.21-1.09-.39-1.63-.56l-.19-.07-.91-.31a7,7,0,0,1-.81-.33,3.87,3.87,0,0,1-1.15-.92,3.4,3.4,0,0,1-.68-1.11,3.71,3.71,0,0,1,0-1.87,9.84,9.84,0,0,1,1.33-3l0-.1a29.26,29.26,0,0,0,1.43-2.67c.25-.65.44-1.18.58-1.66s.2-.87.26-1.25a6.33,6.33,0,0,0,0-.76c0-.63,0-1.27-.1-1.86a1.48,1.48,0,0,1,1.18-1.52,1.07,1.07,0,0,1,.4,0,1.45,1.45,0,0,1,1.27,1,6.08,6.08,0,0,1,.29,1.22,9.52,9.52,0,0,1,.07,1.37,11.13,11.13,0,0,1-.32,2.28,17.12,17.12,0,0,1-.86,2.46,19.08,19.08,0,0,1-1.1,2.06l-.12.21-.27.47c-.3.52-.65,1.12-.93,1.73l0,.1-.07.21c0,.18-.07.36-.1.55,0,0,0,.06,0,.09l.22.25.19.09c.42.16.87.31,1.23.42l.42.14a20.91,20.91,0,0,1,2,.78,17.7,17.7,0,0,1,3.77,2.23,10.38,10.38,0,0,1,1.58,1.5,6.64,6.64,0,0,1,.65.85c.24.41.42.75.59,1.1a8.46,8.46,0,0,1,.71,4.79,11.56,11.56,0,0,1-.57,2.2,10.09,10.09,0,0,1-1,2,14,14,0,0,1-2.81,3.25,20.21,20.21,0,0,1-3.88,2.52c-1.38.69-2.8,1.3-3.89,1.75-.66.27-1.36.56-2.08.8s-1.31.39-2,.57c-1.26.3-2.59.58-4.31.9a24.67,24.67,0,0,1-4.48.42c-1.36,0-2.81-.07-4.69-.2l-.72-.06c-.59-.05-1.19-.12-1.85-.2l-.17,0c-1.67-.24-3.11-.49-4.41-.77s-2.89-.69-4.35-1.12c-2.29-.67-4.56-1.4-6.52-2,2.16,1.11,4.27,2.31,6.27,3.55,1.18.74,2.36,1.55,3.5,2.41a23.93,23.93,0,0,1,3.22,2.82,10.29,10.29,0,0,1,.82,1,2.15,2.15,0,0,1,.43,2.05,1.6,1.6,0,0,1-.63.75,1.81,1.81,0,0,1-.87.22h-.15a4.14,4.14,0,0,1-1.34-.44l-.23-.1c-1.23-.55-2.49-1.18-3.87-1.91s-2.52-1.43-3.77-2.23-2.35-1.58-3.39-2.31l-.32-.22-.71-.49-.7-.49L17,487.2l-.46-.32c.89.9,1.86,1.93,3.25,3.43l2.66,2.89,2.4,2.61.33.36c.8.86,1.59,1.72,2.38,2.59l1,1.08.33.37.37.44.23.27a3.89,3.89,0,0,1,.91,1.5,1.38,1.38,0,0,1-.82,1.6,1.59,1.59,0,0,1-.7.12l-.23,0a3,3,0,0,1-.87-.46l-.8-.56q-.86-.61-1.68-1.26c-1.1-.84-2.17-1.76-3.2-2.66L21.9,499c-2.16-1.87-4.26-3.87-6.24-5.93-.51-.53-1-1.07-1.52-1.61.6.85,1.24,1.81,2,3l.4.61c.68,1.05,1.37,2.11,2,3.18.4.66.75,1.27,1.07,1.9s.51,1,.72,1.54a6.63,6.63,0,0,1,.53,2.44,1.79,1.79,0,0,1-1,1.74,1.74,1.74,0,0,1-.82.14l-.23,0a2.41,2.41,0,0,1-1.05-.62,12,12,0,0,1-1.21-1.46l-.21-.29c-.92-1.23-1.78-2.5-2.5-3.57-.85-1.28-1.56-2.44-2.18-3.53l-.16-.27c-.44-.77-.93-1.64-1.36-2.5-.56-1.1-1-2.11-1.49-3.08-.24-.52-.47-1-.7-1.56l0,.12c0,.31.05.61.08.91.1,1.38.25,2.79.42,4.2a89.08,89.08,0,0,0,2.15,11.15,56.89,56.89,0,0,0,2.11,6,77,77,0,0,0,3.49,7.38c.47.8.95,1.58,1.4,2.3s1.14,1.66,1.61,2.28l0,.06h0a32.24,32.24,0,0,0,2.14,2.48c.49.47.92.86,1.34,1.2s.75.54,1.13.78.49.26.75.38l.44.14.28.06h.11l.32,0h.25l.11,0,.23-.08a10,10,0,0,0,1.19-.62l.51-.36c.25-.22.51-.46.82-.77a19.08,19.08,0,0,0,1.37-1.53c.26-.35.51-.73.78-1.16a29.67,29.67,0,0,0,1.37-2.81c.32-.78.63-1.58.93-2.38l0-.11a12,12,0,0,1,1.06-2.27,2.67,2.67,0,0,1,2.6-1.15,3.66,3.66,0,0,1,1,.24c.71.27,1.51.58,2.33.82q.48.12,1,.21l.2,0,.32,0a13.86,13.86,0,0,0,1.48-.07c.34-.05.63-.11.9-.17s.56-.19.84-.31.61-.28.86-.41c.41-.26.8-.55,1.14-.81.6-.49,1.13-.95,1.59-1.41s.82-.9,1.33-1.53l.12-.16.2-.28a1.48,1.48,0,0,1,1.33-.62,1.38,1.38,0,0,1,.66.23,1.47,1.47,0,0,1,.4,2,14.8,14.8,0,0,1-3.06,3.43c-.48.42-1,.84-1.71,1.33a9.8,9.8,0,0,1-1.84,1,10.54,10.54,0,0,1-4.17.75l-.56,0a13.44,13.44,0,0,1-3.33-.84l-.38-.13-.72-.26h-.19l-.31.64-.63,1.58,0,.1a29.7,29.7,0,0,1-2.68,5.6,13.79,13.79,0,0,1-1.32,1.66c-.58.63-1,1.09-1.48,1.5a8.08,8.08,0,0,1-1.73,1.22c-.3.16-.65.35-1,.51a4.64,4.64,0,0,1-1.83.4l-.48,0a7.49,7.49,0,0,1-3.57-1.44,19,19,0,0,1-3.16-2.81,37.21,37.21,0,0,1-5-7A69.94,69.94,0,0,1,10,512.48a51.51,51.51,0,0,1-2.14-6.24,4.64,4.64,0,0,1,0,.53,25.25,25.25,0,0,1-.75,4.06L7,511c-.29,1.21-.69,2.78-1.2,4.3a41.65,41.65,0,0,1-1.62,4c-.65,1.44-1.23,2.64-1.83,3.76a26.24,26.24,0,0,1-2.32,3.73,30.61,30.61,0,0,1-6.31,6.49,16.79,16.79,0,0,1-1.93,1.17,12.45,12.45,0,0,1-2,.88,13,13,0,0,1-2.33.52,15.76,15.76,0,0,1-2.35.09l-.39,0C-15.43,535.89-15.63,535.86-15.84,535.83Z"/><path class="cls-12" d="M-7.71,509.82a2.34,2.34,0,0,1-1-.6l0-.06a2.94,2.94,0,0,1-.3-.42,4.64,4.64,0,0,1-.23-.53,3.88,3.88,0,0,1-.2-1.38,11.17,11.17,0,0,1,.4-2.74,21.69,21.69,0,0,1,.69-2.26l.17-.48c.21-.56.41-1.11.64-1.66,1-2.5,2.08-4.95,3.09-7.24-.12.21-.25.41-.38.62-.86,1.36-1.69,2.59-2.51,3.77s-1.94,2.51-2.81,3.51c-.46.53-1,1-1.45,1.53l-.14.13-.55.53-.19.18a3.75,3.75,0,0,1-2,1.1h-.41a2,2,0,0,1-1.39-.74,3.09,3.09,0,0,1-.36-2.51,11.2,11.2,0,0,1,.93-2.51,18.74,18.74,0,0,1,1-1.76l.37-.61.37-.6c.12-.19.25-.37.38-.56l.15-.21.7-1c.15-.21.31-.41.47-.61l.24-.29c.85-1.06,1.66-2,2.5-2.88.52-.55,1.07-1.11,1.67-1.69-1.56,1.14-3.17,2.34-4.93,3.66-1,.77-2.21,1.65-3.41,2.47-.54.37-1.1.74-1.66,1.09l-.24.16a13.2,13.2,0,0,1-2.19,1.19,2.4,2.4,0,0,1-1.15.17,1.64,1.64,0,0,1-.86-.29,1.9,1.9,0,0,1-.77-2,5.74,5.74,0,0,1,1-2.08A16.77,16.77,0,0,1-20.25,490c.66-.66,1.37-1.26,2.07-1.85l.24-.21c.16-.14.34-.26.51-.39l.23-.17.37-.28.71-.52c.17-.13.34-.24.52-.36l.28-.18.31-.21c.2-.14.4-.28.61-.41l.58-.36c.43-.26.86-.53,1.3-.77,1.16-.66,2.53-1.41,3.94-2.08s2.66-1.27,4-1.83l1.12-.48a4,4,0,0,1,1.63-.36h0a1.45,1.45,0,0,1,.34.07l.11-.1a3.61,3.61,0,0,0,.3-.25A6.07,6.07,0,0,1,0,478.5a1.32,1.32,0,0,1,.7-.14,1.53,1.53,0,0,1,.79.33,1.36,1.36,0,0,1,.35,1.64,1.35,1.35,0,0,1,.38-.21,1.14,1.14,0,0,1,.53-.07,1.2,1.2,0,0,1,.49.14,1.34,1.34,0,0,1,.67.76,1.17,1.17,0,0,1,0,.7.78.78,0,0,1-.09.27l-.06.19c-.3,1.12-.56,2.28-.8,3.39l-.14.62-.48,2.2-.47,2.19c-.58,2.61-1.26,5.64-2.16,8.6-.43,1.42-.91,2.82-1.44,4.17a25.82,25.82,0,0,1-2,4c-.74,1.2-1.6,2.34-2.89,2.59a2.71,2.71,0,0,1-.69.05A2.11,2.11,0,0,1-7.71,509.82Z"/><path class="cls-12" d="M-19.42,476.84c-1.61-.31-3.07-.65-4.47-1l-.25-.07a8.77,8.77,0,0,1-2.34-.86,2.45,2.45,0,0,1-.79-.68,1.72,1.72,0,0,1-.33-.92,2.22,2.22,0,0,1,1.14-1.91,5.69,5.69,0,0,1,2.23-.71A17.69,17.69,0,0,1-22,470.5h1.41c.23,0,.46,0,.68,0h.1l.36,0c.64.07,1.29.13,1.92.22l2.38.37,2.2.37.17,0c-2-.64-3.45-1.17-4.84-1.69-.72-.28-1.32-.52-1.87-.76l-.33-.13c-.55-.24-1.13-.48-1.68-.75s-1.36-.68-2.05-1.06A20.22,20.22,0,0,1-25.46,466l-1.4-1-.23-.17c-.29-.21-.58-.42-.86-.64a2.22,2.22,0,0,1-1-1.44,1.46,1.46,0,0,1,1-1.53,3.2,3.2,0,0,1,1.36-.13c.25,0,.51.06.74.1.76.14,1.51.3,2.21.47a60.14,60.14,0,0,1,8.45,3l.24.09c.87.36,1.77.75,2.75,1.2a48.52,48.52,0,0,1-5.51-4.41c-.56-.52-1.1-1-1.64-1.58l-.67-.68a2.92,2.92,0,0,1-1-1.68,1.65,1.65,0,0,1,.26-1A1.59,1.59,0,0,1-20,456a1.76,1.76,0,0,1,.81-.09,5.31,5.31,0,0,1,1.57.47c.72.3,1.38.6,2,.91,1.2.6,2.37,1.3,3.5,2l.46.27c1.17.69,2.37,1.4,3.5,2.2a57.17,57.17,0,0,1,5,3.88c.51.44,1,.9,1.51,1.36-.49-1.06-.9-2.15-1.34-3.35s-.91-2.64-1.32-3.94c-.52-1.64-1-3.08-1.32-4.44-.46-1.65-.81-3-1.1-4.22-.33-1.41-.66-2.86-.92-4.3-.12-.67-.25-1.43-.35-2.17a2.84,2.84,0,0,1,.26-1.82,1.74,1.74,0,0,1,.75-.69,1.64,1.64,0,0,1,.91-.15l.19,0a2.92,2.92,0,0,1,1,.43,5.7,5.7,0,0,1,.93.74,8.79,8.79,0,0,1,1,1.24c.22.3.42.61.62.92a7.75,7.75,0,0,1,.53.94l.06.14a19.16,19.16,0,0,1,1,2.53l0,.07,0,.09,0,.07.08.27.14.49.15.5a1.3,1.3,0,0,0,0,.13l0,.13c.11.39.2.78.29,1.17,0,.19.09.38.13.57.12.49.22,1,.32,1.45l.06.25c.24,1.12.44,2.24.66,3.48.45,2.47.83,4.93,1.18,7.22v-.07a1.57,1.57,0,0,1,0,.23.58.58,0,0,0,0,.1l0,.3,0,.26v-.14c0-.33,0-.67.07-1v-.27c-.07-1.48-.05-3,0-4.46v-.11c0-2.67.21-5.54.52-8.77.15-1.57.31-3,.48-4.39l0-.29c0-.19,0-.38.07-.58l0-.29a4.23,4.23,0,0,1,.36-1.46,1.62,1.62,0,0,1,1.58-.95,1.51,1.51,0,0,1,.84.35,2.91,2.91,0,0,1,.79,1.1A8.53,8.53,0,0,1,7.88,446l0,.07c.11.42.2.85.29,1.27a5.85,5.85,0,0,1,.12.71l0,.28c.06.39.1.8.13,1.17a38.7,38.7,0,0,1,0,4.57c-.08,1.23-.28,2.47-.46,3.67L8,458c-.2,1.25-.41,2.68-.7,4.06-.32,1.55-.6,2.83-.87,4-.16.68-.32,1.35-.49,2l0,.08,0,.09,0,.06,0,.1a1.34,1.34,0,0,1-.64,1.75,2.51,2.51,0,0,1-.46.54,1.18,1.18,0,0,1-.85.31,1.23,1.23,0,0,1-.11.73,1.35,1.35,0,0,1-1.32.75,1.37,1.37,0,0,1-.45-.13l-.07,0a1.12,1.12,0,0,1-.4.1H1.53a4.47,4.47,0,0,1,.44.43,2.66,2.66,0,0,1,.68,1.1,1.41,1.41,0,0,1-.87,1.58,1.48,1.48,0,0,1-.63.08,3.34,3.34,0,0,1-1-.28,1.34,1.34,0,0,1-.85.21,1.12,1.12,0,0,1-.25.45,2.55,2.55,0,0,1-1.84.7l-.85.07-.38,0-1.71.1-.4,0c-1.56.08-3,.15-4.43.2h-.3c-1.36.05-2.76.1-4.14.05-.94,0-1.66-.07-2.34-.13a19.44,19.44,0,0,1-2.12-.29Zm5.86-15.25.29.23,0-.07-.26-.17-.2-.12Z"/><path class="cls-12" d="M15.72,459.92a1.43,1.43,0,0,1-.72-.82,1.21,1.21,0,0,1,.07-1c1.11-2.12,2.11-4.32,3-6.27l.13-.3c.86-1.91,1.75-3.88,2.53-5.87l0,.16a92,92,0,0,0,3.46-10.48c.4-1.66.8-3.46,1.06-5.31,0-.64.08-1.29.08-2,0-.95-.1-1.75-.2-2.51-.1-.58-.21-1.09-.34-1.57s-.38-1.08-.62-1.66S23.42,421,23,420.25c-.13-.21-.28-.42-.43-.62a3.51,3.51,0,0,0-.33-.34l-.1-.08-.09-.08-.37-.25c-.38-.2-.8-.38-1.31-.59s-1-.33-1.45-.47-.67-.12-1-.17-.54,0-.81,0-.57,0-.88.07a16.38,16.38,0,0,0-1.73.38c-.25.09-.48.19-.72.29a10.93,10.93,0,0,0-1.12.59,20.67,20.67,0,0,0-1.77,1.27c-.32.28-.6.55-.88.84a50.1,50.1,0,0,0-3.42,4.18l0,0-.07.08c-.16.23-.33.49-.5.76l-.09.13a2,2,0,0,1-.33.44,1.3,1.3,0,0,1-1,.34,1.12,1.12,0,0,1-.4-.1,1.21,1.21,0,0,1-.77-.4,2.72,2.72,0,0,1-.44-.82c-.14-.36-.28-.72-.41-1.09l-.07-.2c-.26-.71-.53-1.45-.83-2.16-.19-.4-.36-.76-.55-1.09a12.68,12.68,0,0,0-.75-1l-.05-.07-.19-.23a1.36,1.36,0,0,1,.07-1.89,1.33,1.33,0,0,1,1.05-.35,1.25,1.25,0,0,1,.84.41,12.42,12.42,0,0,1,1.43,1.9,16.07,16.07,0,0,1,1,2.21c.12.29.22.59.33.88l0,.07.07-.1.08-.11c.77-1,1.61-2,2.4-3,.35-.4.82-.93,1.34-1.42a14.07,14.07,0,0,1,1.53-1.22,11.81,11.81,0,0,1,3.52-1.81l-.17.06a11.52,11.52,0,0,1,4.19-.59,12.78,12.78,0,0,1,2.22.39A14.43,14.43,0,0,1,22,416a7.32,7.32,0,0,1,1.82,1,7,7,0,0,1,1.07,1.1,8.13,8.13,0,0,1,.57.87l.12.21A17.54,17.54,0,0,1,27.3,423a16.23,16.23,0,0,1,.69,4.21c0,.81,0,1.53,0,2.19a17.31,17.31,0,0,1-.25,2.09c-.23,1.4-.54,2.78-.82,3.94s-.64,2.62-1.11,4.09c-.9,2.84-1.95,5.59-2.77,7.66s-1.64,3.88-2.49,5.75c-.23.53-.47,1.05-.71,1.58-.38.85-.77,1.69-1.16,2.48s-.78,1.5-1.17,2.23l-.11.18a1.28,1.28,0,0,1-1.26.62A1.24,1.24,0,0,1,15.72,459.92Z"/><path class="cls-12" d="M8.83,476.65a1.28,1.28,0,0,1,.15-1,1.36,1.36,0,0,1,.8-.61c.47-.15,1-.26,1.43-.37l.36-.08.53-.12.13,0a1.29,1.29,0,0,1-.72-.78l-.72.32-.33.15-.62.27-.27.12-.23.11a3.32,3.32,0,0,1-.59.24,1.35,1.35,0,0,1-.45,0,1.34,1.34,0,0,1-1.05-.67,1.37,1.37,0,0,1,.23-1.6,2.46,2.46,0,0,1,.75-.45l.17-.07.31-.14.31-.14a.56.56,0,0,1,0-.12,6.21,6.21,0,0,1,1.22-1.65c.56-.57,1.12-1.11,1.6-1.56.89-.84,1.84-1.64,2.77-2.42l.57-.48c1.18-1,2.37-2,3.53-3s2.31-1.81,3.41-2.63a40.35,40.35,0,0,1,5.56-3.42c.82-.42,1.68-.81,2.51-1.19l.5-.22,1.36-.62.74-.33a3.48,3.48,0,0,1,.6-.23,2.16,2.16,0,0,1,.86-.09,1.31,1.31,0,0,1,.92.53,1.29,1.29,0,0,1,.26,1,1.9,1.9,0,0,1-.39.9,5.91,5.91,0,0,1-.65.68l-.9.84c-.5.46-1,.92-1.6,1.38s-1.26,1-1.88,1.47c-.41.31-.82.6-1.22.87l-.58.39c-1.13.8-2.3,1.54-3.6,2.36l-3.84,2.41-.36.22-.36.23c1.11-.41,2.32-.82,3.8-1.3.87-.29,1.74-.56,2.62-.84l1.48-.47,1.9-.61,2.14-.69a34,34,0,0,1,4-1.06l.14,0A7.35,7.35,0,0,1,38,462a2.12,2.12,0,0,1,1.17.43,1.81,1.81,0,0,1,.58.87,2,2,0,0,1,0,.92,2.09,2.09,0,0,1-.53.91,5.38,5.38,0,0,1-1.12.91A22.66,22.66,0,0,1,33.79,468l-.14.06c-1.26.46-2.57.86-3.84,1.24l-.17,0c-3,.89-5.64,1.73-8.14,2.55l-.06,0-.08,0h0l-.15.05-1.72.58-2.15.74-1.2.39c.68-.12,1.36-.23,2.05-.33,1.4-.2,2.79-.33,4.44-.47.61,0,1.23-.07,1.84-.09l.45,0c.72,0,1.36,0,2,0h.49c.56,0,1.12,0,1.68.05.8,0,1.59.1,2.39.16h.06c.53,0,1.06.11,1.59.19l.36,0c.85.11,1.6.24,2.29.39a2.24,2.24,0,0,1,1.63,1.12,1.31,1.31,0,0,1,.13,1,1.74,1.74,0,0,1-.64,1,7.5,7.5,0,0,1-3.18,1c-1.31.19-2.7.34-4.25.45s-2.82.16-4,.2-2.56,0-4-.09l-1-.08c-.9-.08-1.81-.18-2.78-.32-1.13-.17-2.32-.41-3.87-.78a1.79,1.79,0,0,1-.32-.13l-.19,0c-.92.18-1.88.37-2.8.63a1.08,1.08,0,0,1-.44,0A1.35,1.35,0,0,1,8.83,476.65Z"/><path class="cls-13" d="M0,488.48a9.72,9.72,0,0,1-2-1.22,11.82,11.82,0,0,1-1.82-1.72,11.74,11.74,0,0,1-2.17-3.61,10.32,10.32,0,0,1-.48-4.81,10.57,10.57,0,0,1,2.15-5.32l.13-.27a9.13,9.13,0,0,1,2.67-3.33A7.63,7.63,0,0,1,3,466.87a9,9,0,0,1,1.21-.39,8.37,8.37,0,0,1,4.6.23,10,10,0,0,1,2.3,1.19,22,22,0,0,1,2,1.43,9.76,9.76,0,0,1,2.62,3,8.43,8.43,0,0,1,.76,1.93,7.66,7.66,0,0,1,.21,2,13,13,0,0,1-.3,2.05c-.13.66-.34,1.31-.53,1.95a15.89,15.89,0,0,1-1.51,3.3A14.82,14.82,0,0,1,11.69,487a9.25,9.25,0,0,1-3.1,2,10.35,10.35,0,0,1-4.09.56l-.4,0A12.77,12.77,0,0,1,0,488.48Z"/><path class="cls-14" d="M2.33,482.28a1.36,1.36,0,1,1,1.25,1.46,1.38,1.38,0,0,1-1.25-1.46Zm3.42,6.81a1.32,1.32,0,0,1,1.42-1.22,1.32,1.32,0,1,1-1.42,1.22ZM12,484.38a1.32,1.32,0,1,1,1.22,1.42A1.34,1.34,0,0,1,12,484.38ZM6.41,467.94a1.35,1.35,0,1,1,1.25,1.45,1.37,1.37,0,0,1-1.25-1.45Zm2.9,7.69a1.34,1.34,0,0,1,1.42-1.23,1.45,1.45,0,0,1,.65.23,1.28,1.28,0,0,1,.84-.22,1.35,1.35,0,0,1,1.23,1.43,1.27,1.27,0,0,1-.37.81,1.32,1.32,0,0,1-.71,2.49,1.33,1.33,0,0,1-1.22-1.42,1.26,1.26,0,0,1,.36-.8l-.14-.08a1.33,1.33,0,0,1-2.06-1.21ZM3.84,474a1.34,1.34,0,0,1,2.66.23,1.34,1.34,0,0,1-.53,1,1.39,1.39,0,1,1-2.14,1.25,1.29,1.29,0,0,1-.62.1,1.33,1.33,0,1,1,.2-2.66,1.43,1.43,0,0,1,.43.12Zm-7.73,11.18a1.34,1.34,0,0,1,1.42-1.23,1.39,1.39,0,0,1,.85.4,1.35,1.35,0,0,1,1.11,1.41A1.35,1.35,0,0,1-1.94,487a1.37,1.37,0,0,1-.86-.41,1.34,1.34,0,0,1-1.09-1.4Zm-2.59-6.73a1.33,1.33,0,0,1,1.42-1.22,1.33,1.33,0,0,1,1,.61h.26a1.35,1.35,0,0,1,1.24,1.44A1.36,1.36,0,0,1-4,480.52,1.4,1.4,0,0,1-5,479.86h-.22a1.35,1.35,0,0,1-1.22-1.42Zm1.12-4.63a1.36,1.36,0,0,1,1.43-1.23A1.36,1.36,0,0,1-2.7,474a1.35,1.35,0,0,1-1.43,1.23,1.35,1.35,0,0,1-1.23-1.43ZM1,468.36a1.34,1.34,0,0,1,1.42-1.23,1.34,1.34,0,0,1,1.22,1.19,1.31,1.31,0,0,1,1.14-.5,1.33,1.33,0,1,1-1.43,1.47,1.3,1.3,0,0,1-1.13.49A1.33,1.33,0,0,1,1,468.36Zm-2.27,2.39A1.3,1.3,0,0,0-.9,471.8a1.39,1.39,0,0,0-1.23,1.25A1.36,1.36,0,0,0-.88,474.5a1.37,1.37,0,0,0,1.45-1.25,1.37,1.37,0,0,0-.42-1.08,1.36,1.36,0,0,0,1.2-1.23,1.36,1.36,0,0,0-1.23-1.43,1.35,1.35,0,0,0-1.43,1.24Zm14.77,3a1.33,1.33,0,1,0,1.42-1.22h-.24a1.42,1.42,0,0,0,.17-.55,1.34,1.34,0,1,0-1.44,1.24,1,1,0,0,0,.25,0,1.3,1.3,0,0,0-.16.54Zm.53,7.6a1.35,1.35,0,1,1,1.24,1.44A1.36,1.36,0,0,1,14,481.33Zm-6.23,4.94A1.35,1.35,0,0,1,9.19,485h.09a1.33,1.33,0,0,1,2.18,1.12A1.33,1.33,0,0,1,10,487.38H10a1.33,1.33,0,0,1-1,.32,1.35,1.35,0,0,1-1.23-1.43Zm-.6-14.87a1.36,1.36,0,0,1,1.45-1.25,1.36,1.36,0,1,1-1.45,1.25ZM6,478.52a1.33,1.33,0,1,0,1.42-1.22A1.34,1.34,0,0,0,6,478.52ZM-1,478.11a1.35,1.35,0,0,1,1.44-1.23,1.35,1.35,0,0,1,1.23,1.43,1.35,1.35,0,0,1-1.43,1.24A1.36,1.36,0,0,1-1,478.11Zm-.14,5.4a1.36,1.36,0,0,0,1.22,1.42,1.34,1.34,0,0,0,1.42-1.22,1.34,1.34,0,0,0-1.22-1.42,1.34,1.34,0,0,0-1.42,1.22ZM3,486.82a1.34,1.34,0,1,1,1.24,1.44A1.36,1.36,0,0,1,3,486.82ZM8.77,482a1.35,1.35,0,0,1,1.45-1.24,1.35,1.35,0,1,1-.2,2.69A1.35,1.35,0,0,1,8.77,482Z"/></g></svg>