<svg xmlns="http://www.w3.org/2000/svg" viewBox="0 0 114.7 153.54"><defs><style>.cls-1{fill:#c79032;}.cls-2{fill:#ecb04d;}.cls-3{fill:#fee7a8;}.cls-4{fill:#fff;}.cls-5{fill:#f89c6f;}.cls-6{fill:#f9f4a5;}</style></defs><g id="Layer_2" data-name="Layer 2"><g id="Layer_1-2" data-name="Layer 1"><rect class="cls-1" x="51.32" y="27.66" width="12.06" height="22.97"/><path class="cls-2" d="M76.14,153.54H38.56a12.77,12.77,0,0,1-12.63-10.92L21,108.5A12.77,12.77,0,0,1,33.58,93.89H81.12A12.77,12.77,0,0,1,93.75,108.5l-5,34.12A12.77,12.77,0,0,1,76.14,153.54Z"/><path class="cls-1" d="M24.82,102.58l6.68,48.81A12.69,12.69,0,0,0,38,153.51Z"/><polygon class="cls-1" points="50.11 153.54 54.83 153.54 49.09 109.78 50.11 153.54"/><polygon class="cls-1" points="35.33 108.5 41.87 153.54 46.97 153.54 35.33 108.5"/><polygon class="cls-1" points="79.37 108.5 67.73 153.54 72.83 153.54 79.37 108.5"/><path class="cls-1" d="M76.68,153.51a12.76,12.76,0,0,0,6.53-2.12l6.67-48.81Z"/><polygon class="cls-1" points="65.61 109.78 59.87 153.54 64.59 153.54 65.61 109.78"/><polygon class="cls-1" points="56.18 153.54 58.33 153.54 56.18 116.46 56.18 153.54"/><path class="cls-1" d="M81.12,93.15H33.58A12.76,12.76,0,0,0,21,107.75l1.72,11.77a25,25,0,0,0,7.82,1.25,24.66,24.66,0,0,0,9.89-2A23.15,23.15,0,0,0,58,126.42c8.11,0,15.18-3.82,19-9.48a24.11,24.11,0,0,0,13.2,3.83c.57,0,1.13,0,1.69-.06l1.89-13A12.76,12.76,0,0,0,81.12,93.15Z"/><path class="cls-3" d="M114.7,74c0-8.91-7.09-16.38-16.66-18.41-2.57-8-11-13.87-21.11-13.87a23.39,23.39,0,0,0-16.55,6.54,23.39,23.39,0,0,0-16.55-6.54c-9.84,0-18.16,5.61-20.93,13.34q-.49,0-1,0C9.81,55.06,0,63.56,0,74c0,7.16,4.59,13.4,11.36,16.63A16.31,16.31,0,0,0,11.19,93c0,10.47,9.81,19,21.91,19a24.49,24.49,0,0,0,9.89-2,23.13,23.13,0,0,0,17.62,7.69c8.11,0,15.19-3.81,19-9.47A24.11,24.11,0,0,0,92.79,112c12.1,0,21.91-8.49,21.91-19a17,17,0,0,0-2.94-9.49A16.92,16.92,0,0,0,114.7,74Z"/><path class="cls-4" d="M105.37,71.61a17.71,17.71,0,0,0-14-17A18.24,18.24,0,0,0,73.75,41.75a18.63,18.63,0,0,0-13.86,6,18.67,18.67,0,0,0-13.86-6A18.28,18.28,0,0,0,28.5,54.08l-.82,0c-10.13,0-18.35,7.86-18.35,17.55A17.44,17.44,0,0,0,18.84,87a17.16,17.16,0,0,0-.14,2.16c0,9.69,8.22,17.55,18.35,17.55a18.89,18.89,0,0,0,8.28-1.89A18.81,18.81,0,0,0,76,103.16a18.81,18.81,0,0,0,11,3.54c10.14,0,18.35-7.86,18.35-17.55a16.9,16.9,0,0,0-2.46-8.77A16.87,16.87,0,0,0,105.37,71.61Z"/><path class="cls-5" d="M56.3,0s1.23,7.84-4.11,12.05-2.87,15.58,6.72,15.61S67,4.21,56.3,0Z"/><path class="cls-6" d="M56.57,5s.92,6.43-3,9.87-2.12,12.77,5,12.8S64.48,8.44,56.57,5Z"/><path class="cls-4" d="M56.84,12.42s.6,4.22-2,6.48-1.39,8.36,3.27,8.38S62,14.69,56.84,12.42Z"/></g></g></svg>