<svg xmlns="http://www.w3.org/2000/svg" viewBox="0 0 174.17 129.94"><defs><style>.cls-1{fill:#febb78;}.cls-2{fill:#fec47e;}.cls-3{fill:#fed294;}.cls-4{fill:#fecd84;}.cls-5{fill:#fece85;}.cls-6{fill:#fed08b;}.cls-7{fill:#febf76;}.cls-8{fill:#febe7c;}.cls-9{fill:#fec877;}.cls-10{fill:#fea753;}.cls-11{fill:#fea049;}.cls-12{fill:#fec983;}.cls-13{fill:#fecf87;}.cls-14{fill:#fecb7e;}.cls-15{fill:#fecb81;}.cls-16{fill:#fe9a41;}.cls-17{fill:#fec17f;}.cls-18{fill:#fec37e;}.cls-19{fill:#fea14c;}.cls-20{fill:#fecc80;}.cls-21{fill:#febf78;}.cls-22{fill:#fecb8a;}.cls-23{fill:#feab59;}.cls-24{fill:#feb169;}.cls-25{fill:#fe7fb0;}.cls-26{fill:#fe9e48;}.cls-27{fill:#feb5d2;}.cls-28{fill:#fe993f;}.cls-29{fill:#feb061;}.cls-30{fill:#feb069;}.cls-31{fill:#fecb88;}.cls-32{fill:#febf7b;}.cls-33{fill:#feaa5a;}.cls-34{fill:#fe377e;}.cls-35{fill:#fec9de;}.cls-36{fill:#fec178;}.cls-37{fill:#fe89b7;}.cls-38{fill:#feb7d3;}.cls-39{fill:#fec883;}.cls-40{fill:#fe9bc2;}.cls-41{fill:#fe6fa5;}.cls-42{fill:#fecb7f;}.cls-43{fill:#feb66a;}.cls-44{fill:#feb3d0;}.cls-45{fill:#feb874;}.cls-46{fill:#fe87b5;}.cls-47{fill:#feb66e;}.cls-48{fill:#fec7dd;}.cls-49{fill:#fea8ca;}.cls-50{fill:#fe347b;}.cls-51{fill:#fe4b8d;}.cls-52{fill:#fed0e3;}.cls-53{fill:#feb36f;}.cls-54{fill:#feaccb;}.cls-55{fill:#fe9dc3;}.cls-56{fill:#fe99c1;}.cls-57{fill:#feb8d3;}.cls-58{fill:#feaf64;}.cls-59{fill:#fec585;}.cls-60{fill:#febfd8;}.cls-61{fill:#fe5b97;}.cls-62{fill:#feaccc;}.cls-63{fill:#fe71a7;}.cls-64{fill:#fec88c;}.cls-65{fill:#fe6ba3;}.cls-66{fill:#feadcd;}.cls-67{fill:#fe9ec4;}.cls-68{fill:#fecb8d;}.cls-69{fill:#fe80b1;}.cls-70{fill:#fea14b;}.cls-71{fill:#fe357b;}.cls-72{fill:#fec684;}.cls-73{fill:#fe9030;}.cls-74{fill:#fea959;}.cls-75{fill:#feaecd;}.cls-76{fill:#fe3c81;}.cls-77{fill:#fe69a2;}.cls-78{fill:#febf7d;}.cls-79{fill:#fe72a7;}.cls-80{fill:#fe8a28;}.cls-81{fill:#febdd7;}.cls-82{fill:#fea04c;}.cls-83{fill:#feb7d2;}.cls-84{fill:#fec6dc;}.cls-85{fill:#fe5d9a;}.cls-86{fill:#fe8c28;}.cls-87{fill:#fec080;}.cls-88{fill:#fe5090;}.cls-89{fill:#fec97f;}.cls-90{fill:#fe5c99;}.cls-91{fill:#fe8cb9;}.cls-92{fill:#fe468a;}.cls-93{fill:#fe9f49;}.cls-94{fill:#febed7;}.cls-95{fill:#fea04f;}.cls-96{fill:#fe85b2;}.cls-97{fill:#fe9b42;}.cls-98{fill:#fe8f2e;}.cls-99{fill:#fe9bc1;}.cls-100{fill:#febdd6;}.cls-101{fill:#fea856;}.cls-102{fill:#feb4d0;}.cls-103{fill:#fe679e;}.cls-104{fill:#fe7faf;}.cls-105{fill:#fe79ac;}.cls-106{fill:#fe86b4;}.cls-107{fill:#fed28f;}.cls-108{fill:#fea1c6;}.cls-109{fill:#feb772;}.cls-110{fill:#fe7aac;}.cls-111{fill:#febf7a;}.cls-112{fill:#fec583;}.cls-113{fill:#feba71;}.cls-114{fill:#feb467;}.cls-115{fill:#fec98b;}.cls-116{fill:#fec683;}.cls-117{fill:#fec483;}.cls-118{fill:#fed9a2;}.cls-119{fill:#fed18e;}.cls-120{fill:#fed59b;}.cls-121{fill:#fd3779;}.cls-122{fill:#fed59a;}.cls-123{fill:#fed699;}.cls-124{fill:#fe4282;}.cls-125{fill:#fecd8d;}.cls-126{fill:#fed18c;}.cls-127{fill:#fed392;}.cls-128{fill:#fea651;}.cls-129{fill:#feaa57;}.cls-130{fill:#feb060;}.cls-131{fill:#febd7b;}.cls-132{fill:#fea451;}.cls-133{fill:#fe9436;}.cls-134{fill:#fea757;}.cls-135{fill:#fe76a8;}.cls-136{fill:#fefbfc;}.cls-137{fill:#fec0d9;}.cls-138{fill:#fe4689;}.cls-139{fill:#fe97bf;}.cls-140{fill:#fecee1;}.cls-141{fill:#feb064;}.cls-142{fill:#fed3e4;}.cls-143{fill:#fefcfd;}.cls-144{fill:#fe5f9a;}.cls-145{fill:#fecb87;}.cls-146{fill:#fec57e;}.cls-147{fill:#febc71;}.cls-148{fill:#fecc8e;}.cls-149{fill:#fed496;}.cls-150{fill:#fec17e;}.cls-151{fill:#fedba6;}.cls-152{fill:#fe4a88;}.cls-153{fill:#fed598;}.cls-154{fill:#fe8bb8;}.cls-155{fill:#fe6aa1;}.cls-156{fill:#fe93bd;}.cls-157{fill:#fe5994;}.cls-158{fill:#feaacb;}.cls-159{fill:#fece8a;}.cls-160{fill:#f73071;}.cls-161{fill:#fec982;}.cls-162{fill:#fec881;}.cls-163{fill:#fed69a;}.cls-164{fill:#feb161;}.cls-165{fill:#feaf5e;}.cls-166{fill:#fec27a;}.cls-167{fill:#feb46e;}.cls-168{fill:#fed291;}.cls-169{fill:#fe7bad;}.cls-170{fill:#fe84b3;}.cls-171{fill:#fe508d;}.cls-172{fill:#fe5692;}.cls-173{fill:#fe85b4;}.cls-174{fill:#fe5f99;}.cls-175{fill:#fe75a9;}.cls-176{fill:#fe6fa6;}.cls-177{fill:#feb1cf;}.cls-178{fill:#fea4c8;}.cls-179{fill:#feb971;}.cls-180{fill:#fedca9;}.cls-181{fill:#fea7c9;}.cls-182{fill:#fed69b;}.cls-183{fill:#fed89f;}.cls-184{fill:#fedaa5;}</style></defs><g id="Layer_2" data-name="Layer 2"><g id="Layer_1-2" data-name="Layer 1"><path class="cls-1" d="M22.17,109.69c-.18-.69-.64-1.3-.51-2.06-.65-1.08-.19-1.74.84-2.17a18.34,18.34,0,0,0,2.85-1.53c-1.87.43-3.55,1.48-5.2.08-.57-1.75-1.7-3.31-1.74-5.23-.92-2.45-.88-2.36,1.29-3.42,2.89-1.4,5.54-3.26,8.4-4.74a3.54,3.54,0,0,1,.53-.23C30.89,90,32.8,88.73,34.92,88s2.47-.52,3.07,1.85a1.53,1.53,0,0,1-.81.79c-.6.25-1.21.49-1.8.77-.43.17-.88.31-1.32.45-.77.29-1.79,0-2.32,1.13.86.48,2.86.41,1.3,2.27.71-.51,1.58-1.34,2.23-.43a1.5,1.5,0,0,1-1,2.26c-1.78.41-2.9,1.88-4.31,2.33A25.12,25.12,0,0,0,32.86,98c.54-.25,1.27-.55,1.61.13s-.43.86-.82,1.19a3.85,3.85,0,0,1-.88.52,5.1,5.1,0,0,1,3.84.41c1.18.45.67,1.41,0,2.12A5.17,5.17,0,0,1,34,103.62c-1,.29-.33.67-.13,1-1.48,1.14-3.45.88-5,1.77a14,14,0,0,1-4.17,1.34A1.83,1.83,0,0,0,23,109C22.79,109.3,22.66,109.68,22.17,109.69Z"/><path class="cls-2" d="M155.76,98.4A1.6,1.6,0,0,1,155,100c-1.85-.43-3.74.45-5.6-.2-.64-.22-1.1.3-1.56.67-1.11-.3-1.49,1.66-2.76.91-3.22-1.16-6.29-2.81-9.83-2.82a10.09,10.09,0,0,1-2-.3c-.87-.23-1.55-1.2-2.62-.65a4.42,4.42,0,0,1-2.21-.42c-.6-.33-1.27-.12-1.9-.2a1,1,0,0,1-.77-.83c1.11-1.81,2.91-1.67,4.67-1.62,4.31-.08,8.69.66,13.11-.89a5.29,5.29,0,0,0-3.6-1.46,7.51,7.51,0,0,1-3.72-.69,1.3,1.3,0,0,1-.4-.44,1.12,1.12,0,0,1,.48-1.3c.86-.35,1.61.41,2.45.22,2.58.1,5.17.24,7.47-.82.07-.48,0-.59-.12-.65-.73-.34-2.16.12-2.09-1,.09-1.32,1.48-.68,2.32-.8s1.44-.17,2.16-.34l.81-.12c.78,0,1.07.68,1.52,1.15,1.71,1.8,3.41,3.64,6.32,2.74,1.18-.37,1.42.64,1.79,1.39a29.91,29.91,0,0,1-2.4,5.28c-.65,1.44-1.92,1.42-3.09,1a17.37,17.37,0,0,0-6.13-.57c2.31,1.22,4.8.4,7.18.71C154.93,98.06,155.43,98,155.76,98.4Z"/><path class="cls-3" d="M125.87,96.38l.8.41c.38.2.65.45.37.91-2.53,1.77-5.56,2.5-8.27,3.88-1.2.61-2.6.28-3.92.24a10.7,10.7,0,0,0-5.28.65,5.49,5.49,0,0,1-4,.88,66,66,0,0,0-8.3-.89,1.22,1.22,0,0,1-1-.52c-.3-1,.26-1.6.89-2.19,1.26-.66,1.56-2.46,3.18-2.71,1.4.31,2.93.24,4,1.41,2.69.86,5.56.53,8.29,1.3a4,4,0,0,0,4.56-2.16c.21-.34.37-.94.74-.82,1.73.56,2.37-.79,3.49-1.58s.71-1.5.66-2.35c.54-2-.95-4-.21-6,.76-.66.41-1.22-.11-1.81s-1-1.25-.31-2.06c1.79.34,3.4-.63,5.14-.69.2,0,.54,0,.58-.07.79-2.57,2.9-1.4,4.52-1.61a3.45,3.45,0,0,1,.54.11,10,10,0,0,0,2.67.33h.27l2.41,2.82c.67.18-1.07.45,0,.68.59.11.42.57.14.91a1.16,1.16,0,0,1-1.07.47c-2.56-.52-2.4,1.89-3.36,3.09-.23.28.11.41.27.61,1.25,1.52.75,2.7-1.09,3.48a14.9,14.9,0,0,1-5.84,1.08c-.64-.13-.71-.57-.47-1.05a1.27,1.27,0,0,1,1.38-.59c.77,0,1.69.46,2.22-.37.34-.54,1.34-1.25,1.06-1.45-.9-.64-.56-2-1.6-2.42-.63-.23-1.18-.61-1.8-.85s-1.54-.56-2.09,0-.18,1.25.27,1.81c.23.28.4.73.09.88-1.64.85-.48,1.76,0,2.55s.4,1.4.8,2c0,.63-.47.88-.89,1.21C125,96.34,125.92,96.13,125.87,96.38Z"/><path class="cls-4" d="M89.51,39.41c.89,1.93,1,4.06,1.61,6.07.22.15-1,.16,0,.42.32.09.19.58.45.79h0c.09.1.21.27.15.33-1.1,1.13-.31,1.63.67,2.09a2.45,2.45,0,0,1,.76,1.63c-1.83,1.06-2.22,1-2.72-.55a3,3,0,0,1-1.12,4A6.13,6.13,0,0,0,88,56c-3.63,1.21-7.17,2.77-11.06,3-.56,0-1.38.47-1.57-.61,1.42-3.48,3.32-6.78,4.25-10.46.64-2.55,1.31-5.1,2-7.65A10.91,10.91,0,0,0,89,40.05,1.39,1.39,0,0,1,89.51,39.41Z"/><path class="cls-5" d="M58,66.55c1,0,1.76,1,2.82.75a8.41,8.41,0,0,0,4.08,0,20.78,20.78,0,0,0,4.43-2.44,1.62,1.62,0,0,1,.68,1.8,1,1,0,0,1-.36.44,10.83,10.83,0,0,0-1.93,1c-1.25.69-1.34,1.55-.42,2.59a.66.66,0,0,1,.08.53,1.53,1.53,0,0,1-1.84.36c-.93-.37-1.69-.86-2.24.51-.16.38-.76.24-1-.12-.44-.64-1-1.29-.51-2.16C61,70.36,60,70.62,60.3,72c.11.51-.72.89-1.25,1.17a30.88,30.88,0,0,1-5.11,2.31c-2,.46-3.82,1.72-6,1.74a2.71,2.71,0,0,1-.74-.26c-.67-.34-1.76-.13-1.89-1.15s1-1.11,1.47-1.74c0-.84-1.24-.77-1.18-1.63.49-2.72,2.75-3.67,4.82-4.71a10.69,10.69,0,0,1,5.31-1A16.55,16.55,0,0,0,58,66.55Z"/><path class="cls-6" d="M132.33,81h-.4c-3.21-.63-6.54-.46-9.66-1.63-.75-.28-1.6.11-2.4.11a3.64,3.64,0,0,1-3.13-1c-.93-1-2.28-.55-3.46-.6-2.42-.12-3.17-1-2.62-3.33.2-.84.55-1.5,1.55-1.59.42,0,1.11.15,1.09-.55a2.81,2.81,0,0,0-1-1.94c-.47-.44-.67.17-.92.41-.56.53-1.26.38-1.89.44.75.2,1.86.53.66,1.36-1,.69-1.88,1.47-2.83,2.18-1.33,1-3,.61-4.51.56a7.14,7.14,0,0,1-2.39-.3,2.58,2.58,0,0,1-1.8-2.61,4.69,4.69,0,0,1,2.92-1.6c-1.12.34-2.76-.3-4.42-.25-1,0-1.34-1-1.72-1.79a.88.88,0,0,1,.13-.55,6.23,6.23,0,0,1,4.43-.53c1.36.3,2.75.42,4.1.73s2.21.25,2.54-1.26a1.16,1.16,0,0,1,.64-.72c1.31.5,2.54,1.25,4,1.13a3.64,3.64,0,0,0,2.52,0l1.54,0c.32,2.27,1,4.49.73,6.85-.09.82.71,1.37,1.44,1.44A18.89,18.89,0,0,1,125,78.38c1.89,1,4.34.49,6.51.92.26,0,.53.06.79.12a1.66,1.66,0,0,1,.55.27,1.28,1.28,0,0,1,.34,1.41A.71.71,0,0,1,132.33,81Z"/><path class="cls-5" d="M107.27,66.58a11.93,11.93,0,0,0-.38,1.54c-.16,1.33-.77,1.44-2,1.19-3-.61-6.11-1.56-9.29-.81-1.44.32-1.78-.43-1.56-1.66a7.21,7.21,0,0,1,.56-1.28c.72-1.82.19-2.57-1.77-2.29a60.17,60.17,0,0,0-14.63,4.08,17.88,17.88,0,0,0-3.11,1.36,5.46,5.46,0,0,0-4.13,1.7,2.92,2.92,0,0,1-3.64.52h0c-.59-2.07-.39-2.22,1.58-2.56A19.75,19.75,0,0,0,74.79,66a24.24,24.24,0,0,1,10-3.28c3.47-.19,6.7-1.34,10.06-1.94,1.32-.24,2.61-.6,3.94-.76C101.49,62.38,104,65,107.27,66.58Z"/><path class="cls-7" d="M18.79,78.67c.5-.12.84.24,1.24.41.47,1.37,1.37,1.71,2.78,1.44a36,36,0,0,1,4.41-.07c.49,0,1.2-.21,1.4.47s-.5.87-.89,1.21a2.43,2.43,0,0,0-.4.45c-.3.61-1.07,1.26.19,1.72a1.1,1.1,0,0,1,.53,1.92c-.71.89-1.57,2.52-2.78,1.63-1.6-1.19-2.77-.42-4.09.06a25.53,25.53,0,0,0-3.33,1.88c-2.05,1.11-2.43,1-3.3-1.28-.1-.24-.29-.18-.45-.25-.06-.26-.13-.52-.19-.78a6.65,6.65,0,0,1-.73-1.69,15.86,15.86,0,0,1-1.54-4c1.14-1.49,3-1.67,4.57-2.3C17,79.19,17.92,78.94,18.79,78.67Z"/><path class="cls-8" d="M14.1,88.26c.53-.31.76,0,.85.46.44,1.91,1.41,1.4,2.6.69,1.94-1.16,3.79-2.54,6.15-2.81.44,0,.91-.47,1.26.09s.07,1.48,1,1a4.58,4.58,0,0,0,2-2.16.57.57,0,0,0-.61-.8c-2.31.15-1.36-.94-.76-1.92.1-.17.18-.36.27-.54,1.77.37,3.45,1.37,5.37.53.49-.21,1.06.23,1.22.81.2.74-.28,1.1-.93,1.28-.38.11-1,.12-1,.5-.3,2.21-1.94,3.62-3,5.36-2.76,1.71-5.36,3.82-8.33,5-2,.74-2,1.58-1.76,3.09-1.56-2.61-2.38-5.53-3.58-8.29C14.52,89.79,14,89.12,14.1,88.26Z"/><path class="cls-9" d="M75.37,58.41c3.06.51,5.84-.7,8.59-1.66,1.3-.46,2.74-.42,3.93-1.17a1.77,1.77,0,0,1,1.5-.34A4.9,4.9,0,0,0,93,54.37a1.38,1.38,0,0,1,2.21.4c.53.81,1.07,1.62,1.61,2.43-.26,1.32-1.53,1.26-2.35,1.38a35.09,35.09,0,0,0-6.28,1.93c-3.09,1.08-6.26,1.9-9.32,3.11-2.49,1-4.6,2.73-7.21,3.4-.62.16-1.38,1.21-1.91-.13h0c.67-1.88,2.63-2.3,3.93-3.46.39-.34,1-.37,1.4-.76.26,0,0-.45,0-.19,0,.07,0,.1-.12.11-.84,0-1.75.24-2-.94A15,15,0,0,1,75.37,58.41Z"/><path class="cls-10" d="M26.27,120.55a2.54,2.54,0,0,1-.62-1.56c-.27-.69-.5-1.4-.75-2.1l-1.09-2.79c-.08-1.95.41-2.58,2.21-2.88a10.88,10.88,0,0,0,2.6-.26c.66-.29,1.5-.74,2,.12s-.5,1.23-1,1.76c1.34-.44,2.53-.82,3.42.85a4.38,4.38,0,0,0,4.36,1.77,2,2,0,0,1,.84,0c1.2.67.54,1.4,0,2.12,1.36.55,3-1.26,4.17.54-.55,1.32-2.08,1.41-3,1.57-2.64.45-3.67,2.13-4.43,4.29-.84.48-1.62,1.19-2.72.87-.77-.78-.27-1.42.29-2.16a12.83,12.83,0,0,1-3.2,1.4c-.54.25-1.22.54-1.61-.15a1.53,1.53,0,0,1,.32-1.85,5,5,0,0,1,3.78-1.58c.8,0,1.59-.06,2.43-.07,0-.47-.55-.3-.63-.51-.84-2.06-2-.81-3-.24C29.3,120.55,28,121.52,26.27,120.55Z"/><path class="cls-11" d="M32.14,124.66c1.09.24,1.74-1,2.83-.81.66-.66,2.06-.71,1.6-2.31-.15-.5.9-.9,1.49-1.17,2.67-1.21,5.35-2.41,8.11-3.39a11.29,11.29,0,0,1,6.9-.16c.46.92-.31,1.18-.84,1.51a6.52,6.52,0,0,1-2.07.79c-3.39.74-6.34,2.57-9.3,3.81,3.28-.18,6.39-1.84,9.74-2.59a16.22,16.22,0,0,0,2.08-.18,12.92,12.92,0,0,1,4.44.72c.2.2.17.37-.08.5-2,.41-4.09.71-6.08,1.29-.62.18-1.24.3-1.87.44-.8.29-1.63.49-2.45.73h-.19l-.19.08c-.77.31-1.6.46-2.39.75-4.36,1.51-8.89,2.51-13,4.6-.92.46-1.73.29-1.77-1C28.86,125.68,29.76,124.63,32.14,124.66Z"/><path class="cls-12" d="M45.88,72.54c2.24,1,2.24,1,.19,2.59a1,1,0,0,0-.4.62c0,.34.31.4.56.41.7,0,1.35.08,1.67.83-.44,1.62-2,1.71-3.18,2.36-1,.54-2.34.5-2.41,2.22,0,.87-1.36.48-2.06,1.08,1.75-.83,2.68.7,4,1.07.27,1.39-.93,1.3-1.64,1.48a45.49,45.49,0,0,0-4.84,1.43c-2.05.45-1.81.42-2-1.42C35.43,82.7,37,81.84,39,81c-2.5-.34-5.25.28-6.4-2.7A31.92,31.92,0,0,0,37.42,73c1.2,1.06,2.5.87,3.93.46S44.18,72,45.88,72.54Z"/><path class="cls-13" d="M132.73,79.82c-2.71-.28-5.44-.53-8.15-.84-.44-.06-1.08-.23-1.25-.55-1-1.83-2.73-1.49-4.25-1.57-3.14-.17-4.2-1.27-3.6-4.36.2-1,.35-1.77-.46-2.56s-.49-1.56.32-2.18a6.84,6.84,0,0,1,2.85-.89c1.28,1.45,2.53,2.93,4.48,3.55.44.14.94.35.9.94s-.69.71-1.2.85a2.85,2.85,0,0,1-1.34.06,7.82,7.82,0,0,1,6.72,3.57,10.13,10.13,0,0,0,3.78,2.91C132,79,132.8,78.93,132.73,79.82Z"/><path class="cls-14" d="M45.88,72.54c-1.84.59-3.66,1.26-5.52,1.73-1.18.3-2.58.64-2.94-1.23q1.28-3.45,2.54-6.9c2.83-.36,5.69-.34,8.53-.62a9.35,9.35,0,0,0,3.84-1,1.94,1.94,0,0,1,2.07-.11L58,66.55c-1.11,1.12-2.53.56-3.82.76C50.65,67.86,47.49,69,45.88,72.54Z"/><path class="cls-15" d="M132.73,79.82c-1.95-.28-3.07-2-4.71-2.77-.43-.22-.84-.47-.89-1A1.9,1.9,0,0,0,125,74.13a1.13,1.13,0,0,1-.88-.38c-.88-1.55-2.34-1.22-3.74-1.23.9-.55,2.05-.38,3-1.19-2.21-1.07-4.64-1.74-5.22-4.46.28-.51.79-.31,1.21-.38,2.78,1.37,5.93,1.79,8.46,3.29-.59-.92.73-1.54.73-2.47,1.7-1,2.16.59,3,1.46.21.3.1.71.34,1A28.87,28.87,0,0,0,134,79C134,80,133.43,80,132.73,79.82Z"/><path class="cls-16" d="M144.05,126.28a3.75,3.75,0,0,1-.88,2.4,3.87,3.87,0,0,1-2.69-.43c-2-.9-4.07-1.06-6.11-1.58a9.48,9.48,0,0,1-3.58-1.23c-.69-.25-1.38-.51-2.08-.72a6.3,6.3,0,0,1-2.34-.9,14.14,14.14,0,0,1-2.11-.81h0c-.66-.3-1.37-.48-2-.76l-4.9-1.24c-.58-.5-1.4.1-2-.42l-.14-.07-.14,0c-.39-.21-.85-.15-1.23-.36-.62-1.18-.22-1.89,1.25-1.66,3.14.48,6.41-.23,9.44,1.08a4.81,4.81,0,0,0,.77.19c3.2,1.2,6.66,1.41,9.88,2.59a4.47,4.47,0,0,1,2,.91c.33.34.83.7,1.25.52C141.15,122.69,142.24,125.33,144.05,126.28Z"/><path class="cls-17" d="M145.26,101.23c.4.35.64,0,.7-.27.26-1.24,1-.95,1.72-.54a2.54,2.54,0,0,1,3.73.56c.65.83,2.14.55,2.34,1.88,0,.32-.06.63-.39.8a7.63,7.63,0,0,1-4.87.07c.34,1.21,1.17,1.24,1.91,1.43,1.54.4,1.71.79.6,1.93-.61.62-1.06,1.36-1.67,2a.87.87,0,0,1-1-.29c-.51-.71-1.37-.79-2.09-1.13-.48-.23-1-.43-1.09-1.07s.78-.57,1.16-1c-2.81-.79-5.74-.31-8.51-1-2.35-.6-4.78-.48-7.16-.79-.62-.08-1.42.06-1.59-.88a1.57,1.57,0,0,1,1.51-.44c-.89-.3-2.69.49-2.57-1,.13-1.7,1.79-.75,2.81-.67a11.6,11.6,0,0,0,5.61-1.23c1.43-.52,2.7.42,4.08.51A17.54,17.54,0,0,1,145.26,101.23Z"/><path class="cls-18" d="M32.58,78.32c1.53,1.37,3.12,2.56,5.36,1.79.67-.23,1.25-.51,1.49.57.2.9-.08,1.15-.92,1.25-2.91.34-2.15,2.73-2.45,4.56l1.74-.21a.81.81,0,0,1-.65,1.06c-3,.71-5.69,2.45-8.65,3.38-.89-.4-.68-1.07-.05-1.3,1.75-.64,2-2.28,2.3-3.63.21-1.05.63-1.34,1.42-1.4.57,0,1.21.1,1-.73a.84.84,0,0,0-1.33-.43c-2,1.12-3.45.09-4.94-1,.16-.78,1.13-.61,1.48-1.21-2.56-.41-5.08.09-7.6,0-1.6,0-1.38-.27-.73-1.22.19-.27.09-.49,0-.74,1,0,1.73.92,2.77.75a15.68,15.68,0,0,0,5.38,0C29.83,79.88,31.1,78.8,32.58,78.32Z"/><path class="cls-19" d="M125.46,120.21a54.8,54.8,0,0,0-9.56-1.1,5.32,5.32,0,0,0-1.78,0c-1.07.32-.14.73,0,1.1a2.82,2.82,0,0,1-2.41,0l0,0c-.77-.47-1.7.12-2.46-.39l-.16,0-.17,0c-2-.25-4.11-.37-6.14-.8l-.15-.06-.16,0c-.43-.29-1-.09-1.41-.27-1-.31-1.75-.35-.24-1.42a2.49,2.49,0,0,1,2.85-.46,8.16,8.16,0,0,0,3.38.08c3.42-.18,6.69,1,10.08.94,2.43,0,4.86-.13,7.27-.41a10.1,10.1,0,0,1,4,.16,33.24,33.24,0,0,0,10.32,1c1.92.55,3.76,1.42,5.81,1.58a1.7,1.7,0,0,1,1.48,1.21c0,.45,0,.91-.39,1.21a11.13,11.13,0,0,1-6.28-.72,12.58,12.58,0,0,0-6.1-.77C130.55,121.52,128,120.84,125.46,120.21Z"/><path class="cls-20" d="M69.71,66.89A8.76,8.76,0,0,0,75,65c1.88-1.51,4.09-1.8,6.06-2.78,2.21-1.09,5-1,7.1-2.28,2.73-1.61,6-1.12,8.59-2.71.63,1,1.71,1.59,2,2.78-2.27,1.35-5,1.24-7.35,2.09-3.84,1.36-8,.79-11.84,2.32-3.15,1.26-6.09,2.91-9.17,4.29a1.88,1.88,0,0,1-1.15.25c-1.91-.55-2,.64-2,2a1.33,1.33,0,0,1-1-2.24A3.73,3.73,0,0,1,69.71,66.89Z"/><path class="cls-21" d="M48.68,56.84l3.66,5.21c.5,1-.31,1.12-.87,1.34-1.27.5-2.53,1-3.83,1.49-1.63.27-3.29.28-4.93.44-1,.1-2.43.18-2.09-1.67-.19-1.54,1-2.83.84-4.36.24-.29.08-.76.45-1C44.3,58.42,46.69,58.57,48.68,56.84Z"/><path class="cls-22" d="M126.67,94c1.79-.81,3.79-.68,5.68-1.32,1.48-.49,1.4-1.36,1.58-2,.25-1-1-.47-1.43-.82-.1-.08-.17-.19-.36-.39.82-.76,1.9-1.36,1.49-2.87-.21-.76.65-1,1.38-1,.89,0,1.84.22,2.72-.36-.51-.86-1.52,0-2-.86.52-.58,1.46.48,1.86-.42l3.22,2a1.92,1.92,0,0,1-1.74,1.44c.23.31.57.12.84.21.82.3,1.94.64,1.77,1.57-.2,1.09-1.46,1.06-2.29.74s-.73.23-1,.49c-.87.87-1.26-.7-2-.4s-1.13.52-.4,1.21a.72.72,0,0,1,.05.92c.39,0-1.28.74.16.48.47-.08,1-.06,1.11.55s-.34.84-.77,1a3.82,3.82,0,0,1-2.14.46,13.54,13.54,0,0,0-4.07.58,4.47,4.47,0,0,0-4.44,1.21,1.42,1.42,0,0,1-1.77-.33c.56-.77,1.86-.2,2.17-1.28C126.55,94.57,126.54,94.23,126.67,94Z"/><path class="cls-23" d="M37.39,115.77c-.54.62-1.37.44-2,.72-.44.19-1.21.28-.65-.71.26-.47.14-.64-.48-.67a1.65,1.65,0,0,1-1.82-1.45c-.31-1.37-1.64-.75-2.47-.43-.55.2-1,.67-1.57.32-.12-.41.18-.46.37-.63.59-.49,1.85-1,1.51-1.58-.53-1-1.33.12-2,.43a1,1,0,0,1-.74,0c-2-.44-3.4.08-3.71,2.33-.61-.57-.49-1.33-.53-2-.67-2.18-.39-2.73,1.71-3.31s4.38-.4,6.56-.57c1.52-.12,2.06.91,1.71,2.5,1.43.33,2.83-.46,4.28-.12a1.88,1.88,0,0,1,.49.71c.5,1.58-1.24,1.69-1.82,2.78C37.22,114.18,37.71,114.74,37.39,115.77Z"/><path class="cls-24" d="M88.68,31.79c0,.92,0,1.85,0,2.77.55,1.4.08,2.06-1.42,1.89a17.15,17.15,0,0,0-3.2.2c-1.15.08-1.77-.41-1.67-1.63.07-1.9,1-3.7.65-5.65.35-.41,0-1,.38-1.4a3.72,3.72,0,0,1,2.64-.24c.78.09,1.29-.09,1.26-1,0-.42,0-.83,0-1.25a2.85,2.85,0,0,1,.55-2.24c.75,1.15.2,2.46.47,3.67C88.77,28.52,88.18,30.19,88.68,31.79Z"/><path class="cls-25" d="M76.59,18.37c-.88-.37-.91-1.28-1.25-2a2.41,2.41,0,0,1-.33-.83c.17-2.05.6-2.32,2.28-1.35a40.23,40.23,0,0,0,4.06,1.73c1.93.71,3.41-.44,5-1.24a2.38,2.38,0,0,1,.51-.24c.72-.18,1.47-.19,2.17-.43,2.33-1.9,5.08-3.49,4.94-7.13,0-.59.12-1.42,1.14-1l.38.4a.7.7,0,0,1,.35.63,9.78,9.78,0,0,1-.32,1.21,3.39,3.39,0,0,1-.17.48,6.35,6.35,0,0,0-.48,2c-.34,3.42-3.07,5.1-5.26,7.18A2.92,2.92,0,0,1,89,18a9.81,9.81,0,0,1-7.75-.26C79.71,17.15,78,17,76.59,18.37Z"/><path class="cls-26" d="M125.46,120.21a6.9,6.9,0,0,1,3.71.6,2,2,0,0,0,1.35.16,15,15,0,0,1,9.91.77c1.62.73,3.55.17,5.23.89a13.68,13.68,0,0,1-1.61,3.65c-1-.65-2.66-.14-3-2-.13-.75-1-.49-1.5-.14s-1.25.77-1.85.3c-3.14-2.48-7-2.57-10.69-3.44A2.53,2.53,0,0,1,125.46,120.21Z"/><path class="cls-27" d="M130.3,42.64c.71-1.59,2.2-1.78,3.65-2a9.13,9.13,0,0,1,4,0l.41.41c.83.35,1.47,1.1,2.43,1.21a3.24,3.24,0,0,1,2,2c-.69.47-1.46-.12-2.16.17a8.42,8.42,0,0,1-1.79-.67,8.14,8.14,0,0,0-3.4-1c-1.76-.05-2.68.79-3,2.65a10,10,0,0,0,2.88,5.5c0,.88-.66,1-1.35,1.06-2.72-.31-3.44-2.39-4.07-4.56A10.37,10.37,0,0,1,130.3,42.64Z"/><path class="cls-28" d="M52.34,120.62c-.54.39-1.08,0-1.62,0-.4-1.3.7-1.19,1.38-1.4a36.81,36.81,0,0,1,8.28-1.42c1.43-.36,2.92.06,4.35-.37q3.26-.42,6.52-.8c1.68-.2,3.12.5,4.64.93.49.13,1,.47.61,1.17-1.21.23-2.45-.17-3.65.24l-.72,0c-1,.53-2.21-.12-3.26.39l0,0c-1.05.59-2.26-.09-3.32.41-.86-.24-1.5.62-2.34.47a5.31,5.31,0,0,1-1.94.16C58.32,120.78,55.31,120,52.34,120.62Z"/><path class="cls-29" d="M37.39,110.92c-1.73.63-3.61,0-5.24.72-.42-.51-.13-.74.12-.94s1.13-.5.89-1.16a1.49,1.49,0,0,0-1.63-1c-2,.6-4,.16-6,.53-1.83.33-2.63,1.1-2.27,2.94-.79-.59-.72-1.58-1.11-2.36.1-.26.2-.52.29-.78,1.93-1.54,4.46-1.61,6.59-2.66a1.31,1.31,0,0,1,.51.23c.94.87,2.18.23,3.26.66s2.61-.33,2.92,1.58c.06.37.71.12,1.09,0,1.25-.25,2.42-.8,3.67-1,.69-.12,1.58-.17,1.92.68s-.54,1-1,1.47A4,4,0,0,1,37.39,110.92Z"/><path class="cls-30" d="M162.69,83.44l-.94,1.64c-.57,1.11-1.51,2.08-2.65,1.17s-3.76-.5-3.33-3.13a63.52,63.52,0,0,0,6-5A12,12,0,0,0,164,79.78c.25.65-.24,1.1-.44,1.63l-.09.41A11.85,11.85,0,0,1,162.69,83.44Z"/><path class="cls-31" d="M128.69,67.29a5.92,5.92,0,0,1,.31,1.09c-1.71.84-.11,1.67.1,3.06-2.61-2.78-6.17-2.37-8.84-4.16a2.12,2.12,0,0,1-.86-.79l5.24-3.28A16.52,16.52,0,0,1,128.69,67.29Z"/><path class="cls-32" d="M158.91,91.52c-.81.12-.62-1.47-1.85-.92-2.75,1.23-4.44-.8-6.19-2.36a15.69,15.69,0,0,1-1.59-2,10.1,10.1,0,0,1,3.25-1.2c1.19,2,3.2,2.09,5.19,2.11a6.09,6.09,0,0,1,2.9.34l-.43,2a7.51,7.51,0,0,1-1.12,1.67C159,91.26,159,91.39,158.91,91.52Z"/><path class="cls-33" d="M32.14,124.66a4,4,0,0,0-3.08,3.6c-.06-.12-.11-.25-.17-.37-.29-.7-.51-1.41-.75-2.12l-1.87-5.22c2.67.47,4.32-1.91,6.66-2.36.44-.08.81-.52,1.34-.22.34.79-.9.74-.74,1.5l2.15.56c-.93,1.61-2.48,1.09-3.63,1a4.63,4.63,0,0,0-3.81,1.57c-.25.24-.58.84-.16,1.27s.73,0,1.08-.15c1.54-.5,2.92-1.53,5.1-1.47C33.17,123.07,32,123.38,32.14,124.66Z"/><path class="cls-34" d="M82.63,22.39c-.43-.08-.93.09-1.26-.35a.74.74,0,0,1-.12-.58,2.39,2.39,0,0,1,2.61-1.11c3.91.3,6.62-1.67,9-4.47a20.59,20.59,0,0,1,2-2.27c1-.9,1.58-.64,1.42.77a3,3,0,0,1-.68,2h0c-.31.53-.33,1.2-.86,1.61l0,0a5.7,5.7,0,0,1-2,2.07c-.73.16-1,.89-1.6,1.25a6.56,6.56,0,0,1-1.69.75l-1.55.42c-1.12.89-2.44.5-3.68.56a3,3,0,0,1-.68-.12A2.1,2.1,0,0,1,82.63,22.39Z"/><path class="cls-35" d="M164.27,64.88c3.61-1.73,7.84-.4,9.67,4.43a.77.77,0,0,1,.08.88c-2.72,2.27-5.61,1.52-7.46-2,0-1,.71-.76,1.29-.72a18.23,18.23,0,0,1,2.68.83c-1.19-1.77-3-1-4.4-1.49A3.28,3.28,0,0,0,164.27,64.88Z"/><path class="cls-36" d="M82.41,35c.29.71.6,1.39,1.57,1.16a10.48,10.48,0,0,1,4-.2c1.21.17.58-.9.77-1.42a14.57,14.57,0,0,1,.81,4.85c0,.27,0,.54,0,.81a14.74,14.74,0,0,1-6.64,0c-.9-.16-.78-.95-.91-1.57C82.46,37.48,82.2,36.22,82.41,35Z"/><path class="cls-37" d="M39.44,51a5.83,5.83,0,0,1-3.67-3.07c-.47-1.48.54-1.47,1.4-1.21a5.05,5.05,0,0,0,4-.56c2.2-.3,4.37-.66,5.29-3.12,1.36-1.53,2.37-3.18,2.14-5.35a1.58,1.58,0,0,1,.5-1.45c.46.85,1.53,1.28,1.62,2.39-.29,1.42-1.06,2.69-1.39,4.1-1.74,3.41-4.29,5.74-8.26,6.08C39.62,48.92,40,50.28,39.44,51Z"/><path class="cls-38" d="M88.3.63a4.21,4.21,0,0,1,2.8,1.22c1.44,2.79.39,5.66.21,8.49a2,2,0,0,1-1.7,1.8,3.56,3.56,0,0,0-2,1.3,2.44,2.44,0,0,1-2.11-.08.87.87,0,0,1-.32-.8c.24-.85,1.07-.88,1.68-1.24,3.06-1.83,4.42-4.58.86-7.78a3.88,3.88,0,0,1-.47-.32,5.63,5.63,0,0,1-.45-.38A11.08,11.08,0,0,0,83.18,2c-.64-.1-1.55.2-1.72-.88L82.65.64A9.47,9.47,0,0,1,88.3.63Z"/><path class="cls-39" d="M138.39,90.32c.23-.42-.62-2.1,1.06-.85.5.37,1.21-.58,2.12.13-.77-2.1-2.65-1.35-3.86-2.18.95-.87,2.4-.5,3.11-1.55.68,0,1.26.6,2,.42a9.1,9.1,0,0,0,4.12,0l1.54,0c-1.23,1-2.8.54-4.39,1,.83.9,1.74.43,2.5.58.41.09.81.2.91.64s-.37.44-.62.62c-1.23,1-2.19,1.72-4.16,1.14C141.66,90,139.88,90.78,138.39,90.32Z"/><path class="cls-40" d="M130.31,47.49c.92,1.62,1.19,3.8,3.63,4a6.3,6.3,0,0,0,7.14-4c.56-1.83,1.54-2.24,2.92-1.2l.48,1.22a1.51,1.51,0,0,1,.07,1.23,11.72,11.72,0,0,1-5.78,4.72c-3,1.31-7.1-.72-8.8-4.07A1.83,1.83,0,0,1,130.31,47.49Z"/><path class="cls-41" d="M39.44,51c-.38-1.67-.26-2.62,2-2.78A7.35,7.35,0,0,0,48,43.75a2.19,2.19,0,0,1,1.12-1.1c.58-.68.44-1.68,1.08-2.34.37-.38.6-1,1.27-.47l.33.81c.47.22.31.64.33,1,0,.56-.76-.39-.83.49-.09,1.21-1.48,1.81-1.85,3a9.38,9.38,0,0,1-.56,1,14,14,0,0,1-5.1,3.48c-1,.32-1.51,1.31-2.33,1.88A2.26,2.26,0,0,1,39.44,51Z"/><path class="cls-42" d="M95.17,54.77a1.68,1.68,0,0,0-2.26.26c-1.44,1.34-3.3.73-5,.55.42-1,.35-2.24,1.89-2.56.91-.19.58-1.24.39-1.91-.42-1.5-.46-1.48,1.36-1.48,0,.5-.92.66-.6,1.11.64.89,1.44-.33,2.18,0A14.49,14.49,0,0,1,95.17,54.77Z"/><path class="cls-43" d="M18.79,78.67c-.56.87-1.34,1-2.34,1.29a34.43,34.43,0,0,0-4.81,1.84c-.39-1.07-.77-2.14-1.15-3.22,1.35-1,2.91-1.66,4.26-2.67Z"/><path class="cls-44" d="M144,46.29c-1.56-.46-2.6.1-2.47,1.61a2.27,2.27,0,0,1-.94,2c-2.28,2.15-4.86,2.77-6.65,1.61.59,0,1.18,0,1.22-.81a1.47,1.47,0,0,1,1-.47,1.28,1.28,0,0,0,1.12-.95,2.83,2.83,0,0,1,.29-.47,5.82,5.82,0,0,0,1.53-2.28c.4-.89.66-1.93,1.76-2.29.68-1.44,1.35.3,2,0A2.47,2.47,0,0,1,144,46.29Z"/><path class="cls-45" d="M160.62,87.49a13.13,13.13,0,0,1-7.48-.77c-.95-.44-1-.9-.61-1.68a10.85,10.85,0,0,1,3.24-1.92c1,2.46,4.11,3.48,6,2A4.77,4.77,0,0,1,160.62,87.49Z"/><path class="cls-46" d="M130.31,49.51c1.1,1.9,3.25,2.47,4.81,3.79a1.72,1.72,0,0,0,1.54.11,10.32,10.32,0,0,0,6.42-3.73c.36-.49.7-1,1.4-1a5.2,5.2,0,0,1,0,2.82l-.84,1.63c-1.49.8-3,1.61-4.77,1.06a1.52,1.52,0,0,0-1.17.21c-1.85,1.06-3.48.52-5-.67a3,3,0,0,0-1.42-1.56,2.05,2.05,0,0,1-1.14-2.48Z"/><path class="cls-47" d="M147.68,117.37a10.64,10.64,0,0,1-1.24,3.21,2.46,2.46,0,0,1-2.21-.6c-1.75-1.81-4.08-1.68-6.23-2.16a3.77,3.77,0,0,1-.58-.14,16,16,0,0,1-3.4-1.38c-.52-1.16-.16-1.69,1.29-1.35,2.48.58,5,.51,7.5,1.13a26.05,26.05,0,0,0,4.73.76C147.79,117,147.84,117.14,147.68,117.37Z"/><path class="cls-48" d="M35.81,37.81a8.46,8.46,0,0,1,6.57-4c.52-.06,1.08-.16,1.49.34-.15.25-.22.55,0,.71,1.5.91,1.8,2.37,1.9,3.94-.15.63,0,1.29-.19,1.91a1.65,1.65,0,0,1-.62.61c-1.2.28-2.37,1.3-3.64.17,0-1,.86-.9,1.41-1.14,1.27-.54,1.31-1.51,1.14-2.66s-1.1-1.42-2.07-1.4c-1.46,0-3.07-.08-3.37,2-.58.92-.76,2-1.56,2.84C35.44,40.38,36.39,38.84,35.81,37.81Z"/><path class="cls-49" d="M49.11,36.22c.28,2.78-.08,5.34-2.43,7.24-1.08,1.07-1.59,1-2.59-.55a1.83,1.83,0,0,1,1.07-1.37c.84-.27,1-.92,1-1.71,0-1.13-.31-2.22-.3-3.33,0-.73-.3-1.94,1.23-1.52Z"/><path class="cls-50" d="M48.69,45.87a.92.92,0,0,1,.4-.83,7,7,0,0,0,1.28-.95c.33-.27.63-.9,1.13-.55s.47,1,0,1.56c0,1.46-1,2.43-1.63,3.62a4.07,4.07,0,0,1-1.21,1.2l-2.8,1.61a1.6,1.6,0,0,1-1.8.29c-.91-1.2.14-1.78.83-2.39A28.71,28.71,0,0,0,48.69,45.87Z"/><path class="cls-51" d="M127,47.12l.15-.41c1-.52,1.15.33,1.42.86a19.57,19.57,0,0,0,1.09,2.14,2.62,2.62,0,0,1,.2.53,6,6,0,0,0,3.62,4.57,4.85,4.85,0,0,1,.49.29c1.39.92,2.79,1.75,4.59,1.41.64-.12,1.38,0,1,1-1.06-.18-1.77,1-2.86.71-.57-.1-1.16.09-1.71-.18-4.2-1.54-6.6-4.75-8.13-8.78A7.73,7.73,0,0,1,127,47.12Z"/><path class="cls-52" d="M1.06,64.07c2.25-2.94,4.51-3.82,7.24-2.84.66,2.23.42,3.55-.9,4.28-.88.5-1.85.91-2.75,0-.43-.75.59-1.07.61-1.72-1.14,0-1.54,1.19-2.53,1.27A3.34,3.34,0,0,1,1.06,64.07Z"/><path class="cls-53" d="M131.85,64c0,.52,0,1,.05,1.57-.26.32-.09.83-.5,1.08a2.6,2.6,0,0,1-2.58-.57c-1-.81-1.87-1.84-2.88-2.67a.76.76,0,0,1,0-1.21L128.28,60C129.22,61.56,131.16,62.24,131.85,64Z"/><path class="cls-54" d="M85.47,13.15h2.42c.4-.33.7-.17,1,.2a1,1,0,0,1,0,.56c-.56.69-1.63.11-2.16.87h0c-3.78,1.49-7,.77-9.61-2.42a38.18,38.18,0,0,0-2.86-2.83l.31-.43c.86-.87,1.68-.82,2.33.19a8,8,0,0,0,5.2,3.46C83.12,13.46,84.43,12.18,85.47,13.15Z"/><path class="cls-55" d="M74.21,9.53c2.27.37,3,2.61,4.67,3.79s2.82,2.74,5.1,1.19c.58-.39,1.79.16,2.7.27-1.54,1.22-3.08,2.45-5.25,1.61-2.14-1.28-4.62-2.05-6.18-4.17-.36-.5-.49-.09-.68.12C73.88,11.47,74.34,10.46,74.21,9.53Z"/><path class="cls-56" d="M88.69,14c0-.13,0-.27,0-.4a7.06,7.06,0,0,0,2.89-6.21,3.21,3.21,0,0,1,2.35-3.07,2.52,2.52,0,0,1,1.14,1.63c-1,.19-.71,1-.71,1.61,0,3.65-2.79,5.12-5.27,6.86C88.93,14.27,88.72,14.21,88.69,14Z"/><path class="cls-57" d="M45.07,41.84l-.81,1.21A1.91,1.91,0,0,1,43,44.63a6.82,6.82,0,0,1-6.54-1.88A19.09,19.09,0,0,0,34.25,41a10.85,10.85,0,0,1,1.56-3.23c.88.1.73.77.78,1.36S36.37,40.51,37,41a15.65,15.65,0,0,0,1.57.39,7.56,7.56,0,0,0,6,.19A.82.82,0,0,1,45.07,41.84Z"/><path class="cls-58" d="M48.68,56.84c0,.94-.75,1.21-1.41,1.46a6.81,6.81,0,0,1-5.42.1.44.44,0,0,1-.15-.32c0-.13,0-.19,0-.19.13-.45.08-1,.52-1.3,1.79-.36,3.08-1.81,4.83-2.25Z"/><path class="cls-59" d="M149.3,108.9c-.15-1.54,1.32-2,1.9-3.14a10.27,10.27,0,0,1-2.23-.37,1.5,1.5,0,0,1-1.05-1.89c.4-1.14,1-.21,1.52,0s1.33.58,2.05,0,1.27-.1,1.87.18a34.48,34.48,0,0,1-2.41,5.67A1.34,1.34,0,0,1,149.3,108.9Z"/><path class="cls-50" d="M127.06,49.51c1.58,1.13,1.65,3.27,3.09,4.56s2.34,2.7,4.28,3a.79.79,0,0,1,.68.86c-.19.32-.52.25-.81.27a3.92,3.92,0,0,1-3.43-1c-1.67-1.45-3.3-2.93-3.75-5.25A3.18,3.18,0,0,1,127.06,49.51Z"/><path class="cls-60" d="M85.47,13.15c-1.22-.32-2.43,1.08-3.64,0-.17-.2-.23-.55-.46-.63-3.05-1.07-4.27-3.88-6-6.23,0-.84.56-1.25,1.17-1.64.56.14.81.65,1.2,1a13.65,13.65,0,0,1,1.3,2.05,7.44,7.44,0,0,0,4.07,3.09c.2,0,.55.14.53.21-.32,1.69,1.38.66,1.79,1.34Z"/><path class="cls-17" d="M149.69,112.52a4.11,4.11,0,0,1-.8,2,3.62,3.62,0,0,0-2.52-1,1.4,1.4,0,0,1-1.13-.3c-1.2-1.23-2.84-1.32-4.36-1.73a.79.79,0,0,1-.24-.5c.5-1.92,2.39-1.22,3.55-1.91A8.06,8.06,0,0,1,149.69,112.52Z"/><path class="cls-61" d="M4.42,73.82A3.33,3.33,0,0,1,1.86,72.1c-.51-1.91-.08-2.22,2.34-1.68a3.28,3.28,0,0,1,.57.21c3,1.25,4.91.49,7.19-2.83a2.09,2.09,0,0,1,.42-.42c1.35-.37,1,.42.77,1.12a2.61,2.61,0,0,1-.49,2,10.86,10.86,0,0,1-5.92,2.32A4.81,4.81,0,0,0,4.42,73.82Z"/><path class="cls-62" d="M93.94,4.28a9.17,9.17,0,0,0-2.43,6.2,3.27,3.27,0,0,1-2.81,3.08.84.84,0,0,0-.81-.41c-.39-1.21.76-1.47,1.3-1.44a1.49,1.49,0,0,0,1.71-1.53c-.15-2.63,1.4-5.33-.26-7.91-.19-.3.21-.38.46-.42A6,6,0,0,1,93.94,4.28Z"/><path class="cls-63" d="M132.74,53.55c1.68.61,3.34,1.84,5.12.15a1.13,1.13,0,0,1,1-.05,4,4,0,0,0,4.25-.9c.43-.36.52.06.57.4a4.29,4.29,0,0,1-2,2.83c-1.6.83-3.14-.7-4.73-.15a3.4,3.4,0,0,1-3.35-.66h0c-.48-.49-1.39-.64-1.28-1.6A.35.35,0,0,1,132.74,53.55Z"/><path class="cls-64" d="M149.69,112.52c-2-.91-3.38-2.81-5.64-3.21-.47.09-.55-.22-.58-.58.36-1.11,1.28-1.13,2.21-1.13a7,7,0,0,1,2.81.9.83.83,0,0,0,.81.4,2.77,2.77,0,0,1,1.65.43A12.2,12.2,0,0,1,149.69,112.52Z"/><path class="cls-65" d="M76.59,18.37a1.74,1.74,0,0,1,2.15-1.56,8.08,8.08,0,0,1,2.14.38c2.71,1,5.42,1.51,8.22.41-.27,1.84-1.92,1.84-3.06,1.85-2.82,0-5.69.52-8.49-.33a2,2,0,0,1-.57-.21Z"/><path class="cls-66" d="M34.25,41c.49,0,1-.44,1.44.2a7.33,7.33,0,0,0,7.36,3c.13,1.12-.62,1.53-1.5,1.82-2.11,1-3.63-.51-5.2-1.41-.74-.43-1.16-.73-1.78,0C33.82,43.51,34.31,42.25,34.25,41Z"/><path class="cls-67" d="M34.57,44.66c0-.54-.06-1.16.56-1.4s.79.52,1.18.78c1.54,1,3.06,2.22,5.12,1.84q.18.13.12.27c0,.09-.07.14-.11.14a3.49,3.49,0,0,1-4.35.84c-.89-.41-1.24-.09-1.32.78A3.47,3.47,0,0,1,34.57,44.66Z"/><path class="cls-68" d="M40.62,63.65c.15,1.38,1.21,1.4,2.1,1.16a22,22,0,0,1,5.18-.35c.9,0,.9,0,.8,1.62-2.21-.13-4.36.65-6.59.42A4.43,4.43,0,0,1,40,66.14,3.15,3.15,0,0,1,40.62,63.65Z"/><path class="cls-35" d="M4.66,65.27a2.26,2.26,0,0,0,2.89-.41A2.15,2.15,0,0,0,8,62c-.29-.48-.26-.7.31-.76a.89.89,0,0,1,.83.39c1,2.12,0,3.93-1,5.73a2.4,2.4,0,0,1-.69.62c-1.7.71-3.36,1.07-4.81-.53a1,1,0,0,1-.12-.57C3.23,66.3,3.49,65.18,4.66,65.27Z"/><path class="cls-69" d="M172.73,74.56a2.84,2.84,0,0,1-1.6,1.64,3.49,3.49,0,0,1-2.56-.47c-2.93-1.35-4.37-3.9-5.41-6.77-.24-.63-.51-1.27.25-1.76.74,0,1.05.54,1.34,1,.95,1.59,2.27,2.93,3.1,4.61.59,1.18,1.74,1,2.78,1.12C171.37,74,172.27,73.51,172.73,74.56Z"/><path class="cls-70" d="M11.08,72.9l3.3,2.84A4,4,0,0,1,10,77.38L8.81,74.5C9,73.21,9.92,72.86,11.08,72.9Z"/><path class="cls-40" d="M172.73,74.56c-.07,0-.13-.08-.19-.07-4.09.93-5.65-2-7.34-4.77-.52-.85-1.17-1.62-1.77-2.42a.58.58,0,0,1,0-.53c.9-.84,1.27,0,1.66.57s.73,1.55,1.47,2.07a8,8,0,0,1,1.28,1.11c1,1.43,2.23,2.41,4.18,2.09.68-.11,1.57,0,1.16,1.15A.86.86,0,0,1,172.73,74.56Z"/><path class="cls-71" d="M11.08,72.9c-.79.49-1.73.76-2.27,1.6l-.53-.26a7,7,0,0,1-2.78,0l-1.08-.42c.23-1,.4-1.57,1.87-1.41A8.52,8.52,0,0,0,11.18,71a2.44,2.44,0,0,1,1.48-.47C12.14,71.33,11.61,72.12,11.08,72.9Z"/><path class="cls-72" d="M153.75,102.86c-1-.85-2.77-.6-3.39-2.3-.13-.33-1.75-.11-2.68-.14,0-.5.3-1.19.7-1.06,2.16.66,4.53-.87,6.58.66A4.85,4.85,0,0,1,153.75,102.86Z"/><path class="cls-73" d="M130.87,57.2l3.38.8.07.25c-1.3.38-.87,1.83-1.6,2.57-.49.64-1,1.43-1.93.83s-2.25-.87-1.7-2.45Z"/><path class="cls-74" d="M137.58,117.38a11.78,11.78,0,0,1,5.61,1c1.05.42,2,1.64,3.25,2.17a.94.94,0,0,1-.39.84c-2.24-1.34-5.08-.88-7.26-2.42C138.42,118.44,137.43,118.34,137.58,117.38Z"/><path class="cls-75" d="M7.5,67.69l.4-.4a4.55,4.55,0,0,0,1.52-4.41c-.08-.43-.31-1,.52-.86a3,3,0,0,1,2,1.62c-.36,3.25-2.75,5-5.09,6.7a2.64,2.64,0,0,1-.6.15c-1.27-.45-3.1.44-3.7-1.57a1.68,1.68,0,0,1,1.85-.38A3.35,3.35,0,0,0,7.5,67.69Z"/><path class="cls-72" d="M155.76,98.4c-2.87-.1-5.75.23-8.62-.13-.55-.08-.95-.2-1-.74a.92.92,0,0,1,1.18-1c1.81.73,3.82-.54,5.65.89.85.66,2.48.39,3.52-.63A2.15,2.15,0,0,1,155.76,98.4Z"/><path class="cls-76" d="M165.88,77.46l-.8-.16a1.94,1.94,0,0,1-1.87-.75c-1-1.37-2.57-2.45-2.47-4.44.14-.76.22-2,1.27-.77,1.57,1.91,2.93,3.94,5.3,5,.44.2.54.74.11,1.19A3,3,0,0,1,165.88,77.46Z"/><path class="cls-77" d="M77.36,18.9c.35-.61.78-.32,1.19-.1a2.58,2.58,0,0,0,2.12.32,7,7,0,0,1,3.52,0A5.41,5.41,0,0,0,89.1,17.6h.4a.64.64,0,0,1,.85-.05c-.81,2.09-2.65,2.62-4.57,2.85s-4-.17-5.92.63a1,1,0,0,1-.86-.2L78.1,20C77.84,19.66,77.22,19.53,77.36,18.9Z"/><path class="cls-78" d="M125.89,62.23c1.53,1.87,2.78,4.11,5.62,4.25a3,3,0,0,1,0,2.43c-.31-.06-.9-.14-.9-.17.13-1.52-1.07-1.25-1.91-1.45-1.5-1.2-3.17-2.25-4-4.08C125,62.77,125.23,62.25,125.89,62.23Z"/><path class="cls-79" d="M163.44,66.89c0,.13,0,.27,0,.41.48,2.62,1.17,5.13,3.51,6.79.59.42,1.17.86,1.75,1.28a1.93,1.93,0,0,1-2.56-.3,17.22,17.22,0,0,1-4.88-6.87c.19-1.08,1.07-1.63,1.76-2.33C163.7,66,163.8,66.34,163.44,66.89Z"/><path class="cls-72" d="M48.7,66.08c-1.08-.13.52-1.61-.8-1.62a9.36,9.36,0,0,1,3.54-1.58c.47-.17.86-.27.9-.83.95.57,1.37,1.6,2.06,2.4C52.43,64.75,50.81,66.25,48.7,66.08Z"/><path class="cls-1" d="M140.82,111.33c1.7-.12,3.35,0,4.52,1.48.37.47.86.12,1.28.19,1,.15,2.3-.1,2.27,1.54a.92.92,0,0,1-.41.82c-.85.73-1.72.41-2.58.06a4.27,4.27,0,0,1-.51-.3c-1.4-.87-2.6-2-4-2.87C141,112.05,140.66,111.83,140.82,111.33Z"/><path class="cls-20" d="M73,61.65l2.69,1-5.93,4.22c-.13-.68-.27-1.36-.41-2Z"/><path class="cls-80" d="M83.86,22.55l4-.11c0,.27,0,.54,0,.81l0,2.42A3,3,0,0,1,84,25.62C83.1,24.82,83.24,23.61,83.86,22.55Z"/><path class="cls-81" d="M45.07,41.84h-.41c-.24-.46.18-.59.41-.81l.4-.4c.48-.54.15-1.08,0-1.62-.3-1.55-.53-3-2.11-4-1.12-.71-.07-.78.51-.83a4.48,4.48,0,0,1,3.21.82c-1.36.44-.83,1.49-.62,2.28a11.34,11.34,0,0,1,.18,3.53C46.61,41.76,46.07,42.21,45.07,41.84Z"/><path class="cls-82" d="M134.37,126.67a6,6,0,0,1,3.67.14,45.13,45.13,0,0,1,5.13,1.87c0,1.15-.83,1.49-1.6,1.12C139.2,128.69,136.57,128.15,134.37,126.67Z"/><path class="cls-83" d="M75.41,6.3A38.8,38.8,0,0,1,78.6,9.78c.73,1,1.29,2,2.7,2.23.61.08.5.69.53,1.15a7.18,7.18,0,0,1-5.41-3.68c-.55-1-1.25-.35-1.9-.38,0-.13,0-.26.07-.39.48-.59.27-1.44.78-2A1.72,1.72,0,0,1,75.41,6.3Z"/><path class="cls-84" d="M77.39,5.88l-.81-1.22c1.3-1.63,2.64-3.22,4.88-3.58,1.35.67,2.88.26,4.28.74.64.21,1.32.24,1.71.88-1.87.63-3.93-.15-5.78.74A4.76,4.76,0,0,0,77.39,5.88Z"/><path class="cls-85" d="M161.25,68.2c1.12,1.56,2.3,3.08,3.35,4.68a4.84,4.84,0,0,0,4.09,2.49c.69.63,1.79.06,2.44.83a.66.66,0,0,0,0,.28,1.57,1.57,0,0,1-1.55.65,11,11,0,0,1-7.47-5.69,11.27,11.27,0,0,0-1.24-1.52c0-.48-.16-1,.2-1.42A1,1,0,0,1,161.25,68.2Z"/><path class="cls-38" d="M7.5,67.69c-.63,1.19-1.36,2-2.92,1.31a4.92,4.92,0,0,0-1.93-.09.64.64,0,0,1-.65.23L1.54,69c-.52,0-.56.55-.92.72l-.43-.85a5.36,5.36,0,0,1,0-2.81H.25c1.55-1,1.73-.91,2.38.81C4,68.61,5.78,68,7.5,67.69Z"/><path class="cls-86" d="M43.86,51.52h2c.26.67.51,1.35.77,2a3.72,3.72,0,0,1-4.39,1,.8.8,0,0,1-.12-1l0-1.61C42.51,50.91,43.16,51.1,43.86,51.52Z"/><path class="cls-87" d="M20.15,104c2.22.79,4.24-.74,6.79-.7a13.26,13.26,0,0,1-4.14,2.55,1.4,1.4,0,0,0-1.14,1.77A8.12,8.12,0,0,1,20.15,104Z"/><path class="cls-88" d="M43.86,51.52c-.56.13-1.22-.15-1.66.44l-.75-.52a2.19,2.19,0,0,1,1.7-2.16c2.31-.5,3.65-2.36,5.54-3.41-.51,1.8-2.11,2.69-3.35,3.83A5.61,5.61,0,0,0,43.86,51.52Z"/><path class="cls-89" d="M82,38.65c.62,2,2.56,1.36,3.68,1.36,1.3,0,2.58.3,3.87.21,0,1.6-1.51,1.1-2.06,1a9.19,9.19,0,0,0-3.51.16c-1,.2-2,.23-2.35-1.09C81.7,39.75,81.83,39.2,82,38.65Z"/><path class="cls-90" d="M133.54,55.17a4.2,4.2,0,0,0,3.21.19c1.72-.61,3.23.56,4.87.62-.39.88-1.42.94-2,1.54-.08-.59-.42-.8-1-.62C136.48,57.63,135,56.49,133.54,55.17Z"/><path class="cls-91" d="M74.57,12.34V10.55c1.82,3,4.7,4,6.86,5.84a11.7,11.7,0,0,1-4.25-1.71c-1.65-1.28-1.83-.48-1.86,1-.72.05-.44-.67-.73-1C74.43,13.92,73.87,13.13,74.57,12.34Z"/><path class="cls-92" d="M161,70.11c.3,0,.6-.31.85.14,1.64,3,3.5,5.67,7.24,6.21.18,0,.32.4.48.61s.08.25-.11.3h-.19l-.16.08a1.94,1.94,0,0,1-1.6,0,.94.94,0,0,0-.63-.94c-2.42-.75-3.73-2.7-5-4.68-.9-1.46-.79.13-1.15.3,0-.5-.07-1-.1-1.5C160.73,70.43,160.77,70.22,161,70.11Z"/><path class="cls-93" d="M42.29,54.35a9.45,9.45,0,0,0,4.39-.79c.33.15.38.47.42.78-1.43,1.16-2.75,2.53-4.81,2.41-.41-.33-.18-.79-.25-1.19S41.89,54.69,42.29,54.35Z"/><path class="cls-94" d="M167.47,70.53l-1.2-.81c-.26-.44-.68-.79-.64-1.36a.79.79,0,0,1,.3-.42.61.61,0,0,1,.71.14c.17.11.34.21.49.33,1,.72.79,2.85,2.91,2.3,1.25-.33,2.69.34,3.89-.59a3.22,3.22,0,0,1,0,2.42l-.4.41c-.43-.51-.45-1.3-1.68-.91A3.7,3.7,0,0,1,167.47,70.53Z"/><path class="cls-95" d="M129.09,59.2c.92,2,1.95,2.49,3.63,1.62L131.85,64c-1-1.48-3.45-1.75-3.57-4Z"/><path class="cls-44" d="M167.47,70.53c1.83,1.16,3.74,1.68,5.8.63.45.59.19,1.22.27,1.79a.87.87,0,0,1-.4.81c-.1-.84-.66-.83-1.3-.73C169.65,73.34,168.42,72.62,167.47,70.53Z"/><path class="cls-96" d="M12.75,64.87a1.18,1.18,0,0,1,.34,1.23,5,5,0,0,1-.74,1.6h0c-.78.8-1.71,1.43-2.48,2.25a4.12,4.12,0,0,1-5.2,1h0a.4.4,0,0,1,0-.53c.61-.43,1.38.24,2-.27h0c1,0,1.48-.71,2.08-1.34C10.07,67.45,11,65.71,12.75,64.87Z"/><path class="cls-97" d="M52.34,120.62a9.85,9.85,0,0,1,5-.79c1.3.07,2.6.27,3.91.42.06.18,0,.29-.2.33l-.69.07c-1.06.12-2,.92-3.18.39Z"/><path class="cls-98" d="M163.21,76.55a2.66,2.66,0,0,1,1.87.75l0,.47c-.4.69-.39,1.61-1.21,2-1.1,0-2.1-.21-2.05-1.66Z"/><path class="cls-99" d="M12.75,64.87c-1.49,1.68-3,3.36-4.46,5.07a1.1,1.1,0,0,1-1.6.19A17.3,17.3,0,0,0,12,63.64,1.39,1.39,0,0,1,12.75,64.87Z"/><path class="cls-46" d="M130.31,47.49v2h0a.7.7,0,0,1-.81-.16,1.26,1.26,0,0,1-.27-.51,41,41,0,0,0-.5-4.93c.2-.83,1-.87,1.57-1.28C131.13,44.26,129.82,45.88,130.31,47.49Z"/><path class="cls-88" d="M51.55,45.1c0-.43-.06-.85-.09-1.32-.91.35-1,2-2.37,1.26.09-1.59,1.91-2.16,2.18-3.65l.61.46a3.74,3.74,0,0,1-.08,3.2A.7.7,0,0,0,51.55,45.1Z"/><path class="cls-100" d="M9.94,62c-.74.61,0,1.23,0,1.85-.07,1.55-.2,3-2,3.42a12.8,12.8,0,0,0,1.23-5.67A.88.88,0,0,1,9.94,62Z"/><path class="cls-101" d="M10,77.38c1.67,0,2.94-1,4.36-1.64a1,1,0,0,1,.37.17,5.86,5.86,0,0,1-4.26,2.67C10.35,78.18,9.86,77.9,10,77.38Z"/><path class="cls-102" d="M164.27,64.88c1.57-.26,2.27.35,2,2a1.35,1.35,0,0,1-.33,1.21l-.08,0c-1.17-.43-1.28-1.92-2.39-2.42A1.3,1.3,0,0,1,164.27,64.88Z"/><path class="cls-103" d="M129.5,49.92c-1.47-.57-.74-2.74-2.34-3.21a3,3,0,0,1,.89-2c.95,0,.95.66,1,1.32a11.59,11.59,0,0,0,.4,3h0A.55.55,0,0,1,129.5,49.92Z"/><path class="cls-104" d="M129.5,49.11a2.26,2.26,0,0,1-.69-2.09,2.18,2.18,0,0,0-.76-2.27c0-.47.3-.68.68-.83C130,45.5,129.68,47.32,129.5,49.11Z"/><path class="cls-105" d="M4.67,70.52v.41a5.31,5.31,0,0,1-1.15-.19c-1.4-.55-1.78.09-1.66,1.36-.74-.28-.76-.94-.83-1.57s-.85-1.77.81-1.62h0C2.52,69.91,3.92,69.65,4.67,70.52Z"/><path class="cls-35" d="M2.63,66.9a1.6,1.6,0,0,0-2.38-.81c0-.79.53-1.35.81-2a1.38,1.38,0,0,1,1.59.81,1.41,1.41,0,0,1,0,2Z"/><path class="cls-106" d="M51.46,39.84c-1.63.23-1,2.37-2.35,2.81a5.46,5.46,0,0,1,1.62-4Z"/><path class="cls-107" d="M92.35,49.11H91.16a.94.94,0,0,1-1-1c0-.5.2-.86.85-.76.42.05.49-.35.53-.68A4.29,4.29,0,0,1,92.35,49.11Z"/><path class="cls-108" d="M163.45,65.68c1.53.08,1.53,1.68,2.39,2.42.14.54.28,1.08.43,1.62A3.08,3.08,0,0,1,165,68.13c-.26-.55-.34-1.69-1.52-1.24-.14-.34-.28-.68-.43-1Z"/><path class="cls-13" d="M132.73,79.82,134,79l1.23,2-.06,0a2.35,2.35,0,0,1-2,0C133,80.62,132.87,80.22,132.73,79.82Z"/><path class="cls-109" d="M145.66,115a7.31,7.31,0,0,0,2.82.4,3.86,3.86,0,0,1-.8,2c0-.13,0-.26,0-.39C146.67,116.63,145.69,116.26,145.66,115Z"/><path class="cls-84" d="M88.3.63H82.65c.29-.47.78-.37,1.21-.43a7.91,7.91,0,0,1,3.62,0A.93.93,0,0,1,88.3.63Z"/><path class="cls-110" d="M12.35,67.7a1.44,1.44,0,0,1,.74-1.6c.39.79.76,1.58.06,2.4C13.08,68,13.33,67.24,12.35,67.7Z"/><path class="cls-44" d="M140.82,42.24c-1.27.51-1.76-.52-2.43-1.21A3.37,3.37,0,0,1,140.82,42.24Z"/><path class="cls-99" d="M1.84,68.91c-1.1.13-.71,1-.81,1.62l-.41-.8c.12-.53-.28-1.28.51-1.53C1.63,68.05,1.78,68.49,1.84,68.91Z"/><path class="cls-60" d="M75.37,6.69c0,.77.13,1.59-.78,2C74.57,7.93,74.45,7.11,75.37,6.69Z"/><path class="cls-107" d="M91.53,46.69c-.4-.65-1.08-.46-1.73-.51a1.52,1.52,0,0,1,1.32-.7C91.58,45.77,91.5,46.25,91.53,46.69Z"/><path class="cls-90" d="M134.32,58.25c0-.08,0-.16-.07-.25l.87-.07c.53.13,1.13-.11,1.61.3Z"/><path class="cls-21" d="M41.87,58l0-1.61,0-.74a.21.21,0,0,1,.32-.14c0,.42.07.84.11,1.25S42.33,57.69,41.87,58Z"/><path class="cls-111" d="M33.76,104.46c-.44-.08-.93.18-1.37-.28.8-1,2-1.17,3-1.54.81-.28,1.53-.81,1.42-1.68s-1-.3-1.49-.57c-1.37-.82-2.77.45-4.33-.19,1-.9,2.51-.89,3.32-2.34-1.78.8-3.34,1.47-4.87,2.19-.42.19-.92.62-1.17,0s.38-.77.86-.83a3.24,3.24,0,0,0,2.59-1.69,1.12,1.12,0,0,1,1.11-.61c1.78-.05,1.83-.16,2.12-2.05-1.38-.22-2.08,1.38-3.42,1.35-.2-1.11.76-.92,1.23-1.24a.9.9,0,0,0,.48-.82c0-.57-.57-.17-.74-.33-.47-.43-1.54.34-1.58-.71s.94-1.35,1.79-1.55a6.49,6.49,0,0,1,1.4,0c2.24-.28,4.45,1.32,4.57,3.3.05.27-.74.44-.29.5,1.79.27,1.29,1,.39,1.7s-.95,1.75-2,2.26c.66.11,1.3-.06,1.85.27.36.46.12,1,.25,1.54,2.21-.09,4.37.33,6.53-.08a1.51,1.51,0,0,1,.56.06c.49.24,1.15.53,1.16,1,0,2.15,1.83,3.32,2.63,5.18,2.2-2,4.68-1.75,7.21-1.09.39.11,1,.33,1,.6-.38,1.33,1,.8,1.33,1.38a1.67,1.67,0,0,1-2.08,1.15c-3-.41-5.83.72-8.74,1a1.07,1.07,0,0,1-.79-.33,4.43,4.43,0,0,1-.62-1.83,1.82,1.82,0,0,0-2.46-1.52.75.75,0,0,1-.49-.23,2.18,2.18,0,0,0-.84-1c-2.09-1.23-4.15-2.38-6.64-1.13A3.49,3.49,0,0,1,33.76,104.46Z"/><path class="cls-112" d="M38.6,94.76A4.61,4.61,0,0,0,34.38,92c-.06,0-.15-.32-.22-.49.29-.47.77-.39,1.21-.4.52-.32,1.22-.25,1.62-.81l.81-.41c1.46-1.29,3.48-.78,5-1.6-.89.12-2.33,1.13-2.8-.2-.33-.92,1.3-1.29,2.18-1.66,2-.81,3.5-2.5,5.78-2.63.52,0,.77-.48.69-1a1.09,1.09,0,0,1,1.64-.44,1.33,1.33,0,0,1,.63,1.81c-1,.82-2.35,1-3.24,1.94a12.73,12.73,0,0,1-2.35.79c.84-.08,1.62-.84,2.47,0a1.06,1.06,0,0,1-.23,1.58,21.49,21.49,0,0,0-4.64,2.15,8.38,8.38,0,0,1-2,.89c-.58.21-.27.42-.12.68,1.17,2-.56,2.13-1.64,2.72A.7.7,0,0,1,38.6,94.76Z"/><path class="cls-8" d="M48.7,83c.26,0,.59,0,.78.11.35.25,0,.48-.18.58a5.49,5.49,0,0,1-1.81.84c-2.89.33-4.71,2.72-7.79,3.38,1.61.75,2.66-.47,3.89.13-1.69,1.55-3.85,1.35-5.79,1.83-1.16-2.36-1.39-2.35-4.1-1-1.63.84-3.23,1.9-5.2,1.77,2.35-1.78,5.22-2.43,7.85-3.57.55-.24,1.17-.23,1.45-.87,1.67-1.16,3.73-1.13,5.57-1.79.41-.14.72-.24.89-.63C45.6,82.8,47,82,48.7,83Z"/><path class="cls-113" d="M33.76,104.46c2.1-.48,4.21-1,6.32-1.42a1.87,1.87,0,0,1,1.72.78c.56.92.84,1.27,2.16,1s.11,1.08.3,1.65c-.54.84-1.37.74-2.17.62a13.3,13.3,0,0,0-4.79.17,1.93,1.93,0,0,1-1.38,0c-2.09-1.25-4.36-.93-6.61-.8h0c-.2-.27-.62-.11-.81-.41C30.1,105,32,105.11,33.76,104.46Z"/><path class="cls-114" d="M28.5,106.07a.83.83,0,0,1,.81.41l-6.85,2.43a1.59,1.59,0,0,1,1.68-1.6A14,14,0,0,0,28.5,106.07Z"/><path class="cls-111" d="M37,90.32c-.14,1.08-1,.73-1.62.81A2.19,2.19,0,0,1,37,90.32Z"/><path class="cls-115" d="M145.26,101.23a25.41,25.41,0,0,1-8-1.47c-.24-.1-.62.16-.93.26-2.77-.17-5.53-.41-8.31-.47-1.14,0-2.22,0-2.38,1.47-.13,1.28-1,1.42-2,1.43-3.36,0-6.71.17-10.3.12,1.14.39,2.46.49,1.4,2-1.74.5-3.5,1.36-5.12-.28a2.54,2.54,0,0,1,.07-2.25c1.37-1.28,3.17-.94,4.62-.71,3.06.47,5.46-1,8.13-1.83,1.64-.48,2.72-2.18,4.62-1.91.39-.28.81-.54,1.21-.81a7.16,7.16,0,0,0,2.42.41,12.14,12.14,0,0,1,2.43.8,17.28,17.28,0,0,1,7.34,1.1c1.51.55,2.89,1.4,4.58,1.37C145.59,100.45,145.31,100.93,145.26,101.23Z"/><path class="cls-116" d="M130.31,95.17c1.92-1.65,4.68-.5,6.95-2-1-.54-1.88.37-2.62-.29.25-.72,1.46-.78,1.33-1.78a15.43,15.43,0,0,0,4.51.5c1.54-.15,2.71,1,3.89,1.84.67.45-.18.76-.69.88a34.58,34.58,0,0,1-9.57.82C132.84,95.13,131.58,95.17,130.31,95.17Z"/><path class="cls-116" d="M136,91.13c-.5-.06-1.29.09-1.09-.71.16-.63.73-1.13,1.49-.5C136.24,90.32,136.1,90.72,136,91.13Z"/><path class="cls-22" d="M128.29,96.78c.07,1-.26,1.37-1.21.81-.14-.27-.27-.54-.41-.8C127.21,96.58,127.75,96.05,128.29,96.78Z"/><path class="cls-117" d="M133.14,98a3.82,3.82,0,0,1-2.43-.8A2.07,2.07,0,0,1,133.14,98Z"/><path class="cls-118" d="M122.23,87.09c-1.17.55,1,1.57-.3,2.11,1.6.91.18,2.42.7,3.54a2.3,2.3,0,0,1-2.44,1.33c-3-.06-4.44,1.16-5.16,4.09a1.87,1.87,0,0,1-2.46,1.47c-2.81-.74-5.71-.26-8.52-.83-.88-.67-1.73-1.39-3-1-.58.19-.59-.36-.68-.72a.79.79,0,0,1-.13-.78,12.7,12.7,0,0,0,1.51-2.5,17.43,17.43,0,0,1,.86-2,1.46,1.46,0,0,1,1.13-.85c4.26.71,8.54-.51,12.81.13,1.72.26,2.4-1.17,3.09-2.41.35-.63-.13-.86-.59-1a6.37,6.37,0,0,0-2.28-.72c-4.48.33-8.37-2.26-12.72-2.49A4.76,4.76,0,0,1,102.74,82c-.1-.64-.39-1.29.16-1.87,2.81-.7,5.7-.4,8.55-.64a3.27,3.27,0,0,1,.84.41,2.35,2.35,0,0,0,1.63.65,4.37,4.37,0,0,1,1.2.12c.83.24,1.94.51,1.73,1.54-.16.81-1.24.85-2.07.78s-1.52-.62-2.26,0a.41.41,0,0,0,.21.54c2.61.65,4.93,2.37,7.79,2.16C121.58,85.52,122.44,85.69,122.23,87.09Z"/><path class="cls-119" d="M112.13,80.22l-.4-.4c-.9-2.08-2.66-2.61-4.71-2.69-1.31,0-2.68.25-3.88-.57-.31-1.35-1.19-.56-1.88-.49a2.92,2.92,0,0,1-.83.12,2.34,2.34,0,0,1-.82-.16c-.76-.61-1.52-.28-2.29,0a1.31,1.31,0,0,1-1.22-.79c.05-1.86.78-2.58,2.7-2.7a3.06,3.06,0,0,0,3.33,2.4,27.59,27.59,0,0,0,3,.13c1-.11,2.06-.14,2.61-1.3s1.61-1.23,2.66-1.58c-.81-.36-1.73-.27-2.38-1.13,1.33-.5,3.65.77,3.65-2.14A8.7,8.7,0,0,1,114,72.4c.49,1,.48,1.36-.74,1.11-1.85-.36-2.07.65-2.2,2.23-.16,2,1.14,1.52,2.19,1.66,1.6.21,3.43-.73,4.63,1.4.36.65,2,.39,2.88.13a5.42,5.42,0,0,1,3.07.36c2.32.58,4.7.92,7.06,1.32.4.07.81,0,1.08.42-.8,0-1.6,0-2.4,0-1.52-.06-2.55.16-.93,2.14-1.58-.85-2.85-.14-4.14-.11l-.4,0c-1,0,.3,1.64-1,1.46-.78-.12-.19-1.56-1.29-1.49-.13,0-.26,0-.4,0l-.16-.24c-.05-.92.53-1.13,1.29-1.13.47,0,.93,0,1.4,0a9.53,9.53,0,0,1,1.4-.16c-3.86-.48-7.67-1.59-11.62-.74C113.07,80.93,112.62,80.52,112.13,80.22Z"/><path class="cls-120" d="M104.05,98.8c2.7.17,5.43-.5,8.12.36a2.5,2.5,0,0,0,2-.19c1.06-.58-.14-1.12,0-1.48.23-.69,1.3-.82,1.47-1.72.5-2.57,2.88-2.2,4.43-2.23a5.07,5.07,0,0,0,2.63-.8c.07.46.09.93.2,1.38.06.24.44.59.39.64-.71.76-2.41.48-2.25,2.16-1,0-2,1.47-3,0-.88.66.39,1.64,0,1.56-1.7-.33-1.8,1.72-3.39,1.84-2.16.17-4-.88-6.07-.82A8.92,8.92,0,0,1,104.05,98.8Z"/><path class="cls-121" d="M97.56,100c-.64.35-.81,1.07-1.23,1.59a2.38,2.38,0,0,1-2.07,1.89,9,9,0,0,0-4.19,1.08c-2.43,1.09-4.87,2.17-7.66,1.45a1.72,1.72,0,0,0-1.64.51c-1.27.25-1.73-.83-2.45-1.5a.94.94,0,0,1-.17-.9c1.33-1.32,3.13-1.07,4.74-1.31,3.56-.51,7.2-.52,10.36-2.66,1-.68,2.33-.55,3.51-.77C97.15,99.27,97.58,99.4,97.56,100Z"/><path class="cls-122" d="M126.67,94c.21.44.31.82-.4.81-.65-1.65-1.93-3-2.39-4.78.53-.68,1.19,1,1.73-.35.09-.55-1.57-.18-1.09-1.47A2.21,2.21,0,0,1,128,87.05c.55.36,1,.87,1.75.68.32-.07,1,.24.8.67-.71,1.59.88,1.64,1.61,2.42-.63.57-1.6.53-1.82,1.77-.18,1-1.7.51-2.66.42S126.71,92.9,126.67,94Z"/><path class="cls-123" d="M112.13,80.22l1.62.4a4.8,4.8,0,0,1,5.2.8,25.66,25.66,0,0,1,2.47,1.63h0a1.94,1.94,0,0,0,.92,1.86c1.08.78.9,1.5-.11,2.18-.35-.78-.68-1.45-1.79-1a2.78,2.78,0,0,1-2.88-.39c-1.47-1.24-3.53-.62-5-1.76-.44-.34-1.3-.31-1-1.18s1-.67,1.68-.69c1.13,0,2.27,1.08,3.39-.08A2.63,2.63,0,0,0,114,81C113.27,81.07,112.51,81.07,112.13,80.22Z"/><path class="cls-124" d="M97.56,100c-1.5,0-3.17-.15-4.39.75-2.94,2.17-6.41,2-9.73,2.53-1.77.28-3.61.22-5.24,1.14-1.28.14-1.71-.6-1.79-1.72.45-.8,1.22-.71,2-.68a36.2,36.2,0,0,0,11.93-1.51,13.89,13.89,0,0,0,6.43-3.59,5.06,5.06,0,0,1,2-1.27c.83-.3,1.61-.34,1.71.87,0,.2-.07.4-.11.61C99.18,97.81,98.87,99.38,97.56,100Z"/><path class="cls-22" d="M94.3,103.16c.9-.24,1.26-1.18,2-1.6,1.15,1,2.54,0,3.79.46,1.56.52,3.25.23,4.85.74s3.2-.16,4.74-.72c.06.67.56,1.34,0,2-.27,1.25-1.39.46-2,.83-3.87-.07-7.73-.13-11.6,0a1.7,1.7,0,0,1-1.94-1.08A1,1,0,0,1,94.3,103.16Z"/><path class="cls-119" d="M133.14,81h2a2.3,2.3,0,0,1-2.8,0Z"/><path class="cls-125" d="M48.7,83c-1.59-.36-2.93.7-4.44.82-1.77.07-3.1-1.57-5-1.14.9-.59,1.63-1.31,3.07-.86-1-1.48-.65-2.1.8-2.46A12,12,0,0,0,47.9,77L54,75c.3.51-.53,1.06,0,1.57.39.73-.06,1.27-.42,1.83,0,.14.1.12.27.08,1.19-.26,2.79-.54,3.2.67.34,1-1.35,1.37-2.19,1.94a21.88,21.88,0,0,1-2.41.94c-.05.48.37.51.62.67s.7.44.59.93-.51.59-.91.66a5.38,5.38,0,0,1-1.79.13l-.25-.13C50.58,83,50.4,81.74,48.7,83Z"/><path class="cls-119" d="M53.55,76.58c-.6-.36-.6-.36.41-1.61,1.82-.85,3.66-1.66,5.44-2.57.43-.22,1.6-.71,0-1.17-.83-.23-.2-.79.2-.84,1.1-.14,1.83-1.06,3.23-1.28-1.27,1.14-.75,2,0,2.87a.8.8,0,0,0,.64-.77c0-.51-.25-1.16.49-1.32s.57.66.92.89a2,2,0,0,0,2.46.15c1.92.3,3.27-.82,4.61-1.9A2.67,2.67,0,0,1,75,68.5a1.55,1.55,0,0,1,2.65.5c.21.65.1,1.35-.57,1.5-3.41.77-6.57,2.36-10,3-1.18.24-2.56-.49-3.85,0-.79-.12-1.59-.33-2.24.38C59,76.14,56.15,76,53.55,76.58Z"/><path class="cls-126" d="M77.39,68.91A2.71,2.71,0,0,0,75,68.5c2.1-1.69,4.7-2.31,7.15-3.17a59,59,0,0,1,10.77-2.64c1-.15,2.07-.19,2.36.43a2.52,2.52,0,0,1-.19,2.73c-.71.89-1.4,2.12.52,2.65v.41a1.16,1.16,0,0,1-.5.3,1.81,1.81,0,0,1-.86-.1,5.05,5.05,0,0,0-1.09-.47c-1.44-.28-1.89-.92-.72-2.11.32-.33.73-.68.42-1.19s-.9-.37-1.43-.3c-1.58.21-3.08.78-4.67.95-2.91-.2-5.37,1.41-8.08,2-.41.09-.53.57-.76.89A.37.37,0,0,1,77.39,68.91Z"/><path class="cls-127" d="M95.16,68.91h.41c2.36,2.52,5.46,1.1,8.86,1.44L98.8,72.54c-.94.83-2.63,1-2.42,2.83a1.69,1.69,0,0,1-1.75.35c-1.38-.72-1.64-1.56-.2-2.49.68-.44,1.06-.9.26-1.54-.58-.46-.5-1-.39-1.66A1.59,1.59,0,0,1,95.16,68.91Z"/><path class="cls-13" d="M112.18,75.44c.69-.68,1.21-.44,2-.23A1.37,1.37,0,0,1,112.18,75.44Z"/><path class="cls-128" d="M53.15,117c-6.11-.65-11.27,1.94-16.36,4.65.1.88,1.09.33,1.19,1.11-.93.52-1.78,1.3-3,1.11.19-2.84,1-3.54,4-4.35,1.09-.3,2.13-1,3.29-1.31,1.66-1.65,4-1.64,6-2.6.72-.35,1.6-.27,2.28-.76A6.6,6.6,0,0,1,54,114c2.36,0,4.64-.69,7-1s4.63-.61,7-.77c1.61-.11,3.19-.77,4.84-.24a2,2,0,0,1,.86.3c.28,1.35-.83,1.2-1.53,1.28a2.72,2.72,0,0,0-2.63,2,1,1,0,0,1-1.21.41c-.7-.34-.57-2.17-2-1.14a6.18,6.18,0,0,0-3.09.63c-1.82.9-3.8,0-5.7.37-1.3.22-2.67.14-3.71,1.15A.48.48,0,0,1,53.15,117Z"/><path class="cls-129" d="M50.72,115.37l-8.48,2.82a1.9,1.9,0,0,0-2.39-.11c-.7.44-1.28.1-1.91.06a.7.7,0,0,1-.63-.68c0-.61.46-.19.69-.31.71-.35.8-.82.2-1.38.06-1.24,1-1.39,1.93-1.52a8.19,8.19,0,0,0,3-.91c2.78-.89,5.53-2.08,8.46-.55.53,1,.17,1.62-.82,1.75a43.51,43.51,0,0,0-8.4,1.84,10,10,0,0,0,4.17-1A4.33,4.33,0,0,1,50.72,115.37Z"/><path class="cls-130" d="M43.05,113.75a2.66,2.66,0,0,1-2.3.9,3.24,3.24,0,0,0-2.55,1.12h-.81a1.57,1.57,0,0,0-2.1-1.24c.25-1.65,2.39-1.6,2.51-3.2C40.32,110.47,41.7,112.08,43.05,113.75Z"/><path class="cls-97" d="M53.15,117h.4c2-1.41,4.05-.65,6.12-.46a2.13,2.13,0,0,1,.45.34,1.72,1.72,0,0,1,.3,1.34c-2.76.63-5.63.7-8.36,1.58-.55.18-1.25,0-1.34.84a44.45,44.45,0,0,1-11.45,3.13c.29-1,1.19-1.22,1.9-1.56a56.29,56.29,0,0,1,10.2-4A2.41,2.41,0,0,0,53.15,117Z"/><path class="cls-131" d="M148.49,108.5l-2.83-.41a50.09,50.09,0,0,1-5.47-.38c-.19,0,0,.32-.15.47s-.36.29-.53.26c-2.07-.41-4.1-1.09-6.26-.84-.24,0-.45-.24-.64-.44-.48-.5.53-1.6-.48-1.69-1.73-.14-3.58-1.21-5.12-.46s-3,.53-4.38.94a1.84,1.84,0,0,1-1.66-.35c-.68-.66-1.84-.72-2.24-1.75a1.25,1.25,0,0,1,.71-1.55,33.32,33.32,0,0,1,5.56.11c1-.14,2,.5,3,.1a1.2,1.2,0,0,1,1.14.33c.69.77,1.7.54,2.46.52,3.32-.08,6.48.83,9.72,1.19,1.56.17,3.14-.32,4.69.43.52.26,1.53,0,1.51.8s-1,.14-1.5.49a2.12,2.12,0,0,1-.65.17c.66.9,1.68.85,2.48,1.23C148.18,107.84,148.85,107.75,148.49,108.5Z"/><path class="cls-117" d="M125.06,102.84a29,29,0,0,0-5.66-.4c-.75.38-1,.89-.4,1.62.63.46,1.76.11,2,1.21-.23,1.18-1.17.93-1.79.67a10.16,10.16,0,0,0-3.25-.54,3.73,3.73,0,0,1-.56-.2,1.9,1.9,0,0,1-.87-.74c.16-.47.65-1.06-.32-1.19-.67-.08-1.35,0-1.8-.68.27-.67.86-.54,1.37-.55,3.34,0,6.68,0,10-.06.91,0,1.62.23,1.16-1.37-.42-1.44,1.61-1.81,2.33-1.69,2.91.47,5.92-.2,8.75.83.12,0,.2.18.3.27a9.65,9.65,0,0,1-6.53,1.12c-.51-.11-1-.5-1.5,0a.53.53,0,0,0-.12.5c.44.62,1.05.32,1.64.32a4.25,4.25,0,0,1,2.51.54c-1.2.62-2.27.28-3.27.38h-1.21C126.94,103.4,126,102.12,125.06,102.84Z"/><path class="cls-132" d="M60,117h-.41a.72.72,0,0,1,.64-.86c2.32-.32,4.47-1.43,6.86-1.35-.59,1.24.92.41,1,1,.45,0,.93.07,1.22-.4,1.52-.73,3.15-.51,4.74-.52,3.54,0,7.07.7,10.63.15a1.43,1.43,0,0,1,1.65.85c.1.21-.53.51,0,.4a9.45,9.45,0,0,1,2.59-.17c1.21.06,2.13-.22,2.33-1.62.11-.84.87-1.38,1.38-.8,1.09,1.23,2,.36,3.06.14,2,.19,4-.36,6-.12a5.9,5.9,0,0,0,2.09.23,25.43,25.43,0,0,0,3,.13,3.36,3.36,0,0,1,1.59.14c4.69,2.59,9.9.88,14.78,1.83a1.07,1.07,0,0,0,.79,0c3.16-2.14,6.19-.3,9.19.43,1.46.35,2.84,1,4.39,1h0c.4.55,1.3.72,1.21,1.62-3.65.57-7.2-.11-10.73-1a6.48,6.48,0,0,0-4.32.18,1.71,1.71,0,0,1-1.88-.16,1.05,1.05,0,0,0-1.14-.21c-2.78,1.58-5.66.34-8.41.09a47.21,47.21,0,0,0-8.23-.35,1.33,1.33,0,0,1-1.2-.47c-.36-.36-2.47.45-2.43.92,0,.2.5.36.77.53l-3.59,0c-4.13-.68-8.28-.18-12.42-.15-2.88,0-5.76.12-8.64.18a7.45,7.45,0,0,0-4.82-1.37c-2.3.11-4.59.39-6.89.59-.7-.05-1.47.16-2.12-.54.82-1,2.06-.54,3.22-1a19.23,19.23,0,0,0-4.07,1A1.64,1.64,0,0,1,60,117Z"/><path class="cls-114" d="M43.05,113.75c-.55-.19-1-.68-1.64-.57-.37.06-.83,0-.61-.41.79-1.37-.28-1-.89-1s-1.41-.26-2.11-.39l-.41-.41c1.74,0,3-1.27,4.5-1.77a.62.62,0,0,0,.28-.46c0-.38-.3-.31-.54-.4-1.63-.56-2.86.76-4.36.92-1.13.12-2.32.88-2.29-1.15,0-.16-.18-.33-.27-.49-1.4,1.17-2.69-.77-4.08-.13-1,.47-1.35,0-1.32-1a5.15,5.15,0,0,1,4.93-.37,6.66,6.66,0,0,0,4.71.3c1.71-.53,3.52.66,5.31.06h.4a.88.88,0,0,1,.12.92c-.71,2.37-.62,2.51,1.54,2.95.69.14.64-1.44,1.58-.64l.4.4c1.81.73,3.58.13,5.32-.25a14.16,14.16,0,0,1,4.36-.44c2.1.21,4-1.06,6.1-1.14a12.94,12.94,0,0,1,5.3-.28,75.36,75.36,0,0,0,13.52.19,6.13,6.13,0,0,1,3.55,1.35c.8,1,.44,1.65-.72,1.81a8.61,8.61,0,0,1-4.18-.22c-1.58-.57-3.23-1-4.88-.08a2.26,2.26,0,0,1-2.14-.15,3.18,3.18,0,0,0-3.43.26c-2.42,1.14-4.93.84-7.45.43-.79-1.54-.79-1.54,1.26-1.71-1,.06-.86.2-2,1.25a3.86,3.86,0,0,1-3.36.89c-2-.37-4.1-.71-5.67,1.3-.86,1.11-1.64.26-2.35-.38C48.59,112,45.84,113.07,43.05,113.75Z"/><path class="cls-133" d="M83.43,26.9l0-4.39.46,0c0,3.15,0,3.15,4,3.12,0,.4,0,.8,0,1.21A4.08,4.08,0,0,1,83.43,26.9Z"/><path class="cls-134" d="M83.43,26.9l4.45,0c.12,1.29-.23,1.88-1.71,1.43a12.61,12.61,0,0,0-2.77-.2Z"/><path class="cls-65" d="M96.34,8.34a3.94,3.94,0,0,0,.37,2l0,2-.32.1c-.52-.36-.94-.67-1.35.22a12.75,12.75,0,0,1-2.95,4c-.5.47-.9,1.23-1.81,1H89.5q1.57-1.68,3.16-3.35a5.26,5.26,0,0,0,1.7-3.92c.57-.55.53-1.35.8-2h0c.23-.22.34-.66.8-.4Z"/><path class="cls-55" d="M88.69,14l.41.41a4.27,4.27,0,0,1-2.41.41l-1.11-1.2C86.94,14.37,87.8,13.62,88.69,14Z"/><path class="cls-135" d="M95.16,8.31c0,.78.13,1.61-.8,2A3.93,3.93,0,0,1,95.16,8.31Z"/><path class="cls-135" d="M96,7.91l-.8.4c0-.46-.06-1,.45-1.24A.88.88,0,0,1,96,7.91Z"/><path class="cls-35" d="M140.81,44.27a15.33,15.33,0,0,0-1.54,3.12c-.25,1-.94,1.33-1.69,1.72-1,1.11-2,.83-3,0a6.67,6.67,0,0,1-2.07-3.56c.81-1.88,2-2.46,4.09-1.86.9.25,1.76.71,2.54-.21C139.9,43.39,140.25,44,140.81,44.27Z"/><path class="cls-136" d="M139.19,43.46c0,1.41-.36,1.81-1.78,1-1.73-1-3.46-.9-4.7,1a.49.49,0,0,1-.77,0,3.06,3.06,0,0,1,3.09-3.2A6.46,6.46,0,0,1,139.19,43.46Z"/><path class="cls-137" d="M131.94,45.45h.77c.94.72.88,2,1.75,2.84s1.85,1.41,3.12.82v.41a3.78,3.78,0,0,1-1.21,1.21h-1.21C132.5,49.94,132.74,47.38,131.94,45.45Z"/><path class="cls-11" d="M60,117c2,.06,3.93-1.29,6.15-.65a8.59,8.59,0,0,1-3,.73c.56.57,1.41.07,1.73.73-1.41.86-3,.19-4.44.41C59.94,117.9,60,117.43,60,117Z"/><path class="cls-138" d="M90.31,17.6a14.85,14.85,0,0,0,5-6.55c.84.07.93.76,1.1,1.37,0,.64,0,1.28-.07,1.93a1.87,1.87,0,0,0-.32.15c-.07-.32,0-.82-.21-.94-.45-.28-.67.24-.89.52a24.13,24.13,0,0,1-4.28,4.64,8.82,8.82,0,0,1-5.53,2.13c-1.28,0-2.71-.41-3.73.85a2.39,2.39,0,0,1-1.6-.83c0-.56.3-.86.92-.77,1.18.16,2.36-.09,3.56,0A7.22,7.22,0,0,0,90.31,17.6Z"/><path class="cls-136" d="M165.92,68.06c0-.45-.13-.9.33-1.21a4.15,4.15,0,0,1,4.75.94c.35.34.62.74.15,1.2s-.71.17-1.06-.07a3.89,3.89,0,0,0-3.45-.84Z"/><path class="cls-139" d="M41.44,46.29c0-.14,0-.27,0-.41a4.25,4.25,0,0,0,1.62-1.61l1.21-1.22c.73.62,1.43,1.37,2.42.41C45.8,45.77,44.31,46.4,41.44,46.29Z"/><path class="cls-140" d="M77.39,5.88c.44-2.1,1.41-2.78,4-2.82,0,1.29-1.56,1.56-2,3.14a7.39,7.39,0,0,1,6.42-2.45c.65.06,1.1-.4,1.62-.7h.39c1.32,2,1.64,4,.23,6.11-1.11,1.68-2.56,2.19-4.19,1S80.18,9.11,78.6,7.9C78.19,7.23,78,6.41,77.39,5.88Z"/><path class="cls-84" d="M78.6,7.9c2.14.43,4.38.61,6.07,2.24.71.69,1.39.24,2-.08,1-.52.94-1.73,1.51-2.45A1.76,1.76,0,0,0,88.13,5c-.44-.56-.19-1.3-.24-1.95,1.86.75,2.4,2.59,2.63,4.16C90.79,9,88.37,11.45,86.59,12c-.38.11-.75.27-1.12.4-1.06-.49-1.85,1-2.94.48,0-.82,1.07-.61,1.15-1.44C81.36,11.18,79.93,9.61,78.6,7.9Z"/><path class="cls-136" d="M87.5,3.05c.07,1-.47,1.32-1.37,1.22-2.56-.28-4.8.26-6.4,2.48a.58.58,0,0,1-.87.16c-.32-.24-.22-.59-.1-.92.5-1.33,1.67-2.05,2.67-2.93a8.62,8.62,0,0,1,6-.36C87.46,2.82,87.48,2.93,87.5,3.05Z"/><path class="cls-27" d="M136.37,50.73a2.5,2.5,0,0,1,1.21-1.21A1.13,1.13,0,0,1,136.37,50.73Z"/><path class="cls-104" d="M129.5,49.92v-.81l.81.41c.05,1.19.36,2.16,1.71,2.53.65.18,1.17.67.72,1.5h-.41c-2-.2-2.13-2-2.82-3.25C129.51,50.18,129.51,50.05,129.5,49.92Z"/><path class="cls-74" d="M137.58,117.39a4.49,4.49,0,0,1-3.79-.32c-2.28-1.14-4.91-1-7.35-1.67-.25-.06-.71-.09-.78,0-1.34,2.23-3.4,1-5,.85-1.87-.15-3.82.51-5.65-.41a1.69,1.69,0,0,0-1.68.32,2.34,2.34,0,0,1-2.86-.39,4.58,4.58,0,0,0-3.62-1.25c-1.06,0-2.16.21-3.15-.39,0-.1,0-.19-.05-.28,1.28-1.14,2.76-.4,4.14-.38a23.54,23.54,0,0,1,2.72.49c.85.11.05-.56.28-.79a1.75,1.75,0,0,1,2.35-1,6.45,6.45,0,0,0,3.91.09c4.09-.79,8.1-.12,12.11.56,1.37.49,2.9.69,3.63,2.29.27.58,1,.77,1.61,1A10.61,10.61,0,0,1,137.58,117.39Z"/><path class="cls-141" d="M134.35,116.17a2,2,0,0,1-2.35-1.48c-.33-1-1.83-.55-2.5-1.34a2.53,2.53,0,0,1,3.12-.23,2.53,2.53,0,0,0,2.1.41c2.15-1.1,4.24,0,6.35,0,1.32,1.15,3.11.84,4.59,1.47h0l2,2a2.23,2.23,0,0,1-1.91.34c-3.29-1.13-6.83-.87-10.14-1.85-.51-.15-1.19-.42-1.62.26C134,115.78,134.23,116,134.35,116.17Z"/><path class="cls-142" d="M38.19,38.19c-.24-2.57,1.74-2.25,3.23-2.38,1.13-.09,2.6-.34,2.95,1.22.62,2.7.2,3.34-2.07,4a5.75,5.75,0,0,0-.87.41,2.45,2.45,0,0,1-2.91-1.06c.31-1,.31-1,1.92-2.43C39.63,37.55,39,38.59,38.19,38.19Z"/><path class="cls-143" d="M38.19,38.19a4.38,4.38,0,0,1,.67-.42c.79-.29,1.78-1.34,2.36-.14s-.86,1.13-1.53,1.48a2.22,2.22,0,0,0-1.07,1.13,1.42,1.42,0,0,1-.41,1.6c-.63.06-1.16,0-1.24-.8A3.45,3.45,0,0,1,38.19,38.19Z"/><path class="cls-48" d="M38.21,41.84a2.52,2.52,0,0,1,.41-1.6c.77.79,1.91.72,2.81,1.2,1.28.49,2.4-.48,3.64-.41l-.41.81C42.51,43.41,40.36,42.57,38.21,41.84Z"/><path class="cls-48" d="M45.47,39c.56.54,1,1.08,0,1.62C45.46,40.09,45.08,39.55,45.47,39Z"/><path class="cls-144" d="M129.51,50.31c.89,1.13,1.46,2.53,2.82,3.25l1.21,1.61A5.34,5.34,0,0,1,129.51,50.31Z"/><path class="cls-136" d="M2.66,66.87c0-.66,0-1.33,0-2,.76-.43,1.09-1.35,2-1.63.59-.19,1.17-.55,1.51.25s-.31.85-.79,1.09c-.28.13-.47.45-.7.68C3.79,65.54,3.86,67,2.66,66.87Z"/><path class="cls-1" d="M115.36,104.86h.41c.27.27.24.93.68.88,2.07-.24,4.13.58,6.18-.07.26-.67.73-.56,1.31-.46.76.13,1.58.59,2.13-.69.17-.38,1.82-.35,2.7-.15a16.39,16.39,0,0,0,3.94.52c.55,0,1.5.11.68,1-1.53,1.7.18,1.51.88,1.32,1.58-.44,2.9-.44,4.17.77.29.28,1,.08,1.57.09,1.45-.83,2.59-.24,3.63.81l.41.41c-.76,1.18-2.55.29-3.23,1.61-2.08-1.36-4.5-1.35-6.83-1.74-1.28-.21-.22,1.17-1,1.29a1.28,1.28,0,0,1-.49.29c-3,.5-5.88-.38-8.75-.9-3.37-.6-6.68-1.22-10.1-.71a4.4,4.4,0,0,1-1.2-.05c-2-.24-2-.3-1.1-2,0-.09-.06-.26-.11-.38Z"/><path class="cls-109" d="M132.73,110.52c.63-.74,0-1.33-.4-2.18,2.7.7,5.31.64,7.82,1.36.83.24.23,1,.67,1.22v.41a23.47,23.47,0,0,1,4.84,3.63c-1.68.35-3.3.45-4.44-1.21-1.4-.64-2.57-2.19-4.13-1.94C135.29,112.09,134.09,111.25,132.73,110.52Z"/><path class="cls-110" d="M4.67,70.93a4.92,4.92,0,0,0,5.77-2.34c.47-.72,1.27-.61,1.91-.89C10.79,71.34,7.47,72.74,4.67,70.93Z"/><path class="cls-17" d="M143.64,108.9c-1.21-.26-2.3-1.09-3.63-.81,0-.27-1-.75.07-.78a17.93,17.93,0,0,1,5.58.78C144.88,108.1,144.05,108,143.64,108.9Z"/><path class="cls-99" d="M4.67,70.52c-.94-.54-2.35-.27-2.83-1.61h.81c1.06,1.36,2.75.64,4,1.22C6.12,70.8,5.35,70.42,4.67,70.52Z"/><path class="cls-145" d="M38.6,94.76H39a18.76,18.76,0,0,0,4.51-1.48c1.5-.89,2.58.41,2.46,2.8-.32.57-.92.66-1.41.82,1.7.4,3.45-.9,5.23.06,1.08.57,2.34.88,1.68,2.58-.25.63.18.95.74.68,2.68-1.29,4.07.41,5.42,2.26a.68.68,0,0,1,0,.54c-.53.67-1.18.44-1.84.27a7.06,7.06,0,0,0-4.93.37c-1.69.82-2.52.17-3.25-1.14-.39-.71-.81-1.3-1.71-1.29h-.41c-1.79-1-3.38-2.56-5.72-1.7a1.23,1.23,0,0,1-1.15.08c-.9.57-1.93-.13-2.92.28,1.62-1,1.89-3.07,3.74-3.8-.87-.65-1.52,0-2.37,0A1.7,1.7,0,0,1,38.6,94.76Z"/><path class="cls-146" d="M45.88,101.23l2-1.1c-1.11,1.59.19,2,.55,2.77.78,1.71,1.57.21,2.37.13,1.81-.18,3.63-1.06,5.43,0,.51.28.9,0,1.33-.15.79.78.1,1.45-.19,2.15a3,3,0,0,0,2,.07c2.57-.51,2.57-.52,3.22,1.77a1.18,1.18,0,0,1,.06.56c-1,1-2.2.88-3.42.71a13.25,13.25,0,0,1-1.76.23.47.47,0,0,1-.44-.7c.37-.89.37-.91-.56-1.07-2.47-.44-5-1.08-6.61,1.79A52.93,52.93,0,0,1,45.88,101.23Z"/><path class="cls-147" d="M59.21,108.1c.94-.82,2.22-.26,3.23-.81,1.38-.31,1.22.93,1.62,1.61-1.19-.17-2.22.64-3.28.69-4,.2-7.81,1-11.7,1.55-.95.13-.7-.55-.78-1,2.66-.74,5.3-1.62,8.14-1.26A2.82,2.82,0,0,0,59.21,108.1Z"/><path class="cls-146" d="M38.6,99.61c1-.88,2.27-.6,3.37-1a.69.69,0,0,1,1,.49c.51,1.64,1.36,1.3,2.31.24.1.78.17,1.35.24,1.93-1.49.47-3,1.07-4.55.27a1,1,0,0,0-.92-.13C37,102.8,38.76,100.44,38.6,99.61Z"/><path class="cls-113" d="M47.9,109.71c-.58,0-.79.39-.84.92a.7.7,0,0,1-.83.67c-.78,0-.33-.47-.25-.8s-.16-.3-.35-.34c-2.18-.43-2.39-1-1.09-3.1a1.58,1.58,0,0,0,.12-.58c1.59-.76,2.72,0,3.1,2.08C47.83,108.93,47.7,109.34,47.9,109.71Z"/><path class="cls-148" d="M45.88,96c-.1-.37-.17-.76-.28-1.13-.44-1.44-1.6-2-2.54-.94-1.26,1.44-2.65.89-4.05.86a1.27,1.27,0,0,1,1-.8c1.13-.19.8-.93.61-1.62a3.27,3.27,0,0,1,1.73-.88c.93-.26.15-.78.29-1.14a7.59,7.59,0,0,1,4.85-2l.18.19c-.46,1.08.13,2.29-.43,3.36-1.15.74-.57,1.5.08,2.09.48.43,1,.73.53,1.42S46.81,96.66,45.88,96Z"/><path class="cls-148" d="M47.49,85.88a3.18,3.18,0,0,1,3.23-1.62h0c.12.87-.37,1.63-.43,2.5-.12,1.85-.92,2.23-2.8,1.54h0a1.09,1.09,0,0,0,0-1.22C47.75,86.68,47.94,86.28,47.49,85.88Z"/><path class="cls-145" d="M42.64,90.32c.19.62,1-.06,1.13.5s-.55.59-.9.85a3,3,0,0,1-2.25.67c0-.36-1.49-.38-.15-1.13C41.18,90.8,42,90.82,42.64,90.32Z"/><path class="cls-149" d="M47.49,85.88c.47.1,1.29-.27,1.34.36s-.93.46-1.34.84c-.77-.74-1.66.52-2.51-.22A5.51,5.51,0,0,1,47.49,85.88Z"/><path class="cls-150" d="M115.36,104.86c-.59,2.18-2.74,1.25-4,2l-.28.06c-.85-.9-1.71-.75-2.86-.45-2.75.72-5.39,2.43-8.43,1.35-.56-.2-1.45,0-1.35-1.06.14-.24.32-.54.57-.54,2.89,0,5.37-2.22,8.38-1.58a.82.82,0,0,0,.74-.2c.37-.8,1.24.4,1.62-.4,1.51,1.32,3.23.19,4.84.4A.84.84,0,0,1,115.36,104.86Z"/><path class="cls-151" d="M104.07,84.26a12.16,12.16,0,0,1,6.53,1.12,7.74,7.74,0,0,0,4.65.87c1.71-.27,3.08.7,4.62,1,.75.14,1.61,1,.25,1.82-.22.13-.54.12-.58.46-.25,2.16-1.87,2.1-3.41,2a41.6,41.6,0,0,0-8.92.23,5,5,0,0,1-3.6-.74,1.24,1.24,0,0,1-.28-1.14c.21-.76.2-1.56.36-2.32.35-.87-.18-1.72,0-2.58A1.12,1.12,0,0,1,104.07,84.26Z"/><path class="cls-152" d="M100.48,96.49c-1.48-1.66-2.67,0-3.3.71-3,3.26-7.07,4-11.1,4.8a26.06,26.06,0,0,1-8.5.45,1,1,0,0,0-1,.47c-.92,0-1.32-.52-1.37-1.38a1,1,0,0,1,.62-.66c2.26-.53,4.4-1.13,6.87-.53,1.54.37,3.3-.88,5-1.27a30.29,30.29,0,0,0,9-3.79c.39-.32.79-.63,1.2-.92a6.36,6.36,0,0,1,2.59-1.31c.78-.11,1.62-.26,1.6,1A4.27,4.27,0,0,1,100.48,96.49Z"/><path class="cls-153" d="M99.61,75.78h.8c.66.46,1.45.16,2.16.35l.27.05c1.6.58,3.26.33,4.9.41,2.7.14,3.93,1.16,4,3.23a52,52,0,0,1-8.9.4c-.29.16-.48,0-.67-.18-.29-.32-.57-.65-.89-1-.7-.82-1.72-1.39-2-2.56A.89.89,0,0,1,99.61,75.78Z"/><path class="cls-154" d="M104.07,84.26c0,.27,0,.53,0,.8a2.72,2.72,0,0,0-2.86.92,2.64,2.64,0,0,1-2.12.92c-1.53,0-2.36,1.41-3.43,2.27A11.29,11.29,0,0,1,89.52,92a9.58,9.58,0,0,0-2.47.65,3.48,3.48,0,0,1-.9.12c-.52-.06-1-.11-1.18-.76a9.75,9.75,0,0,1,3.67-2,28.62,28.62,0,0,0,8.85-5.32c1.69-1.36,3.27-3,5.75-2.85Z"/><path class="cls-155" d="M103.65,89.93c0,.37,0,.75,0,1.13l-.72.94c-1.91.93-3.9,1.71-5.76,2.75a6.6,6.6,0,0,1-1.5.56,14.66,14.66,0,0,1-5.69.84,42.79,42.79,0,0,0-7.13.66,7.36,7.36,0,0,1-3.55-.14c-.62-.49-.2-1,.23-1,1.63.11,2.77-1.25,4.31-1.31a6.78,6.78,0,0,1,3-.1,11.18,11.18,0,0,0,6.72-.74c2.86-1,6-1.36,8.4-3.54a2.16,2.16,0,0,1,1.66-.61A.3.3,0,0,1,103.65,89.93Z"/><path class="cls-156" d="M103.24,81.84c-3.21.87-5.35,3.38-8,5.15-2,1.33-3.84,2.78-6.19,3.34-1.42.34-2.42,1.72-4,1.61a3.13,3.13,0,0,1-2,.87,2.17,2.17,0,0,1-1.53-.32c-.33-1.1.64-1,1.17-1.15a34.78,34.78,0,0,0,13.44-6.56,16.59,16.59,0,0,0,3.17-3c.75-1,1.42-2.4,3.13-1.92l.42.4C103,80.76,103.1,81.3,103.24,81.84Z"/><path class="cls-157" d="M97.18,94.36c1.52-1.07,3.45-1.36,4.88-2.61.3-.27.62-.06.83.25l-.8,2c-.67-1.25-1.62-.44-2.4-.24a7,7,0,0,0-1.7,1C97.54,95,97.34,94.72,97.18,94.36Z"/><path class="cls-158" d="M99.6,76.6,101.65,79c-.45,1.07-1.61,1.08-2.42,1.6a43.78,43.78,0,0,0-6.69,5.28c-6.63,3.54-13.35,3.11-20.12.48A2.27,2.27,0,0,1,73,83.29c1.17-.5,2,.53,3,.68,3.76.56,7.52,1.56,11.33.23,1.22-.42,2.54-.19,3.77-.49a3.33,3.33,0,0,0,1.93-1,2.52,2.52,0,0,0-2.13,0,7.74,7.74,0,0,1-3.58,0c-1.76-.33-2-.72-1.53-2.67a13.28,13.28,0,0,1,5.43-4.67,3,3,0,0,1,3.07,0l2,0,1.21.39C98.49,75.49,99.06,76,99.6,76.6Z"/><path class="cls-3" d="M121.42,83.05c-1.3-.91-3.06-.76-4.23-2.24-.47-.6-2.26-.16-3.44-.19a3.43,3.43,0,0,1,3.85-.55,2.75,2.75,0,0,0,1.18.16c2.7-.18,5.29.5,8.23,1-1.34,1.29-2.89.89-4.24.92C122,82.17,121.47,82.11,121.42,83.05Z"/><path class="cls-127" d="M99.6,76.6l-2-.84c.68-1.07,1.36-1.06,2,0C99.6,76.05,99.6,76.33,99.6,76.6Z"/><path class="cls-6" d="M101.22,75.77c.43-.57,1.07-.46,1.6-.37,1.06.17-.06.51,0,.78h0A1.08,1.08,0,0,1,101.22,75.77Z"/><path class="cls-127" d="M101.22,75.77a2.73,2.73,0,0,0,1.62.41c-1,.85-1.7.23-2.43-.4Z"/><path class="cls-159" d="M75.33,101.69l1.22,1.23a4.48,4.48,0,0,0,1.65,1.47l.38.51c-.4,1.92-2,1.4-3,1.14-2.63-.71-5.15,0-7.68.24-1,.11-1.62.33-1.94-.85-.07-.29-.41,0-.57.23-.5,1.57-1.71,1.42-2.94,1.22-.49,0-1.23.17-.81-.81.14-.33.52-.74,0-1.06a.9.9,0,0,0-1.12.14c-1.11,1-2.45.36-3.67.49a.77.77,0,0,1-.65-.32.55.55,0,0,1,.45-.75c1-.22.93-1,.92-1.73h0c1.47.54,2.46-.74,3.73-1a2.8,2.8,0,0,1,.51-.18,5.6,5.6,0,0,1,2.12.08,7.07,7.07,0,0,0,1-.11c.77,0,1.53.12,2.3.11a4.68,4.68,0,0,0,1.29.13c1.8-.39,3.57-.87,5.36-1.29a2.09,2.09,0,0,1,.56,0A1.4,1.4,0,0,1,75.33,101.69Z"/><path class="cls-160" d="M86.29,109.78l-3.17-1.38c-1-.08-1.53-.79-2.23-1.3a1,1,0,0,1-.26-.73c-.08-1.1.66-1.32,1.41-1.05,3,1.09,5.55-.3,8.16-1.4,1.31-.55,2.57-1.41,4.1-.76l.08.15c-.23.15-.3.43-.49.61a6.54,6.54,0,0,0-1.5,1.47,7.14,7.14,0,0,1-.63.82c-.28.32-.59.61-.9.91a8.25,8.25,0,0,1-.81.62c-.76.56-1.49,1.17-2.29,1.68a2.55,2.55,0,0,1-.46.25A1.36,1.36,0,0,1,86.29,109.78Z"/><path class="cls-161" d="M80.63,106.37l.42.48c0,1.46-1.15,1.3-2,1.32-2.54.07-5.07,0-7.6.29a2.51,2.51,0,0,1-1.85-.65c-.37-.29-.79-.66-1.26-.49-2,.75-2.76-.62-3.48-2l1.39-1c.88.56-.17,1.34.29,1.78,2.87-.32,5.61-1.21,8.54-.45,1.08.28,2.56.72,3.5-.65Z"/><path class="cls-162" d="M93.85,103.65l.53-.34a1.1,1.1,0,0,0,1.52,1.1c1.94-.65,3.82.07,5.7,0a29.34,29.34,0,0,1,6.49.06c-2.91.19-5.4,2.12-8.38,2a4.54,4.54,0,0,0-1.31.38h-.3c-1.67-.1-3.32.4-5,.13-.64-.11-1.53.11-1.61-1l.46-.66C92.56,104.76,93.23,104.23,93.85,103.65Z"/><path class="cls-149" d="M64.86,102l-.8.4c-.54-1.8-1.45-1.32-2.43-.41h0c-2.78.53-3.61-.36-3.47-3.77-2.37.72-2.83.45-2.65-1.69s-1.78-1.58-2.73-2.2A5,5,0,0,0,50,94c-.66,0-1.48.16-1.78-.58-.4-.93.6-1.18,1.07-1.67-.75.12-1.61,1.26-2.24-.2C48,90.3,45.61,91,46.18,90c.35-.62,1.63-.52,1.31-1.68,1.56.06,2.94,0,2.18-2.26-.27-.8.6-1.24,1-1.78.75-.62,1.81-.18,2.62-.64-.17-.78-.8-.47-1.15-.69s-.9-.52-.86-1c.05-.68.7-.43,1.12-.5A12.7,12.7,0,0,0,57,79.17a4.55,4.55,0,0,0-4.28.26c-.26-1.21,1.55-1.63.8-2.85a18.92,18.92,0,0,1,3.87-1.29c1.18-.2,2.43-.34,3.15-1.7.62-1.16,1.7-1,2.68-.24a17.38,17.38,0,0,1,4,.23c2.9.36,5-1.67,7.54-2.24a3.91,3.91,0,0,1,1.57-.27c4.76.94,9-.86,13.11-2.73a2.23,2.23,0,0,1,2.42,0c.72.46,1.7.28,2.52.62h.8l-.4,1.21c-4.65.15-8.4,2.51-12.13,4.91a9.65,9.65,0,0,1-2.85,1.47c-3.28-.63-6,.68-8.64,2.41a4.41,4.41,0,0,1-4.07-1.14A4.3,4.3,0,0,0,65,76.67a2,2,0,0,1-1.71-1.5A3.55,3.55,0,0,1,62,76.47c-1.29.88-2.77,1.54-2.27,3.66.24,1-.91,1.41-1.73,1.65-1.53.43-2,1.32-1.49,2.79A3.57,3.57,0,0,1,55,85.83c-.37.56-1.67,0-1.44,1.23,1.19.4,3,2.52,3.06,3.61s-.62,1.18-1.6,1c1.34.38,1.34.38,1.9,1.94.81-.51.65-1.61,1.34-2.18,1.47-.69,1.79.44,2.21,1.41.9.76,1.64,1.57.67,2.85,1.16.32,2.44.39,2.79,1.84a.61.61,0,0,0,.62.43c1-.12,1.84-.18,1.93,1.2,0,.14,1,0,1.43.43.67.85,1.39,1.69.57,2.84-.45,0-.92.07-1.21-.4C66.48,100.9,65.67,101.37,64.86,102Z"/><path class="cls-127" d="M94.36,68.91c-.19.08-.43.28-.55.22C90.5,67.64,88,70,85.08,70.74s-5.64,1.86-8.75.83c-1.07-.35-2.62.29-3.68,1-3,2.16-6.19,1.47-9.4.74a4.15,4.15,0,0,1,3.29-.3c1.4.37,3.21-.72,4.82-1.23s3.29-1.72,5.27-1.59c.9,0,.7-.76.76-1.32h.4c2.42-.27,4.36-1.84,6.67-2.43a9.69,9.69,0,0,0,2.22-.8c1.76-.47,3.52-.91,5.27-1.43.79-.23,1.08.35,1.5.74a.87.87,0,0,1-.14,1.4c-1.9,1.27-1.2,1.69.54,1.93C94,68.35,94.19,68.7,94.36,68.91Z"/><path class="cls-119" d="M86.68,65.68c-.13,1.22-1.36,1-2,1.24-1.9.72-3.78,1.48-5.61,2.37-.59.29-1,.27-1.27-.38-.49-.78-.21-1.39.6-1.46,2.53-.21,4.61-1.9,7.16-2A2.64,2.64,0,0,1,86.68,65.68Z"/><path class="cls-163" d="M79.8,76.22a58.17,58.17,0,0,1,10-5.65c1.62-.67,3.22-1.33,5-.45,0,.52-.32,1,.52,1.39,1,.53,1.15,1.47-.26,1.93-1.06.35-1.64.85-.67,1.91-3.79-.19-5.95,2.3-8.07,4.88a.9.9,0,0,1-.83.18A29,29,0,0,0,80.3,77C80,76.83,79.73,76.62,79.8,76.22Z"/><path class="cls-129" d="M95.57,114.15c-.51.3-1,.62-1.54.9s-1.2.68-1.13-.51a.63.63,0,0,0-.75-.72c-.6,0-.46.45-.37.88.31,1.54-1,1.88-1.92,2a34.92,34.92,0,0,1-4.85-.18c.38-.25.95-.51.92-.61-.17-.57-.7-.55-1.17-.46-5,1-10.06-.58-15.08.1-.12,0-.25-.1-.37-.15a2.26,2.26,0,0,1,2.28-2.25,2.66,2.66,0,0,0,2.16-.58c-.06-1,.68-1.3,1.43-1.24,6.24.52,12.54.34,18.66,1.94A2.66,2.66,0,0,1,95.57,114.15Z"/><path class="cls-164" d="M95.57,114.15c-6.39-1.79-13-1.52-19.53-2.39-.83-.11-1.8-.27-2.29.78H73c-.63-.6-1.59-.79-2-1.62.93-1.45,2.17-1.29,3.49-.66a2.45,2.45,0,0,0,2.81-.13c1.26-.75,3.26-.16,4.75.55s2.75.12,4.11.17c.75,0,.37-.66.21-1.07l.8-.37c1.87,1.42,4.08.89,6.17,1,.44,0,1,.09,1.06.68s-.42.8-1,.64a28.77,28.77,0,0,1,9.56,1.72c0,.63-.59.43-.88.65C99.88,113.89,97.72,114.84,95.57,114.15Z"/><path class="cls-165" d="M51.53,112.94c1.18.52,2.26.77,2.71-.92.08-.31.3-.67.71-.55,1.55.45,3.06-.65,4.66,0a2.74,2.74,0,0,0,3.27-1.14,2.21,2.21,0,0,1,3-.69c-.45,1-1.25.58-1.89.62-1.13.07-.35.66-.31,1.06a1.33,1.33,0,0,1-1.23,1.15c-2.18,0-4.08,1.28-6.25,1.28a3.32,3.32,0,0,0-2.21.8,4.55,4.55,0,0,0-3.24.81,8.21,8.21,0,0,0-5.16,1c-1.36.86-2.83.25-4.27.29a15.26,15.26,0,0,1,6.35-2.11c1-.1,2.1-.28,3.15-.41C51.54,114,51.51,113.48,51.53,112.94Z"/><path class="cls-129" d="M54,114.56c.25-1,.78-1.24,1.93-1.3a26.08,26.08,0,0,0,7.76-1.93c2.43,0,4.88.34,7.27-.41a2.46,2.46,0,0,1,2,1.62c-5.7-.23-11.24,1-16.82,1.79A17.75,17.75,0,0,1,54,114.56Z"/><path class="cls-11" d="M67.28,115c-2.47,1-5.3.62-7.67,2-1.8.07-3.65-1.1-5.41.24-.23.17-.49,0-.65-.24,0-.45-.06-1,.55-1.13,2.31-.35,4.62-.94,7-.44a2.43,2.43,0,0,0,2-.49,3.46,3.46,0,0,1,3.39-.36C67,114.27,67.29,114.29,67.28,115Z"/><path class="cls-129" d="M67.28,115a.83.83,0,0,0-.8-.4,2,2,0,0,1,1.7-.74c.26.65-.44,1.31-.09,2h-1.5C66.47,115.16,67.24,115.39,67.28,115Z"/><path class="cls-150" d="M122.63,105.67c-.12.33.25,1.19-.58.79-1.67-.8-3.38-.37-5-.14s-1.51-.39-1.28-1.46c1.26.22,2.62-.19,3.8.73a1.09,1.09,0,0,0,1.45-.32A2.77,2.77,0,0,0,122.63,105.67Z"/><path class="cls-17" d="M125.06,102.84c.94-.93,1.88-.06,2.83,0C126.94,103.85,126,102.6,125.06,102.84Z"/><path class="cls-17" d="M119,104.06c-.45-.22-.83-.54-.74-1.08s.69-.5,1.14-.54A2.78,2.78,0,0,0,119,104.06Z"/><path class="cls-74" d="M109,115.7c0,.39-.17.48-.35.42a1,1,0,0,1-.61-.41c-.12-.21.15-.34.34-.29A2.75,2.75,0,0,1,109,115.7Z"/><path class="cls-74" d="M102,114.15a.85.85,0,0,1,.81-.4c.44-.22.62.1.81.4h0C103.11,114.89,102.57,114.36,102,114.15Z"/><path class="cls-166" d="M64.86,105.27c.53.28,1.11.46,1.28,1.17.07.27.52.72.61.68a2.91,2.91,0,0,1,3.81.77c.89.91,2.77.16,4,0,1.78-.29,3.5.08,5.23-.15a1.5,1.5,0,0,0,1.27-.85,6.7,6.7,0,0,1,2.07,1.55c-.47.67-1.19.45-1.83.51-3.36.28-6.74-.48-10.11.18a4.38,4.38,0,0,1-2.32-.54c-1.8-.85-3.23.16-4.8.35-1-.1-.59-1.57-1.62-1.61v-.41C63,106,65,107.25,64.86,105.27Z"/><path class="cls-167" d="M132.73,110.52c.86,0,1.77-.19,2.3.79.08.14.39.31.49.26,2.68-1.27,4.1.68,5.7,2.18a1.37,1.37,0,0,1-.4,0c-2.57-.32-5.17.4-7.65.08a17.56,17.56,0,0,0-3.67-.53c-2-.23-3.94-.45-5.91-.7a21.17,21.17,0,0,0-8.09.57,2,2,0,0,1-1.87-.27c-1.1-.65-2.17-.68-2.71.8-.15.14-.35.33-.52.27-2.76-.93-5.65-.87-8.5-1.2a1.25,1.25,0,0,1-.68-.41c-.54-1,0-1.44.91-1.67a8.33,8.33,0,0,1,3.47-.4,4.57,4.57,0,0,1,.52,0,2.21,2.21,0,0,0,1.48-.32,19.6,19.6,0,0,1,8.63-1c2.34.27,4.81.47,7,1.68a1,1,0,0,0,.58.16C126.76,110.28,129.79,111.9,132.73,110.52Z"/><path class="cls-114" d="M101.22,112.13c2.3.27,4.59.63,6.89.76,1.06.06,1.73,1.09,2.81.86.24,0,.67-.06.69,0a.54.54,0,0,1-.61.76c-1-.12-2.09-.43-3.14-.48-1.4-.05-2.84-.75-4.21.11l-.81-.4-10-1.91c.24-.31,1.12.06,1.24-.91a20,20,0,0,0-3.72,0c-1.58.3-2.44-.48-3.23-1.57a.62.62,0,0,1,.35-.18,60.39,60.39,0,0,1,12.1,1.83A4.1,4.1,0,0,1,101.22,112.13Z"/><path class="cls-109" d="M132.73,110.52a3.58,3.58,0,0,1-4.67.7,1.27,1.27,0,0,0-1.34-.1c-1.75,1-3.22-.12-4.87-.48-3.09-.67-6.18-2.14-9.44-1.19-1.7.5-3.51.28-5.13,1.07-.4.09-.81-.31-1.21,0-1.19,0-2.28-.08-2.54-1.55a1.72,1.72,0,0,1,1.54-.79c2.14-.18,4.3-.24,6.25-1.3h0a1.47,1.47,0,0,1,1.41.56l-2.29,1h8.62a11.69,11.69,0,0,1,3.62.56c2.47.85,5.08.56,7.5,1.4C131,110.74,131.9,110.07,132.73,110.52Z"/><path class="cls-168" d="M47.09,91.53c1.06.86,1.67-.13,2.4-.59.33-.22.62-.64,1-.14s0,.74-.32,1c-.58.42-1.17.82-1.84,1.3,1.19,1,2.46-.08,3.57.58.81.49,1.79.22,2.74,1.1,1.46,1.36,1.73,1.06.92,3.48,1-.62,2.47.94,2.73-1.54.68,2.34-.62,5.59,3.35,5.32-.3.92-2.15.2-1.84,1.76a6.26,6.26,0,0,1-2.2-1c-.37-.61-1.74-.13-1.47-1.64.13-.77-2.53-1.23-3.65-.46-.64.43-1,.61-1.44-.12-.27-.49-1.17-1,0-1.51.72-.32.18-.91-.17-1.06-1.22-.51-2.31-1.53-3.87-.73-1.14.59-2.56-.32-4,.83.58-1.82,2-1.58,2.86-2.18.95.11,1.41-.51,2-1.49-2.28.91-1.29-1.27-2.09-1.89C45.46,92.31,46.39,91.62,47.09,91.53Z"/><path class="cls-1" d="M111.32,106.88c-2.08,2.5-5.13,1.3-7.67,2a2.41,2.41,0,0,1-1.64.65c-2.09.2-4.2.09-6.27.72a2.92,2.92,0,0,1-3.38-1.1c-.62-.88-2.06-.63-2.42-1.83l.7-.57c2.59.08,5.16.66,7.75.11h0c3.48,1.74,6.72.15,9.85-1C109.86,105.31,110.7,105.26,111.32,106.88Z"/><path class="cls-169" d="M103.65,89.93v-.41c-1.38,0-2.19,1.06-3.27,1.62s-1.93,1.57-3.25.53c-.31-.24-.81,0-1.13.23-3.14,2.27-6.93,1.7-10.43,2.39-1,.19-1.94.39-2.89.67-1.06-.19-2.11.69-3.17,0-.71-1.12.25-1.25.91-1.38a39,39,0,0,1,4.91-.83c4.33-.18,8.16-1.92,11.91-3.88a3.66,3.66,0,0,1,2.45-.69c1.18.22,1.75-.86,2.63-1.27.68-.31,1.79-1.35,1.76.61C104,88.33,104.34,89.22,103.65,89.93Z"/><path class="cls-170" d="M104.07,87.52c-.08-.8-.52-.86-1.1-.48-1.33.87-2.26,2.35-4.42,1.76-.71-.2-2.2,1.2-3.41,1.67-3.13,1.21-6.21,2.65-9.67,2.68-.25-.79.63-.45.81-.81h.8a11.56,11.56,0,0,0,2.43-.81c3.34-.12,5.4-2.55,7.8-4.37.62-.47.91-1.35,2.11-.71.84.44,1.39-.81,2-1.38.94-.93,1.76-1.14,2.65,0C103.87,85.88,104.85,86.69,104.07,87.52Z"/><path class="cls-171" d="M97.18,95.57a27.52,27.52,0,0,1-9.41,4c-.81.17-1.49.64-2.27.75-1.6.23-3,1.22-4.89.2-1.49-.83-3.11,1.06-4.84.71.87-2,2.94-2.24,4.62-3,2.77-1.17,5.81-.72,8.7-1.22a23.21,23.21,0,0,0,3.71-.74l.54-.22a8.1,8.1,0,0,0,2.23-.88,4.14,4.14,0,0,1,.49-.19A1.19,1.19,0,0,1,97.18,95.57Z"/><path class="cls-172" d="M93.55,96.38c-2.7,1.56-5.73,1.41-8.67,1.58a17.83,17.83,0,0,0-9.11,3.27l-.44.46-.82-.84c1.09-3.27,3.56-4.08,6.74-4.11,3.6,0,7.17-.87,10.79-.71C92.58,96.05,93.13,95.92,93.55,96.38Z"/><path class="cls-172" d="M97.18,95.57,96,95.17c-.1-.09-.14-.18-.1-.27s.07-.14.1-.14l1.21-.4.81.41Z"/><path class="cls-55" d="M92.74,85.47C93.3,83.84,94.79,83,96,82.16c1.77-1.19,3.4-2.74,5.62-3.17a1.36,1.36,0,0,1,.76.83,3.39,3.39,0,0,0-2.37,1.7C96.84,86,92.1,88.21,87.4,90.46a42.43,42.43,0,0,1-6,1.88c-1.1.93-2.4.54-3.64.56-1.83-.21-3.86.37-5.33-1.31a.9.9,0,0,1,.6-1c2.6.12,5.18.74,7.81.31.27,0,.75.13.77.08,1.19-2.22,3.44-1.24,5.19-1.75C89.15,88.53,90.92,87,92.74,85.47Z"/><path class="cls-173" d="M72.55,91.54a10.7,10.7,0,0,0,5.24.8c1.75,1.15,3.5.68,5.25,0l2-.4c.29.47.77.39,1.22.4l-.81.81c-1.5.27-3,.49-4.49.84-.54.13-1.42-.23-1.57.77a1.78,1.78,0,0,1-1.84.34,16.3,16.3,0,0,0-3.81-1.75,3.63,3.63,0,0,1-3-2.46.64.64,0,0,1,.74-.39C72.11,90.62,72.34,91.07,72.55,91.54Z"/><path class="cls-173" d="M89.51,91.53a2.7,2.7,0,0,1-2.43.81A3.87,3.87,0,0,1,89.51,91.53Z"/><path class="cls-174" d="M96,94.76v.41c-.67.68-1.74.56-2.42,1.21h0a136,136,0,0,0-14.4,1.13c-1.32.19-2.89.1-3.11,2.15-.05.44-1,.79-1.53,1.19l-.35,0c-1.6-.84-2.81-1.94-2.59-4A1.59,1.59,0,0,1,73.08,96c2,.28,4-.06,5.92.34C84.66,95.9,90.37,95.91,96,94.76Z"/><path class="cls-175" d="M83,94.76c1.9-1.35,4.24-1.42,6.32-1.47a15.87,15.87,0,0,0,6.09-1.63c.66-.28,1.75-2.2,2.54.06.1.29.74-.13,1-.33,1.16-.79,2.56-1.18,3.56-2.22.51-.52,1-.52,1,.35-1.5.89-2.79,2.51-4.24,2.9a55.67,55.67,0,0,0-6.43,2c-3.07,1.22-6.09.14-9.12.36A.55.55,0,0,1,83,94.76Z"/><path class="cls-176" d="M83,94.76h.81A25.82,25.82,0,0,1,79,96.38a8.51,8.51,0,0,1-5,.22,2.06,2.06,0,0,0-2.26.66.48.48,0,0,1-.51-.1,1.48,1.48,0,0,1-.18-.51c.29-1-.64-1.33-1.09-1.92a1.75,1.75,0,0,1-.12-.55c.13-.88.73-1,1.47-.94a15.82,15.82,0,0,1,6.12,1.52H83Z"/><path class="cls-154" d="M83,92.34c-1.47,1.61-3.56,1.61-5.25,0H83Z"/><path class="cls-177" d="M85.48,80.18l.8,0c-.69,1.34-.32,1.72,1.21,2,2.29.47,4.47-1,6.75-.1C94,84,91.79,84.43,91.12,84.37c-2.07-.18-3.84.69-5.75.86a24.34,24.34,0,0,1-12-1.77c0-1.74,1.39-2.31,2.62-2.94,1.4-.71,3-.71,4.46-1.24,1-.11,1.86.56,2.78.87A2.44,2.44,0,0,0,85.48,80.18Z"/><path class="cls-178" d="M92.74,85.47c.11.8-.43,1.1-1,1.54-2.34,1.88-4.78,3.37-7.94,2.91-1.23-.18-1.43,1.27-2.61,1.42A18.27,18.27,0,0,1,73,90.72a1,1,0,0,1-.37-.49,29.4,29.4,0,0,1-.25-3.39.84.84,0,0,1,.22-.56c2,.41,4,1,6,1.2,4.47.54,8.92.7,13-1.8A3.52,3.52,0,0,1,92.74,85.47Z"/><path class="cls-136" d="M72.56,86.28v.41c.49,1.19-.14,2.49.36,3.68a.82.82,0,0,0,0,.35l-.41.82a1.49,1.49,0,0,1-.88-.79,7.53,7.53,0,0,1-.2-8.19,8.77,8.77,0,0,1,7.29-4.39,1.6,1.6,0,0,1,1.83,1.25c-.28.78-.92.78-1.61.84a6.74,6.74,0,0,0-5.62,3.2A3,3,0,0,0,72.56,86.28Z"/><path class="cls-168" d="M71.33,97.19l.37.07c.41,1.47,1.67,2.35,2.46,3.56a19.32,19.32,0,0,1-5.66,1.62c.32-1.11-.67-1.85-.81-2.83C68.6,98.35,70.11,98,71.33,97.19Z"/><path class="cls-168" d="M61.63,102a3.62,3.62,0,0,1,.22-.75,1.79,1.79,0,0,1,2.27-.6c.81.3-.18,1.13-.06,1.76A4.25,4.25,0,0,0,61.63,102Z"/><path class="cls-168" d="M64.86,102c.4-.62.47-1.66,1.49-1.52.74.1.83.88.94,1.52C66.48,102.37,65.67,102,64.86,102Z"/><path class="cls-179" d="M89.94,107.34a6.23,6.23,0,0,1,3.69,2.31,1.66,1.66,0,0,0,2.18.37c2.47-1.68,5.27-.49,7.84-1.12.42,1.12,1.55,1.17,2.42,1.62-1.31.22-2.62.54-3.94.64-.76,0-.84.44-.91,1-4.17-1.57-8.61-1.74-12.94-2.44a2.9,2.9,0,0,1-.84-.46Z"/><path class="cls-150" d="M98.39,106.88c-.8,1.13-1.74,1.21-3,.69a10.21,10.21,0,0,0-2.9-.28c-.64-.05-1.37.18-1.83-.52l.87-.73c1.75,1,3.61.48,5.42.29C97.63,106.25,98.08,106.21,98.39,106.88Z"/><path class="cls-121" d="M93.85,103.65A3.61,3.61,0,0,1,92,105.38,2.59,2.59,0,0,1,93.85,103.65Z"/><path class="cls-180" d="M60,93.15c-.22-.86-.28-1.89-1.62-1.62a1.09,1.09,0,0,1-.34-.9,2,2,0,0,0-1.8-2.43c-1.08-.21-1.35-1.15-.58-1.76,3.77-3,7.93-5,13-4.12.4,1.29-.23,2.48-.34,3.71a9.8,9.8,0,0,0,.23,3c0,1.29.63,2.5.6,3.8a1,1,0,0,1-1.07.73C65.37,93.53,62.66,94.07,60,93.15Z"/><path class="cls-181" d="M68.11,89.12c-1-2.36,0-4.6.4-6.88a3.25,3.25,0,0,1,.59-1.75,4.63,4.63,0,0,1,1.84-1.88c2.63-2,5.38-3.54,8.86-2.39,2,1.13,4.29,1.92,5.68,4-.12.68-.33,1.5-1.2,1-1.18-.71-2.64-.79-3.69-1.72a3,3,0,0,0-3-.59c-5.29,1.32-7.38,4.78-6.26,10.56.09.46.2.91.3,1.36l-.74,0A7.52,7.52,0,0,1,68.11,89.12Z"/><path class="cls-182" d="M70.94,78.61c-.55.67-.82,1.55-1.61,2-2.51,1.26-5.31,1.62-7.94,2.52-1.64.56-3.1,1.82-5,1.51-.34-.72-.69-1.44-1-2.17a18.48,18.48,0,0,1,1.91-.88c1.67-.56,2.8-1.37,1.87-3.38-.28-.59.26-.87.65-1.06,1.24-.61,2.75-.9,2.88-2.71,0-.11.44-.24.69-.26a.37.37,0,0,1,.42.5c-.12.5-.06,1.21.37,1.21C66.79,75.89,68.1,79.19,70.94,78.61Z"/><path class="cls-183" d="M60,93.15c2.75,0,5.51,0,8.27-.06.21,0,.42-.26.63-.4,1.18,0,.78,1.14,1.18,1.71a1.15,1.15,0,0,0,.07.36c.78.46.9,1.28,1.15,2,0,.13,0,.26,0,.39C70.51,98.6,69,99,67.69,99.61l-2,.14c-.56-.58.7-.82.19-1.4,0,0-.08-.08-.1-.07-2.68,1.66-2.59-2.89-4.87-2.18-.45.14-.66-.37-.39-.56C62.39,94.24,60.5,93.87,60,93.15Z"/><path class="cls-184" d="M56.38,84.66c4.35-1.23,8.31-3.71,12.95-4a2.49,2.49,0,0,1-.82,1.61c-1.42.73-3,.57-4.52.7a10.23,10.23,0,0,0-5.93,2.7,4.52,4.52,0,0,1-1.81.77.84.84,0,0,0-.6.93c0,.33.26.43.54.5,2.54.63,2.66.83,2.21,3.69a15.73,15.73,0,0,1-.49,1.94,1.47,1.47,0,0,1-1.37,1c-.69-.09-.57-.76-.37-1.3s.09-1.12-.54-.94c-2.42.68-.81-.92-1.38-1.51,1.09-.14,1,1.23,1.78.67s.07-1.08-.27-1.53c-.71-.95-.84-2.57-2.61-2.36-.41-.53-.15-.9.36-1.09a2.08,2.08,0,0,0,1.26-.93C55.32,85.24,55.68,84.6,56.38,84.66Z"/><path class="cls-182" d="M54.77,85.47c.2,1.28-1.61.92-1.62,2-.77-.43-1-.9,0-1.37C53.64,85.87,54.21,85.69,54.77,85.47Z"/><path class="cls-179" d="M106.07,110.52c.4-.52.81-.52,1.21,0C106.88,111.16,106.47,110.63,106.07,110.52Z"/><path class="cls-172" d="M93.55,96.38c.51-1,1.55-.93,2.42-1.21C95.55,96.34,94.46,96.18,93.55,96.38Z"/><path class="cls-105" d="M70.1,94.4l-1.18-1.71a6.73,6.73,0,0,1-.81-3.57,3.57,3.57,0,0,1,2.82,1.59A5.42,5.42,0,0,0,75,93.14c1.14.06,1.69.9,2.35,1.62a4.37,4.37,0,0,1-2.3-.42c-1.29-.77-2.93.08-4.3-.72C70.43,93.41,70.16,94,70.1,94.4Z"/><path class="cls-105" d="M71.32,96.8a5.82,5.82,0,0,1-1.15-2C71.44,94.94,71.66,95.71,71.32,96.8Z"/><path class="cls-158" d="M72.92,90.37c-.71-1.17-.3-2.45-.36-3.68C73.32,87.85,72.79,89.14,72.92,90.37Z"/></g></g></svg>