<svg xmlns="http://www.w3.org/2000/svg" viewBox="0 0 119 137" width="119" height="137">
	<defs>
		<clipPath clipPathUnits="userSpaceOnUse" id="cp1">
			<path d="M320.86 393L-39.28 393L-39.28 -109.73L320.86 -109.73L320.86 393Z" />
		</clipPath>
	</defs>
	<style>
		tspan { white-space:pre }
		.shp0 { fill: #ed6e70 } 
		.shp1 { fill: #f8c7c8 } 
		.shp2 { fill: #f3999b } 
		.shp3 { fill: none } 
		.shp4 { fill: #575756 } 
		.shp5 { fill: #ed6e70;stroke: #ed6e70;stroke-dasharray: 3,3 } 
	</style>
	<g id="Layer 1">
		<g id="&lt;Clip Group&gt;" clip-path="url(#cp1)">
			<g id="&lt;Group&gt;">
				<g id="&lt;Group&gt;">
					<g id="&lt;Group&gt;">
						<path id="&lt;Path&gt;" class="shp0" d="M25.15 50.13C24.16 47.32 21.6 42.65 15.19 40.05C12.52 38.97 10.89 38.01 9.9 37.26C9.96 36.54 9.72 35.8 9.19 35.23C6.27 32.11 5.76 28.31 5.75 28.22C5.59 26.76 4.26 25.7 2.79 25.86C1.31 26.02 0.25 27.34 0.4 28.81C0.43 29.04 1.05 34.4 5.25 38.88C5.78 39.44 6.5 39.73 7.22 39.73C7.28 39.73 7.35 39.72 7.41 39.72C8.77 40.81 10.82 42.02 13.88 43.26C19.01 45.34 21.05 49.01 21.84 51.17C21.74 50.73 21.67 50.38 21.62 50.13L25.15 50.13Z" />
						<path id="&lt;Path&gt;" class="shp1" d="M87.01 55.38C74.85 55.65 66.45 54.26 62.1 53.27C61.68 54.78 60.29 55.9 58.64 55.9C56.66 55.9 55.05 54.3 55.05 52.33C55.05 51.5 55.34 50.74 55.82 50.13L25.15 50.13L21.62 50.13C21.67 50.38 21.74 50.73 21.84 51.17C22.32 53.51 23.46 59.38 23.83 64.29C24.31 70.59 30.48 92.3 47.56 92.62C64.65 92.93 73.99 92.62 85.69 92.62C97.4 92.62 102.47 89.16 105.95 85.69C109.43 82.23 113.54 77.2 114.97 69.49C116.39 61.78 116.23 56.9 117.02 54.22C117.55 52.44 117.92 51.08 118.13 50.13C109.76 53.35 99.39 55.1 87.01 55.38Z" />
						<path id="&lt;Path&gt;" class="shp2" d="M61.44 50.1C68.09 44.52 85.02 28.62 94.29 4.71C89.44 3.8 84.48 3.1 79.42 2.61C71.82 1.88 67.82 -1.27 63.7 1.35C60.27 3.54 59.04 37.56 58.73 48.77C59.82 48.8 60.8 49.31 61.44 50.1Z" />
						<path id="&lt;Path&gt;" class="shp1" d="M61.44 50.1C61.73 50.47 61.95 50.89 62.09 51.36C72.12 48.39 101.48 38.82 115.18 24.85C111.45 20.52 108.07 16.81 105.05 13.73C102.03 10.65 98.44 7.65 94.29 4.71C85.02 28.62 68.09 44.52 61.44 50.1Z" />
						<path id="&lt;Path&gt;" class="shp2" d="M62.09 51.36C62.17 51.67 62.23 51.99 62.23 52.33C62.23 52.66 62.18 52.97 62.1 53.27C66.45 54.26 74.85 55.65 87.01 55.38C99.39 55.1 109.76 53.35 118.13 50.13C117.36 42.09 116.93 36.88 116.86 34.5C116.79 32.12 116.23 28.91 115.18 24.85C101.48 38.82 72.12 48.39 62.09 51.36Z" />
						<path id="&lt;Compound Path&gt;" fill-rule="evenodd" class="shp0" d="M55.05 52.33C55.05 51.5 55.34 50.74 55.82 50.13C56.48 49.3 57.5 48.77 58.64 48.77C58.67 48.77 58.7 48.77 58.73 48.77C59.82 48.8 60.8 49.31 61.44 50.1C61.73 50.47 61.95 50.89 62.09 51.36C62.17 51.67 62.23 51.99 62.23 52.33C62.23 52.66 62.18 52.97 62.1 53.27C61.68 54.78 60.29 55.9 58.64 55.9C56.66 55.9 55.05 54.3 55.05 52.33ZM58.64 50.21C57.46 50.21 56.5 51.16 56.5 52.33C56.5 53.51 57.46 54.46 58.64 54.46C59.82 54.46 60.78 53.51 60.78 52.33C60.78 51.16 59.82 50.21 58.64 50.21Z" />
						<path id="&lt;Path&gt;" class="shp1" d="M58.64 50.21C57.46 50.21 56.5 51.16 56.5 52.33C56.5 53.51 57.46 54.46 58.64 54.46C59.82 54.46 60.78 53.51 60.78 52.33C60.78 51.16 59.82 50.21 58.64 50.21Z" />
					</g>
					<g id="&lt;Group&gt;">
						<path id="&lt;Compound Path&gt;" class="shp3" d="" />
						<path id="&lt;Compound Path&gt;" class="shp3" d="" />
						<path id="&lt;Compound Path&gt;" fill-rule="evenodd" class="shp4" d="M66.97 115.65C66.97 127.05 57.65 136.32 46.19 136.32C34.74 136.32 25.42 127.05 25.42 115.65C25.42 104.26 34.74 94.99 46.19 94.99C57.65 94.99 66.97 104.26 66.97 115.65ZM65.19 115.29C65.13 112.09 64.27 109.09 62.79 106.47L49.27 114.27C49.41 114.59 49.52 114.94 49.55 115.31L65.19 115.29ZM46.56 134.54C49.77 134.48 52.79 133.63 55.43 132.16L47.59 118.71C47.26 118.85 46.91 118.96 46.53 118.99L46.56 134.54ZM48.94 115.65C48.94 114.15 47.71 112.93 46.19 112.93C44.68 112.93 43.45 114.15 43.45 115.65C43.45 117.16 44.68 118.38 46.19 118.38C47.71 118.38 48.94 117.16 48.94 115.65ZM47.58 112.59L55.37 99.11C52.73 97.66 49.71 96.81 46.5 96.76L46.52 112.31C46.9 112.35 47.25 112.45 47.58 112.59ZM62.46 105.89C60.85 103.25 58.61 101.03 55.95 99.44L48.16 112.93C48.45 113.14 48.71 113.4 48.93 113.69L62.46 105.89ZM36.96 99.14L44.8 112.6C45.13 112.45 45.48 112.35 45.85 112.31L45.83 96.76C42.61 96.82 39.59 97.68 36.96 99.14ZM29.9 105.95L43.45 113.7C43.67 113.41 43.93 113.15 44.22 112.93L36.38 99.48C33.72 101.07 31.49 103.3 29.9 105.95ZM27.2 115.35L42.84 115.33C42.87 114.96 42.97 114.6 43.12 114.28L29.56 106.52C28.1 109.15 27.25 112.16 27.2 115.35ZM27.2 116.02C27.26 119.21 28.12 122.22 29.59 124.84L43.12 117.04C42.97 116.71 42.87 116.36 42.84 115.99L27.2 116.02ZM29.93 125.41C31.53 128.05 33.77 130.27 36.44 131.86L44.23 118.38C43.94 118.17 43.67 117.91 43.46 117.61L29.93 125.41ZM37.02 132.19C39.66 133.65 42.68 134.49 45.89 134.54L45.87 118.99C45.49 118.96 45.14 118.86 44.81 118.71L37.02 132.19ZM62.49 125.36L48.94 117.6C48.72 117.9 48.46 118.16 48.17 118.37L56.01 131.83C58.66 130.23 60.9 128 62.49 125.36ZM65.19 115.95L49.55 115.98C49.52 116.35 49.42 116.7 49.27 117.03L62.83 124.78C64.29 122.15 65.14 119.15 65.19 115.95Z" />
						<path id="&lt;Path&gt;" class="shp4" d="M46.19 113.46C44.98 113.46 43.99 114.44 43.99 115.65C43.99 116.87 44.98 117.85 46.19 117.85C47.41 117.85 48.4 116.87 48.4 115.65C48.4 114.44 47.41 113.46 46.19 113.46Z" />
						<path id="&lt;Compound Path&gt;" fill-rule="evenodd" class="shp4" d="M114.89 115.65C114.89 127.05 105.57 136.32 94.11 136.32C82.65 136.32 73.33 127.05 73.33 115.65C73.33 104.26 82.65 94.99 94.11 94.99C105.57 94.99 114.89 104.26 114.89 115.65ZM113.1 115.29C113.04 112.09 112.18 109.09 110.71 106.47L97.18 114.27C97.33 114.59 97.43 114.94 97.47 115.31L113.1 115.29ZM94.48 134.54C97.69 134.48 100.71 133.63 103.34 132.16L95.5 118.71C95.17 118.85 94.82 118.96 94.45 118.99L94.48 134.54ZM96.85 115.65C96.85 114.15 95.62 112.93 94.11 112.93C92.6 112.93 91.37 114.15 91.37 115.65C91.37 117.16 92.6 118.38 94.11 118.38C95.62 118.38 96.85 117.16 96.85 115.65ZM95.49 112.59L103.29 99.11C100.65 97.66 97.62 96.81 94.41 96.76L94.44 112.31C94.81 112.35 95.16 112.45 95.49 112.59ZM110.37 105.89C108.77 103.25 106.53 101.03 103.87 99.44L96.07 112.93C96.37 113.14 96.63 113.4 96.84 113.69L110.37 105.89ZM84.87 99.14L92.71 112.6C93.04 112.45 93.4 112.35 93.77 112.31L93.74 96.76C90.53 96.82 87.51 97.68 84.87 99.14ZM77.81 105.95L91.37 113.7C91.58 113.41 91.84 113.15 92.14 112.93L84.29 99.48C81.64 101.07 79.41 103.3 77.81 105.95ZM75.11 115.35L90.75 115.33C90.79 114.96 90.88 114.6 91.03 114.28L77.48 106.52C76.01 109.15 75.16 112.16 75.11 115.35ZM75.11 116.02C75.17 119.21 76.03 122.22 77.51 124.84L91.04 117.04C90.89 116.71 90.79 116.36 90.75 115.99L75.11 116.02ZM77.84 125.41C79.45 128.05 81.69 130.27 84.35 131.86L92.15 118.38C91.85 118.17 91.59 117.91 91.37 117.61L77.84 125.41ZM84.93 132.19C87.57 133.65 90.59 134.49 93.81 134.54L93.78 118.99C93.41 118.96 93.05 118.86 92.73 118.71L84.93 132.19ZM110.41 125.36L96.85 117.6C96.64 117.9 96.38 118.16 96.08 118.37L103.92 131.83C106.58 130.23 108.81 128 110.41 125.36ZM113.1 115.95L97.47 115.98C97.43 116.35 97.33 116.7 97.18 117.03L110.74 124.78C112.2 122.15 113.05 119.15 113.1 115.95Z" />
						<path id="&lt;Path&gt;" class="shp4" d="M94.11 113.46C92.89 113.46 91.9 114.44 91.9 115.65C91.9 116.87 92.89 117.85 94.11 117.85C95.33 117.85 96.32 116.87 96.32 115.65C96.32 114.44 95.33 113.46 94.11 113.46Z" />
					</g>
					<g id="&lt;Group&gt;">
						<path id="&lt;Path&gt;" class="shp5" d="M95.42 87.6C96.24 88.21 95.51 89.39 94.63 89.3C93.41 89.18 93.4 87.64 93.9 86.84C94.53 85.83 95.91 85.39 97.04 85.68C98.41 86.03 99.17 87.41 99.25 88.73C99.33 90.02 98.76 91.25 97.9 92.18C95.8 94.46 92.47 94.69 89.57 94.51C86.48 94.33 83.45 94.04 80.36 94.21C77.6 94.36 74.38 94.49 72.05 96.15C70.22 97.45 69.43 99.62 70.19 101.77C70.8 103.54 72.42 104.49 74.22 104.74C76.19 105.01 77.91 103.99 78.72 102.21C79.56 100.36 78.52 97.96 76.59 97.29C75.59 96.94 74.26 97.1 73.61 98.01C73.03 98.81 73.28 99.9 74.07 100.43C74.5 100.73 74.82 100.34 74.45 99.97C73.72 99.26 74.58 98.26 75.29 98.05C75.95 97.87 76.65 98.01 77.17 98.44C78.07 99.2 78.33 100.55 77.88 101.62C76.93 103.86 74.27 104.61 72.2 103.3C69.87 101.83 70.67 98.4 72.57 96.97C75 95.15 78.63 95.09 81.55 94.99C84.77 94.88 87.94 95.35 91.15 95.38C93.68 95.41 96.35 94.95 98.28 93.19C99.88 91.71 100.61 89.44 99.74 87.38C98.97 85.58 97.05 84.42 95.09 84.96C94.1 85.23 93.23 85.91 92.91 86.9C92.58 87.92 92.9 89.1 93.85 89.68C94.6 90.12 95.71 90.15 96.2 89.32C96.63 88.58 96.32 87.68 95.6 87.27C95.34 87.13 95.2 87.44 95.42 87.6Z" />
						<path id="&lt;Path&gt;" class="shp5" d="M44.52 87.26C42.88 88.13 44.38 90.28 45.92 89.96C48.19 89.48 47.56 86.56 46.13 85.54C44.61 84.45 42.43 84.63 41.18 86.04C39.72 87.69 39.86 90.13 41.02 91.88C44.37 96.93 51.47 95.05 56.47 94.96C59.49 94.92 62.86 94.92 65.75 95.88C67.09 96.32 68.44 97.1 69.08 98.41C69.66 99.58 69.55 101.19 68.84 102.28C67.45 104.42 63.86 104.54 62.56 102.29C61.9 101.16 62.02 99.76 62.92 98.78C63.35 98.32 63.92 98 64.56 97.98C65.69 97.94 66.51 99.03 65.64 99.94C65.39 100.21 65.95 100.7 66.23 100.52C66.96 100.06 67.11 99.21 66.73 98.44C66.28 97.55 65.22 97.09 64.25 97.12C62.39 97.17 61.09 99.02 61.21 100.78C61.47 104.75 67.17 106.21 69.49 103.08C70.73 101.41 70.55 98.95 69.27 97.36C67.67 95.37 65.02 94.75 62.61 94.46C59.55 94.1 56.45 94.05 53.38 94.28C50.29 94.5 46.89 95.06 44 93.61C41.38 92.29 39.6 88.47 42.31 86.26C43.36 85.4 45.15 85.31 46.12 86.37C46.73 87.03 46.89 88.2 46.23 88.89C45.82 89.32 45.3 89.4 44.85 89.06C44.36 88.7 44.34 88.06 44.85 87.66C45.07 87.49 44.73 87.14 44.52 87.26Z" />
					</g>
				</g>
			</g>
		</g>
	</g>
</svg>