<svg id="Layer_1" data-name="Layer 1" xmlns="http://www.w3.org/2000/svg" xmlns:xlink="http://www.w3.org/1999/xlink" viewBox="0 0 360 504"><defs><style>.cls-1{fill:none;}.cls-2{clip-path:url(#clip-path);}.cls-3{fill:url(#linear-gradient);}.cls-4{fill:#ed7d18;opacity:0.8;}</style><clipPath id="clip-path"><rect class="cls-1" width="360" height="504"/></clipPath><linearGradient id="linear-gradient" x1="180" x2="180" y2="504" gradientTransform="matrix(1, 0, 0, -1, 0, 504)" gradientUnits="userSpaceOnUse"><stop offset="0.05" stop-color="#fff"/><stop offset="1" stop-color="#ffece4"/></linearGradient></defs><g class="cls-2"><rect class="cls-3" width="360" height="504"/><path class="cls-4" d="M370.2,290.12c-1.28,2.89-3.23,4.61-5.73,6.43a25.25,25.25,0,0,1-3.17,2.29c-1.68.88-3.08-.83-4-2-.17-.21-.46,0-.43.23.53,3.73-1.29,7.29-1.48,11-.09,1.68,0,6.15-2.43,6.28-1.7.09-3.1-1.69-3.9-3a25.08,25.08,0,0,1-2.25-5,51.61,51.61,0,0,0-2-4.94,33.35,33.35,0,0,1-2.67-6.45.26.26,0,0,0-.5.05,5.35,5.35,0,0,1-4.94,5.56,5.58,5.58,0,0,1-6-4.5.26.26,0,0,0-.42-.13c-4.07,4.05-10.77-1.8-13.18-5.2-.18-.26-.63,0-.45.25,1.29,2,5.94,12.11,1.29,12.41-.26,0-.39.45-.08.5,3.05.54,1.91,4.08,1.34,6.15a12.93,12.93,0,0,1-1.22,3.56c-.79,1.26-2.37,1.31-3.69,1.22a.26.26,0,0,0-.09.5,28.13,28.13,0,0,1,6.9,3.74c2.22,1.54,5.12,3.72,5.68,6.55.68,3.44-4.17,4.27-6.55,4.4-2.86.17-7-.13-9.13-2.31-.23-.24-.6.1-.37.34,5.39,5.88-6.1,12.38-11,12.76a.26.26,0,0,0,0,.51,30.83,30.83,0,0,1,7.24,2.1,7.8,7.8,0,0,1,3.34,2.33c.94,1.33-.15,2.62-1.19,3.48a.26.26,0,0,0,.17.44c2.74.08,6.05-.39,8.3,1.52s.49,5-1.13,6.64a.25.25,0,0,0,.29.41c1.29-.59,2.54-1.24,3.86-1.77s3.68-1.56,4.75-.33a.26.26,0,0,0,.31.05,11.64,11.64,0,0,1,6.23-1.54c2.62.2,4.12,2.27,4.58,4.7.54,2.88-.66,5.88-1.74,8.49a44.85,44.85,0,0,0-2.85,7.68c-.07.31.39.47.48.15,2.24-7.34,10-8.62,15.86-12,2.42-1.39,3.77-5,6.92-4.9,2,.08,3.65,1.9,4.81,3.33a38.7,38.7,0,0,1,3.21,5.07.25.25,0,0,0,.47-.18c-1-3.69,0-7.53-.55-11.28a2.56,2.56,0,0,1,2.66,1.52c.09.23.5.14.47-.11a24.52,24.52,0,0,0-5.55-13.26,7.66,7.66,0,0,0-.23-.82,19.41,19.41,0,0,0,2.52,2.07,48,48,0,0,1,5.48,4.38c3.42,3.29,6.53,7,10.42,9.74a41.37,41.37,0,0,0,12.44,6.13,22.91,22.91,0,0,0,5,.62c1.62.11,4,.09,5.2,1.3a.25.25,0,0,0,.4,0c1.65-2.58-2.28-2.79-3.92-2.86a21.82,21.82,0,0,1-4.77-.49,45.13,45.13,0,0,1-9-3.72,49.53,49.53,0,0,1-6.75-4.22,46,46,0,0,1-6.14-5.87c-2.93-3.16-5.91-6.39-9.6-8.61,4.38.44,9.15,1.47,13.18-.46,2.16-1,3.23-3.32,4.74-5a13.16,13.16,0,0,1,9.08-4.13.26.26,0,0,0,0-.51c-2.58-.33-2-2.94-1.15-4.64,1.19-2.28,3.78-3.15,5.86-4.4.24-.14.11-.57-.18-.47a19.54,19.54,0,0,1-7.94.74c-2.7-.19-5.74-.73-8-2.41-2.66-2-1.93-5.69-.87-8.35a29.1,29.1,0,0,1,4.6-7.4c.15-.18-.07-.43-.27-.38a10.69,10.69,0,0,1-4.46.36c-1.74-.34-2.72-1.8-3.28-3.36a50.06,50.06,0,0,1-2.31-11C370.66,289.86,370.29,289.92,370.2,290.12Z"/><path class="cls-4" d="M37.2,76.82a5.75,5.75,0,0,1-2.11,2.37,10.45,10.45,0,0,1-1.17.84c-.62.33-1.14-.3-1.48-.73-.07-.08-.17,0-.16.08.19,1.38-.48,2.69-.55,4.06,0,.62,0,2.27-.9,2.32-.62,0-1.14-.63-1.44-1.09a9.48,9.48,0,0,1-.82-1.84A19.32,19.32,0,0,0,27.82,81a12.3,12.3,0,0,1-1-2.38.1.1,0,0,0-.19,0,2,2,0,0,1-1.82,2A2.07,2.07,0,0,1,22.62,79a.1.1,0,0,0-.16-.05c-1.5,1.49-4-.66-4.86-1.92-.07-.09-.23,0-.16.09.47.73,2.19,4.47.47,4.58-.1,0-.14.17,0,.19,1.13.2.71,1.5.5,2.27a5.08,5.08,0,0,1-.45,1.31,1.42,1.42,0,0,1-1.37.45.09.09,0,0,0,0,.18,10.66,10.66,0,0,1,2.55,1.38,4.53,4.53,0,0,1,2.09,2.42c.25,1.27-1.54,1.58-2.41,1.63a4.6,4.6,0,0,1-3.37-.86c-.09-.08-.22,0-.14.13,2,2.17-2.25,4.57-4.06,4.71a.1.1,0,0,0,0,.19,10.75,10.75,0,0,1,2.67.77,2.84,2.84,0,0,1,1.24.86c.34.49-.06,1-.44,1.28a.1.1,0,0,0,.06.17c1,0,2.23-.15,3.06.56s.18,1.83-.42,2.45a.09.09,0,0,0,.11.15c.48-.22.94-.46,1.42-.66s1.36-.57,1.76-.12a.08.08,0,0,0,.11,0,4.32,4.32,0,0,1,2.3-.57,1.93,1.93,0,0,1,1.69,1.74,5.71,5.71,0,0,1-.64,3.13,16.88,16.88,0,0,0-1.05,2.83.09.09,0,0,0,.18.06c.82-2.71,3.69-3.18,5.85-4.42.89-.52,1.39-1.86,2.55-1.81a2.77,2.77,0,0,1,1.78,1.23,14.38,14.38,0,0,1,1.18,1.87.09.09,0,0,0,.17-.07c-.36-1.36,0-2.78-.2-4.16a.93.93,0,0,1,1,.56c0,.09.19,0,.18,0a9.08,9.08,0,0,0-2-4.89,1.58,1.58,0,0,0-.09-.31,7.6,7.6,0,0,0,.93.77,17.61,17.61,0,0,1,2,1.61,37.38,37.38,0,0,0,3.85,3.6A15.35,15.35,0,0,0,45,104.61a8.65,8.65,0,0,0,1.83.23,3.1,3.1,0,0,1,1.92.48.09.09,0,0,0,.15,0c.61-1-.84-1-1.45-1a8.69,8.69,0,0,1-1.76-.18,16.62,16.62,0,0,1-3.32-1.38A14.76,14.76,0,0,1,37.58,99,17.24,17.24,0,0,0,34,95.79c1.62.17,3.37.54,4.86-.17.8-.38,1.19-1.22,1.75-1.85A4.81,4.81,0,0,1,44,92.25a.1.1,0,0,0,0-.19c-.95-.13-.75-1.09-.43-1.72.44-.84,1.4-1.16,2.17-1.62.08,0,0-.21-.07-.17a7.24,7.24,0,0,1-2.93.27,5.48,5.48,0,0,1-2.93-.89c-1-.74-.72-2.1-.32-3.08a10.55,10.55,0,0,1,1.69-2.73c.06-.07,0-.16-.1-.14a3.79,3.79,0,0,1-1.64.13,1.71,1.71,0,0,1-1.21-1.24,18.61,18.61,0,0,1-.86-4.05C37.37,76.72,37.24,76.74,37.2,76.82Z"/><path class="cls-4" d="M316.38,36.88a5.77,5.77,0,0,0,2.11,2.38,10.45,10.45,0,0,0,1.17.84c.62.32,1.14-.3,1.48-.74a.09.09,0,0,1,.16.09c-.19,1.37.48,2.69.55,4.06,0,.62,0,2.27.9,2.31.63,0,1.14-.62,1.44-1.08A9.15,9.15,0,0,0,325,42.9c.23-.62.46-1.23.75-1.83a12,12,0,0,0,1-2.37c0-.11.19-.09.19,0a2,2,0,0,0,1.82,2A2.05,2.05,0,0,0,331,39.1a.1.1,0,0,1,.16,0c1.5,1.49,4-.67,4.86-1.92.07-.1.23,0,.17.09-.48.73-2.19,4.47-.48,4.58.1,0,.14.16,0,.18-1.12.2-.71,1.51-.49,2.27a4.68,4.68,0,0,0,.45,1.32A1.39,1.39,0,0,0,337,46a.09.09,0,0,1,0,.18,10.5,10.5,0,0,0-2.55,1.38A4.53,4.53,0,0,0,332.41,50c-.25,1.27,1.54,1.57,2.41,1.62a4.6,4.6,0,0,0,3.37-.85.1.1,0,0,1,.14.13c-2,2.16,2.25,4.56,4.06,4.7a.1.1,0,0,1,0,.19,11.22,11.22,0,0,0-2.67.78,2.76,2.76,0,0,0-1.23.86c-.35.49.05,1,.43,1.28a.09.09,0,0,1-.06.16c-1,0-2.23-.14-3.06.56s-.18,1.84.42,2.45a.1.1,0,0,1-.11.16c-.47-.22-.94-.46-1.42-.66s-1.36-.57-1.76-.12a.09.09,0,0,1-.11,0,4.32,4.32,0,0,0-2.3-.57,1.93,1.93,0,0,0-1.69,1.74,5.71,5.71,0,0,0,.64,3.13,16.88,16.88,0,0,1,1,2.83.09.09,0,0,1-.18.06c-.82-2.71-3.69-3.18-5.85-4.43-.89-.51-1.39-1.85-2.55-1.81a2.76,2.76,0,0,0-1.77,1.23A14.75,14.75,0,0,0,319,65.34a.09.09,0,0,1-.17-.06c.36-1.36,0-2.78.2-4.16a.92.92,0,0,0-1,.56c0,.08-.18,0-.18,0a9.12,9.12,0,0,1,2.05-4.9,1.71,1.71,0,0,1,.09-.3,6.85,6.85,0,0,1-.93.76,17.48,17.48,0,0,0-2,1.62,35.28,35.28,0,0,1-3.85,3.59,15.14,15.14,0,0,1-4.59,2.27,8.65,8.65,0,0,1-1.83.23,3.17,3.17,0,0,0-1.92.47.09.09,0,0,1-.15,0c-.61-1,.85-1,1.45-1.05a8,8,0,0,0,1.76-.19,16.33,16.33,0,0,0,3.33-1.37,16.91,16.91,0,0,0,2.48-1.56A16.57,16.57,0,0,0,316,59a17,17,0,0,1,3.54-3.18c-1.61.16-3.37.54-4.86-.17-.8-.38-1.19-1.22-1.75-1.86a4.85,4.85,0,0,0-3.35-1.52.1.1,0,0,1,0-.19c.95-.12.76-1.08.43-1.71-.44-.84-1.4-1.16-2.17-1.62-.08,0,0-.21.07-.18a7.26,7.26,0,0,0,2.93.28,5.48,5.48,0,0,0,2.93-.89c1-.75.72-2.1.33-3.08a10.69,10.69,0,0,0-1.7-2.73c-.06-.07,0-.16.1-.15a4,4,0,0,0,1.64.14,1.72,1.72,0,0,0,1.21-1.24,18.61,18.61,0,0,0,.86-4C316.21,36.79,316.35,36.81,316.38,36.88Z"/><path class="cls-4" d="M-28.42,382c2,4.45,5,7.11,8.84,9.93a41.08,41.08,0,0,0,4.9,3.53c2.59,1.36,4.75-1.28,6.2-3.09.27-.33.72,0,.67.36-.83,5.75,2,11.26,2.28,17,.14,2.6,0,9.5,3.76,9.7,2.63.13,4.78-2.61,6-4.55a38.85,38.85,0,0,0,3.46-7.7c1-2.6,1.91-5.13,3.11-7.62,1.56-3.25,3.26-6.44,4.12-10a.4.4,0,0,1,.78.08c0,4.58,3,8.15,7.63,8.57a8.6,8.6,0,0,0,9.24-6.94.39.39,0,0,1,.65-.2c6.29,6.25,16.62-2.78,20.35-8,.29-.41,1-.06.69.37-2,3.05-9.16,18.71-2,19.17.41,0,.61.68.13.77-4.7.83-3,6.3-2.07,9.5a20,20,0,0,0,1.89,5.49c1.22,1.95,3.64,2,5.69,1.88a.4.4,0,0,1,.14.77,43.46,43.46,0,0,0-10.65,5.78c-3.43,2.38-7.91,5.75-8.77,10.12-1.06,5.31,6.44,6.58,10.11,6.79,4.42.26,10.79-.21,14.09-3.57a.39.39,0,0,1,.58.53c-8.32,9.07,9.41,19.11,17,19.7a.4.4,0,0,1,0,.79,47.28,47.28,0,0,0-11.18,3.24A11.92,11.92,0,0,0,64.12,468c-1.45,2.06.23,4.06,1.83,5.37a.39.39,0,0,1-.25.68c-4.24.13-9.35-.59-12.82,2.35s-.75,7.68,1.75,10.25a.4.4,0,0,1-.45.64c-2-.92-3.93-1.92-6-2.74-1.87-.76-5.68-2.4-7.34-.51a.38.38,0,0,1-.47.08,18,18,0,0,0-9.62-2.38c-4,.32-6.37,3.52-7.07,7.26-.84,4.45,1,9.09,2.67,13.11s3.53,7.7,4.42,11.85c.1.49-.6.73-.75.24-3.46-11.33-15.45-13.32-24.49-18.51-3.74-2.14-5.82-7.76-10.69-7.57-3.07.12-5.63,2.93-7.41,5.14a59.08,59.08,0,0,0-5,7.83.4.4,0,0,1-.73-.28c1.53-5.7,0-11.63.85-17.41-1.79,0-3.35.52-4.1,2.35a.4.4,0,0,1-.74-.17,37.9,37.9,0,0,1,8.58-20.48,7.88,7.88,0,0,1,.36-1.26,31.7,31.7,0,0,1-3.9,3.19,73.27,73.27,0,0,0-8.45,6.77c-5.29,5.08-10.09,10.74-16.1,15a63.6,63.6,0,0,1-19.2,9.47,37.17,37.17,0,0,1-7.66,1c-2.5.17-6.1.14-8,2a.4.4,0,0,1-.62-.06c-2.55-4,3.53-4.31,6.06-4.41a33.75,33.75,0,0,0,7.36-.76,69.48,69.48,0,0,0,13.91-5.75,73.9,73.9,0,0,0,10.42-6.52A69.39,69.39,0,0,0-30,474.67c4.52-4.87,9.12-9.86,14.82-13.29-6.77.68-14.12,2.26-20.35-.71-3.32-1.59-5-5.13-7.31-7.77a20.3,20.3,0,0,0-14-6.37.39.39,0,0,1,0-.78c4-.52,3.15-4.55,1.78-7.17-1.85-3.52-5.84-4.87-9.06-6.79-.37-.22-.16-.89.28-.73,3.87,1.38,8.2,1.43,12.26,1.14s8.86-1.13,12.27-3.72c4.11-3.11,3-8.78,1.35-12.89a44.94,44.94,0,0,0-7.11-11.43c-.23-.28.11-.67.42-.59a16.21,16.21,0,0,0,6.88.55c2.69-.52,4.2-2.77,5.07-5.18A77.1,77.1,0,0,0-29.18,382C-29.13,381.57-28.56,381.67-28.42,382Z"/></g></svg>